<svg width="50" height="50" viewBox="0 0 50 50" fill="none" xmlns="http://www.w3.org/2000/svg">
<path d="M13.586 3.96878L8.1172 1.62503C8.02125 1.58253 7.91746 1.56057 7.81252 1.56057C7.70757 1.56057 7.60378 1.58253 7.50783 1.62503L2.03908 3.96878C1.89787 4.02859 1.77738 4.12863 1.69264 4.25644C1.6079 4.38425 1.56264 4.53417 1.56252 4.68753V7.42972C1.56071 8.14816 1.70132 8.85984 1.97622 9.52362C2.25111 10.1874 2.65485 10.7901 3.16408 11.2969L7.25783 15.3985C7.40593 15.5437 7.60508 15.6251 7.81252 15.6251C8.01995 15.6251 8.21911 15.5437 8.3672 15.3985L12.461 11.2969C12.9702 10.7901 13.3739 10.1874 13.6488 9.52362C13.9237 8.85984 14.0643 8.14816 14.0625 7.42972V4.68753C14.0624 4.53417 14.0171 4.38425 13.9324 4.25644C13.8476 4.12863 13.7272 4.02859 13.586 3.96878ZM12.5 7.42972C12.502 7.94319 12.4022 8.45195 12.2064 8.92664C12.0106 9.40133 11.7227 9.83253 11.3594 10.1953L7.81252 13.7422L4.26564 10.1953C3.90229 9.83253 3.61442 9.40133 3.41864 8.92664C3.22287 8.45195 3.12307 7.94319 3.12502 7.42972V5.20315L7.81252 3.19534L12.5 5.20315V7.42972Z" fill="white"/>
<path d="M7.8126 10.1563C8.01978 10.1562 8.21846 10.0739 8.36494 9.92735L11.4899 6.80235L10.3853 5.69766L7.8126 8.27032L6.80244 7.26016L5.69775 8.36485L7.26025 9.92735C7.40673 10.0739 7.60541 10.1562 7.8126 10.1563Z" fill="white"/>
<path d="M47.9641 3.96956L42.4953 1.62581C42.398 1.58443 42.2933 1.5631 42.1875 1.5631C42.0817 1.5631 41.977 1.58443 41.8797 1.62581L36.411 3.96956C36.2705 4.02979 36.1507 4.12992 36.0666 4.25754C35.9824 4.38516 35.9375 4.53466 35.9375 4.68753V7.43363C35.9357 8.15208 36.0763 8.86377 36.3512 9.52755C36.6261 10.1913 37.0298 10.794 37.5391 11.3008L41.6352 15.3961C41.7817 15.5426 41.9804 15.6249 42.1875 15.6249C42.3947 15.6249 42.5934 15.5426 42.7399 15.3961L46.836 11.3008C47.3452 10.794 47.749 10.1913 48.0239 9.52755C48.2988 8.86377 48.4394 8.15208 48.4375 7.43363V4.68753C48.4375 4.53466 48.3926 4.38516 48.3085 4.25754C48.2243 4.12992 48.1046 4.02979 47.9641 3.96956ZM46.875 7.43363C46.8763 7.94681 46.7758 8.45515 46.5795 8.92931C46.3832 9.40346 46.0949 9.83402 45.7313 10.1961L42.1875 13.7391L38.6445 10.1961C38.2807 9.83416 37.9921 9.40364 37.7957 8.92947C37.5992 8.4553 37.4987 7.94688 37.5 7.43363V5.20238L42.1875 3.19378L46.875 5.20238V7.43363Z" fill="white"/>
<path d="M41.1774 7.26016L40.0728 8.36485L41.6353 9.92735C41.7818 10.0738 41.9804 10.1561 42.1876 10.1561C42.3948 10.1561 42.5934 10.0738 42.7399 9.92735L45.8649 6.80235L44.7603 5.69766L42.1876 8.27032L41.1774 7.26016Z" fill="white"/>
<path d="M47.9641 36.7821L42.4953 34.4383C42.398 34.3969 42.2933 34.3756 42.1875 34.3756C42.0817 34.3756 41.977 34.3969 41.8797 34.4383L36.411 36.7821C36.2705 36.8423 36.1507 36.9424 36.0666 37.07C35.9824 37.1977 35.9375 37.3472 35.9375 37.5V40.2461C35.9357 40.9646 36.0763 41.6763 36.3512 42.34C36.6261 43.0038 37.0298 43.6065 37.5391 44.1133L41.6352 48.2086C41.7817 48.3551 41.9804 48.4374 42.1875 48.4374C42.3947 48.4374 42.5934 48.3551 42.7399 48.2086L46.836 44.1133C47.3452 43.6065 47.749 43.0038 48.0239 42.34C48.2988 41.6763 48.4394 40.9646 48.4375 40.2461V37.5C48.4375 37.3472 48.3926 37.1977 48.3085 37.07C48.2243 36.9424 48.1046 36.8423 47.9641 36.7821ZM46.875 40.2461C46.8763 40.7593 46.7758 41.2677 46.5795 41.7418C46.3832 42.216 46.0949 42.6465 45.7313 43.0086L42.1875 46.5516L38.6445 43.0086C38.2807 42.6467 37.9921 42.2161 37.7957 41.742C37.5992 41.2678 37.4987 40.7594 37.5 40.2461V38.0149L42.1875 36.0063L46.875 38.0149V40.2461Z" fill="white"/>
<path d="M41.1774 40.0727L40.0728 41.1774L41.6353 42.7399C41.7818 42.8863 41.9804 42.9686 42.1876 42.9686C42.3948 42.9686 42.5934 42.8863 42.7399 42.7399L45.8649 39.6149L44.7603 38.5102L42.1876 41.0828L41.1774 40.0727Z" fill="white"/>
<path d="M13.5891 36.7821L8.12033 34.4383C8.02299 34.3969 7.91829 34.3756 7.81252 34.3756C7.70674 34.3756 7.60205 34.3969 7.50471 34.4383L2.03596 36.7821C1.89545 36.8423 1.77571 36.9424 1.69155 37.07C1.6074 37.1977 1.56253 37.3472 1.56252 37.5V40.2461C1.56067 40.9646 1.70126 41.6763 1.97616 42.34C2.25106 43.0038 2.65481 43.6065 3.16408 44.1133L7.26017 48.2086C7.40668 48.3551 7.60536 48.4374 7.81252 48.4374C8.01968 48.4374 8.21836 48.3551 8.36486 48.2086L12.461 44.1133C12.9702 43.6065 13.374 43.0038 13.6489 42.34C13.9238 41.6763 14.0644 40.9646 14.0625 40.2461V37.5C14.0625 37.3472 14.0176 37.1977 13.9335 37.07C13.8493 36.9424 13.7296 36.8423 13.5891 36.7821ZM12.5 40.2461C12.5013 40.7593 12.4008 41.2677 12.2045 41.7418C12.0082 42.216 11.7199 42.6465 11.3563 43.0086L7.81252 46.5516L4.26955 43.0086C3.90566 42.6467 3.61714 42.2161 3.42069 41.742C3.22424 41.2678 3.12374 40.7594 3.12502 40.2461V38.0149L7.81252 36.0063L12.5 38.0149V40.2461Z" fill="white"/>
<path d="M6.80244 40.0727L5.69775 41.1774L7.26025 42.7399C7.40676 42.8863 7.60544 42.9686 7.8126 42.9686C8.01976 42.9686 8.21843 42.8863 8.36494 42.7399L11.4899 39.6149L10.3853 38.5102L7.8126 41.0828L6.80244 40.0727Z" fill="white"/>
<path d="M25 10.1563C22.0642 10.1563 19.1943 11.0269 16.7533 12.6579C14.3122 14.289 12.4097 16.6072 11.2862 19.3196C10.1627 22.0319 9.86873 25.0165 10.4415 27.8959C11.0142 30.7753 12.428 33.4202 14.5039 35.4961C16.5798 37.5721 19.2247 38.9858 22.1041 39.5586C24.9835 40.1313 27.9681 39.8374 30.6805 38.7139C33.3928 37.5904 35.7111 35.6878 37.3421 33.2468C38.9732 30.8057 39.8438 27.9358 39.8438 25C39.8402 21.0643 38.2752 17.2908 35.4922 14.5078C32.7093 11.7248 28.9357 10.1598 25 10.1563ZM25 38.2813C22.3732 38.2813 19.8054 37.5023 17.6213 36.043C15.4372 34.5836 13.735 32.5094 12.7297 30.0825C11.7245 27.6557 11.4615 24.9853 11.974 22.409C12.4864 19.8327 13.7513 17.4662 15.6087 15.6088C17.4662 13.7514 19.8327 12.4864 22.409 11.974C24.9853 11.4615 27.6557 11.7245 30.0825 12.7298C32.5094 13.735 34.5836 15.4373 36.043 17.6214C37.5023 19.8055 38.2813 22.3732 38.2813 25C38.2763 28.5209 36.8754 31.8962 34.3858 34.3858C31.8961 36.8755 28.5209 38.2763 25 38.2813Z" fill="white"/>
<path d="M25 16.4063C23.3003 16.4063 21.6388 16.9103 20.2256 17.8546C18.8123 18.7989 17.7109 20.141 17.0604 21.7113C16.41 23.2817 16.2398 25.0096 16.5714 26.6766C16.903 28.3436 17.7214 29.8749 18.9233 31.0767C20.1252 32.2786 21.6564 33.0971 23.3234 33.4287C24.9905 33.7603 26.7184 33.5901 28.2887 32.9396C29.859 32.2892 31.2012 31.1877 32.1454 29.7745C33.0897 28.3612 33.5938 26.6997 33.5938 25C33.5923 22.7213 32.6864 20.5363 31.0751 18.9249C29.4638 17.3136 27.2788 16.4077 25 16.4063ZM31.9844 24.2188H28.8906C28.8592 23.4199 28.7757 22.624 28.6406 21.836C29.3142 21.5226 29.9444 21.1234 30.5156 20.6485C31.3306 21.6772 31.8396 22.9144 31.9844 24.2188ZM29.4141 19.5313C29.0645 19.8152 28.6876 20.0638 28.2891 20.2735C28.1163 19.6508 27.8834 19.0464 27.5938 18.4688C28.2495 18.7314 28.8629 19.0894 29.4141 19.5313ZM25 17.9688C25.5938 17.9688 26.3516 19.0235 26.8438 20.8438C25.6372 21.1771 24.3628 21.1771 23.1563 20.8438C23.6484 19.0235 24.4063 17.9688 25 17.9688ZM19.4844 20.6485C20.0556 21.1234 20.6858 21.5226 21.3594 21.836C21.2243 22.624 21.1408 23.4199 21.1094 24.2188H18.0156C18.1605 22.9144 18.6694 21.6772 19.4844 20.6485ZM18.0156 25.7813H21.1094C21.1408 26.5802 21.2243 27.3761 21.3594 28.1641C20.6858 28.4775 20.0556 28.8767 19.4844 29.3516C18.6694 28.3229 18.1605 27.0856 18.0156 25.7813ZM20.5859 30.4688C20.9355 30.1849 21.3124 29.9363 21.7109 29.7266C21.8837 30.3493 22.1166 30.9537 22.4063 31.5313C21.7505 31.2687 21.1371 30.9106 20.5859 30.4688ZM21.7109 20.2735C21.3124 20.0638 20.9355 19.8152 20.5859 19.5313C21.1371 19.0894 21.7505 18.7314 22.4063 18.4688C22.1166 19.0464 21.8837 19.6508 21.7109 20.2735ZM25 32.0313C24.4063 32.0313 23.6484 30.9766 23.1563 29.1563C24.3628 28.8229 25.6372 28.8229 26.8438 29.1563C26.3516 30.9766 25.5938 32.0313 25 32.0313ZM27.1563 27.625C25.7432 27.25 24.2568 27.25 22.8438 27.625C22.7512 27.0143 22.6938 26.3987 22.6719 25.7813H27.3281C27.3062 26.3987 27.2489 27.0143 27.1563 27.625ZM22.6719 24.2188C22.6938 23.6014 22.7512 22.9858 22.8438 22.375C24.2568 22.75 25.7432 22.75 27.1563 22.375C27.2489 22.9858 27.3062 23.6014 27.3281 24.2188H22.6719ZM27.5938 31.5313C27.8834 30.9537 28.1163 30.3493 28.2891 29.7266C28.6876 29.9363 29.0645 30.1849 29.4141 30.4688C28.8629 30.9106 28.2495 31.2687 27.5938 31.5313ZM30.5156 29.3516C29.9444 28.8767 29.3142 28.4775 28.6406 28.1641C28.7757 27.3761 28.8592 26.5802 28.8906 25.7813H31.9844C31.8396 27.0856 31.3306 28.3229 30.5156 29.3516Z" fill="white"/>
<path d="M24.2188 13.2813H25.7812V14.8438H24.2188V13.2813Z" fill="white"/>
<path d="M18.4634 15.2458L19.8158 14.465L20.5967 15.8174L19.2442 16.5983L18.4634 15.2458Z" fill="white"/>
<path d="M14.46 19.8167L15.2412 18.4636L16.5943 19.2449L15.8131 20.598L14.46 19.8167Z" fill="white"/>
<path d="M13.2812 24.2188H14.8438V25.7813H13.2812V24.2188Z" fill="white"/>
<path d="M14.4624 30.1789L15.8155 29.3977L16.5968 30.7508L15.2437 31.5321L14.4624 30.1789Z" fill="white"/>
<path d="M18.4634 34.7528L19.2442 33.4003L20.5967 34.1812L19.8158 35.5336L18.4634 34.7528Z" fill="white"/>
<path d="M24.2188 35.1563H25.7812V36.7188H24.2188V35.1563Z" fill="white"/>
<path d="M29.3989 34.1924L30.7514 33.4116L31.5322 34.764L30.1798 35.5449L29.3989 34.1924Z" fill="white"/>
<path d="M33.4038 30.7544L34.1851 29.4013L35.5382 30.1825L34.7569 31.5357L33.4038 30.7544Z" fill="white"/>
<path d="M35.1562 24.2188H36.7188V25.7813H35.1562V24.2188Z" fill="white"/>
<path d="M33.4033 19.2414L34.7565 18.4602L35.5377 19.8133L34.1846 20.5945L33.4033 19.2414Z" fill="white"/>
<path d="M29.3989 15.8102L30.1798 14.4577L31.5322 15.2386L30.7514 16.591L29.3989 15.8102Z" fill="white"/>
<path d="M5.52358 16.8867C4.45526 19.4604 3.9058 22.2198 3.90674 25.0064C3.90768 27.793 4.459 30.552 5.52905 33.125L6.97045 32.5227C5.97997 30.1401 5.46968 27.5854 5.46888 25.0052C5.46807 22.4249 5.97676 19.8699 6.96576 17.4867L5.52358 16.8867Z" fill="white"/>
<path d="M17.4883 43.0352L16.8867 44.4774C19.4605 45.5453 22.2199 46.0945 25.0065 46.0934C27.7931 46.0924 30.552 45.5411 33.125 44.4711L32.5226 43.0289C27.7095 45.0204 22.3031 45.0226 17.4883 43.0352Z" fill="white"/>
<path d="M44.471 33.125C45.5413 30.5517 46.0927 27.7923 46.0937 25.0053C46.0946 22.2182 45.545 19.4585 44.4765 16.8844L43.0343 17.486C44.0234 19.8693 44.5321 22.4245 44.5311 25.0049C44.5302 27.5853 44.0197 30.1401 43.0288 32.5227L44.471 33.125Z" fill="white"/>
<path d="M32.5117 6.96568L33.1133 5.52349C30.5396 4.45517 27.7802 3.90571 24.9936 3.90665C22.207 3.90759 19.448 4.45891 16.875 5.52896L17.4773 6.97115C22.2904 4.97884 27.6972 4.97687 32.5117 6.96568Z" fill="white"/>
</svg>
