<svg width="50" height="50" viewBox="0 0 50 50" fill="none" xmlns="http://www.w3.org/2000/svg">
<path d="M34.375 42.9688H22.9797L23.9898 41.9586C24.2953 41.6531 24.2953 41.1594 23.9898 40.8539L14.6148 31.4789C14.4688 31.332 14.2695 31.25 14.0625 31.25H2.34375V29.6875H0.78125V43.75H2.34375V42.1875H9.09609L17.4742 49.0422C17.6133 49.1562 17.7883 49.2188 17.9688 49.2188H34.375C34.8063 49.2188 35.1562 48.8695 35.1562 48.4375V43.75C35.1562 43.318 34.8063 42.9688 34.375 42.9688ZM33.5938 47.6562H18.2477L9.86953 40.8016C9.73047 40.6875 9.55547 40.625 9.375 40.625H2.34375V32.8125H13.7391L22.3328 41.4062L20.3125 43.4266L16.1773 39.2914L15.0727 40.3961L19.7602 45.0836C19.9125 45.2359 20.1125 45.3125 20.3125 45.3125C20.5125 45.3125 20.7125 45.2359 20.8648 45.0836L21.4172 44.5312H33.5938V47.6562Z" fill="white"/>
<path d="M34.5 34C32.0852 34 29.7539 33.3109 27.7313 32.0023L23.082 33.9391C22.9844 33.9805 22.8828 34 22.7812 34C22.5781 34 22.3781 33.9203 22.2289 33.7711C22.0047 33.5477 21.9383 33.2102 22.0602 32.918L23.9969 28.2687C22.6891 26.2453 22 23.9148 22 21.5C22 14.6078 27.6078 9 34.5 9C41.3922 9 47 14.6078 47 21.5C47 28.3922 41.3922 34 34.5 34ZM34.5 10.5625C28.4688 10.5625 23.5625 15.4688 23.5625 21.5C23.5625 23.7383 24.2398 25.8945 25.5211 27.7352C25.6734 27.9539 25.7031 28.2359 25.6016 28.482L24.2328 31.7672L27.518 30.3984C27.7641 30.2953 28.0453 30.325 28.2648 30.4789C30.1055 31.7602 32.2617 32.4375 34.5 32.4375C40.5312 32.4375 45.4375 27.5312 45.4375 21.5C45.4375 15.4688 40.5312 10.5625 34.5 10.5625Z" fill="#1357DD"/>
<path d="M30.5938 20.7188C32.3172 20.7188 33.7188 19.3172 33.7188 17.5938C33.7188 15.8703 32.3172 14.4688 30.5938 14.4688C28.8703 14.4688 27.4688 15.8703 27.4688 17.5938C27.4688 19.3172 28.8703 20.7188 30.5938 20.7188ZM30.5938 16.0312C31.4555 16.0312 32.1562 16.732 32.1562 17.5938C32.1562 18.4555 31.4555 19.1562 30.5938 19.1562C29.732 19.1562 29.0312 18.4555 29.0312 17.5938C29.0312 16.732 29.732 16.0312 30.5938 16.0312Z" fill="white"/>
<path d="M38.4062 22.2812C36.6828 22.2812 35.2812 23.6828 35.2812 25.4062C35.2812 27.1297 36.6828 28.5312 38.4062 28.5312C40.1297 28.5312 41.5312 27.1297 41.5312 25.4062C41.5312 23.6828 40.1297 22.2812 38.4062 22.2812ZM38.4062 26.9688C37.5445 26.9688 36.8438 26.268 36.8438 25.4062C36.8438 24.5445 37.5445 23.8438 38.4062 23.8438C39.268 23.8438 39.9688 24.5445 39.9688 25.4062C39.9688 26.268 39.268 26.9688 38.4062 26.9688Z" fill="white"/>
<path d="M27.6953 27.1969L40.1932 14.699L41.2979 15.8037L28.8 28.3016L27.6953 27.1969Z" fill="white"/>
</svg>
