<svg width="50" height="50" viewBox="0 0 50 50" fill="none" xmlns="http://www.w3.org/2000/svg">
<path d="M24.4688 31.0391C24.6124 31.1746 24.8025 31.2501 25 31.2501C25.1975 31.2501 25.3876 31.1746 25.5312 31.0391L32.4766 24.5938C33.8125 23.3481 34.8783 21.8414 35.608 20.1669C36.3377 18.4924 36.7158 16.686 36.7188 14.8594V7.03128C36.7186 6.87792 36.6734 6.728 36.5886 6.60019C36.5039 6.47238 36.3834 6.37233 36.2422 6.31253L25.3047 1.62503C25.2087 1.58253 25.1049 1.56057 25 1.56057C24.8951 1.56057 24.7913 1.58253 24.6953 1.62503L13.7578 6.31253C13.6166 6.37233 13.4961 6.47238 13.4114 6.60019C13.3266 6.728 13.2814 6.87792 13.2812 7.03128V14.8594C13.2842 16.686 13.6622 18.4924 14.392 20.1669C15.1217 21.8414 16.1875 23.3481 17.5234 24.5938L24.4688 31.0391ZM14.8438 7.5469L25 3.19534L35.1562 7.5469V14.8594C35.1544 16.4706 34.8212 18.0642 34.1774 19.5413C33.5337 21.0183 32.5931 22.3472 31.4141 23.4453L25 29.4063L18.5859 23.4453C17.4069 22.3472 16.4663 21.0183 15.8226 19.5413C15.1788 18.0642 14.8456 16.4706 14.8438 14.8594V7.5469Z" fill="#1357DD"/>
<path d="M48.1094 34.7657L46.5469 32.0625C46.0287 31.1656 45.1761 30.5107 44.1759 30.2412C43.1758 29.9718 42.1096 30.1098 41.2109 30.625L29.6875 37.2813V36.7188C29.6875 35.6828 29.2759 34.6892 28.5434 33.9566C27.8108 33.2241 26.8173 32.8125 25.7812 32.8125H11.7188C11.634 32.814 11.5499 32.8272 11.4688 32.8516L6.90625 34.375H2.34375C2.13655 34.375 1.93784 34.4573 1.79132 34.6039C1.64481 34.7504 1.5625 34.9491 1.5625 35.1563V47.6563C1.5625 47.8635 1.64481 48.0622 1.79132 48.2087C1.93784 48.3552 2.13655 48.4375 2.34375 48.4375H27.3438C27.4901 48.4385 27.6337 48.3979 27.7578 48.3203L47.8438 35.8203C48.0164 35.7135 48.1406 35.5437 48.1902 35.3468C48.2398 35.1499 48.2108 34.9415 48.1094 34.7657ZM6.25 46.875H3.125V35.9375H6.25V46.875ZM27.1172 46.875H7.8125V35.7188L11.8438 34.375H25.7812C26.4023 34.3769 26.9973 34.6244 27.4365 35.0635C27.8756 35.5027 28.1231 36.0977 28.125 36.7188V39.0625H15.625V40.625H28.9062C29.1135 40.625 29.3122 40.5427 29.4587 40.3962C29.6052 40.2497 29.6875 40.051 29.6875 39.8438V39.086L41.9922 31.9844C42.2589 31.8295 42.5536 31.7291 42.8593 31.6889C43.1651 31.6486 43.4758 31.6694 43.7734 31.75C44.0704 31.8282 44.3487 31.9653 44.5916 32.1532C44.8345 32.3411 45.0372 32.576 45.1875 32.8438L46.375 34.8907L27.1172 46.875Z" fill="#000D3B"/>
<path d="M24.2188 19.5313C24.426 19.5312 24.6247 19.4489 24.7712 19.3024L30.2399 13.8336L29.1353 12.7289L24.2188 17.6453L21.6462 15.0727L20.5415 16.1774L23.6665 19.3024C23.813 19.4489 24.0117 19.5312 24.2188 19.5313Z" fill="#000D3B"/>
</svg>
