<svg width="746" height="327" viewBox="0 0 746 327" fill="none" xmlns="http://www.w3.org/2000/svg">
<path d="M10.296 13.43C11.064 13.658 11.652 14.03 12.06 14.546C12.468 15.062 12.672 15.698 12.672 16.454C12.672 17.57 12.246 18.44 11.394 19.064C10.554 19.688 9.348 20 7.776 20H1.566V7.4H7.434C8.898 7.4 10.038 7.682 10.854 8.246C11.67 8.81 12.078 9.614 12.078 10.658C12.078 11.282 11.922 11.834 11.61 12.314C11.298 12.782 10.86 13.154 10.296 13.43ZM4.464 12.62H7.182C7.818 12.62 8.298 12.494 8.622 12.242C8.946 11.978 9.108 11.594 9.108 11.09C9.108 10.598 8.94 10.22 8.604 9.956C8.28 9.692 7.806 9.56 7.182 9.56H4.464V12.62ZM7.668 17.84C9.036 17.84 9.72 17.3 9.72 16.22C9.72 15.176 9.036 14.654 7.668 14.654H4.464V17.84H7.668ZM18.5241 10.172C20.0241 10.172 21.1761 10.532 21.9801 11.252C22.7841 11.96 23.1861 13.034 23.1861 14.474V20H20.5581V18.794C20.0301 19.694 19.0461 20.144 17.6061 20.144C16.8621 20.144 16.2141 20.018 15.6621 19.766C15.1221 19.514 14.7081 19.166 14.4201 18.722C14.1321 18.278 13.9881 17.774 13.9881 17.21C13.9881 16.31 14.3241 15.602 14.9961 15.086C15.6801 14.57 16.7301 14.312 18.1461 14.312H20.3781C20.3781 13.7 20.1921 13.232 19.8201 12.908C19.4481 12.572 18.8901 12.404 18.1461 12.404C17.6301 12.404 17.1201 12.488 16.6161 12.656C16.1241 12.812 15.7041 13.028 15.3561 13.304L14.3481 11.342C14.8761 10.97 15.5061 10.682 16.2381 10.478C16.9821 10.274 17.7441 10.172 18.5241 10.172ZM18.3081 18.254C18.7881 18.254 19.2141 18.146 19.5861 17.93C19.9581 17.702 20.2221 17.372 20.3781 16.94V15.95H18.4521C17.3001 15.95 16.7241 16.328 16.7241 17.084C16.7241 17.444 16.8621 17.732 17.1381 17.948C17.4261 18.152 17.8161 18.254 18.3081 18.254ZM40.4034 10.316V20H25.6254V10.316H28.4154V17.696H31.6374V10.316H34.4274V17.696H37.6134V10.316H40.4034ZM57.8257 10.316V20H55.0177V12.62H50.9857V20H48.1957V10.316H57.8257ZM65.054 20.144C64.034 20.144 63.116 19.934 62.3 19.514C61.496 19.082 60.866 18.488 60.41 17.732C59.954 16.976 59.726 16.118 59.726 15.158C59.726 14.198 59.954 13.34 60.41 12.584C60.866 11.828 61.496 11.24 62.3 10.82C63.116 10.388 64.034 10.172 65.054 10.172C66.074 10.172 66.986 10.388 67.79 10.82C68.594 11.24 69.224 11.828 69.68 12.584C70.136 13.34 70.364 14.198 70.364 15.158C70.364 16.118 70.136 16.976 69.68 17.732C69.224 18.488 68.594 19.082 67.79 19.514C66.986 19.934 66.074 20.144 65.054 20.144ZM65.054 17.84C65.774 17.84 66.362 17.6 66.818 17.12C67.286 16.628 67.52 15.974 67.52 15.158C67.52 14.342 67.286 13.694 66.818 13.214C66.362 12.722 65.774 12.476 65.054 12.476C64.334 12.476 63.74 12.722 63.272 13.214C62.804 13.694 62.57 14.342 62.57 15.158C62.57 15.974 62.804 16.628 63.272 17.12C63.74 17.6 64.334 17.84 65.054 17.84ZM80.0798 12.62H76.8038V20H74.0138V12.62H70.7378V10.316H80.0798V12.62ZM90.5863 15.194C90.5863 15.23 90.5683 15.482 90.5323 15.95H83.2063C83.3383 16.55 83.6503 17.024 84.1423 17.372C84.6343 17.72 85.2463 17.894 85.9783 17.894C86.4823 17.894 86.9263 17.822 87.3103 17.678C87.7063 17.522 88.0723 17.282 88.4083 16.958L89.9023 18.578C88.9903 19.622 87.6583 20.144 85.9063 20.144C84.8143 20.144 83.8483 19.934 83.0083 19.514C82.1683 19.082 81.5203 18.488 81.0643 17.732C80.6083 16.976 80.3803 16.118 80.3803 15.158C80.3803 14.21 80.6023 13.358 81.0463 12.602C81.5023 11.834 82.1203 11.24 82.9003 10.82C83.6923 10.388 84.5743 10.172 85.5463 10.172C86.4943 10.172 87.3523 10.376 88.1203 10.784C88.8883 11.192 89.4883 11.78 89.9203 12.548C90.3643 13.304 90.5863 14.186 90.5863 15.194ZM85.5643 12.296C84.9283 12.296 84.3943 12.476 83.9623 12.836C83.5303 13.196 83.2663 13.688 83.1703 14.312H87.9403C87.8443 13.7 87.5803 13.214 87.1483 12.854C86.7163 12.482 86.1883 12.296 85.5643 12.296ZM92.7387 10.316H95.5287V14.096H99.7407V10.316H102.549V20H99.7407V16.382H95.5287V20H92.7387V10.316ZM116.145 17.696V22.124H113.535V20H105.237V10.316H108.027V17.696H111.933V10.316H114.741V17.696H116.145ZM117.911 10.316H120.701V16.076L125.417 10.316H127.991V20H125.201V14.24L120.503 20H117.911V10.316ZM134.452 10.172C135.952 10.172 137.104 10.532 137.908 11.252C138.712 11.96 139.114 13.034 139.114 14.474V20H136.486V18.794C135.958 19.694 134.974 20.144 133.534 20.144C132.79 20.144 132.142 20.018 131.59 19.766C131.05 19.514 130.636 19.166 130.348 18.722C130.06 18.278 129.916 17.774 129.916 17.21C129.916 16.31 130.252 15.602 130.924 15.086C131.608 14.57 132.658 14.312 134.074 14.312H136.306C136.306 13.7 136.12 13.232 135.748 12.908C135.376 12.572 134.818 12.404 134.074 12.404C133.558 12.404 133.048 12.488 132.544 12.656C132.052 12.812 131.632 13.028 131.284 13.304L130.276 11.342C130.804 10.97 131.434 10.682 132.166 10.478C132.91 10.274 133.672 10.172 134.452 10.172ZM134.236 18.254C134.716 18.254 135.142 18.146 135.514 17.93C135.886 17.702 136.15 17.372 136.306 16.94V15.95H134.38C133.228 15.95 132.652 16.328 132.652 17.084C132.652 17.444 132.79 17.732 133.066 17.948C133.354 18.152 133.744 18.254 134.236 18.254ZM150.841 10.316V20H148.033V12.62H144.973L144.883 14.33C144.835 15.602 144.715 16.658 144.523 17.498C144.331 18.338 144.019 18.998 143.587 19.478C143.155 19.958 142.555 20.198 141.787 20.198C141.379 20.198 140.893 20.126 140.329 19.982L140.473 17.678C140.665 17.702 140.803 17.714 140.887 17.714C141.307 17.714 141.619 17.564 141.823 17.264C142.039 16.952 142.183 16.562 142.255 16.094C142.327 15.614 142.381 14.984 142.417 14.204L142.561 10.316H150.841ZM158.779 13.412C160.039 13.424 161.005 13.712 161.677 14.276C162.349 14.828 162.685 15.614 162.685 16.634C162.685 17.702 162.307 18.536 161.551 19.136C160.807 19.724 159.757 20.018 158.401 20.018L153.541 20V10.316H156.331V13.412H158.779ZM158.149 18.02C158.689 18.032 159.103 17.918 159.391 17.678C159.679 17.438 159.823 17.078 159.823 16.598C159.823 16.13 159.679 15.788 159.391 15.572C159.115 15.356 158.701 15.242 158.149 15.23L156.331 15.212V18.02H158.149ZM164.44 10.316H167.23V14.096H171.442V10.316H174.25V20H171.442V16.382H167.23V20H164.44V10.316ZM182.032 13.412C183.292 13.424 184.246 13.706 184.894 14.258C185.542 14.81 185.866 15.602 185.866 16.634C185.866 17.714 185.5 18.548 184.768 19.136C184.036 19.724 182.998 20.018 181.654 20.018L176.938 20V10.316H179.728V13.412H182.032ZM186.91 10.316H189.7V20H186.91V10.316ZM181.402 18.02C181.942 18.032 182.356 17.918 182.644 17.678C182.932 17.438 183.076 17.078 183.076 16.598C183.076 16.13 182.932 15.788 182.644 15.572C182.368 15.356 181.954 15.242 181.402 15.23L179.728 15.212V18.02H181.402ZM192.407 10.316H195.197V16.076L199.913 10.316H202.487V20H199.697V14.24L194.999 20H192.407V10.316ZM197.267 9.272C195.155 9.272 194.093 8.342 194.081 6.482H195.917C195.929 6.902 196.043 7.232 196.259 7.472C196.487 7.7 196.817 7.814 197.249 7.814C197.681 7.814 198.011 7.7 198.239 7.472C198.479 7.232 198.599 6.902 198.599 6.482H200.471C200.459 8.342 199.391 9.272 197.267 9.272ZM221.138 17.696V22.088H218.528V20H211.724V22.088H209.114V17.696H209.51C210.11 17.684 210.524 17.33 210.752 16.634C210.98 15.938 211.124 14.948 211.184 13.664L211.31 10.316H219.752V17.696H221.138ZM213.722 13.862C213.686 14.846 213.608 15.65 213.488 16.274C213.38 16.898 213.17 17.372 212.858 17.696H216.944V12.62H213.776L213.722 13.862ZM227.441 20.144C226.421 20.144 225.503 19.934 224.687 19.514C223.883 19.082 223.253 18.488 222.797 17.732C222.341 16.976 222.113 16.118 222.113 15.158C222.113 14.198 222.341 13.34 222.797 12.584C223.253 11.828 223.883 11.24 224.687 10.82C225.503 10.388 226.421 10.172 227.441 10.172C228.461 10.172 229.373 10.388 230.177 10.82C230.981 11.24 231.611 11.828 232.067 12.584C232.523 13.34 232.751 14.198 232.751 15.158C232.751 16.118 232.523 16.976 232.067 17.732C231.611 18.488 230.981 19.082 230.177 19.514C229.373 19.934 228.461 20.144 227.441 20.144ZM227.441 17.84C228.161 17.84 228.749 17.6 229.205 17.12C229.673 16.628 229.907 15.974 229.907 15.158C229.907 14.342 229.673 13.694 229.205 13.214C228.749 12.722 228.161 12.476 227.441 12.476C226.721 12.476 226.127 12.722 225.659 13.214C225.191 13.694 224.957 14.342 224.957 15.158C224.957 15.974 225.191 16.628 225.659 17.12C226.127 17.6 226.721 17.84 227.441 17.84ZM240.467 20L238.343 17.03L236.147 20H233.087L236.813 15.122L233.213 10.316H236.363L238.415 13.142L240.521 10.316H243.509L239.909 15.05L243.653 20H240.467ZM249.273 20.144C248.253 20.144 247.335 19.934 246.519 19.514C245.715 19.082 245.085 18.488 244.629 17.732C244.173 16.976 243.945 16.118 243.945 15.158C243.945 14.198 244.173 13.34 244.629 12.584C245.085 11.828 245.715 11.24 246.519 10.82C247.335 10.388 248.253 10.172 249.273 10.172C250.293 10.172 251.205 10.388 252.009 10.82C252.813 11.24 253.443 11.828 253.899 12.584C254.355 13.34 254.583 14.198 254.583 15.158C254.583 16.118 254.355 16.976 253.899 17.732C253.443 18.488 252.813 19.082 252.009 19.514C251.205 19.934 250.293 20.144 249.273 20.144ZM249.273 17.84C249.993 17.84 250.581 17.6 251.037 17.12C251.505 16.628 251.739 15.974 251.739 15.158C251.739 14.342 251.505 13.694 251.037 13.214C250.581 12.722 249.993 12.476 249.273 12.476C248.553 12.476 247.959 12.722 247.491 13.214C247.023 13.694 246.789 14.342 246.789 15.158C246.789 15.974 247.023 16.628 247.491 17.12C247.959 17.6 248.553 17.84 249.273 17.84ZM267.227 17.696V22.088H264.617V20H257.813V22.088H255.203V17.696H255.599C256.199 17.684 256.613 17.33 256.841 16.634C257.069 15.938 257.213 14.948 257.273 13.664L257.399 10.316H265.841V17.696H267.227ZM259.811 13.862C259.775 14.846 259.697 15.65 259.577 16.274C259.469 16.898 259.259 17.372 258.947 17.696H263.033V12.62H259.865L259.811 13.862Z" fill="black"/>
<path opacity="0.5" d="M4.06 68.4C5.08667 68.456 5.866 68.736 6.398 69.24C6.93933 69.7347 7.21 70.3833 7.21 71.186C7.21 71.746 7.07467 72.2453 6.804 72.684C6.53333 73.1133 6.132 73.454 5.6 73.706C5.068 73.958 4.41933 74.084 3.654 74.084C2.94467 74.084 2.27267 73.972 1.638 73.748C1.01267 73.5147 0.508667 73.2067 0.126 72.824L0.616 72.026C0.942667 72.362 1.37667 72.6373 1.918 72.852C2.45933 73.0573 3.038 73.16 3.654 73.16C4.45667 73.16 5.07733 72.9873 5.516 72.642C5.95467 72.2873 6.174 71.802 6.174 71.186C6.174 70.5793 5.95467 70.1033 5.516 69.758C5.07733 69.4127 4.41467 69.24 3.528 69.24H2.828V68.498L5.544 65.096H0.532V64.2H6.832V64.914L4.06 68.4ZM12.5363 74.084C11.7803 74.084 11.1037 73.8833 10.5063 73.482C9.91834 73.0807 9.45634 72.5067 9.12034 71.76C8.79368 71.004 8.63034 70.1173 8.63034 69.1C8.63034 68.0827 8.79368 67.2007 9.12034 66.454C9.45634 65.698 9.91834 65.1193 10.5063 64.718C11.1037 64.3167 11.7803 64.116 12.5363 64.116C13.2923 64.116 13.9643 64.3167 14.5523 64.718C15.1497 65.1193 15.6163 65.698 15.9523 66.454C16.2883 67.2007 16.4563 68.0827 16.4563 69.1C16.4563 70.1173 16.2883 71.004 15.9523 71.76C15.6163 72.5067 15.1497 73.0807 14.5523 73.482C13.9643 73.8833 13.2923 74.084 12.5363 74.084ZM12.5363 73.16C13.1057 73.16 13.605 73.0013 14.0343 72.684C14.473 72.3667 14.8137 71.9047 15.0563 71.298C15.299 70.6913 15.4203 69.9587 15.4203 69.1C15.4203 68.2413 15.299 67.5087 15.0563 66.902C14.8137 66.2953 14.473 65.8333 14.0343 65.516C13.605 65.1987 13.1057 65.04 12.5363 65.04C11.967 65.04 11.463 65.1987 11.0243 65.516C10.595 65.8333 10.259 66.2953 10.0163 66.902C9.77368 67.5087 9.65234 68.2413 9.65234 69.1C9.65234 69.9587 9.77368 70.6913 10.0163 71.298C10.259 71.9047 10.595 72.3667 11.0243 72.684C11.463 73.0013 11.967 73.16 12.5363 73.16ZM19.9719 69.45C19.3092 69.45 18.7725 69.2073 18.3619 68.722C17.9605 68.2273 17.7599 67.5833 17.7599 66.79C17.7599 65.9967 17.9605 65.3573 18.3619 64.872C18.7725 64.3773 19.3092 64.13 19.9719 64.13C20.6252 64.13 21.1572 64.3727 21.5679 64.858C21.9785 65.3433 22.1839 65.9873 22.1839 66.79C22.1839 67.5927 21.9785 68.2367 21.5679 68.722C21.1572 69.2073 20.6252 69.45 19.9719 69.45ZM25.9079 64.2H26.7339L20.0419 74H19.2159L25.9079 64.2ZM19.9719 68.82C20.4292 68.82 20.7932 68.6427 21.0639 68.288C21.3439 67.924 21.4839 67.4247 21.4839 66.79C21.4839 66.1553 21.3439 65.6607 21.0639 65.306C20.7932 64.942 20.4292 64.76 19.9719 64.76C19.5052 64.76 19.1365 64.942 18.8659 65.306C18.5952 65.67 18.4599 66.1647 18.4599 66.79C18.4599 67.4153 18.5952 67.91 18.8659 68.274C19.1365 68.638 19.5052 68.82 19.9719 68.82ZM25.9779 74.07C25.3245 74.07 24.7925 73.8273 24.3819 73.342C23.9712 72.8473 23.7659 72.2033 23.7659 71.41C23.7659 70.6167 23.9712 69.9773 24.3819 69.492C24.7925 68.9973 25.3245 68.75 25.9779 68.75C26.6405 68.75 27.1725 68.9973 27.5739 69.492C27.9845 69.9773 28.1899 70.6167 28.1899 71.41C28.1899 72.2033 27.9845 72.8473 27.5739 73.342C27.1725 73.8273 26.6405 74.07 25.9779 74.07ZM25.9779 73.44C26.4445 73.44 26.8132 73.258 27.0839 72.894C27.3545 72.53 27.4899 72.0353 27.4899 71.41C27.4899 70.7847 27.3545 70.29 27.0839 69.926C26.8132 69.562 26.4445 69.38 25.9779 69.38C25.5205 69.38 25.1519 69.562 24.8719 69.926C24.6012 70.2807 24.4659 70.7753 24.4659 71.41C24.4659 72.0447 24.6012 72.544 24.8719 72.908C25.1519 73.2627 25.5205 73.44 25.9779 73.44Z" fill="black"/>
<path opacity="0.5" d="M7.42 145.104V146H0.546V145.286L4.62 141.296C5.13333 140.792 5.47867 140.358 5.656 139.994C5.84267 139.621 5.936 139.247 5.936 138.874C5.936 138.295 5.73533 137.847 5.334 137.53C4.942 137.203 4.37733 137.04 3.64 137.04C2.492 137.04 1.60067 137.404 0.966 138.132L0.252 137.516C0.634667 137.068 1.12 136.723 1.708 136.48C2.30533 136.237 2.97733 136.116 3.724 136.116C4.72267 136.116 5.51133 136.354 6.09 136.83C6.678 137.297 6.972 137.941 6.972 138.762C6.972 139.266 6.86 139.751 6.636 140.218C6.412 140.685 5.98733 141.221 5.362 141.828L2.03 145.104H7.42ZM12.5363 146.084C11.7803 146.084 11.1037 145.883 10.5063 145.482C9.91834 145.081 9.45634 144.507 9.12034 143.76C8.79368 143.004 8.63034 142.117 8.63034 141.1C8.63034 140.083 8.79368 139.201 9.12034 138.454C9.45634 137.698 9.91834 137.119 10.5063 136.718C11.1037 136.317 11.7803 136.116 12.5363 136.116C13.2923 136.116 13.9643 136.317 14.5523 136.718C15.1497 137.119 15.6163 137.698 15.9523 138.454C16.2883 139.201 16.4563 140.083 16.4563 141.1C16.4563 142.117 16.2883 143.004 15.9523 143.76C15.6163 144.507 15.1497 145.081 14.5523 145.482C13.9643 145.883 13.2923 146.084 12.5363 146.084ZM12.5363 145.16C13.1057 145.16 13.605 145.001 14.0343 144.684C14.473 144.367 14.8137 143.905 15.0563 143.298C15.299 142.691 15.4203 141.959 15.4203 141.1C15.4203 140.241 15.299 139.509 15.0563 138.902C14.8137 138.295 14.473 137.833 14.0343 137.516C13.605 137.199 13.1057 137.04 12.5363 137.04C11.967 137.04 11.463 137.199 11.0243 137.516C10.595 137.833 10.259 138.295 10.0163 138.902C9.77368 139.509 9.65234 140.241 9.65234 141.1C9.65234 141.959 9.77368 142.691 10.0163 143.298C10.259 143.905 10.595 144.367 11.0243 144.684C11.463 145.001 11.967 145.16 12.5363 145.16ZM19.9719 141.45C19.3092 141.45 18.7725 141.207 18.3619 140.722C17.9605 140.227 17.7599 139.583 17.7599 138.79C17.7599 137.997 17.9605 137.357 18.3619 136.872C18.7725 136.377 19.3092 136.13 19.9719 136.13C20.6252 136.13 21.1572 136.373 21.5679 136.858C21.9785 137.343 22.1839 137.987 22.1839 138.79C22.1839 139.593 21.9785 140.237 21.5679 140.722C21.1572 141.207 20.6252 141.45 19.9719 141.45ZM25.9079 136.2H26.7339L20.0419 146H19.2159L25.9079 136.2ZM19.9719 140.82C20.4292 140.82 20.7932 140.643 21.0639 140.288C21.3439 139.924 21.4839 139.425 21.4839 138.79C21.4839 138.155 21.3439 137.661 21.0639 137.306C20.7932 136.942 20.4292 136.76 19.9719 136.76C19.5052 136.76 19.1365 136.942 18.8659 137.306C18.5952 137.67 18.4599 138.165 18.4599 138.79C18.4599 139.415 18.5952 139.91 18.8659 140.274C19.1365 140.638 19.5052 140.82 19.9719 140.82ZM25.9779 146.07C25.3245 146.07 24.7925 145.827 24.3819 145.342C23.9712 144.847 23.7659 144.203 23.7659 143.41C23.7659 142.617 23.9712 141.977 24.3819 141.492C24.7925 140.997 25.3245 140.75 25.9779 140.75C26.6405 140.75 27.1725 140.997 27.5739 141.492C27.9845 141.977 28.1899 142.617 28.1899 143.41C28.1899 144.203 27.9845 144.847 27.5739 145.342C27.1725 145.827 26.6405 146.07 25.9779 146.07ZM25.9779 145.44C26.4445 145.44 26.8132 145.258 27.0839 144.894C27.3545 144.53 27.4899 144.035 27.4899 143.41C27.4899 142.785 27.3545 142.29 27.0839 141.926C26.8132 141.562 26.4445 141.38 25.9779 141.38C25.5205 141.38 25.1519 141.562 24.8719 141.926C24.6012 142.281 24.4659 142.775 24.4659 143.41C24.4659 144.045 24.6012 144.544 24.8719 144.908C25.1519 145.263 25.5205 145.44 25.9779 145.44Z" fill="black"/>
<path opacity="0.5" d="M3.444 208.2V218H2.436V209.096H0.126V208.2H3.444ZM9.69259 218.084C8.93659 218.084 8.25993 217.883 7.66259 217.482C7.07459 217.081 6.61259 216.507 6.27659 215.76C5.94993 215.004 5.78659 214.117 5.78659 213.1C5.78659 212.083 5.94993 211.201 6.27659 210.454C6.61259 209.698 7.07459 209.119 7.66259 208.718C8.25993 208.317 8.93659 208.116 9.69259 208.116C10.4486 208.116 11.1206 208.317 11.7086 208.718C12.3059 209.119 12.7726 209.698 13.1086 210.454C13.4446 211.201 13.6126 212.083 13.6126 213.1C13.6126 214.117 13.4446 215.004 13.1086 215.76C12.7726 216.507 12.3059 217.081 11.7086 217.482C11.1206 217.883 10.4486 218.084 9.69259 218.084ZM9.69259 217.16C10.2619 217.16 10.7613 217.001 11.1906 216.684C11.6293 216.367 11.9699 215.905 12.2126 215.298C12.4553 214.691 12.5766 213.959 12.5766 213.1C12.5766 212.241 12.4553 211.509 12.2126 210.902C11.9699 210.295 11.6293 209.833 11.1906 209.516C10.7613 209.199 10.2619 209.04 9.69259 209.04C9.12326 209.04 8.61926 209.199 8.18059 209.516C7.75126 209.833 7.41526 210.295 7.17259 210.902C6.92993 211.509 6.80859 212.241 6.80859 213.1C6.80859 213.959 6.92993 214.691 7.17259 215.298C7.41526 215.905 7.75126 216.367 8.18059 216.684C8.61926 217.001 9.12326 217.16 9.69259 217.16ZM17.1281 213.45C16.4655 213.45 15.9288 213.207 15.5181 212.722C15.1168 212.227 14.9161 211.583 14.9161 210.79C14.9161 209.997 15.1168 209.357 15.5181 208.872C15.9288 208.377 16.4655 208.13 17.1281 208.13C17.7815 208.13 18.3135 208.373 18.7241 208.858C19.1348 209.343 19.3401 209.987 19.3401 210.79C19.3401 211.593 19.1348 212.237 18.7241 212.722C18.3135 213.207 17.7815 213.45 17.1281 213.45ZM23.0641 208.2H23.8901L17.1981 218H16.3721L23.0641 208.2ZM17.1281 212.82C17.5855 212.82 17.9495 212.643 18.2201 212.288C18.5001 211.924 18.6401 211.425 18.6401 210.79C18.6401 210.155 18.5001 209.661 18.2201 209.306C17.9495 208.942 17.5855 208.76 17.1281 208.76C16.6615 208.76 16.2928 208.942 16.0221 209.306C15.7515 209.67 15.6161 210.165 15.6161 210.79C15.6161 211.415 15.7515 211.91 16.0221 212.274C16.2928 212.638 16.6615 212.82 17.1281 212.82ZM23.1341 218.07C22.4808 218.07 21.9488 217.827 21.5381 217.342C21.1275 216.847 20.9221 216.203 20.9221 215.41C20.9221 214.617 21.1275 213.977 21.5381 213.492C21.9488 212.997 22.4808 212.75 23.1341 212.75C23.7968 212.75 24.3288 212.997 24.7301 213.492C25.1408 213.977 25.3461 214.617 25.3461 215.41C25.3461 216.203 25.1408 216.847 24.7301 217.342C24.3288 217.827 23.7968 218.07 23.1341 218.07ZM23.1341 217.44C23.6008 217.44 23.9695 217.258 24.2401 216.894C24.5108 216.53 24.6461 216.035 24.6461 215.41C24.6461 214.785 24.5108 214.29 24.2401 213.926C23.9695 213.562 23.6008 213.38 23.1341 213.38C22.6768 213.38 22.3081 213.562 22.0281 213.926C21.7575 214.281 21.6221 214.775 21.6221 215.41C21.6221 216.045 21.7575 216.544 22.0281 216.908C22.3081 217.263 22.6768 217.44 23.1341 217.44Z" fill="black"/>
<path opacity="0.5" d="M4.634 290.084C3.878 290.084 3.20133 289.883 2.604 289.482C2.016 289.081 1.554 288.507 1.218 287.76C0.891333 287.004 0.728 286.117 0.728 285.1C0.728 284.083 0.891333 283.201 1.218 282.454C1.554 281.698 2.016 281.119 2.604 280.718C3.20133 280.317 3.878 280.116 4.634 280.116C5.39 280.116 6.062 280.317 6.65 280.718C7.24733 281.119 7.714 281.698 8.05 282.454C8.386 283.201 8.554 284.083 8.554 285.1C8.554 286.117 8.386 287.004 8.05 287.76C7.714 288.507 7.24733 289.081 6.65 289.482C6.062 289.883 5.39 290.084 4.634 290.084ZM4.634 289.16C5.20333 289.16 5.70267 289.001 6.132 288.684C6.57067 288.367 6.91133 287.905 7.154 287.298C7.39667 286.691 7.518 285.959 7.518 285.1C7.518 284.241 7.39667 283.509 7.154 282.902C6.91133 282.295 6.57067 281.833 6.132 281.516C5.70267 281.199 5.20333 281.04 4.634 281.04C4.06467 281.04 3.56067 281.199 3.122 281.516C2.69267 281.833 2.35667 282.295 2.114 282.902C1.87133 283.509 1.75 284.241 1.75 285.1C1.75 285.959 1.87133 286.691 2.114 287.298C2.35667 287.905 2.69267 288.367 3.122 288.684C3.56067 289.001 4.06467 289.16 4.634 289.16ZM12.0695 285.45C11.4069 285.45 10.8702 285.207 10.4595 284.722C10.0582 284.227 9.85753 283.583 9.85753 282.79C9.85753 281.997 10.0582 281.357 10.4595 280.872C10.8702 280.377 11.4069 280.13 12.0695 280.13C12.7229 280.13 13.2549 280.373 13.6655 280.858C14.0762 281.343 14.2815 281.987 14.2815 282.79C14.2815 283.593 14.0762 284.237 13.6655 284.722C13.2549 285.207 12.7229 285.45 12.0695 285.45ZM18.0055 280.2H18.8315L12.1395 290H11.3135L18.0055 280.2ZM12.0695 284.82C12.5269 284.82 12.8909 284.643 13.1615 284.288C13.4415 283.924 13.5815 283.425 13.5815 282.79C13.5815 282.155 13.4415 281.661 13.1615 281.306C12.8909 280.942 12.5269 280.76 12.0695 280.76C11.6029 280.76 11.2342 280.942 10.9635 281.306C10.6929 281.67 10.5575 282.165 10.5575 282.79C10.5575 283.415 10.6929 283.91 10.9635 284.274C11.2342 284.638 11.6029 284.82 12.0695 284.82ZM18.0755 290.07C17.4222 290.07 16.8902 289.827 16.4795 289.342C16.0689 288.847 15.8635 288.203 15.8635 287.41C15.8635 286.617 16.0689 285.977 16.4795 285.492C16.8902 284.997 17.4222 284.75 18.0755 284.75C18.7382 284.75 19.2702 284.997 19.6715 285.492C20.0822 285.977 20.2875 286.617 20.2875 287.41C20.2875 288.203 20.0822 288.847 19.6715 289.342C19.2702 289.827 18.7382 290.07 18.0755 290.07ZM18.0755 289.44C18.5422 289.44 18.9109 289.258 19.1815 288.894C19.4522 288.53 19.5875 288.035 19.5875 287.41C19.5875 286.785 19.4522 286.29 19.1815 285.926C18.9109 285.562 18.5422 285.38 18.0755 285.38C17.6182 285.38 17.2495 285.562 16.9695 285.926C16.6989 286.281 16.5635 286.775 16.5635 287.41C16.5635 288.045 16.6989 288.544 16.9695 288.908C17.2495 289.263 17.6182 289.44 18.0755 289.44Z" fill="black"/>
<line x1="66" y1="68.5" x2="744" y2="68.5" stroke="#E8EAEE"/>
<line x1="66" y1="140.5" x2="744" y2="140.5" stroke="#E8EAEE"/>
<line x1="66" y1="212.5" x2="744" y2="212.5" stroke="#E8EAEE"/>
<line x1="66" y1="284.5" x2="744" y2="284.5" stroke="#E8EAEE"/>
<path d="M66 284.5C66 284.5 479.155 152.853 743.886 68.5" stroke="#1357DD" stroke-width="4" stroke-linecap="round" stroke-linejoin="round"/>
<path d="M66 284H743.886V69.0249L66 284Z" fill="url(#paint0_linear)"/>
<path opacity="0.5" d="M48.634 321.084C47.878 321.084 47.2013 320.883 46.604 320.482C46.016 320.081 45.554 319.507 45.218 318.76C44.8913 318.004 44.728 317.117 44.728 316.1C44.728 315.083 44.8913 314.201 45.218 313.454C45.554 312.698 46.016 312.119 46.604 311.718C47.2013 311.317 47.878 311.116 48.634 311.116C49.39 311.116 50.062 311.317 50.65 311.718C51.2473 312.119 51.714 312.698 52.05 313.454C52.386 314.201 52.554 315.083 52.554 316.1C52.554 317.117 52.386 318.004 52.05 318.76C51.714 319.507 51.2473 320.081 50.65 320.482C50.062 320.883 49.39 321.084 48.634 321.084ZM48.634 320.16C49.2033 320.16 49.7027 320.001 50.132 319.684C50.5707 319.367 50.9113 318.905 51.154 318.298C51.3967 317.691 51.518 316.959 51.518 316.1C51.518 315.241 51.3967 314.509 51.154 313.902C50.9113 313.295 50.5707 312.833 50.132 312.516C49.7027 312.199 49.2033 312.04 48.634 312.04C48.0647 312.04 47.5607 312.199 47.122 312.516C46.6927 312.833 46.3567 313.295 46.114 313.902C45.8713 314.509 45.75 315.241 45.75 316.1C45.75 316.959 45.8713 317.691 46.114 318.298C46.3567 318.905 46.6927 319.367 47.122 319.684C47.5607 320.001 48.0647 320.16 48.634 320.16ZM62.1416 313.58C62.8323 313.58 63.4576 313.739 64.0176 314.056C64.5776 314.364 65.0163 314.803 65.3336 315.372C65.6509 315.941 65.8096 316.59 65.8096 317.318C65.8096 318.055 65.6509 318.709 65.3336 319.278C65.0163 319.847 64.5776 320.291 64.0176 320.608C63.4669 320.916 62.8416 321.07 62.1416 321.07C61.5443 321.07 61.0029 320.949 60.5176 320.706C60.0416 320.454 59.6496 320.09 59.3416 319.614V323.716H58.3476V313.636H59.2996V315.092C59.5983 314.607 59.9903 314.233 60.4756 313.972C60.9703 313.711 61.5256 313.58 62.1416 313.58ZM62.0716 320.188C62.5849 320.188 63.0516 320.071 63.4716 319.838C63.8916 319.595 64.2183 319.255 64.4516 318.816C64.6943 318.377 64.8156 317.878 64.8156 317.318C64.8156 316.758 64.6943 316.263 64.4516 315.834C64.2183 315.395 63.8916 315.055 63.4716 314.812C63.0516 314.569 62.5849 314.448 62.0716 314.448C61.5489 314.448 61.0776 314.569 60.6576 314.812C60.2469 315.055 59.9203 315.395 59.6776 315.834C59.4443 316.263 59.3276 316.758 59.3276 317.318C59.3276 317.878 59.4443 318.377 59.6776 318.816C59.9203 319.255 60.2469 319.595 60.6576 319.838C61.0776 320.071 61.5489 320.188 62.0716 320.188ZM73.9982 313.636L70.3162 321.882C70.0175 322.573 69.6722 323.063 69.2802 323.352C68.8882 323.641 68.4168 323.786 67.8662 323.786C67.5115 323.786 67.1802 323.73 66.8722 323.618C66.5642 323.506 66.2982 323.338 66.0742 323.114L66.5362 322.372C66.9095 322.745 67.3575 322.932 67.8802 322.932C68.2162 322.932 68.5008 322.839 68.7342 322.652C68.9768 322.465 69.2008 322.148 69.4062 321.7L69.7282 320.986L66.4382 313.636H67.4742L70.2462 319.894L73.0182 313.636H73.9982ZM79.0074 313.818C79.6888 313.818 80.2954 313.972 80.8274 314.28C81.3688 314.579 81.7888 315.003 82.0874 315.554C82.3861 316.095 82.5354 316.716 82.5354 317.416C82.5354 318.135 82.3768 318.774 82.0594 319.334C81.7514 319.885 81.3174 320.314 80.7574 320.622C80.1974 320.93 79.5534 321.084 78.8254 321.084C77.6028 321.084 76.6554 320.655 75.9834 319.796C75.3114 318.937 74.9754 317.752 74.9754 316.24C74.9754 314.663 75.2741 313.454 75.8714 312.614C76.4781 311.774 77.4208 311.205 78.6994 310.906L82.0034 310.15L82.1714 311.06L79.0634 311.774C78.0088 312.007 77.2341 312.423 76.7394 313.02C76.2448 313.608 75.9741 314.481 75.9274 315.638C76.2261 315.069 76.6414 314.625 77.1734 314.308C77.7054 313.981 78.3168 313.818 79.0074 313.818ZM78.8534 320.258C79.3668 320.258 79.8241 320.141 80.2254 319.908C80.6361 319.665 80.9534 319.329 81.1774 318.9C81.4108 318.471 81.5274 317.985 81.5274 317.444C81.5274 316.903 81.4154 316.427 81.1914 316.016C80.9674 315.605 80.6501 315.288 80.2394 315.064C79.8381 314.831 79.3761 314.714 78.8534 314.714C78.3308 314.714 77.8641 314.831 77.4534 315.064C77.0521 315.288 76.7348 315.605 76.5014 316.016C76.2774 316.427 76.1654 316.903 76.1654 317.444C76.1654 317.985 76.2774 318.471 76.5014 318.9C76.7348 319.329 77.0568 319.665 77.4674 319.908C77.8781 320.141 78.3401 320.258 78.8534 320.258ZM84.5309 321.07C84.3255 321.07 84.1482 320.995 83.9989 320.846C83.8589 320.697 83.7889 320.515 83.7889 320.3C83.7889 320.085 83.8589 319.908 83.9989 319.768C84.1482 319.619 84.3255 319.544 84.5309 319.544C84.7362 319.544 84.9135 319.619 85.0629 319.768C85.2122 319.908 85.2869 320.085 85.2869 320.3C85.2869 320.515 85.2122 320.697 85.0629 320.846C84.9135 320.995 84.7362 321.07 84.5309 321.07Z" fill="black"/>
<path opacity="0.5" d="M432.591 320.104V321H425.717V320.286L429.791 316.296C430.304 315.792 430.65 315.358 430.827 314.994C431.014 314.621 431.107 314.247 431.107 313.874C431.107 313.295 430.906 312.847 430.505 312.53C430.113 312.203 429.548 312.04 428.811 312.04C427.663 312.04 426.772 312.404 426.137 313.132L425.423 312.516C425.806 312.068 426.291 311.723 426.879 311.48C427.476 311.237 428.148 311.116 428.895 311.116C429.894 311.116 430.682 311.354 431.261 311.83C431.849 312.297 432.143 312.941 432.143 313.762C432.143 314.266 432.031 314.751 431.807 315.218C431.583 315.685 431.158 316.221 430.533 316.828L427.201 320.104H432.591ZM437.707 321.084C436.951 321.084 436.275 320.883 435.677 320.482C435.089 320.081 434.627 319.507 434.291 318.76C433.965 318.004 433.801 317.117 433.801 316.1C433.801 315.083 433.965 314.201 434.291 313.454C434.627 312.698 435.089 312.119 435.677 311.718C436.275 311.317 436.951 311.116 437.707 311.116C438.463 311.116 439.135 311.317 439.723 311.718C440.321 312.119 440.787 312.698 441.123 313.454C441.459 314.201 441.627 315.083 441.627 316.1C441.627 317.117 441.459 318.004 441.123 318.76C440.787 319.507 440.321 320.081 439.723 320.482C439.135 320.883 438.463 321.084 437.707 321.084ZM437.707 320.16C438.277 320.16 438.776 320.001 439.205 319.684C439.644 319.367 439.985 318.905 440.227 318.298C440.47 317.691 440.591 316.959 440.591 316.1C440.591 315.241 440.47 314.509 440.227 313.902C439.985 313.295 439.644 312.833 439.205 312.516C438.776 312.199 438.277 312.04 437.707 312.04C437.138 312.04 436.634 312.199 436.195 312.516C435.766 312.833 435.43 313.295 435.187 313.902C434.945 314.509 434.823 315.241 434.823 316.1C434.823 316.959 434.945 317.691 435.187 318.298C435.43 318.905 435.766 319.367 436.195 319.684C436.634 320.001 437.138 320.16 437.707 320.16ZM446.977 321.084C446.221 321.084 445.544 320.883 444.947 320.482C444.359 320.081 443.897 319.507 443.561 318.76C443.234 318.004 443.071 317.117 443.071 316.1C443.071 315.083 443.234 314.201 443.561 313.454C443.897 312.698 444.359 312.119 444.947 311.718C445.544 311.317 446.221 311.116 446.977 311.116C447.733 311.116 448.405 311.317 448.993 311.718C449.59 312.119 450.057 312.698 450.393 313.454C450.729 314.201 450.897 315.083 450.897 316.1C450.897 317.117 450.729 318.004 450.393 318.76C450.057 319.507 449.59 320.081 448.993 320.482C448.405 320.883 447.733 321.084 446.977 321.084ZM446.977 320.16C447.546 320.16 448.045 320.001 448.475 319.684C448.913 319.367 449.254 318.905 449.497 318.298C449.739 317.691 449.861 316.959 449.861 316.1C449.861 315.241 449.739 314.509 449.497 313.902C449.254 313.295 448.913 312.833 448.475 312.516C448.045 312.199 447.546 312.04 446.977 312.04C446.407 312.04 445.903 312.199 445.465 312.516C445.035 312.833 444.699 313.295 444.457 313.902C444.214 314.509 444.093 315.241 444.093 316.1C444.093 316.959 444.214 317.691 444.457 318.298C444.699 318.905 445.035 319.367 445.465 319.684C445.903 320.001 446.407 320.16 446.977 320.16ZM459.91 321.084C459.154 321.084 458.478 320.883 457.88 320.482C457.292 320.081 456.83 319.507 456.494 318.76C456.168 318.004 456.004 317.117 456.004 316.1C456.004 315.083 456.168 314.201 456.494 313.454C456.83 312.698 457.292 312.119 457.88 311.718C458.478 311.317 459.154 311.116 459.91 311.116C460.666 311.116 461.338 311.317 461.926 311.718C462.524 312.119 462.99 312.698 463.326 313.454C463.662 314.201 463.83 315.083 463.83 316.1C463.83 317.117 463.662 318.004 463.326 318.76C462.99 319.507 462.524 320.081 461.926 320.482C461.338 320.883 460.666 321.084 459.91 321.084ZM459.91 320.16C460.48 320.16 460.979 320.001 461.408 319.684C461.847 319.367 462.188 318.905 462.43 318.298C462.673 317.691 462.794 316.959 462.794 316.1C462.794 315.241 462.673 314.509 462.43 313.902C462.188 313.295 461.847 312.833 461.408 312.516C460.979 312.199 460.48 312.04 459.91 312.04C459.341 312.04 458.837 312.199 458.398 312.516C457.969 312.833 457.633 313.295 457.39 313.902C457.148 314.509 457.026 315.241 457.026 316.1C457.026 316.959 457.148 317.691 457.39 318.298C457.633 318.905 457.969 319.367 458.398 319.684C458.837 320.001 459.341 320.16 459.91 320.16ZM469.18 321.084C468.424 321.084 467.747 320.883 467.15 320.482C466.562 320.081 466.1 319.507 465.764 318.76C465.437 318.004 465.274 317.117 465.274 316.1C465.274 315.083 465.437 314.201 465.764 313.454C466.1 312.698 466.562 312.119 467.15 311.718C467.747 311.317 468.424 311.116 469.18 311.116C469.936 311.116 470.608 311.317 471.196 311.718C471.793 312.119 472.26 312.698 472.596 313.454C472.932 314.201 473.1 315.083 473.1 316.1C473.1 317.117 472.932 318.004 472.596 318.76C472.26 319.507 471.793 320.081 471.196 320.482C470.608 320.883 469.936 321.084 469.18 321.084ZM469.18 320.16C469.749 320.16 470.249 320.001 470.678 319.684C471.117 319.367 471.457 318.905 471.7 318.298C471.943 317.691 472.064 316.959 472.064 316.1C472.064 315.241 471.943 314.509 471.7 313.902C471.457 313.295 471.117 312.833 470.678 312.516C470.249 312.199 469.749 312.04 469.18 312.04C468.611 312.04 468.107 312.199 467.668 312.516C467.239 312.833 466.903 313.295 466.66 313.902C466.417 314.509 466.296 315.241 466.296 316.1C466.296 316.959 466.417 317.691 466.66 318.298C466.903 318.905 467.239 319.367 467.668 319.684C468.107 320.001 468.611 320.16 469.18 320.16ZM478.449 321.084C477.693 321.084 477.017 320.883 476.419 320.482C475.831 320.081 475.369 319.507 475.033 318.76C474.707 318.004 474.543 317.117 474.543 316.1C474.543 315.083 474.707 314.201 475.033 313.454C475.369 312.698 475.831 312.119 476.419 311.718C477.017 311.317 477.693 311.116 478.449 311.116C479.205 311.116 479.877 311.317 480.465 311.718C481.063 312.119 481.529 312.698 481.865 313.454C482.201 314.201 482.369 315.083 482.369 316.1C482.369 317.117 482.201 318.004 481.865 318.76C481.529 319.507 481.063 320.081 480.465 320.482C479.877 320.883 479.205 321.084 478.449 321.084ZM478.449 320.16C479.019 320.16 479.518 320.001 479.947 319.684C480.386 319.367 480.727 318.905 480.969 318.298C481.212 317.691 481.333 316.959 481.333 316.1C481.333 315.241 481.212 314.509 480.969 313.902C480.727 313.295 480.386 312.833 479.947 312.516C479.518 312.199 479.019 312.04 478.449 312.04C477.88 312.04 477.376 312.199 476.937 312.516C476.508 312.833 476.172 313.295 475.929 313.902C475.687 314.509 475.565 315.241 475.565 316.1C475.565 316.959 475.687 317.691 475.929 318.298C476.172 318.905 476.508 319.367 476.937 319.684C477.376 320.001 477.88 320.16 478.449 320.16ZM491.957 313.58C492.648 313.58 493.273 313.739 493.833 314.056C494.393 314.364 494.832 314.803 495.149 315.372C495.466 315.941 495.625 316.59 495.625 317.318C495.625 318.055 495.466 318.709 495.149 319.278C494.832 319.847 494.393 320.291 493.833 320.608C493.282 320.916 492.657 321.07 491.957 321.07C491.36 321.07 490.818 320.949 490.333 320.706C489.857 320.454 489.465 320.09 489.157 319.614V323.716H488.163V313.636H489.115V315.092C489.414 314.607 489.806 314.233 490.291 313.972C490.786 313.711 491.341 313.58 491.957 313.58ZM491.887 320.188C492.4 320.188 492.867 320.071 493.287 319.838C493.707 319.595 494.034 319.255 494.267 318.816C494.51 318.377 494.631 317.878 494.631 317.318C494.631 316.758 494.51 316.263 494.267 315.834C494.034 315.395 493.707 315.055 493.287 314.812C492.867 314.569 492.4 314.448 491.887 314.448C491.364 314.448 490.893 314.569 490.473 314.812C490.062 315.055 489.736 315.395 489.493 315.834C489.26 316.263 489.143 316.758 489.143 317.318C489.143 317.878 489.26 318.377 489.493 318.816C489.736 319.255 490.062 319.595 490.473 319.838C490.893 320.071 491.364 320.188 491.887 320.188ZM503.814 313.636L500.132 321.882C499.833 322.573 499.488 323.063 499.096 323.352C498.704 323.641 498.232 323.786 497.682 323.786C497.327 323.786 496.996 323.73 496.688 323.618C496.38 323.506 496.114 323.338 495.89 323.114L496.352 322.372C496.725 322.745 497.173 322.932 497.696 322.932C498.032 322.932 498.316 322.839 498.55 322.652C498.792 322.465 499.016 322.148 499.222 321.7L499.544 320.986L496.254 313.636H497.29L500.062 319.894L502.834 313.636H503.814ZM508.823 313.818C509.504 313.818 510.111 313.972 510.643 314.28C511.184 314.579 511.604 315.003 511.903 315.554C512.202 316.095 512.351 316.716 512.351 317.416C512.351 318.135 512.192 318.774 511.875 319.334C511.567 319.885 511.133 320.314 510.573 320.622C510.013 320.93 509.369 321.084 508.641 321.084C507.418 321.084 506.471 320.655 505.799 319.796C505.127 318.937 504.791 317.752 504.791 316.24C504.791 314.663 505.09 313.454 505.687 312.614C506.294 311.774 507.236 311.205 508.515 310.906L511.819 310.15L511.987 311.06L508.879 311.774C507.824 312.007 507.05 312.423 506.555 313.02C506.06 313.608 505.79 314.481 505.743 315.638C506.042 315.069 506.457 314.625 506.989 314.308C507.521 313.981 508.132 313.818 508.823 313.818ZM508.669 320.258C509.182 320.258 509.64 320.141 510.041 319.908C510.452 319.665 510.769 319.329 510.993 318.9C511.226 318.471 511.343 317.985 511.343 317.444C511.343 316.903 511.231 316.427 511.007 316.016C510.783 315.605 510.466 315.288 510.055 315.064C509.654 314.831 509.192 314.714 508.669 314.714C508.146 314.714 507.68 314.831 507.269 315.064C506.868 315.288 506.55 315.605 506.317 316.016C506.093 316.427 505.981 316.903 505.981 317.444C505.981 317.985 506.093 318.471 506.317 318.9C506.55 319.329 506.872 319.665 507.283 319.908C507.694 320.141 508.156 320.258 508.669 320.258ZM514.346 321.07C514.141 321.07 513.964 320.995 513.814 320.846C513.674 320.697 513.604 320.515 513.604 320.3C513.604 320.085 513.674 319.908 513.814 319.768C513.964 319.619 514.141 319.544 514.346 319.544C514.552 319.544 514.729 319.619 514.878 319.768C515.028 319.908 515.102 320.085 515.102 320.3C515.102 320.515 515.028 320.697 514.878 320.846C514.729 320.995 514.552 321.07 514.346 321.07Z" fill="black"/>
<path opacity="0.5" d="M215.537 311.2V321H214.529V312.096H212.219V311.2H215.537ZM221.785 321.084C221.029 321.084 220.353 320.883 219.755 320.482C219.167 320.081 218.705 319.507 218.369 318.76C218.043 318.004 217.879 317.117 217.879 316.1C217.879 315.083 218.043 314.201 218.369 313.454C218.705 312.698 219.167 312.119 219.755 311.718C220.353 311.317 221.029 311.116 221.785 311.116C222.541 311.116 223.213 311.317 223.801 311.718C224.399 312.119 224.865 312.698 225.201 313.454C225.537 314.201 225.705 315.083 225.705 316.1C225.705 317.117 225.537 318.004 225.201 318.76C224.865 319.507 224.399 320.081 223.801 320.482C223.213 320.883 222.541 321.084 221.785 321.084ZM221.785 320.16C222.355 320.16 222.854 320.001 223.283 319.684C223.722 319.367 224.063 318.905 224.305 318.298C224.548 317.691 224.669 316.959 224.669 316.1C224.669 315.241 224.548 314.509 224.305 313.902C224.063 313.295 223.722 312.833 223.283 312.516C222.854 312.199 222.355 312.04 221.785 312.04C221.216 312.04 220.712 312.199 220.273 312.516C219.844 312.833 219.508 313.295 219.265 313.902C219.023 314.509 218.901 315.241 218.901 316.1C218.901 316.959 219.023 317.691 219.265 318.298C219.508 318.905 219.844 319.367 220.273 319.684C220.712 320.001 221.216 320.16 221.785 320.16ZM231.055 321.084C230.299 321.084 229.622 320.883 229.025 320.482C228.437 320.081 227.975 319.507 227.639 318.76C227.312 318.004 227.149 317.117 227.149 316.1C227.149 315.083 227.312 314.201 227.639 313.454C227.975 312.698 228.437 312.119 229.025 311.718C229.622 311.317 230.299 311.116 231.055 311.116C231.811 311.116 232.483 311.317 233.071 311.718C233.668 312.119 234.135 312.698 234.471 313.454C234.807 314.201 234.975 315.083 234.975 316.1C234.975 317.117 234.807 318.004 234.471 318.76C234.135 319.507 233.668 320.081 233.071 320.482C232.483 320.883 231.811 321.084 231.055 321.084ZM231.055 320.16C231.624 320.16 232.124 320.001 232.553 319.684C232.992 319.367 233.332 318.905 233.575 318.298C233.818 317.691 233.939 316.959 233.939 316.1C233.939 315.241 233.818 314.509 233.575 313.902C233.332 313.295 232.992 312.833 232.553 312.516C232.124 312.199 231.624 312.04 231.055 312.04C230.486 312.04 229.982 312.199 229.543 312.516C229.114 312.833 228.778 313.295 228.535 313.902C228.292 314.509 228.171 315.241 228.171 316.1C228.171 316.959 228.292 317.691 228.535 318.298C228.778 318.905 229.114 319.367 229.543 319.684C229.982 320.001 230.486 320.16 231.055 320.16ZM243.988 321.084C243.232 321.084 242.556 320.883 241.958 320.482C241.37 320.081 240.908 319.507 240.572 318.76C240.246 318.004 240.082 317.117 240.082 316.1C240.082 315.083 240.246 314.201 240.572 313.454C240.908 312.698 241.37 312.119 241.958 311.718C242.556 311.317 243.232 311.116 243.988 311.116C244.744 311.116 245.416 311.317 246.004 311.718C246.602 312.119 247.068 312.698 247.404 313.454C247.74 314.201 247.908 315.083 247.908 316.1C247.908 317.117 247.74 318.004 247.404 318.76C247.068 319.507 246.602 320.081 246.004 320.482C245.416 320.883 244.744 321.084 243.988 321.084ZM243.988 320.16C244.558 320.16 245.057 320.001 245.486 319.684C245.925 319.367 246.266 318.905 246.508 318.298C246.751 317.691 246.872 316.959 246.872 316.1C246.872 315.241 246.751 314.509 246.508 313.902C246.266 313.295 245.925 312.833 245.486 312.516C245.057 312.199 244.558 312.04 243.988 312.04C243.419 312.04 242.915 312.199 242.476 312.516C242.047 312.833 241.711 313.295 241.468 313.902C241.226 314.509 241.104 315.241 241.104 316.1C241.104 316.959 241.226 317.691 241.468 318.298C241.711 318.905 242.047 319.367 242.476 319.684C242.915 320.001 243.419 320.16 243.988 320.16ZM253.258 321.084C252.502 321.084 251.825 320.883 251.228 320.482C250.64 320.081 250.178 319.507 249.842 318.76C249.515 318.004 249.352 317.117 249.352 316.1C249.352 315.083 249.515 314.201 249.842 313.454C250.178 312.698 250.64 312.119 251.228 311.718C251.825 311.317 252.502 311.116 253.258 311.116C254.014 311.116 254.686 311.317 255.274 311.718C255.871 312.119 256.338 312.698 256.674 313.454C257.01 314.201 257.178 315.083 257.178 316.1C257.178 317.117 257.01 318.004 256.674 318.76C256.338 319.507 255.871 320.081 255.274 320.482C254.686 320.883 254.014 321.084 253.258 321.084ZM253.258 320.16C253.827 320.16 254.327 320.001 254.756 319.684C255.195 319.367 255.535 318.905 255.778 318.298C256.021 317.691 256.142 316.959 256.142 316.1C256.142 315.241 256.021 314.509 255.778 313.902C255.535 313.295 255.195 312.833 254.756 312.516C254.327 312.199 253.827 312.04 253.258 312.04C252.689 312.04 252.185 312.199 251.746 312.516C251.317 312.833 250.981 313.295 250.738 313.902C250.495 314.509 250.374 315.241 250.374 316.1C250.374 316.959 250.495 317.691 250.738 318.298C250.981 318.905 251.317 319.367 251.746 319.684C252.185 320.001 252.689 320.16 253.258 320.16ZM262.528 321.084C261.772 321.084 261.095 320.883 260.498 320.482C259.91 320.081 259.448 319.507 259.112 318.76C258.785 318.004 258.622 317.117 258.622 316.1C258.622 315.083 258.785 314.201 259.112 313.454C259.448 312.698 259.91 312.119 260.498 311.718C261.095 311.317 261.772 311.116 262.528 311.116C263.284 311.116 263.956 311.317 264.544 311.718C265.141 312.119 265.608 312.698 265.944 313.454C266.28 314.201 266.448 315.083 266.448 316.1C266.448 317.117 266.28 318.004 265.944 318.76C265.608 319.507 265.141 320.081 264.544 320.482C263.956 320.883 263.284 321.084 262.528 321.084ZM262.528 320.16C263.097 320.16 263.596 320.001 264.026 319.684C264.464 319.367 264.805 318.905 265.048 318.298C265.29 317.691 265.412 316.959 265.412 316.1C265.412 315.241 265.29 314.509 265.048 313.902C264.805 313.295 264.464 312.833 264.026 312.516C263.596 312.199 263.097 312.04 262.528 312.04C261.958 312.04 261.454 312.199 261.016 312.516C260.586 312.833 260.25 313.295 260.008 313.902C259.765 314.509 259.644 315.241 259.644 316.1C259.644 316.959 259.765 317.691 260.008 318.298C260.25 318.905 260.586 319.367 261.016 319.684C261.454 320.001 261.958 320.16 262.528 320.16ZM276.035 313.58C276.726 313.58 277.351 313.739 277.911 314.056C278.471 314.364 278.91 314.803 279.227 315.372C279.544 315.941 279.703 316.59 279.703 317.318C279.703 318.055 279.544 318.709 279.227 319.278C278.91 319.847 278.471 320.291 277.911 320.608C277.36 320.916 276.735 321.07 276.035 321.07C275.438 321.07 274.896 320.949 274.411 320.706C273.935 320.454 273.543 320.09 273.235 319.614V323.716H272.241V313.636H273.193V315.092C273.492 314.607 273.884 314.233 274.369 313.972C274.864 313.711 275.419 313.58 276.035 313.58ZM275.965 320.188C276.478 320.188 276.945 320.071 277.365 319.838C277.785 319.595 278.112 319.255 278.345 318.816C278.588 318.377 278.709 317.878 278.709 317.318C278.709 316.758 278.588 316.263 278.345 315.834C278.112 315.395 277.785 315.055 277.365 314.812C276.945 314.569 276.478 314.448 275.965 314.448C275.442 314.448 274.971 314.569 274.551 314.812C274.14 315.055 273.814 315.395 273.571 315.834C273.338 316.263 273.221 316.758 273.221 317.318C273.221 317.878 273.338 318.377 273.571 318.816C273.814 319.255 274.14 319.595 274.551 319.838C274.971 320.071 275.442 320.188 275.965 320.188ZM287.892 313.636L284.21 321.882C283.911 322.573 283.566 323.063 283.174 323.352C282.782 323.641 282.31 323.786 281.76 323.786C281.405 323.786 281.074 323.73 280.766 323.618C280.458 323.506 280.192 323.338 279.968 323.114L280.43 322.372C280.803 322.745 281.251 322.932 281.774 322.932C282.11 322.932 282.394 322.839 282.628 322.652C282.87 322.465 283.094 322.148 283.3 321.7L283.622 320.986L280.332 313.636H281.368L284.14 319.894L286.912 313.636H287.892ZM292.901 313.818C293.582 313.818 294.189 313.972 294.721 314.28C295.262 314.579 295.682 315.003 295.981 315.554C296.28 316.095 296.429 316.716 296.429 317.416C296.429 318.135 296.27 318.774 295.953 319.334C295.645 319.885 295.211 320.314 294.651 320.622C294.091 320.93 293.447 321.084 292.719 321.084C291.496 321.084 290.549 320.655 289.877 319.796C289.205 318.937 288.869 317.752 288.869 316.24C288.869 314.663 289.168 313.454 289.765 312.614C290.372 311.774 291.314 311.205 292.593 310.906L295.897 310.15L296.065 311.06L292.957 311.774C291.902 312.007 291.128 312.423 290.633 313.02C290.138 313.608 289.868 314.481 289.821 315.638C290.12 315.069 290.535 314.625 291.067 314.308C291.599 313.981 292.21 313.818 292.901 313.818ZM292.747 320.258C293.26 320.258 293.718 320.141 294.119 319.908C294.53 319.665 294.847 319.329 295.071 318.9C295.304 318.471 295.421 317.985 295.421 317.444C295.421 316.903 295.309 316.427 295.085 316.016C294.861 315.605 294.544 315.288 294.133 315.064C293.732 314.831 293.27 314.714 292.747 314.714C292.224 314.714 291.758 314.831 291.347 315.064C290.946 315.288 290.628 315.605 290.395 316.016C290.171 316.427 290.059 316.903 290.059 317.444C290.059 317.985 290.171 318.471 290.395 318.9C290.628 319.329 290.95 319.665 291.361 319.908C291.772 320.141 292.234 320.258 292.747 320.258ZM298.424 321.07C298.219 321.07 298.042 320.995 297.892 320.846C297.752 320.697 297.682 320.515 297.682 320.3C297.682 320.085 297.752 319.908 297.892 319.768C298.042 319.619 298.219 319.544 298.424 319.544C298.63 319.544 298.807 319.619 298.956 319.768C299.106 319.908 299.18 320.085 299.18 320.3C299.18 320.515 299.106 320.697 298.956 320.846C298.807 320.995 298.63 321.07 298.424 321.07Z" fill="black"/>
<path opacity="0.5" d="M648.382 315.638V316.562L642.293 318.998V318.13L647.445 316.1L642.293 314.07V313.188L648.382 315.638ZM660.449 320.104V321H653.575V320.286L657.649 316.296C658.163 315.792 658.508 315.358 658.685 314.994C658.872 314.621 658.965 314.247 658.965 313.874C658.965 313.295 658.765 312.847 658.363 312.53C657.971 312.203 657.407 312.04 656.669 312.04C655.521 312.04 654.63 312.404 653.995 313.132L653.281 312.516C653.664 312.068 654.149 311.723 654.737 311.48C655.335 311.237 656.007 311.116 656.753 311.116C657.752 311.116 658.541 311.354 659.119 311.83C659.707 312.297 660.001 312.941 660.001 313.762C660.001 314.266 659.889 314.751 659.665 315.218C659.441 315.685 659.017 316.221 658.391 316.828L655.059 320.104H660.449ZM665.566 321.084C664.81 321.084 664.133 320.883 663.536 320.482C662.948 320.081 662.486 319.507 662.15 318.76C661.823 318.004 661.66 317.117 661.66 316.1C661.66 315.083 661.823 314.201 662.15 313.454C662.486 312.698 662.948 312.119 663.536 311.718C664.133 311.317 664.81 311.116 665.566 311.116C666.322 311.116 666.994 311.317 667.582 311.718C668.179 312.119 668.646 312.698 668.982 313.454C669.318 314.201 669.486 315.083 669.486 316.1C669.486 317.117 669.318 318.004 668.982 318.76C668.646 319.507 668.179 320.081 667.582 320.482C666.994 320.883 666.322 321.084 665.566 321.084ZM665.566 320.16C666.135 320.16 666.634 320.001 667.064 319.684C667.502 319.367 667.843 318.905 668.086 318.298C668.328 317.691 668.45 316.959 668.45 316.1C668.45 315.241 668.328 314.509 668.086 313.902C667.843 313.295 667.502 312.833 667.064 312.516C666.634 312.199 666.135 312.04 665.566 312.04C664.996 312.04 664.492 312.199 664.054 312.516C663.624 312.833 663.288 313.295 663.046 313.902C662.803 314.509 662.682 315.241 662.682 316.1C662.682 316.959 662.803 317.691 663.046 318.298C663.288 318.905 663.624 319.367 664.054 319.684C664.492 320.001 664.996 320.16 665.566 320.16ZM674.835 321.084C674.079 321.084 673.403 320.883 672.805 320.482C672.217 320.081 671.755 319.507 671.419 318.76C671.093 318.004 670.929 317.117 670.929 316.1C670.929 315.083 671.093 314.201 671.419 313.454C671.755 312.698 672.217 312.119 672.805 311.718C673.403 311.317 674.079 311.116 674.835 311.116C675.591 311.116 676.263 311.317 676.851 311.718C677.449 312.119 677.915 312.698 678.251 313.454C678.587 314.201 678.755 315.083 678.755 316.1C678.755 317.117 678.587 318.004 678.251 318.76C677.915 319.507 677.449 320.081 676.851 320.482C676.263 320.883 675.591 321.084 674.835 321.084ZM674.835 320.16C675.405 320.16 675.904 320.001 676.333 319.684C676.772 319.367 677.113 318.905 677.355 318.298C677.598 317.691 677.719 316.959 677.719 316.1C677.719 315.241 677.598 314.509 677.355 313.902C677.113 313.295 676.772 312.833 676.333 312.516C675.904 312.199 675.405 312.04 674.835 312.04C674.266 312.04 673.762 312.199 673.323 312.516C672.894 312.833 672.558 313.295 672.315 313.902C672.073 314.509 671.951 315.241 671.951 316.1C671.951 316.959 672.073 317.691 672.315 318.298C672.558 318.905 672.894 319.367 673.323 319.684C673.762 320.001 674.266 320.16 674.835 320.16ZM687.769 321.084C687.013 321.084 686.336 320.883 685.739 320.482C685.151 320.081 684.689 319.507 684.353 318.76C684.026 318.004 683.863 317.117 683.863 316.1C683.863 315.083 684.026 314.201 684.353 313.454C684.689 312.698 685.151 312.119 685.739 311.718C686.336 311.317 687.013 311.116 687.769 311.116C688.525 311.116 689.197 311.317 689.785 311.718C690.382 312.119 690.849 312.698 691.185 313.454C691.521 314.201 691.689 315.083 691.689 316.1C691.689 317.117 691.521 318.004 691.185 318.76C690.849 319.507 690.382 320.081 689.785 320.482C689.197 320.883 688.525 321.084 687.769 321.084ZM687.769 320.16C688.338 320.16 688.837 320.001 689.267 319.684C689.705 319.367 690.046 318.905 690.289 318.298C690.531 317.691 690.653 316.959 690.653 316.1C690.653 315.241 690.531 314.509 690.289 313.902C690.046 313.295 689.705 312.833 689.267 312.516C688.837 312.199 688.338 312.04 687.769 312.04C687.199 312.04 686.695 312.199 686.257 312.516C685.827 312.833 685.491 313.295 685.249 313.902C685.006 314.509 684.885 315.241 684.885 316.1C684.885 316.959 685.006 317.691 685.249 318.298C685.491 318.905 685.827 319.367 686.257 319.684C686.695 320.001 687.199 320.16 687.769 320.16ZM697.038 321.084C696.282 321.084 695.606 320.883 695.008 320.482C694.42 320.081 693.958 319.507 693.622 318.76C693.296 318.004 693.132 317.117 693.132 316.1C693.132 315.083 693.296 314.201 693.622 313.454C693.958 312.698 694.42 312.119 695.008 311.718C695.606 311.317 696.282 311.116 697.038 311.116C697.794 311.116 698.466 311.317 699.054 311.718C699.652 312.119 700.118 312.698 700.454 313.454C700.79 314.201 700.958 315.083 700.958 316.1C700.958 317.117 700.79 318.004 700.454 318.76C700.118 319.507 699.652 320.081 699.054 320.482C698.466 320.883 697.794 321.084 697.038 321.084ZM697.038 320.16C697.608 320.16 698.107 320.001 698.536 319.684C698.975 319.367 699.316 318.905 699.558 318.298C699.801 317.691 699.922 316.959 699.922 316.1C699.922 315.241 699.801 314.509 699.558 313.902C699.316 313.295 698.975 312.833 698.536 312.516C698.107 312.199 697.608 312.04 697.038 312.04C696.469 312.04 695.965 312.199 695.526 312.516C695.097 312.833 694.761 313.295 694.518 313.902C694.276 314.509 694.154 315.241 694.154 316.1C694.154 316.959 694.276 317.691 694.518 318.298C694.761 318.905 695.097 319.367 695.526 319.684C695.965 320.001 696.469 320.16 697.038 320.16ZM706.308 321.084C705.552 321.084 704.875 320.883 704.278 320.482C703.69 320.081 703.228 319.507 702.892 318.76C702.565 318.004 702.402 317.117 702.402 316.1C702.402 315.083 702.565 314.201 702.892 313.454C703.228 312.698 703.69 312.119 704.278 311.718C704.875 311.317 705.552 311.116 706.308 311.116C707.064 311.116 707.736 311.317 708.324 311.718C708.921 312.119 709.388 312.698 709.724 313.454C710.06 314.201 710.228 315.083 710.228 316.1C710.228 317.117 710.06 318.004 709.724 318.76C709.388 319.507 708.921 320.081 708.324 320.482C707.736 320.883 707.064 321.084 706.308 321.084ZM706.308 320.16C706.877 320.16 707.376 320.001 707.806 319.684C708.244 319.367 708.585 318.905 708.828 318.298C709.07 317.691 709.192 316.959 709.192 316.1C709.192 315.241 709.07 314.509 708.828 313.902C708.585 313.295 708.244 312.833 707.806 312.516C707.376 312.199 706.877 312.04 706.308 312.04C705.738 312.04 705.234 312.199 704.796 312.516C704.366 312.833 704.03 313.295 703.788 313.902C703.545 314.509 703.424 315.241 703.424 316.1C703.424 316.959 703.545 317.691 703.788 318.298C704.03 318.905 704.366 319.367 704.796 319.684C705.234 320.001 705.738 320.16 706.308 320.16ZM719.815 313.58C720.506 313.58 721.131 313.739 721.691 314.056C722.251 314.364 722.69 314.803 723.007 315.372C723.325 315.941 723.483 316.59 723.483 317.318C723.483 318.055 723.325 318.709 723.007 319.278C722.69 319.847 722.251 320.291 721.691 320.608C721.141 320.916 720.515 321.07 719.815 321.07C719.218 321.07 718.677 320.949 718.191 320.706C717.715 320.454 717.323 320.09 717.015 319.614V323.716H716.021V313.636H716.973V315.092C717.272 314.607 717.664 314.233 718.149 313.972C718.644 313.711 719.199 313.58 719.815 313.58ZM719.745 320.188C720.259 320.188 720.725 320.071 721.145 319.838C721.565 319.595 721.892 319.255 722.125 318.816C722.368 318.377 722.489 317.878 722.489 317.318C722.489 316.758 722.368 316.263 722.125 315.834C721.892 315.395 721.565 315.055 721.145 314.812C720.725 314.569 720.259 314.448 719.745 314.448C719.223 314.448 718.751 314.569 718.331 314.812C717.921 315.055 717.594 315.395 717.351 315.834C717.118 316.263 717.001 316.758 717.001 317.318C717.001 317.878 717.118 318.377 717.351 318.816C717.594 319.255 717.921 319.595 718.331 319.838C718.751 320.071 719.223 320.188 719.745 320.188ZM731.672 313.636L727.99 321.882C727.691 322.573 727.346 323.063 726.954 323.352C726.562 323.641 726.091 323.786 725.54 323.786C725.185 323.786 724.854 323.73 724.546 323.618C724.238 323.506 723.972 323.338 723.748 323.114L724.21 322.372C724.583 322.745 725.031 322.932 725.554 322.932C725.89 322.932 726.175 322.839 726.408 322.652C726.651 322.465 726.875 322.148 727.08 321.7L727.402 320.986L724.112 313.636H725.148L727.92 319.894L730.692 313.636H731.672ZM736.681 313.818C737.363 313.818 737.969 313.972 738.501 314.28C739.043 314.579 739.463 315.003 739.761 315.554C740.06 316.095 740.209 316.716 740.209 317.416C740.209 318.135 740.051 318.774 739.733 319.334C739.425 319.885 738.991 320.314 738.431 320.622C737.871 320.93 737.227 321.084 736.499 321.084C735.277 321.084 734.329 320.655 733.657 319.796C732.985 318.937 732.649 317.752 732.649 316.24C732.649 314.663 732.948 313.454 733.545 312.614C734.152 311.774 735.095 311.205 736.373 310.906L739.677 310.15L739.845 311.06L736.737 311.774C735.683 312.007 734.908 312.423 734.413 313.02C733.919 313.608 733.648 314.481 733.601 315.638C733.9 315.069 734.315 314.625 734.847 314.308C735.379 313.981 735.991 313.818 736.681 313.818ZM736.527 320.258C737.041 320.258 737.498 320.141 737.899 319.908C738.31 319.665 738.627 319.329 738.851 318.9C739.085 318.471 739.201 317.985 739.201 317.444C739.201 316.903 739.089 316.427 738.865 316.016C738.641 315.605 738.324 315.288 737.913 315.064C737.512 314.831 737.05 314.714 736.527 314.714C736.005 314.714 735.538 314.831 735.127 315.064C734.726 315.288 734.409 315.605 734.175 316.016C733.951 316.427 733.839 316.903 733.839 317.444C733.839 317.985 733.951 318.471 734.175 318.9C734.409 319.329 734.731 319.665 735.141 319.908C735.552 320.141 736.014 320.258 736.527 320.258ZM742.205 321.07C741.999 321.07 741.822 320.995 741.673 320.846C741.533 320.697 741.463 320.515 741.463 320.3C741.463 320.085 741.533 319.908 741.673 319.768C741.822 319.619 741.999 319.544 742.205 319.544C742.41 319.544 742.587 319.619 742.737 319.768C742.886 319.908 742.961 320.085 742.961 320.3C742.961 320.515 742.886 320.697 742.737 320.846C742.587 320.995 742.41 321.07 742.205 321.07Z" fill="black"/>
<line x1="470.5" y1="157" x2="470.5" y2="284" stroke="#1357DD" stroke-dasharray="4.4 4.4"/>
<g filter="url(#filter0_d)">
<rect x="460" y="147" width="20" height="20" rx="10" fill="#1357DD"/>
<rect x="462" y="149" width="16" height="16" rx="8" stroke="white" stroke-width="4"/>
</g>
<g filter="url(#filter1_d)">
<path fill-rule="evenodd" clip-rule="evenodd" d="M473.462 141.414C471.55 143.529 468.45 143.529 466.538 141.414L462.266 136.918C461.394 136 460.958 135.541 460.443 135.213C459.986 134.921 459.485 134.706 458.959 134.576C458.366 134.429 457.733 134.429 456.467 134.429H407.229C400.543 134.429 398.118 133.832 395.674 132.711C393.229 131.591 391.311 129.946 390.003 127.851C388.696 125.756 388 123.678 388 117.946V75.4821C388 69.7509 388.696 67.6727 390.003 65.5774C391.311 63.4822 393.229 61.8378 395.674 60.7173C398.118 59.5967 400.543 59 407.229 59H533.771C540.457 59 542.882 59.5967 545.326 60.7173C547.771 61.8378 549.689 63.4822 550.997 65.5774C552.304 67.6727 553 69.7509 553 75.4821V117.946C553 123.678 552.304 125.756 550.997 127.851C549.689 129.946 547.771 131.591 545.326 132.711C542.882 133.832 540.457 134.429 533.771 134.429H486.967C484.435 134.429 483.169 134.429 481.983 134.723C480.931 134.984 479.929 135.414 479.015 135.997C477.985 136.654 477.113 137.572 475.369 139.407L473.462 141.414Z" fill="white"/>
</g>
<path d="M401.969 107.986C402.468 107.59 402.695 107.407 402.651 107.436C404.089 106.248 405.218 105.273 406.039 104.51C406.875 103.748 407.579 102.948 408.151 102.112C408.723 101.276 409.009 100.462 409.009 99.6702C409.009 99.0689 408.87 98.5996 408.591 98.2622C408.313 97.9249 407.895 97.7562 407.337 97.7562C406.78 97.7562 406.34 97.9689 406.017 98.3942C405.709 98.8049 405.555 99.3916 405.555 100.154H401.925C401.955 98.9076 402.219 97.8662 402.717 97.0302C403.231 96.1942 403.898 95.5782 404.719 95.1822C405.555 94.7862 406.479 94.5882 407.491 94.5882C409.237 94.5882 410.549 95.0356 411.429 95.9302C412.324 96.8249 412.771 97.9909 412.771 99.4282C412.771 100.998 412.236 102.457 411.165 103.806C410.095 105.141 408.731 106.446 407.073 107.722H413.013V110.78H401.969V107.986ZM414.67 102.75C414.67 100.228 415.154 98.2402 416.122 96.7882C417.104 95.3362 418.681 94.6102 420.852 94.6102C423.022 94.6102 424.592 95.3362 425.56 96.7882C426.542 98.2402 427.034 100.228 427.034 102.75C427.034 105.302 426.542 107.304 425.56 108.756C424.592 110.208 423.022 110.934 420.852 110.934C418.681 110.934 417.104 110.208 416.122 108.756C415.154 107.304 414.67 105.302 414.67 102.75ZM423.338 102.75C423.338 101.269 423.176 100.132 422.854 99.3402C422.531 98.5336 421.864 98.1302 420.852 98.1302C419.84 98.1302 419.172 98.5336 418.85 99.3402C418.527 100.132 418.366 101.269 418.366 102.75C418.366 103.748 418.424 104.576 418.542 105.236C418.659 105.882 418.894 106.41 419.246 106.82C419.612 107.216 420.148 107.414 420.852 107.414C421.556 107.414 422.084 107.216 422.436 106.82C422.802 106.41 423.044 105.882 423.162 105.236C423.279 104.576 423.338 103.748 423.338 102.75ZM429.021 102.75C429.021 100.228 429.505 98.2402 430.473 96.7882C431.456 95.3362 433.033 94.6102 435.203 94.6102C437.374 94.6102 438.943 95.3362 439.911 96.7882C440.894 98.2402 441.385 100.228 441.385 102.75C441.385 105.302 440.894 107.304 439.911 108.756C438.943 110.208 437.374 110.934 435.203 110.934C433.033 110.934 431.456 110.208 430.473 108.756C429.505 107.304 429.021 105.302 429.021 102.75ZM437.689 102.75C437.689 101.269 437.528 100.132 437.205 99.3402C436.883 98.5336 436.215 98.1302 435.203 98.1302C434.191 98.1302 433.524 98.5336 433.201 99.3402C432.879 100.132 432.717 101.269 432.717 102.75C432.717 103.748 432.776 104.576 432.893 105.236C433.011 105.882 433.245 106.41 433.597 106.82C433.964 107.216 434.499 107.414 435.203 107.414C435.907 107.414 436.435 107.216 436.787 106.82C437.154 106.41 437.396 105.882 437.513 105.236C437.631 104.576 437.689 103.748 437.689 102.75ZM448.035 102.75C448.035 100.228 448.519 98.2402 449.487 96.7882C450.47 95.3362 452.046 94.6102 454.217 94.6102C456.388 94.6102 457.957 95.3362 458.925 96.7882C459.908 98.2402 460.399 100.228 460.399 102.75C460.399 105.302 459.908 107.304 458.925 108.756C457.957 110.208 456.388 110.934 454.217 110.934C452.046 110.934 450.47 110.208 449.487 108.756C448.519 107.304 448.035 105.302 448.035 102.75ZM456.703 102.75C456.703 101.269 456.542 100.132 456.219 99.3402C455.896 98.5336 455.229 98.1302 454.217 98.1302C453.205 98.1302 452.538 98.5336 452.215 99.3402C451.892 100.132 451.731 101.269 451.731 102.75C451.731 103.748 451.79 104.576 451.907 105.236C452.024 105.882 452.259 106.41 452.611 106.82C452.978 107.216 453.513 107.414 454.217 107.414C454.921 107.414 455.449 107.216 455.801 106.82C456.168 106.41 456.41 105.882 456.527 105.236C456.644 104.576 456.703 103.748 456.703 102.75ZM462.386 102.75C462.386 100.228 462.87 98.2402 463.838 96.7882C464.821 95.3362 466.398 94.6102 468.568 94.6102C470.739 94.6102 472.308 95.3362 473.276 96.7882C474.259 98.2402 474.75 100.228 474.75 102.75C474.75 105.302 474.259 107.304 473.276 108.756C472.308 110.208 470.739 110.934 468.568 110.934C466.398 110.934 464.821 110.208 463.838 108.756C462.87 107.304 462.386 105.302 462.386 102.75ZM471.054 102.75C471.054 101.269 470.893 100.132 470.57 99.3402C470.248 98.5336 469.58 98.1302 468.568 98.1302C467.556 98.1302 466.889 98.5336 466.566 99.3402C466.244 100.132 466.082 101.269 466.082 102.75C466.082 103.748 466.141 104.576 466.258 105.236C466.376 105.882 466.61 106.41 466.962 106.82C467.329 107.216 467.864 107.414 468.568 107.414C469.272 107.414 469.8 107.216 470.152 106.82C470.519 106.41 470.761 105.882 470.878 105.236C470.996 104.576 471.054 103.748 471.054 102.75ZM476.738 102.75C476.738 100.228 477.222 98.2402 478.19 96.7882C479.173 95.3362 480.749 94.6102 482.92 94.6102C485.091 94.6102 486.66 95.3362 487.628 96.7882C488.611 98.2402 489.102 100.228 489.102 102.75C489.102 105.302 488.611 107.304 487.628 108.756C486.66 110.208 485.091 110.934 482.92 110.934C480.749 110.934 479.173 110.208 478.19 108.756C477.222 107.304 476.738 105.302 476.738 102.75ZM485.406 102.75C485.406 101.269 485.245 100.132 484.922 99.3402C484.599 98.5336 483.932 98.1302 482.92 98.1302C481.908 98.1302 481.241 98.5336 480.918 99.3402C480.595 100.132 480.434 101.269 480.434 102.75C480.434 103.748 480.493 104.576 480.61 105.236C480.727 105.882 480.962 106.41 481.314 106.82C481.681 107.216 482.216 107.414 482.92 107.414C483.624 107.414 484.152 107.216 484.504 106.82C484.871 106.41 485.113 105.882 485.23 105.236C485.347 104.576 485.406 103.748 485.406 102.75ZM503.166 98.7682C504.515 98.7682 505.608 99.2962 506.444 100.352C507.28 101.394 507.698 102.934 507.698 104.972C507.698 107.011 507.265 108.566 506.4 109.636C505.534 110.692 504.427 111.22 503.078 111.22C502.212 111.22 501.523 111.066 501.01 110.758C500.496 110.436 500.078 110.076 499.756 109.68H499.58C499.697 110.296 499.756 110.883 499.756 111.44V116.28H496.478V98.9882H499.14L499.602 100.55H499.756C500.078 100.066 500.511 99.6482 501.054 99.2962C501.596 98.9442 502.3 98.7682 503.166 98.7682ZM502.11 101.386C501.259 101.386 500.658 101.65 500.306 102.178C499.968 102.706 499.785 103.513 499.756 104.598V104.95C499.756 106.109 499.924 107.004 500.262 107.634C500.614 108.25 501.244 108.558 502.154 108.558C502.902 108.558 503.452 108.25 503.804 107.634C504.17 107.004 504.354 106.102 504.354 104.928C504.354 102.567 503.606 101.386 502.11 101.386ZM508.469 98.9882H512.055L514.321 105.742C514.438 106.065 514.526 106.402 514.585 106.754C514.643 107.092 514.687 107.451 514.717 107.832H514.783C514.827 107.451 514.885 107.092 514.959 106.754C515.047 106.402 515.142 106.065 515.245 105.742L517.467 98.9882H520.987L515.905 112.54C515.45 113.787 514.783 114.718 513.903 115.334C513.037 115.965 512.033 116.28 510.889 116.28C510.522 116.28 510.199 116.258 509.921 116.214C509.657 116.185 509.422 116.148 509.217 116.104V113.508C509.378 113.538 509.569 113.567 509.789 113.596C510.023 113.626 510.265 113.64 510.515 113.64C511.204 113.64 511.747 113.428 512.143 113.002C512.553 112.592 512.854 112.093 513.045 111.506L513.243 110.912L508.469 98.9882ZM521.984 103.806C521.984 101.152 522.483 99.0909 523.48 97.6242C524.492 96.1576 526.157 95.2189 528.474 94.8082C529.251 94.6762 530.036 94.5662 530.828 94.4782C531.635 94.3756 532.463 94.2729 533.314 94.1702L533.688 97.0302C533.189 97.0889 532.639 97.1549 532.038 97.2282C531.451 97.3016 530.865 97.3749 530.278 97.4482C529.706 97.5069 529.193 97.5729 528.738 97.6462C528.005 97.7636 527.396 97.9469 526.912 98.1962C526.428 98.4309 526.054 98.8122 525.79 99.3402C525.541 99.8682 525.387 100.631 525.328 101.628H525.482C525.658 101.35 525.9 101.071 526.208 100.792C526.531 100.514 526.927 100.279 527.396 100.088C527.865 99.8976 528.401 99.8022 529.002 99.8022C530.439 99.8022 531.576 100.242 532.412 101.122C533.263 102.002 533.688 103.315 533.688 105.06C533.688 106.424 533.439 107.561 532.94 108.47C532.441 109.38 531.752 110.069 530.872 110.538C529.992 110.993 528.973 111.22 527.814 111.22C526.039 111.22 524.624 110.582 523.568 109.306C522.512 108.03 521.984 106.197 521.984 103.806ZM528.012 108.558C528.701 108.558 529.259 108.324 529.684 107.854C530.124 107.385 530.344 106.549 530.344 105.346C530.344 104.393 530.183 103.638 529.86 103.08C529.552 102.508 529.009 102.222 528.232 102.222C527.763 102.222 527.323 102.34 526.912 102.574C526.516 102.794 526.179 103.051 525.9 103.344C525.621 103.623 525.431 103.865 525.328 104.07C525.328 104.818 525.409 105.537 525.57 106.226C525.731 106.916 526.003 107.48 526.384 107.92C526.78 108.346 527.323 108.558 528.012 108.558ZM537.804 111.176C537.144 111.176 536.601 110.986 536.176 110.604C535.765 110.208 535.56 109.724 535.56 109.152C535.56 108.566 535.765 108.074 536.176 107.678C536.601 107.282 537.144 107.084 537.804 107.084C538.449 107.084 538.977 107.282 539.388 107.678C539.813 108.074 540.026 108.566 540.026 109.152C540.026 109.724 539.813 110.208 539.388 110.604C538.977 110.986 538.449 111.176 537.804 111.176Z" fill="#11263C"/>
<path d="M407.903 78.7902H406.303V82.0002H405.583V75.0002H406.303V78.1402H407.903L410.273 75.0002H411.073L408.473 78.4002L411.223 82.0002H410.373L407.903 78.7902ZM414.089 76.7002C414.775 76.7002 415.302 76.8736 415.669 77.2202C416.035 77.5602 416.219 78.0669 416.219 78.7402V82.0002H415.539V81.1802C415.379 81.4536 415.142 81.6669 414.829 81.8202C414.522 81.9736 414.155 82.0502 413.729 82.0502C413.142 82.0502 412.675 81.9102 412.329 81.6302C411.982 81.3502 411.809 80.9802 411.809 80.5202C411.809 80.0736 411.969 79.7136 412.289 79.4402C412.615 79.1669 413.132 79.0302 413.839 79.0302H415.509V78.7102C415.509 78.2569 415.382 77.9136 415.129 77.6802C414.875 77.4402 414.505 77.3202 414.019 77.3202C413.685 77.3202 413.365 77.3769 413.059 77.4902C412.752 77.5969 412.489 77.7469 412.269 77.9402L411.949 77.4102C412.215 77.1836 412.535 77.0102 412.909 76.8902C413.282 76.7636 413.675 76.7002 414.089 76.7002ZM413.839 81.4902C414.239 81.4902 414.582 81.4002 414.869 81.2202C415.155 81.0336 415.369 80.7669 415.509 80.4202V79.5602H413.859C412.959 79.5602 412.509 79.8736 412.509 80.5002C412.509 80.8069 412.625 81.0502 412.859 81.2302C413.092 81.4036 413.419 81.4902 413.839 81.4902ZM422.829 76.7402V82.0002H422.119V77.3702H418.819V82.0002H418.109V76.7402H422.829ZM424.847 76.7402H425.557V80.9202L429.067 76.7402H429.697V82.0002H428.987V77.8202L425.487 82.0002H424.847V76.7402ZM435.432 77.3702H433.442V82.0002H432.732V77.3702H430.742V76.7402H435.432V77.3702ZM438.268 76.7002C438.955 76.7002 439.482 76.8736 439.848 77.2202C440.215 77.5602 440.398 78.0669 440.398 78.7402V82.0002H439.718V81.1802C439.558 81.4536 439.322 81.6669 439.008 81.8202C438.702 81.9736 438.335 82.0502 437.908 82.0502C437.322 82.0502 436.855 81.9102 436.508 81.6302C436.162 81.3502 435.988 80.9802 435.988 80.5202C435.988 80.0736 436.148 79.7136 436.468 79.4402C436.795 79.1669 437.312 79.0302 438.018 79.0302H439.688V78.7102C439.688 78.2569 439.562 77.9136 439.308 77.6802C439.055 77.4402 438.685 77.3202 438.198 77.3202C437.865 77.3202 437.545 77.3769 437.238 77.4902C436.932 77.5969 436.668 77.7469 436.448 77.9402L436.128 77.4102C436.395 77.1836 436.715 77.0102 437.088 76.8902C437.462 76.7636 437.855 76.7002 438.268 76.7002ZM438.018 81.4902C438.418 81.4902 438.762 81.4002 439.048 81.2202C439.335 81.0336 439.548 80.7669 439.688 80.4202V79.5602H438.038C437.138 79.5602 436.688 79.8736 436.688 80.5002C436.688 80.8069 436.805 81.0502 437.038 81.2302C437.272 81.4036 437.598 81.4902 438.018 81.4902ZM446.588 76.7402V82.0002H445.878V77.3702H443.358L443.288 78.6702C443.235 79.7636 443.108 80.6036 442.908 81.1902C442.708 81.7769 442.352 82.0702 441.838 82.0702C441.698 82.0702 441.528 82.0436 441.328 81.9902L441.378 81.3802C441.498 81.4069 441.582 81.4202 441.628 81.4202C441.902 81.4202 442.108 81.2936 442.248 81.0402C442.388 80.7869 442.482 80.4736 442.528 80.1002C442.575 79.7269 442.615 79.2336 442.648 78.6202L442.738 76.7402H446.588Z" fill="black"/>
<defs>
<filter id="filter0_d" x="436" y="127" width="68" height="68" filterUnits="userSpaceOnUse" color-interpolation-filters="sRGB">
<feFlood flood-opacity="0" result="BackgroundImageFix"/>
<feColorMatrix in="SourceAlpha" type="matrix" values="0 0 0 0 0 0 0 0 0 0 0 0 0 0 0 0 0 0 127 0"/>
<feOffset dy="4"/>
<feGaussianBlur stdDeviation="12"/>
<feColorMatrix type="matrix" values="0 0 0 0 0 0 0 0 0 0.0509804 0 0 0 0 0.231373 0 0 0 0.1 0"/>
<feBlend mode="normal" in2="BackgroundImageFix" result="effect1_dropShadow"/>
<feBlend mode="normal" in="SourceGraphic" in2="effect1_dropShadow" result="shape"/>
</filter>
<filter id="filter1_d" x="364" y="39" width="213" height="132" filterUnits="userSpaceOnUse" color-interpolation-filters="sRGB">
<feFlood flood-opacity="0" result="BackgroundImageFix"/>
<feColorMatrix in="SourceAlpha" type="matrix" values="0 0 0 0 0 0 0 0 0 0 0 0 0 0 0 0 0 0 127 0"/>
<feOffset dy="4"/>
<feGaussianBlur stdDeviation="12"/>
<feColorMatrix type="matrix" values="0 0 0 0 0 0 0 0 0 0.0509804 0 0 0 0 0.231373 0 0 0 0.1 0"/>
<feBlend mode="normal" in2="BackgroundImageFix" result="effect1_dropShadow"/>
<feBlend mode="normal" in="SourceGraphic" in2="effect1_dropShadow" result="shape"/>
</filter>
<linearGradient id="paint0_linear" x1="518.5" y1="89.5597" x2="518.5" y2="365.336" gradientUnits="userSpaceOnUse">
<stop stop-color="#5985D9" stop-opacity="0.1"/>
<stop offset="0.998978" stop-color="white" stop-opacity="0"/>
</linearGradient>
</defs>
</svg>
