<svg width="302" height="146" viewBox="0 0 302 146" fill="none" xmlns="http://www.w3.org/2000/svg">
<path opacity="0.1" d="M1.07682 104.942H300.78" stroke="black" stroke-linecap="square"/>
<path opacity="0.1" d="M1.07682 81.7161H300.78" stroke="black" stroke-linecap="square"/>
<path opacity="0.1" d="M1.07682 58.4903H300.78" stroke="black" stroke-linecap="square"/>
<path opacity="0.1" d="M1.07682 34.7806H300.78" stroke="black" stroke-linecap="square"/>
<path d="M240.057 52.5716V60.9716H229.533V52.5716H230.721V59.9276H234.213V52.5716H235.389V59.9276H238.881V52.5716H240.057ZM242.478 54.6116H243.63V59.2436L247.53 54.6116H248.574V60.9716H247.422V56.3396L243.534 60.9716H242.478V54.6116ZM254.182 54.5516C254.798 54.5516 255.35 54.6876 255.838 54.9596C256.326 55.2316 256.706 55.6116 256.978 56.0996C257.258 56.5876 257.398 57.1516 257.398 57.7916C257.398 58.4316 257.258 58.9996 256.978 59.4956C256.706 59.9836 256.326 60.3636 255.838 60.6356C255.35 60.9076 254.798 61.0436 254.182 61.0436C253.726 61.0436 253.306 60.9556 252.922 60.7796C252.546 60.6036 252.226 60.3476 251.962 60.0116V63.2996H250.81V54.6116H251.914V55.6196C252.17 55.2676 252.494 55.0036 252.886 54.8276C253.278 54.6436 253.71 54.5516 254.182 54.5516ZM254.086 60.0356C254.494 60.0356 254.858 59.9436 255.178 59.7596C255.506 59.5676 255.762 59.3036 255.946 58.9676C256.138 58.6236 256.234 58.2316 256.234 57.7916C256.234 57.3516 256.138 56.9636 255.946 56.6276C255.762 56.2836 255.506 56.0196 255.178 55.8356C254.858 55.6516 254.494 55.5596 254.086 55.5596C253.686 55.5596 253.322 55.6556 252.994 55.8476C252.674 56.0316 252.418 56.2916 252.226 56.6276C252.042 56.9636 251.95 57.3516 251.95 57.7916C251.95 58.2316 252.042 58.6236 252.226 58.9676C252.41 59.3036 252.666 59.5676 252.994 59.7596C253.322 59.9436 253.686 60.0356 254.086 60.0356ZM261.796 61.0436C261.164 61.0436 260.596 60.9036 260.092 60.6236C259.588 60.3436 259.192 59.9596 258.904 59.4716C258.624 58.9756 258.484 58.4156 258.484 57.7916C258.484 57.1676 258.624 56.6116 258.904 56.1236C259.192 55.6276 259.588 55.2436 260.092 54.9716C260.596 54.6916 261.164 54.5516 261.796 54.5516C262.428 54.5516 262.992 54.6916 263.488 54.9716C263.992 55.2436 264.384 55.6276 264.664 56.1236C264.952 56.6116 265.096 57.1676 265.096 57.7916C265.096 58.4156 264.952 58.9756 264.664 59.4716C264.384 59.9596 263.992 60.3436 263.488 60.6236C262.992 60.9036 262.428 61.0436 261.796 61.0436ZM261.796 60.0356C262.204 60.0356 262.568 59.9436 262.888 59.7596C263.216 59.5676 263.472 59.3036 263.656 58.9676C263.84 58.6236 263.932 58.2316 263.932 57.7916C263.932 57.3516 263.84 56.9636 263.656 56.6276C263.472 56.2836 263.216 56.0196 262.888 55.8356C262.568 55.6516 262.204 55.5596 261.796 55.5596C261.388 55.5596 261.02 55.6516 260.692 55.8356C260.372 56.0196 260.116 56.2836 259.924 56.6276C259.74 56.9636 259.648 57.3516 259.648 57.7916C259.648 58.2316 259.74 58.6236 259.924 58.9676C260.116 59.3036 260.372 59.5676 260.692 59.7596C261.02 59.9436 261.388 60.0356 261.796 60.0356ZM269.231 58.2836H267.911V60.9716H266.759V54.6116H267.911V57.2996H269.255L271.319 54.6116H272.555L270.143 57.6716L272.723 60.9716H271.367L269.231 58.2836ZM273.931 54.6116H275.083V59.2436L278.983 54.6116H280.027V60.9716H278.875V56.3396L274.987 60.9716H273.931V54.6116ZM282.263 54.6116H283.415V59.2436L287.315 54.6116H288.359V60.9716H287.207V56.3396L283.319 60.9716H282.263V54.6116ZM285.239 53.7836C284.647 53.7836 284.187 53.6436 283.859 53.3636C283.531 53.0756 283.363 52.6636 283.355 52.1276H284.135C284.143 52.4236 284.243 52.6636 284.435 52.8476C284.635 53.0236 284.899 53.1116 285.227 53.1116C285.555 53.1116 285.819 53.0236 286.019 52.8476C286.219 52.6636 286.323 52.4236 286.331 52.1276H287.135C287.127 52.6636 286.955 53.0756 286.619 53.3636C286.283 53.6436 285.823 53.7836 285.239 53.7836Z" fill="black"/>
<path opacity="0.2" d="M114.638 0.570952V145.16" stroke="url(#paint0_linear)" stroke-linecap="square"/>
<path d="M92.9131 86.9342H99.2491V87.9542H94.1011V90.3542H96.7171C97.7171 90.3542 98.4771 90.5622 98.9971 90.9782C99.5171 91.3942 99.7771 91.9942 99.7771 92.7782C99.7771 93.6022 99.4931 94.2342 98.9251 94.6742C98.3651 95.1142 97.5611 95.3342 96.5131 95.3342H92.9131V86.9342ZM96.4651 94.3862C97.1531 94.3862 97.6771 94.2542 98.0371 93.9902C98.3971 93.7262 98.5771 93.3382 98.5771 92.8262C98.5771 91.8102 97.8731 91.3022 96.4651 91.3022H94.1011V94.3862H96.4651ZM104.366 91.1342C105.166 91.1422 105.778 91.3262 106.202 91.6862C106.626 92.0462 106.838 92.5542 106.838 93.2102C106.838 93.8982 106.606 94.4302 106.142 94.8062C105.686 95.1742 105.03 95.3542 104.174 95.3462L101.498 95.3342V88.9742H102.65V91.1222L104.366 91.1342ZM107.786 88.9742H108.938V95.3342H107.786V88.9742ZM104.09 94.4702C104.61 94.4782 105.002 94.3742 105.266 94.1582C105.538 93.9422 105.674 93.6222 105.674 93.1982C105.674 92.7822 105.542 92.4782 105.278 92.2862C105.014 92.0942 104.618 91.9942 104.09 91.9862L102.65 91.9622V94.4582L104.09 94.4702ZM113.95 95.4062C113.302 95.4062 112.722 95.2662 112.21 94.9862C111.706 94.7062 111.31 94.3222 111.022 93.8342C110.734 93.3382 110.59 92.7782 110.59 92.1542C110.59 91.5302 110.734 90.9742 111.022 90.4862C111.31 89.9902 111.706 89.6062 112.21 89.3342C112.722 89.0542 113.302 88.9142 113.95 88.9142C114.526 88.9142 115.038 89.0302 115.486 89.2622C115.942 89.4942 116.294 89.8302 116.542 90.2702L115.666 90.8342C115.466 90.5302 115.218 90.3022 114.922 90.1502C114.626 89.9982 114.298 89.9222 113.938 89.9222C113.522 89.9222 113.146 90.0142 112.81 90.1982C112.482 90.3822 112.222 90.6462 112.03 90.9902C111.846 91.3262 111.754 91.7142 111.754 92.1542C111.754 92.6022 111.846 92.9982 112.03 93.3422C112.222 93.6782 112.482 93.9382 112.81 94.1222C113.146 94.3062 113.522 94.3982 113.938 94.3982C114.298 94.3982 114.626 94.3222 114.922 94.1702C115.218 94.0182 115.466 93.7902 115.666 93.4862L116.542 94.0382C116.294 94.4782 115.942 94.8182 115.486 95.0582C115.038 95.2902 114.526 95.4062 113.95 95.4062ZM122.692 89.9822H120.364V95.3342H119.212V89.9822H116.884V88.9742H122.692V89.9822ZM127.242 88.9142C127.858 88.9142 128.41 89.0502 128.898 89.3222C129.386 89.5942 129.766 89.9742 130.038 90.4622C130.318 90.9502 130.458 91.5142 130.458 92.1542C130.458 92.7942 130.318 93.3622 130.038 93.8582C129.766 94.3462 129.386 94.7262 128.898 94.9982C128.41 95.2702 127.858 95.4062 127.242 95.4062C126.786 95.4062 126.366 95.3182 125.982 95.1422C125.606 94.9662 125.286 94.7102 125.022 94.3742V97.6622H123.87V88.9742H124.974V89.9822C125.23 89.6302 125.554 89.3662 125.946 89.1902C126.338 89.0062 126.77 88.9142 127.242 88.9142ZM127.146 94.3982C127.554 94.3982 127.918 94.3062 128.238 94.1222C128.566 93.9302 128.822 93.6662 129.006 93.3302C129.198 92.9862 129.294 92.5942 129.294 92.1542C129.294 91.7142 129.198 91.3262 129.006 90.9902C128.822 90.6462 128.566 90.3822 128.238 90.1982C127.918 90.0142 127.554 89.9222 127.146 89.9222C126.746 89.9222 126.382 90.0182 126.054 90.2102C125.734 90.3942 125.478 90.6542 125.286 90.9902C125.102 91.3262 125.01 91.7142 125.01 92.1542C125.01 92.5942 125.102 92.9862 125.286 93.3302C125.47 93.6662 125.726 93.9302 126.054 94.1222C126.382 94.3062 126.746 94.3982 127.146 94.3982ZM134.855 95.4062C134.223 95.4062 133.655 95.2662 133.151 94.9862C132.647 94.7062 132.251 94.3222 131.963 93.8342C131.683 93.3382 131.543 92.7782 131.543 92.1542C131.543 91.5302 131.683 90.9742 131.963 90.4862C132.251 89.9902 132.647 89.6062 133.151 89.3342C133.655 89.0542 134.223 88.9142 134.855 88.9142C135.487 88.9142 136.051 89.0542 136.547 89.3342C137.051 89.6062 137.443 89.9902 137.723 90.4862C138.011 90.9742 138.155 91.5302 138.155 92.1542C138.155 92.7782 138.011 93.3382 137.723 93.8342C137.443 94.3222 137.051 94.7062 136.547 94.9862C136.051 95.2662 135.487 95.4062 134.855 95.4062ZM134.855 94.3982C135.263 94.3982 135.627 94.3062 135.947 94.1222C136.275 93.9302 136.531 93.6662 136.715 93.3302C136.899 92.9862 136.991 92.5942 136.991 92.1542C136.991 91.7142 136.899 91.3262 136.715 90.9902C136.531 90.6462 136.275 90.3822 135.947 90.1982C135.627 90.0142 135.263 89.9222 134.855 89.9222C134.447 89.9222 134.079 90.0142 133.751 90.1982C133.431 90.3822 133.175 90.6462 132.983 90.9902C132.799 91.3262 132.707 91.7142 132.707 92.1542C132.707 92.5942 132.799 92.9862 132.983 93.3302C133.175 93.6662 133.431 93.9302 133.751 94.1222C134.079 94.3062 134.447 94.3982 134.855 94.3982Z" fill="black"/>
<circle cx="115.397" cy="79.0245" r="3.5" fill="#1357DD"/>
<path opacity="0.2" d="M42.7896 0.570968V145.16" stroke="url(#paint1_linear)" stroke-linecap="square"/>
<path d="M32.534 98.3884V106.788H31.346V99.4324H29.45V98.3884H32.534ZM37.8034 106.884C37.1394 106.884 36.5474 106.716 36.0274 106.38C35.5154 106.036 35.1114 105.54 34.8154 104.892C34.5194 104.244 34.3714 103.476 34.3714 102.588C34.3714 101.7 34.5194 100.932 34.8154 100.284C35.1114 99.6364 35.5154 99.1444 36.0274 98.8084C36.5474 98.4644 37.1394 98.2924 37.8034 98.2924C38.4594 98.2924 39.0434 98.4644 39.5554 98.8084C40.0754 99.1444 40.4834 99.6364 40.7794 100.284C41.0754 100.932 41.2234 101.7 41.2234 102.588C41.2234 103.476 41.0754 104.244 40.7794 104.892C40.4834 105.54 40.0754 106.036 39.5554 106.38C39.0434 106.716 38.4594 106.884 37.8034 106.884ZM37.8034 105.816C38.4754 105.816 39.0114 105.54 39.4114 104.988C39.8194 104.436 40.0234 103.636 40.0234 102.588C40.0234 101.54 39.8194 100.74 39.4114 100.188C39.0114 99.6364 38.4754 99.3604 37.8034 99.3604C37.1234 99.3604 36.5794 99.6364 36.1714 100.188C35.7714 100.74 35.5714 101.54 35.5714 102.588C35.5714 103.636 35.7714 104.436 36.1714 104.988C36.5794 105.54 37.1234 105.816 37.8034 105.816ZM45.8073 106.884C45.1433 106.884 44.5513 106.716 44.0313 106.38C43.5193 106.036 43.1153 105.54 42.8193 104.892C42.5233 104.244 42.3753 103.476 42.3753 102.588C42.3753 101.7 42.5233 100.932 42.8193 100.284C43.1153 99.6364 43.5193 99.1444 44.0313 98.8084C44.5513 98.4644 45.1433 98.2924 45.8073 98.2924C46.4633 98.2924 47.0473 98.4644 47.5593 98.8084C48.0793 99.1444 48.4873 99.6364 48.7833 100.284C49.0793 100.932 49.2273 101.7 49.2273 102.588C49.2273 103.476 49.0793 104.244 48.7833 104.892C48.4873 105.54 48.0793 106.036 47.5593 106.38C47.0473 106.716 46.4633 106.884 45.8073 106.884ZM45.8073 105.816C46.4793 105.816 47.0153 105.54 47.4153 104.988C47.8233 104.436 48.0273 103.636 48.0273 102.588C48.0273 101.54 47.8233 100.74 47.4153 100.188C47.0153 99.6364 46.4793 99.3604 45.8073 99.3604C45.1273 99.3604 44.5833 99.6364 44.1753 100.188C43.7753 100.74 43.5753 101.54 43.5753 102.588C43.5753 103.636 43.7753 104.436 44.1753 104.988C44.5833 105.54 45.1273 105.816 45.8073 105.816ZM56.7632 104.496C56.7632 105.128 56.5232 105.664 56.0432 106.104C55.5712 106.544 54.8832 106.8 53.9792 106.872V108.228H53.2112V106.872C52.6272 106.84 52.0712 106.732 51.5432 106.548C51.0232 106.356 50.6072 106.116 50.2952 105.828L50.7392 104.892C51.0272 105.156 51.3912 105.376 51.8312 105.552C52.2712 105.72 52.7312 105.82 53.2112 105.852V103.068C52.6512 102.932 52.1832 102.784 51.8072 102.624C51.4392 102.464 51.1272 102.228 50.8712 101.916C50.6232 101.604 50.4992 101.196 50.4992 100.692C50.4992 100.06 50.7272 99.5244 51.1832 99.0844C51.6472 98.6444 52.3232 98.3884 53.2112 98.3164V96.9484H53.9792V98.3044C54.4352 98.3204 54.8752 98.3924 55.2992 98.5204C55.7312 98.6484 56.1032 98.8204 56.4152 99.0364L56.0192 99.9964C55.3712 99.5884 54.6912 99.3644 53.9792 99.3244V102.12C54.5632 102.264 55.0432 102.416 55.4192 102.576C55.7952 102.728 56.1112 102.96 56.3672 103.272C56.6312 103.576 56.7632 103.984 56.7632 104.496ZM51.6752 100.644C51.6752 100.988 51.8072 101.256 52.0712 101.448C52.3352 101.64 52.7152 101.8 53.2112 101.928V99.3364C52.6992 99.4004 52.3152 99.5524 52.0592 99.7924C51.8032 100.024 51.6752 100.308 51.6752 100.644ZM53.9792 105.84C54.5152 105.792 54.9152 105.656 55.1792 105.432C55.4512 105.2 55.5872 104.912 55.5872 104.568C55.5872 104.216 55.4472 103.948 55.1672 103.764C54.8952 103.572 54.4992 103.404 53.9792 103.26V105.84Z" fill="black"/>
<circle cx="43.5483" cy="90.4788" r="3.5" fill="#A142B5"/>
<path opacity="0.2" d="M186.974 0.570952V145.16" stroke="url(#paint2_linear)" stroke-linecap="square"/>
<path d="M166.099 76.9208C166.667 77.0568 167.095 77.3008 167.383 77.6528C167.679 77.9968 167.827 78.4408 167.827 78.9848C167.827 79.7128 167.559 80.2768 167.023 80.6768C166.495 81.0768 165.723 81.2768 164.707 81.2768H160.867V72.8768H164.479C165.399 72.8768 166.115 73.0648 166.627 73.4408C167.147 73.8088 167.407 74.3408 167.407 75.0368C167.407 75.4928 167.291 75.8808 167.059 76.2008C166.835 76.5208 166.515 76.7608 166.099 76.9208ZM162.055 76.5728H164.395C164.979 76.5728 165.423 76.4568 165.727 76.2248C166.039 75.9928 166.195 75.6528 166.195 75.2048C166.195 74.7568 166.039 74.4168 165.727 74.1848C165.415 73.9448 164.971 73.8248 164.395 73.8248H162.055V76.5728ZM164.683 80.3288C165.971 80.3288 166.615 79.8488 166.615 78.8888C166.615 78.4088 166.451 78.0568 166.123 77.8328C165.803 77.6008 165.323 77.4848 164.683 77.4848H162.055V80.3288H164.683ZM172.508 77.0768C173.308 77.0848 173.92 77.2688 174.344 77.6288C174.768 77.9888 174.98 78.4968 174.98 79.1528C174.98 79.8408 174.748 80.3728 174.284 80.7488C173.828 81.1168 173.172 81.2968 172.316 81.2888L169.64 81.2768V74.9168H170.792V77.0648L172.508 77.0768ZM175.928 74.9168H177.08V81.2768H175.928V74.9168ZM172.232 80.4128C172.752 80.4208 173.144 80.3168 173.408 80.1008C173.68 79.8848 173.816 79.5648 173.816 79.1408C173.816 78.7248 173.684 78.4208 173.42 78.2288C173.156 78.0368 172.76 77.9368 172.232 77.9288L170.792 77.9048V80.4008L172.232 80.4128ZM182.091 81.3488C181.443 81.3488 180.863 81.2088 180.351 80.9288C179.847 80.6488 179.451 80.2648 179.163 79.7768C178.875 79.2808 178.731 78.7208 178.731 78.0968C178.731 77.4728 178.875 76.9168 179.163 76.4288C179.451 75.9328 179.847 75.5488 180.351 75.2768C180.863 74.9968 181.443 74.8568 182.091 74.8568C182.667 74.8568 183.179 74.9728 183.627 75.2048C184.083 75.4368 184.435 75.7728 184.683 76.2128L183.807 76.7768C183.607 76.4728 183.359 76.2448 183.063 76.0928C182.767 75.9408 182.439 75.8648 182.079 75.8648C181.663 75.8648 181.287 75.9568 180.951 76.1408C180.623 76.3248 180.363 76.5888 180.171 76.9328C179.987 77.2688 179.895 77.6568 179.895 78.0968C179.895 78.5448 179.987 78.9408 180.171 79.2848C180.363 79.6208 180.623 79.8808 180.951 80.0648C181.287 80.2488 181.663 80.3408 182.079 80.3408C182.439 80.3408 182.767 80.2648 183.063 80.1128C183.359 79.9608 183.607 79.7328 183.807 79.4288L184.683 79.9808C184.435 80.4208 184.083 80.7608 183.627 81.0008C183.179 81.2328 182.667 81.3488 182.091 81.3488ZM188.805 81.3488C188.173 81.3488 187.605 81.2088 187.101 80.9288C186.597 80.6488 186.201 80.2648 185.913 79.7768C185.633 79.2808 185.493 78.7208 185.493 78.0968C185.493 77.4728 185.633 76.9168 185.913 76.4288C186.201 75.9328 186.597 75.5488 187.101 75.2768C187.605 74.9968 188.173 74.8568 188.805 74.8568C189.437 74.8568 190.001 74.9968 190.497 75.2768C191.001 75.5488 191.393 75.9328 191.673 76.4288C191.961 76.9168 192.105 77.4728 192.105 78.0968C192.105 78.7208 191.961 79.2808 191.673 79.7768C191.393 80.2648 191.001 80.6488 190.497 80.9288C190.001 81.2088 189.437 81.3488 188.805 81.3488ZM188.805 80.3408C189.213 80.3408 189.577 80.2488 189.897 80.0648C190.225 79.8728 190.481 79.6088 190.665 79.2728C190.849 78.9288 190.941 78.5368 190.941 78.0968C190.941 77.6568 190.849 77.2688 190.665 76.9328C190.481 76.5888 190.225 76.3248 189.897 76.1408C189.577 75.9568 189.213 75.8648 188.805 75.8648C188.397 75.8648 188.029 75.9568 187.701 76.1408C187.381 76.3248 187.125 76.5888 186.933 76.9328C186.749 77.2688 186.657 77.6568 186.657 78.0968C186.657 78.5368 186.749 78.9288 186.933 79.2728C187.125 79.6088 187.381 79.8728 187.701 80.0648C188.029 80.2488 188.397 80.3408 188.805 80.3408ZM196.241 78.5888H194.921V81.2768H193.769V74.9168H194.921V77.6048H196.265L198.329 74.9168H199.565L197.153 77.9768L199.733 81.2768H198.377L196.241 78.5888ZM200.941 74.9168H202.093V79.5488L205.993 74.9168H207.037V81.2768H205.885V76.6448L201.997 81.2768H200.941V74.9168ZM209.273 74.9168H210.425V79.5488L214.325 74.9168H215.369V81.2768H214.217V76.6448L210.329 81.2768H209.273V74.9168ZM212.249 74.0888C211.657 74.0888 211.197 73.9488 210.869 73.6688C210.541 73.3808 210.373 72.9688 210.365 72.4328H211.145C211.153 72.7288 211.253 72.9688 211.445 73.1528C211.645 73.3288 211.909 73.4168 212.237 73.4168C212.565 73.4168 212.829 73.3288 213.029 73.1528C213.229 72.9688 213.333 72.7288 213.341 72.4328H214.145C214.137 72.9688 213.965 73.3808 213.629 73.6688C213.293 73.9488 212.833 74.0888 212.249 74.0888Z" fill="black"/>
<circle cx="187.246" cy="64.9671" r="3.5" fill="black"/>
<path opacity="0.2" d="M258.788 0.570952V145.16" stroke="url(#paint3_linear)" stroke-linecap="square"/>
<circle cx="259.095" cy="44.6619" r="3.5" fill="#60D9A4"/>
<defs>
<linearGradient id="paint0_linear" x1="114.105" y1="0" x2="114.105" y2="145.781" gradientUnits="userSpaceOnUse">
<stop stop-color="white" stop-opacity="0"/>
<stop offset="0.307292" stop-color="#222656"/>
<stop offset="0.604167" stop-color="#222656"/>
<stop offset="1" stop-color="white" stop-opacity="0"/>
</linearGradient>
<linearGradient id="paint1_linear" x1="42.2565" y1="1.52588e-05" x2="42.2565" y2="145.781" gradientUnits="userSpaceOnUse">
<stop stop-color="white" stop-opacity="0"/>
<stop offset="0.307292" stop-color="#222656"/>
<stop offset="0.604167" stop-color="#222656"/>
<stop offset="1" stop-color="white" stop-opacity="0"/>
</linearGradient>
<linearGradient id="paint2_linear" x1="186.441" y1="0" x2="186.441" y2="145.781" gradientUnits="userSpaceOnUse">
<stop stop-color="white" stop-opacity="0"/>
<stop offset="0.307292" stop-color="#222656"/>
<stop offset="0.604167" stop-color="#222656"/>
<stop offset="1" stop-color="white" stop-opacity="0"/>
</linearGradient>
<linearGradient id="paint3_linear" x1="258.255" y1="0" x2="258.255" y2="145.781" gradientUnits="userSpaceOnUse">
<stop stop-color="white" stop-opacity="0"/>
<stop offset="0.307292" stop-color="#222656"/>
<stop offset="0.604167" stop-color="#222656"/>
<stop offset="1" stop-color="white" stop-opacity="0"/>
</linearGradient>
</defs>
</svg>
