<svg width="302" height="147" viewBox="0 0 302 147" fill="none" xmlns="http://www.w3.org/2000/svg">
<path opacity="0.1" d="M1.07682 105.882H300.78" stroke="black" stroke-linecap="square"/>
<path opacity="0.1" d="M1.07682 82.6565H300.78" stroke="black" stroke-linecap="square"/>
<path opacity="0.1" d="M1.07682 59.4307H300.78" stroke="black" stroke-linecap="square"/>
<path opacity="0.1" d="M1.07682 35.721H300.78" stroke="black" stroke-linecap="square"/>
<path d="M26.9207 45.1817V53.5817H25.7327V46.2257H23.8367V45.1817H26.9207ZM35.4128 53.6777C34.7488 53.6777 34.1568 53.5097 33.6368 53.1737C33.1248 52.8297 32.7208 52.3337 32.4248 51.6857C32.1288 51.0377 31.9808 50.2697 31.9808 49.3817C31.9808 48.4937 32.1288 47.7257 32.4248 47.0777C32.7208 46.4297 33.1248 45.9377 33.6368 45.6017C34.1568 45.2577 34.7488 45.0857 35.4128 45.0857C36.0688 45.0857 36.6528 45.2577 37.1648 45.6017C37.6848 45.9377 38.0928 46.4297 38.3888 47.0777C38.6848 47.7257 38.8328 48.4937 38.8328 49.3817C38.8328 50.2697 38.6848 51.0377 38.3888 51.6857C38.0928 52.3337 37.6848 52.8297 37.1648 53.1737C36.6528 53.5097 36.0688 53.6777 35.4128 53.6777ZM35.4128 52.6097C36.0848 52.6097 36.6208 52.3337 37.0208 51.7817C37.4288 51.2297 37.6328 50.4297 37.6328 49.3817C37.6328 48.3337 37.4288 47.5337 37.0208 46.9817C36.6208 46.4297 36.0848 46.1537 35.4128 46.1537C34.7328 46.1537 34.1888 46.4297 33.7808 46.9817C33.3808 47.5337 33.1808 48.3337 33.1808 49.3817C33.1808 50.4297 33.3808 51.2297 33.7808 51.7817C34.1888 52.3337 34.7328 52.6097 35.4128 52.6097ZM43.4167 53.6777C42.7527 53.6777 42.1607 53.5097 41.6407 53.1737C41.1287 52.8297 40.7247 52.3337 40.4287 51.6857C40.1327 51.0377 39.9847 50.2697 39.9847 49.3817C39.9847 48.4937 40.1327 47.7257 40.4287 47.0777C40.7247 46.4297 41.1287 45.9377 41.6407 45.6017C42.1607 45.2577 42.7527 45.0857 43.4167 45.0857C44.0727 45.0857 44.6567 45.2577 45.1687 45.6017C45.6887 45.9377 46.0967 46.4297 46.3927 47.0777C46.6887 47.7257 46.8367 48.4937 46.8367 49.3817C46.8367 50.2697 46.6887 51.0377 46.3927 51.6857C46.0967 52.3337 45.6887 52.8297 45.1687 53.1737C44.6567 53.5097 44.0727 53.6777 43.4167 53.6777ZM43.4167 52.6097C44.0887 52.6097 44.6247 52.3337 45.0247 51.7817C45.4327 51.2297 45.6367 50.4297 45.6367 49.3817C45.6367 48.3337 45.4327 47.5337 45.0247 46.9817C44.6247 46.4297 44.0887 46.1537 43.4167 46.1537C42.7367 46.1537 42.1927 46.4297 41.7847 46.9817C41.3847 47.5337 41.1847 48.3337 41.1847 49.3817C41.1847 50.4297 41.3847 51.2297 41.7847 51.7817C42.1927 52.3337 42.7367 52.6097 43.4167 52.6097ZM51.4206 53.6777C50.7566 53.6777 50.1646 53.5097 49.6446 53.1737C49.1326 52.8297 48.7286 52.3337 48.4326 51.6857C48.1366 51.0377 47.9886 50.2697 47.9886 49.3817C47.9886 48.4937 48.1366 47.7257 48.4326 47.0777C48.7286 46.4297 49.1326 45.9377 49.6446 45.6017C50.1646 45.2577 50.7566 45.0857 51.4206 45.0857C52.0766 45.0857 52.6606 45.2577 53.1726 45.6017C53.6926 45.9377 54.1006 46.4297 54.3966 47.0777C54.6926 47.7257 54.8406 48.4937 54.8406 49.3817C54.8406 50.2697 54.6926 51.0377 54.3966 51.6857C54.1006 52.3337 53.6926 52.8297 53.1726 53.1737C52.6606 53.5097 52.0766 53.6777 51.4206 53.6777ZM51.4206 52.6097C52.0926 52.6097 52.6286 52.3337 53.0286 51.7817C53.4366 51.2297 53.6406 50.4297 53.6406 49.3817C53.6406 48.3337 53.4366 47.5337 53.0286 46.9817C52.6286 46.4297 52.0926 46.1537 51.4206 46.1537C50.7406 46.1537 50.1966 46.4297 49.7886 46.9817C49.3886 47.5337 49.1886 48.3337 49.1886 49.3817C49.1886 50.4297 49.3886 51.2297 49.7886 51.7817C50.1966 52.3337 50.7406 52.6097 51.4206 52.6097ZM62.3765 51.2897C62.3765 51.9217 62.1365 52.4577 61.6565 52.8977C61.1845 53.3377 60.4965 53.5937 59.5925 53.6657V55.0217H58.8245V53.6657C58.2405 53.6337 57.6845 53.5257 57.1565 53.3417C56.6365 53.1497 56.2205 52.9097 55.9085 52.6217L56.3525 51.6857C56.6405 51.9497 57.0045 52.1697 57.4445 52.3457C57.8845 52.5137 58.3445 52.6137 58.8245 52.6457V49.8617C58.2645 49.7257 57.7965 49.5777 57.4205 49.4177C57.0525 49.2577 56.7405 49.0217 56.4845 48.7097C56.2365 48.3977 56.1125 47.9897 56.1125 47.4857C56.1125 46.8537 56.3405 46.3177 56.7965 45.8777C57.2605 45.4377 57.9365 45.1817 58.8245 45.1097V43.7417H59.5925V45.0977C60.0485 45.1137 60.4885 45.1857 60.9125 45.3137C61.3445 45.4417 61.7165 45.6137 62.0285 45.8297L61.6325 46.7897C60.9845 46.3817 60.3045 46.1577 59.5925 46.1177V48.9137C60.1765 49.0577 60.6565 49.2097 61.0325 49.3697C61.4085 49.5217 61.7245 49.7537 61.9805 50.0657C62.2445 50.3697 62.3765 50.7777 62.3765 51.2897ZM57.2885 47.4377C57.2885 47.7817 57.4205 48.0497 57.6845 48.2417C57.9485 48.4337 58.3285 48.5937 58.8245 48.7217V46.1297C58.3125 46.1937 57.9285 46.3457 57.6725 46.5857C57.4165 46.8177 57.2885 47.1017 57.2885 47.4377ZM59.5925 52.6337C60.1285 52.5857 60.5285 52.4497 60.7925 52.2257C61.0645 51.9937 61.2005 51.7057 61.2005 51.3617C61.2005 51.0097 61.0605 50.7417 60.7805 50.5577C60.5085 50.3657 60.1125 50.1977 59.5925 50.0537V52.6337Z" fill="black"/>
<path opacity="0.2" d="M114.639 1.51138V146.101" stroke="url(#paint0_linear)" stroke-linecap="square"/>
<path opacity="0.2" d="M42.7896 1.51138V146.101" stroke="url(#paint1_linear)" stroke-linecap="square"/>
<circle cx="42.5484" cy="37.272" r="3.5" fill="#A142B5"/>
<path opacity="0.2" d="M186.974 1.51138V146.101" stroke="url(#paint2_linear)" stroke-linecap="square"/>
<path opacity="0.2" d="M258.788 1.51138V146.101" stroke="url(#paint3_linear)" stroke-linecap="square"/>
<path d="M105.397 78.57V81.45H104.281V79.614H97.3687L97.3567 81.45H96.2407L96.2527 78.57H96.6607C97.1887 78.538 97.5607 78.122 97.7767 77.322C97.9927 76.514 98.1247 75.378 98.1727 73.914L98.2567 71.214H104.161V78.57H105.397ZM99.2287 74.022C99.1887 75.206 99.0927 76.186 98.9407 76.962C98.7967 77.738 98.5607 78.274 98.2327 78.57H102.973V72.258H99.2887L99.2287 74.022ZM109.429 79.686C108.797 79.686 108.229 79.546 107.725 79.266C107.221 78.986 106.825 78.602 106.537 78.114C106.257 77.618 106.117 77.058 106.117 76.434C106.117 75.81 106.257 75.254 106.537 74.766C106.825 74.27 107.221 73.886 107.725 73.614C108.229 73.334 108.797 73.194 109.429 73.194C110.061 73.194 110.625 73.334 111.121 73.614C111.625 73.886 112.017 74.27 112.297 74.766C112.585 75.254 112.729 75.81 112.729 76.434C112.729 77.058 112.585 77.618 112.297 78.114C112.017 78.602 111.625 78.986 111.121 79.266C110.625 79.546 110.061 79.686 109.429 79.686ZM109.429 78.678C109.837 78.678 110.201 78.586 110.521 78.402C110.849 78.21 111.105 77.946 111.289 77.61C111.473 77.266 111.565 76.874 111.565 76.434C111.565 75.994 111.473 75.606 111.289 75.27C111.105 74.926 110.849 74.662 110.521 74.478C110.201 74.294 109.837 74.202 109.429 74.202C109.021 74.202 108.653 74.294 108.325 74.478C108.005 74.662 107.749 74.926 107.557 75.27C107.373 75.606 107.281 75.994 107.281 76.434C107.281 76.874 107.373 77.266 107.557 77.61C107.749 77.946 108.005 78.21 108.325 78.402C108.653 78.586 109.021 78.678 109.429 78.678ZM119.805 73.254V79.614H118.653V74.262H115.917L115.845 75.678C115.805 76.534 115.729 77.25 115.617 77.826C115.505 78.394 115.321 78.85 115.065 79.194C114.809 79.538 114.453 79.71 113.997 79.71C113.789 79.71 113.553 79.674 113.289 79.602L113.361 78.63C113.465 78.654 113.561 78.666 113.649 78.666C113.969 78.666 114.209 78.526 114.369 78.246C114.529 77.966 114.633 77.634 114.681 77.25C114.729 76.866 114.773 76.318 114.813 75.606L114.921 73.254H119.805ZM126.713 74.262H123.185V79.614H122.033V73.254H126.713V74.262ZM130.335 79.686C129.703 79.686 129.135 79.546 128.631 79.266C128.127 78.986 127.731 78.602 127.443 78.114C127.163 77.618 127.023 77.058 127.023 76.434C127.023 75.81 127.163 75.254 127.443 74.766C127.731 74.27 128.127 73.886 128.631 73.614C129.135 73.334 129.703 73.194 130.335 73.194C130.967 73.194 131.531 73.334 132.027 73.614C132.531 73.886 132.923 74.27 133.203 74.766C133.491 75.254 133.635 75.81 133.635 76.434C133.635 77.058 133.491 77.618 133.203 78.114C132.923 78.602 132.531 78.986 132.027 79.266C131.531 79.546 130.967 79.686 130.335 79.686ZM130.335 78.678C130.743 78.678 131.107 78.586 131.427 78.402C131.755 78.21 132.011 77.946 132.195 77.61C132.379 77.266 132.471 76.874 132.471 76.434C132.471 75.994 132.379 75.606 132.195 75.27C132.011 74.926 131.755 74.662 131.427 74.478C131.107 74.294 130.743 74.202 130.335 74.202C129.927 74.202 129.559 74.294 129.231 74.478C128.911 74.662 128.655 74.926 128.463 75.27C128.279 75.606 128.187 75.994 128.187 76.434C128.187 76.874 128.279 77.266 128.463 77.61C128.655 77.946 128.911 78.21 129.231 78.402C129.559 78.586 129.927 78.678 130.335 78.678Z" fill="black"/>
<circle cx="114.877" cy="63.3043" r="3.5" fill="#1357DD"/>
<path d="M164.035 97.412C163.195 97.412 162.435 97.228 161.755 96.86C161.083 96.484 160.555 95.972 160.171 95.324C159.787 94.668 159.595 93.932 159.595 93.116C159.595 92.3 159.787 91.568 160.171 90.92C160.555 90.264 161.087 89.752 161.767 89.384C162.447 89.008 163.207 88.82 164.047 88.82C164.703 88.82 165.303 88.932 165.847 89.156C166.391 89.372 166.855 89.696 167.239 90.128L166.459 90.884C165.827 90.22 165.039 89.888 164.095 89.888C163.471 89.888 162.907 90.028 162.403 90.308C161.899 90.588 161.503 90.976 161.215 91.472C160.935 91.96 160.795 92.508 160.795 93.116C160.795 93.724 160.935 94.276 161.215 94.772C161.503 95.26 161.899 95.644 162.403 95.924C162.907 96.204 163.471 96.344 164.095 96.344C165.031 96.344 165.819 96.008 166.459 95.336L167.239 96.092C166.855 96.524 166.387 96.852 165.835 97.076C165.291 97.3 164.691 97.412 164.035 97.412ZM172.072 90.896C172.688 90.896 173.24 91.032 173.728 91.304C174.216 91.576 174.596 91.956 174.868 92.444C175.148 92.932 175.288 93.496 175.288 94.136C175.288 94.776 175.148 95.344 174.868 95.84C174.596 96.328 174.216 96.708 173.728 96.98C173.24 97.252 172.688 97.388 172.072 97.388C171.616 97.388 171.196 97.3 170.812 97.124C170.436 96.948 170.116 96.692 169.852 96.356V99.644H168.7V90.956H169.804V91.964C170.06 91.612 170.384 91.348 170.776 91.172C171.168 90.988 171.6 90.896 172.072 90.896ZM171.976 96.38C172.384 96.38 172.748 96.288 173.068 96.104C173.396 95.912 173.652 95.648 173.836 95.312C174.028 94.968 174.124 94.576 174.124 94.136C174.124 93.696 174.028 93.308 173.836 92.972C173.652 92.628 173.396 92.364 173.068 92.18C172.748 91.996 172.384 91.904 171.976 91.904C171.576 91.904 171.212 92 170.884 92.192C170.564 92.376 170.308 92.636 170.116 92.972C169.932 93.308 169.84 93.696 169.84 94.136C169.84 94.576 169.932 94.968 170.116 95.312C170.3 95.648 170.556 95.912 170.884 96.104C171.212 96.288 171.576 96.38 171.976 96.38ZM182.71 94.172C182.71 94.26 182.702 94.376 182.686 94.52H177.526C177.598 95.08 177.842 95.532 178.258 95.876C178.682 96.212 179.206 96.38 179.83 96.38C180.59 96.38 181.202 96.124 181.666 95.612L182.302 96.356C182.014 96.692 181.654 96.948 181.222 97.124C180.798 97.3 180.322 97.388 179.794 97.388C179.122 97.388 178.526 97.252 178.006 96.98C177.486 96.7 177.082 96.312 176.794 95.816C176.514 95.32 176.374 94.76 176.374 94.136C176.374 93.52 176.51 92.964 176.782 92.468C177.062 91.972 177.442 91.588 177.922 91.316C178.41 91.036 178.958 90.896 179.566 90.896C180.174 90.896 180.714 91.036 181.186 91.316C181.666 91.588 182.038 91.972 182.302 92.468C182.574 92.964 182.71 93.532 182.71 94.172ZM179.566 91.868C179.014 91.868 178.55 92.036 178.174 92.372C177.806 92.708 177.59 93.148 177.526 93.692H181.606C181.542 93.156 181.322 92.72 180.946 92.384C180.578 92.04 180.118 91.868 179.566 91.868ZM190.86 96.308V98.792H189.78V97.316H184.464V98.792H183.372V96.308H183.708C184.116 96.284 184.396 95.996 184.548 95.444C184.7 94.892 184.804 94.112 184.86 93.104L184.956 90.956H189.888V96.308H190.86ZM185.916 93.188C185.884 93.988 185.816 94.652 185.712 95.18C185.616 95.7 185.436 96.076 185.172 96.308H188.736V91.964H185.976L185.916 93.188ZM192.361 90.956H193.513V93.656H197.137V90.956H198.289V97.316H197.137V94.652H193.513V97.316H192.361V90.956ZM200.528 90.956H201.68V95.588L205.58 90.956H206.624V97.316H205.472V92.684L201.584 97.316H200.528V90.956ZM208.861 90.956H210.013V95.588L213.913 90.956H214.957V97.316H213.805V92.684L209.917 97.316H208.861V90.956ZM211.837 90.128C211.245 90.128 210.785 89.988 210.457 89.708C210.129 89.42 209.961 89.008 209.953 88.472H210.733C210.741 88.768 210.841 89.008 211.033 89.192C211.233 89.368 211.497 89.456 211.825 89.456C212.153 89.456 212.417 89.368 212.617 89.192C212.817 89.008 212.921 88.768 212.929 88.472H213.733C213.725 89.008 213.553 89.42 213.217 89.708C212.881 89.988 212.421 90.128 211.837 90.128Z" fill="black"/>
<circle cx="186.767" cy="81.0063" r="3.5" fill="black"/>
<path d="M248.859 99.8495L245.127 106.774C244.831 107.326 244.483 107.738 244.083 108.01C243.683 108.282 243.247 108.418 242.775 108.418C242.407 108.418 242.031 108.334 241.647 108.166L241.959 107.206C242.255 107.31 242.519 107.362 242.751 107.362C243.279 107.362 243.715 107.082 244.059 106.522L244.251 106.222L240.867 99.8495H242.151L244.875 105.178L247.671 99.8495H248.859ZM252.97 104.938C253.394 105.05 253.722 105.23 253.954 105.478C254.186 105.726 254.302 106.034 254.302 106.402C254.302 106.778 254.174 107.114 253.918 107.41C253.662 107.698 253.306 107.926 252.85 108.094C252.402 108.254 251.898 108.334 251.338 108.334C250.866 108.334 250.402 108.274 249.946 108.154C249.498 108.026 249.098 107.846 248.746 107.614L249.094 106.738C249.398 106.93 249.746 107.082 250.138 107.194C250.53 107.298 250.926 107.35 251.326 107.35C251.87 107.35 252.302 107.258 252.622 107.074C252.95 106.882 253.114 106.626 253.114 106.306C253.114 106.01 252.982 105.782 252.718 105.622C252.462 105.462 252.098 105.382 251.626 105.382H250.462V104.554H251.542C251.974 104.554 252.314 104.478 252.562 104.326C252.81 104.174 252.934 103.966 252.934 103.702C252.934 103.414 252.786 103.19 252.49 103.03C252.202 102.87 251.81 102.79 251.314 102.79C250.682 102.79 250.014 102.954 249.31 103.282L248.998 102.394C249.774 102.002 250.586 101.806 251.434 101.806C251.946 101.806 252.406 101.878 252.814 102.022C253.222 102.166 253.542 102.37 253.774 102.634C254.006 102.898 254.122 103.198 254.122 103.534C254.122 103.846 254.018 104.126 253.81 104.374C253.602 104.622 253.322 104.81 252.97 104.938ZM258.525 105.562H257.205V108.25H256.053V101.89H257.205V104.578H258.549L260.613 101.89H261.849L259.437 104.95L262.017 108.25H260.661L258.525 105.562ZM263.225 101.89H264.377V106.522L268.277 101.89H269.321V108.25H268.169V103.618L264.281 108.25H263.225V101.89ZM271.557 101.89H272.709V106.522L276.609 101.89H277.653V108.25H276.501V103.618L272.613 108.25H271.557V101.89ZM274.533 101.062C273.941 101.062 273.481 100.922 273.153 100.642C272.825 100.354 272.657 99.9415 272.649 99.4055H273.429C273.437 99.7015 273.537 99.9415 273.729 100.126C273.929 100.302 274.193 100.39 274.521 100.39C274.849 100.39 275.113 100.302 275.313 100.126C275.513 99.9415 275.617 99.7015 275.625 99.4055H276.429C276.421 99.9415 276.249 100.354 275.913 100.642C275.577 100.922 275.117 101.062 274.533 101.062Z" fill="black"/>
<circle cx="258.616" cy="91.9398" r="3.5" fill="#60D9A4"/>
<defs>
<linearGradient id="paint0_linear" x1="114.106" y1="0.94043" x2="114.106" y2="146.721" gradientUnits="userSpaceOnUse">
<stop stop-color="white" stop-opacity="0"/>
<stop offset="0.307292" stop-color="#222656"/>
<stop offset="0.604167" stop-color="#222656"/>
<stop offset="1" stop-color="white" stop-opacity="0"/>
</linearGradient>
<linearGradient id="paint1_linear" x1="42.2566" y1="0.94043" x2="42.2566" y2="146.721" gradientUnits="userSpaceOnUse">
<stop stop-color="white" stop-opacity="0"/>
<stop offset="0.307292" stop-color="#222656"/>
<stop offset="0.604167" stop-color="#222656"/>
<stop offset="1" stop-color="white" stop-opacity="0"/>
</linearGradient>
<linearGradient id="paint2_linear" x1="186.441" y1="0.94043" x2="186.441" y2="146.721" gradientUnits="userSpaceOnUse">
<stop stop-color="white" stop-opacity="0"/>
<stop offset="0.307292" stop-color="#222656"/>
<stop offset="0.604167" stop-color="#222656"/>
<stop offset="1" stop-color="white" stop-opacity="0"/>
</linearGradient>
<linearGradient id="paint3_linear" x1="258.255" y1="0.94043" x2="258.255" y2="146.721" gradientUnits="userSpaceOnUse">
<stop stop-color="white" stop-opacity="0"/>
<stop offset="0.307292" stop-color="#222656"/>
<stop offset="0.604167" stop-color="#222656"/>
<stop offset="1" stop-color="white" stop-opacity="0"/>
</linearGradient>
</defs>
</svg>
