<svg width="8" height="14" viewBox="0 0 8 14" fill="none" xmlns="http://www.w3.org/2000/svg">
<path d="M7.57845 0.00291293L5.6896 0C3.56753 0 2.19616 1.35233 2.19616 3.44542V5.03399H0.297004C0.132894 5.03399 0 5.16187 0 5.3196V7.62126C0 7.77899 0.133046 7.90672 0.297004 7.90672H2.19616V13.7145C2.19616 13.8723 2.32906 14 2.49317 14H4.97103C5.13514 14 5.26803 13.8721 5.26803 13.7145V7.90672H7.48859C7.6527 7.90672 7.7856 7.77899 7.7856 7.62126L7.7865 5.3196C7.7865 5.24386 7.75514 5.17133 7.69953 5.11773C7.64391 5.06414 7.56815 5.03399 7.48935 5.03399H5.26803V3.68734C5.26803 3.04008 5.42851 2.7115 6.30573 2.7115L7.57815 2.71107C7.74211 2.71107 7.875 2.58319 7.875 2.4256V0.288381C7.875 0.130936 7.74226 0.00320423 7.57845 0.00291293Z" fill="black"/>
</svg>
