<svg width="14" height="14" viewBox="0 0 14 14" fill="none" xmlns="http://www.w3.org/2000/svg">
<path fill-rule="evenodd" clip-rule="evenodd" d="M4.375 0H9.625C12.0409 0 14 1.95913 14 4.375V9.625C14 12.0409 12.0409 14 9.625 14H4.375C1.95913 14 0 12.0409 0 9.625V4.375C0 1.95913 1.95913 0 4.375 0ZM9.625 12.6875C11.3138 12.6875 12.6875 11.3138 12.6875 9.625V4.375C12.6875 2.68625 11.3138 1.3125 9.625 1.3125H4.375C2.68625 1.3125 1.3125 2.68625 1.3125 4.375V9.625C1.3125 11.3138 2.68625 12.6875 4.375 12.6875H9.625ZM3.5 7C3.5 5.06712 5.06712 3.5 7 3.5C8.93287 3.5 10.5 5.06712 10.5 7C10.5 8.93287 8.93287 10.5 7 10.5C5.06712 10.5 3.5 8.93287 3.5 7ZM4.8125 7C4.8125 8.20575 5.79425 9.1875 7 9.1875C8.20575 9.1875 9.1875 8.20575 9.1875 7C9.1875 5.79338 8.20575 4.8125 7 4.8125C5.79425 4.8125 4.8125 5.79338 4.8125 7ZM11.6666 3.2084C11.6666 3.69165 11.2749 4.0834 10.7916 4.0834C10.3084 4.0834 9.91665 3.69165 9.91665 3.2084C9.91665 2.72516 10.3084 2.3334 10.7916 2.3334C11.2749 2.3334 11.6666 2.72516 11.6666 3.2084Z" fill="black"/>
</svg>
