<svg width="16" height="18" viewBox="0 0 16 18" fill="none" xmlns="http://www.w3.org/2000/svg">
<path d="M14.9385 8.16687C14.6625 8.16687 14.4385 7.94287 14.4385 7.66687C14.4385 5.7522 13.6932 3.95288 12.3398 2.59888C12.1445 2.40356 12.1445 2.08691 12.3398 1.8916C12.5352 1.69629 12.8518 1.69629 13.0472 1.8916C14.5892 3.4342 15.4385 5.4856 15.4385 7.66687C15.4385 7.94287 15.2145 8.16687 14.9385 8.16687Z" fill="black" stroke="black" stroke-width="0.4"/>
<path d="M1.27197 8.16675C0.995972 8.16675 0.771973 7.94275 0.771973 7.66675C0.771973 5.48547 1.62134 3.43408 3.16394 1.89209C3.35925 1.69678 3.67603 1.69678 3.87134 1.89209C4.06665 2.0874 4.06665 2.40417 3.87134 2.59949C2.51733 3.95276 1.77197 5.75208 1.77197 7.66675C1.77197 7.94275 1.54797 8.16675 1.27197 8.16675Z" fill="black" stroke="black" stroke-width="0.4"/>
<path d="M8.10547 17C6.72681 17 5.60547 15.8787 5.60547 14.5C5.60547 14.224 5.82947 14 6.10547 14C6.38147 14 6.60547 14.224 6.60547 14.5C6.60547 15.3274 7.27808 16 8.10547 16C8.93274 16 9.60547 15.3274 9.60547 14.5C9.60547 14.224 9.82947 14 10.1055 14C10.3815 14 10.6055 14.224 10.6055 14.5C10.6055 15.8787 9.48413 17 8.10547 17Z" fill="black" stroke="black" stroke-width="0.4"/>
<path d="M13.6052 15H2.60522C1.96179 15 1.43848 14.4767 1.43848 13.8334C1.43848 13.4919 1.58716 13.1687 1.84656 12.9467C2.86047 12.09 3.43848 10.8447 3.43848 9.52539V7.66663C3.43848 5.09338 5.53186 3 8.10522 3C10.6785 3 12.7718 5.09338 12.7718 7.66663V9.52539C12.7718 10.8447 13.3499 12.09 14.3572 12.942C14.6232 13.1687 14.7718 13.4919 14.7718 13.8334C14.7718 14.4767 14.2485 15 13.6052 15ZM8.10522 4C6.08313 4 4.43848 5.64465 4.43848 7.66663V9.52539C4.43848 11.1393 3.7312 12.6633 2.49854 13.7053C2.47522 13.7253 2.43848 13.7667 2.43848 13.8334C2.43848 13.924 2.51453 14 2.60522 14H13.6052C13.6958 14 13.7718 13.924 13.7718 13.8334C13.7718 13.7667 13.7352 13.7253 13.7131 13.7067C12.4791 12.6633 11.7718 11.1393 11.7718 9.52539V7.66663C11.7718 5.64465 10.1272 4 8.10522 4Z" fill="black" stroke="black" stroke-width="0.4"/>
<path d="M8.10547 4C7.82947 4 7.60547 3.776 7.60547 3.5V1.5C7.60547 1.224 7.82947 1 8.10547 1C8.38147 1 8.60547 1.224 8.60547 1.5V3.5C8.60547 3.776 8.38147 4 8.10547 4Z" fill="black" stroke="black" stroke-width="0.4"/>
</svg>
