<svg width="16" height="16" viewBox="0 0 16 16" fill="none" xmlns="http://www.w3.org/2000/svg">
<path d="M8 0C3.58261 0 0 3.58261 0 8C0 12.4174 3.58261 16 8 16C12.4174 16 16 12.4174 16 8C16 3.58261 12.4174 0 8 0ZM8 14.6087C4.34783 14.6087 1.3913 11.6522 1.3913 8C1.3913 4.34783 4.34783 1.3913 8 1.3913C11.6522 1.3913 14.6087 4.34783 14.6087 8C14.6087 11.6522 11.6522 14.6087 8 14.6087ZM10.6609 9.66958C10.9391 9.94784 10.9391 10.3826 10.6609 10.6609C10.5217 10.8 10.3478 10.8696 10.1739 10.8696C10 10.8696 9.82608 10.8 9.68695 10.6609L7.53044 8.50433C7.39131 8.3652 7.32173 8.19132 7.32173 8.01741V3.87827C7.32173 3.49566 7.63478 3.18262 8.01739 3.18262C8.39999 3.18262 8.71304 3.49566 8.71304 3.87827V7.73913L10.6609 9.66958Z" fill="black"/>
</svg>
