<svg id="Слой_1" data-name="Слой 1" xmlns="http://www.w3.org/2000/svg" viewBox="0 0 22.67 33.66">
  <defs>
    <style>
      .cls-1, .cls-2 {
        fill: #fff;
      }

      .cls-2 {
        stroke: #fff;
      }
    </style>
  </defs>
  <title>Group</title>
  <path class="cls-1" d="M11.68,11A11.34,11.34,0,1,0,23,22.32,11.34,11.34,0,0,0,11.68,11Zm0,21.54a10.21,10.21,0,1,1,10.2-10.21A10.22,10.22,0,0,1,11.68,32.53Z" transform="translate(-0.34 0)"/>
  <path class="cls-1" d="M11.68,31.06a8.74,8.74,0,1,0-8.74-8.74A8.75,8.75,0,0,0,11.68,31.06Zm0-16.47a7.74,7.74,0,1,1-7.74,7.73A7.74,7.74,0,0,1,11.68,14.59Z" transform="translate(-0.34 0)"/>
  <path class="cls-1" d="M15.72,7.87a.49.49,0,0,0,.7.08l.62-.5v3.17a.49.49,0,0,0,.5.49.5.5,0,0,0,.5-.49V7.45l.62.5a.49.49,0,0,0,.7-.08.5.5,0,0,0-.08-.7L17.85,6a.51.51,0,0,0-.62,0L15.79,7.17A.49.49,0,0,0,15.72,7.87Z" transform="translate(-0.34 0)"/>
  <path class="cls-1" d="M3.85,7.87a.49.49,0,0,0,.7.08l.62-.5v3.17a.49.49,0,0,0,.5.49.5.5,0,0,0,.5-.49V7.45l.62.5a.49.49,0,0,0,.7-.08.5.5,0,0,0-.08-.7L6,6a.51.51,0,0,0-.62,0L3.92,7.17A.49.49,0,0,0,3.85,7.87Z" transform="translate(-0.34 0)"/>
  <path class="cls-2" d="M5,31.31Z" transform="translate(-0.34 0)"/>
  <path class="cls-1" d="M12.62,2.11,11.7,1.2,9.09,3.78h.47a.89.89,0,0,1,.9.89v4.8a.5.5,0,0,1-.5.5.5.5,0,0,1-.5-.5V4.77H7.88a.49.49,0,0,1-.46-.3.49.49,0,0,1,.11-.55L11.35.14a.5.5,0,0,1,.7,0L13.32,1.4a.5.5,0,0,1,0,.7A.49.49,0,0,1,12.62,2.11Z" transform="translate(-0.34 0)"/>
  <path class="cls-1" d="M10.76,2.11l.92-.91,2.6,2.58h-.47a.89.89,0,0,0-.89.89v4.8a.5.5,0,1,0,1,0V4.77h1.58a.48.48,0,0,0,.46-.3.49.49,0,0,0-.11-.55L12,.14a.51.51,0,0,0-.71,0L10.06,1.4a.49.49,0,0,0,0,.7A.5.5,0,0,0,10.76,2.11Z" transform="translate(-0.34 0)"/>
  <path class="cls-1" d="M12.24,17.68H10.88V19a2,2,0,1,0,0,4.08h1.36a.68.68,0,0,1,0,1.36h-2V23.8H8.84v2h2V27.2h1.36V25.84a2,2,0,0,0,0-4.08H10.88a.68.68,0,0,1,0-1.36h2v.68h1.36V19h-2Z" transform="translate(-0.34 0)"/>
</svg>
