<svg width="24" height="34" viewBox="0 0 24 34" fill="none" xmlns="http://www.w3.org/2000/svg">
<path d="M16.7396 3.97959V4.47959H17.2396H23.3957C23.3984 4.47959 23.3998 4.48006 23.4007 4.48044C23.402 4.48097 23.4036 4.48195 23.4051 4.48352C23.4067 4.48508 23.4077 4.48667 23.4082 4.4879C23.4086 4.4888 23.409 4.49018 23.409 4.49298V33.4866C23.409 33.4876 23.409 33.4884 23.4089 33.4891C23.4087 33.4903 23.4084 33.4911 23.4082 33.4917C23.4077 33.493 23.4067 33.4945 23.4051 33.4961C23.4045 33.4967 23.4039 33.4973 23.4032 33.4977C23.4023 33.4984 23.4015 33.4988 23.4008 33.4991C23.3999 33.4995 23.3985 33.5 23.3957 33.5H0.513387C0.51058 33.5 0.509182 33.4995 0.508275 33.4991C0.507037 33.4986 0.505455 33.4977 0.503897 33.4961C0.502339 33.4945 0.501374 33.493 0.500853 33.4917C0.500472 33.4908 0.5 33.4894 0.5 33.4866V10.0199C0.504455 10.02 0.508918 10.02 0.513387 10.02C0.517856 10.02 0.522319 10.02 0.526774 10.0199V32.9733V33.4733H1.02677H22.8822H23.3822V32.9733V5.00637V4.50637H22.8822H17.2395H16.7395V5.00637V6.62475C16.7395 6.62757 16.7391 6.62897 16.7387 6.62987C16.7382 6.6311 16.7372 6.63268 16.7356 6.63424C16.7341 6.63579 16.7325 6.63676 16.7313 6.63729C16.7303 6.63767 16.729 6.63814 16.7261 6.63814H6.82271C6.81991 6.63814 6.81851 6.63767 6.8176 6.63729C6.81636 6.63676 6.81478 6.63579 6.81322 6.63424C6.81167 6.63268 6.8107 6.6311 6.81018 6.62987C6.8098 6.62897 6.80933 6.62757 6.80933 6.62475V5.00637V4.50637H6.30933H1.02677H0.526774V5.00637V7.92564C0.522319 7.92559 0.517856 7.92556 0.513387 7.92556C0.508918 7.92556 0.504455 7.92559 0.5 7.92564V4.49298C0.5 4.49016 0.500472 4.48877 0.500852 4.48787C0.501374 4.48663 0.50234 4.48506 0.503898 4.4835C0.505456 4.48194 0.507038 4.48097 0.508276 4.48045C0.509183 4.48006 0.510581 4.47959 0.513387 4.47959H6.30939H6.80939V3.97959V1.93475C6.80939 1.93193 6.80986 1.93053 6.81024 1.92963C6.81077 1.9284 6.81173 1.92682 6.81329 1.92526C6.81485 1.92371 6.81643 1.92274 6.81767 1.92221C6.81857 1.92183 6.81997 1.92136 6.82278 1.92136H8.96418H9.46418V1.42136V0.513387C9.46418 0.51057 9.46465 0.509173 9.46503 0.508274C9.46555 0.507041 9.46652 0.505463 9.46808 0.503905C9.46964 0.502347 9.47122 0.501378 9.47246 0.500854C9.47336 0.50047 9.47476 0.5 9.47757 0.5H13.6887C13.6915 0.5 13.6929 0.50047 13.6938 0.500854C13.695 0.501377 13.6966 0.502346 13.6981 0.503905C13.6997 0.505462 13.7007 0.507041 13.7012 0.508273C13.7016 0.509173 13.702 0.51057 13.702 0.513387V1.42136V1.92136H14.202H16.7262C16.729 1.92136 16.7304 1.92183 16.7313 1.92221C16.7326 1.92274 16.7341 1.92371 16.7357 1.92526C16.7373 1.92682 16.7382 1.9284 16.7387 1.92963C16.7391 1.93053 16.7396 1.93193 16.7396 1.93475V3.97959ZM0.526774 8.93895V9.00661C0.526774 9.00943 0.526302 9.01083 0.525922 9.01173C0.5254 9.01296 0.524434 9.01454 0.522876 9.0161C0.521318 9.01765 0.519736 9.01862 0.518497 9.01915C0.517591 9.01953 0.516193 9.02 0.513387 9.02C0.510581 9.02 0.509184 9.01953 0.508277 9.01915C0.507038 9.01862 0.505456 9.01765 0.503898 9.0161C0.50234 9.01454 0.501374 9.01296 0.500853 9.01173C0.500472 9.01083 0.5 9.00943 0.5 9.00661V8.93895C0.5 8.93613 0.500472 8.93473 0.500853 8.93383C0.501374 8.9326 0.50234 8.93102 0.503898 8.92946C0.505457 8.9279 0.507038 8.92694 0.508277 8.92641C0.509184 8.92603 0.510581 8.92556 0.513387 8.92556C0.516193 8.92556 0.51759 8.92603 0.518497 8.92641C0.519736 8.92694 0.521317 8.9279 0.522876 8.92946C0.524434 8.93102 0.5254 8.9326 0.525921 8.93383C0.526302 8.93473 0.526774 8.93613 0.526774 8.93895ZM9.99096 0.526773H9.49096V1.02677V1.42136V1.92136H9.99096H13.1753H13.6753V1.42136V1.02677V0.526773H13.1753H9.99096ZM16.2128 6.61137H16.7128V6.11137V2.44813V1.94813H16.2128H13.6887H9.47757H7.33623H6.83623V2.44813V6.11137V6.61137H7.33623H16.2128Z" fill="white" stroke="white"/>
<path d="M8.83614 11.6519H19.9065C19.9092 11.6519 19.9106 11.6523 19.9115 11.6527C19.9128 11.6532 19.9144 11.6542 19.9159 11.6558C19.9175 11.6573 19.9185 11.6589 19.919 11.6602C19.9194 11.6611 19.9198 11.6624 19.9198 11.6652C19.9198 11.6681 19.9194 11.6695 19.919 11.6704C19.9185 11.6716 19.9175 11.6732 19.916 11.6747C19.9144 11.6763 19.9128 11.6773 19.9116 11.6778C19.9107 11.6782 19.9093 11.6786 19.9065 11.6786H8.83614C8.83333 11.6786 8.83194 11.6782 8.83103 11.6778C8.82979 11.6773 8.82821 11.6763 8.82665 11.6747C8.82509 11.6732 8.82413 11.6716 8.82361 11.6704C8.82323 11.6695 8.82275 11.6681 8.82275 11.6652C8.82275 11.6624 8.82323 11.661 8.82361 11.6601C8.82413 11.6589 8.82509 11.6573 8.82665 11.6558C8.82821 11.6542 8.82979 11.6532 8.83103 11.6527C8.83194 11.6523 8.83333 11.6519 8.83614 11.6519Z" fill="white" stroke="white"/>
<path d="M8.83614 17.2847H19.9065C19.9092 17.2847 19.9106 17.2851 19.9115 17.2855C19.9128 17.286 19.9144 17.287 19.9159 17.2886C19.9175 17.2902 19.9185 17.2917 19.919 17.293C19.9194 17.2939 19.9198 17.2953 19.9198 17.2981C19.9198 17.3009 19.9194 17.3023 19.919 17.3032C19.9185 17.3044 19.9175 17.306 19.916 17.3075C19.9144 17.3091 19.9128 17.3101 19.9116 17.3106C19.9107 17.311 19.9093 17.3114 19.9065 17.3114H8.83614C8.83333 17.3114 8.83194 17.311 8.83103 17.3106C8.82979 17.3101 8.82821 17.3091 8.82665 17.3075C8.82509 17.306 8.82413 17.3044 8.82361 17.3032C8.82323 17.3023 8.82275 17.3009 8.82275 17.2981C8.82275 17.2952 8.82323 17.2938 8.82361 17.2929C8.82413 17.2917 8.82509 17.2901 8.82665 17.2886C8.82821 17.287 8.82979 17.286 8.83103 17.2855C8.83194 17.2851 8.83334 17.2847 8.83614 17.2847Z" fill="white" stroke="white"/>
<path d="M8.83614 22.9175H19.9065C19.9092 22.9175 19.9106 22.9179 19.9115 22.9183C19.9128 22.9189 19.9144 22.9198 19.9159 22.9214C19.9175 22.923 19.9185 22.9246 19.919 22.9258C19.9194 22.9267 19.9198 22.9281 19.9198 22.9309C19.9198 22.9337 19.9194 22.9351 19.919 22.936C19.9185 22.9372 19.9175 22.9388 19.916 22.9403C19.9144 22.9419 19.9128 22.9429 19.9116 22.9434C19.9107 22.9438 19.9093 22.9443 19.9065 22.9443H8.83614C8.83333 22.9443 8.83194 22.9438 8.83103 22.9434C8.82979 22.9429 8.82821 22.9419 8.82665 22.9403C8.82509 22.9388 8.82413 22.9372 8.82361 22.936C8.82323 22.9351 8.82275 22.9337 8.82275 22.9309C8.82275 22.928 8.82323 22.9267 8.82361 22.9258C8.82413 22.9245 8.82509 22.9229 8.82665 22.9214C8.82821 22.9198 8.82979 22.9189 8.83103 22.9183C8.83194 22.918 8.83333 22.9175 8.83614 22.9175Z" fill="white" stroke="white"/>
<path d="M8.83614 28.5503H19.9065C19.9092 28.5503 19.9106 28.5508 19.9115 28.5511C19.9128 28.5517 19.9144 28.5526 19.9159 28.5542C19.9175 28.5558 19.9185 28.5574 19.919 28.5586C19.9194 28.5595 19.9198 28.5609 19.9198 28.5637C19.9198 28.5665 19.9194 28.5679 19.919 28.5688C19.9185 28.57 19.9175 28.5716 19.916 28.5732C19.9144 28.5747 19.9128 28.5757 19.9116 28.5762C19.9107 28.5766 19.9093 28.5771 19.9065 28.5771H8.83614C8.83333 28.5771 8.83194 28.5766 8.83103 28.5762C8.82979 28.5757 8.82821 28.5747 8.82665 28.5732C8.82509 28.5716 8.82413 28.57 8.82361 28.5688C8.82323 28.5679 8.82275 28.5665 8.82275 28.5637C8.82275 28.5609 8.82323 28.5595 8.82361 28.5586C8.82413 28.5573 8.82509 28.5558 8.82665 28.5542C8.82821 28.5526 8.82979 28.5517 8.83103 28.5511C8.83194 28.5508 8.83333 28.5503 8.83614 28.5503Z" fill="white" stroke="white"/>
<path d="M6.19265 13.1325H6.69265V12.6325V10.8928V10.3928H6.19265H4.38175H3.88175V10.8928V12.6325V13.1325H4.38175H6.19265ZM3.86837 10.2949H6.70604C6.70884 10.2949 6.71024 10.2954 6.71114 10.2958C6.71238 10.2963 6.71396 10.2973 6.71552 10.2988C6.71708 10.3004 6.71805 10.302 6.71857 10.3032C6.71895 10.3041 6.71942 10.3055 6.71942 10.3083V10.3794V13.1459V13.217C6.71942 13.2198 6.71895 13.2212 6.71857 13.2221C6.71805 13.2233 6.71708 13.2249 6.71552 13.2265C6.71397 13.228 6.71238 13.229 6.71115 13.2295C6.71024 13.2299 6.70884 13.2304 6.70604 13.2304H3.86837C3.86556 13.2304 3.86416 13.2299 3.86326 13.2295C3.86202 13.229 3.86044 13.228 3.85888 13.2265C3.85732 13.2249 3.85635 13.2233 3.85583 13.2221C3.85545 13.2212 3.85498 13.2198 3.85498 13.217V13.1459V10.3794V10.3083C3.85498 10.3055 3.85545 10.3041 3.85583 10.3032C3.85635 10.302 3.85732 10.3004 3.85888 10.2988C3.86044 10.2973 3.86202 10.2963 3.86326 10.2958C3.86416 10.2954 3.86556 10.2949 3.86837 10.2949Z" fill="white" stroke="white"/>
<path d="M6.19265 18.8884H6.69265V18.3884V16.5776V16.0776H6.19265H4.38175H3.88175V16.5776V18.3884V18.8884H4.38175H6.19265ZM3.86837 16.0508H6.70604C6.70882 16.0508 6.71021 16.0512 6.71111 16.0516C6.71235 16.0522 6.71394 16.0531 6.71551 16.0547C6.71708 16.0563 6.71805 16.0579 6.71857 16.0591C6.71895 16.06 6.71942 16.0614 6.71942 16.0642V18.9018C6.71942 18.9046 6.71895 18.906 6.71857 18.9069C6.71805 18.9081 6.71708 18.9097 6.71552 18.9113C6.71396 18.9128 6.71238 18.9138 6.71114 18.9143C6.71024 18.9147 6.70884 18.9152 6.70604 18.9152H3.86837C3.86556 18.9152 3.86416 18.9147 3.86326 18.9143C3.86202 18.9138 3.86044 18.9128 3.85888 18.9113C3.85732 18.9097 3.85635 18.9081 3.85583 18.9069C3.85545 18.906 3.85498 18.9046 3.85498 18.9018V16.0642C3.85498 16.0614 3.85545 16.06 3.85583 16.0591C3.85635 16.0578 3.85732 16.0562 3.85888 16.0547C3.86044 16.0531 3.86202 16.0522 3.86326 16.0516C3.86416 16.0513 3.86556 16.0508 3.86837 16.0508Z" fill="white" stroke="white"/>
<path d="M6.19265 24.5027H6.69265V24.0027V22.1918V21.6918H6.19265H4.38175H3.88175V22.1918V24.0027V24.5027H4.38175H6.19265ZM3.86837 21.665H6.70604C6.70884 21.665 6.71024 21.6655 6.71114 21.6659C6.71238 21.6664 6.71396 21.6674 6.71552 21.6689C6.71708 21.6705 6.71805 21.6721 6.71857 21.6733C6.71895 21.6742 6.71942 21.6756 6.71942 21.6784V24.5161C6.71942 24.5189 6.71895 24.5203 6.71857 24.5212C6.71805 24.5224 6.71708 24.524 6.71552 24.5256C6.71397 24.5271 6.71238 24.5281 6.71115 24.5286C6.71024 24.529 6.70884 24.5295 6.70604 24.5295H3.86837C3.86556 24.5295 3.86416 24.529 3.86326 24.5286C3.86202 24.5281 3.86044 24.5271 3.85888 24.5256C3.85732 24.524 3.85635 24.5224 3.85583 24.5212C3.85545 24.5203 3.85498 24.5189 3.85498 24.5161V21.6784C3.85498 21.6756 3.85545 21.6742 3.85583 21.6733C3.85635 21.6721 3.85732 21.6705 3.85888 21.6689C3.86044 21.6674 3.86202 21.6664 3.86326 21.6659C3.86416 21.6655 3.86556 21.665 3.86837 21.665Z" fill="white" stroke="white"/>
<path d="M6.19265 30.1872H6.69265V29.6872V27.8764V27.3764H6.19265H4.38175H3.88175V27.8764V29.6872V30.1872H4.38175H6.19265ZM3.86837 27.3496H6.70604C6.70882 27.3496 6.71021 27.3501 6.71111 27.3505C6.71235 27.351 6.71394 27.352 6.71551 27.3535C6.71708 27.3551 6.71805 27.3567 6.71857 27.3579C6.71895 27.3588 6.71942 27.3602 6.71942 27.363V30.2006C6.71942 30.2034 6.71895 30.2048 6.71857 30.2057C6.71805 30.2069 6.71708 30.2085 6.71552 30.2101C6.71397 30.2116 6.71238 30.2126 6.71115 30.2131C6.71024 30.2135 6.70884 30.214 6.70604 30.214H3.86837C3.86556 30.214 3.86416 30.2135 3.86326 30.2131C3.86202 30.2126 3.86044 30.2116 3.85888 30.2101C3.85732 30.2085 3.85635 30.2069 3.85583 30.2057C3.85545 30.2048 3.85498 30.2034 3.85498 30.2006V27.363C3.85498 27.3602 3.85545 27.3588 3.85583 27.3579C3.85635 27.3566 3.85732 27.3551 3.85888 27.3535C3.86044 27.352 3.86202 27.351 3.86326 27.3505C3.86416 27.3501 3.86556 27.3496 3.86837 27.3496Z" fill="white" stroke="white"/>
</svg>
