<svg width="204" height="24" viewBox="0 0 204 24" fill="none" xmlns="http://www.w3.org/2000/svg">
<path d="M30.72 12.192C31.4773 12.3733 32.048 12.6987 32.432 13.168C32.8267 13.6267 33.024 14.2187 33.024 14.944C33.024 15.9147 32.6667 16.6667 31.952 17.2C31.248 17.7333 30.2187 18 28.864 18H23.744V6.8H28.56C29.7867 6.8 30.7413 7.05067 31.424 7.552C32.1173 8.04267 32.464 8.752 32.464 9.68C32.464 10.288 32.3093 10.8053 32 11.232C31.7013 11.6587 31.2747 11.9787 30.72 12.192ZM25.328 11.728H28.448C29.2267 11.728 29.8187 11.5733 30.224 11.264C30.64 10.9547 30.848 10.5013 30.848 9.904C30.848 9.30667 30.64 8.85333 30.224 8.544C29.808 8.224 29.216 8.064 28.448 8.064H25.328V11.728ZM28.832 16.736C30.5493 16.736 31.408 16.096 31.408 14.816C31.408 14.176 31.1893 13.7067 30.752 13.408C30.3253 13.0987 29.6853 12.944 28.832 12.944H25.328V16.736H28.832ZM39.2651 12.4C40.3318 12.4107 41.1478 12.656 41.7131 13.136C42.2785 13.616 42.5611 14.2933 42.5611 15.168C42.5611 16.0853 42.2518 16.7947 41.6331 17.296C41.0251 17.7867 40.1505 18.0267 39.0091 18.016L35.4411 18V9.52H36.9771V12.384L39.2651 12.4ZM43.8251 9.52H45.3611V18H43.8251V9.52ZM38.8971 16.848C39.5905 16.8587 40.1131 16.72 40.4651 16.432C40.8278 16.144 41.0091 15.7173 41.0091 15.152C41.0091 14.5973 40.8331 14.192 40.4811 13.936C40.1291 13.68 39.6011 13.5467 38.8971 13.536L36.9771 13.504V16.832L38.8971 16.848ZM52.6674 9.808C53.4567 9.808 54.1607 9.984 54.7794 10.336C55.398 10.688 55.878 11.1787 56.2194 11.808C56.5714 12.4267 56.7474 13.136 56.7474 13.936C56.7474 14.7573 56.5607 15.488 56.1874 16.128C55.8247 16.7573 55.3074 17.248 54.6354 17.6C53.974 17.952 53.2167 18.128 52.3634 18.128C50.9234 18.128 49.8087 17.6373 49.0194 16.656C48.2407 15.664 47.8514 14.272 47.8514 12.48C47.8514 10.7413 48.2087 9.38133 48.9234 8.4C49.638 7.408 50.7314 6.752 52.2034 6.432L56.0754 5.568L56.2994 6.976L52.7314 7.744C51.622 7.98933 50.7954 8.40533 50.2514 8.992C49.7074 9.57867 49.398 10.4213 49.3234 11.52C49.686 10.976 50.1554 10.5547 50.7314 10.256C51.3074 9.95733 51.9527 9.808 52.6674 9.808ZM52.3954 16.848C52.9394 16.848 53.4194 16.7253 53.8354 16.48C54.262 16.2347 54.5927 15.8987 54.8274 15.472C55.062 15.0347 55.1794 14.5387 55.1794 13.984C55.1794 13.1413 54.9234 12.464 54.4114 11.952C53.8994 11.44 53.2274 11.184 52.3954 11.184C51.5634 11.184 50.886 11.44 50.3634 11.952C49.8514 12.464 49.5954 13.1413 49.5954 13.984C49.5954 14.5387 49.7127 15.0347 49.9474 15.472C50.1927 15.8987 50.5287 16.2347 50.9554 16.48C51.382 16.7253 51.862 16.848 52.3954 16.848ZM62.5731 18.096C61.7305 18.096 60.9731 17.9093 60.3011 17.536C59.6291 17.1627 59.1011 16.6507 58.7171 16C58.3438 15.3387 58.1571 14.592 58.1571 13.76C58.1571 12.928 58.3438 12.1867 58.7171 11.536C59.1011 10.8747 59.6291 10.3627 60.3011 10C60.9731 9.62667 61.7305 9.44 62.5731 9.44C63.4158 9.44 64.1678 9.62667 64.8291 10C65.5011 10.3627 66.0238 10.8747 66.3971 11.536C66.7811 12.1867 66.9731 12.928 66.9731 13.76C66.9731 14.592 66.7811 15.3387 66.3971 16C66.0238 16.6507 65.5011 17.1627 64.8291 17.536C64.1678 17.9093 63.4158 18.096 62.5731 18.096ZM62.5731 16.752C63.1171 16.752 63.6025 16.6293 64.0291 16.384C64.4665 16.128 64.8078 15.776 65.0531 15.328C65.2985 14.8693 65.4211 14.3467 65.4211 13.76C65.4211 13.1733 65.2985 12.656 65.0531 12.208C64.8078 11.7493 64.4665 11.3973 64.0291 11.152C63.6025 10.9067 63.1171 10.784 62.5731 10.784C62.0291 10.784 61.5385 10.9067 61.1011 11.152C60.6745 11.3973 60.3331 11.7493 60.0771 12.208C59.8318 12.656 59.7091 13.1733 59.7091 13.76C59.7091 14.3467 59.8318 14.8693 60.0771 15.328C60.3331 15.776 60.6745 16.128 61.1011 16.384C61.5385 16.6293 62.0291 16.752 62.5731 16.752ZM73.6871 9.44C74.5085 9.44 75.2445 9.62133 75.8951 9.984C76.5458 10.3467 77.0525 10.8533 77.4151 11.504C77.7885 12.1547 77.9751 12.9067 77.9751 13.76C77.9751 14.6133 77.7885 15.3707 77.4151 16.032C77.0525 16.6827 76.5458 17.1893 75.8951 17.552C75.2445 17.9147 74.5085 18.096 73.6871 18.096C73.0791 18.096 72.5191 17.9787 72.0071 17.744C71.5058 17.5093 71.0791 17.168 70.7271 16.72V21.104H69.1911V9.52H70.6631V10.864C71.0045 10.3947 71.4365 10.0427 71.9591 9.808C72.4818 9.56267 73.0578 9.44 73.6871 9.44ZM73.5591 16.752C74.1031 16.752 74.5885 16.6293 75.0151 16.384C75.4525 16.128 75.7938 15.776 76.0391 15.328C76.2951 14.8693 76.4231 14.3467 76.4231 13.76C76.4231 13.1733 76.2951 12.656 76.0391 12.208C75.7938 11.7493 75.4525 11.3973 75.0151 11.152C74.5885 10.9067 74.1031 10.784 73.5591 10.784C73.0258 10.784 72.5405 10.912 72.1031 11.168C71.6765 11.4133 71.3351 11.76 71.0791 12.208C70.8338 12.656 70.7111 13.1733 70.7111 13.76C70.7111 14.3467 70.8338 14.8693 71.0791 15.328C71.3245 15.776 71.6658 16.128 72.1031 16.384C72.5405 16.6293 73.0258 16.752 73.5591 16.752ZM84.5036 9.52H86.0396V15.696L91.2396 9.52H92.6316V18H91.0956V11.824L85.9116 18H84.5036V9.52ZM95.613 9.52H97.149V13.12H101.981V9.52H103.517V18H101.981V14.448H97.149V18H95.613V9.52ZM110.2 18.096C109.336 18.096 108.562 17.9093 107.88 17.536C107.208 17.1627 106.68 16.6507 106.296 16C105.912 15.3387 105.72 14.592 105.72 13.76C105.72 12.928 105.912 12.1867 106.296 11.536C106.68 10.8747 107.208 10.3627 107.88 10C108.562 9.62667 109.336 9.44 110.2 9.44C110.968 9.44 111.65 9.59467 112.248 9.904C112.856 10.2133 113.325 10.6613 113.656 11.248L112.488 12C112.221 11.5947 111.89 11.2907 111.496 11.088C111.101 10.8853 110.664 10.784 110.184 10.784C109.629 10.784 109.128 10.9067 108.68 11.152C108.242 11.3973 107.896 11.7493 107.64 12.208C107.394 12.656 107.272 13.1733 107.272 13.76C107.272 14.3573 107.394 14.8853 107.64 15.344C107.896 15.792 108.242 16.1387 108.68 16.384C109.128 16.6293 109.629 16.752 110.184 16.752C110.664 16.752 111.101 16.6507 111.496 16.448C111.89 16.2453 112.221 15.9413 112.488 15.536L113.656 16.272C113.325 16.8587 112.856 17.312 112.248 17.632C111.65 17.9413 110.968 18.096 110.2 18.096ZM121.855 10.864H118.751V18H117.215V10.864H114.111V9.52H121.855V10.864ZM127.922 9.44C128.743 9.44 129.479 9.62133 130.13 9.984C130.78 10.3467 131.287 10.8533 131.65 11.504C132.023 12.1547 132.21 12.9067 132.21 13.76C132.21 14.6133 132.023 15.3707 131.65 16.032C131.287 16.6827 130.78 17.1893 130.13 17.552C129.479 17.9147 128.743 18.096 127.922 18.096C127.314 18.096 126.754 17.9787 126.242 17.744C125.74 17.5093 125.314 17.168 124.962 16.72V21.104H123.426V9.52H124.898V10.864C125.239 10.3947 125.671 10.0427 126.194 9.808C126.716 9.56267 127.292 9.44 127.922 9.44ZM127.794 16.752C128.338 16.752 128.823 16.6293 129.25 16.384C129.687 16.128 130.028 15.776 130.274 15.328C130.53 14.8693 130.658 14.3467 130.658 13.76C130.658 13.1733 130.53 12.656 130.274 12.208C130.028 11.7493 129.687 11.3973 129.25 11.152C128.823 10.9067 128.338 10.784 127.794 10.784C127.26 10.784 126.775 10.912 126.338 11.168C125.911 11.4133 125.57 11.76 125.314 12.208C125.068 12.656 124.946 13.1733 124.946 13.76C124.946 14.3467 125.068 14.8693 125.314 15.328C125.559 15.776 125.9 16.128 126.338 16.384C126.775 16.6293 127.26 16.752 127.794 16.752ZM141.775 9.52L137.663 18.848C137.3 19.712 136.873 20.32 136.383 20.672C135.903 21.024 135.321 21.2 134.639 21.2C134.223 21.2 133.817 21.1307 133.423 20.992C133.039 20.864 132.719 20.672 132.463 20.416L133.119 19.264C133.556 19.68 134.063 19.888 134.639 19.888C135.012 19.888 135.321 19.7867 135.567 19.584C135.823 19.392 136.052 19.056 136.255 18.576L136.527 17.984L132.783 9.52H134.383L137.343 16.304L140.271 9.52H141.775ZM153.123 9.52V18H151.731V11.808L148.563 17.04H147.891L144.755 11.792V18H143.347V9.52H144.931L148.259 15.248L151.683 9.52H153.123ZM163.777 13.808C163.777 13.9253 163.766 14.08 163.745 14.272H156.865C156.961 15.0187 157.286 15.6213 157.841 16.08C158.406 16.528 159.105 16.752 159.937 16.752C160.95 16.752 161.766 16.4107 162.385 15.728L163.233 16.72C162.849 17.168 162.369 17.5093 161.793 17.744C161.228 17.9787 160.593 18.096 159.889 18.096C158.993 18.096 158.198 17.9147 157.505 17.552C156.812 17.1787 156.273 16.6613 155.889 16C155.516 15.3387 155.329 14.592 155.329 13.76C155.329 12.9387 155.51 12.1973 155.873 11.536C156.246 10.8747 156.753 10.3627 157.393 10C158.044 9.62667 158.774 9.44 159.585 9.44C160.396 9.44 161.116 9.62667 161.745 10C162.385 10.3627 162.881 10.8747 163.233 11.536C163.596 12.1973 163.777 12.9547 163.777 13.808ZM159.585 10.736C158.849 10.736 158.23 10.96 157.729 11.408C157.238 11.856 156.95 12.4427 156.865 13.168H162.305C162.22 12.4533 161.926 11.872 161.425 11.424C160.934 10.9653 160.321 10.736 159.585 10.736ZM166.16 9.52H167.696V13.12H172.528V9.52H174.064V18H172.528V14.448H167.696V18H166.16V9.52ZM183.371 10.864H180.266V18H178.731V10.864H175.627V9.52H183.371V10.864ZM188.198 18.096C187.355 18.096 186.598 17.9093 185.926 17.536C185.254 17.1627 184.726 16.6507 184.342 16C183.969 15.3387 183.782 14.592 183.782 13.76C183.782 12.928 183.969 12.1867 184.342 11.536C184.726 10.8747 185.254 10.3627 185.926 10C186.598 9.62667 187.355 9.44 188.198 9.44C189.041 9.44 189.793 9.62667 190.454 10C191.126 10.3627 191.649 10.8747 192.022 11.536C192.406 12.1867 192.598 12.928 192.598 13.76C192.598 14.592 192.406 15.3387 192.022 16C191.649 16.6507 191.126 17.1627 190.454 17.536C189.793 17.9093 189.041 18.096 188.198 18.096ZM188.198 16.752C188.742 16.752 189.227 16.6293 189.654 16.384C190.091 16.128 190.433 15.776 190.678 15.328C190.923 14.8693 191.046 14.3467 191.046 13.76C191.046 13.1733 190.923 12.656 190.678 12.208C190.433 11.7493 190.091 11.3973 189.654 11.152C189.227 10.9067 188.742 10.784 188.198 10.784C187.654 10.784 187.163 10.9067 186.726 11.152C186.299 11.3973 185.958 11.7493 185.702 12.208C185.457 12.656 185.334 13.1733 185.334 13.76C185.334 14.3467 185.457 14.8693 185.702 15.328C185.958 15.776 186.299 16.128 186.726 16.384C187.163 16.6293 187.654 16.752 188.198 16.752ZM200.592 13.6C201.691 13.8773 202.24 14.5653 202.24 15.664C202.24 16.4107 201.957 16.9867 201.392 17.392C200.837 17.7973 200.005 18 198.896 18H194.816V9.52H198.752C199.755 9.52 200.539 9.712 201.104 10.096C201.669 10.4693 201.952 11.0027 201.952 11.696C201.952 12.144 201.829 12.5333 201.584 12.864C201.349 13.184 201.019 13.4293 200.592 13.6ZM196.32 13.168H198.624C199.211 13.168 199.653 13.0613 199.952 12.848C200.261 12.6347 200.416 12.3253 200.416 11.92C200.416 11.1093 199.819 10.704 198.624 10.704H196.32V13.168ZM198.784 16.816C199.424 16.816 199.904 16.7147 200.224 16.512C200.544 16.3093 200.704 15.9947 200.704 15.568C200.704 15.1307 200.555 14.8053 200.256 14.592C199.968 14.3787 199.509 14.272 198.88 14.272H196.32V16.816H198.784Z" fill="black"/>
<ellipse cx="6" cy="12" rx="6" ry="6" fill="#60D9A4"/>
</svg>
