<svg width="126" height="24" viewBox="0 0 126 24" fill="none" xmlns="http://www.w3.org/2000/svg">
<path d="M79.853 12.0053C79.853 11.6064 79.5244 11.283 79.1191 11.283C78.7138 11.283 78.3853 11.6064 78.3853 12.0053C78.3853 12.4042 78.7138 12.7276 79.1191 12.7276C79.5244 12.7276 79.853 12.4042 79.853 12.0053Z" fill="#5288F4"/>
<path d="M77.1045 12.0053C77.1045 11.6064 76.776 11.283 76.3707 11.283C75.9654 11.283 75.6368 11.6064 75.6368 12.0053C75.6368 12.4042 75.9654 12.7276 76.3707 12.7276C76.776 12.7276 77.1045 12.4042 77.1045 12.0053Z" fill="#5288F4"/>
<path d="M74.3561 12.0053C74.3561 11.6064 74.0276 11.283 73.6223 11.283C73.217 11.283 72.8884 11.6064 72.8884 12.0053C72.8884 12.4042 73.217 12.7276 73.6223 12.7276C74.0276 12.7276 74.3561 12.4042 74.3561 12.0053Z" fill="#5288F4"/>
<path d="M68.8592 12.0053C68.8592 11.6064 68.5307 11.283 68.1254 11.283C67.7201 11.283 67.3915 11.6064 67.3915 12.0053C67.3915 12.4042 67.7201 12.7276 68.1254 12.7276C68.5307 12.7276 68.8592 12.4042 68.8592 12.0053Z" fill="#5288F4"/>
<path d="M71.6077 12.0053C71.6077 11.6064 71.2791 11.283 70.8738 11.283C70.4685 11.283 70.14 11.6064 70.14 12.0053C70.14 12.4042 70.4685 12.7276 70.8738 12.7276C71.2791 12.7276 71.6077 12.4042 71.6077 12.0053Z" fill="#5288F4"/>
<path d="M66.1108 12.0053C66.1108 11.6064 65.7823 11.283 65.377 11.283C64.9717 11.283 64.6431 11.6064 64.6431 12.0053C64.6431 12.4042 64.9717 12.7276 65.377 12.7276C65.7823 12.7276 66.1108 12.4042 66.1108 12.0053Z" fill="#5288F4"/>
<path d="M63.3623 12.0053C63.3623 11.6064 63.0338 11.283 62.6285 11.283C62.2232 11.283 61.8946 11.6064 61.8946 12.0053C61.8946 12.4042 62.2232 12.7276 62.6285 12.7276C63.0338 12.7276 63.3623 12.4042 63.3623 12.0053Z" fill="#5288F4"/>
<path d="M77.1045 9.29987C77.1045 8.90094 76.776 8.57755 76.3707 8.57755C75.9654 8.57755 75.6368 8.90094 75.6368 9.29987C75.6368 9.6988 75.9654 10.0222 76.3707 10.0222C76.776 10.0222 77.1045 9.6988 77.1045 9.29987Z" fill="#5288F4"/>
<path d="M74.3561 9.29987C74.3561 8.90094 74.0276 8.57755 73.6223 8.57755C73.217 8.57755 72.8884 8.90094 72.8884 9.29987C72.8884 9.6988 73.217 10.0222 73.6223 10.0222C74.0276 10.0222 74.3561 9.6988 74.3561 9.29987Z" fill="#5288F4"/>
<path d="M68.8592 9.29987C68.8592 8.90094 68.5307 8.57755 68.1254 8.57755C67.7201 8.57755 67.3915 8.90094 67.3915 9.29987C67.3915 9.6988 67.7201 10.0222 68.1254 10.0222C68.5307 10.0222 68.8592 9.6988 68.8592 9.29987Z" fill="#5288F4"/>
<path d="M63.4223 3.87217C63.4223 3.47324 63.0938 3.14984 62.6885 3.14984C62.2832 3.14984 61.9546 3.47324 61.9546 3.87217C61.9546 4.2711 62.2832 4.5945 62.6885 4.5945C63.0938 4.5945 63.4223 4.2711 63.4223 3.87217Z" fill="#5288F4"/>
<path d="M60.6139 6.59821C60.6139 6.19928 60.2854 5.87589 59.8801 5.87589C59.4748 5.87589 59.1462 6.19928 59.1462 6.59821C59.1462 6.99714 59.4748 7.32054 59.8801 7.32054C60.2854 7.32054 60.6139 6.99714 60.6139 6.59821Z" fill="#5288F4"/>
<path d="M82.6014 6.59821C82.6014 6.19928 82.2728 5.87589 81.8675 5.87589C81.4622 5.87589 81.1337 6.19928 81.1337 6.59821C81.1337 6.99714 81.4622 7.32054 81.8675 7.32054C82.2728 7.32054 82.6014 6.99714 82.6014 6.59821Z" fill="#5288F4"/>
<path d="M79.8176 3.87217C79.8176 3.47324 79.4891 3.14984 79.0838 3.14984C78.6785 3.14984 78.3499 3.47324 78.3499 3.87217C78.3499 4.2711 78.6785 4.5945 79.0838 4.5945C79.4891 4.5945 79.8176 4.2711 79.8176 3.87217Z" fill="#5288F4"/>
<path d="M71.6077 9.29987C71.6077 8.90094 71.2791 8.57755 70.8738 8.57755C70.4685 8.57755 70.14 8.90094 70.14 9.29987C70.14 9.6988 70.4685 10.0222 70.8738 10.0222C71.2791 10.0222 71.6077 9.6988 71.6077 9.29987Z" fill="#5288F4"/>
<path d="M66.1108 9.29987C66.1108 8.90094 65.7823 8.57755 65.377 8.57755C64.9717 8.57755 64.6431 8.90094 64.6431 9.29987C64.6431 9.6988 64.9717 10.0222 65.377 10.0222C65.7823 10.0222 66.1108 9.6988 66.1108 9.29987Z" fill="#5288F4"/>
<path d="M74.3561 6.59821C74.3561 6.19928 74.0276 5.87589 73.6223 5.87589C73.217 5.87589 72.8884 6.19928 72.8884 6.59821C72.8884 6.99714 73.217 7.32054 73.6223 7.32054C74.0276 7.32054 74.3561 6.99714 74.3561 6.59821Z" fill="#5288F4"/>
<path d="M71.6077 6.59821C71.6077 6.19928 71.2791 5.87589 70.8738 5.87589C70.4685 5.87589 70.14 6.19928 70.14 6.59821C70.14 6.99714 70.4685 7.32054 70.8738 7.32054C71.2791 7.32054 71.6077 6.99714 71.6077 6.59821Z" fill="#5288F4"/>
<path d="M71.6183 3.87217C71.6183 3.47324 71.2897 3.14984 70.8844 3.14984C70.4791 3.14984 70.1505 3.47324 70.1505 3.87217C70.1505 4.2711 70.4791 4.5945 70.8844 4.5945C71.2897 4.5945 71.6183 4.2711 71.6183 3.87217Z" fill="#5288F4"/>
<path d="M68.8592 6.59821C68.8592 6.19928 68.5307 5.87589 68.1254 5.87589C67.7201 5.87589 67.3915 6.19928 67.3915 6.59821C67.3915 6.99714 67.7201 7.32054 68.1254 7.32054C68.5307 7.32054 68.8592 6.99714 68.8592 6.59821Z" fill="#5288F4"/>
<path d="M60.6139 17.4157C60.6139 17.0168 60.2854 16.6934 59.8801 16.6934C59.4748 16.6934 59.1462 17.0168 59.1462 17.4157C59.1462 17.8146 59.4748 18.138 59.8801 18.138C60.2854 18.138 60.6139 17.8146 60.6139 17.4157Z" fill="#5288F4"/>
<path d="M63.4223 20.128C63.4223 19.7291 63.0938 19.4057 62.6885 19.4057C62.2832 19.4057 61.9546 19.7291 61.9546 20.128C61.9546 20.527 62.2832 20.8504 62.6885 20.8504C63.0938 20.8504 63.4223 20.527 63.4223 20.128Z" fill="#5288F4"/>
<path d="M79.8176 20.128C79.8176 19.7291 79.4891 19.4057 79.0838 19.4057C78.6785 19.4057 78.3499 19.7291 78.3499 20.128C78.3499 20.527 78.6785 20.8504 79.0838 20.8504C79.4891 20.8504 79.8176 20.527 79.8176 20.128Z" fill="#5288F4"/>
<path d="M82.6014 17.4157C82.6014 17.0168 82.2728 16.6934 81.8675 16.6934C81.4622 16.6934 81.1337 17.0168 81.1337 17.4157C81.1337 17.8146 81.4622 18.138 81.8675 18.138C82.2728 18.138 82.6014 17.8146 82.6014 17.4157Z" fill="#5288F4"/>
<path d="M77.0728 1.6113C77.0728 1.21237 76.7442 0.888977 76.3389 0.888977C75.9336 0.888977 75.605 1.21237 75.605 1.6113C75.605 2.01023 75.9336 2.33363 76.3389 2.33363C76.7442 2.33363 77.0728 2.01023 77.0728 1.6113Z" fill="#5288F4"/>
<path d="M66.1532 1.14603C66.1532 0.747103 65.8246 0.423706 65.4193 0.423706C65.014 0.423706 64.6854 0.747103 64.6854 1.14603C64.6854 1.54496 65.014 1.86836 65.4193 1.86836C65.8246 1.86836 66.1532 1.54496 66.1532 1.14603Z" fill="#5288F4"/>
<path d="M77.1186 22.8542C77.1186 22.4552 76.7901 22.1318 76.3848 22.1318C75.9795 22.1318 75.6509 22.4552 75.6509 22.8542C75.6509 23.2531 75.9795 23.5765 76.3848 23.5765C76.7901 23.5765 77.1186 23.2531 77.1186 22.8542Z" fill="#5288F4"/>
<path d="M66.1496 22.8542C66.1496 22.4552 65.8211 22.1318 65.4158 22.1318C65.0105 22.1318 64.6819 22.4552 64.6819 22.8542C64.6819 23.2531 65.0105 23.5765 65.4158 23.5765C65.8211 23.5765 66.1496 23.2531 66.1496 22.8542Z" fill="#5288F4"/>
<path d="M61.0443 9.30002C61.0443 8.6671 60.523 8.15402 59.88 8.15402C59.237 8.15402 58.7157 8.6671 58.7157 9.30002C58.7157 9.93294 59.237 10.446 59.88 10.446C60.523 10.446 61.0443 9.93294 61.0443 9.30002Z" fill="#5288F4"/>
<path d="M61.0443 12.0052C61.0443 11.3723 60.523 10.8592 59.88 10.8592C59.237 10.8592 58.7157 11.3723 58.7157 12.0052C58.7157 12.6381 59.237 13.1512 59.88 13.1512C60.523 13.1512 61.0443 12.6381 61.0443 12.0052Z" fill="#5288F4"/>
<path d="M61.0443 14.7105C61.0443 14.0775 60.523 13.5645 59.88 13.5645C59.237 13.5645 58.7157 14.0775 58.7157 14.7105C58.7157 15.3434 59.237 15.8564 59.88 15.8564C60.523 15.8564 61.0443 15.3434 61.0443 14.7105Z" fill="#5288F4"/>
<path d="M74.783 20.1278C74.783 19.4949 74.2617 18.9818 73.6187 18.9818C72.9757 18.9818 72.4544 19.4949 72.4544 20.1278C72.4544 20.7608 72.9757 21.2738 73.6187 21.2738C74.2617 21.2738 74.783 20.7608 74.783 20.1278Z" fill="#5288F4"/>
<path d="M72.0487 20.1278C72.0487 19.4949 71.5274 18.9818 70.8844 18.9818C70.2414 18.9818 69.7201 19.4949 69.7201 20.1278C69.7201 20.7608 70.2414 21.2738 70.8844 21.2738C71.5274 21.2738 72.0487 20.7608 72.0487 20.1278Z" fill="#5288F4"/>
<path d="M69.3143 20.1278C69.3143 19.4949 68.7931 18.9818 68.15 18.9818C67.507 18.9818 66.9857 19.4949 66.9857 20.1278C66.9857 20.7608 67.507 21.2738 68.15 21.2738C68.7931 21.2738 69.3143 20.7608 69.3143 20.1278Z" fill="#5288F4"/>
<path d="M72.0169 17.4157C72.0169 16.7828 71.4956 16.2697 70.8526 16.2697C70.2096 16.2697 69.6883 16.7828 69.6883 17.4157C69.6883 18.0486 70.2096 18.5617 70.8526 18.5617C71.4956 18.5617 72.0169 18.0486 72.0169 17.4157Z" fill="#5288F4"/>
<path d="M74.7584 17.4157C74.7584 16.7828 74.2371 16.2697 73.5941 16.2697C72.9511 16.2697 72.4298 16.7828 72.4298 17.4157C72.4298 18.0486 72.9511 18.5617 73.5941 18.5617C74.2371 18.5617 74.7584 18.0486 74.7584 17.4157Z" fill="#5288F4"/>
<path d="M77.5033 17.4157C77.5033 16.7828 76.982 16.2697 76.339 16.2697C75.696 16.2697 75.1747 16.7828 75.1747 17.4157C75.1747 18.0486 75.696 18.5617 76.339 18.5617C76.982 18.5617 77.5033 18.0486 77.5033 17.4157Z" fill="#5288F4"/>
<path d="M69.272 17.4157C69.272 16.7828 68.7507 16.2697 68.1077 16.2697C67.4647 16.2697 66.9434 16.7828 66.9434 17.4157C66.9434 18.0486 67.4647 18.5617 68.1077 18.5617C68.7507 18.5617 69.272 18.0486 69.272 17.4157Z" fill="#5288F4"/>
<path d="M66.5307 17.4157C66.5307 16.7828 66.0094 16.2697 65.3664 16.2697C64.7234 16.2697 64.2021 16.7828 64.2021 17.4157C64.2021 18.0486 64.7234 18.5617 65.3664 18.5617C66.0094 18.5617 66.5307 18.0486 66.5307 17.4157Z" fill="#5288F4"/>
<path d="M69.2896 14.7105C69.2896 14.0775 68.7684 13.5645 68.1253 13.5645C67.4823 13.5645 66.961 14.0775 66.961 14.7105C66.961 15.3434 67.4823 15.8564 68.1253 15.8564C68.7684 15.8564 69.2896 15.3434 69.2896 14.7105Z" fill="#5288F4"/>
<path d="M72.0381 14.7105C72.0381 14.0775 71.5168 13.5645 70.8738 13.5645C70.2308 13.5645 69.7095 14.0775 69.7095 14.7105C69.7095 15.3434 70.2308 15.8564 70.8738 15.8564C71.5168 15.8564 72.0381 15.3434 72.0381 14.7105Z" fill="#5288F4"/>
<path d="M66.5412 14.7105C66.5412 14.0775 66.0199 13.5645 65.3769 13.5645C64.7339 13.5645 64.2126 14.0775 64.2126 14.7105C64.2126 15.3434 64.7339 15.8564 65.3769 15.8564C66.0199 15.8564 66.5412 15.3434 66.5412 14.7105Z" fill="#5288F4"/>
<path d="M63.7928 14.7105C63.7928 14.0775 63.2715 13.5645 62.6285 13.5645C61.9855 13.5645 61.4642 14.0775 61.4642 14.7105C61.4642 15.3434 61.9855 15.8564 62.6285 15.8564C63.2715 15.8564 63.7928 15.3434 63.7928 14.7105Z" fill="#5288F4"/>
<path d="M80.2835 14.7105C80.2835 14.0775 79.7622 13.5645 79.1192 13.5645C78.4762 13.5645 77.9549 14.0775 77.9549 14.7105C77.9549 15.3434 78.4762 15.8564 79.1192 15.8564C79.7622 15.8564 80.2835 15.3434 80.2835 14.7105Z" fill="#5288F4"/>
<path d="M77.535 14.7105C77.535 14.0775 77.0137 13.5645 76.3707 13.5645C75.7276 13.5645 75.2064 14.0775 75.2064 14.7105C75.2064 15.3434 75.7276 15.8564 76.3707 15.8564C77.0137 15.8564 77.535 15.3434 77.535 14.7105Z" fill="#5288F4"/>
<path d="M74.7865 14.7105C74.7865 14.0775 74.2652 13.5645 73.6222 13.5645C72.9792 13.5645 72.4579 14.0775 72.4579 14.7105C72.4579 15.3434 72.9792 15.8564 73.6222 15.8564C74.2652 15.8564 74.7865 15.3434 74.7865 14.7105Z" fill="#5288F4"/>
<path d="M80.2835 9.30002C80.2835 8.6671 79.7622 8.15402 79.1192 8.15402C78.4762 8.15402 77.9549 8.6671 77.9549 9.30002C77.9549 9.93294 78.4762 10.446 79.1192 10.446C79.7622 10.446 80.2835 9.93294 80.2835 9.30002Z" fill="#5288F4"/>
<path d="M83.0318 9.30002C83.0318 8.6671 82.5106 8.15402 81.8675 8.15402C81.2245 8.15402 80.7032 8.6671 80.7032 9.30002C80.7032 9.93294 81.2245 10.446 81.8675 10.446C82.5106 10.446 83.0318 9.93294 83.0318 9.30002Z" fill="#5288F4"/>
<path d="M83.0318 12.0052C83.0318 11.3723 82.5106 10.8592 81.8675 10.8592C81.2245 10.8592 80.7032 11.3723 80.7032 12.0052C80.7032 12.6381 81.2245 13.1512 81.8675 13.1512C82.5106 13.1512 83.0318 12.6381 83.0318 12.0052Z" fill="#5288F4"/>
<path d="M83.0318 14.7105C83.0318 14.0775 82.5106 13.5645 81.8675 13.5645C81.2245 13.5645 80.7032 14.0775 80.7032 14.7105C80.7032 15.3434 81.2245 15.8564 81.8675 15.8564C82.5106 15.8564 83.0318 15.3434 83.0318 14.7105Z" fill="#5288F4"/>
<path d="M80.2482 17.4157C80.2482 16.7828 79.7269 16.2697 79.0839 16.2697C78.4409 16.2697 77.9196 16.7828 77.9196 17.4157C77.9196 18.0486 78.4409 18.5617 79.0839 18.5617C79.7269 18.5617 80.2482 18.0486 80.2482 17.4157Z" fill="#5288F4"/>
<path d="M80.2835 6.59818C80.2835 5.96526 79.7622 5.45218 79.1192 5.45218C78.4762 5.45218 77.9549 5.96526 77.9549 6.59818C77.9549 7.2311 78.4762 7.74418 79.1192 7.74418C79.7622 7.74418 80.2835 7.2311 80.2835 6.59818Z" fill="#5288F4"/>
<path d="M77.5138 3.8685C77.5138 3.23558 76.9925 2.7225 76.3495 2.7225C75.7065 2.7225 75.1852 3.23558 75.1852 3.8685C75.1852 4.50142 75.7065 5.0145 76.3495 5.0145C76.9925 5.0145 77.5138 4.50142 77.5138 3.8685Z" fill="#5288F4"/>
<path d="M77.5138 20.1278C77.5138 19.4949 76.9925 18.9818 76.3495 18.9818C75.7065 18.9818 75.1852 19.4949 75.1852 20.1278C75.1852 20.7608 75.7065 21.2738 76.3495 21.2738C76.9925 21.2738 77.5138 20.7608 77.5138 20.1278Z" fill="#5288F4"/>
<path d="M69.332 1.146C69.332 0.513081 68.8107 0 68.1677 0C67.5247 0 67.0034 0.513081 67.0034 1.146C67.0034 1.77892 67.5247 2.292 68.1677 2.292C68.8107 2.292 69.332 1.77892 69.332 1.146Z" fill="#5288F4"/>
<path d="M72.0734 1.146C72.0734 0.513081 71.5521 0 70.9091 0C70.2661 0 69.7448 0.513081 69.7448 1.146C69.7448 1.77892 70.2661 2.292 70.9091 2.292C71.5521 2.292 72.0734 1.77892 72.0734 1.146Z" fill="#5288F4"/>
<path d="M74.8112 1.146C74.8112 0.513081 74.2899 0 73.6469 0C73.0039 0 72.4826 0.513081 72.4826 1.146C72.4826 1.77892 73.0039 2.292 73.6469 2.292C74.2899 2.292 74.8112 1.77892 74.8112 1.146Z" fill="#5288F4"/>
<path d="M66.5835 3.8685C66.5835 3.23558 66.0623 2.7225 65.4192 2.7225C64.7762 2.7225 64.2549 3.23558 64.2549 3.8685C64.2549 4.50142 64.7762 5.0145 65.4192 5.0145C66.0623 5.0145 66.5835 4.50142 66.5835 3.8685Z" fill="#5288F4"/>
<path d="M63.7928 6.59818C63.7928 5.96526 63.2715 5.45218 62.6285 5.45218C61.9855 5.45218 61.4642 5.96526 61.4642 6.59818C61.4642 7.2311 61.9855 7.74418 62.6285 7.74418C63.2715 7.74418 63.7928 7.2311 63.7928 6.59818Z" fill="#5288F4"/>
<path d="M63.7928 9.30002C63.7928 8.6671 63.2715 8.15402 62.6285 8.15402C61.9855 8.15402 61.4642 8.6671 61.4642 9.30002C61.4642 9.93294 61.9855 10.446 62.6285 10.446C63.2715 10.446 63.7928 9.93294 63.7928 9.30002Z" fill="#5288F4"/>
<path d="M77.535 6.59818C77.535 5.96526 77.0137 5.45218 76.3707 5.45218C75.7276 5.45218 75.2064 5.96526 75.2064 6.59818C75.2064 7.2311 75.7276 7.74418 76.3707 7.74418C77.0137 7.74418 77.535 7.2311 77.535 6.59818Z" fill="#5288F4"/>
<path d="M66.5412 6.59818C66.5412 5.96526 66.0199 5.45218 65.3769 5.45218C64.7339 5.45218 64.2126 5.96526 64.2126 6.59818C64.2126 7.2311 64.7339 7.74418 65.3769 7.74418C66.0199 7.74418 66.5412 7.2311 66.5412 6.59818Z" fill="#5288F4"/>
<path d="M74.783 3.8685C74.783 3.23558 74.2617 2.7225 73.6187 2.7225C72.9757 2.7225 72.4544 3.23558 72.4544 3.8685C72.4544 4.50142 72.9757 5.0145 73.6187 5.0145C74.2617 5.0145 74.783 4.50142 74.783 3.8685Z" fill="#5288F4"/>
<path d="M69.3143 3.8685C69.3143 3.23558 68.7931 2.7225 68.15 2.7225C67.507 2.7225 66.9857 3.23558 66.9857 3.8685C66.9857 4.50142 67.507 5.0145 68.15 5.0145C68.7931 5.0145 69.3143 4.50142 69.3143 3.8685Z" fill="#5288F4"/>
<path d="M63.7857 17.4157C63.7857 16.7828 63.2644 16.2697 62.6214 16.2697C61.9784 16.2697 61.4571 16.7828 61.4571 17.4157C61.4571 18.0486 61.9784 18.5617 62.6214 18.5617C63.2644 18.5617 63.7857 18.0486 63.7857 17.4157Z" fill="#5288F4"/>
<path d="M66.5835 20.1278C66.5835 19.4949 66.0623 18.9818 65.4192 18.9818C64.7762 18.9818 64.2549 19.4949 64.2549 20.1278C64.2549 20.7608 64.7762 21.2738 65.4192 21.2738C66.0623 21.2738 66.5835 20.7608 66.5835 20.1278Z" fill="#5288F4"/>
<path d="M74.8078 22.854C74.8078 22.2211 74.2865 21.708 73.6435 21.708C73.0005 21.708 72.4792 22.2211 72.4792 22.854C72.4792 23.4869 73.0005 24 73.6435 24C74.2865 24 74.8078 23.4869 74.8078 22.854Z" fill="#5288F4"/>
<path d="M72.0663 22.854C72.0663 22.2211 71.5451 21.708 70.902 21.708C70.259 21.708 69.7377 22.2211 69.7377 22.854C69.7377 23.4869 70.259 24 70.902 24C71.5451 24 72.0663 23.4869 72.0663 22.854Z" fill="#5288F4"/>
<path d="M69.3214 22.854C69.3214 22.2211 68.8002 21.708 68.1571 21.708C67.5141 21.708 66.9929 22.2211 66.9929 22.854C66.9929 23.4869 67.5141 24 68.1571 24C68.8002 24 69.3214 23.4869 69.3214 22.854Z" fill="#5288F4"/>
<path d="M0 1.84399H2.94955V22.156H0V1.84399Z" fill="white"/>
<path d="M23.4976 3.72968C25.0335 4.98681 25.8003 6.72317 25.798 8.93877C25.7956 11.1544 25.0288 12.8907 23.4976 14.1479C21.9664 15.405 19.8636 16.0335 17.1892 16.0335H12.0875V22.156H9.14148V1.84399H17.1892C19.8636 1.84399 21.9664 2.47256 23.4976 3.72968ZM21.3807 12.3038C22.3615 11.5236 22.8531 10.3973 22.8555 8.92488C22.8578 7.45245 22.365 6.3296 21.3772 5.55634C20.3916 4.7715 18.9662 4.38024 17.101 4.38256H12.0875V13.4811H17.101C18.9686 13.4811 20.394 13.0887 21.3772 12.3038H21.3807Z" fill="white"/>
<path d="M33.5176 21.0412C31.8812 20.1775 30.5178 18.8871 29.5767 17.3115C28.6239 15.6998 28.136 13.8628 28.1654 11.9983C28.1364 10.1349 28.6244 8.29912 29.5767 6.68848C30.5178 5.11287 31.8812 3.82254 33.5176 2.95877C35.2533 2.07343 37.1796 1.61133 39.1345 1.61133C41.0894 1.61133 43.0157 2.07343 44.7513 2.95877C46.3799 3.81949 47.7361 5.10512 48.6711 6.67459C49.6246 8.28983 50.1125 10.1304 50.0824 11.9983C50.113 13.8673 49.625 15.7091 48.6711 17.3254C47.7361 18.8949 46.3799 20.1805 44.7513 21.0412C43.0157 21.9266 41.0894 22.3887 39.1345 22.3887C37.1796 22.3887 35.2533 21.9266 33.5176 21.0412ZM43.2307 18.7909C44.4238 18.1294 45.4125 17.1621 46.092 15.9919C46.801 14.7777 47.1665 13.3987 47.1505 11.9983C47.166 10.599 46.8005 9.22126 46.092 8.00811C45.4116 6.83744 44.4215 5.87015 43.2272 5.2091C41.9863 4.52524 40.5847 4.17435 39.1627 4.19159C37.7189 4.17009 36.2946 4.52088 35.0312 5.2091C33.8263 5.86465 32.8269 6.83272 32.1417 8.00811C31.4331 9.22126 31.0677 10.599 31.0832 11.9983C31.0672 13.3987 31.4327 14.7777 32.1417 15.9919C32.8269 17.1673 33.8263 18.1354 35.0312 18.7909C36.2959 19.4743 37.7202 19.8203 39.1627 19.7945C40.5834 19.816 41.985 19.4699 43.2272 18.7909H43.2307Z" fill="white"/>
<path d="M52.1499 21.7671C51.956 21.5805 51.8036 21.3565 51.7022 21.109C51.6008 20.8616 51.5526 20.5961 51.5606 20.3294C51.5565 20.0704 51.6066 19.8134 51.708 19.5743C51.8094 19.3353 51.9598 19.1195 52.1499 18.9403C52.3343 18.7574 52.5544 18.613 52.7969 18.5158C53.0394 18.4185 53.2993 18.3704 53.5611 18.3742C53.818 18.3684 54.0733 18.414 54.3117 18.5083C54.55 18.6027 54.7664 18.7437 54.9477 18.9229C55.1348 19.1101 55.2811 19.333 55.3776 19.5778C55.474 19.8227 55.5186 20.0843 55.5087 20.3468C55.5167 20.6122 55.4698 20.8765 55.3709 21.1237C55.2721 21.3708 55.1233 21.5956 54.9336 21.7845C54.7558 21.9656 54.5425 22.1092 54.3065 22.2065C54.0706 22.3038 53.8169 22.3528 53.5611 22.3505C53.2982 22.3513 53.0377 22.3001 52.7953 22.1999C52.5528 22.0997 52.3333 21.9525 52.1499 21.7671Z" fill="white"/>
<path d="M104.285 1.84399V22.156H101.865L89.4813 7.00794V22.156H86.5353V1.84399H88.9521L101.336 16.992V1.84399H104.285Z" fill="white"/>
<path d="M125.454 19.6313V22.156H110.477V1.84399H125.042V4.36866H113.423V10.6196H123.772V13.0887H113.423V19.6313H125.454Z" fill="white"/>
</svg>
