<svg width="50" height="50" viewBox="0 0 50 50" fill="none" xmlns="http://www.w3.org/2000/svg">
<path d="M46.0938 12.5H45.0791C45.9856 11.4888 46.5799 10.2368 46.7902 8.89511C47.0005 7.55347 46.8177 6.17964 46.264 4.93962C45.7103 3.6996 44.8094 2.64645 43.6701 1.90743C42.5307 1.16842 41.2018 0.775146 39.8438 0.775146C38.4857 0.775146 37.1568 1.16842 36.0174 1.90743C34.8781 2.64645 33.9772 3.6996 33.4235 4.93962C32.8698 6.17964 32.687 7.55347 32.8973 8.89511C33.1076 10.2368 33.7019 11.4888 34.6084 12.5H25V4.68746C25 4.48026 24.9177 4.28155 24.7712 4.13504C24.6247 3.98852 24.426 3.90621 24.2188 3.90621H21.0938C20.8865 3.90621 20.6878 3.98852 20.5413 4.13504C20.3948 4.28155 20.3125 4.48026 20.3125 4.68746V12.5H19.5312V1.56246C19.5312 1.35526 19.4489 1.15655 19.3024 1.01004C19.1559 0.863523 18.9572 0.781213 18.75 0.781213H15.625C15.4178 0.781213 15.2191 0.863523 15.0726 1.01004C14.9261 1.15655 14.8438 1.35526 14.8438 1.56246V12.5H14.0625V7.03121C14.0625 6.82401 13.9802 6.6253 13.8337 6.47879C13.6872 6.33227 13.4885 6.24996 13.2812 6.24996H10.1562C9.94905 6.24996 9.75034 6.33227 9.60382 6.47879C9.45731 6.6253 9.375 6.82401 9.375 7.03121V12.5H3.90625C3.07773 12.5009 2.28342 12.8304 1.69757 13.4163C1.11172 14.0021 0.782181 14.7964 0.78125 15.625V39.0625C0.782181 39.891 1.11172 40.6853 1.69757 41.2711C2.28342 41.857 3.07773 42.1865 3.90625 42.1875H20.0098L18.9678 45.3125H16.4062C16.199 45.3125 16.0003 45.3948 15.8538 45.5413C15.7073 45.6878 15.625 45.8865 15.625 46.0937V47.6562H7.8125C7.6053 47.6562 7.40659 47.7385 7.26007 47.885C7.11356 48.0315 7.03125 48.2303 7.03125 48.4375C7.03125 48.6447 7.11356 48.8434 7.26007 48.9899C7.40659 49.1364 7.6053 49.2187 7.8125 49.2187H42.1875C42.3947 49.2187 42.5934 49.1364 42.7399 48.9899C42.8864 48.8434 42.9688 48.6447 42.9688 48.4375C42.9688 48.2303 42.8864 48.0315 42.7399 47.885C42.5934 47.7385 42.3947 47.6562 42.1875 47.6562H34.375V46.0937C34.375 45.8865 34.2927 45.6878 34.1462 45.5413C33.9997 45.3948 33.8009 45.3125 33.5938 45.3125H31.0322L29.9902 42.1875H46.0938C46.9223 42.1865 47.7166 41.857 48.3024 41.2711C48.8883 40.6853 49.2178 39.891 49.2188 39.0625V15.625C49.2178 14.7964 48.8883 14.0021 48.3024 13.4163C47.7166 12.8304 46.9223 12.5009 46.0938 12.5ZM40.625 2.40035C41.7926 2.57073 42.874 3.11347 43.7084 3.94784C44.5427 4.7822 45.0855 5.86361 45.2559 7.03121H40.625V2.40035ZM40.167 8.59371H45.2559C45.1209 9.53248 44.744 10.42 44.1622 11.1689C43.5803 11.9179 42.8136 12.5026 41.9373 12.8654C41.061 13.2283 40.1054 13.3568 39.1644 13.2385C38.2234 13.1201 37.3294 12.7589 36.5703 12.1904L40.167 8.59371ZM34.375 7.81246C34.3769 6.498 34.8514 5.22804 35.712 4.23444C36.5726 3.24084 37.7618 2.58986 39.0625 2.40035V7.48922L35.4658 11.0859C34.7567 10.142 34.3738 8.99306 34.375 7.81246ZM21.875 5.46871H23.4375V20.3125H21.875V5.46871ZM19.5312 14.0625H20.3125V20.3125H19.5312V14.0625ZM16.4062 2.34371H17.9688V20.3125H16.4062V2.34371ZM14.0625 14.0625H14.8438V20.3125H14.0625V14.0625ZM10.9375 7.81246H12.5V20.3125H10.9375V7.81246ZM32.8125 46.875V47.6562H17.1875V46.875H32.8125ZM20.6152 45.3125L21.6572 42.1875H28.3428L29.3848 45.3125H20.6152ZM47.6562 39.0625C47.6557 39.4767 47.4909 39.8738 47.198 40.1667C46.9051 40.4596 46.508 40.6244 46.0938 40.625H3.90625C3.49202 40.6244 3.0949 40.4596 2.802 40.1667C2.50909 39.8738 2.34429 39.4767 2.34375 39.0625V37.5H47.6562V39.0625ZM47.6562 35.9375H2.34375V15.625C2.34429 15.2107 2.50909 14.8136 2.802 14.5207C3.0949 14.2278 3.49202 14.063 3.90625 14.0625H9.375V20.3125H8.59375V15.625C8.59375 15.4178 8.51144 15.219 8.36493 15.0725C8.21841 14.926 8.0197 14.8437 7.8125 14.8437H4.6875C4.4803 14.8437 4.28159 14.926 4.13507 15.0725C3.98856 15.219 3.90625 15.4178 3.90625 15.625V21.0937C3.90625 21.3009 3.98856 21.4996 4.13507 21.6461C4.28159 21.7927 4.4803 21.875 4.6875 21.875H29.6875C29.8947 21.875 30.0934 21.7927 30.2399 21.6461C30.3864 21.4996 30.4688 21.3009 30.4688 21.0937V15.625C30.4688 15.4178 30.3864 15.219 30.2399 15.0725C30.0934 14.926 29.8947 14.8437 29.6875 14.8437H26.5625C26.3553 14.8437 26.1566 14.926 26.0101 15.0725C25.8636 15.219 25.7812 15.4178 25.7812 15.625V20.3125H25V14.0625H36.6289C37.6228 14.5758 38.7251 14.8437 39.8438 14.8437C40.9624 14.8437 42.0647 14.5758 43.0586 14.0625H46.0938C46.508 14.063 46.9051 14.2278 47.198 14.5207C47.4909 14.8136 47.6557 15.2107 47.6562 15.625V35.9375ZM7.03125 16.4062V20.3125H5.46875V16.4062H7.03125ZM27.3438 20.3125V16.4062H28.9062V20.3125H27.3438Z" fill="#000D3B"/>
<path d="M9.375 38.2812H4.6875C4.4803 38.2812 4.28159 38.3636 4.13507 38.5101C3.98856 38.6566 3.90625 38.8553 3.90625 39.0625C3.90625 39.2697 3.98856 39.4684 4.13507 39.6149C4.28159 39.7614 4.4803 39.8438 4.6875 39.8438H9.375C9.5822 39.8438 9.78091 39.7614 9.92743 39.6149C10.0739 39.4684 10.1562 39.2697 10.1562 39.0625C10.1562 38.8553 10.0739 38.6566 9.92743 38.5101C9.78091 38.3636 9.5822 38.2812 9.375 38.2812Z" fill="#000D3B"/>
<path d="M12.5 38.2812H11.7188C11.5115 38.2812 11.3128 38.3636 11.1663 38.5101C11.0198 38.6566 10.9375 38.8553 10.9375 39.0625C10.9375 39.2697 11.0198 39.4684 11.1663 39.6149C11.3128 39.7614 11.5115 39.8438 11.7188 39.8438H12.5C12.7072 39.8438 12.9059 39.7614 13.0524 39.6149C13.1989 39.4684 13.2812 39.2697 13.2812 39.0625C13.2812 38.8553 13.1989 38.6566 13.0524 38.5101C12.9059 38.3636 12.7072 38.2812 12.5 38.2812Z" fill="#000D3B"/>
<path d="M33.5938 20.3125C33.6964 20.3126 33.798 20.2925 33.8928 20.2532C33.9876 20.214 34.0738 20.1564 34.1462 20.0837L37.0423 17.1875H43.75C43.9572 17.1875 44.1559 17.1052 44.3024 16.9587C44.449 16.8122 44.5313 16.6135 44.5313 16.4063C44.5313 16.1991 44.449 16.0003 44.3024 15.8538C44.1559 15.7073 43.9572 15.625 43.75 15.625H36.7188C36.6162 15.625 36.5146 15.6452 36.4198 15.6845C36.325 15.7237 36.2389 15.7813 36.1663 15.8538L33.0413 18.9788C32.9321 19.0881 32.8577 19.2273 32.8275 19.3788C32.7974 19.5304 32.8128 19.6875 32.872 19.8302C32.9311 19.973 33.0312 20.095 33.1597 20.1809C33.2882 20.2667 33.4393 20.3125 33.5938 20.3125Z" fill="#1357DD"/>
<path d="M43.7503 28.9062C43.3397 28.9065 42.9365 29.0147 42.5808 29.2198C42.2252 29.425 41.9297 29.7199 41.7239 30.0752L33.5452 25.3037C33.4344 24.7713 33.1419 24.294 32.7179 23.9536C32.2938 23.6131 31.7645 23.4308 31.2208 23.4377C30.677 23.4446 30.1526 23.6404 29.7373 23.9915C29.3221 24.3427 29.0418 24.8273 28.9446 25.3623L20.7142 31.5352C20.4903 31.1904 20.1795 30.9106 19.8132 30.7239C19.4469 30.5373 19.0379 30.4504 18.6273 30.472C18.2167 30.4936 17.8191 30.6229 17.4743 30.8469C17.1296 31.0709 16.8499 31.3817 16.6634 31.748L8.52861 28.3584C8.40026 27.8232 8.08775 27.3503 7.64579 27.0223C7.20383 26.6943 6.66059 26.5323 6.11119 26.5645C5.56179 26.5968 5.04123 26.8212 4.64066 27.1986C4.24009 27.576 3.98504 28.0823 3.92016 28.6288C3.85528 29.1753 3.98471 29.7272 4.28578 30.1879C4.58686 30.6486 5.04039 30.9887 5.56697 31.1487C6.09356 31.3087 6.65964 31.2783 7.1661 31.063C7.67255 30.8476 8.08712 30.4609 8.3372 29.9707L16.472 33.3604C16.5976 33.883 16.899 34.3466 17.3259 34.6734C17.7527 35.0002 18.2789 35.1703 18.8162 35.1552C19.3536 35.1401 19.8694 34.9407 20.2772 34.5904C20.685 34.2402 20.9599 33.7604 21.056 33.2314L29.2864 27.0586C29.5045 27.3945 29.805 27.6688 30.1593 27.8554C30.5137 28.042 30.9099 28.1346 31.3102 28.1243C31.7106 28.114 32.1015 28.0012 32.4458 27.7966C32.7901 27.5921 33.0762 27.3027 33.2767 26.9561L41.4554 31.7275C41.5456 32.1613 41.757 32.5606 42.065 32.8792C42.373 33.1977 42.765 33.4224 43.1955 33.5272C43.626 33.632 44.0774 33.6127 44.4973 33.4714C44.9173 33.3301 45.2885 33.0727 45.5681 32.729C45.8477 32.3853 46.0242 31.9693 46.077 31.5294C46.1298 31.0895 46.0568 30.6436 45.8666 30.2435C45.6763 29.8433 45.3765 29.5053 45.0019 29.2686C44.6273 29.032 44.1934 28.9063 43.7503 28.9062ZM7.03154 28.9102C7.03102 29.1177 6.94814 29.3166 6.80111 29.463C6.65408 29.6095 6.45491 29.6917 6.24736 29.6914C6.03981 29.6911 5.84085 29.6085 5.69418 29.4617C5.54752 29.3148 5.46513 29.1158 5.46513 28.9082C5.46513 28.7007 5.54752 28.5016 5.69418 28.3547C5.84085 28.2079 6.03981 28.1253 6.24736 28.125C6.45491 28.1247 6.65408 28.2069 6.80111 28.3534C6.94814 28.4998 7.03102 28.6987 7.03154 28.9062V28.9102ZM18.7503 33.5938C18.5432 33.5935 18.3446 33.5111 18.1982 33.3646C18.0517 33.2182 17.9693 33.0196 17.969 32.8125V32.8086C17.9698 32.6542 18.0163 32.5036 18.1026 32.3756C18.1889 32.2477 18.3112 32.1481 18.454 32.0896C18.5968 32.0311 18.7538 32.0162 18.9051 32.0467C19.0564 32.0773 19.1952 32.152 19.3041 32.2615C19.413 32.3709 19.487 32.5101 19.5168 32.6615C19.5466 32.813 19.5309 32.9698 19.4717 33.1124C19.4124 33.2549 19.3123 33.3767 19.1839 33.4624C19.0555 33.548 18.9046 33.5938 18.7503 33.5938ZM31.2503 26.5625C31.0958 26.5625 30.9447 26.5167 30.8162 26.4308C30.6878 26.345 30.5876 26.223 30.5285 26.0802C30.4694 25.9375 30.4539 25.7804 30.4841 25.6288C30.5142 25.4773 30.5886 25.3381 30.6979 25.2288C30.8071 25.1196 30.9463 25.0452 31.0979 25.015C31.2494 24.9849 31.4065 25.0003 31.5493 25.0595C31.692 25.1186 31.814 25.2187 31.8999 25.3472C31.9857 25.4757 32.0315 25.6267 32.0315 25.7812C32.0313 25.9884 31.9489 26.1869 31.8024 26.3334C31.6559 26.4798 31.4574 26.5622 31.2503 26.5625ZM43.7503 32.0313C43.5958 32.0313 43.4447 31.9854 43.3162 31.8996C43.1878 31.8137 43.0876 31.6917 43.0285 31.549C42.9694 31.4062 42.9539 31.2491 42.9841 31.0976C43.0142 30.946 43.0886 30.8068 43.1979 30.6976C43.3071 30.5883 43.4463 30.5139 43.5979 30.4838C43.7494 30.4536 43.9065 30.4691 44.0493 30.5282C44.192 30.5874 44.314 30.6875 44.3999 30.816C44.4857 30.9444 44.5315 31.0955 44.5315 31.25C44.5313 31.4571 44.4489 31.6557 44.3024 31.8021C44.1559 31.9486 43.9574 32.031 43.7503 32.0313Z" fill="#1357DD"/>
<path d="M37.5 33.5938H32.0312C31.824 33.5938 31.6253 33.6761 31.4788 33.8226C31.3323 33.9691 31.25 34.1678 31.25 34.375C31.25 34.5822 31.3323 34.7809 31.4788 34.9274C31.6253 35.0739 31.824 35.1562 32.0312 35.1562H37.5C37.7072 35.1562 37.9059 35.0739 38.0524 34.9274C38.1989 34.7809 38.2812 34.5822 38.2812 34.375C38.2812 34.1678 38.1989 33.9691 38.0524 33.8226C37.9059 33.6761 37.7072 33.5938 37.5 33.5938Z" fill="#1357DD"/>
<path d="M37.5 31.25H35.1562C34.949 31.25 34.7503 31.3323 34.6038 31.4788C34.4573 31.6253 34.375 31.824 34.375 32.0312C34.375 32.2385 34.4573 32.4372 34.6038 32.5837C34.7503 32.7302 34.949 32.8125 35.1562 32.8125H37.5C37.7072 32.8125 37.9059 32.7302 38.0524 32.5837C38.1989 32.4372 38.2812 32.2385 38.2812 32.0312C38.2812 31.824 38.1989 31.6253 38.0524 31.4788C37.9059 31.3323 37.7072 31.25 37.5 31.25Z" fill="#1357DD"/>
<path d="M4.6875 24.2188H13.2812C13.4885 24.2188 13.6872 24.1364 13.8337 23.9899C13.9802 23.8434 14.0625 23.6447 14.0625 23.4375C14.0625 23.2303 13.9802 23.0316 13.8337 22.8851C13.6872 22.7386 13.4885 22.6562 13.2812 22.6562H4.6875C4.4803 22.6562 4.28159 22.7386 4.13507 22.8851C3.98856 23.0316 3.90625 23.2303 3.90625 23.4375C3.90625 23.6447 3.98856 23.8434 4.13507 23.9899C4.28159 24.1364 4.4803 24.2188 4.6875 24.2188Z" fill="#1357DD"/>
<path d="M15.625 24.2188H16.4062C16.6135 24.2188 16.8122 24.1364 16.9587 23.9899C17.1052 23.8434 17.1875 23.6447 17.1875 23.4375C17.1875 23.2303 17.1052 23.0316 16.9587 22.8851C16.8122 22.7386 16.6135 22.6562 16.4062 22.6562H15.625C15.4178 22.6562 15.2191 22.7386 15.0726 22.8851C14.9261 23.0316 14.8438 23.2303 14.8438 23.4375C14.8438 23.6447 14.9261 23.8434 15.0726 23.9899C15.2191 24.1364 15.4178 24.2188 15.625 24.2188Z" fill="#1357DD"/>
</svg>
