<svg width="50" height="50" viewBox="0 0 50 50" fill="none" xmlns="http://www.w3.org/2000/svg">
<g clip-path="url(#clip0)">
<path d="M47.9883 25.5069H40.3208V4.09014C40.3208 3.68535 39.9926 3.35732 39.5879 3.35732C39.1833 3.35732 38.8551 3.68535 38.8551 4.09014V9.67275H9.39507C8.99038 9.67275 8.66226 10.0008 8.66226 10.4056C8.66226 10.8104 8.99038 11.1384 9.39507 11.1384H38.8552V35.6126C38.8552 35.7474 38.7457 35.8568 38.611 35.8568H2.18462C2.04995 35.8568 1.94038 35.7473 1.94038 35.6126V11.1383H10.7333C11.138 11.1383 11.4662 10.8103 11.4662 10.4055C11.4662 10.0007 11.138 9.67266 10.7333 9.67266H1.94038V1.70977C1.94038 1.575 2.04995 1.46553 2.18462 1.46553H38.6109C38.7456 1.46553 38.8551 1.5751 38.8551 1.70977V5.44394C38.8551 5.84873 39.1833 6.17676 39.5879 6.17676C39.9926 6.17676 40.3208 5.84873 40.3208 5.44394V1.70986C40.3208 0.766992 39.5537 0 38.6109 0H2.18462C1.24185 0 0.474854 0.766992 0.474854 1.70986V35.6125C0.474854 36.5553 1.24185 37.3224 2.18472 37.3224H9.67925V48.2902C9.67925 49.233 10.4462 50.0001 11.3891 50.0001H17.7621C18.1667 50.0001 18.4949 49.6721 18.4949 49.2673C18.4949 48.8625 18.1667 48.5345 17.7621 48.5345H11.3891C11.2544 48.5345 11.1449 48.4249 11.1449 48.2902V37.3223H38.6111C39.254 37.3223 39.8146 36.9652 40.1065 36.4395L48.0596 27.2132V48.2901C48.0596 48.4249 47.95 48.5344 47.8154 48.5344H16.3777C15.973 48.5344 15.6449 48.8624 15.6449 49.2672C15.6449 49.672 15.973 50 16.3777 50H47.8153C48.7581 50 49.5251 49.233 49.5251 48.2901V27.0438C49.525 26.1964 48.8357 25.5069 47.9883 25.5069ZM46.3322 26.9725L40.3208 33.9462V26.9725H46.3322Z" fill="white"/>
<path d="M5.46689 14.5867C5.16074 14.6821 4.95215 14.9656 4.95215 15.2863V22.5329C4.95215 22.9377 5.28027 23.2657 5.68496 23.2657C6.08965 23.2657 6.41777 22.9377 6.41777 22.5329V17.637L9.98184 22.7981C10.2042 23.1192 10.5721 23.2564 10.9193 23.1481C11.2752 23.0369 11.5053 22.6994 11.5052 22.2812L11.4373 15.2657C11.4334 14.8635 11.1062 14.54 10.7047 14.54C10.7023 14.54 10.6999 14.54 10.6975 14.54C10.2928 14.5439 9.96797 14.8752 9.97188 15.2799L10.0202 20.2746L6.28789 14.8699C6.10566 14.6061 5.77295 14.4913 5.46689 14.5867Z" fill="#1357DD"/>
<path d="M17.1034 16.0718C17.5081 16.0718 17.8362 15.7438 17.8362 15.339C17.8362 14.9342 17.5081 14.6062 17.1034 14.6062H14.0722C13.6675 14.6062 13.3394 14.9342 13.3394 15.339V22.5329C13.3394 22.9376 13.6675 23.2657 14.0722 23.2657H17.1034C17.5081 23.2657 17.8362 22.9376 17.8362 22.5329C17.8362 22.1281 17.5081 21.8 17.1034 21.8H14.805V19.6688H16.8799C17.2846 19.6688 17.6127 19.3408 17.6127 18.936C17.6127 18.5312 17.2846 18.2032 16.8799 18.2032H14.805V16.0718H17.1034Z" fill="#1357DD"/>
<path d="M32.1832 21.8334C31.413 21.8334 30.6703 21.5211 30.1961 20.9979C29.9245 20.698 29.4611 20.6753 29.1611 20.9469C28.8613 21.2188 28.8384 21.6821 29.1102 21.982C29.8575 22.8066 31.0063 23.2989 32.1832 23.2989C33.6051 23.2989 34.8446 22.3628 35.0662 21.1215C35.2345 20.1788 34.7977 18.9441 33.0671 18.3057C32.1471 17.9664 31.2926 17.5962 31.0612 17.4945C30.8601 17.343 30.763 17.1042 30.8001 16.8457C30.8484 16.5097 31.11 16.239 31.5001 16.1216C32.6186 15.7848 33.6369 16.5975 33.6593 16.6156C33.9691 16.8733 34.4291 16.8325 34.6887 16.5237C34.9491 16.2139 34.909 15.7516 34.5993 15.4912C34.5337 15.4361 32.9717 14.1477 31.0774 14.7181C30.141 15.0002 29.4789 15.7356 29.3494 16.6374C29.2233 17.5104 29.6296 18.381 30.4029 18.8058C30.4447 18.8245 31.4394 19.2672 32.5599 19.6805C33.32 19.961 33.7076 20.3922 33.6234 20.8636C33.5383 21.3404 32.9763 21.8334 32.1832 21.8334Z" fill="#1357DD"/>
<path d="M27.7309 14.6006C27.3338 14.5213 26.9482 14.7793 26.8692 15.1762L25.893 20.0812L24.3554 15.0902C24.351 15.076 24.3444 15.0632 24.3367 15.0511C24.258 14.8513 24.0929 14.6877 23.8718 14.6191C23.4852 14.4997 23.0748 14.716 22.9551 15.1025L21.414 20.0815L20.4413 15.1637C20.3627 14.7668 19.9772 14.5085 19.5802 14.5871C19.1833 14.6656 18.925 15.0511 19.0036 15.4481L20.4181 22.5992C20.5038 23.0077 20.8819 23.3038 21.2974 23.2989C21.6789 23.2964 22.0175 23.0518 22.1403 22.6907C22.1424 22.6845 22.1445 22.678 22.1465 22.6717L23.6556 17.7962L25.158 22.6728C25.161 22.6828 25.1642 22.6926 25.1677 22.7023C25.2947 23.0598 25.6336 23.2989 26.0126 23.2989C26.4273 23.301 26.8007 23.0048 26.8865 22.598L28.3067 15.4623C28.3855 15.0653 28.1278 14.6796 27.7309 14.6006Z" fill="#1357DD"/>
<path d="M4.79419 26.5917C4.79419 26.9965 5.12231 27.3245 5.527 27.3245H17.4689C17.8736 27.3245 18.2017 26.9965 18.2017 26.5917C18.2017 26.1869 17.8736 25.8589 17.4689 25.8589H5.527C5.12231 25.8589 4.79419 26.1869 4.79419 26.5917Z" fill="white"/>
<path d="M17.4688 29.2478H5.527C5.12231 29.2478 4.79419 29.5758 4.79419 29.9806C4.79419 30.3854 5.12231 30.7134 5.527 30.7134H17.4689C17.8736 30.7134 18.2017 30.3854 18.2017 29.9806C18.2016 29.5758 17.8736 29.2478 17.4688 29.2478Z" fill="white"/>
<path d="M21.2429 26.5917C21.2429 26.9965 21.571 27.3245 21.9757 27.3245H33.9176C34.3223 27.3245 34.6505 26.9965 34.6505 26.5917C34.6505 26.1869 34.3223 25.8589 33.9176 25.8589H21.9757C21.5709 25.8589 21.2429 26.1869 21.2429 26.5917Z" fill="white"/>
<path d="M33.9175 29.2478H21.9757C21.571 29.2478 21.2429 29.5758 21.2429 29.9806C21.2429 30.3854 21.571 30.7134 21.9757 30.7134H33.9176C34.3223 30.7134 34.6505 30.3854 34.6505 29.9806C34.6504 29.5758 34.3223 29.2478 33.9175 29.2478Z" fill="white"/>
<path d="M15.4069 40.8899H27.3488C27.7535 40.8899 28.0816 40.5619 28.0816 40.1571C28.0816 39.7523 27.7535 39.4243 27.3488 39.4243H15.4069C15.0022 39.4243 14.6741 39.7523 14.6741 40.1571C14.6741 40.5619 15.0021 40.8899 15.4069 40.8899Z" fill="white"/>
<path d="M15.4069 44.2789H27.3488C27.7535 44.2789 28.0816 43.9508 28.0816 43.546C28.0816 43.1413 27.7535 42.8132 27.3488 42.8132H15.4069C15.0022 42.8132 14.6741 43.1413 14.6741 43.546C14.6741 43.9508 15.0021 44.2789 15.4069 44.2789Z" fill="white"/>
<path d="M31.8556 40.8899H43.7975C44.2022 40.8899 44.5303 40.5619 44.5303 40.1571C44.5303 39.7523 44.2022 39.4243 43.7975 39.4243H31.8556C31.4509 39.4243 31.1228 39.7523 31.1228 40.1571C31.1228 40.5619 31.4508 40.8899 31.8556 40.8899Z" fill="white"/>
<path d="M31.8556 44.2789H43.7975C44.2022 44.2789 44.5303 43.9508 44.5303 43.546C44.5303 43.1413 44.2022 42.8132 43.7975 42.8132H31.8556C31.4509 42.8132 31.1228 43.1413 31.1228 43.546C31.1228 43.9508 31.4508 44.2789 31.8556 44.2789Z" fill="white"/>
<path d="M4.90625 4.90625H6.46875V6.46875H4.90625V4.90625Z" fill="#1357DD"/>
<path d="M8.03125 4.90625H9.59375V6.46875H8.03125V4.90625Z" fill="#1357DD"/>
<path d="M11.1562 4.90625H12.7188V6.46875H11.1562V4.90625Z" fill="#1357DD"/>
</g>
<defs>
<clipPath id="clip0">
<rect width="50" height="50" fill="white"/>
</clipPath>
</defs>
</svg>
