<svg width="50" height="50" viewBox="0 0 50 50" fill="none" xmlns="http://www.w3.org/2000/svg">
<path d="M46.0938 25.7812V18.75C46.0938 16.5961 44.3414 14.8438 42.1875 14.8438H21.875C21.2633 14.8438 20.6922 14.9977 20.1766 15.2492C18.9992 13.882 17.5227 12.8688 15.8648 12.2906C17.5969 11.1773 18.75 9.23828 18.75 7.03125C18.75 3.58516 15.9461 0.78125 12.5 0.78125C9.05391 0.78125 6.25 3.58516 6.25 7.03125C6.25 9.24453 7.40938 11.1875 9.14922 12.2984C5.19297 13.6867 2.34375 17.45 2.34375 21.875V25.7812C1.48081 25.7812 0.78125 26.4808 0.78125 27.3438V47.2188C0.78125 48.3233 1.67668 49.2188 2.78125 49.2188H47.2188C48.3233 49.2188 49.2188 48.3233 49.2188 47.2188V27.7812C49.2188 26.6767 48.3233 25.7812 47.2188 25.7812H46.0938ZM26.5625 38.2812V35.1562H37.5V38.2812H26.5625ZM21.875 33.5938C20.5828 33.5938 19.5312 32.5422 19.5312 31.25V30.4688H44.5312V31.25C44.5312 32.5422 43.4797 33.5938 42.1875 33.5938H21.875ZM42.1875 16.4062C43.4797 16.4062 44.5312 17.4578 44.5312 18.75V28.9062H19.5312V18.75C19.5312 17.4578 20.5828 16.4062 21.875 16.4062H42.1875ZM7.8125 7.03125C7.8125 4.44609 9.91484 2.34375 12.5 2.34375C15.0852 2.34375 17.1875 4.44609 17.1875 7.03125C17.1875 9.61641 15.0852 11.7188 12.5 11.7188C9.91484 11.7188 7.8125 9.61641 7.8125 7.03125ZM3.90625 21.875C3.90625 17.1367 7.76172 13.2812 12.5 13.2812C15.0008 13.2812 17.3062 14.3438 18.9391 16.2016C18.343 16.8875 17.9688 17.7719 17.9688 18.75V25.7812H7.8125V18.75H6.25V25.7812H3.90625V21.875ZM17.9688 27.3438V31.25C17.9688 33.4039 19.7211 35.1562 21.875 35.1562H25V38.2812H22.075C21.9645 38.2812 21.875 38.3708 21.875 38.4813V39.6437C21.875 39.7542 21.9645 39.8438 22.075 39.8438H41.9875C42.098 39.8438 42.1875 39.7542 42.1875 39.6437V38.4813C42.1875 38.3708 42.098 38.2812 41.9875 38.2812H39.0625V35.1562H42.1875C44.3414 35.1562 46.0938 33.4039 46.0938 31.25V27.3438H47.4562C47.5667 27.3438 47.6562 27.4333 47.6562 27.5438V42.9688H2.54375C2.43329 42.9688 2.34375 42.8792 2.34375 42.7687V27.5437C2.34375 27.4333 2.43329 27.3438 2.54375 27.3438H17.9688ZM2.54375 47.6562C2.43329 47.6562 2.34375 47.5667 2.34375 47.4562V44.7313C2.34375 44.6208 2.43329 44.5312 2.54375 44.5312H47.4562C47.5667 44.5312 47.6562 44.6208 47.6562 44.7313V47.4562C47.6562 47.5667 47.5667 47.6562 47.4562 47.6562H2.54375Z" fill="white"/>
<path d="M10.9375 41.4062C13.3125 41.4062 17.9688 40.4625 17.9688 38.2812V32.0312C17.9688 29.85 13.3125 28.9062 10.9375 28.9062C8.5625 28.9062 3.90625 29.85 3.90625 32.0312V38.2812C3.90625 40.4625 8.5625 41.4062 10.9375 41.4062ZM10.9375 39.8438C8.25156 39.8438 5.62109 38.7844 5.46875 38.2812V37.0828C7.04141 37.9055 9.44141 38.2812 10.9375 38.2812C12.4344 38.2812 14.8352 37.9055 16.4078 37.082V38.2633C16.2539 38.7844 13.6234 39.8438 10.9375 39.8438ZM10.9375 30.4688C13.593 30.4688 16.1938 31.5047 16.4023 32.0312C16.1938 32.5578 13.593 33.5938 10.9375 33.5938C8.25703 33.5938 5.63359 32.5383 5.46875 32.0531V32.0461C5.63359 31.5242 8.25703 30.4688 10.9375 30.4688ZM5.46875 33.9578C7.04141 34.7805 9.44141 35.1562 10.9375 35.1562C12.4344 35.1562 14.8344 34.7805 16.407 33.9578V35.1398C16.2477 35.6617 13.6211 36.7188 10.9375 36.7188C8.25156 36.7188 5.62109 35.6594 5.46875 35.1562V33.9578Z" fill="#1357DD"/>
<path d="M22.6562 8.59375C23.1359 8.59375 23.582 8.44766 23.9539 8.19922L26.6797 10.2438C26.6102 10.4641 26.5625 10.6945 26.5625 10.9375C26.5625 12.2297 27.6141 13.2812 28.9062 13.2812C30.1984 13.2812 31.25 12.2297 31.25 10.9375C31.25 10.5766 31.1617 10.2391 31.0148 9.93359L34.1516 6.79688C34.4578 6.94297 34.7953 7.03125 35.1562 7.03125C35.5172 7.03125 35.8547 6.94297 36.1602 6.79609L37.7344 8.37031C37.5883 8.67656 37.5 9.01406 37.5 9.375C37.5 10.6672 38.5516 11.7188 39.8438 11.7188C41.1359 11.7188 42.1875 10.6672 42.1875 9.375C42.1875 9.01406 42.0992 8.67656 41.9523 8.37109L45.0891 5.23438C45.3953 5.38047 45.7328 5.46875 46.0938 5.46875C47.3859 5.46875 48.4375 4.41719 48.4375 3.125C48.4375 1.83281 47.3859 0.78125 46.0938 0.78125C44.8016 0.78125 43.75 1.83281 43.75 3.125C43.75 3.48594 43.8383 3.82344 43.9852 4.12891L40.8484 7.26562C40.5422 7.11953 40.2047 7.03125 39.8438 7.03125C39.4828 7.03125 39.1453 7.11953 38.8398 7.26641L37.2656 5.69219C37.4117 5.38594 37.5 5.04844 37.5 4.6875C37.5 3.39531 36.4484 2.34375 35.1562 2.34375C33.8641 2.34375 32.8125 3.39531 32.8125 4.6875C32.8125 5.04844 32.9008 5.38594 33.0477 5.69141L29.9109 8.82812C29.6047 8.68203 29.2672 8.59375 28.9062 8.59375C28.4266 8.59375 27.9805 8.73984 27.6086 8.98828L24.8828 6.94375C24.9523 6.72344 25 6.49297 25 6.25C25 4.95781 23.9484 3.90625 22.6562 3.90625C21.3641 3.90625 20.3125 4.95781 20.3125 6.25C20.3125 7.54219 21.3641 8.59375 22.6562 8.59375ZM46.0938 2.34375C46.5242 2.34375 46.875 2.69453 46.875 3.125C46.875 3.55547 46.5242 3.90625 46.0938 3.90625C45.6633 3.90625 45.3125 3.55547 45.3125 3.125C45.3125 2.69453 45.6633 2.34375 46.0938 2.34375ZM40.625 9.375C40.625 9.80547 40.2742 10.1562 39.8438 10.1562C39.4133 10.1562 39.0625 9.80547 39.0625 9.375C39.0625 8.94453 39.4133 8.59375 39.8438 8.59375C40.2742 8.59375 40.625 8.94453 40.625 9.375ZM35.1562 3.90625C35.5867 3.90625 35.9375 4.25703 35.9375 4.6875C35.9375 5.11797 35.5867 5.46875 35.1562 5.46875C34.7258 5.46875 34.375 5.11797 34.375 4.6875C34.375 4.25703 34.7258 3.90625 35.1562 3.90625ZM28.9062 10.1562C29.3367 10.1562 29.6875 10.507 29.6875 10.9375C29.6875 11.368 29.3367 11.7188 28.9062 11.7188C28.4758 11.7188 28.125 11.368 28.125 10.9375C28.125 10.507 28.4758 10.1562 28.9062 10.1562ZM22.6562 5.46875C23.0867 5.46875 23.4375 5.81953 23.4375 6.25C23.4375 6.68047 23.0867 7.03125 22.6562 7.03125C22.2258 7.03125 21.875 6.68047 21.875 6.25C21.875 5.81953 22.2258 5.46875 22.6562 5.46875Z" fill="#1357DD"/>
<path d="M42.1875 25.7812H40.625V17.9688H35.9375V25.7812H34.375V21.0938H29.6875V25.7812H28.125V19.5312H23.4375V25.7812H21.875V27.3438H42.1875V25.7812ZM37.5 19.5312H39.0625V25.7812H37.5V19.5312ZM31.25 22.6562H32.8125V25.7812H31.25V22.6562ZM25 21.0938H26.5625V25.7812H25V21.0938Z" fill="#1357DD"/>
</svg>
