<svg width="80" height="80" viewBox="0 0 80 80" fill="none" xmlns="http://www.w3.org/2000/svg">
<path d="M16.2006 20.6516C16.092 20.5936 15.973 20.5577 15.8505 20.5458C15.7279 20.5339 15.6042 20.5462 15.4865 20.5821C15.3687 20.618 15.2591 20.6767 15.1641 20.7549C15.069 20.8331 14.9903 20.9293 14.9324 21.038L14.3445 22.1411C14.2276 22.3605 14.2026 22.6174 14.2751 22.8553C14.3475 23.0931 14.5115 23.2924 14.7309 23.4094C14.9504 23.5263 15.2073 23.5513 15.4451 23.4788C15.683 23.4064 15.8823 23.2424 15.9992 23.023L16.587 21.9198C16.6449 21.8112 16.6809 21.6922 16.6928 21.5697C16.7047 21.4471 16.6924 21.3234 16.6565 21.2057C16.6206 21.0879 16.5619 20.9783 16.4837 20.8833C16.4055 20.7882 16.3093 20.7095 16.2006 20.6516Z" fill="white"/>
<path d="M14.2911 24.2365C14.1825 24.1786 14.0635 24.1427 13.941 24.1307C13.8184 24.1188 13.6947 24.1312 13.577 24.167C13.4592 24.2029 13.3497 24.2616 13.2546 24.3399C13.1595 24.4181 13.0808 24.5143 13.0229 24.6229L8.09942 33.8615C7.98248 34.0809 7.95749 34.3378 8.02996 34.5757C8.10242 34.8135 8.26641 35.0129 8.48583 35.1298C8.70526 35.2467 8.96215 35.2717 9.2 35.1993C9.43785 35.1268 9.63717 34.9628 9.75411 34.7434L14.6775 25.5046C14.7944 25.2852 14.8194 25.0284 14.7469 24.7906C14.6745 24.5527 14.5105 24.3535 14.2911 24.2365Z" fill="white"/>
<path d="M68.6712 15.0565C68.5664 14.833 68.3777 14.6599 68.1461 14.5747C67.9145 14.4894 67.6586 14.4989 67.434 14.6012L51.5355 21.8356C51.2578 21.949 51.0061 22.1179 50.7957 22.3318C50.5853 22.5458 50.4207 22.8003 50.3119 23.0799C50.203 23.3595 50.1523 23.6583 50.1627 23.9582C50.1731 24.258 50.2444 24.5526 50.3724 24.824L50.869 25.8768L50.5974 25.9924C48.9847 26.3282 47.863 26.281 46.1988 25.8132L42.0499 24.6471C40.843 24.3069 39.5628 24.3275 38.3676 24.7067L34.3633 25.9732C33.5543 26.2294 32.804 26.6432 32.1558 27.1909C31.0158 26.8454 29.8177 26.7344 28.6336 26.8646L29.0357 26.099C29.296 25.6013 29.3574 25.0232 29.2074 24.4819C29.0575 23.9406 28.7075 23.4766 28.2282 23.1837C28.2216 23.1798 28.2149 23.1757 28.2082 23.172L13.7394 14.8512C13.6299 14.7882 13.5088 14.748 13.3834 14.7331C13.258 14.7181 13.1308 14.7286 13.0096 14.7639C12.8883 14.7993 12.7755 14.8588 12.6778 14.9389C12.5801 15.019 12.4996 15.118 12.4411 15.2299L0.490827 38.1095C0.377866 38.3257 0.353649 38.5775 0.423318 38.8113C0.492988 39.0451 0.651055 39.2425 0.863952 39.3617L15.2675 47.4217C15.5972 47.6087 15.9696 47.7072 16.3486 47.7076C16.5617 47.7073 16.7737 47.6764 16.978 47.6159C17.2621 47.5331 17.5264 47.3937 17.7552 47.2061C17.9839 47.0184 18.1723 46.7864 18.309 46.524L18.4419 46.2709L19.8499 47.6882L17.7561 50.5945C17.2319 51.3222 17.0183 52.2283 17.1621 53.1135C17.306 53.9988 17.7955 54.7906 18.5232 55.3149L18.8557 55.5545C19.4298 55.9689 20.1202 56.1916 20.8283 56.1907C21.0377 56.1904 21.2466 56.1708 21.4524 56.1321C21.456 56.1581 21.4569 56.184 21.4611 56.2103C21.5312 56.649 21.6875 57.0695 21.9211 57.4474C22.1548 57.8253 22.4611 58.1531 22.8222 58.4118L23.1547 58.6513C23.7288 59.0659 24.419 59.2887 25.1271 59.2881C25.3365 59.2877 25.5454 59.2681 25.7511 59.2295C25.7547 59.2554 25.7557 59.2813 25.7599 59.3076C25.8299 59.7463 25.9863 60.1668 26.2199 60.5447C26.4535 60.9226 26.7598 61.2504 27.121 61.5092L27.4535 61.7487C28.0275 62.1632 28.7177 62.386 29.4257 62.3854C29.6354 62.385 29.8446 62.3653 30.0507 62.3265C30.1122 62.7795 30.2653 63.2151 30.5006 63.6071C30.7359 63.999 31.0484 64.3389 31.4193 64.6062L31.7518 64.8457C32.4797 65.3692 33.3856 65.5824 34.2707 65.4386C35.1557 65.2948 35.9475 64.8057 36.4722 64.0787L37.4347 62.7429L38.9768 63.9751C39.513 64.4344 40.1654 64.7369 40.8624 64.8495C41.5594 64.9621 42.2739 64.8804 42.9274 64.6133C43.581 64.3462 44.1482 63.9041 44.5668 63.3355C44.9854 62.767 45.2392 62.0941 45.3002 61.3907C45.8516 61.5813 46.4392 61.6436 47.0183 61.5729C47.5974 61.5022 48.1527 61.3003 48.6421 60.9826C49.1314 60.665 49.5418 60.2399 49.8422 59.7398C50.1425 59.2396 50.3248 58.6776 50.3752 58.0963C50.9162 58.2832 51.4921 58.3467 52.0608 58.2822C52.6295 58.2177 53.1766 58.0268 53.6619 57.7235C54.1473 57.4201 54.5587 57.0121 54.8659 56.5292C55.1732 56.0464 55.3685 55.5009 55.4377 54.9328C55.9214 55.1469 56.4444 55.2577 56.9733 55.2581C57.0702 55.2581 57.1679 55.2545 57.2655 55.2471C57.7708 55.2102 58.2637 55.0736 58.716 54.8453C59.1683 54.617 59.5709 54.3015 59.9007 53.917L59.9488 53.8613C60.2875 53.4713 60.5417 53.0152 60.6951 52.5219C60.8486 52.0287 60.8981 51.5089 60.8405 50.9956C60.724 50.027 60.2453 49.1384 59.5005 48.5084L58.5655 47.7012C59.2453 47.2295 59.8599 46.6704 60.3937 46.0382C60.5893 46.3609 60.8647 46.6278 61.1934 46.8131C61.5221 46.9984 61.893 47.0959 62.2704 47.0962C62.5748 47.0959 62.8759 47.0329 63.1551 46.9113L63.1799 46.9003L79.0766 39.4592C79.2444 39.3805 79.3852 39.2539 79.4812 39.0955C79.5773 38.937 79.6244 38.7537 79.6166 38.5685C79.6094 38.4377 79.5761 38.3096 79.5185 38.1918L68.6712 15.0565ZM16.7619 45.4362C16.7264 45.5038 16.6778 45.5636 16.6188 45.6121C16.5598 45.6605 16.4917 45.6967 16.4185 45.7184C16.3454 45.7402 16.2686 45.747 16.1927 45.7386C16.1168 45.7301 16.0434 45.7066 15.9768 45.6693L2.57442 38.1693L13.6505 16.9638L27.0568 24.6735C27.1825 24.7459 27.2753 24.8642 27.3158 25.0036C27.3563 25.1429 27.3412 25.2925 27.2738 25.421L16.7619 45.4362ZM22.0549 53.6909C21.821 54.0147 21.4682 54.2325 21.0739 54.2966C20.6796 54.3606 20.276 54.2657 19.9516 54.0326L19.6191 53.7931C19.4585 53.6774 19.3223 53.5313 19.2182 53.363C19.1141 53.1947 19.0442 53.0075 19.0125 52.8122C18.9808 52.6169 18.9878 52.4172 19.0333 52.2247C19.0787 52.0321 19.1617 51.8503 19.2774 51.6898L23.513 45.8106C23.7468 45.4866 24.0996 45.2687 24.494 45.2046C24.8883 45.1405 25.292 45.2356 25.6163 45.4688L25.9488 45.7084C26.1094 45.824 26.2456 45.9701 26.3497 46.1384C26.4538 46.3067 26.5237 46.4938 26.5554 46.6891C26.5871 46.8845 26.5801 47.0841 26.5346 47.2767C26.4892 47.4692 26.4062 47.651 26.2905 47.8115L22.0549 53.6909ZM26.3549 56.7879C26.1207 57.1118 25.7677 57.3296 25.3732 57.3937C24.9788 57.4577 24.575 57.3628 24.2504 57.1296L23.9179 56.8901C23.5937 56.6565 23.3755 56.3037 23.3115 55.9093C23.2474 55.5149 23.3426 55.1112 23.5761 54.787L26.7129 50.4331C26.9468 50.1093 27.2995 49.8914 27.6938 49.8273C28.0881 49.7632 28.4917 49.8581 28.8161 50.0912L29.1486 50.3307C29.4727 50.5644 29.6907 50.9171 29.755 51.3114C29.8193 51.7058 29.7246 52.1095 29.4916 52.434L26.3549 56.7879ZM30.6518 59.8849C30.4179 60.2088 30.0651 60.4266 29.6708 60.4907C29.2765 60.5548 28.8729 60.4599 28.5485 60.2268L28.216 59.9871C27.8918 59.7535 27.6737 59.4007 27.6096 59.0063C27.5455 58.6119 27.6407 58.2082 27.8743 57.884L30.1119 54.7779C30.3459 54.4541 30.6987 54.2364 31.093 54.1723C31.4872 54.1083 31.8908 54.2033 32.2152 54.4363L32.5477 54.6759C32.8716 54.9098 33.0894 55.2626 33.1535 55.6569C33.2175 56.0512 33.1226 56.4548 32.8894 56.7792L30.6518 59.8849ZM36.289 61.1242L34.9505 62.982C34.7166 63.3058 34.3639 63.5237 33.9696 63.5878C33.5753 63.6519 33.1716 63.5569 32.8472 63.3238L32.5147 63.0843C32.1909 62.8504 31.9731 62.4976 31.909 62.1033C31.845 61.709 31.9399 61.3054 32.173 60.981L33.5116 59.1232C33.7454 58.7994 34.0982 58.5815 34.4925 58.5174C34.8868 58.4533 35.2904 58.5482 35.6147 58.7813L35.9472 59.0209C36.2712 59.2547 36.4891 59.6074 36.5533 60.0017C36.6175 60.396 36.522 60.7997 36.289 61.1242ZM57.0563 46.3857L57.1619 46.4904L54.3604 44.072C54.0166 43.7752 53.6833 43.4671 53.3604 43.1477L47.8596 37.7084C47.7763 37.6263 47.6706 37.5707 47.5558 37.5485C47.4409 37.5263 47.3221 37.5385 47.2142 37.5836C47.1063 37.6286 47.0141 37.7045 46.9492 37.8018C46.8843 37.8991 46.8495 38.0133 46.8493 38.1303C46.8912 38.8993 47.1965 39.6305 47.714 40.201L52.0676 44.5053C52.3891 44.8233 52.721 45.13 53.0633 45.4256L58.3355 49.9795C58.5299 50.1463 58.6879 50.3513 58.7998 50.5817C58.9117 50.8121 58.9752 51.0631 58.9861 51.319C59.0013 51.8192 58.8244 52.3063 58.4916 52.6801L58.4822 52.691C58.3127 52.8892 58.1055 53.0519 57.8728 53.1697C57.64 53.2875 57.3863 53.358 57.1261 53.3773C56.8684 53.3976 56.6091 53.3662 56.3636 53.2851C56.1181 53.204 55.8912 53.0747 55.6963 52.9048L50.0535 48.0298C49.8678 47.8645 49.6254 47.7773 49.377 47.7865C49.1286 47.7957 48.8933 47.9006 48.7204 48.0792C48.6355 48.1716 48.57 48.2802 48.5279 48.3985C48.4857 48.5167 48.4678 48.6422 48.4751 48.7676C48.4824 48.8929 48.5147 49.0155 48.5703 49.1281C48.6259 49.2406 48.7034 49.3409 48.7985 49.4229L48.8093 49.4321L52.9186 52.9826C53.3127 53.3247 53.5548 53.8093 53.5916 54.3299C53.6283 54.8504 53.4568 55.3643 53.1147 55.7584C52.7727 56.1525 52.288 56.3945 51.7675 56.4313C51.2469 56.4681 50.7331 56.2966 50.339 55.9545L46.2254 52.4009C46.1326 52.318 46.0242 52.2543 45.9066 52.2137C45.7889 52.1731 45.6644 52.1563 45.5402 52.1644C45.416 52.1724 45.2947 52.2051 45.1832 52.2605C45.0718 52.3159 44.9725 52.3929 44.8912 52.4871C44.8098 52.5813 44.7481 52.6907 44.7094 52.809C44.6708 52.9273 44.6562 53.0521 44.6663 53.1761C44.6764 53.3002 44.7111 53.421 44.7684 53.5314C44.8257 53.6419 44.9044 53.7399 44.9999 53.8196L47.8369 56.2702C48.0342 56.4387 48.1963 56.6444 48.3138 56.8757C48.4313 57.107 48.5019 57.3592 48.5216 57.6178C48.5412 57.8765 48.5095 58.1365 48.4284 58.3829C48.3472 58.6292 48.2181 58.8571 48.0485 59.0534C47.8789 59.2497 47.6722 59.4105 47.4402 59.5267C47.2083 59.6428 46.9556 59.7119 46.6969 59.73C46.4381 59.7481 46.1783 59.7149 45.9324 59.6322C45.6865 59.5496 45.4594 59.4191 45.2641 59.2484L42.4569 56.8237C42.2713 56.6584 42.0289 56.5713 41.7805 56.5805C41.5321 56.5897 41.2969 56.6945 41.124 56.8731C41.0391 56.9655 40.9736 57.0741 40.9315 57.1924C40.8893 57.3106 40.8714 57.4361 40.8787 57.5615C40.8859 57.6868 40.9183 57.8094 40.9739 57.922C41.0294 58.0345 41.107 58.1348 41.2021 58.2168L42.763 59.5653C43.1579 59.9068 43.4009 60.3911 43.4386 60.9118C43.4764 61.4325 43.3057 61.9469 42.9642 62.3417C42.6227 62.7366 42.1383 62.9796 41.6176 63.0173C41.0969 63.0551 40.5826 62.8844 40.1877 62.5429L38.344 61.0685C38.509 60.4119 38.4734 59.7209 38.2416 59.0848C38.0099 58.4487 37.5927 57.8967 37.044 57.5001L36.7115 57.2606C36.2002 56.8927 35.5958 56.6761 34.9672 56.6356C35.1108 55.9896 35.0621 55.3158 34.827 54.6973C34.5918 54.0788 34.1807 53.5427 33.6443 53.1553L33.3118 52.9157C32.8005 52.5479 32.1961 52.3313 31.5676 52.2907C31.7112 51.6448 31.6624 50.971 31.4273 50.3525C31.1922 49.7341 30.7811 49.198 30.2447 48.8106L29.9121 48.571C29.4348 48.2271 28.8755 48.0148 28.2902 47.9552C28.5064 47.2762 28.5024 46.5462 28.2788 45.8696C28.0551 45.193 27.6232 44.6044 27.0449 44.1881L26.7124 43.9485C25.9843 43.4253 25.0785 43.2122 24.1935 43.356C23.3085 43.4997 22.5167 43.9887 21.9918 44.7156L20.9605 46.1465L19.3557 44.531L27.536 28.9554C28.5996 28.6728 29.7104 28.6145 30.7977 28.7843C30.6358 29.0511 30.4933 29.3292 30.3713 29.6165L27.0696 38.6506C26.9973 38.8711 27.0094 39.1106 27.1036 39.3227C27.1977 39.5348 27.3671 39.7044 27.5791 39.7988L27.8419 39.916C28.7988 40.3539 29.8513 40.5412 30.9005 40.4605C31.9497 40.3797 32.9611 40.0336 33.8397 39.4545C34.5989 38.9531 35.2363 38.2884 35.7053 37.5089C36.1743 36.7295 36.4631 35.855 36.5505 34.9495V34.9474C36.5653 34.7844 36.5952 34.623 36.6397 34.4654C36.7804 33.9762 37.1232 33.0748 37.8022 32.7779C37.9796 32.7017 38.1779 32.6895 38.3633 32.7432L39.8899 33.1738C40.5448 33.3585 41.1421 33.7064 41.626 34.1848L48.0164 40.5C48.5699 41.0469 49.1121 41.1022 49.4873 40.8083C49.5928 40.7264 49.6795 40.623 49.7418 40.505C49.8041 40.3869 49.8404 40.2569 49.8484 40.1236C49.8563 39.9904 49.8358 39.857 49.788 39.7323C49.7403 39.6076 49.6665 39.4946 49.5715 39.4008C49.4766 39.307 42.9452 32.8524 42.9452 32.8524C42.235 32.151 41.3588 31.6407 40.3983 31.369L38.5216 30.8396C38.4378 30.8147 38.3507 30.8028 38.2633 30.8043C37.0404 30.8093 35.9961 31.499 35.323 32.746C35.0625 33.2368 34.8688 33.7602 34.7471 34.3023C34.7252 34.402 34.7095 34.5031 34.7002 34.6048L34.6846 34.7701C34.6234 35.3985 34.4226 36.0052 34.0967 36.5459C33.7707 37.0866 33.3281 37.5476 32.801 37.8951C32.2628 38.2434 31.6547 38.4691 31.0196 38.5561C30.3845 38.6432 29.738 38.5894 29.126 38.3987L32.1027 30.3382C32.3591 29.7299 32.7446 29.1846 33.2326 28.7401C33.7206 28.2956 34.2994 27.9625 34.929 27.7638L38.9332 26.4971C39.7802 26.2286 40.6873 26.2139 41.5426 26.4549L45.6915 27.6212C47.6944 28.1837 49.104 28.2334 51.0788 27.8099L51.6693 27.5767L59.4715 44.1199C58.8773 45.0723 58.0444 45.8532 57.0563 46.3857ZM62.9711 44.9271C62.7438 45.0336 62.4835 45.0455 62.2474 44.9603C62.0112 44.8751 61.8184 44.6998 61.7113 44.4728L52.3816 24.6902C52.3098 24.538 52.2752 24.3709 52.2806 24.2027C52.2861 24.0344 52.3314 23.8699 52.4129 23.7226C52.5304 23.5177 52.7108 23.3563 52.9274 23.2621L67.3649 16.6918L77.4296 38.1588L62.9711 44.9271Z" fill="white"/>
</svg>
