<svg width="70" height="70" viewBox="0 0 70 70" fill="none" xmlns="http://www.w3.org/2000/svg">
<path d="M68.7931 32.7552H53.3569V29.7742C53.3561 29.3388 53.1209 28.9375 52.7414 28.7242L36.2069 19.4311V14.7001H39.4776V16.4983C39.4776 17.1648 40.018 17.7052 40.6845 17.7052H50.5448C51.2113 17.7049 51.7514 17.1644 51.7513 16.4979C51.7513 16.3582 51.7268 16.2195 51.6793 16.088L50.6897 13.2759L51.6914 10.5242C51.918 9.89737 51.5936 9.20551 50.9668 8.97892C50.8354 8.9314 50.6967 8.90711 50.5569 8.90696H46.0672V7.15696C46.0672 6.49045 45.5269 5.95006 44.8603 5.95006H36.2069V4.47765C36.2069 3.81114 35.6665 3.27075 35 3.27075C34.3335 3.27075 33.7931 3.81114 33.7931 4.47765V19.4311L17.2586 28.7121C16.8791 28.9255 16.6439 29.3267 16.6431 29.7621V32.7432H1.2069C0.540388 32.7432 0 33.2836 0 33.9501V65.5225C0 66.189 0.540388 66.7294 1.2069 66.7294H68.7931C69.4596 66.7294 70 66.189 70 65.5225V33.9621C70 33.2956 69.4596 32.7552 68.7931 32.7552ZM46.0672 13.4932L46.019 13.4449V11.369H48.7707L48.2759 12.9139C48.177 13.1827 48.177 13.4778 48.2759 13.7466L48.8431 15.2914H41.8914V14.7001H44.8603C45.5269 14.7001 46.0672 14.1597 46.0672 13.4932ZM36.2069 8.36386H43.6534V10.1621V12.2863H36.2069V8.36386ZM16.6431 64.3156H2.41379V35.169H16.6431V64.3156ZM33.7931 64.3156H27.4569V50.5328H33.7931V64.3156ZM42.5431 64.3156H36.2069V50.5328H42.5431V64.3156ZM50.9914 64.3156H44.9569V49.3259C44.9569 48.6594 44.4165 48.119 43.75 48.119H26.25C25.5835 48.119 25.0431 48.6594 25.0431 49.3259V64.3156H19.0086V30.5225L35 21.519L50.9431 30.4742L50.9914 33.9501V64.3156ZM67.5862 64.3156H53.3569V35.169H67.5862V64.3156Z" fill="white"/>
<path d="M34.9998 25.2122C32.2049 25.2188 29.9429 27.4863 29.9429 30.2811C29.9495 33.074 32.2189 35.3326 35.0118 35.3259C37.8047 35.3193 40.0633 33.0499 40.0567 30.257C40.05 27.4689 37.7878 25.2122 34.9998 25.2122ZM34.9998 32.9122C33.54 32.9055 32.3621 31.7167 32.3687 30.257C32.3754 28.8067 33.5494 27.6326 34.9998 27.626C36.4615 27.6326 37.6429 28.8194 37.6429 30.2811H37.6549C37.6483 31.7409 36.4595 32.9188 34.9998 32.9122Z" fill="white"/>
<path d="M7.73606 37.8242H5.32227V42.6518H7.73606V37.8242Z" fill="white"/>
<path d="M13.6863 37.8242H11.2725V42.6518H13.6863V37.8242Z" fill="white"/>
<path d="M27.5048 37.8242H22.6772V40.238H27.5048V37.8242Z" fill="white"/>
<path d="M37.414 37.8242H32.5864V40.238H37.414V37.8242Z" fill="white"/>
<path d="M47.3227 37.8242H42.4951V40.238H47.3227V37.8242Z" fill="white"/>
<path d="M27.5048 43.4482H22.6772V45.862H27.5048V43.4482Z" fill="white"/>
<path d="M37.414 43.4482H32.5864V45.862H37.414V43.4482Z" fill="white"/>
<path d="M47.3227 43.4482H42.4951V45.862H47.3227V43.4482Z" fill="white"/>
<path d="M7.73606 47.3225H5.32227V52.1501H7.73606V47.3225Z" fill="white"/>
<path d="M13.6863 47.3225H11.2725V52.1501H13.6863V47.3225Z" fill="white"/>
<path d="M7.73606 56.8328H5.32227V61.6604H7.73606V56.8328Z" fill="white"/>
<path d="M13.6863 56.8328H11.2725V61.6604H13.6863V56.8328Z" fill="white"/>
<path d="M58.7273 37.8242H56.3135V42.6518H58.7273V37.8242Z" fill="white"/>
<path d="M64.678 37.8242H62.2642V42.6518H64.678V37.8242Z" fill="white"/>
<path d="M58.7273 47.3225H56.3135V52.1501H58.7273V47.3225Z" fill="white"/>
<path d="M64.678 47.3225H62.2642V52.1501H64.678V47.3225Z" fill="white"/>
<path d="M58.7273 56.8328H56.3135V61.6604H58.7273V56.8328Z" fill="white"/>
<path d="M64.678 56.8328H62.2642V61.6604H64.678V56.8328Z" fill="white"/>
</svg>
