<svg width="70" height="70" viewBox="0 0 70 70" fill="none" xmlns="http://www.w3.org/2000/svg">
<g clip-path="url(#clip0)">
<path d="M21.0846 40.8896C20.7901 40.7855 20.4888 40.6763 20.1884 40.5626V35.7659C20.9433 35.9467 21.3933 36.3284 21.4333 36.3632C21.8454 36.7365 22.4821 36.7085 22.8599 36.299C23.2397 35.8872 23.2137 35.2454 22.8019 34.8656C22.7442 34.8124 21.7751 33.9392 20.1884 33.7012V32.7216C20.1884 32.1615 19.7342 31.7073 19.1741 31.7073C18.6139 31.7073 18.1598 32.1615 18.1598 32.7216V33.7791C18.0092 33.8122 17.8565 33.8503 17.7004 33.8975C16.2494 34.3346 15.1652 35.5764 14.8708 37.1383C14.6026 38.5624 15.0587 39.9356 16.0615 40.7221C16.5928 41.1388 17.2541 41.5205 18.1599 41.9237V48.0057C17.3764 47.948 16.8336 47.7567 15.9442 47.1748C15.4754 46.868 14.8466 46.9996 14.5401 47.4684C14.2335 47.9372 14.3648 48.5658 14.8337 48.8725C16.1303 49.7207 17.0162 49.9736 18.1599 50.038V51.1349C18.1599 51.695 18.6141 52.1492 19.1742 52.1492C19.7343 52.1492 20.1885 51.695 20.1885 51.1349V49.9573C22.4642 49.5108 23.7935 47.6343 24.0882 45.8815C24.4667 43.6279 23.2879 41.6685 21.0846 40.8896ZM17.3132 39.1259C16.9088 38.8086 16.7366 38.191 16.8642 37.514C16.9785 36.9074 17.3789 36.1785 18.1596 35.8838V39.6669C17.8411 39.4941 17.553 39.3139 17.3132 39.1259ZM22.0873 45.5453C21.9311 46.4739 21.2845 47.4581 20.1882 47.8503V42.7235C20.2614 42.7498 20.333 42.7758 20.4084 42.8024C22.2828 43.4648 22.1674 45.0692 22.0873 45.5453Z" fill="white"/>
<path d="M69.9441 39.5843C69.7696 38.7916 69.2109 38.1513 68.4491 37.8713L65.5458 36.8042C65.0203 36.611 64.4372 36.8805 64.2439 37.4063C64.0507 37.9321 64.3202 38.5151 64.8461 38.7083L67.7493 39.7754C67.9004 39.8309 67.948 39.9526 67.9628 40.0201C67.9777 40.0877 67.9856 40.2179 67.8716 40.3318L41.9558 66.2477C41.8417 66.3618 41.7113 66.3536 41.644 66.3389C41.5764 66.324 41.4549 66.2765 41.3994 66.1252L37.7573 56.216C37.5173 55.563 37.0051 55.051 36.3523 54.811L26.4432 51.1691C26.292 51.1135 26.2445 50.9919 26.2296 50.9244C26.2147 50.8569 26.2068 50.7266 26.3207 50.6127L52.2367 24.6968C52.3507 24.5828 52.4807 24.5909 52.5484 24.6056C52.6159 24.6205 52.7375 24.668 52.793 24.8192L56.4349 34.7283C56.6748 35.3814 57.1871 35.8934 57.8401 36.1333L65.3791 38.9042C65.9049 39.0977 66.4879 38.8279 66.6811 38.3021C66.8743 37.7763 66.6048 37.1933 66.0788 37.0001L58.5397 34.2291C58.4466 34.1949 58.3734 34.1218 58.3393 34.0285L54.6973 24.1194C54.4173 23.3577 53.7771 22.7989 52.9845 22.6244C52.1922 22.4498 51.3763 22.6886 50.8022 23.2624L49.8211 24.2435V14.1801C49.8211 12.8752 48.7594 11.8134 47.4544 11.8134H37.1234C38.0685 9.9759 37.7732 7.66016 36.2357 6.12275C34.9193 4.80643 33.0105 4.37398 31.3003 4.92086C30.6398 3.00488 28.8198 1.62402 26.6823 1.62402C24.545 1.62402 22.7251 3.00461 22.0645 4.92031C20.3544 4.37248 18.4475 4.8041 17.1291 6.12262C16.2065 7.04506 15.6985 8.27156 15.6985 9.57627C15.6985 10.3676 15.8866 11.1298 16.2396 11.8133H15.3887C14.8285 11.8133 14.3743 12.2674 14.3743 12.8276C14.3743 13.3877 14.8285 13.8419 15.3887 13.8419H22.617V23.4421C21.4948 23.2379 20.3524 23.1322 19.2038 23.1322C17.0896 23.1322 15.1 23.4617 13.1961 24.0958L5.57238 24.0961V14.18C5.57238 13.9935 5.724 13.8419 5.91049 13.8419H15.9857C16.5458 13.8419 17 13.3877 17 12.8276C17 12.2674 16.5458 11.8133 15.9857 11.8133H5.91021C4.60523 11.8133 3.54348 12.875 3.54348 14.18V31.213C3.54348 31.2191 3.5443 31.2251 3.54443 31.2314C1.31318 34.3686 0 38.2018 0 42.3359C0 46.4607 1.29363 50.3946 3.74104 53.7125C3.93996 53.9821 4.24689 54.1247 4.55807 54.1247C4.76725 54.1247 4.9782 54.0603 5.15936 53.9266C5.61025 53.5941 5.70609 52.959 5.37346 52.5081C3.18514 49.5416 2.0285 46.024 2.0285 42.3357C2.0285 32.8655 9.73314 25.161 19.2034 25.161C27.1413 25.161 33.965 30.5089 35.8721 38.1922L34.1549 39.9094C33.6413 36.7203 32.1213 33.7831 29.7639 31.4876C26.9175 28.7161 23.167 27.1896 19.2034 27.1896C10.8518 27.1896 4.05713 33.9841 4.05713 42.3357C4.05713 50.6873 10.8516 57.482 19.2034 57.482C22.6503 57.482 25.989 56.3022 28.6714 54.1494L30.8455 54.9484C27.685 57.8631 23.5205 59.5106 19.2034 59.5106C15.285 59.5106 11.4496 58.1504 8.40383 55.6807C7.96879 55.3278 7.33004 55.3945 6.97717 55.8297C6.6243 56.2649 6.69102 56.9035 7.12619 57.2565C10.5321 60.0184 14.8213 61.5394 19.2034 61.5394C24.3739 61.5394 29.3479 59.4272 32.9562 55.7242L35.6524 56.7151C35.7457 56.7494 35.8188 56.8226 35.853 56.9158L39.4949 66.8249C39.7749 67.5867 40.4152 68.1455 41.2076 68.3199C41.3785 68.3575 41.5505 68.376 41.7208 68.376C42.3407 68.376 42.9397 68.1322 43.39 67.682L69.306 41.7663C69.8798 41.1925 70.1184 40.3768 69.9441 39.5843ZM5.57211 28.8237V26.125H8.9198C7.70451 26.8987 6.58191 27.805 5.57211 28.8237ZM47.7924 14.1801V24.0962H30.7476V13.842H47.4543C47.6407 13.842 47.7924 13.9938 47.7924 14.1801ZM34.8012 7.55721C35.9145 8.67064 35.9145 10.4823 34.8013 11.5955C34.7569 11.64 34.6706 11.7139 34.5209 11.8134H29.579C31.0513 9.04389 31.433 7.68873 31.5316 7.00787C32.6182 6.47658 33.931 6.68699 34.8012 7.55721ZM26.6822 3.65266C28.2568 3.65266 29.5378 4.93371 29.5378 6.50816C29.5378 6.80129 29.371 8.04434 27.2684 11.8133H26.0961C23.9939 8.04529 23.8267 6.80184 23.8267 6.50816C23.8267 4.93371 25.1076 3.65266 26.6822 3.65266ZM18.5634 11.5956C18.024 11.0562 17.727 10.3392 17.727 9.57641C17.727 8.81365 18.024 8.09656 18.5634 7.55721C19.4351 6.68549 20.746 6.47631 21.8329 7.00842C21.9316 7.68955 22.313 9.04402 23.7854 11.8134H18.8437C18.694 11.714 18.608 11.6402 18.5634 11.5956ZM24.6453 13.842H28.719V24.0962H25.2068C25.2023 24.0962 25.1981 24.0968 25.1936 24.0969C25.0117 24.037 24.8288 23.9807 24.6453 23.9263V13.842ZM31.2056 27.3548C30.6538 26.9119 30.0787 26.5019 29.4844 26.125H47.7925V26.2721L43.8659 30.1986H34.0707C33.2212 29.1578 32.2617 28.2024 31.2056 27.3548ZM35.5194 32.2273H41.8372L37.5144 36.5501C37.0322 35.0319 36.3595 33.5789 35.5194 32.2273ZM19.2035 55.4535C11.9704 55.4535 6.08604 49.569 6.08604 42.336C6.08604 35.103 11.9705 29.2185 19.2035 29.2185C26.1667 29.2185 32.0026 34.8251 32.3075 41.7573L24.8864 49.1784C24.3126 49.7522 24.074 50.568 24.2484 51.3605C24.4229 52.1531 24.9818 52.7933 25.7435 53.0733L26.3829 53.3084C24.2587 54.7008 21.7655 55.4535 19.2035 55.4535Z" fill="white"/>
<path d="M49.7363 54.0177C49.864 54.0177 49.9942 53.9934 50.1197 53.942C50.6383 53.7301 50.8868 53.1378 50.6748 52.6192L44.8344 38.3316C44.6226 37.8131 44.0305 37.5642 43.5117 37.7765C42.9931 37.9884 42.7445 38.5807 42.9566 39.0993L48.7969 53.3869C48.9576 53.7798 49.3364 54.0177 49.7363 54.0177Z" fill="white"/>
<path d="M37.6768 42.5613C36.9661 43.272 36.6186 44.2479 36.6982 45.3092C36.7735 46.3133 37.2285 47.2799 37.9792 48.0306C38.7301 48.7815 39.6966 49.2365 40.7008 49.3117C40.8003 49.3192 40.8991 49.3229 40.997 49.3229C41.9428 49.3229 42.8046 48.977 43.4487 48.333C44.1593 47.6224 44.5069 46.6465 44.4273 45.5851C44.352 44.5809 43.897 43.6145 43.1462 42.8636C42.3954 42.1127 41.4289 41.6577 40.4247 41.5826C39.3626 41.5026 38.3873 41.8507 37.6768 42.5613ZM41.7118 44.2982C42.1193 44.7059 42.3654 45.2168 42.4044 45.7369C42.4391 46.1997 42.3005 46.6123 42.0141 46.8987C41.7278 47.185 41.3148 47.3231 40.8524 47.2889C40.3323 47.25 39.8214 47.004 39.4137 46.5963C39.0061 46.1886 38.76 45.6777 38.7211 45.1577C38.6863 44.695 38.825 44.2823 39.1114 43.9959C39.3688 43.7385 39.7283 43.6005 40.1347 43.6005C40.1803 43.6005 40.2265 43.6023 40.2731 43.6057C40.7932 43.6445 41.3041 43.8905 41.7118 44.2982C41.7117 44.2982 41.7117 44.2982 41.7118 44.2982Z" fill="white"/>
<path d="M53.5816 50.4995C54.5276 50.4995 55.3893 50.1536 56.0332 49.5096C57.4577 48.0852 57.3221 45.6316 55.731 44.0402C55.731 44.0402 55.731 44.0402 55.7308 44.0402C54.1397 42.4489 51.6861 42.3135 50.2615 43.7378C48.8371 45.1623 48.9727 47.6158 50.564 49.2071C51.3148 49.958 52.2813 50.413 53.2855 50.4881C53.3851 50.4958 53.4839 50.4995 53.5816 50.4995ZM51.6961 45.1724C51.9648 44.9037 52.3291 44.7734 52.721 44.7734C53.2529 44.7734 53.8355 45.0139 54.2964 45.4748C55.0967 46.2752 55.2324 47.4418 54.5987 48.0753C54.3124 48.3615 53.8996 48.5001 53.4371 48.4655C52.917 48.4266 52.406 48.1806 51.9984 47.7729C51.1982 46.9724 51.0626 45.8059 51.6961 45.1724Z" fill="white"/>
</g>
<defs>
<clipPath id="clip0">
<rect width="70" height="70" fill="white"/>
</clipPath>
</defs>
</svg>
