<svg width="140" height="30" viewBox="0 0 140 30" fill="none" xmlns="http://www.w3.org/2000/svg">
<path d="M0 0C10.112 0 20.1505 0 30.2626 0C30.2626 10 30.2626 19.9593 30.2626 30C20.1873 30 10.112 30 0 30C0 20 0 10.0407 0 0ZM16.4366 20.8537V9.34959H12.7595V23.6179C12.7595 23.6179 18.8268 23.7398 21.6214 23.6179C24.1586 23.5366 25.85 21.9106 26.5119 19.2276C27.2106 16.3415 27.2473 13.4146 26.6222 10.4878C26.2177 8.57724 25.2249 7.03252 23.4231 6.42276C22.5406 6.13821 21.6214 5.97561 20.7021 5.97561C15.0393 5.93496 3.05199 5.97561 3.05199 5.97561V8.57724C3.05199 8.57724 7.79546 8.57724 8.23671 8.57724C8.23671 8.86179 8.23671 9.02439 8.23671 9.22764C8.23671 12.5203 8.23671 23.6179 8.23671 23.6179H11.8403V8.57724C11.8403 8.57724 17.2456 8.57724 19.6725 8.57724C21.4375 8.57724 22.3568 9.39024 22.7613 11.2602C23.1657 13.0081 23.129 14.7967 22.9819 16.5447C22.9083 17.4797 22.6509 18.4146 22.3936 19.3089C22.0994 20.1626 21.4743 20.7724 20.6285 20.8943C19.0842 20.8537 16.4366 20.8537 16.4366 20.8537Z" fill="#A6A8AA"/>
<path d="M51.9944 18.2517C51.9944 15.2029 51.9944 12.2355 51.9944 9.18667C53.2446 9.18667 54.458 9.18667 55.745 9.18667C55.745 9.63382 55.745 10.081 55.745 10.5281C56.4069 9.38992 57.363 8.94276 58.5029 8.94276C59.606 8.94276 60.6356 9.18667 61.2239 10.4062C61.9961 9.10537 63.136 8.86146 64.423 8.94276C65.9674 9.06471 66.7763 9.91838 66.8131 11.6663C66.8499 13.5363 66.8499 15.3655 66.8499 17.2355C66.8499 17.5607 66.8499 17.8859 66.8499 18.2517C65.5261 18.2517 64.2391 18.2517 62.8418 18.2517C62.8418 18.0891 62.8418 17.8859 62.8418 17.7233C62.8418 16.1786 62.8418 14.6338 62.8418 13.0485C62.8418 12.8859 62.8418 12.7233 62.8418 12.6013C62.8051 12.0322 62.5477 11.7477 62.1064 11.7477C61.7019 11.7883 61.4445 12.0322 61.4445 12.642C61.4445 14.3086 61.4445 15.9347 61.4445 17.6013C61.4445 17.8046 61.4445 18.0078 61.4445 18.2517C60.1208 18.2517 58.797 18.2517 57.4365 18.2517C57.4365 18.0891 57.4365 17.8859 57.4365 17.7233C57.4365 16.2192 57.4365 14.7151 57.4365 13.2111C57.4365 12.9672 57.4365 12.6826 57.3997 12.4387C57.363 11.9916 57.1423 11.7477 56.7378 11.7477C56.3334 11.7477 56.1127 11.9916 56.0392 12.4387C56.0024 12.6826 56.0024 12.9265 56.0024 13.1704C56.0024 14.8371 56.0024 16.5444 56.0024 18.2924C54.6419 18.2517 53.3181 18.2517 51.9944 18.2517Z" fill="white"/>
<path d="M37.1755 18.2929C37.6536 16.8295 38.0948 15.4473 38.5361 14.0652C39.345 11.5043 40.154 8.98395 40.963 6.42298C41.0733 6.09778 41.1836 5.97583 41.5145 5.97583C43.3163 6.01648 45.1549 5.97583 46.9934 5.97583C48.3172 10.0409 49.6042 14.1059 50.9647 18.2522C50.4867 18.2522 50.119 18.2522 49.7145 18.2522C48.7584 18.2522 47.8392 18.2522 46.8831 18.2522C46.5889 18.2522 46.4419 18.1709 46.3683 17.8457C46.2212 17.1953 46.0374 16.5449 45.8167 15.9351C45.78 15.7725 45.5593 15.6099 45.4123 15.6099C44.4194 15.5693 43.4266 15.6099 42.4338 15.5693C42.1764 15.5693 42.0661 15.6506 42.0293 15.9351C41.8822 16.5856 41.6984 17.236 41.5145 17.8864C41.4778 18.0083 41.3307 18.2116 41.2204 18.2116C39.8966 18.2929 38.5728 18.2929 37.1755 18.2929ZM42.728 12.6425C43.5737 12.6425 44.3459 12.6425 45.1916 12.6425C44.7872 11.301 44.4194 10.0409 44.015 8.74005C43.9782 8.74005 43.9414 8.74005 43.9046 8.74005C43.5002 10.0002 43.1325 11.301 42.728 12.6425Z" fill="white"/>
<path d="M128.552 18.2927C127.338 18.2927 126.125 18.2927 124.874 18.2927C124.874 17.8049 124.874 17.317 124.874 16.8292C124.801 16.8699 124.764 16.8699 124.727 16.8699C124.139 18.2114 123.109 18.6179 121.859 18.5366C120.572 18.4553 119.579 17.8048 119.028 16.504C118.329 14.7967 118.292 13.0081 118.881 11.2194C119.763 8.45519 123.257 8.21128 124.544 10.2845C124.544 8.53649 124.544 6.86981 124.544 5.12183C125.904 5.12183 127.191 5.12183 128.552 5.12183C128.552 9.47145 128.552 13.8617 128.552 18.2927ZM124.764 13.6178C124.691 13.1707 124.617 12.6829 124.507 12.2357C124.396 11.8292 124.065 11.6259 123.661 11.6259C123.293 11.6259 122.999 11.8292 122.852 12.1951C122.558 13.0894 122.558 14.0243 122.852 14.9186C122.999 15.3252 123.293 15.5284 123.698 15.5284C124.102 15.5284 124.396 15.2845 124.507 14.878C124.654 14.5121 124.691 14.065 124.764 13.6178Z" fill="white"/>
<path d="M113.512 12.4391C113.439 11.7887 113.145 11.4228 112.446 11.3009C111.306 11.057 110.24 11.2602 109.173 11.748C109.026 11.7887 108.916 11.87 108.769 11.9107C108.732 11.9107 108.695 11.9107 108.659 11.87C108.659 11.1383 108.659 10.4066 108.659 9.6749C108.659 9.55295 108.806 9.39035 108.916 9.3497C110.938 8.73995 112.961 8.65865 114.946 9.30905C116.417 9.7562 117.153 10.8537 117.189 12.5611C117.226 14.431 117.189 16.3415 117.189 18.2521C115.939 18.2521 114.726 18.2521 113.476 18.2521C113.476 17.8456 113.476 17.4797 113.476 17.1139C113.402 17.1139 113.365 17.1139 113.365 17.1139C112.372 18.5366 111.012 18.6992 109.541 18.2927C108.585 18.0488 107.85 17.3984 107.739 16.2196C107.592 14.9188 107.886 13.8212 108.99 13.0895C109.762 12.6017 110.607 12.4391 111.49 12.3985C112.152 12.4391 112.814 12.4391 113.512 12.4391ZM113.512 14.1871C112.924 14.309 112.336 14.3497 111.821 14.5123C111.416 14.6342 111.306 15.0407 111.343 15.5285C111.416 15.9757 111.674 16.1383 112.042 16.2196C112.998 16.3009 113.623 15.5285 113.512 14.1871Z" fill="white"/>
<path d="M77.3664 14.7561C75.4176 14.7561 73.6158 14.7561 71.814 14.7561C71.7773 15.4065 72.0714 15.813 72.6965 16.0163C73.7261 16.3415 74.7557 16.2195 75.7485 15.9756C76.0427 15.8943 76.3001 15.813 76.6678 15.6911C76.6678 16.4228 76.6678 17.1138 76.6678 17.8455C76.6678 17.9268 76.5207 18.0488 76.4472 18.0894C74.5718 18.5773 72.6598 18.7805 70.7844 18.2114C68.9827 17.6423 67.9531 16.1789 67.8428 14.1057C67.806 13.6586 67.806 13.1708 67.8795 12.7236C68.0634 11.0976 68.8723 9.95938 70.2696 9.39027C71.5199 8.90247 72.8436 8.82117 74.1306 9.06507C75.6382 9.34962 76.631 10.3659 76.9987 11.9919C77.2194 12.8456 77.2561 13.7805 77.3664 14.7561ZM73.8364 12.8049C73.7997 12.1951 73.7997 11.5854 73.3216 11.1789C72.9907 10.8943 72.623 10.935 72.2921 11.1789C71.814 11.5854 71.7405 12.1545 71.7405 12.8049C72.4391 12.8049 73.101 12.8049 73.8364 12.8049Z" fill="white"/>
<path d="M139.031 14.7153C137.193 14.7153 135.391 14.7153 133.589 14.7153C133.553 15.3657 133.883 15.8942 134.582 15.9755C135.318 16.0974 136.053 16.0974 136.788 16.0568C137.34 16.0161 137.855 15.8129 138.443 15.6909C138.443 16.4226 138.443 17.1544 138.443 17.9674C136.347 18.4552 134.214 18.821 132.118 17.9674C130.574 17.3576 129.802 16.0161 129.655 14.2275C129.618 13.6178 129.618 12.9673 129.728 12.3576C129.912 10.9755 130.611 9.99986 131.788 9.4714C133.258 8.78034 134.803 8.65839 136.384 9.10554C137.965 9.5527 138.884 10.9755 139.068 13.0893C139.068 13.6178 139.031 14.1462 139.031 14.7153ZM133.516 12.7641C134.251 12.7641 134.913 12.7641 135.612 12.7641C135.575 12.1137 135.612 11.4226 135.023 11.1381C134.766 10.9755 134.288 11.0161 134.031 11.1787C133.516 11.5039 133.479 12.1543 133.516 12.7641Z" fill="white"/>
<path d="M97.4066 9.14621C98.0684 9.14621 98.62 9.14621 99.2083 9.14621C99.2083 10.0405 99.2083 10.8535 99.2083 11.7478C98.62 11.7478 98.0317 11.7478 97.4433 11.7478C97.4433 12.8047 97.4066 13.7397 97.4433 14.7153C97.4801 15.2844 97.8478 15.569 98.3626 15.569C98.62 15.569 98.8774 15.4877 99.2083 15.4877C99.2083 16.3007 99.2083 17.073 99.2083 17.8861C99.2083 17.9674 99.098 18.13 98.9877 18.13C97.8846 18.4958 96.7815 18.6584 95.6416 18.4552C94.3913 18.2519 93.6191 17.3982 93.4721 15.9755C93.3617 14.8373 93.3985 13.6584 93.3985 12.5202C93.3985 12.3169 93.3985 12.073 93.3985 11.7885C92.9205 11.7885 92.4792 11.7885 92.0012 11.7885C92.0012 10.8942 92.0012 10.0812 92.0012 9.18686C92.4425 9.18686 92.8837 9.18686 93.3985 9.18686C93.3985 8.53645 93.3985 7.96734 93.3985 7.39824C93.3985 7.23564 93.5456 6.99173 93.6559 6.95108C94.7958 6.54458 95.9357 6.17872 97.0756 5.77222C97.1492 5.73157 97.2595 5.73157 97.4066 5.69092C97.4066 6.82913 97.4066 7.92669 97.4066 9.14621Z" fill="white"/>
<path d="M85.3456 8.98365C85.3456 9.1056 85.3823 9.18691 85.3823 9.30886C85.3823 10.4064 85.3823 11.504 85.3823 12.6422C85.1985 12.6015 85.0882 12.6015 84.9411 12.5609C83.5438 12.3576 82.4406 13.3739 82.4039 14.9593C82.4039 15.8942 82.4039 16.7885 82.4039 17.7235C82.4039 17.8861 82.4039 18.0487 82.4039 18.2519C81.0434 18.2519 79.7564 18.2519 78.4326 18.2519C78.4326 15.2438 78.4326 12.2357 78.4326 9.18691C79.6461 9.18691 80.8963 9.18691 82.1465 9.18691C82.1465 9.79666 82.1465 10.4064 82.1465 11.0162C82.8819 9.59341 83.7644 8.65845 85.3456 8.98365Z" fill="white"/>
<path d="M104.393 18.252C103.033 18.252 101.746 18.252 100.422 18.252C100.422 15.2033 100.422 12.1951 100.422 9.14636C101.635 9.14636 102.849 9.14636 104.099 9.14636C104.099 9.75612 104.099 10.3659 104.099 10.9756C104.136 11.0163 104.173 11.0163 104.173 11.0569C104.798 9.63417 105.68 8.61791 107.298 8.98376C107.298 10.2033 107.298 11.3821 107.298 12.6016C107.151 12.561 107.004 12.561 106.894 12.5203C105.496 12.3171 104.393 13.374 104.393 14.9187C104.393 15.8537 104.393 16.8293 104.393 17.7642C104.393 17.9675 104.393 18.0894 104.393 18.252Z" fill="white"/>
<path d="M90.8981 18.2521C89.5744 18.2521 88.2874 18.2521 86.9636 18.2521C86.9636 15.2032 86.9636 12.1951 86.9636 9.14624C88.2874 9.14624 89.5744 9.14624 90.8981 9.14624C90.8981 12.1951 90.8981 15.2032 90.8981 18.2521Z" fill="white"/>
<path d="M86.9268 8.08932C86.9268 7.11371 86.9268 6.13809 86.9268 5.12183C88.2137 5.12183 89.5375 5.12183 90.8613 5.12183C90.8613 6.09744 90.8613 7.07306 90.8613 8.08932C89.5743 8.08932 88.2873 8.08932 86.9268 8.08932Z" fill="white"/>
</svg>
