<svg width="357" height="300" viewBox="0 0 357 300" fill="none" xmlns="http://www.w3.org/2000/svg">
<path d="M109.526 300L356.063 88.417L131 243.16L109.526 300Z" fill="#24126A"/>
<path d="M356.063 88.417L88.0525 218.357L0 167.516L356.063 88.417Z" fill="url(#paint0_linear)"/>
<path d="M356.063 88.417L131 243.16L219.053 293.989L356.063 88.417Z" fill="url(#paint1_linear)"/>
<path d="M131 243.16L356.064 88.417L88.0527 218.357L109.527 300L131 243.16Z" fill="url(#paint2_linear)"/>
<path d="M84.124 216.088L356.063 88.417L88.0522 218.357L84.124 216.088Z" fill="white"/>
<path d="M131 243.16L356.063 88.417L134.529 245.193L131 243.16Z" fill="white"/>
<path d="M176.642 178.702C176.642 178.702 175.694 181.532 175.781 182.218C175.868 182.904 177.814 185.585 177.951 185.66C178.088 185.747 179.734 187.842 181.592 188.865C183.45 189.875 183.587 190.374 183.762 190.399C183.937 190.424 184.211 190.237 184.211 190.237C184.211 190.237 184.485 188.304 183.675 187.356C182.864 186.421 184.074 185.024 184.074 185.024L181.979 179.55L176.642 178.702Z" fill="#FCD1C5"/>
<path d="M196.781 239.319C196.781 239.319 193.489 240.08 190.322 240.192C187.142 240.304 178.488 241.938 178.65 245.043C178.812 248.161 183.251 252.625 188.875 253.299C194.499 253.972 201.757 252.438 205.436 252.538C209.102 252.638 211.696 249.046 210.324 245.579C208.977 242.138 196.781 239.319 196.781 239.319Z" fill="#000D3B"/>
<path d="M215.959 231.052C215.959 231.052 217.119 232.935 216.508 234.082C215.897 235.23 214.251 238.085 209.163 235.292C204.088 232.511 194.236 228.508 194.236 228.508C194.236 228.508 188.587 225.553 188.961 222.086C189.335 218.632 194.573 219.18 194.573 219.18L215.959 231.052Z" fill="#000D3B"/>
<path d="M159.345 106.524C159.345 106.524 155.991 106.574 154.507 105.9C153.023 105.227 148.733 103.818 148.471 103.681C148.209 103.544 145.84 103.381 144.755 102.683C144.755 102.683 143.545 103.269 144.506 104.254C145.466 105.24 147.274 105.551 147.274 105.551L148.97 106.549C148.97 106.549 145.528 108.32 145.216 108.444C144.905 108.582 142.024 110.776 141.725 110.913C141.438 111.051 140.141 112.048 140.64 112.946C140.64 112.946 140.69 113.146 141.338 113.283C141.338 113.283 139.493 114.118 139.954 115.029C140.415 115.939 141.575 115.54 141.575 115.54C141.575 115.54 142.024 117.174 144.244 115.902C144.244 115.902 144.506 117.922 149.444 115.814C149.444 115.814 151.439 115.291 152.898 115.39C154.357 115.49 158.335 114.467 160.468 112.959C162.587 111.475 159.345 106.524 159.345 106.524Z" fill="#FCD1C5"/>
<path d="M152.885 115.39C154.344 115.49 158.322 114.467 160.454 112.958C161.889 111.948 160.878 109.379 160.08 107.808C159.07 107.322 158.185 106.923 158.185 106.923C158.185 106.923 158.334 111.811 158.222 112.547C158.11 113.283 153.696 114.156 150.852 114.567C148.022 114.979 144.293 116.076 144.293 116.076C144.517 116.525 145.465 117.498 149.431 115.802C149.431 115.814 151.426 115.29 152.885 115.39Z" fill="#E2B1A6"/>
<path d="M198.202 97.0215C198.202 97.0215 191.219 98.2436 188.837 99.0043C186.53 99.74 166.515 103.706 159.183 105.489C158.721 105.601 158.36 105.975 158.247 106.461C158.16 106.848 158.098 107.297 158.198 107.684C158.41 108.507 159.108 116.799 163.173 115.44C164.395 115.029 167.987 114.28 170.855 113.906C173.723 113.532 185.956 112.584 185.956 112.584L206.657 100.738L198.202 97.0215Z" fill="#003194"/>
<path d="M183.227 181.333C183.227 181.333 185.072 204.179 189.624 212.796C194.225 221.512 195.248 237.362 196.171 240.38C197.106 243.41 200.086 247.762 204.875 248.685C209.676 249.62 210.524 246.465 210.337 244.57C210.137 242.674 208.865 239.607 208.903 237.549C208.928 235.492 209.439 234.531 209.539 233.596C209.539 233.596 215.026 235.192 215.961 231.052C215.961 231.052 215.537 229.843 215.487 229.232C215.425 228.62 216.323 213.556 216.497 211.736C216.672 209.915 215.886 199.989 214.452 195.088C213.031 190.212 213.766 179.824 213.766 179.824L197.879 177.505L183.227 181.333Z" fill="#003194"/>
<path d="M209.001 181.433C209.001 181.433 208.864 184.999 207.28 187.992C207.28 187.992 207.056 200.088 205.659 206.186C205.659 206.186 207.455 218.407 208.652 222.248C209.862 226.114 209.525 233.596 209.525 233.596C209.525 233.596 210.148 233.82 211.046 233.858C211.944 233.895 212.343 219.031 211.009 216.387C209.687 213.756 208.877 202.071 209.488 198.505C210.086 194.951 210.124 184.762 210.859 182.967C211.583 181.171 210.049 180.198 210.049 180.198L209.001 181.433Z" fill="#001F5C"/>
<path d="M197.155 97.2085C197.155 97.2085 192.378 100.526 192.516 106.362L196.032 105.663C196.02 105.676 195.097 99.1913 197.155 97.2085Z" fill="#000D3B"/>
<path d="M197.305 186.308C207.843 186.707 213.629 182.193 213.629 182.193C213.679 180.747 213.754 179.799 213.754 179.799L197.867 177.479L183.227 181.32C183.227 181.32 183.588 185.847 184.399 191.621C186.993 191.92 189.636 185.735 189.636 185.735L196.882 186.246C196.882 186.259 186.743 185.909 197.305 186.308Z" fill="#001F5C"/>
<path d="M185.258 181.695C185.258 181.695 208.041 191.035 219.514 173.776C219.838 173.29 220 172.679 220 172.068L219.95 168.003C219.95 167.491 220.037 166.98 220.212 166.494C220.586 165.459 220.698 164.336 220.511 163.239C219.763 158.675 217.706 146.217 217.244 142.738C216.671 138.498 219.339 121.526 223.355 114.181C227.333 106.923 217.942 90.238 217.942 90.238C217.942 90.238 215.623 86.3224 210.884 87.5694C210.884 87.5694 215.311 90.7742 212.78 94.0415C210.236 97.3211 202.804 99.8526 202.804 99.8526C202.804 99.8526 189.011 106.674 184.198 115.141C184.198 115.141 182.527 119.543 182.29 125.142C182.066 130.779 182.477 144.272 182.215 146.142C181.953 148.013 181.031 160.77 181.093 161.356C181.168 161.967 185.258 181.695 185.258 181.695Z" fill="#1357DD"/>
<path d="M192.204 183.627C192.204 183.627 206.47 147.838 206.096 134.669C205.722 121.75 185.719 160.395 185.719 160.395L185.271 181.695C185.258 181.695 189.573 183.291 192.204 183.627Z" fill="#003194"/>
<path d="M185.583 141.017C186.131 138.061 186.468 135.081 186.543 132.1C186.693 126.913 188.314 118.296 197.816 119.929C211.222 122.236 205.099 140.717 203.565 143.922C202.018 147.152 195.896 161.655 195.571 162.478C195.272 163.251 185.732 181.221 182.378 185.51C182.066 185.897 181.542 185.959 181.181 185.648C179.859 184.525 176.903 181.857 176.529 180.186C176.055 178.028 178.101 170.222 178.101 170.222C178.101 170.222 183.612 150.631 184.074 149.721C184.423 149.047 184.697 145.805 185.583 141.017Z" fill="#1357DD"/>
<path d="M197.38 97.6324C197.38 97.6324 196.345 95.1882 193.875 94.8889C191.394 94.6021 189.997 93.8913 189.76 92.9685C189.523 92.0457 189.536 90.9358 188.95 89.5641C188.376 88.1924 187.915 84.8379 187.927 84.7506C187.94 84.6758 186.057 84.0647 185.969 83.2417C185.895 82.4062 186.917 79.4632 186.817 79.2263C186.718 78.9893 185.72 77.1562 185.882 75.7471C186.044 74.3379 186.256 72.2928 187.042 70.5594C187.827 68.8385 193.302 58.3635 206.982 64.0749C220.749 69.8362 209.95 81.2589 211.159 88.791C211.159 88.791 212.356 90.3872 210.049 93.0308C207.73 95.6995 201.171 96.1734 197.38 97.6324Z" fill="#FCD1C5"/>
<path d="M210.049 93.0436C212.356 90.3999 211.159 88.8037 211.159 88.8037C210.997 87.7562 211.06 86.6339 211.259 85.4617L205.822 86.397C205.822 86.397 197.953 79.1517 198.44 82.9676C198.938 86.8085 196.981 87.432 196.981 87.432L198.589 89.5395C199.001 90.0757 198.739 90.6992 198.39 91.2853C196.033 95.1511 190.509 93.8916 190.496 93.8916C191.182 94.353 192.304 94.7021 193.863 94.8767C196.345 95.1635 197.367 97.6202 197.367 97.6202C201.171 96.1736 207.73 95.6998 210.049 93.0436Z" fill="#E2B1A6"/>
<path d="M186.518 66.5443C186.518 66.5443 185.508 69.3501 187.042 70.5722C188.588 71.7943 189.985 72.9415 189.985 72.9415L189.922 76.5205C189.91 77.0318 190.047 77.543 190.321 77.9795L192.229 81.0223C192.603 81.6084 192.79 82.2942 192.778 82.9925L192.765 84.4516C192.765 84.8756 193.065 85.2372 193.489 85.2996L194 85.3619C194.449 85.4242 194.86 85.0876 194.923 84.6262L195.172 82.606C195.172 82.606 196.232 80.9973 198.452 82.9801L200.46 83.8405C201.021 84.0775 201.457 84.5513 201.657 85.1374C202.193 86.6962 203.34 89.7888 204.238 90.3126C205.448 91.0234 210.236 88.6665 210.885 87.5941C211.533 86.5216 213.291 79.3512 214.351 75.9219C215.411 72.5175 215.025 64.0128 204.824 61.6435C194.648 59.2741 187.977 63.4891 186.518 66.5443Z" fill="#4C2323"/>
<path d="M210.885 87.594C211.533 86.5215 213.292 79.3511 214.352 75.9218C214.352 75.9218 210.349 78.4782 205.199 79.1641C200.048 79.8499 189.96 73.8892 189.96 73.8892L189.91 76.5079C189.897 77.0192 190.035 77.5305 190.309 77.9669L192.217 81.0097C192.591 81.5958 192.778 82.2817 192.766 82.98L192.753 84.439C192.753 84.863 193.052 85.2246 193.476 85.287L193.988 85.3493C194.437 85.4117 194.848 85.075 194.911 84.6136L195.16 82.5934C195.16 82.5934 196.22 80.9847 198.44 82.9675L201.345 84.2145C201.345 84.2145 203.016 89.5892 204.226 90.3C205.448 91.0108 210.224 88.654 210.885 87.594Z" fill="#421A1A"/>
<path d="M211.071 87.9307C211.071 87.9307 214.975 90.4247 212.93 93.8416C210.872 97.2709 196.406 103.182 195.683 104.08C195.683 104.08 195.209 98.917 197.142 97.2085C197.142 97.2085 208.178 95.2632 209.937 92.4948C211.707 89.7389 211.071 87.9307 211.071 87.9307Z" fill="#F0F6FF"/>
<path d="M211.072 87.9307C211.072 87.9307 211.695 89.7389 209.95 92.4948C208.615 94.5898 201.981 96.2109 198.826 96.8718C198.826 96.8718 199.986 97.5452 201.869 100.887C206.321 98.68 211.733 95.8368 212.942 93.8416C214.988 90.4372 211.072 87.9307 211.072 87.9307Z" fill="#C4CCD6"/>
<path d="M203.664 122.935C207.156 134.196 197.517 151.405 196.083 156.418C194.636 161.481 180.158 184.725 180.146 184.725C180.532 185.087 180.894 185.399 181.181 185.636C181.542 185.947 182.078 185.885 182.378 185.498C185.732 181.209 195.272 163.239 195.571 162.466C195.895 161.643 202.018 147.14 203.565 143.91C204.799 141.354 208.989 128.896 203.664 122.935Z" fill="#24126A"/>
<path d="M213.517 98.9917C213.517 98.9917 207.057 102.521 203.915 104.117C200.76 105.713 197.318 107.846 197.318 107.846L196.146 106.648L194.649 109.754C194.649 109.754 189.699 112.597 187.354 114.991C185.01 117.398 183.214 120.553 182.965 121.276C182.965 121.276 189.212 113.42 194.088 111.138L195.398 110.502L196.171 108.045L197.331 109.305C197.331 109.305 211.522 101.124 213.517 98.9917Z" fill="#24126A"/>
<path opacity="0.8" d="M250.364 180.786L249.862 183.21C249.377 182.374 248.675 181.689 247.739 181.154C246.811 180.619 246.059 180.568 245.482 180.995C245.156 181.237 244.93 181.647 244.788 182.215L249.486 184.932L249.21 186.294L244.613 183.636C244.604 183.787 244.604 183.979 244.604 184.213C244.604 184.439 244.613 184.681 244.621 184.94L248.976 187.456L248.7 188.819L244.805 186.57C244.947 187.348 245.164 188.025 245.465 188.601C246.034 189.705 246.778 190.516 247.689 191.042C248.784 191.678 249.653 191.795 250.305 191.393V194.394C249.561 194.394 248.7 194.102 247.714 193.533C246.05 192.572 244.68 191.126 243.61 189.203C242.882 187.891 242.398 186.503 242.164 185.041L240.901 184.313L241.177 182.951L242.013 183.436C242.005 183.277 242.005 183.11 242.005 182.934C242.005 182.633 242.013 182.374 242.021 182.148L240.901 181.505L241.177 180.142L242.197 180.727C242.439 179.565 242.916 178.746 243.626 178.286C244.705 177.584 246.117 177.743 247.873 178.755C248.826 179.298 249.653 179.975 250.364 180.786Z" fill="#1357DD"/>
<path opacity="0.8" d="M33.3102 96.3379V92.5512C32.282 91.6234 31.5297 90.6788 31.0449 89.7175C30.5684 88.7563 30.326 87.7866 30.326 86.817C30.326 85.8306 30.6018 85.1535 31.1368 84.8025C31.6802 84.443 32.399 84.4765 33.3018 84.8944V84L34.447 84.6604V85.5548C35.2829 86.1483 35.9432 86.8588 36.4364 87.6863C36.9296 88.5138 37.2472 89.4166 37.381 90.3946L35.3916 89.542C35.2745 88.7646 34.9569 88.0959 34.447 87.5526V91.0801C35.7092 92.2002 36.5618 93.2032 37.0215 94.0893C37.4813 94.9753 37.707 95.9032 37.707 96.8812C37.707 97.9679 37.4228 98.7202 36.846 99.1381C36.2692 99.5561 35.4751 99.5477 34.447 99.1298V100.818L33.3018 100.158V98.5112C32.3907 97.8592 31.6551 97.0484 31.0867 96.0704C30.5183 95.0924 30.1588 93.9639 30 92.6933L32.0563 93.6295C32.1399 94.1562 32.2987 94.6661 32.5328 95.1509C32.7668 95.619 33.026 96.0202 33.3102 96.3379ZM33.3102 86.8588C33.0009 86.8003 32.7501 86.8588 32.5662 87.0427C32.3823 87.2266 32.2904 87.4941 32.2904 87.8368C32.2904 88.1544 32.374 88.4971 32.5411 88.8733C32.7083 89.2411 32.9591 89.6089 33.3018 89.9767V86.8588H33.3102ZM34.447 97.1236C34.8399 97.2657 35.1575 97.2406 35.4083 97.0484C35.6507 96.8561 35.7761 96.5385 35.7761 96.0871C35.7761 95.6859 35.6758 95.2763 35.4668 94.8667C35.2578 94.4571 34.9234 94.0308 34.447 93.6045V97.1236Z" fill="#1357DD"/>
<path opacity="0.8" d="M245.31 79.3379V75.5512C244.282 74.6234 243.53 73.6788 243.045 72.7175C242.568 71.7563 242.326 70.7866 242.326 69.817C242.326 68.8306 242.602 68.1535 243.137 67.8025C243.68 67.443 244.399 67.4765 245.302 67.8944V67L246.447 67.6604V68.5548C247.283 69.1483 247.943 69.8588 248.436 70.6863C248.93 71.5138 249.247 72.4166 249.381 73.3946L247.392 72.542C247.275 71.7646 246.957 71.0959 246.447 70.5526V74.0801C247.709 75.2002 248.562 76.2032 249.022 77.0893C249.481 77.9753 249.707 78.9032 249.707 79.8812C249.707 80.9679 249.423 81.7202 248.846 82.1381C248.269 82.5561 247.475 82.5477 246.447 82.1298V83.8183L245.302 83.1579V81.5112C244.391 80.8592 243.655 80.0484 243.087 79.0704C242.518 78.0924 242.159 76.9639 242 75.6933L244.056 76.6295C244.14 77.1562 244.299 77.6661 244.533 78.1509C244.767 78.619 245.026 79.0202 245.31 79.3379ZM245.31 69.8588C245.001 69.8003 244.75 69.8588 244.566 70.0427C244.382 70.2266 244.29 70.4941 244.29 70.8368C244.29 71.1544 244.374 71.4971 244.541 71.8733C244.708 72.2411 244.959 72.6089 245.302 72.9767V69.8588H245.31ZM246.447 80.1236C246.84 80.2657 247.157 80.2406 247.408 80.0484C247.651 79.8561 247.776 79.5385 247.776 79.0871C247.776 78.6859 247.676 78.2763 247.467 77.8667C247.258 77.4571 246.923 77.0308 246.447 76.6045V80.1236Z" fill="#1357DD"/>
<path d="M109.95 99.7521C109.95 99.7521 112.357 100.164 113.242 99.7147C114.128 99.2658 116.422 98.9665 119.091 99.9142C121.759 100.862 121.535 100.725 122.595 100.825C123.642 100.924 125.363 101.037 125.912 101.386C126.473 101.735 127.521 102.408 126.548 103.805C125.563 105.202 121.909 103.892 121.31 103.78C120.712 103.668 120.063 104.728 120.363 105.675C120.662 106.623 126.186 112.671 127.047 113.27C127.92 113.868 131.648 116.362 131.81 117.348C131.972 118.333 131.76 118.47 131.76 118.47C131.76 118.47 132.845 119.455 132.459 120.365C132.072 121.276 130.376 119.879 130.065 120.091C130.065 120.091 130.339 121.101 129.927 121.288C129.516 121.475 127.097 120.54 126.797 120.241C126.797 120.241 126.51 121.026 125.139 120.216C123.755 119.405 118.455 116.4 117.844 115.826C117.22 115.253 115.138 113.332 114.277 112.808C113.417 112.297 111.933 110.539 111.197 109.853C110.461 109.167 107.169 107.496 105.91 107.259C104.638 107.035 109.95 99.7521 109.95 99.7521Z" fill="#FCD1C5"/>
<path d="M114.178 110.664C112.955 108.444 108.878 106.723 108.878 106.723C109.152 104.915 111.758 99.9146 111.758 99.9146C110.848 99.9021 109.95 99.7524 109.95 99.7524C109.95 99.7524 104.638 107.035 105.897 107.272C107.157 107.509 110.436 109.18 111.185 109.866C111.92 110.552 113.404 112.31 114.265 112.821C115.125 113.333 117.208 115.265 117.831 115.839C118.455 116.413 123.755 119.418 125.126 120.229C126.511 121.039 126.785 120.254 126.785 120.254C127.072 120.54 129.503 121.488 129.915 121.301C130.326 121.114 130.052 120.104 130.052 120.104C130.052 120.104 128.356 119.144 126.598 118.52C124.852 117.897 115.4 112.896 114.178 110.664Z" fill="#E2B1A6"/>
<path d="M105.985 91.7339C105.985 91.7339 106.508 94.4524 106.321 96.6596C106.134 98.8793 101.695 95.9738 101.857 95.5997C102.019 95.2131 103.964 91.8835 103.964 91.8835L105.985 91.7339Z" fill="#FCD1C5"/>
<path d="M86.6064 24.9431C86.6064 24.9431 89.0756 24.8309 92.0684 29.7566C94.9615 34.4953 100.037 51.4673 102.693 57.9768C102.93 58.5504 103.105 59.149 103.204 59.7725C104.065 64.8479 108.13 88.7285 108.317 91.6091C108.317 91.6091 105.225 93.6667 103.242 94.178L98.8772 92.7314L94.5749 49.4347L87.6165 26.5517L86.6064 24.9431Z" fill="#24126A"/>
<path d="M72.6527 167.403C72.6527 167.403 71.8172 171.406 72.2786 172.179C72.74 172.953 77.9401 178.839 78.4888 179.637C79.0375 180.422 81.7186 185.248 86.6568 186.42C91.595 187.593 94.962 187.293 95.6229 184.974C96.2963 182.654 93.3907 178.814 92.044 177.579C90.7096 176.345 85.0606 169.635 84.0381 168.663C83.003 167.69 81.5191 167.54 81.5191 167.54L75.0844 168.663L72.6527 167.403Z" fill="#000D3B"/>
<path d="M92.6038 155.42C92.6038 155.42 97.5295 157.328 100.098 157.976C102.68 158.625 108.815 163.214 108.74 165.521C108.678 167.828 105.648 169.424 102.58 169.2C99.5123 168.975 95.8585 167.017 95.2724 166.494C94.6738 165.97 92.5788 164.823 90.0598 164.037C87.5533 163.251 83.5005 162.865 82.8271 161.53C82.1662 160.196 82.0664 157.428 82.0664 157.428L92.6038 155.42Z" fill="#000D3B"/>
<path d="M81.4925 154.584C81.5299 154.347 81.7045 153.948 81.7294 153.786C81.9539 152.564 81.7419 147.613 81.7419 147.613L80.657 149.097C80.657 149.097 81.4177 154.06 82.9016 161.804C83.2758 163.774 84.3108 165.795 84.4604 166.917C84.9094 170.234 82.9391 170.883 82.9391 170.883C78.9361 173.9 75.5192 172.08 74.2847 171.107C73.0626 170.134 72.6386 168.588 70.9302 163.001C69.2342 157.452 67.7627 145.73 68.1369 142.949C68.4611 140.492 69.3589 133.621 69.3091 128.908C69.2592 124.219 65.6553 109.23 65.6553 109.23L80.5697 106.336L90.7579 101.062L98.5269 102.234C98.5269 102.234 99.512 98.954 100.535 109.167C101.57 119.53 95.2971 137.874 95.2971 137.874C93.6385 146.952 93.2146 157.402 92.2793 158.811C91.3315 160.233 87.6279 163.575 84.1861 160.969C83.5501 160.495 82.8393 159.996 82.4527 159.485L81.4925 154.584Z" fill="#24126A"/>
<path d="M80.6582 149.097C80.6582 149.097 85.559 135.741 87.891 122.797C90.173 110.078 94.1386 108.294 95.7846 106.012C95.7846 106.012 98.2662 107.147 99.5756 107.371C99.7377 107.396 99.8749 107.409 99.9996 107.409C101.097 107.371 94.5127 115.564 93.328 117.659C92.1433 119.767 85.347 137.786 84.8731 140.28C84.3993 142.775 83.9129 160.158 84.4616 161.156C85.0103 162.153 82.5786 160.407 82.5786 160.407C82.5786 160.407 81.0697 156.567 80.6582 149.097Z" fill="#000D3B"/>
<path d="M93.3903 101.448L90.7716 101.049L80.5834 106.324L65.6689 109.217C65.6689 109.217 69.2729 124.207 69.3227 128.895C69.3726 133.609 68.4748 140.48 68.1505 142.937C67.7889 145.693 69.2604 157.452 70.9439 162.989C71.6796 165.408 72.1784 167.079 72.6024 168.264C73.2758 171.419 75.6576 171.93 75.6576 171.93C75.6576 171.93 69.8091 153.811 70.3204 143.224C70.8316 132.774 72.3281 124.082 72.0537 122.062C72.0537 122.062 89.0382 116.837 92.2306 105.875C92.7294 104.167 93.1035 102.695 93.3903 101.448Z" fill="#000D3B"/>
<path d="M63.961 27.2752C63.961 27.2752 62.7514 28.2853 62.4896 29.3328C62.2277 30.3678 60.7312 34.0465 60.7312 34.0465C60.7312 34.0465 53.6232 43.4741 52.3512 46.3547C51.0668 49.2603 50.6553 51.4176 50.6553 51.4176L69.4604 74.5749C69.4604 74.5749 62.8761 97.2832 64.7093 105.563C66.5673 113.944 68.9866 117.061 71.942 117.971C74.9099 118.882 90.7222 112.372 91.8196 104.08C92.9045 95.8866 92.4556 94.8391 92.4556 94.8391C92.4556 94.8391 99.838 96.8094 100.312 94.9264C100.773 93.0433 99.3766 79.5131 99.0025 77.5802C98.6284 75.6473 97.4811 54.2982 97.4811 54.2982C97.4811 54.2982 92.9793 34.5952 92.7175 33.635C92.4556 32.6623 89.6622 25.2675 86.0708 24.8435C82.4794 24.432 77.9901 30.1433 77.9901 30.1433L63.961 27.2752Z" fill="#453C9E"/>
<path d="M64.8075 26.5645C64.8075 26.5645 64.0593 27.0633 63.9096 27.8863C63.7475 28.7093 63.1365 30.3305 64.4708 32.0264C65.8176 33.7224 76.6418 42.5638 81.0313 49.9961C85.4583 57.5032 90.9452 65.8832 91.4066 67.6166C91.4066 67.6166 93.4018 55.7199 91.5936 50.258C89.7979 44.8334 84.0616 33.7598 82.8395 32.9368C81.6299 32.1137 74.1727 31.4154 74.1727 31.4154L64.8075 26.5645Z" fill="#F0F6FF"/>
<path d="M75.9946 38.5232C75.9946 38.5232 75.4085 39.4959 75.2339 40.2441C75.2339 40.2441 72.0914 38.6354 70.7695 38.0493L75.5955 41.4038C75.5955 41.4038 75.8823 39.6455 76.1193 39.3836C76.1193 39.3836 78.8752 41.4911 79.2618 42.4264C79.6484 43.3616 84.7487 56.1686 84.7487 56.1686L87.4298 60.5457L88.1157 59.4857L83.7386 47.5641C83.7386 47.5641 81.2695 43.8106 81.2446 43.7233C81.2071 43.636 79.5361 39.6081 79.5361 39.6081L75.9946 38.5232Z" fill="#C4CCD6"/>
<path d="M75.9932 38.5234C75.9932 38.5234 77.6018 35.5305 80.6945 35.6427C80.6945 35.6427 81.5798 39.3339 81.8417 40.8428C81.8417 40.8428 79.8465 41.7033 79.0359 41.0049C78.2253 40.2941 75.9932 38.5234 75.9932 38.5234Z" fill="#000D3B"/>
<path d="M81.3687 40.0322C81.3687 40.0322 89.3372 49.8587 92.1305 61.7304L91.5444 67.8533L87.3544 60.3712C87.3544 60.3712 80.4833 43.1996 78.8871 40.0571C77.2909 36.9396 81.3687 40.0322 81.3687 40.0322Z" fill="#000D3B"/>
<path d="M68.1628 79.4756C67.6266 81.5706 67.0031 84.1893 66.417 86.9827C66.417 86.9952 78.2263 102.396 89.7489 108.668C90.8712 107.234 91.6443 105.688 91.8563 104.079C92.43 99.7398 92.5796 97.4203 92.5796 96.1857L79.1865 86.0225L68.1628 79.4756Z" fill="#24126A"/>
<path d="M67.3525 56.8418C67.3525 56.8418 70.7694 61.4932 71.6673 61.9172C72.5776 62.3412 79.96 75.2728 81.4439 77.717C82.9404 80.1612 86.9184 83.5905 86.9184 83.5905L83.1648 83.9521L68.4749 64.2367L67.3525 56.8418Z" fill="#24126A"/>
<path d="M69.4471 60.9447C67.9631 57.2161 65.6437 53.9489 62.6633 51.4549C59.2714 48.6116 54.8195 45.8432 52.4626 48.3373C48.3225 52.7144 50.0808 60.9572 55.842 68.6763C61.6657 76.4827 70.8438 87.5937 73.0011 89.4642C75.0837 91.2599 92.8787 104.641 103.079 109.654C103.84 110.028 104.725 109.741 105.174 108.993C106.584 106.673 109.502 101.822 110.537 99.8395C110.749 99.428 110.624 98.9167 110.25 98.6797C106.521 96.2855 87.9031 84.314 82.3912 80.5854C81.5433 80.0118 80.8574 79.2386 80.3835 78.3033C78.7749 75.1608 74.6223 67.4168 70.9809 63.4637C70.3325 62.7654 69.8337 61.9174 69.472 61.0196C69.4596 60.9946 69.4471 60.9697 69.4471 60.9447Z" fill="#4846A5"/>
<path d="M83.1396 29.0337L89.6491 35.618L87.9656 36.2041L90.1105 37.4511C90.1105 37.4511 95.3231 49.7593 94.1883 63.701C94.1883 63.701 96.7696 52.7397 91.1705 37.1892L89.4371 36.3163L90.6093 35.9422L83.1396 29.0337Z" fill="#24126A"/>
<path d="M64.6715 25.4419C64.7838 25.6913 64.8586 25.9781 64.8337 26.2524C64.7838 26.8385 64.7214 27.8237 64.7713 28.2477C64.8461 28.8587 68.9364 35.7423 77.279 35.8047C77.279 35.8047 78.2766 34.3082 78.4761 34.0214C78.4761 34.0214 81.8556 33.8593 83.2647 32.6372C84.6738 31.4027 83.8009 29.2578 83.8009 29.2578L84.0005 26.6764C84.0254 26.3647 84.1626 26.0779 84.387 25.8659C84.6863 25.5791 85.0729 25.1675 85.1477 24.8682C85.2225 24.5565 85.023 24.0203 84.8609 23.6586C84.7487 23.4092 84.6988 23.1474 84.7362 22.873C84.811 22.2246 84.8734 20.8279 84.412 19.107C84.2748 18.6082 84.2748 18.0844 84.3995 17.5856C84.6115 16.7626 84.8983 15.553 84.9357 15.1165C84.9856 14.4431 83.8383 12.6474 83.7885 11.9366C83.7386 11.2133 82.7534 8.81902 82.7534 8.81902C82.7534 8.81902 76.5432 -2.7035 66.5296 2.28461C56.4412 7.31012 61.7036 18.0969 62.9506 21.1521C62.9506 21.1521 64.1603 23.6337 64.3723 24.1949C64.5468 24.6563 64.4221 24.9057 64.6715 25.4419Z" fill="#FCD1C5"/>
<path d="M83.6381 10.0412C83.7254 10.8518 83.4136 11.6624 82.8026 12.1986C81.593 13.271 79.1737 15.0293 75.9813 15.4533C73.7367 15.7526 72.5021 15.8648 71.8412 15.9023C71.3923 15.9272 71.0306 16.2888 71.0057 16.7502C70.9558 17.5857 70.881 18.8577 70.7563 19.7182C70.7064 20.0673 70.6067 20.3915 70.457 20.7033L69.7462 22.2122C69.5716 22.5863 69.185 22.8108 68.7735 22.7858L68.6114 22.7734C68.1625 22.736 67.8008 22.3868 67.7385 21.9379L67.726 21.8755C67.5639 20.6908 66.878 19.6433 65.8181 19.1445C65.2818 18.8951 64.6833 18.7829 64.0722 19.0323C62.3513 19.7431 63.0621 21.4141 63.0621 21.4141C63.0621 21.4141 60.9671 18.8951 60.0194 15.5531C59.0841 12.2235 59.2961 6.18792 63.6607 3.03294C68.0004 -0.109563 73.6743 -1.38153 78.5128 2.02285C82.5157 4.81619 83.451 8.2081 83.6381 10.0412Z" fill="#4C2323"/>
<path d="M67.1279 24.1575C66.9035 23.8957 67.1903 26.1902 64.8209 26.265C64.771 26.8511 64.7087 27.8363 64.7586 28.2602C64.8334 28.8713 68.9236 35.7549 77.2662 35.8172C77.2662 35.8172 78.2639 34.3208 78.4634 34.034C78.4634 34.034 70.8066 30.3178 69.4474 28.6219C68.1006 26.9259 67.3524 24.4194 67.1279 24.1575Z" fill="#E2B1A6"/>
<path d="M80.6953 35.6424C80.6953 35.6424 82.9649 35.9043 84.0249 36.4654C84.0249 36.4654 84.3242 35.2932 83.7256 34.0088C83.7256 34.0088 84.399 34.5575 84.399 37.2635C84.399 37.2635 81.0694 36.1786 80.8075 36.1038L80.6953 35.6424Z" fill="#C4CCD6"/>
<path d="M106.072 107.16C106.072 107.16 86.7434 96.0487 80.1965 91.6218C73.6871 87.2198 55.3807 68.5393 51.6396 61.3564C52.5999 63.7632 54.0215 66.2448 55.8297 68.6765C61.6533 76.4829 70.8314 87.5939 72.9887 89.4644C75.0713 91.2601 92.8663 104.641 103.067 109.654C103.828 110.028 104.713 109.741 105.162 108.993C105.436 108.544 105.761 107.995 106.122 107.397C106.097 107.247 106.072 107.16 106.072 107.16Z" fill="#24126A"/>
<path d="M61.6406 34.6323L70.4696 47.1899L72.7392 46.3793L72.8639 48.7736C72.8639 48.7736 83.4262 56.6423 91.3323 72.9908C91.3323 72.9908 80.8698 56.156 72.5521 50.5444L71.7914 48.1376L70.0206 48.5491L61.6406 34.6323Z" fill="#24126A"/>
<path d="M60.8417 17.1623C60.742 17.1249 60.6547 17.0999 60.5674 17.075C61.6024 19.6314 63.0739 21.4022 63.0739 21.4022C63.0739 21.4022 62.3631 19.7311 64.084 19.0203C64.6826 18.7709 65.2936 18.8832 65.8298 19.1326C66.8898 19.6314 67.5757 20.6914 67.7378 21.8636L67.7503 21.9259C67.8126 22.3873 68.1742 22.7365 68.6232 22.7614L68.7853 22.7739C69.1843 22.8113 69.5709 22.5744 69.758 22.2003L70.4688 20.6914C70.6184 20.3796 70.7182 20.0429 70.7681 19.7062C70.8928 18.8458 70.9676 17.5738 71.0175 16.7383C71.005 16.7508 65.119 18.6587 60.8417 17.1623Z" fill="#421A1A"/>
<defs>
<linearGradient id="paint0_linear" x1="475.716" y1="93.2954" x2="-38.0299" y2="828.991" gradientUnits="userSpaceOnUse">
<stop offset="0.00505051" stop-color="#5288F4"/>
<stop offset="0.0998" stop-color="#FAC098"/>
<stop offset="0.202" stop-color="#F49587"/>
<stop offset="0.4638" stop-color="#A142B5"/>
<stop offset="0.596" stop-color="#7C1DC9"/>
<stop offset="0.6346" stop-color="#7926CB"/>
<stop offset="0.6973" stop-color="#703ED1"/>
<stop offset="0.7764" stop-color="#6165DB"/>
<stop offset="0.8686" stop-color="#4C9CE9"/>
<stop offset="0.9709" stop-color="#32E1FA"/>
<stop offset="1" stop-color="#2AF6FF"/>
</linearGradient>
<linearGradient id="paint1_linear" x1="431.694" y1="96.1349" x2="-314.649" y2="523.151" gradientUnits="userSpaceOnUse">
<stop offset="0.00505051" stop-color="#5288F4"/>
<stop offset="0.0998" stop-color="#FAC098"/>
<stop offset="0.202" stop-color="#F49587"/>
<stop offset="0.4638" stop-color="#A142B5"/>
<stop offset="0.596" stop-color="#7C1DC9"/>
<stop offset="0.6346" stop-color="#7926CB"/>
<stop offset="0.6973" stop-color="#703ED1"/>
<stop offset="0.7764" stop-color="#6165DB"/>
<stop offset="0.8686" stop-color="#4C9CE9"/>
<stop offset="0.9709" stop-color="#32E1FA"/>
<stop offset="1" stop-color="#2AF6FF"/>
</linearGradient>
<linearGradient id="paint2_linear" x1="446.126" y1="96.3605" x2="-374.133" y2="639.347" gradientUnits="userSpaceOnUse">
<stop offset="0.00505051" stop-color="#5288F4"/>
<stop offset="0.0998" stop-color="#FAC098"/>
<stop offset="0.202" stop-color="#F49587"/>
<stop offset="0.4638" stop-color="#A142B5"/>
<stop offset="0.596" stop-color="#7C1DC9"/>
<stop offset="0.6346" stop-color="#7926CB"/>
<stop offset="0.6973" stop-color="#703ED1"/>
<stop offset="0.7764" stop-color="#6165DB"/>
<stop offset="0.8686" stop-color="#4C9CE9"/>
<stop offset="0.9709" stop-color="#32E1FA"/>
<stop offset="1" stop-color="#2AF6FF"/>
</linearGradient>
</defs>
</svg>
