<svg width="121" height="26" viewBox="0 0 121 26" fill="none" xmlns="http://www.w3.org/2000/svg">
<path d="M10.5917 14.7066H15.0377L16.3357 15.5503H10.397L7.73587 23.7932C4.7827 22.6574 2.05671 19.9963 0.920874 17.0107C-0.312315 14.1224 -0.312313 10.4878 0.953329 7.59951C2.12161 4.61389 4.94497 1.92034 7.93059 0.816961C10.2672 -0.15661 13.415 -0.253967 15.9139 0.492438C18.7697 1.30375 21.4632 3.34826 23.0534 6.0418C24.8058 8.96251 25.2926 12.6945 24.2217 16.0696C23.5402 18.3088 22.1447 20.4182 20.23 21.9435L16.9523 16.459L21.5281 19.0227C21.5606 19.0227 21.5606 18.9903 21.5606 18.9578L15.5569 13.7979L23.313 14.9662C23.3455 14.9662 23.3455 14.9662 23.3455 14.9337L23.2805 14.9013L15.9788 12.3375L23.5726 10.5202C23.6051 10.5202 23.6051 10.4878 23.5726 10.4878L15.7841 11.007L21.8851 6.39877C21.8851 6.36632 21.8526 6.36632 21.8202 6.39877L15.0052 9.87118L18.7697 3.21844C18.7697 3.21844 18.7697 3.186 18.7372 3.186L13.8045 8.99496L14.7456 1.36866C14.7456 1.36866 14.7131 1.3362 14.6807 1.36866L12.409 8.76779L10.4294 1.14148C10.4294 1.14148 10.397 1.10903 10.3645 1.14148L10.9162 9.02742L6.2106 2.92636H6.17815L9.71547 9.67647L2.99782 6.00934C2.99782 6.00934 2.96537 6.00935 2.96537 6.0418L8.9366 10.9421L1.3103 10.1308C1.27784 10.1308 1.27784 10.1632 1.3103 10.1957L8.67699 12.37L1.34275 14.5119C1.34275 14.5119 1.34275 14.5443 1.34275 14.5768L8.90416 13.7006L2.96537 18.7631C2.96537 18.7631 2.93292 18.7956 2.96537 18.7956L3.03028 18.7631L7.80077 16.2643L8.90416 14.4794H10.1698L9.29358 13.8628L12.2467 9.12478L10.5917 14.7066Z" fill="white"/>
<path d="M32.5618 20.9374H26.623L31.3935 3.96484H43.5632L42.3949 7.98894H36.164L35.3527 10.8772H41.5836L40.5451 14.5768H34.3143L32.5618 20.9374Z" fill="white"/>
<path d="M46.2892 20.9374H40.4153L43.8877 8.54061H49.7616L46.2892 20.9374ZM50.0861 7.33987H44.2122L45.1533 3.93237H51.0272L50.0861 7.33987Z" fill="white"/>
<path d="M61.5419 20.9374H55.7978L56.2197 19.542C55.0514 20.5155 53.8832 21.2295 52.0009 21.2295C50.0862 21.2295 48.8855 20.3208 48.8855 18.3737C48.8855 16.2318 49.7293 13.0515 50.9949 10.8123C51.9036 9.15721 53.5586 8.28098 55.4733 8.28098C57.1284 8.28098 58.3616 8.99493 58.8484 9.9036L60.5034 3.93237H66.3773L61.5419 20.9374ZM57.1284 12.2402C56.6091 12.2402 56.0899 12.4024 55.7978 13.1164C55.376 14.1549 54.9865 15.1933 54.9865 16.1994C54.9865 16.6861 55.3435 17.0756 55.8952 17.0756C56.3495 17.0756 56.6416 16.9458 56.9012 16.7835L58.0695 12.6945C57.8423 12.4349 57.4854 12.2402 57.1284 12.2402Z" fill="white"/>
<path d="M78.1251 15.5178H70.0121C69.8498 16.1669 69.6875 16.6212 69.6875 17.1405C69.6875 17.4001 69.72 18.0167 70.5637 18.0167C71.3751 18.0167 71.732 17.6921 72.089 16.4914H77.8331C77.1191 20.0287 72.9328 21.2294 70.3366 21.2294C66.8642 21.2294 64.1382 20.7427 64.1382 17.3676C64.1382 15.5178 65.0793 12.4673 66.3125 10.8447C67.8053 8.89755 70.369 8.18359 72.7381 8.18359C76.3727 8.18359 78.7417 8.92999 78.7417 12.013C78.7417 12.8243 78.4172 14.5118 78.1251 15.5178ZM72.2513 11.3639C71.5373 11.3639 71.0181 11.8507 70.6935 13.1164H73.095C73.1599 12.8567 73.2573 12.4673 73.2573 12.2401C73.2573 11.5586 72.8679 11.3639 72.2513 11.3639Z" fill="white"/>
<path d="M84.0311 20.9374H78.1572L82.9277 3.96484H88.8016L84.0311 20.9374Z" fill="white"/>
<path d="M91.7874 20.9374H85.9136L89.386 8.54061H95.2598L91.7874 20.9374ZM95.5844 7.33987H89.7105L90.6516 3.93237H96.5255L95.5844 7.33987Z" fill="white"/>
<path d="M106.131 8.54067L106.651 11.3316H102.14L100.842 16.0372C100.744 16.3941 100.647 16.8485 100.647 17.1405C100.647 17.6922 100.874 17.8545 101.685 17.8545H102.951L102.075 20.905H96.85C95.13 20.905 94.4485 20.0613 94.4485 18.7956C94.4485 18.2764 94.5134 17.6922 94.7081 17.0756L97.8884 5.74976H103.762L102.983 8.50821H106.131" fill="white"/>
<path d="M26.4934 22.8523H27.9537L27.0126 25.9028H25.5522L26.4934 22.8523Z" fill="white"/>
<path d="M31.5881 22.8523H33.73L34.2817 24.8968L34.8983 22.8523H36.1639L35.2228 25.9028H33.1783L32.5941 23.7285L31.9451 25.9028H30.6794L31.5881 22.8523Z" fill="white"/>
<path d="M38.9551 22.8523H40.5777L40.8698 24.767L42.3301 22.8523H43.8229L41.3566 25.9028H39.5717L38.9551 22.8523Z" fill="white"/>
<path d="M46.6462 22.8523H49.9888L49.7941 23.4689H47.8794L47.6847 24.0855H49.4696L49.2748 24.6696H47.49L47.2953 25.2862H49.2424L49.0477 25.9028H45.7051L46.6462 22.8523Z" fill="white"/>
<path d="M60.9254 23.5987H59.7896L60.0167 22.8523H63.7487L63.5216 23.5987H62.3857L61.6718 25.9028H60.2114L60.9254 23.5987Z" fill="white"/>
<path d="M66.7993 22.8523H69.006L69.1034 24.8968L70.4339 22.8523H72.6732L71.732 25.9028H70.369L71.0505 23.5987L69.3954 25.9028H67.9676L67.7728 23.5987L67.0913 25.9028H65.8582L66.7993 22.8523Z" fill="white"/>
<path d="M81.9868 22.8523H84.1286L84.6803 24.8968L85.2969 22.8523H86.5626L85.6214 25.9028H83.5445L82.9604 23.7285L82.3113 25.9028H81.0457L81.9868 22.8523Z" fill="white"/>
<path d="M90.0999 23.5987H88.9641L89.1913 22.8523H92.9233L92.6961 23.5987H91.5603L90.8463 25.9028H89.386L90.0999 23.5987Z" fill="white"/>
<path d="M54.4676 23.7934C54.4352 23.761 54.4352 23.6961 54.4352 23.6636C54.4676 23.5013 54.6623 23.404 54.9869 23.404C55.1816 23.404 55.4412 23.4364 55.5386 23.5013C55.6359 23.5662 55.6359 23.6636 55.6359 23.761H56.934C57.0963 23.2093 56.7393 22.8523 55.2789 22.8523C53.8835 22.8523 53.1046 23.1444 52.9099 23.8259C52.845 23.9881 52.845 24.2153 53.0073 24.3451C53.3642 24.7021 54.9869 24.8319 55.1167 25.0266C55.1491 25.0591 55.1491 25.124 55.1491 25.1564C55.0842 25.416 54.7272 25.4485 54.4352 25.4485C54.2405 25.4485 53.9809 25.416 53.9159 25.3187C53.851 25.2538 53.851 25.124 53.8835 25.0266H52.5205C52.3907 25.5134 52.3258 26.0002 54.208 26.0002C55.7982 26.0002 56.5121 25.6107 56.7068 24.9941C56.8042 24.7021 56.7068 24.5398 56.6095 24.4425C56.1876 24.0855 54.6299 23.9557 54.4676 23.7934Z" fill="white"/>
<path d="M75.6589 22.8523H79.0015L78.8068 23.4689H76.8921L76.6974 24.0855H78.4822L78.2875 24.6696H76.5027L76.3079 25.2862H78.2551L78.0604 25.9028H74.7178L75.6589 22.8523Z" fill="white"/>
<path d="M114.05 8.54077L110.87 15.4206L110.967 8.54077H105.028L106.164 20.9376C106.034 21.6515 105.775 22.0734 105.32 22.2681C104.834 22.4953 103.698 22.4628 103.308 22.4304H103.243L102.302 25.8054H106.326C108.695 25.8054 109.864 24.6047 111.551 21.976L120.119 8.5083L114.05 8.54077Z" fill="white"/>
<path d="M96.7203 23.7607C96.6879 23.7282 96.6879 23.6633 96.6879 23.6309C96.7528 23.4686 96.915 23.3713 97.2396 23.3713C97.4343 23.3713 97.6939 23.4037 97.7912 23.4686C97.8886 23.5335 97.8886 23.6309 97.8886 23.7282H99.1867C99.349 23.1766 98.992 22.8196 97.5316 22.8196C96.1362 22.8196 95.3573 23.1117 95.1626 23.7932C95.0977 23.9554 95.0977 24.1826 95.2599 24.3124C95.6169 24.6694 97.2395 24.7992 97.3694 24.9939C97.4018 25.0263 97.4018 25.0912 97.4018 25.1237C97.3369 25.3833 96.9799 25.4158 96.6879 25.4158C96.4931 25.4158 96.2335 25.3833 96.1686 25.286C96.1037 25.221 96.1037 25.0912 96.1362 24.9939H94.7732C94.6434 25.4807 94.5785 25.9674 96.4607 25.9674C98.0509 25.9674 98.7648 25.578 98.9595 24.9614C99.0569 24.6694 98.9595 24.5071 98.8622 24.4097C98.4727 24.0852 96.8826 23.9554 96.7203 23.7607Z" fill="white"/>
<path d="M114.991 20.7101C114.407 20.7101 113.92 20.2233 113.92 19.6392C113.92 19.055 114.407 18.5682 114.991 18.5682C115.575 18.5682 116.062 19.055 116.062 19.6392C116.062 20.2233 115.575 20.7101 114.991 20.7101ZM114.991 18.3735C114.277 18.3735 113.693 18.9577 113.693 19.6716C113.693 20.3856 114.277 20.9697 114.991 20.9697C115.705 20.9697 116.289 20.3856 116.289 19.6716C116.289 18.9252 115.705 18.3735 114.991 18.3735Z" fill="white"/>
<path d="M114.764 19.5744V19.185H114.926C115.088 19.185 115.251 19.185 115.251 19.3797C115.251 19.5744 115.088 19.5744 114.926 19.5744H114.764ZM115.51 19.3797C115.51 19.12 115.348 18.9902 115.023 18.9902H114.537V20.3208H114.764V19.7691H114.926L115.251 20.3208H115.51L115.153 19.7691C115.38 19.7366 115.51 19.6068 115.51 19.3797Z" fill="white"/>
<path d="M114.05 8.573L110.869 15.4204L110.967 8.573H105.06L106.196 20.9373C106.067 21.6513 105.807 22.0732 105.353 22.2679C104.866 22.4951 103.73 22.4626 103.341 22.4302H103.276L102.334 25.8052H106.326C108.695 25.8052 109.831 24.6045 111.519 21.9758L120.053 8.573H114.05Z" fill="white"/>
</svg>
