<svg width="175" height="26" viewBox="0 0 175 26" fill="none" xmlns="http://www.w3.org/2000/svg">
<path d="M143.585 0V18.0564C143.585 18.9486 144.049 19.4697 144.527 19.7979C145.04 20.144 145.792 20.3173 146.806 20.3173C147.447 20.3173 148.294 20.1034 148.294 20.1034C148.294 20.1034 148.294 18.4841 148.294 18.4841C148.04 18.5 147.815 18.5147 147.565 18.5147C146.056 18.5147 145.833 17.9218 145.833 17.262C145.833 17.262 145.833 9.4974e-06 145.833 0H143.585ZM96.0981 0.183314C94.4035 0.183314 92.8715 0.717837 91.7839 1.68038C90.7276 2.61927 90.1432 3.91526 90.1432 5.3161C90.1433 6.85894 90.7641 8.06446 92.0573 9.01293C93.1978 9.85044 94.7064 10.3912 96.1589 10.9072C98.6838 11.8103 101.05 12.6346 101.05 14.9401C101.05 15.9654 100.704 16.8444 100.048 17.4454C99.3267 18.1063 98.2894 18.423 96.9184 18.423C94.5154 18.423 92.766 17.0851 91.7839 14.4818C91.7838 14.4818 89.6267 15.0623 89.6267 15.0623C90.0913 16.118 90.8816 17.6417 92.0269 18.6674C93.2826 19.8004 94.8414 20.3478 96.7969 20.3478C99.1126 20.3478 100.87 19.7471 102.023 18.5452C103.217 17.294 103.481 15.6928 103.481 14.5734C103.481 12.9694 102.807 11.7308 101.445 10.7544C100.257 9.8971 98.7188 9.34455 97.2222 8.82961C94.7837 7.99106 92.4568 7.19303 92.4826 5.13278C92.4913 4.17211 92.8225 3.42428 93.4245 2.90247C94.0379 2.37237 94.9122 2.10811 96.0373 2.10811C97.2191 2.10812 98.2728 2.44027 99.0755 3.08578C99.8137 3.67369 100.351 4.54618 100.595 5.52996C100.595 5.52996 102.691 5.25499 102.691 5.25499C101.771 2.10195 99.5235 0.183314 96.0981 0.183314ZM0 0.458284V20.0729H2.24826V2.13866L2.30903 2.19976L7.65625 20.0729H9.38802L14.7656 2.19976L14.796 2.13866V20.0729H17.0443V0.458284H13.3073L8.53733 16.2233V16.2844L8.50694 16.2233L3.73698 0.458284H0ZM107.036 0.855464V5.56052H104.878V7.3631C104.878 7.3631 107.036 7.36311 107.036 7.3631C107.036 7.3631 107.036 17.4449 107.036 18.0564C107.036 18.9486 107.439 19.4697 107.917 19.7979C108.43 20.144 109.18 20.3173 110.195 20.3173C110.837 20.3173 111.714 20.1034 111.714 20.1034C111.714 20.1034 111.714 18.4841 111.714 18.4841C111.465 18.5 111.204 18.5147 110.955 18.5147C109.444 18.5147 109.284 17.9218 109.284 17.262C109.284 17.262 109.284 7.36311 109.284 7.3631H111.714V5.56052H109.284V0.855464H107.036ZM26.1589 5.28555C24.2657 5.28555 22.6612 6.05261 21.5408 7.48531C20.501 8.82239 19.9306 10.7112 19.9306 12.8014C19.9306 14.8935 20.501 16.7789 21.5408 18.1175C22.6612 19.554 24.2657 20.3173 26.1589 20.3173C28.0598 20.3173 29.6595 19.554 30.7769 18.1175C31.8168 16.7789 32.3872 14.8935 32.3872 12.8014C32.3871 10.7112 31.8168 8.8224 30.7769 7.48531C29.6595 6.05261 28.0598 5.28555 26.1589 5.28555ZM155.859 5.3161C154.898 5.3161 154.005 5.49372 153.247 5.83549C152.504 6.17189 151.845 6.67834 151.332 7.33255C150.313 8.61652 149.722 10.5227 149.722 12.832C149.722 15.4021 150.457 17.3632 151.788 18.6674C153.193 20.0462 154.983 20.3173 156.224 20.3173C159.45 20.3173 161.032 18.5621 161.693 16.9565C161.693 16.9565 159.9 16.0705 159.9 16.0705C159.464 17.0481 158.463 18.5452 156.224 18.5452C154.944 18.5452 153.898 18.0184 153.155 17.0482C152.438 16.1093 152.035 14.8098 152.031 13.2597C152.031 13.2597 161.875 13.2597 161.875 13.2597C161.875 13.2597 161.875 11.8848 161.875 11.8848C161.875 9.50995 161.246 7.73891 160.082 6.6604C159.092 5.74426 157.702 5.3161 155.859 5.3161ZM49.1884 5.34665C46.6519 5.34665 43.0512 7.06295 43.0512 12.832C43.0512 18.4334 46.6407 20.3173 49.0668 20.3173C50.4829 20.3173 51.7696 19.5284 52.6519 18.3925C52.6519 18.3925 52.7734 18.3314 52.7734 18.3314C52.7734 18.3314 52.7734 21.0811 52.7734 21.0811C52.7734 23.0096 51.1136 24.1974 49.3403 24.1974C47.6162 24.1974 46.0899 23.8664 44.8438 23.2808C44.8437 23.2808 44.8438 25.2362 44.8438 25.2362C45.8931 25.6885 47.6008 25.9694 49.0668 25.9694C53.0578 25.9695 54.9609 23.7606 54.9609 20.5617C54.9609 20.5617 54.9609 5.62162 54.9609 5.62162H53.2899L52.8038 7.14924C51.979 6.06848 50.8991 5.34665 49.1884 5.34665ZM63.7109 5.34665C60.5178 5.34665 59.006 7.27014 58.3637 8.46299L60.1563 9.41011C60.4078 8.72851 61.3134 7.14924 63.7413 7.14924C65.6557 7.14924 66.6276 7.99887 66.6276 9.68508V10.2045C66.6276 10.2045 66.6433 10.3623 66.5972 10.4183C66.5261 10.5086 66.3245 10.5824 65.8377 10.6322C63.1573 10.9329 61.3757 11.3756 60.0651 12.2209C58.6424 13.1405 57.7561 14.428 57.7561 16.1927C57.7561 17.4463 58.3597 18.5163 59.1536 19.2785C59.8919 19.9804 60.8978 20.3456 62.0096 20.3784C64.376 20.4547 65.9338 19.4642 66.6884 18.3008C66.7469 19.1002 67.0318 19.557 67.6606 19.8895C68.2511 20.2067 69.2197 20.1436 69.6354 20.0423C69.6354 20.0423 69.6354 18.5147 69.6354 18.5147C69.1342 18.4895 68.8151 18.2499 68.8151 17.6287C68.8151 17.6287 68.8151 10.6322 68.8151 10.6322C68.8151 10.6322 68.8151 9.71563 68.8151 9.71563C68.8151 8.27177 68.2516 7.08744 67.1745 6.32432C66.2864 5.69058 65.0454 5.34665 63.7109 5.34665ZM79.1754 5.34665C77.7121 5.34666 76.2147 6.10888 74.9523 7.54642V5.62162H72.704V20.1034H74.9523C74.9523 20.1034 74.9523 9.349 74.9523 9.349C75.7173 8.52694 77.432 7.14924 78.9931 7.14924C80.558 7.14924 81.2413 7.92115 81.2413 9.65452C81.2413 9.65452 81.2413 20.1034 81.2413 20.1034H83.4896V9.59342C83.4896 6.4645 81.2768 5.34665 79.1754 5.34665ZM119.857 5.34665C116.665 5.34665 115.154 7.27014 114.51 8.46299C114.51 8.46299 116.302 9.41011 116.302 9.41011C116.555 8.72851 117.459 7.14924 119.887 7.14924C121.801 7.14924 122.773 7.99887 122.773 9.68508C122.773 9.68508 122.773 10.2045 122.773 10.2045C122.773 10.2045 122.758 10.3623 122.713 10.4183C122.643 10.5086 122.472 10.5824 121.984 10.6322C119.303 10.9324 117.521 11.3756 116.211 12.2209C114.789 13.1405 113.902 14.428 113.902 16.1927C113.902 17.4463 114.504 18.5158 115.299 19.2785C116.038 19.9804 117.045 20.3456 118.155 20.3784C120.52 20.4547 122.08 19.4642 122.834 18.3008C122.894 19.0999 123.177 19.557 123.806 19.8895C124.396 20.2067 125.365 20.1436 125.781 20.0423C125.781 20.0423 125.781 18.5147 125.781 18.5147C125.281 18.4895 124.961 18.2499 124.961 17.6287C124.961 17.6287 124.961 10.6322 124.961 10.6322C124.961 10.6322 124.961 9.71563 124.961 9.71563C124.961 8.27177 124.368 7.08744 123.29 6.32432C122.401 5.69058 121.19 5.34665 119.857 5.34665ZM135.321 5.34665C133.854 5.34666 132.36 6.10888 131.098 7.54642V5.62162H128.85V20.1034H131.098C131.098 20.1034 131.098 9.349 131.098 9.349C131.864 8.52646 133.576 7.14924 135.139 7.14924C136.701 7.14924 137.387 7.92115 137.387 9.65452V20.1034H139.635V9.59342C139.635 6.4645 137.423 5.34665 135.321 5.34665ZM42.2005 5.40776C39.9194 5.40776 38.5676 6.2971 37.4002 8.40188V8.24912V5.62162H35.1519V20.0729H37.4002C37.4002 20.0729 37.4002 11.8848 37.4002 11.8848C37.9552 8.91034 39.5212 7.51586 42.2005 7.51586V5.40776ZM163.394 5.59107L168.407 19.9506V20.0729C168.108 21.4491 167.241 23.148 166.463 23.678C165.775 24.1472 165.031 24.1974 164.457 24.1974C164.181 24.1974 163.609 24.1035 163.364 24.0447C163.364 24.0447 163.364 25.7861 163.364 25.7861C163.675 25.8629 164.393 26 164.852 26C165.924 26 166.827 25.7303 167.587 25.1751C168.496 24.5105 169.503 22.7782 169.987 21.2949C169.987 21.2949 175 5.59107 175 5.59107H172.813L169.531 16.7121L169.501 16.9565L169.44 16.7121L165.582 5.59107H163.394ZM26.1589 7.08813C28.5792 7.08813 30.0174 9.22447 30.0174 12.8014C30.0173 16.3793 28.5792 18.5147 26.1589 18.5147C23.7424 18.5147 22.3003 16.3793 22.3003 12.8014C22.3003 9.22447 23.7424 7.08813 26.1589 7.08813ZM49.3403 7.11868C50.6087 7.11868 51.7222 7.66982 52.7734 8.98237C52.7734 8.98237 52.7734 15.8872 52.7734 15.8872C52.1916 17.5526 50.5251 18.5147 49.3403 18.5147C47.0218 18.5147 45.421 17.0629 45.421 12.7098C45.421 9.04936 46.8576 7.11868 49.3403 7.11868ZM155.92 7.11868C158.496 7.11868 159.648 8.48839 159.657 11.4571C159.657 11.4571 152.092 11.4571 152.092 11.4571C152.288 8.4908 153.524 7.11868 155.92 7.11868ZM66.6884 12.2209C66.6884 12.2209 66.6884 15.8872 66.6884 15.8872C66.5847 17.1529 64.2325 18.6849 62.3134 18.5758C61.2545 18.5174 60.2343 17.66 60.1259 16.2538C59.9501 13.904 61.706 12.9284 65.625 12.4959C65.8976 12.4708 66.4253 12.3735 66.6884 12.2209ZM122.834 12.2209C122.834 12.2209 122.834 15.8872 122.834 15.8872C122.731 17.1524 120.378 18.6849 118.459 18.5758C117.402 18.5169 116.377 17.6595 116.272 16.2538C116.093 13.904 117.851 12.9284 121.771 12.4959C122.042 12.4708 122.573 12.3735 122.834 12.2209Z" fill="black"/>
</svg>
