<svg width="180" height="20" viewBox="0 0 180 20" fill="none" xmlns="http://www.w3.org/2000/svg">
<path d="M21.3736 19.7309V16.0698H4.82324V11.5276H15.9543V8.0049H4.82324V3.71586H21.0139V0.192554H2.15296C2.15296 0.192554 0.885331 0.107026 0.385981 0.670134C-0.111645 1.23095 0.0141978 2.08738 0.0141978 2.08738L0.0320113 17.8286C0.0320113 17.8286 -0.0944065 18.6844 0.403794 19.2464C0.903719 19.8089 2.17019 19.7315 2.17019 19.7315H21.3736V19.7309ZM57.8854 19.7647H53.0763V3.90241H43.5778V0.219533H67.423V3.90241H57.8848V19.7647H57.8854ZM71.1483 0.219533H88.8612C92.0274 0.219533 93.5105 1.34058 93.5105 4.22271V8.59212C93.5105 11.4737 92.0274 12.5941 88.8612 12.5941H87.9872L94.9062 19.7647H89.4588L83.2907 12.5941H75.8781V19.7647H71.1495V0.219533H71.1483ZM75.8769 3.78187V9.07199H86.6971C88.1802 9.07199 88.8612 8.79187 88.8612 7.43146V5.42355C88.8612 4.06256 88.1802 3.78187 86.6971 3.78187H75.8769ZM125.364 0.219533H138.032C145.766 0.219533 149.934 3.5471 149.934 9.95253C149.934 13.8357 148.172 16.4016 145.287 18.1627C143.282 19.4043 140.476 19.7647 136.789 19.7647H125.364V0.219533ZM136.106 15.881C142.198 15.881 145.162 14.9964 145.162 9.87274C145.162 5.66866 142.64 3.90241 138.112 3.90241H130.214V15.881H136.106ZM153.036 17.8435C153.036 17.8435 152.911 18.6982 153.408 19.259C153.908 19.8233 155.174 19.7177 155.174 19.7177H174.378V16.0836H157.827V11.5426H168.958V8.0204H157.827V3.72963H174.019V0.207478H155.158C155.158 0.207478 153.89 0.120802 153.392 0.685059C152.893 1.2453 153.02 2.10058 153.02 2.10058L153.036 17.8435ZM114.204 3.43803L112.906 1.2872C112.684 0.957614 112.384 0.687649 112.032 0.50107C111.681 0.31449 111.29 0.217019 110.892 0.217236L109.918 0.226995L109.003 0.217236C108.165 0.217236 107.425 0.642008 106.988 1.2872L106.234 2.50985L95.8986 19.7906H100.708L103.112 15.9039H116.217L118.702 19.7906H124.112L114.204 3.43803ZM105.156 12.1809L109.765 4.25027L114.213 12.1809H105.156ZM42.4842 7.99686H35.9749L39.3261 2.42145L36.3214 0.619047L32.8788 6.34657L29.4351 0.619047L26.4309 2.42145L29.7816 7.99686H23.2716V11.4978H29.7816L26.4309 17.0726L29.4351 18.875L32.8788 13.1469L36.3214 18.875L39.3261 17.0726L35.9749 11.4978H42.4842V7.99686ZM177.941 0.286692C178.432 0.286692 178.851 0.458897 179.197 0.804454C179.364 0.965901 179.496 1.15988 179.584 1.37435C179.673 1.58882 179.717 1.81921 179.712 2.05121C179.712 2.54142 179.542 2.95873 179.197 3.30544C178.853 3.65099 178.434 3.8232 177.941 3.8232C177.707 3.82719 177.476 3.7833 177.26 3.69424C177.044 3.60519 176.849 3.47286 176.686 3.30544C176.52 3.1421 176.389 2.9467 176.3 2.73109C176.212 2.51548 176.168 2.28418 176.172 2.05121C176.172 1.56445 176.346 1.14944 176.689 0.804454C176.851 0.637363 177.046 0.50522 177.261 0.416173C177.477 0.327125 177.708 0.28306 177.941 0.286692ZM180 2.0472C180 1.48179 179.799 0.998471 179.397 0.598382C179.207 0.405059 178.98 0.252334 178.729 0.149506C178.479 0.0466779 178.21 -0.0041016 177.939 0.000258804C177.669 -0.00364394 177.402 0.0473837 177.153 0.150224C176.903 0.253063 176.678 0.405556 176.49 0.598382C176.087 1.00019 175.885 1.48351 175.885 2.0472C175.88 2.3181 175.931 2.58709 176.034 2.83789C176.136 3.0887 176.289 3.3161 176.482 3.50634C176.67 3.70092 176.897 3.85483 177.147 3.95859C177.398 4.06235 177.667 4.11375 177.938 4.10963C178.209 4.11386 178.479 4.06252 178.73 3.95876C178.98 3.85501 179.207 3.70104 179.396 3.50634C179.591 3.31712 179.745 3.09005 179.849 2.83911C179.953 2.58817 180.004 2.31867 180 2.0472ZM178.477 1.60807C178.477 1.77971 178.397 1.89451 178.243 1.95593C178.158 1.98922 178.031 2.00587 177.861 2.00587H177.498V1.20052H177.843C178.064 1.20052 178.224 1.2275 178.326 1.28261C178.426 1.33829 178.477 1.44678 178.477 1.60807ZM177.105 0.913517V3.17054H177.498V2.29287H177.816C178.028 2.29287 178.179 2.31641 178.261 2.36463C178.405 2.44786 178.477 2.61719 178.477 2.87435V3.05172L178.484 3.12347L178.49 3.14816C178.492 3.15555 178.494 3.16301 178.496 3.17054H178.87L178.859 3.14242C178.849 3.12347 178.844 3.08444 178.84 3.02532C178.836 2.96619 178.836 2.91052 178.836 2.85943V2.69469C178.836 2.5816 178.794 2.46565 178.711 2.34683C178.628 2.22859 178.495 2.15511 178.316 2.12641C178.457 2.10402 178.567 2.06786 178.646 2.01792C178.796 1.92264 178.869 1.77224 178.869 1.57076C178.869 1.2849 178.752 1.09318 178.518 0.995027C178.386 0.941069 178.182 0.913517 177.899 0.913517H177.105Z" fill="white"/>
</svg>
