<svg width="121" height="26" viewBox="0 0 121 26" fill="none" xmlns="http://www.w3.org/2000/svg">
<path d="M61.8155 23.0372C59.3566 23.0372 57.9256 21.1426 57.7442 17.6961V17.5348H68.4466V16.6077C68.4466 10.4201 66.0078 7.01392 61.5737 7.01392C58.1473 7.01392 54.1365 9.49298 54.1365 16.5069C54.1365 22.4527 56.938 26 61.6342 26C64.3148 26 66.814 24.5891 68.3256 22.231C68.1039 22.0697 66.2497 20.7395 66.0481 20.5984C64.9597 22.0496 63.7907 23.0372 61.8155 23.0372ZM57.7845 14.8744C58.1675 10.662 60.3039 10.017 61.5334 10.017C63.7101 10.017 64.859 11.6093 65.0404 14.8744V15.0356H57.7644L57.7845 14.8744Z" fill="white"/>
<path d="M98.7193 23.0372C96.2806 23.0372 94.8294 21.1426 94.6682 17.6961V17.5348H105.37V16.6077C105.37 10.4201 102.932 7.01392 98.4976 7.01392C95.0713 7.01392 91.0806 9.49298 91.0806 16.5069C91.0806 22.4527 93.8821 26 98.5782 26C101.259 26 103.758 24.5891 105.27 22.231C105.048 22.0697 103.194 20.7395 102.992 20.5984C101.864 22.0496 100.715 23.0372 98.7193 23.0372ZM94.7085 14.8744C95.0914 10.662 97.2279 10.017 98.4573 10.017C100.634 10.017 101.783 11.6093 101.964 14.8744V15.0356H94.6883L94.7085 14.8744Z" fill="white"/>
<path d="M23.3799 23.0372C20.9411 23.0372 19.4899 21.1426 19.3287 17.6961V17.5348H30.031V16.6077C30.031 10.4201 27.5923 7.01392 23.1582 7.01392C19.7318 7.01392 15.7209 9.49298 15.7209 16.5069C15.7209 22.4527 18.5225 26 23.2186 26C25.8992 26 28.3985 24.5891 29.9101 22.231C29.6884 22.0697 27.8341 20.7395 27.6326 20.5984C26.524 22.0496 25.3752 23.0372 23.3799 23.0372ZM19.369 14.8744C19.752 10.662 21.8884 10.017 23.1178 10.017C25.2946 10.017 26.4434 11.6093 26.6248 14.8744V15.0356H19.3489L19.369 14.8744Z" fill="white"/>
<path d="M8.70698 19.3488C8.70698 22.1504 7.09457 22.755 5.72403 22.755C4.45426 22.755 2.88217 22.2108 1.59225 21.3442C1.45116 21.5659 0.12093 23.8635 0 24.0852C1.71318 25.2945 3.95039 25.9798 6.14729 25.9798C10.2589 25.9798 12.5364 23.7023 12.5364 19.5907V0.0402832H8.70698V19.3488Z" fill="white"/>
<path d="M45.6311 4.95814V7.37675H38.073V5.24031C38.073 3.16434 39.504 2.92248 40.5722 2.92248C40.7536 2.92248 41.2978 2.94264 41.6001 2.98295V0.0806189C41.3179 0.0403088 40.3505 0 39.7257 0C36.0978 0 34.3846 1.59225 34.3846 4.9783V7.3969H31.7241V10.2791H34.3846V25.6171H38.073V10.2791H45.6311V25.6171H49.3195V10.2791H52.7055V7.3969H49.3195V5.26047C49.3195 3.1845 50.7505 2.94264 51.8187 2.94264C52.0001 2.94264 52.5443 2.96279 52.8668 3.0031V0.100775C52.5846 0.0604651 51.6171 0.0201563 50.9923 0.0201563C47.3241 -0.0201538 45.6311 1.55194 45.6311 4.95814Z" fill="white"/>
<path d="M75.7024 10.1582L75.6621 10.2389H75.3598V7.37684H71.6714V25.597H75.3598V13.383L75.3799 13.3427C76.5288 11.428 78.383 10.3396 80.4388 10.3396C80.4388 10.3396 81.1644 10.3598 81.2047 10.3598C81.2047 10.0978 81.2853 7.27607 81.3055 6.9939H81.1039C77.7179 6.9939 76.1055 9.43265 75.7024 10.1582Z" fill="white"/>
<path d="M88.0171 0.604736H84.3086V4.05125H88.0171V0.604736Z" fill="white"/>
<path d="M87.997 7.37671H84.3086V25.5969H87.997V7.37671Z" fill="white"/>
<path d="M114.239 25.9799C117.464 25.9799 120.93 24.3272 120.93 20.7195C120.93 16.9303 117.968 15.9226 115.347 15.0358C113.352 14.3706 111.478 13.7458 111.478 11.9117C111.478 10.5815 112.445 9.83576 114.178 9.83576C115.67 9.83576 117.181 10.6218 118.371 11.952C118.552 11.7908 120.326 10.1582 120.527 9.97684C119.036 8.10242 116.698 6.9939 114.219 6.9939C110.51 6.9939 108.011 9.04971 108.011 12.1133C108.011 15.8621 110.974 16.8699 113.594 17.7567C115.609 18.442 117.504 19.0869 117.504 20.9412C117.504 22.3923 116.375 23.1784 114.319 23.1784C112.425 23.1784 110.51 22.2311 109.18 20.6389C108.999 20.8001 107.164 22.3319 106.963 22.5133C108.656 24.7908 111.175 25.9799 114.239 25.9799Z" fill="white"/>
</svg>
