<svg width="50" height="50" viewBox="0 0 50 50" fill="none" xmlns="http://www.w3.org/2000/svg">
<g clip-path="url(#clip0)">
<path d="M32.7101 13.4575H8.76582C8.35957 13.4575 8.03027 13.7868 8.03027 14.1931C8.03027 14.5993 8.35957 14.9286 8.76582 14.9286H32.7102C33.1164 14.9286 33.4457 14.5993 33.4457 14.1931C33.4457 13.7868 33.1163 13.4575 32.7101 13.4575Z" fill="#000D3B"/>
<path d="M8.76582 9.82632H20.7379C21.1441 9.82632 21.4734 9.49702 21.4734 9.09077C21.4734 8.68452 21.1441 8.35522 20.7379 8.35522H8.76582C8.35957 8.35522 8.03027 8.68452 8.03027 9.09077C8.03027 9.49712 8.35957 9.82632 8.76582 9.82632Z" fill="#000D3B"/>
<path d="M32.7101 17.9783H8.76582C8.35957 17.9783 8.03027 18.3076 8.03027 18.7138C8.03027 19.1201 8.35957 19.4494 8.76582 19.4494H32.7102C33.1164 19.4494 33.4457 19.1201 33.4457 18.7138C33.4456 18.3076 33.1163 17.9783 32.7101 17.9783Z" fill="#000D3B"/>
<path d="M14.2205 44.8895H6.55771C5.3 44.8895 4.27666 43.8662 4.27666 42.6085V3.75205C4.27666 2.49434 5.3 1.471 6.55771 1.471H28.6335C28.7048 1.471 28.775 1.47754 28.8444 1.48691V6.07422C28.8444 8.14316 30.5276 9.82627 32.5965 9.82627H37.1837C37.1932 9.8958 37.1996 9.96602 37.1996 10.0373V22.5628C37.1996 22.969 37.5289 23.2983 37.9352 23.2983C38.3414 23.2983 38.6707 22.969 38.6707 22.5628V10.0374C38.6707 9.23057 38.3564 8.47197 37.7859 7.90137L30.7693 0.884766C30.1988 0.314258 29.4403 0 28.6335 0H6.55771C4.48877 0 2.80566 1.6832 2.80566 3.75205V42.6085C2.80566 44.6773 4.48887 46.3604 6.55771 46.3604H14.2205C14.6268 46.3604 14.9561 46.0312 14.9561 45.6249C14.9561 45.2187 14.6268 44.8895 14.2205 44.8895ZM36.1595 8.35527H32.5966C31.3389 8.35527 30.3155 7.33193 30.3155 6.07422V2.51133L36.1595 8.35527Z" fill="#000D3B"/>
<path d="M46.969 36.0087L40.7367 25.4892C40.2825 24.7222 39.2941 24.4687 38.5267 24.9233L37.0108 25.8214C35.8341 26.5185 35.3367 27.9292 35.7407 29.1793C35.23 29.3643 34.67 29.3614 34.1544 29.1621C32.9575 28.7855 32.0476 28.028 30.5447 28.4081C27.993 29.0578 28.0705 29.0252 27.8397 29.1043C26.3455 28.2537 25.4474 28.0005 23.8613 28.6141L22.4474 29.1607C21.7928 29.4136 21.0715 29.3537 20.4666 28.9953L20.0808 28.7678C20.2691 27.6397 19.7688 26.4492 18.7094 25.8216C18.7094 25.8216 18.7094 25.8216 18.7093 25.8215L17.1935 24.9235C16.4282 24.4703 15.4368 24.724 14.9835 25.4892L8.7511 36.0088C8.2969 36.7756 8.54963 37.7644 9.31682 38.2188L10.8326 39.1168C11.2913 39.3886 11.7954 39.5178 12.2935 39.5178C12.8488 39.5178 13.3964 39.3569 13.8646 39.0538L14.1805 39.2402L13.5135 40.1692C12.7187 41.2764 12.9712 42.8161 14.0786 43.611C14.5907 43.9786 15.2341 44.1464 15.8994 44.0419C16.005 44.659 16.3431 45.2366 16.8905 45.6297C17.4047 45.9989 18.0451 46.1669 18.7116 46.062C18.8175 46.6786 19.1554 47.2556 19.7026 47.6485C20.4379 48.1763 21.3522 48.2374 22.114 47.912C22.2807 48.345 22.5704 48.736 22.9746 49.0262C24.0301 49.7837 25.484 49.5862 26.3041 48.6047L28.0766 49.6547C29.2488 50.3494 30.7612 49.9633 31.4562 48.7898C31.6339 48.4898 31.7442 48.1628 31.7845 47.8268L31.7885 47.8293C32.9589 48.5224 34.4747 48.1343 35.1681 46.9642C35.3689 46.6252 35.4789 46.2576 35.5057 45.8891C36.5373 46.1485 37.6616 45.7152 38.231 44.7542C38.4178 44.439 38.5261 44.0985 38.5617 43.7558C39.6674 44.1897 40.9597 43.7704 41.5841 42.7165C41.9199 42.1496 42.015 41.4859 41.8516 40.8475C41.7581 40.4823 41.5863 40.1507 41.3503 39.8708L42.3273 39.3C43.1537 39.6392 44.0969 39.5849 44.8873 39.1167L46.403 38.2187C47.1701 37.7646 47.4236 36.776 46.969 36.0087ZM11.5824 37.8513L10.0666 36.9532C9.99924 36.9132 9.97688 36.8259 10.0167 36.7585L16.2491 26.2387C16.2893 26.171 16.3769 26.1491 16.4439 26.1889L17.9596 27.0869C18.6331 27.486 18.8439 28.3499 18.4521 29.0111L13.5067 37.3587C13.1119 38.0251 12.2488 38.2459 11.5824 37.8513ZM14.9364 42.416C14.4898 42.0953 14.3876 41.474 14.7085 41.0271L15.6889 39.6615C16.0012 39.2264 16.6236 39.1074 17.0778 39.4334C17.5236 39.7535 17.6258 40.3764 17.3059 40.8222L16.3254 42.1878C16.0054 42.6338 15.3821 42.7358 14.9364 42.416ZM17.7485 44.4348C17.3027 44.1147 17.2004 43.4916 17.5204 43.0459L18.5008 41.6803C18.5008 41.6803 18.5008 41.6803 18.5008 41.6802C18.5008 41.6802 18.5008 41.6801 18.5009 41.6801L19.5828 40.1731C19.7379 39.9572 19.9677 39.8144 20.23 39.7714C20.2845 39.7625 20.3391 39.7581 20.3933 39.7581C20.5997 39.7581 20.8006 39.8223 20.9717 39.9451C21.1875 40.1001 21.3303 40.3298 21.3733 40.5921C21.4163 40.8545 21.3547 41.1179 21.1996 41.3338L19.1372 44.2067C18.8167 44.6535 18.1953 44.7557 17.7485 44.4348ZM20.5605 46.4535C20.1149 46.1335 20.0125 45.5109 20.332 45.0652C20.3321 45.065 20.3322 45.0648 20.3323 45.0646L22.3947 42.1918C22.7146 41.7461 23.338 41.6438 23.7836 41.9637C24.2294 42.2837 24.3317 42.9068 24.0116 43.3526L23.0953 44.6291C23.0953 44.6291 23.0953 44.6291 23.0952 44.6292L21.9492 46.2254C21.6292 46.6712 21.0064 46.7737 20.5605 46.4535ZM23.8325 47.8312C23.387 47.5113 23.2846 46.8889 23.6038 46.4431L24.2903 45.4871C24.6102 45.0412 25.2335 44.9392 25.6791 45.259C26.1248 45.579 26.2272 46.2021 25.9072 46.6479L25.2213 47.6031C24.9014 48.049 24.2781 48.1513 23.8325 47.8312ZM40.3188 41.9668C40.0389 42.4391 39.4272 42.5958 38.9547 42.316C38.1547 41.842 32.9942 38.7847 32.444 38.4587C32.0944 38.2517 31.6433 38.367 31.4363 38.7166C31.2292 39.0661 31.3446 39.5172 31.6941 39.7243L36.6162 42.6404L36.6163 42.6405C37.0889 42.9204 37.2465 43.5302 36.9655 44.0046C36.6856 44.4772 36.0736 44.6335 35.6013 44.354C33.7808 43.2754 32.3026 42.3997 30.6765 41.4363C30.3268 41.2293 29.8758 41.3446 29.6688 41.6941C29.4617 42.0436 29.5771 42.4948 29.9266 42.7018L33.5533 44.8504L33.5541 44.8509C34.027 45.1317 34.183 45.7413 33.9027 46.2147C33.6227 46.6873 33.0109 46.8438 32.5383 46.5639L30.5919 45.4109C30.5917 45.4108 30.5914 45.4107 30.5912 45.4105C30.591 45.4104 30.5908 45.4103 30.5906 45.4102L29.1702 44.5686C28.8206 44.3615 28.3696 44.4768 28.1625 44.8264C27.9555 45.1759 28.0708 45.6271 28.4203 45.8341L29.841 46.6758C29.8412 46.6759 29.8414 46.6761 29.8416 46.6762C30.3142 46.9561 30.4718 47.5659 30.1908 48.0403C29.9109 48.5128 29.299 48.6694 28.8265 48.3895L27.1692 47.4078C27.8796 46.3115 27.6094 44.8341 26.537 44.0644C26.2221 43.8384 25.8714 43.6977 25.5127 43.6373C25.8932 42.62 25.5652 41.4323 24.6414 40.7692C24.0946 40.3764 23.4398 40.2408 22.8218 40.3376C22.7118 39.6946 22.3602 39.1313 21.8296 38.7505C20.8318 38.0344 19.4757 38.172 18.6381 39.0194C18.4679 38.7205 18.2329 38.4523 17.9357 38.2389C17.1065 37.6438 16.0299 37.6382 15.209 38.1395L14.872 37.9406L19.498 30.1321L19.7182 30.262C20.6908 30.8381 21.8778 30.9583 22.9778 30.5329L24.3916 29.9863C25.2007 29.6736 25.6469 29.6532 26.4472 30.0308C25.9236 30.6191 25.6127 31.3915 25.6127 32.2239V35.4851C25.6127 36.3513 26.3169 37.0565 27.1824 37.0571H27.1846C28.0528 37.0571 28.8692 36.7191 29.4833 36.1053C29.8413 35.7475 30.1056 35.3209 30.264 34.8553C31.2137 35.4177 39.0601 40.0641 39.9697 40.6031C40.1986 40.7386 40.3609 40.9551 40.4268 41.2127C40.4927 41.4701 40.4543 41.7379 40.3188 41.9668ZM45.6535 36.9532L44.1376 37.8513C43.4712 38.2459 42.6081 38.0249 42.2136 37.3588L39.8956 33.4462C39.6885 33.0967 39.2371 32.9814 38.8879 33.1882C38.5384 33.3953 38.423 33.8464 38.6299 34.1959L40.9479 38.1086C40.9915 38.1823 41.0389 38.2523 41.0879 38.3206L40.4435 38.697C40.3132 38.7742 40.1879 38.8591 40.0681 38.9514L30.0756 33.0339C29.5861 32.7442 28.9654 33.0974 28.9654 33.6667C28.9576 33.7107 29.0413 34.4667 28.4434 35.0645C28.1071 35.4005 27.66 35.5857 27.1845 35.5857C27.1841 35.5857 27.1837 35.5857 27.1833 35.5857C27.1283 35.5857 27.0836 35.5404 27.0836 35.4847V32.2235C27.0836 31.3715 27.6697 30.6528 28.4624 30.4521L30.9054 29.8338C31.7918 29.6098 32.2929 30.0832 33.6201 30.5324C34.5415 30.8888 35.5434 30.8668 36.4326 30.4871L36.8766 31.2365C37.0837 31.5862 37.5349 31.7014 37.8843 31.4945C38.2338 31.2875 38.3492 30.8363 38.1423 30.4868L37.2679 29.0109C36.8723 28.3431 37.0927 27.4826 37.7604 27.0868L39.2762 26.1888C39.3424 26.1495 39.43 26.1696 39.471 26.2387L45.7032 36.7584C45.7435 36.8262 45.7213 36.913 45.6535 36.9532Z" fill="#1357DD"/>
</g>
<defs>
<clipPath id="clip0">
<rect width="50" height="50" fill="white"/>
</clipPath>
</defs>
</svg>
