<svg width="50" height="50" viewBox="0 0 50 50" fill="none" xmlns="http://www.w3.org/2000/svg">
<g clip-path="url(#clip0)">
<path d="M27.1257 9.67901C27.1257 8.85928 26.4588 8.19238 25.6392 8.19238H22.4866C21.6669 8.19238 21 8.85928 21 9.67901V12.8315C21 13.6513 21.667 14.3182 22.4866 14.3182H25.6392C26.4589 14.3182 27.1257 13.6513 27.1257 12.8315V9.67901ZM25.661 12.8315C25.661 12.8436 25.6512 12.8533 25.6392 12.8533H22.4866C22.4745 12.8533 22.4646 12.8435 22.4646 12.8315V9.67901C22.4646 9.6669 22.4745 9.65713 22.4866 9.65713H25.6392C25.6512 9.65713 25.661 9.66699 25.661 9.67901V12.8315Z" fill="#1357DD"/>
<path d="M25.1257 17.7793C25.1257 16.9596 25.4588 16.2927 24.6392 16.2927H22.4866C21.6669 16.2927 21 16.9596 21 17.7793V20.9319C21 21.7516 21.667 22.4185 22.4866 22.4185H24.6392C25.4589 22.4185 25.1257 21.7516 25.1257 20.9319V17.7793ZM24.661 20.9318C24.661 20.9439 25.6512 20.9537 25.6392 20.9537H22.4866C22.4745 20.9537 22.4646 20.9438 22.4646 20.9318V17.7793C22.4646 17.7672 22.4745 17.7575 22.4866 17.7575H24.6392C24.6512 17.7575 23.661 17.7673 24.661 17.7793V20.9318Z" fill="#1357DD"/>
<path d="M25.6392 24.3931H22.4866C21.6669 24.3931 21 25.06 21 25.8797V29.0322C21 29.852 21.667 30.5188 22.4866 30.5188H25.6392C26.4589 30.5188 27.1257 29.852 27.1257 29.0322V25.8797C27.1257 25.06 26.4589 24.3931 25.6392 24.3931ZM25.661 29.0322C25.661 29.0443 25.6512 29.0541 25.6392 29.0541H22.4866C22.4745 29.0541 22.4646 29.0442 22.4646 29.0322V25.8797C22.4646 25.8676 22.4745 25.8578 22.4866 25.8578H25.6392C25.6512 25.8578 25.661 25.8677 25.661 25.8797V29.0322Z" fill="#1357DD"/>
<path d="M11.7223 9.67901C11.7223 8.85928 11.0554 8.19238 10.2357 8.19238H7.0833C6.26357 8.19238 5.59668 8.85928 5.59668 9.67901V12.8315C5.59668 13.6513 6.26367 14.3182 7.0833 14.3182H10.2358C11.0556 14.3182 11.7224 13.6513 11.7224 12.8315V9.67901H11.7223ZM10.2576 12.8315C10.2576 12.8436 10.2478 12.8533 10.2357 12.8533H7.0833C7.07119 12.8533 7.06133 12.8435 7.06133 12.8315V9.67901C7.06133 9.6669 7.07119 9.65713 7.0833 9.65713H10.2358C10.2478 9.65713 10.2577 9.66699 10.2577 9.67901V12.8315H10.2576Z" fill="#1357DD"/>
<path d="M19.5603 9.67901C19.5603 8.85928 18.8934 8.19238 18.0737 8.19238H14.9212C14.1015 8.19238 13.4346 8.85928 13.4346 9.67901V12.8315C13.4346 13.6513 14.1016 14.3182 14.9212 14.3182H18.0737C18.8935 14.3182 19.5603 13.6513 19.5603 12.8315V9.67901ZM18.0956 12.8315C18.0956 12.8436 18.0857 12.8533 18.0737 12.8533H14.9212C14.9091 12.8533 14.8992 12.8435 14.8992 12.8315V9.67901C14.8992 9.6669 14.9091 9.65713 14.9212 9.65713H18.0737C18.0857 9.65713 18.0956 9.66699 18.0956 9.67901V12.8315Z" fill="#1357DD"/>
<path d="M11.7223 17.7793C11.7223 16.9596 11.0554 16.2927 10.2357 16.2927H7.0833C6.26357 16.2927 5.59668 16.9596 5.59668 17.7793V20.9319C5.59668 21.7516 6.26367 22.4185 7.0833 22.4185H10.2358C11.0556 22.4185 11.7224 21.7516 11.7224 20.9319V17.7793H11.7223ZM10.2576 20.9318C10.2576 20.9439 10.2478 20.9537 10.2357 20.9537H7.0833C7.07119 20.9537 7.06133 20.9438 7.06133 20.9318V17.7793C7.06133 17.7672 7.07119 17.7575 7.0833 17.7575H10.2358C10.2478 17.7575 10.2577 17.7673 10.2577 17.7793V20.9318H10.2576Z" fill="#1357DD"/>
<path d="M19.5603 17.7793C19.5603 16.9596 18.8934 16.2927 18.0737 16.2927H14.9212C14.1015 16.2927 13.4346 16.9596 13.4346 17.7793V20.9319C13.4346 21.7516 14.1016 22.4185 14.9212 22.4185H18.0737C18.8935 22.4185 19.5603 21.7516 19.5603 20.9319V17.7793ZM18.0956 20.9318C18.0956 20.9439 18.0857 20.9537 18.0737 20.9537H14.9212C14.9091 20.9537 14.8992 20.9438 14.8992 20.9318V17.7793C14.8992 17.7672 14.9091 17.7575 14.9212 17.7575H18.0737C18.0857 17.7575 18.0956 17.7673 18.0956 17.7793V20.9318Z" fill="#1357DD"/>
<path d="M10.2357 24.3931H7.0833C6.26357 24.3931 5.59668 25.06 5.59668 25.8797V29.0322C5.59668 29.852 6.26367 30.5188 7.0833 30.5188H10.2358C11.0556 30.5188 11.7224 29.852 11.7224 29.0322V25.8797C11.7223 25.06 11.0555 24.3931 10.2357 24.3931ZM10.2576 29.0322C10.2576 29.0443 10.2478 29.0541 10.2357 29.0541H7.0833C7.07119 29.0541 7.06133 29.0442 7.06133 29.0322V25.8797C7.06133 25.8676 7.07119 25.8578 7.0833 25.8578H10.2358C10.2478 25.8578 10.2577 25.8677 10.2577 25.8797V29.0322H10.2576Z" fill="#1357DD"/>
<path d="M18.0737 24.3931H14.9212C14.1015 24.3931 13.4346 25.06 13.4346 25.8797V29.0322C13.4346 29.852 14.1016 30.5188 14.9212 30.5188H18.0737C18.8935 30.5188 19.5603 29.852 19.5603 29.0322V25.8797C19.5603 25.06 18.8935 24.3931 18.0737 24.3931ZM18.0956 29.0322C18.0956 29.0443 18.0857 29.0541 18.0737 29.0541H14.9212C14.9091 29.0541 14.8992 29.0442 14.8992 29.0322V25.8797C14.8992 25.8676 14.9091 25.8578 14.9212 25.8578H18.0737C18.0857 25.8578 18.0956 25.8677 18.0956 25.8797V29.0322Z" fill="#1357DD"/>
<path d="M47.6692 45.3429H46.5823V39.1543C46.5823 36.689 44.9302 34.4821 42.5646 33.7876L38.1291 32.4855C38.0041 32.3682 37.86 32.2717 37.7024 32.2016L36.7815 31.7912C36.521 31.6752 36.2433 31.6235 35.9687 31.6321V29.5672C37.4262 28.5049 38.4415 26.8642 38.6615 24.9731C39.3835 24.7947 39.9204 24.1414 39.9204 23.3651V21.3685V17.5366C39.9204 16.1909 38.8461 15.0915 37.5101 15.0507C37.4379 13.7436 36.3517 12.7021 35.0268 12.7021H28.9799C28.4228 12.7021 27.9842 12.7651 27.3906 12.9753C26.5084 13.2877 26.0251 13.6166 25.4056 14.3181C24.8275 14.9725 24.3569 16.2072 24.3569 17C24.3569 17 24.2089 20 24.2089 23.3652C24.2089 24.5 25.4 25 25.4 25C25.4 25 25.8757 27.495 27.3979 28.9196C27.6832 29.1867 27.8904 29.3706 28.1605 29.5675V31.6284C27.8883 31.6219 27.6134 31.6742 27.3563 31.7896L26.4531 32.1952C26.2966 32.2654 26.1535 32.3617 26.0294 32.4785L21.5673 33.7882C19.2016 34.4825 17.5493 36.6894 17.5493 39.1549V39.6521C17.5493 40.0566 17.8771 40.3845 18.2816 40.3845C18.6861 40.3845 19.014 40.0565 19.014 39.6521V39.1549C19.014 37.3351 20.2335 35.7061 21.9798 35.1936L25.6335 34.1212C25.7084 34.3283 25.8287 34.5225 25.9941 34.6882L28.496 37.1934C28.4984 37.1958 28.5009 37.1982 28.5033 37.2006C28.8131 37.5021 29.2143 37.6547 29.6168 37.6546C29.7107 37.6546 29.8047 37.6459 29.8977 37.6292L30.4171 38.5214L29.208 45.3429H23.5973V43.7518C23.5973 43.3473 23.2694 43.0194 22.8649 43.0194C22.4605 43.0194 22.1326 43.3474 22.1326 43.7518V45.3429H19.0143V43.0756C19.0143 42.6711 18.6864 42.3433 18.2819 42.3433C17.8774 42.3433 17.5496 42.6712 17.5496 43.0756V45.3429H14.5016V36.7967H14.5936C14.998 36.7967 15.3259 36.4688 15.3259 36.0644C15.3259 35.6599 14.998 35.332 14.5936 35.332H5.77617C5.37168 35.332 5.04385 35.66 5.04385 36.0644C5.04385 36.4688 5.37168 36.7967 5.77617 36.7967H5.86816V45.3429H3.21592V6.99248C3.21592 6.38252 3.71221 5.88633 4.32207 5.88633H28.6729C29.2829 5.88633 29.779 6.38252 29.779 6.99248V9.96221C29.779 10.3667 30.1068 10.6945 30.5113 10.6945C30.9158 10.6945 31.2437 10.3666 31.2437 9.96221V6.99248C31.2437 5.68623 30.2642 4.60518 29.0013 4.44336V1.80166C29.0014 0.808203 28.1931 0 27.1996 0H5.79531C4.80186 0 3.99375 0.808203 3.99375 1.80166V4.44336C2.73076 4.60518 1.75127 5.68623 1.75127 6.99248V45.4158C0.746582 45.674 0.00195312 46.5873 0.00195312 47.6714C0.00195312 48.9554 1.04648 50 2.33057 50H47.6693C48.9533 50 49.998 48.9554 49.998 47.6714C49.998 46.3874 48.9533 45.3429 47.6692 45.3429ZM5.79531 1.46475H27.1996C27.3855 1.46475 27.5366 1.61592 27.5366 1.80166V4.42158H5.4584V1.80166C5.4584 1.61582 5.60957 1.46475 5.79531 1.46475ZM45.1177 39.1543V45.3429H41.997V43.7518C41.997 43.3473 41.6691 43.0194 41.2646 43.0194C40.8602 43.0194 40.5323 43.3474 40.5323 43.7518V45.3429H34.9246L33.7136 38.5139L34.2401 37.5702C34.3382 37.5889 34.4374 37.599 34.5367 37.599C34.9363 37.599 35.3356 37.4483 35.6473 37.1489L38.1502 34.7116C38.3223 34.5441 38.447 34.3434 38.5234 34.1278L42.1522 35.1932C43.8981 35.7057 45.1177 37.3346 45.1177 39.1543ZM31.6062 37.6525L31.145 36.8604L32.1271 36.0401L33 36.7866L32.5168 37.6524L31.6062 37.6525ZM36.1855 33.1291L37.1065 33.5396C37.1531 33.5603 37.1668 33.6244 37.1282 33.6621L34.6289 36.096C34.5797 36.143 34.5038 36.1452 34.4521 36.1012L33.2924 35.1095L35.7881 33.1771C35.9019 33.0889 36.0542 33.0706 36.1855 33.1291ZM35.0269 14.1669C35.5906 14.1669 36.0492 14.6255 36.0492 15.1893C36.0492 15.9198 36.6436 16.5143 37.3742 16.5143H37.4333C37.9971 16.5143 38.4557 16.9729 38.4557 17.5366V20.636H37.9755C37.7061 20.636 37.4868 20.4169 37.4868 20.1475V19.4792C37.4868 18.3108 36.5277 17.4558 35.4719 17.4558C35.2582 17.4558 35.0424 17.4902 34.8312 17.56C33.048 18.1494 31.0835 18.1496 29.2979 17.5596C27.9886 17.127 26.6425 18.0999 26.6425 19.4789V20.1475C26.6425 20.4169 26.4232 20.636 26.1538 20.636H25.6736V17.473C25.6736 15.6501 27.1567 14.1669 28.9799 14.1669H35.0269ZM26.8983 24.5293C26.8637 23.9839 26.4099 23.5565 25.8653 23.5565C25.7598 23.5565 25.6738 23.4706 25.6738 23.365V22.1008H26.154C27.2311 22.1008 28.1073 21.2245 28.1073 20.1475V19.4789C28.1073 19.1033 28.4733 18.8298 28.8408 18.9512C30.9207 19.6383 33.2114 19.6381 35.2909 18.9507C35.6509 18.8318 36.0223 19.0988 36.0223 19.4792V20.1475C36.0223 21.2245 36.8985 22.1008 37.9756 22.1008H38.4558V23.365C38.4558 23.4706 38.3698 23.5565 38.2643 23.5565C37.7196 23.5565 37.2659 23.9838 37.2313 24.5296C37.0599 27.2476 34.7905 29.3767 32.0647 29.3767C29.3391 29.3767 27.0697 27.2476 26.8983 24.5293ZM32.0648 30.8413C32.9237 30.8413 33.747 30.6758 34.504 30.3754V32.3187L32.1246 34.1611L29.6255 32.2937V30.3755C30.3826 30.6758 31.2059 30.8413 32.0648 30.8413ZM27.031 33.6529C26.9913 33.6133 27.0094 33.5508 27.0533 33.5312L27.9564 33.1257C28.0856 33.0679 28.2361 33.0843 28.3498 33.169L30.9518 35.1134L29.7012 36.1579C29.65 36.2006 29.5757 36.1985 29.5271 36.1533L27.031 33.6529ZM31.7991 39.1172H32.3329L33.437 45.3429H30.6957L31.7991 39.1172ZM7.33291 36.7967H13.0367V45.3429H7.33291V36.7967ZM47.6692 48.5353H2.33057C1.8542 48.5353 1.4667 48.1478 1.4667 47.6714C1.4667 47.195 1.8542 46.8076 2.33057 46.8076H47.6693C48.1457 46.8076 48.5332 47.1951 48.5332 47.6714C48.5332 48.1477 48.1456 48.5353 47.6692 48.5353Z" fill="#000D3B"/>
</g>
<defs>
<clipPath id="clip0">
<rect width="50" height="50" fill="white"/>
</clipPath>
</defs>
</svg>
