<svg width="50" height="50" viewBox="0 0 50 50" fill="none" xmlns="http://www.w3.org/2000/svg">
<g clip-path="url(#clip0)">
<path d="M46.1812 27.4996C46.1715 27.4996 46.1616 27.4997 46.1517 27.4999C45.2017 27.498 44.2861 27.8552 43.5883 28.4999L34.56 36.8332C34.0989 37.2615 33.4927 37.4997 32.8633 37.4999H20.2025C19.282 37.4999 18.5358 36.7537 18.5358 35.8332C18.5358 34.9127 19.282 34.1665 20.2025 34.1665H28.9642C30.8051 34.1665 32.2975 32.6741 32.2975 30.8332C32.2975 28.9923 30.8051 27.4999 28.9642 27.4999H15.3675C13.3369 27.4992 11.3472 28.0702 9.62583 29.1474L6.66667 30.9999V29.9999H0V49.9999H6.66667V48.3332H24.2358C24.7874 48.3332 25.3381 48.2911 25.8833 48.2074L32.725 47.1549C35.0036 46.8092 37.1111 45.7412 38.7375 44.1082L48.8925 33.9515C49.6039 33.2445 50.0027 32.2821 50 31.279C49.9892 29.1808 48.2794 27.4887 46.1812 27.4996ZM5 48.3332H1.66667V31.6665H5V48.3332ZM47.7133 32.7749L47.7142 32.7732L37.5592 42.9299C36.1829 44.3116 34.3997 45.2153 32.4717 45.5082L25.63 46.5607C25.1686 46.6312 24.7026 46.6667 24.2358 46.6666H6.66667V32.9615L10.51 30.5599C11.9664 29.6489 13.6497 29.166 15.3675 29.1665H28.9642C29.8847 29.1665 30.6308 29.9127 30.6308 30.8332C30.6308 31.7537 29.8847 32.4999 28.9642 32.4999H20.2025C18.3616 32.4999 16.8692 33.9923 16.8692 35.8332C16.8692 37.6742 18.3616 39.1665 20.2025 39.1665H32.8633C33.9111 39.1677 34.9207 38.773 35.69 38.0615L44.7192 29.7282C45.1289 29.356 45.6658 29.1556 46.2192 29.1682C47.3858 29.1678 48.3321 30.1132 48.3325 31.2799C48.3327 31.8406 48.1099 32.3784 47.7133 32.7749Z" fill="#000D3B"/>
<path d="M37.3333 8.66659C37.1759 8.4568 36.9289 8.33326 36.6667 8.33326H28.8975L25.7742 0.524091C25.6032 0.0967993 25.1183 -0.111117 24.6909 0.0598202C24.4792 0.144508 24.3113 0.31232 24.2267 0.524091L21.1025 8.33326H13.3333C12.8731 8.33326 12.5 8.70638 12.5 9.16659C12.5 9.42888 12.6235 9.67586 12.8333 9.83326L19.0058 14.4624L15.8833 23.0458C15.726 23.4783 15.9492 23.9564 16.3817 24.1137C16.6547 24.2129 16.9597 24.1628 17.1867 23.9816L24.9708 17.7533L31.9458 23.9524C32.29 24.258 32.8167 24.2268 33.1223 23.8826C33.309 23.6723 33.3771 23.3821 33.3033 23.1108L30.9533 14.4941L37.1666 9.83326C37.5349 9.55711 37.6095 9.03472 37.3333 8.66659ZM29.5 13.4999C29.2266 13.7049 29.106 14.0561 29.1958 14.3858L30.9583 20.8483L25.5542 16.0441C25.2508 15.7742 24.7972 15.7623 24.48 16.0158L18.465 20.8274L20.7842 14.4516C20.9095 14.1064 20.7941 13.7199 20.5 13.4999L15.8333 9.99992H21.6667C22.0077 10 22.3144 9.79242 22.4408 9.47576L25 3.07659L27.5592 9.47576C27.6856 9.79242 27.9924 10 28.3333 9.99992H34.1667L29.5 13.4999Z" fill="#1357DD"/>
<path d="M16.4226 1.9111L15.2441 3.0896L18.5775 6.42299L19.756 5.24449L16.4226 1.9111Z" fill="#1357DD"/>
<path d="M33.5775 1.91051L30.2441 5.2439L31.4226 6.4224L34.756 3.08901L33.5775 1.91051Z" fill="#1357DD"/>
<path d="M15.833 15H10.833V16.6667H15.833V15Z" fill="#1357DD"/>
<path d="M39.167 15H34.167V16.6667H39.167V15Z" fill="#1357DD"/>
<path d="M25.8337 20H24.167V25H25.8337V20Z" fill="#1357DD"/>
</g>
<defs>
<clipPath id="clip0">
<rect width="50" height="50" fill="white"/>
</clipPath>
</defs>
</svg>
