<svg width="50" height="50" viewBox="0 0 50 50" fill="none" xmlns="http://www.w3.org/2000/svg">
<g clip-path="url(#clip0)">
<path d="M25 22.5C24.8783 22.5 24.7575 22.4733 24.645 22.4208L10.4783 15.7541C10.1867 15.6166 10 15.3225 10 15C10 14.6775 10.1867 14.3833 10.4783 14.2458L24.645 7.57913C24.87 7.4733 25.13 7.4733 25.355 7.57913L39.5217 14.2458C39.8133 14.3833 40 14.6775 40 15C40 15.3225 39.8133 15.6166 39.5217 15.7541L25.355 22.4208C25.2425 22.4733 25.1217 22.5 25 22.5ZM12.7908 15L25 20.7458L37.2092 15L25 9.25413L12.7908 15Z" fill="#1357DD"/>
<path d="M25.0003 29.1667C24.8728 29.1667 24.7445 29.1376 24.6278 29.0792L14.6278 24.0792C14.3453 23.9376 14.167 23.6492 14.167 23.3334V16.9609C14.167 16.6759 14.3128 16.41 14.5537 16.2575C14.7945 16.1042 15.097 16.0867 15.3545 16.2067L25.0003 20.7459L34.6453 16.2067C34.9037 16.0859 35.2062 16.1042 35.4461 16.2575C35.6878 16.41 35.8336 16.6759 35.8336 16.9609V23.3334C35.8336 23.6492 35.6553 23.9376 35.3728 24.0792L25.3728 29.0792C25.2562 29.1376 25.1278 29.1667 25.0003 29.1667ZM15.8337 22.8184L25.0003 27.4017L34.167 22.8184V18.2742L25.3553 22.4209C25.1303 22.5267 24.8703 22.5267 24.6453 22.4209L15.8337 18.2742V22.8184Z" fill="#1357DD"/>
<path d="M39.167 15.8334H25.0003C24.5403 15.8334 24.167 15.4601 24.167 15.0001C24.167 14.5401 24.5403 14.1667 25.0003 14.1667H39.167C39.627 14.1667 40.0003 14.5401 40.0003 15.0001C40.0003 15.4601 39.627 15.8334 39.167 15.8334Z" fill="#1357DD"/>
<path d="M39.1663 23.3334C38.7063 23.3334 38.333 22.9601 38.333 22.5001V15.0001C38.333 14.5401 38.7063 14.1667 39.1663 14.1667C39.6263 14.1667 39.9997 14.5401 39.9997 15.0001V22.5001C39.9997 22.9601 39.6263 23.3334 39.1663 23.3334Z" fill="#1357DD"/>
<path d="M25.0003 17.5C24.5403 17.5 24.167 17.1267 24.167 16.6667V13.3333C24.167 12.8733 24.5403 12.5 25.0003 12.5C25.4603 12.5 25.8336 12.8733 25.8336 13.3333V16.6667C25.8336 17.1267 25.4603 17.5 25.0003 17.5Z" fill="#1357DD"/>
<path d="M37.4994 25.8335C37.3411 25.8335 37.1802 25.7885 37.0377 25.6935C36.6552 25.4385 36.5519 24.921 36.8069 24.5377L38.4736 22.0377C38.7286 21.6544 39.2452 21.5502 39.6294 21.8069C40.0119 22.0619 40.1152 22.5794 39.8602 22.9627L38.1936 25.4627C38.0327 25.7035 37.7686 25.8335 37.4994 25.8335Z" fill="#1357DD"/>
<path d="M40.8347 25.8335C40.5655 25.8335 40.3014 25.7035 40.1405 25.4627L38.4739 22.9627C38.2189 22.5802 38.3222 22.0619 38.7047 21.8069C39.0872 21.5502 39.6047 21.6544 39.8605 22.0377L41.5272 24.5377C41.7822 24.9202 41.6789 25.4385 41.2964 25.6935C41.1539 25.7885 40.993 25.8335 40.8347 25.8335Z" fill="#1357DD"/>
<path d="M25.0003 24.9999C24.5403 24.9999 24.167 24.6266 24.167 24.1666V21.6666C24.167 21.2066 24.5403 20.8333 25.0003 20.8333C25.4603 20.8333 25.8336 21.2066 25.8336 21.6666V24.1666C25.8336 24.6266 25.4603 24.9999 25.0003 24.9999Z" fill="#1357DD"/>
<path d="M49.1667 32.5002H0.833333C0.373333 32.5002 0 32.1268 0 31.6668V4.16766C0 2.32933 1.49583 0.833496 3.33417 0.833496H46.6658C48.5042 0.833496 50 2.32933 50 4.16766V31.6668C50 32.1268 49.6267 32.5002 49.1667 32.5002ZM1.66667 30.8335H48.3333V4.16766C48.3333 3.24766 47.5858 2.50016 46.6658 2.50016H3.33417C2.41417 2.50016 1.66667 3.24766 1.66667 4.16766V30.8335Z" fill="#000D3B"/>
<path d="M46.6658 39.1666H3.33417C1.49583 39.1666 0 37.6707 0 35.8324V31.6666C0 31.2066 0.373333 30.8333 0.833333 30.8333H49.1667C49.6267 30.8333 50 31.2066 50 31.6666V35.8324C50 37.6707 48.5042 39.1666 46.6658 39.1666ZM1.66667 32.4999V35.8324C1.66667 36.7524 2.41417 37.4999 3.33417 37.4999H46.6658C47.5858 37.4999 48.3333 36.7524 48.3333 35.8324V32.4999H1.66667Z" fill="#000D3B"/>
<path d="M27.5003 35.8334H22.5003C22.0403 35.8334 21.667 35.4601 21.667 35.0001C21.667 34.5401 22.0403 34.1667 22.5003 34.1667H27.5003C27.9603 34.1667 28.3337 34.5401 28.3337 35.0001C28.3337 35.4601 27.9603 35.8334 27.5003 35.8334Z" fill="#000D3B"/>
<path d="M45.833 32.4998H4.16634C3.70634 32.4998 3.33301 32.1265 3.33301 31.6665V4.99984C3.33301 4.53984 3.70634 4.1665 4.16634 4.1665H45.833C46.293 4.1665 46.6663 4.53984 46.6663 4.99984V31.6665C46.6663 32.1265 46.293 32.4998 45.833 32.4998ZM4.99967 30.8332H44.9997V5.83317H4.99967V30.8332Z" fill="#000D3B"/>
<path d="M35.8337 49.1667H14.167C12.7887 49.1667 11.667 48.0451 11.667 46.6667C11.667 45.2884 12.7887 44.1667 14.167 44.1667H35.8337C37.212 44.1667 38.3337 45.2884 38.3337 46.6667C38.3337 48.0451 37.212 49.1667 35.8337 49.1667ZM14.167 45.8334C13.7078 45.8334 13.3337 46.2076 13.3337 46.6667C13.3337 47.1259 13.7078 47.5001 14.167 47.5001H35.8337C36.2928 47.5001 36.667 47.1259 36.667 46.6667C36.667 46.2076 36.2928 45.8334 35.8337 45.8334H14.167Z" fill="#000D3B"/>
<path d="M34.1667 45.8333H15.8333C15.3733 45.8333 15 45.46 15 45C15 44.54 15.3733 44.1667 15.8333 44.1667C18.5983 44.1667 20 42.2042 20 38.3333C20 37.8733 20.3733 37.5 20.8333 37.5H29.1667C29.6267 37.5 30 37.8733 30 38.3333C30 42.2042 31.4017 44.1667 34.1667 44.1667C34.6267 44.1667 35 44.54 35 45C35 45.46 34.6267 45.8333 34.1667 45.8333ZM19.8925 44.1667H30.1083C29.0817 43.03 28.4775 41.3375 28.3567 39.1667H21.6442C21.5225 41.3375 20.9192 43.03 19.8925 44.1667Z" fill="#000D3B"/>
</g>
<defs>
<clipPath id="clip0">
<rect width="50" height="50" fill="white"/>
</clipPath>
</defs>
</svg>
