<svg width="50" height="50" viewBox="0 0 50 50" fill="none" xmlns="http://www.w3.org/2000/svg">
<path d="M46.875 0.78125H3.125C1.83281 0.78125 0.78125 1.83281 0.78125 3.125V37.5C0.78125 38.7922 1.83281 39.8438 3.125 39.8438H24.2188V40.2734C24.2188 41.1125 24.4156 41.9539 24.7891 42.7055L26.5625 46.2766V49.1836L40.625 49.2203V46.3539L41.875 44.6875C42.5805 43.7469 42.9688 42.582 42.9688 41.4062V39.8438H46.875C48.1672 39.8438 49.2188 38.7922 49.2188 37.5V3.125C49.2188 1.83281 48.1672 0.78125 46.875 0.78125ZM3.125 2.34375H46.875C47.3055 2.34375 47.6562 2.69453 47.6562 3.125V10.1562H2.34375V3.125C2.34375 2.69453 2.69453 2.34375 3.125 2.34375ZM31.25 19.5312C29.9578 19.5312 28.9062 20.5828 28.9062 21.875V22.6562H19.5312V14.8438H44.5312V22.6562H33.5938V21.875C33.5938 20.5828 32.5422 19.5312 31.25 19.5312ZM28.9062 32.232C27.8586 31.1297 26.3719 30.4359 24.7023 30.4359C23.575 30.4359 22.657 31.3531 22.6562 32.4813C22.6562 32.7969 22.7312 33.1133 22.8719 33.3969L23.7523 35.1562H19.5312V27.3438H28.9062V32.232ZM41.4062 41.4062C41.4062 42.2461 41.1289 43.0789 40.625 43.75L39.0625 45.8336V47.6547L28.125 47.625V45.9102L26.1883 42.0102C25.9219 41.4734 25.7812 40.8734 25.7812 40.2734V37.0641C25.7812 36.1844 25.5734 35.3039 25.1805 34.518L24.2703 32.6977C24.2367 32.6313 24.2188 32.5555 24.2188 32.4813C24.2188 32.2148 24.4359 31.9984 24.7766 31.9984C27.0539 31.9984 28.9062 33.8516 28.9062 36.1289V37.4672V39.0297H30.4688V37.4672V36.1289V21.875C30.4688 21.4445 30.8195 21.0938 31.25 21.0938C31.6805 21.0938 32.0312 21.4445 32.0312 21.875V31.25V34.375H33.5938V31.25C33.5938 30.8195 33.9445 30.4688 34.375 30.4688C34.8055 30.4688 35.1562 30.8195 35.1562 31.25V34.375H36.7188V31.25C36.7188 30.8195 37.0695 30.4688 37.5 30.4688C37.9305 30.4688 38.2812 30.8195 38.2812 31.25V32.8125V34.375H39.8438V32.8125C39.8438 32.382 40.1945 32.0312 40.625 32.0312C41.0555 32.0312 41.4062 32.382 41.4062 32.8125V41.4062ZM40.625 30.4688C40.3164 30.4688 40.0234 30.532 39.7531 30.6406C39.4836 29.6445 38.5805 28.9062 37.5 28.9062C36.8977 28.9062 36.3531 29.1414 35.9375 29.5156C35.5219 29.1406 34.9773 28.9062 34.375 28.9062C34.1 28.9062 33.8391 28.9625 33.5938 29.05V27.3438H44.5312V35.1562H42.9688V32.8125C42.9688 31.5203 41.9172 30.4688 40.625 30.4688ZM46.875 38.2812H42.9688V36.7188H46.0938V25.7812H33.5938V24.2188H46.0938V13.2812H17.9688V24.2188H28.9062V25.7812H17.9688V36.7188H24.1984C24.2086 36.8336 24.2188 36.9492 24.2188 37.0641V38.2812H3.125C2.69453 38.2812 2.34375 37.9305 2.34375 37.5V11.7188H47.6562V37.5C47.6562 37.9305 47.3055 38.2812 46.875 38.2812Z" fill="#000D3B"/>
<path d="M8.59375 3.90625H3.90625V8.59375H8.59375V3.90625ZM7.03125 7.03125H5.46875V5.46875H7.03125V7.03125Z" fill="#1357DD"/>
<path d="M14.8438 3.90625H10.1562V8.59375H14.8438V3.90625ZM13.2812 7.03125H11.7188V5.46875H13.2812V7.03125Z" fill="#1357DD"/>
<path d="M21.0938 3.90625H16.4062V8.59375H21.0938V3.90625ZM19.5312 7.03125H17.9688V5.46875H19.5312V7.03125Z" fill="#1357DD"/>
<path d="M21.0938 16.4062H22.6562V17.9688H21.0938V16.4062Z" fill="#000D3B"/>
<path d="M24.2188 16.4062H42.9688V17.9688H24.2188V16.4062Z" fill="#000D3B"/>
<path d="M35.1562 19.5312H42.9688V21.0938H35.1562V19.5312Z" fill="#000D3B"/>
<path d="M21.0938 19.5312H27.3438V21.0938H21.0938V19.5312Z" fill="#000D3B"/>
<path d="M5.46875 24.2188H16.4062V13.2812H5.46875V24.2188ZM7.03125 14.8438H14.8438V22.6562H7.03125V14.8438Z" fill="#1357DD"/>
<path d="M10.1568 19.2079L9.14668 18.1978L8.04199 19.3024L10.1568 21.4173L14.6154 16.9587L13.5107 15.854L10.1568 19.2079Z" fill="#1357DD"/>
<path d="M5.46875 36.7188H16.4062V25.7812H5.46875V36.7188ZM7.03125 27.3438H14.8438V35.1562H7.03125V27.3438Z" fill="#1357DD"/>
<path d="M10.1568 31.7079L9.14668 30.6978L8.04199 31.8024L10.1568 33.9173L14.6154 29.4587L13.5107 28.354L10.1568 31.7079Z" fill="#1357DD"/>
</svg>
