<svg width="50" height="50" viewBox="0 0 50 50" fill="none" xmlns="http://www.w3.org/2000/svg">
<path d="M5.81934 5.83071V49.1423C5.81934 49.6023 6.19227 49.9753 6.65234 49.9753H38.3031C38.7629 49.9753 39.1358 49.6023 39.1358 49.1423V14.1601C39.1358 14.1416 39.1269 14.1258 39.1252 14.1076C39.1211 14.0345 39.1066 13.9625 39.0826 13.8935C39.0734 13.8668 39.0668 13.841 39.0552 13.8149C39.0147 13.7244 38.9584 13.6417 38.8884 13.571L30.5594 5.24198C30.4887 5.17165 30.4057 5.11538 30.3145 5.07524C30.2894 5.06461 30.264 5.05568 30.2379 5.04779C30.1683 5.02378 30.0959 5.00937 30.0221 5.00457C30.0081 5.00697 29.9916 4.99805 29.9741 4.99805H6.65234C6.19227 4.99805 5.81934 5.37064 5.81934 5.83071ZM36.2923 13.3271H30.8068V7.84152L36.2923 13.3271ZM7.48501 6.66372H29.1411V14.1601C29.1411 14.6198 29.514 14.9928 29.9738 14.9928H37.4701V48.3096H7.48501V6.66372Z" fill="#000D3B"/>
<path d="M40.8015 43.3115V44.9772H43.3002C43.7603 44.9772 44.1332 44.6046 44.1332 44.1445V0.833006C44.1332 0.372932 43.7603 0 43.3002 0H11.6494C11.1893 0 10.8164 0.372932 10.8164 0.833006V3.33168H12.4824V1.66567H42.4672V43.3115H40.8015Z" fill="#1357DD"/>
<path d="M12.4824 16.6582H32.4722V18.3239H12.4824V16.6582Z" fill="#000D3B"/>
<path d="M12.4824 21.6001H32.4722V23.2658H12.4824V21.6001Z" fill="#000D3B"/>
<path d="M12.4824 11.6611H27.4824V13.3272H12.4824V11.6611Z" fill="#000D3B"/>
<path d="M12.4824 26.6528H32.4722V28.3188H12.4824V26.6528Z" fill="#000D3B"/>
<path d="M12.4824 31.7002H32.4722V33.3662H12.4824V31.7002Z" fill="#000D3B"/>
<path d="M12.4824 36.6479H32.4722V38.314H12.4824V36.6479Z" fill="#000D3B"/>
<path d="M12.4824 41.7002H32.4722V43.3662H12.4824V41.7002Z" fill="#000D3B"/>
</svg>
