<svg width="50" height="50" viewBox="0 0 50 50" fill="none" xmlns="http://www.w3.org/2000/svg">
<path d="M29.0898 15.9921L32.4041 12.6782L33.5088 13.783L30.1946 17.0972L29.0898 15.9921Z" fill="#1357DD"/>
<path d="M32.2012 19.6573L36.7296 18.4438L37.134 19.9533L32.6055 21.1664L32.2012 19.6573Z" fill="#1357DD"/>
<path d="M25.0195 13.5809L26.233 9.05322L27.7421 9.45758L26.529 13.9852L25.0195 13.5809Z" fill="#1357DD"/>
<path d="M12.5 6.12988H14.0625V15.5049H12.5V6.12988Z" fill="#000D3B"/>
<path d="M15.625 6.12988H17.1875V12.3799H15.625V6.12988Z" fill="#000D3B"/>
<path d="M18.75 6.12988H20.3125V9.25488H18.75V6.12988Z" fill="#000D3B"/>
<path d="M35.9375 29.5674H37.5V38.9424H35.9375V29.5674Z" fill="#000D3B"/>
<path d="M32.8125 32.6924H34.375V38.9424H32.8125V32.6924Z" fill="#000D3B"/>
<path d="M29.6875 35.8174H31.25V38.9424H29.6875V35.8174Z" fill="#000D3B"/>
<path d="M48.4375 43.6298V20.9736C48.4348 18.8171 46.6877 17.0696 44.5312 17.0673H41.4062V2.20718L38.393 0.0976562L36.161 1.66016L33.9298 0.0976562L31.6967 1.66016L29.4655 0.0976562L27.2335 1.66016L25 0.0976562L22.7688 1.66016L20.536 0.0976562L18.3041 1.66016L16.0709 0.0976562L13.839 1.66016L11.6055 0.0976562L8.59375 2.20718V17.0673H5.46875C3.3123 17.0696 1.56517 18.8171 1.5625 20.9736V43.6298H0V45.9736C0.00267029 48.1297 1.7498 49.8772 3.90625 49.8798H46.0938C48.2502 49.8772 49.9973 48.1297 50 45.9736V43.6298H48.4375ZM41.4062 23.3173H42.9688V40.5048H41.4062V23.3173ZM10.1562 3.02124L11.607 2.00539L13.8405 3.56789L16.0728 2.00539L18.3056 3.56789L20.5376 2.00539L22.7703 3.56789L25.0015 2.00539L27.2335 3.56789L29.4655 2.00539L31.6967 3.56789L33.9298 2.00539L36.161 3.56789L38.393 2.00539L39.8438 3.02124V40.5048H10.1562V3.02124ZM3.125 20.9736C3.125 19.6789 4.17442 18.6298 5.46875 18.6298H8.59375V21.7548H5.46875V42.0673H44.5312V21.7548H41.4062V18.6298H44.5312C45.8256 18.6298 46.875 19.6789 46.875 20.9736V43.6298H28.125V44.4111C28.125 44.8425 27.7752 45.1923 27.3438 45.1923H22.6562C22.2248 45.1923 21.875 44.8425 21.875 44.4111V43.6298H3.125V20.9736ZM8.59375 23.3173V40.5048H7.03125V23.3173H8.59375ZM48.4375 45.9736C48.4375 47.2679 47.3881 48.3173 46.0938 48.3173H3.90625C2.61192 48.3173 1.5625 47.2679 1.5625 45.9736V45.1923H20.446C20.7783 46.1281 21.6633 46.7533 22.6562 46.7548H27.3438C28.3367 46.7533 29.2217 46.1281 29.554 45.1923H48.4375V45.9736Z" fill="#000D3B"/>
<path d="M32.7009 24.0204L22.1628 13.4854L19.0275 21.6343L17.4883 23.1735L13.6221 27.0413L19.1454 32.5649L20.2501 31.4602L23.0127 34.222C23.9279 35.1376 25.4118 35.138 26.3277 34.2228C27.2432 33.3077 27.2436 31.8234 26.3284 30.9078L23.5666 28.146L24.555 27.158L32.7009 24.0204ZM19.1454 30.3555L15.8315 27.0413L18.0406 24.8314L21.3556 28.146L19.1454 30.3555ZM25.2222 32.0126C25.4251 32.2086 25.5068 32.4993 25.435 32.7725C25.3637 33.0456 25.1501 33.2588 24.877 33.3302C24.6038 33.4019 24.3135 33.3202 24.1174 33.1173L21.3548 30.3555L22.4603 29.2545L25.2222 32.0126ZM22.4603 27.0405L19.1454 23.7259L20.3672 22.5041L22.7579 16.2899L29.8971 23.4287L23.6814 25.8171L22.4603 27.0405Z" fill="#1357DD"/>
<path d="M12.5166 30.3552L13.6213 29.2505L16.9363 32.5647L15.8316 33.6694L12.5166 30.3552Z" fill="#1357DD"/>
</svg>
