<svg width="50" height="50" viewBox="0 0 50 50" fill="none" xmlns="http://www.w3.org/2000/svg">
<g clip-path="url(#clip0)">
<path d="M42.972 0H40.8223C39.8773 0 39.8773 1.46506 40.8223 1.46506H42.972C45.1921 1.46506 46.9983 3.26473 46.9983 5.47677V22.4296C46.9983 24.6417 45.1922 26.4414 42.972 26.4414H40.5339C40.373 26.4414 40.2166 26.4944 40.0888 26.5921L35.6149 30.0143V27.174C35.6149 26.7694 35.287 26.4414 34.8824 26.4414H25.967C25.2369 26.4414 24.5353 26.2487 23.9164 25.8824V17.6593C23.9164 16.119 23.1319 14.7582 21.9406 13.9531V5.47677C21.9406 3.26473 23.7469 1.46506 25.967 1.46506H41.2318C42.1766 1.46506 42.1766 0 41.2318 0H25.967C22.939 0 20.4756 2.4569 20.4756 5.47677V13.3092C20.1402 13.2292 19.7907 13.1855 19.4311 13.1855H6.02135C3.54824 13.1855 1.53613 15.1924 1.53613 17.6593V25.2411C1.53613 26.1859 3.00119 26.1859 3.00119 25.2411V17.6593C3.00119 16.0003 4.35597 14.6506 6.02135 14.6506H19.4312C21.0966 14.6506 22.4515 16.0003 22.4515 17.6593V26.174C22.4427 26.2387 22.4431 26.3038 22.4515 26.368V31.028C22.4515 31.1201 22.4459 31.2118 22.4376 31.3031H20.9269C19.2623 31.3031 17.8746 32.5045 17.5869 34.0835C17.5203 34.1086 17.4563 34.1437 17.397 34.1894L14.1207 36.7192V34.7693C14.1207 34.3647 13.7928 34.0368 13.3881 34.0368H6.02135C4.35597 34.0368 3.00119 32.687 3.00119 31.028V23.6362C3.00119 22.6914 1.53613 22.6914 1.53613 23.6362V31.0281C1.53613 33.495 3.54824 35.5019 6.02135 35.5019H12.6557V38.2103C12.6557 38.7979 13.3692 39.1504 13.836 38.7902L17.5313 35.9369V44.1779C17.5313 46.0458 19.0547 47.5654 20.927 47.5654H25.4223V49.2747C25.4223 49.8621 26.1358 50.215 26.6025 49.8546L29.5673 47.5654H30.4432C32.3156 47.5654 33.839 46.0457 33.839 44.1779V36.8773C33.839 35.9324 32.3739 35.9324 32.3739 36.8773V44.1779C32.3739 45.238 31.5079 46.1003 30.4432 46.1003H29.3174C29.1554 46.1003 28.9979 46.154 28.8698 46.253L26.8873 47.7836V46.8327C26.8873 46.4282 26.5594 46.1002 26.1547 46.1002H20.9269C19.8624 46.1002 18.9963 45.2378 18.9963 44.1778V34.6907C18.9963 33.6305 19.8623 32.7682 20.9269 32.7682H30.4432C31.5078 32.7682 32.3739 33.6306 32.3739 34.6907V38.2868C32.3739 39.2317 33.839 39.2317 33.839 38.2868V34.6908C33.839 32.8228 32.3156 31.3033 30.4432 31.3033H23.9081C23.9137 31.2117 23.9165 27.5119 23.9165 27.5119C24.5624 27.7716 25.2549 27.9066 25.9671 27.9066H34.1499V31.4969C34.1499 32.0831 34.8604 32.4359 35.3275 32.0788L40.782 27.9066H42.9721C46 27.9066 48.4634 25.4497 48.4634 22.4297V5.47677C48.4633 2.4569 45.9999 0 42.972 0Z" fill="#000D3B"/>
<path d="M36.3004 5.41191C35.3703 5.17447 34.4225 5.90934 34.4225 6.87042C34.4225 7.92048 34.0398 8.93244 33.3455 9.71937L31.3272 12.0032C31.1965 11.8027 30.9707 11.6699 30.7136 11.6699H26.7735C26.3689 11.6699 26.041 11.9979 26.041 12.4025V21.2675C26.041 21.6721 26.3689 22 26.7735 22H30.7136C31.0096 22 31.2639 21.8241 31.3795 21.5716C32.1772 22.0589 33.1015 22.3225 34.042 22.3225H41.0051C42.0691 22.3225 42.9469 21.3992 42.897 20.3379C42.8748 19.8679 42.899 13.5571 42.899 13.417C42.899 12.3727 42.0494 11.5229 41.0072 11.5229L37.3863 11.5121L37.5362 11.1571C38.2214 9.53448 38.1086 7.65296 37.2348 6.12373C37.0309 5.76645 36.6989 5.51378 36.3004 5.41191C36.6989 5.51378 35.9017 5.31014 36.3004 5.41191C36.6989 5.51378 35.3704 5.17447 36.3004 5.41191ZM29.981 20.535H27.5061V13.135H29.981V20.535ZM41.0051 12.9879C41.2417 12.9879 41.4341 13.1803 41.4341 13.4169C41.4341 13.5563 41.4326 13.9345 41.4306 14.4474C41.4198 17.2791 41.4126 19.9609 41.4335 20.4067C41.4411 20.5675 41.3629 20.6748 41.3156 20.7244C41.2337 20.8101 41.1235 20.8573 41.0051 20.8573H34.042C33.212 20.8573 32.3997 20.5697 31.7544 20.0474L31.4461 19.7978V14.081L34.4437 10.689C35.3748 9.63381 35.8876 8.27766 35.8876 6.87032C35.8876 6.82891 35.9441 6.81817 35.9629 6.8504C36.6116 7.98562 36.6952 9.38241 36.1866 10.587L35.6085 11.9562C35.5131 12.1821 35.5371 12.4407 35.6722 12.6452C35.8075 12.8497 36.036 12.973 36.2811 12.9737L41.0051 12.9879Z" fill="#1357DD"/>
<path d="M7.8087 25.4428C7.40405 25.4428 7.07617 25.7707 7.07617 26.1753C7.07617 26.5798 7.40405 26.9078 7.8087 26.9078H9.968L9.56462 29.3475C9.49859 29.7466 9.76875 30.1237 10.1678 30.1897C10.2084 30.1965 10.2485 30.1997 10.2882 30.1997C10.6402 30.1997 10.9507 29.9453 11.01 29.5865L11.4529 26.9079H13.22L12.8167 29.3476C12.7506 29.7467 13.0208 30.1238 13.4199 30.1898C13.4604 30.1966 13.5005 30.1998 13.5402 30.1998C13.8922 30.1998 14.2027 29.9454 14.2621 29.5866L14.7049 26.908H17.6441C18.0488 26.908 18.3766 26.58 18.3766 26.1755C18.3766 25.7709 18.0488 25.443 17.6441 25.443H14.9471L15.2426 23.656H17.6441C18.0488 23.656 18.3766 23.328 18.3766 22.9234C18.3766 22.5189 18.0488 22.1909 17.6441 22.1909H15.4848L15.8882 19.7512C15.9542 19.3521 15.6841 18.975 15.285 18.909C14.8854 18.8428 14.5088 19.1131 14.4428 19.5122L13.9999 22.1908H12.2328L12.6362 19.7511C12.7022 19.352 12.432 18.9749 12.0329 18.9089C11.6329 18.8427 11.2569 19.113 11.1907 19.5121L10.7479 22.1907H7.8087C7.40405 22.1907 7.07617 22.5187 7.07617 22.9233C7.07617 23.3278 7.40405 23.6558 7.8087 23.6558H10.5057L10.2102 25.4428H7.8087ZM11.9907 23.6558H13.7578L13.4623 25.4428H11.6952L11.9907 23.6558Z" fill="#1357DD"/>
<path d="M25.6767 36.5479C25.0852 36.0609 24.2983 35.8688 23.5089 36.0607C22.4973 36.3063 21.4766 37.252 21.4766 38.8107C21.4766 39.7809 21.8306 40.623 22.5589 41.3852C23.1539 42.0078 24.0124 42.5999 25.3425 43.3051C25.4498 43.3621 25.5677 43.3905 25.6856 43.3905C25.8035 43.3905 25.9214 43.3621 26.0287 43.3051C28.3491 42.0749 29.8945 40.8399 29.8945 38.8107C29.8945 37.2435 28.8375 36.3075 27.7899 36.0751C27.0029 35.9005 26.2399 36.0859 25.6767 36.5479ZM28.4293 38.8107C28.4293 39.9052 27.7034 40.7146 25.6855 41.8254C23.6676 40.7145 22.9415 39.9051 22.9415 38.8107C22.9415 37.9963 23.4131 37.5916 23.8544 37.4843C23.9358 37.4646 24.0229 37.4535 24.1125 37.4535C24.4445 37.4535 24.8095 37.6068 25.0345 38.0431C25.1627 38.2914 25.422 38.4453 25.7 38.4396C25.9793 38.434 26.2312 38.2701 26.3492 38.0169C26.5863 37.5089 27.0848 37.4195 27.4724 37.5055C27.9351 37.608 28.4293 38.0048 28.4293 38.8107Z" fill="#1357DD"/>
</g>
<defs>
<clipPath id="clip0">
<rect width="50" height="50" fill="white"/>
</clipPath>
</defs>
</svg>
