<svg width="19" height="19" viewBox="0 0 19 19" fill="none" xmlns="http://www.w3.org/2000/svg">
<path d="M17.1955 6.88287L17.1954 6.88285L11.9852 6.36889L11.6808 6.33886L11.569 6.05422L9.51019 0.816919C9.51014 0.816806 9.5101 0.816693 9.51006 0.816581C9.42584 0.603744 9.25216 0.5 9.09227 0.5C8.93206 0.5 8.75875 0.603984 8.67557 0.815909L8.67548 0.816138L6.6164 6.05422L6.50451 6.33887L6.20014 6.36889L0.989982 6.88277C0.989878 6.88278 0.989773 6.88279 0.989669 6.8828C0.829414 6.89901 0.661308 7.0223 0.593974 7.24493C0.526587 7.47079 0.594065 7.70812 0.73983 7.84705C0.739841 7.84706 0.739853 7.84707 0.739864 7.84708L4.67828 11.5995L4.87972 11.7914L4.82281 12.0638L3.66166 17.6207C3.66163 17.6208 3.6616 17.6209 3.66157 17.6211C3.61276 17.8566 3.70153 18.0822 3.85401 18.2019L3.855 18.2027C3.93511 18.266 4.02319 18.2937 4.10768 18.2937C4.18024 18.2937 4.25573 18.273 4.32701 18.2267L4.32715 18.2266L8.81986 15.3077L9.09229 15.1307L9.36471 15.3077L13.8564 18.2265C13.8565 18.2266 13.8565 18.2266 13.8566 18.2266C14.005 18.3229 14.1855 18.3161 14.3301 18.2023L14.3305 18.2019C14.483 18.0822 14.5718 17.8566 14.523 17.6211C14.5229 17.6209 14.5229 17.6208 14.5229 17.6207L13.3617 12.0638L13.3048 11.7914L13.5063 11.5995L17.4446 7.84717C17.5904 7.7081 17.658 7.47136 17.5904 7.24442L17.1955 6.88287ZM17.1955 6.88287C17.3554 6.89859 17.5236 7.02157 17.5903 7.24412L17.1955 6.88287Z" stroke="#FFB161"/>
</svg>
