<svg width="19" height="19" viewBox="0 0 19 19" fill="none" xmlns="http://www.w3.org/2000/svg">
<path d="M17.1276 6.88287L17.1275 6.88285L11.9173 6.36889L11.613 6.33886L11.5011 6.05422L9.44232 0.816919C9.44227 0.816806 9.44223 0.816693 9.44218 0.816581C9.35796 0.603744 9.18429 0.5 9.02439 0.5C8.86419 0.5 8.69088 0.603984 8.60769 0.815909L8.6076 0.816138L6.54853 6.05422L6.43664 6.33887L6.13227 6.36889L0.922111 6.88277C0.922007 6.88278 0.921902 6.88279 0.921798 6.8828C0.761542 6.89901 0.593437 7.0223 0.526103 7.24493C0.458715 7.47079 0.526194 7.70812 0.671959 7.84705C0.67197 7.84706 0.671981 7.84707 0.671993 7.84708L4.61041 11.5995L4.81184 11.7914L4.75494 12.0638L3.59379 17.6207C3.59376 17.6208 3.59373 17.6209 3.5937 17.6211C3.54489 17.8566 3.63366 18.0822 3.78614 18.2019L3.78713 18.2027C3.86724 18.266 3.95532 18.2937 4.03981 18.2937C4.11237 18.2937 4.18786 18.273 4.25914 18.2267L4.25928 18.2266L8.75199 15.3077L9.02442 15.1307L9.29683 15.3077L13.7886 18.2265C13.7886 18.2266 13.7887 18.2266 13.7887 18.2266C13.9371 18.3229 14.1176 18.3161 14.2622 18.2023L14.2626 18.2019C14.4151 18.0822 14.5039 17.8566 14.4551 17.6211C14.4551 17.6209 14.455 17.6208 14.455 17.6207L13.2939 12.0638L13.2369 11.7914L13.4384 11.5995L17.3767 7.84717C17.5226 7.7081 17.5902 7.47136 17.5225 7.24442L17.1276 6.88287ZM17.1276 6.88287C17.2875 6.89859 17.4557 7.02157 17.5224 7.24412L17.1276 6.88287Z" fill="#FFB161" stroke="#FFB161"/>
</svg>
