<svg width="105" height="20" viewBox="0 0 105 20" fill="none" xmlns="http://www.w3.org/2000/svg">
<path d="M66.331 10.0043C66.331 9.67184 66.0581 9.40234 65.7214 9.40234C65.3847 9.40234 65.1118 9.67184 65.1118 10.0043C65.1118 10.3367 65.3847 10.6062 65.7214 10.6062C66.0581 10.6062 66.331 10.3367 66.331 10.0043Z" fill="#5288F4"/>
<path d="M64.0478 10.0043C64.0478 9.67184 63.7749 9.40234 63.4382 9.40234C63.1015 9.40234 62.8286 9.67184 62.8286 10.0043C62.8286 10.3367 63.1015 10.6062 63.4382 10.6062C63.7749 10.6062 64.0478 10.3367 64.0478 10.0043Z" fill="#5288F4"/>
<path d="M61.7651 10.0043C61.7651 9.67184 61.4922 9.40234 61.1555 9.40234C60.8188 9.40234 60.5459 9.67184 60.5459 10.0043C60.5459 10.3367 60.8188 10.6062 61.1555 10.6062C61.4922 10.6062 61.7651 10.3367 61.7651 10.0043Z" fill="#5288F4"/>
<path d="M57.1987 10.0043C57.1987 9.67184 56.9257 9.40234 56.5891 9.40234C56.2524 9.40234 55.9795 9.67184 55.9795 10.0043C55.9795 10.3367 56.2524 10.6062 56.5891 10.6062C56.9257 10.6062 57.1987 10.3367 57.1987 10.0043Z" fill="#5288F4"/>
<path d="M59.4819 10.0043C59.4819 9.67184 59.209 9.40234 58.8723 9.40234C58.5356 9.40234 58.2627 9.67184 58.2627 10.0043C58.2627 10.3367 58.5356 10.6062 58.8723 10.6062C59.209 10.6062 59.4819 10.3367 59.4819 10.0043Z" fill="#5288F4"/>
<path d="M54.916 10.0043C54.916 9.67184 54.643 9.40234 54.3064 9.40234C53.9697 9.40234 53.6968 9.67184 53.6968 10.0043C53.6968 10.3367 53.9697 10.6062 54.3064 10.6062C54.643 10.6062 54.916 10.3367 54.916 10.0043Z" fill="#5288F4"/>
<path d="M52.6327 10.0043C52.6327 9.67184 52.3598 9.40234 52.0232 9.40234C51.6865 9.40234 51.4136 9.67184 51.4136 10.0043C51.4136 10.3367 51.6865 10.6062 52.0232 10.6062C52.3598 10.6062 52.6327 10.3367 52.6327 10.0043Z" fill="#5288F4"/>
<path d="M64.0478 7.74989C64.0478 7.41745 63.7749 7.14795 63.4382 7.14795C63.1015 7.14795 62.8286 7.41745 62.8286 7.74989C62.8286 8.08233 63.1015 8.35183 63.4382 8.35183C63.7749 8.35183 64.0478 8.08233 64.0478 7.74989Z" fill="#5288F4"/>
<path d="M61.7651 7.74989C61.7651 7.41745 61.4922 7.14795 61.1555 7.14795C60.8188 7.14795 60.5459 7.41745 60.5459 7.74989C60.5459 8.08233 60.8188 8.35183 61.1555 8.35183C61.4922 8.35183 61.7651 8.08233 61.7651 7.74989Z" fill="#5288F4"/>
<path d="M57.1987 7.74989C57.1987 7.41745 56.9257 7.14795 56.5891 7.14795C56.2524 7.14795 55.9795 7.41745 55.9795 7.74989C55.9795 8.08233 56.2524 8.35183 56.5891 8.35183C56.9257 8.35183 57.1987 8.08233 57.1987 7.74989Z" fill="#5288F4"/>
<path d="M52.6826 3.22645C52.6826 2.89401 52.4096 2.62451 52.073 2.62451C51.7363 2.62451 51.4634 2.89401 51.4634 3.22645C51.4634 3.55889 51.7363 3.82839 52.073 3.82839C52.4096 3.82839 52.6826 3.55889 52.6826 3.22645Z" fill="#5288F4"/>
<path d="M50.3496 5.49842C50.3496 5.16598 50.0766 4.89648 49.74 4.89648C49.4033 4.89648 49.1304 5.16598 49.1304 5.49842C49.1304 5.83087 49.4033 6.10036 49.74 6.10036C50.0766 6.10036 50.3496 5.83087 50.3496 5.49842Z" fill="#5288F4"/>
<path d="M68.6142 5.49842C68.6142 5.16598 68.3413 4.89648 68.0046 4.89648C67.6679 4.89648 67.395 5.16598 67.395 5.49842C67.395 5.83087 67.6679 6.10036 68.0046 6.10036C68.3413 6.10036 68.6142 5.83087 68.6142 5.49842Z" fill="#5288F4"/>
<path d="M66.3017 3.22645C66.3017 2.89401 66.0288 2.62451 65.6921 2.62451C65.3554 2.62451 65.0825 2.89401 65.0825 3.22645C65.0825 3.55889 65.3554 3.82839 65.6921 3.82839C66.0288 3.82839 66.3017 3.55889 66.3017 3.22645Z" fill="#5288F4"/>
<path d="M59.4819 7.74989C59.4819 7.41745 59.209 7.14795 58.8723 7.14795C58.5356 7.14795 58.2627 7.41745 58.2627 7.74989C58.2627 8.08233 58.5356 8.35183 58.8723 8.35183C59.209 8.35183 59.4819 8.08233 59.4819 7.74989Z" fill="#5288F4"/>
<path d="M54.916 7.74989C54.916 7.41745 54.643 7.14795 54.3064 7.14795C53.9697 7.14795 53.6968 7.41745 53.6968 7.74989C53.6968 8.08233 53.9697 8.35183 54.3064 8.35183C54.643 8.35183 54.916 8.08233 54.916 7.74989Z" fill="#5288F4"/>
<path d="M61.7651 5.49842C61.7651 5.16598 61.4922 4.89648 61.1555 4.89648C60.8188 4.89648 60.5459 5.16598 60.5459 5.49842C60.5459 5.83087 60.8188 6.10036 61.1555 6.10036C61.4922 6.10036 61.7651 5.83087 61.7651 5.49842Z" fill="#5288F4"/>
<path d="M59.4819 5.49842C59.4819 5.16598 59.209 4.89648 58.8723 4.89648C58.5356 4.89648 58.2627 5.16598 58.2627 5.49842C58.2627 5.83087 58.5356 6.10036 58.8723 6.10036C59.209 6.10036 59.4819 5.83087 59.4819 5.49842Z" fill="#5288F4"/>
<path d="M59.4907 3.22645C59.4907 2.89401 59.2177 2.62451 58.8811 2.62451C58.5444 2.62451 58.2715 2.89401 58.2715 3.22645C58.2715 3.55889 58.5444 3.82839 58.8811 3.82839C59.2177 3.82839 59.4907 3.55889 59.4907 3.22645Z" fill="#5288F4"/>
<path d="M57.1987 5.49842C57.1987 5.16598 56.9257 4.89648 56.5891 4.89648C56.2524 4.89648 55.9795 5.16598 55.9795 5.49842C55.9795 5.83087 56.2524 6.10036 56.5891 6.10036C56.9257 6.10036 57.1987 5.83087 57.1987 5.49842Z" fill="#5288F4"/>
<path d="M50.3496 14.5131C50.3496 14.1806 50.0766 13.9111 49.74 13.9111C49.4033 13.9111 49.1304 14.1806 49.1304 14.5131C49.1304 14.8455 49.4033 15.115 49.74 15.115C50.0766 15.115 50.3496 14.8455 50.3496 14.5131Z" fill="#5288F4"/>
<path d="M52.6826 16.7733C52.6826 16.4409 52.4096 16.1714 52.073 16.1714C51.7363 16.1714 51.4634 16.4409 51.4634 16.7733C51.4634 17.1058 51.7363 17.3753 52.073 17.3753C52.4096 17.3753 52.6826 17.1058 52.6826 16.7733Z" fill="#5288F4"/>
<path d="M66.3017 16.7733C66.3017 16.4409 66.0288 16.1714 65.6921 16.1714C65.3554 16.1714 65.0825 16.4409 65.0825 16.7733C65.0825 17.1058 65.3554 17.3753 65.6921 17.3753C66.0288 17.3753 66.3017 17.1058 66.3017 16.7733Z" fill="#5288F4"/>
<path d="M68.6142 14.5131C68.6142 14.1806 68.3413 13.9111 68.0046 13.9111C67.6679 13.9111 67.395 14.1806 67.395 14.5131C67.395 14.8455 67.6679 15.115 68.0046 15.115C68.3413 15.115 68.6142 14.8455 68.6142 14.5131Z" fill="#5288F4"/>
<path d="M64.0214 1.34266C64.0214 1.01022 63.7485 0.740723 63.4118 0.740723C63.0752 0.740723 62.8022 1.01022 62.8022 1.34266C62.8022 1.6751 63.0752 1.9446 63.4118 1.9446C63.7485 1.9446 64.0214 1.6751 64.0214 1.34266Z" fill="#5288F4"/>
<path d="M54.9511 0.954966C54.9511 0.622524 54.6782 0.353027 54.3415 0.353027C54.0049 0.353027 53.7319 0.622524 53.7319 0.954966C53.7319 1.28741 54.0049 1.5569 54.3415 1.5569C54.6782 1.5569 54.9511 1.28741 54.9511 0.954966Z" fill="#5288F4"/>
<path d="M64.0595 19.0448C64.0595 18.7124 63.7866 18.4429 63.4499 18.4429C63.1133 18.4429 62.8403 18.7124 62.8403 19.0448C62.8403 19.3773 63.1133 19.6467 63.4499 19.6467C63.7866 19.6467 64.0595 19.3773 64.0595 19.0448Z" fill="#5288F4"/>
<path d="M54.9482 19.0448C54.9482 18.7124 54.6753 18.4429 54.3386 18.4429C54.0019 18.4429 53.729 18.7124 53.729 19.0448C53.729 19.3773 54.0019 19.6467 54.3386 19.6467C54.6753 19.6467 54.9482 19.3773 54.9482 19.0448Z" fill="#5288F4"/>
<path d="M50.7072 7.74992C50.7072 7.22249 50.2742 6.79492 49.7401 6.79492C49.206 6.79492 48.7729 7.22249 48.7729 7.74992C48.7729 8.27735 49.206 8.70492 49.7401 8.70492C50.2742 8.70492 50.7072 8.27735 50.7072 7.74992Z" fill="#5288F4"/>
<path d="M50.7072 10.0043C50.7072 9.47688 50.2742 9.04932 49.7401 9.04932C49.206 9.04932 48.7729 9.47688 48.7729 10.0043C48.7729 10.5317 49.206 10.9593 49.7401 10.9593C50.2742 10.9593 50.7072 10.5317 50.7072 10.0043Z" fill="#5288F4"/>
<path d="M50.7072 12.2587C50.7072 11.7313 50.2742 11.3037 49.7401 11.3037C49.206 11.3037 48.7729 11.7313 48.7729 12.2587C48.7729 12.7861 49.206 13.2137 49.7401 13.2137C50.2742 13.2137 50.7072 12.7861 50.7072 12.2587Z" fill="#5288F4"/>
<path d="M62.1193 16.7734C62.1193 16.2459 61.6863 15.8184 61.1522 15.8184C60.6181 15.8184 60.1851 16.2459 60.1851 16.7734C60.1851 17.3008 60.6181 17.7284 61.1522 17.7284C61.6863 17.7284 62.1193 17.3008 62.1193 16.7734Z" fill="#5288F4"/>
<path d="M59.8483 16.7734C59.8483 16.2459 59.4153 15.8184 58.8812 15.8184C58.3471 15.8184 57.9141 16.2459 57.9141 16.7734C57.9141 17.3008 58.3471 17.7284 58.8812 17.7284C59.4153 17.7284 59.8483 17.3008 59.8483 16.7734Z" fill="#5288F4"/>
<path d="M57.5768 16.7734C57.5768 16.2459 57.1438 15.8184 56.6097 15.8184C56.0756 15.8184 55.6426 16.2459 55.6426 16.7734C55.6426 17.3008 56.0756 17.7284 56.6097 17.7284C57.1438 17.7284 57.5768 17.3008 57.5768 16.7734Z" fill="#5288F4"/>
<path d="M59.822 14.5131C59.822 13.9857 59.389 13.5581 58.8548 13.5581C58.3207 13.5581 57.8877 13.9857 57.8877 14.5131C57.8877 15.0405 58.3207 15.4681 58.8548 15.4681C59.389 15.4681 59.822 15.0405 59.822 14.5131Z" fill="#5288F4"/>
<path d="M62.0988 14.5131C62.0988 13.9857 61.6658 13.5581 61.1317 13.5581C60.5976 13.5581 60.1646 13.9857 60.1646 14.5131C60.1646 15.0405 60.5976 15.4681 61.1317 15.4681C61.6658 15.4681 62.0988 15.0405 62.0988 14.5131Z" fill="#5288F4"/>
<path d="M64.3791 14.5131C64.3791 13.9857 63.9461 13.5581 63.412 13.5581C62.8778 13.5581 62.4448 13.9857 62.4448 14.5131C62.4448 15.0405 62.8778 15.4681 63.412 15.4681C63.9461 15.4681 64.3791 15.0405 64.3791 14.5131Z" fill="#5288F4"/>
<path d="M57.5417 14.5131C57.5417 13.9857 57.1087 13.5581 56.5746 13.5581C56.0404 13.5581 55.6074 13.9857 55.6074 14.5131C55.6074 15.0405 56.0404 15.4681 56.5746 15.4681C57.1087 15.4681 57.5417 15.0405 57.5417 14.5131Z" fill="#5288F4"/>
<path d="M55.2649 14.5131C55.2649 13.9857 54.8318 13.5581 54.2977 13.5581C53.7636 13.5581 53.3306 13.9857 53.3306 14.5131C53.3306 15.0405 53.7636 15.4681 54.2977 15.4681C54.8318 15.4681 55.2649 15.0405 55.2649 14.5131Z" fill="#5288F4"/>
<path d="M57.5564 12.2587C57.5564 11.7313 57.1233 11.3037 56.5892 11.3037C56.0551 11.3037 55.6221 11.7313 55.6221 12.2587C55.6221 12.7861 56.0551 13.2137 56.5892 13.2137C57.1233 13.2137 57.5564 12.7861 57.5564 12.2587Z" fill="#5288F4"/>
<path d="M59.8395 12.2587C59.8395 11.7313 59.4065 11.3037 58.8724 11.3037C58.3383 11.3037 57.9053 11.7313 57.9053 12.2587C57.9053 12.7861 58.3383 13.2137 58.8724 13.2137C59.4065 13.2137 59.8395 12.7861 59.8395 12.2587Z" fill="#5288F4"/>
<path d="M55.2736 12.2587C55.2736 11.7313 54.8406 11.3037 54.3065 11.3037C53.7724 11.3037 53.3394 11.7313 53.3394 12.2587C53.3394 12.7861 53.7724 13.2137 54.3065 13.2137C54.8406 13.2137 55.2736 12.7861 55.2736 12.2587Z" fill="#5288F4"/>
<path d="M52.9904 12.2587C52.9904 11.7313 52.5574 11.3037 52.0233 11.3037C51.4892 11.3037 51.0562 11.7313 51.0562 12.2587C51.0562 12.7861 51.4892 13.2137 52.0233 13.2137C52.5574 13.2137 52.9904 12.7861 52.9904 12.2587Z" fill="#5288F4"/>
<path d="M66.6887 12.2587C66.6887 11.7313 66.2557 11.3037 65.7215 11.3037C65.1874 11.3037 64.7544 11.7313 64.7544 12.2587C64.7544 12.7861 65.1874 13.2137 65.7215 13.2137C66.2557 13.2137 66.6887 12.7861 66.6887 12.2587Z" fill="#5288F4"/>
<path d="M64.4055 12.2587C64.4055 11.7313 63.9725 11.3037 63.4383 11.3037C62.9042 11.3037 62.4712 11.7313 62.4712 12.2587C62.4712 12.7861 62.9042 13.2137 63.4383 13.2137C63.9725 13.2137 64.4055 12.7861 64.4055 12.2587Z" fill="#5288F4"/>
<path d="M62.1223 12.2587C62.1223 11.7313 61.6893 11.3037 61.1551 11.3037C60.621 11.3037 60.188 11.7313 60.188 12.2587C60.188 12.7861 60.621 13.2137 61.1551 13.2137C61.6893 13.2137 62.1223 12.7861 62.1223 12.2587Z" fill="#5288F4"/>
<path d="M66.6887 7.74992C66.6887 7.22249 66.2557 6.79492 65.7215 6.79492C65.1874 6.79492 64.7544 7.22249 64.7544 7.74992C64.7544 8.27735 65.1874 8.70492 65.7215 8.70492C66.2557 8.70492 66.6887 8.27735 66.6887 7.74992Z" fill="#5288F4"/>
<path d="M68.9714 7.74992C68.9714 7.22249 68.5384 6.79492 68.0042 6.79492C67.4701 6.79492 67.0371 7.22249 67.0371 7.74992C67.0371 8.27735 67.4701 8.70492 68.0042 8.70492C68.5384 8.70492 68.9714 8.27735 68.9714 7.74992Z" fill="#5288F4"/>
<path d="M68.9714 10.0043C68.9714 9.47688 68.5384 9.04932 68.0042 9.04932C67.4701 9.04932 67.0371 9.47688 67.0371 10.0043C67.0371 10.5317 67.4701 10.9593 68.0042 10.9593C68.5384 10.9593 68.9714 10.5317 68.9714 10.0043Z" fill="#5288F4"/>
<path d="M68.9714 12.2587C68.9714 11.7313 68.5384 11.3037 68.0042 11.3037C67.4701 11.3037 67.0371 11.7313 67.0371 12.2587C67.0371 12.7861 67.4701 13.2137 68.0042 13.2137C68.5384 13.2137 68.9714 12.7861 68.9714 12.2587Z" fill="#5288F4"/>
<path d="M66.6594 14.5131C66.6594 13.9857 66.2264 13.5581 65.6922 13.5581C65.1581 13.5581 64.7251 13.9857 64.7251 14.5131C64.7251 15.0405 65.1581 15.4681 65.6922 15.4681C66.2264 15.4681 66.6594 15.0405 66.6594 14.5131Z" fill="#5288F4"/>
<path d="M66.6887 5.49846C66.6887 4.97103 66.2557 4.54346 65.7215 4.54346C65.1874 4.54346 64.7544 4.97103 64.7544 5.49846C64.7544 6.02589 65.1874 6.45346 65.7215 6.45346C66.2557 6.45346 66.6887 6.02589 66.6887 5.49846Z" fill="#5288F4"/>
<path d="M64.3879 3.22355C64.3879 2.69612 63.9549 2.26855 63.4208 2.26855C62.8866 2.26855 62.4536 2.69612 62.4536 3.22355C62.4536 3.75099 62.8866 4.17855 63.4208 4.17855C63.9549 4.17855 64.3879 3.75099 64.3879 3.22355Z" fill="#5288F4"/>
<path d="M64.3879 16.7734C64.3879 16.2459 63.9549 15.8184 63.4208 15.8184C62.8866 15.8184 62.4536 16.2459 62.4536 16.7734C62.4536 17.3008 62.8866 17.7284 63.4208 17.7284C63.9549 17.7284 64.3879 17.3008 64.3879 16.7734Z" fill="#5288F4"/>
<path d="M57.5915 0.954999C57.5915 0.427568 57.1585 0 56.6244 0C56.0902 0 55.6572 0.427568 55.6572 0.954999C55.6572 1.48243 56.0902 1.91 56.6244 1.91C57.1585 1.91 57.5915 1.48243 57.5915 0.954999Z" fill="#5288F4"/>
<path d="M59.8689 0.954999C59.8689 0.427568 59.4358 0 58.9017 0C58.3676 0 57.9346 0.427568 57.9346 0.954999C57.9346 1.48243 58.3676 1.91 58.9017 1.91C59.4358 1.91 59.8689 1.48243 59.8689 0.954999Z" fill="#5288F4"/>
<path d="M62.1428 0.954999C62.1428 0.427568 61.7098 0 61.1756 0C60.6415 0 60.2085 0.427568 60.2085 0.954999C60.2085 1.48243 60.6415 1.91 61.1756 1.91C61.7098 1.91 62.1428 1.48243 62.1428 0.954999Z" fill="#5288F4"/>
<path d="M55.3088 3.22355C55.3088 2.69612 54.8758 2.26855 54.3416 2.26855C53.8075 2.26855 53.3745 2.69612 53.3745 3.22355C53.3745 3.75099 53.8075 4.17855 54.3416 4.17855C54.8758 4.17855 55.3088 3.75099 55.3088 3.22355Z" fill="#5288F4"/>
<path d="M52.9904 5.49846C52.9904 4.97103 52.5574 4.54346 52.0233 4.54346C51.4892 4.54346 51.0562 4.97103 51.0562 5.49846C51.0562 6.02589 51.4892 6.45346 52.0233 6.45346C52.5574 6.45346 52.9904 6.02589 52.9904 5.49846Z" fill="#5288F4"/>
<path d="M52.9904 7.74992C52.9904 7.22249 52.5574 6.79492 52.0233 6.79492C51.4892 6.79492 51.0562 7.22249 51.0562 7.74992C51.0562 8.27735 51.4892 8.70492 52.0233 8.70492C52.5574 8.70492 52.9904 8.27735 52.9904 7.74992Z" fill="#5288F4"/>
<path d="M64.4055 5.49846C64.4055 4.97103 63.9725 4.54346 63.4383 4.54346C62.9042 4.54346 62.4712 4.97103 62.4712 5.49846C62.4712 6.02589 62.9042 6.45346 63.4383 6.45346C63.9725 6.45346 64.4055 6.02589 64.4055 5.49846Z" fill="#5288F4"/>
<path d="M55.2736 5.49846C55.2736 4.97103 54.8406 4.54346 54.3065 4.54346C53.7724 4.54346 53.3394 4.97103 53.3394 5.49846C53.3394 6.02589 53.7724 6.45346 54.3065 6.45346C54.8406 6.45346 55.2736 6.02589 55.2736 5.49846Z" fill="#5288F4"/>
<path d="M62.1193 3.22355C62.1193 2.69612 61.6863 2.26855 61.1522 2.26855C60.6181 2.26855 60.1851 2.69612 60.1851 3.22355C60.1851 3.75099 60.6181 4.17855 61.1522 4.17855C61.6863 4.17855 62.1193 3.75099 62.1193 3.22355Z" fill="#5288F4"/>
<path d="M57.5768 3.22355C57.5768 2.69612 57.1438 2.26855 56.6097 2.26855C56.0756 2.26855 55.6426 2.69612 55.6426 3.22355C55.6426 3.75099 56.0756 4.17855 56.6097 4.17855C57.1438 4.17855 57.5768 3.75099 57.5768 3.22355Z" fill="#5288F4"/>
<path d="M52.9846 14.5131C52.9846 13.9857 52.5516 13.5581 52.0174 13.5581C51.4833 13.5581 51.0503 13.9857 51.0503 14.5131C51.0503 15.0405 51.4833 15.4681 52.0174 15.4681C52.5516 15.4681 52.9846 15.0405 52.9846 14.5131Z" fill="#5288F4"/>
<path d="M55.3088 16.7734C55.3088 16.2459 54.8758 15.8184 54.3416 15.8184C53.8075 15.8184 53.3745 16.2459 53.3745 16.7734C53.3745 17.3008 53.8075 17.7284 54.3416 17.7284C54.8758 17.7284 55.3088 17.3008 55.3088 16.7734Z" fill="#5288F4"/>
<path d="M62.1398 19.0448C62.1398 18.5174 61.7068 18.0898 61.1727 18.0898C60.6386 18.0898 60.2056 18.5174 60.2056 19.0448C60.2056 19.5723 60.6386 19.9998 61.1727 19.9998C61.7068 19.9998 62.1398 19.5723 62.1398 19.0448Z" fill="#5288F4"/>
<path d="M59.863 19.0448C59.863 18.5174 59.43 18.0898 58.8959 18.0898C58.3617 18.0898 57.9287 18.5174 57.9287 19.0448C57.9287 19.5723 58.3617 19.9998 58.8959 19.9998C59.43 19.9998 59.863 19.5723 59.863 19.0448Z" fill="#5288F4"/>
<path d="M57.5827 19.0448C57.5827 18.5174 57.1497 18.0898 56.6156 18.0898C56.0814 18.0898 55.6484 18.5174 55.6484 19.0448C55.6484 19.5723 56.0814 19.9998 56.6156 19.9998C57.1497 19.9998 57.5827 19.5723 57.5827 19.0448Z" fill="#5288F4"/>
<path d="M0 1.53662H2.45008V18.4633H0V1.53662Z" fill="white"/>
<path d="M19.5184 3.10803C20.7942 4.15563 21.4311 5.6026 21.4292 7.44894C21.4272 9.29527 20.7903 10.7422 19.5184 11.7898C18.2464 12.8374 16.4997 13.3612 14.2782 13.3612H10.0404V18.4633H7.59326V1.53662H14.2782C16.4997 1.53662 18.2464 2.06042 19.5184 3.10803ZM17.7599 10.2532C18.5747 9.60299 18.983 8.66439 18.985 7.43736C18.9869 6.21033 18.5776 5.27462 17.757 4.63024C16.9384 3.97621 15.7543 3.65016 14.205 3.65209H10.0404V11.2342H14.205C15.7563 11.2342 16.9403 10.9072 17.757 10.2532H17.7599Z" fill="white"/>
<path d="M27.842 17.5344C26.4826 16.8146 25.3501 15.7393 24.5684 14.4263C23.7769 13.0832 23.3716 11.5523 23.3961 9.99856C23.372 8.44579 23.7773 6.91594 24.5684 5.57373C25.3501 4.26073 26.4826 3.18545 27.842 2.46564C29.2837 1.72786 30.8838 1.34277 32.5077 1.34277C34.1315 1.34277 35.7316 1.72786 37.1734 2.46564C38.5261 3.18291 39.6527 4.25426 40.4294 5.56216C41.2214 6.90819 41.6267 8.44201 41.6017 9.99856C41.6271 11.5561 41.2218 13.0909 40.4294 14.4379C39.6527 15.7458 38.5261 16.8171 37.1734 17.5344C35.7316 18.2722 34.1315 18.6572 32.5077 18.6572C30.8838 18.6572 29.2837 18.2722 27.842 17.5344ZM35.9102 15.6591C36.9013 15.1078 37.7226 14.3018 38.287 13.3266C38.876 12.3147 39.1796 11.1655 39.1663 9.99856C39.1792 8.83254 38.8756 7.68438 38.287 6.67343C37.7218 5.69787 36.8994 4.8918 35.9073 4.34091C34.8766 3.77103 33.7123 3.47863 32.5311 3.49299C31.3318 3.47508 30.1487 3.7674 29.0992 4.34091C28.0983 4.88721 27.2682 5.69393 26.699 6.67343C26.1104 7.68438 25.8069 8.83254 25.8198 9.99856C25.8065 11.1655 26.1101 12.3147 26.699 13.3266C27.2682 14.3061 28.0983 15.1128 29.0992 15.6591C30.1498 16.2286 31.3329 16.5169 32.5311 16.4954C33.7113 16.5133 34.8755 16.2249 35.9073 15.6591H35.9102Z" fill="white"/>
<path d="M43.3188 18.1393C43.1578 17.9838 43.0312 17.7971 42.9469 17.5909C42.8627 17.3847 42.8226 17.1635 42.8293 16.9412C42.8259 16.7254 42.8675 16.5112 42.9518 16.312C43.036 16.1128 43.1609 15.933 43.3188 15.7837C43.472 15.6312 43.6548 15.5109 43.8562 15.4299C44.0577 15.3488 44.2736 15.3087 44.491 15.3119C44.7044 15.3071 44.9165 15.3451 45.1145 15.4237C45.3125 15.5023 45.4923 15.6198 45.6428 15.7692C45.7983 15.9252 45.9198 16.1109 45.9999 16.3149C46.08 16.519 46.1171 16.737 46.1088 16.9557C46.1154 17.1769 46.0765 17.3972 45.9944 17.6031C45.9123 17.8091 45.7887 17.9964 45.6311 18.1538C45.4835 18.3047 45.3062 18.4244 45.1102 18.5055C44.9142 18.5866 44.7036 18.6274 44.491 18.6255C44.2726 18.6262 44.0563 18.5835 43.8549 18.5C43.6535 18.4165 43.4712 18.2938 43.3188 18.1393Z" fill="white"/>
<path d="M86.6263 1.53662V18.4633H84.6158L74.329 5.83991V18.4633H71.8818V1.53662H73.8894L84.1762 14.16V1.53662H86.6263Z" fill="white"/>
<path d="M104.21 16.3594V18.4633H91.7695V1.53662H103.868V3.64051H94.2167V8.8496H102.812V10.9072H94.2167V16.3594H104.21Z" fill="white"/>
</svg>
