<svg width="1242" height="294" viewBox="0 0 1242 294" fill="none" xmlns="http://www.w3.org/2000/svg">
<path d="M350.392 273.8V285H348.824V275.192H342.328V285H340.744V273.8H350.392ZM358.125 276.44C358.946 276.44 359.682 276.621 360.333 276.984C360.983 277.347 361.49 277.853 361.853 278.504C362.226 279.155 362.413 279.907 362.413 280.76C362.413 281.613 362.226 282.371 361.853 283.032C361.49 283.683 360.983 284.189 360.333 284.552C359.682 284.915 358.946 285.096 358.125 285.096C357.517 285.096 356.957 284.979 356.445 284.744C355.943 284.509 355.517 284.168 355.165 283.72V288.104H353.629V276.52H355.101V277.864C355.442 277.395 355.874 277.043 356.397 276.808C356.919 276.563 357.495 276.44 358.125 276.44ZM357.997 283.752C358.541 283.752 359.026 283.629 359.453 283.384C359.89 283.128 360.231 282.776 360.477 282.328C360.733 281.869 360.861 281.347 360.861 280.76C360.861 280.173 360.733 279.656 360.477 279.208C360.231 278.749 359.89 278.397 359.453 278.152C359.026 277.907 358.541 277.784 357.997 277.784C357.463 277.784 356.978 277.912 356.541 278.168C356.114 278.413 355.773 278.76 355.517 279.208C355.271 279.656 355.149 280.173 355.149 280.76C355.149 281.347 355.271 281.869 355.517 282.328C355.762 282.776 356.103 283.128 356.541 283.384C356.978 283.629 357.463 283.752 357.997 283.752ZM368.276 285.096C367.434 285.096 366.676 284.909 366.004 284.536C365.332 284.163 364.804 283.651 364.42 283C364.047 282.339 363.86 281.592 363.86 280.76C363.86 279.928 364.047 279.187 364.42 278.536C364.804 277.875 365.332 277.363 366.004 277C366.676 276.627 367.434 276.44 368.276 276.44C369.119 276.44 369.871 276.627 370.532 277C371.204 277.363 371.727 277.875 372.1 278.536C372.484 279.187 372.676 279.928 372.676 280.76C372.676 281.592 372.484 282.339 372.1 283C371.727 283.651 371.204 284.163 370.532 284.536C369.871 284.909 369.119 285.096 368.276 285.096ZM368.276 283.752C368.82 283.752 369.306 283.629 369.732 283.384C370.17 283.128 370.511 282.776 370.756 282.328C371.002 281.869 371.124 281.347 371.124 280.76C371.124 280.173 371.002 279.656 370.756 279.208C370.511 278.749 370.17 278.397 369.732 278.152C369.306 277.907 368.82 277.784 368.276 277.784C367.732 277.784 367.242 277.907 366.804 278.152C366.378 278.397 366.036 278.749 365.78 279.208C365.535 279.656 365.412 280.173 365.412 280.76C365.412 281.347 365.535 281.869 365.78 282.328C366.036 282.776 366.378 283.128 366.804 283.384C367.242 283.629 367.732 283.752 368.276 283.752ZM383.95 283.656V287.032H382.494V285H374.894V276.52H376.43V283.656H381.07V276.52H382.606V283.656H383.95ZM393.605 280.808C393.605 280.925 393.594 281.08 393.573 281.272H386.693C386.789 282.019 387.114 282.621 387.669 283.08C388.234 283.528 388.933 283.752 389.765 283.752C390.778 283.752 391.594 283.411 392.213 282.728L393.061 283.72C392.677 284.168 392.197 284.509 391.621 284.744C391.056 284.979 390.421 285.096 389.717 285.096C388.821 285.096 388.026 284.915 387.333 284.552C386.64 284.179 386.101 283.661 385.717 283C385.344 282.339 385.157 281.592 385.157 280.76C385.157 279.939 385.338 279.197 385.701 278.536C386.074 277.875 386.581 277.363 387.221 277C387.872 276.627 388.602 276.44 389.413 276.44C390.224 276.44 390.944 276.627 391.573 277C392.213 277.363 392.709 277.875 393.061 278.536C393.424 279.197 393.605 279.955 393.605 280.808ZM389.413 277.736C388.677 277.736 388.058 277.96 387.557 278.408C387.066 278.856 386.778 279.443 386.693 280.168H392.133C392.048 279.453 391.754 278.872 391.253 278.424C390.762 277.965 390.149 277.736 389.413 277.736ZM404.471 283.656V286.968H403.031V285H395.943V286.968H394.487V283.656H394.935C395.479 283.624 395.853 283.24 396.055 282.504C396.258 281.768 396.397 280.728 396.471 279.384L396.599 276.52H403.175V283.656H404.471ZM397.879 279.496C397.837 280.563 397.746 281.448 397.607 282.152C397.479 282.845 397.239 283.347 396.887 283.656H401.639V277.864H397.959L397.879 279.496ZM414.04 276.52L409.928 285.848C409.566 286.712 409.139 287.32 408.648 287.672C408.168 288.024 407.587 288.2 406.904 288.2C406.488 288.2 406.083 288.131 405.688 287.992C405.304 287.864 404.984 287.672 404.728 287.416L405.384 286.264C405.822 286.68 406.328 286.888 406.904 286.888C407.278 286.888 407.587 286.787 407.832 286.584C408.088 286.392 408.318 286.056 408.52 285.576L408.792 284.984L405.048 276.52H406.648L409.608 283.304L412.536 276.52H414.04ZM420.109 276.44C420.93 276.44 421.666 276.621 422.317 276.984C422.968 277.347 423.474 277.853 423.837 278.504C424.21 279.155 424.397 279.907 424.397 280.76C424.397 281.613 424.21 282.371 423.837 283.032C423.474 283.683 422.968 284.189 422.317 284.552C421.666 284.915 420.93 285.096 420.109 285.096C419.501 285.096 418.941 284.979 418.429 284.744C417.928 284.509 417.501 284.168 417.149 283.72V288.104H415.613V276.52H417.085V277.864C417.426 277.395 417.858 277.043 418.381 276.808C418.904 276.563 419.48 276.44 420.109 276.44ZM419.981 283.752C420.525 283.752 421.01 283.629 421.437 283.384C421.874 283.128 422.216 282.776 422.461 282.328C422.717 281.869 422.845 281.347 422.845 280.76C422.845 280.173 422.717 279.656 422.461 279.208C422.216 278.749 421.874 278.397 421.437 278.152C421.01 277.907 420.525 277.784 419.981 277.784C419.448 277.784 418.962 277.912 418.525 278.168C418.098 278.413 417.757 278.76 417.501 279.208C417.256 279.656 417.133 280.173 417.133 280.76C417.133 281.347 417.256 281.869 417.501 282.328C417.746 282.776 418.088 283.128 418.525 283.384C418.962 283.629 419.448 283.752 419.981 283.752ZM429.575 276.44C430.748 276.44 431.644 276.728 432.263 277.304C432.892 277.88 433.207 278.739 433.207 279.88V285H431.751V283.88C431.495 284.275 431.127 284.579 430.647 284.792C430.177 284.995 429.617 285.096 428.967 285.096C428.017 285.096 427.255 284.867 426.679 284.408C426.113 283.949 425.831 283.347 425.831 282.6C425.831 281.853 426.103 281.256 426.647 280.808C427.191 280.349 428.055 280.12 429.239 280.12H431.671V279.816C431.671 279.155 431.479 278.648 431.095 278.296C430.711 277.944 430.145 277.768 429.399 277.768C428.897 277.768 428.407 277.853 427.927 278.024C427.447 278.184 427.041 278.403 426.711 278.68L426.071 277.528C426.508 277.176 427.031 276.909 427.639 276.728C428.247 276.536 428.892 276.44 429.575 276.44ZM429.223 283.912C429.809 283.912 430.316 283.784 430.743 283.528C431.169 283.261 431.479 282.888 431.671 282.408V281.224H429.303C428.001 281.224 427.351 281.661 427.351 282.536C427.351 282.963 427.516 283.299 427.847 283.544C428.177 283.789 428.636 283.912 429.223 283.912ZM443.901 285.096C443.059 285.096 442.301 284.909 441.629 284.536C440.957 284.163 440.429 283.651 440.045 283C439.672 282.339 439.485 281.592 439.485 280.76C439.485 279.928 439.672 279.187 440.045 278.536C440.429 277.875 440.957 277.363 441.629 277C442.301 276.627 443.059 276.44 443.901 276.44C444.744 276.44 445.496 276.627 446.157 277C446.829 277.363 447.352 277.875 447.725 278.536C448.109 279.187 448.301 279.928 448.301 280.76C448.301 281.592 448.109 282.339 447.725 283C447.352 283.651 446.829 284.163 446.157 284.536C445.496 284.909 444.744 285.096 443.901 285.096ZM443.901 283.752C444.445 283.752 444.931 283.629 445.357 283.384C445.795 283.128 446.136 282.776 446.381 282.328C446.627 281.869 446.749 281.347 446.749 280.76C446.749 280.173 446.627 279.656 446.381 279.208C446.136 278.749 445.795 278.397 445.357 278.152C444.931 277.907 444.445 277.784 443.901 277.784C443.357 277.784 442.867 277.907 442.429 278.152C442.003 278.397 441.661 278.749 441.405 279.208C441.16 279.656 441.037 280.173 441.037 280.76C441.037 281.347 441.16 281.869 441.405 282.328C441.661 282.776 442.003 283.128 442.429 283.384C442.867 283.629 443.357 283.752 443.901 283.752ZM456.527 277.864H453.423V285H451.887V277.864H448.783V276.52H456.527V277.864ZM461.393 281.416H459.633V285H458.097V276.52H459.633V280.104H461.425L464.177 276.52H465.825L462.609 280.6L466.049 285H464.241L461.393 281.416ZM472.156 276.44C472.977 276.44 473.713 276.621 474.364 276.984C475.015 277.347 475.521 277.853 475.884 278.504C476.257 279.155 476.444 279.907 476.444 280.76C476.444 281.613 476.257 282.371 475.884 283.032C475.521 283.683 475.015 284.189 474.364 284.552C473.713 284.915 472.977 285.096 472.156 285.096C471.548 285.096 470.988 284.979 470.476 284.744C469.975 284.509 469.548 284.168 469.196 283.72V288.104H467.66V276.52H469.132V277.864C469.473 277.395 469.905 277.043 470.428 276.808C470.951 276.563 471.527 276.44 472.156 276.44ZM472.028 283.752C472.572 283.752 473.057 283.629 473.484 283.384C473.921 283.128 474.263 282.776 474.508 282.328C474.764 281.869 474.892 281.347 474.892 280.76C474.892 280.173 474.764 279.656 474.508 279.208C474.263 278.749 473.921 278.397 473.484 278.152C473.057 277.907 472.572 277.784 472.028 277.784C471.495 277.784 471.009 277.912 470.572 278.168C470.145 278.413 469.804 278.76 469.548 279.208C469.303 279.656 469.18 280.173 469.18 280.76C469.18 281.347 469.303 281.869 469.548 282.328C469.793 282.776 470.135 283.128 470.572 283.384C471.009 283.629 471.495 283.752 472.028 283.752ZM482.5 279.4C483.566 279.411 484.382 279.656 484.948 280.136C485.513 280.616 485.796 281.293 485.796 282.168C485.796 283.085 485.486 283.795 484.868 284.296C484.26 284.787 483.385 285.027 482.244 285.016L478.676 285V276.52H480.212V279.384L482.5 279.4ZM487.06 276.52H488.596V285H487.06V276.52ZM482.132 283.848C482.825 283.859 483.348 283.72 483.7 283.432C484.062 283.144 484.244 282.717 484.244 282.152C484.244 281.597 484.068 281.192 483.716 280.936C483.364 280.68 482.836 280.547 482.132 280.536L480.212 280.504V283.832L482.132 283.848ZM497.902 277.864H494.798V285H493.262V277.864H490.158V276.52H497.902V277.864ZM499.472 276.52H501.008V282.696L506.208 276.52H507.6V285H506.064V278.824L500.88 285H499.472V276.52ZM517.382 276.52V285H516.006V282.312H513.542H513.366L511.51 285H509.862L511.926 282.104C511.286 281.912 510.795 281.597 510.454 281.16C510.112 280.712 509.942 280.157 509.942 279.496C509.942 278.525 510.272 277.789 510.934 277.288C511.595 276.776 512.507 276.52 513.67 276.52H517.382ZM511.51 279.544C511.51 280.109 511.686 280.531 512.038 280.808C512.4 281.075 512.939 281.208 513.654 281.208H516.006V277.864H513.718C512.246 277.864 511.51 278.424 511.51 279.544ZM528.372 285.096C527.508 285.096 526.734 284.909 526.052 284.536C525.38 284.163 524.852 283.651 524.468 283C524.084 282.339 523.892 281.592 523.892 280.76C523.892 279.928 524.084 279.187 524.468 278.536C524.852 277.875 525.38 277.363 526.052 277C526.734 276.627 527.508 276.44 528.372 276.44C529.14 276.44 529.822 276.595 530.42 276.904C531.028 277.213 531.497 277.661 531.828 278.248L530.66 279C530.393 278.595 530.062 278.291 529.668 278.088C529.273 277.885 528.836 277.784 528.356 277.784C527.801 277.784 527.3 277.907 526.852 278.152C526.414 278.397 526.068 278.749 525.812 279.208C525.566 279.656 525.444 280.173 525.444 280.76C525.444 281.357 525.566 281.885 525.812 282.344C526.068 282.792 526.414 283.139 526.852 283.384C527.3 283.629 527.801 283.752 528.356 283.752C528.836 283.752 529.273 283.651 529.668 283.448C530.062 283.245 530.393 282.941 530.66 282.536L531.828 283.272C531.497 283.859 531.028 284.312 530.42 284.632C529.822 284.941 529.14 285.096 528.372 285.096ZM540.584 276.52V285H539.048V281.576C538.131 282.003 537.219 282.216 536.312 282.216C535.256 282.216 534.44 281.971 533.864 281.48C533.288 280.989 533 280.253 533 279.272V276.52H534.536V279.176C534.536 279.763 534.717 280.205 535.08 280.504C535.453 280.803 535.971 280.952 536.632 280.952C537.379 280.952 538.184 280.765 539.048 280.392V276.52H540.584ZM551.23 280.808C551.23 280.925 551.219 281.08 551.198 281.272H544.318C544.414 282.019 544.739 282.621 545.294 283.08C545.859 283.528 546.558 283.752 547.39 283.752C548.403 283.752 549.219 283.411 549.838 282.728L550.686 283.72C550.302 284.168 549.822 284.509 549.246 284.744C548.681 284.979 548.046 285.096 547.342 285.096C546.446 285.096 545.651 284.915 544.958 284.552C544.265 284.179 543.726 283.661 543.342 283C542.969 282.339 542.782 281.592 542.782 280.76C542.782 279.939 542.963 279.197 543.326 278.536C543.699 277.875 544.206 277.363 544.846 277C545.497 276.627 546.227 276.44 547.038 276.44C547.849 276.44 548.569 276.627 549.198 277C549.838 277.363 550.334 277.875 550.686 278.536C551.049 279.197 551.23 279.955 551.23 280.808ZM547.038 277.736C546.302 277.736 545.683 277.96 545.182 278.408C544.691 278.856 544.403 279.443 544.318 280.168H549.758C549.673 279.453 549.379 278.872 548.878 278.424C548.387 277.965 547.774 277.736 547.038 277.736ZM559.574 277.864H556.47V285H554.934V277.864H551.83V276.52H559.574V277.864ZM564.168 276.44C565.342 276.44 566.238 276.728 566.856 277.304C567.486 277.88 567.8 278.739 567.8 279.88V285H566.344V283.88C566.088 284.275 565.72 284.579 565.24 284.792C564.771 284.995 564.211 285.096 563.56 285.096C562.611 285.096 561.848 284.867 561.272 284.408C560.707 283.949 560.424 283.347 560.424 282.6C560.424 281.853 560.696 281.256 561.24 280.808C561.784 280.349 562.648 280.12 563.832 280.12H566.264V279.816C566.264 279.155 566.072 278.648 565.688 278.296C565.304 277.944 564.739 277.768 563.992 277.768C563.491 277.768 563 277.853 562.52 278.024C562.04 278.184 561.635 278.403 561.304 278.68L560.664 277.528C561.102 277.176 561.624 276.909 562.232 276.728C562.84 276.536 563.486 276.44 564.168 276.44ZM563.816 283.912C564.403 283.912 564.91 283.784 565.336 283.528C565.763 283.261 566.072 282.888 566.264 282.408V281.224H563.896C562.595 281.224 561.944 281.661 561.944 282.536C561.944 282.963 562.11 283.299 562.44 283.544C562.771 283.789 563.23 283.912 563.816 283.912Z" fill="black"/>
<ellipse cx="323" cy="279" rx="6" ry="6" fill="#1357DD"/>
<path d="M29.112 273.8C30.5627 273.8 31.704 274.147 32.536 274.84C33.368 275.533 33.784 276.488 33.784 277.704C33.784 278.92 33.368 279.875 32.536 280.568C31.704 281.261 30.5627 281.608 29.112 281.608H26.344V285H24.744V273.8H29.112ZM29.064 280.216C30.0773 280.216 30.8507 280.003 31.384 279.576C31.9173 279.139 32.184 278.515 32.184 277.704C32.184 276.893 31.9173 276.275 31.384 275.848C30.8507 275.411 30.0773 275.192 29.064 275.192H26.344V280.216H29.064ZM38.6995 276.44C39.8728 276.44 40.7688 276.728 41.3875 277.304C42.0168 277.88 42.3315 278.739 42.3315 279.88V285H40.8755V283.88C40.6195 284.275 40.2515 284.579 39.7715 284.792C39.3022 284.995 38.7422 285.096 38.0915 285.096C37.1422 285.096 36.3795 284.867 35.8035 284.408C35.2382 283.949 34.9555 283.347 34.9555 282.6C34.9555 281.853 35.2275 281.256 35.7715 280.808C36.3155 280.349 37.1795 280.12 38.3635 280.12H40.7955V279.816C40.7955 279.155 40.6035 278.648 40.2195 278.296C39.8355 277.944 39.2702 277.768 38.5235 277.768C38.0222 277.768 37.5315 277.853 37.0515 278.024C36.5715 278.184 36.1662 278.403 35.8355 278.68L35.1955 277.528C35.6328 277.176 36.1555 276.909 36.7635 276.728C37.3715 276.536 38.0168 276.44 38.6995 276.44ZM38.3475 283.912C38.9342 283.912 39.4408 283.784 39.8675 283.528C40.2942 283.261 40.6035 282.888 40.7955 282.408V281.224H38.4275C37.1262 281.224 36.4755 281.661 36.4755 282.536C36.4755 282.963 36.6408 283.299 36.9715 283.544C37.3022 283.789 37.7608 283.912 38.3475 283.912ZM49.5488 280.584C50.1141 280.733 50.5514 280.973 50.8608 281.304C51.1701 281.635 51.3248 282.045 51.3248 282.536C51.3248 283.037 51.1541 283.485 50.8128 283.88C50.4714 284.264 49.9968 284.568 49.3888 284.792C48.7914 285.005 48.1194 285.112 47.3728 285.112C46.7434 285.112 46.1248 285.032 45.5168 284.872C44.9194 284.701 44.3861 284.461 43.9168 284.152L44.3808 282.984C44.7861 283.24 45.2501 283.443 45.7728 283.592C46.2954 283.731 46.8234 283.8 47.3568 283.8C48.0821 283.8 48.6581 283.677 49.0848 283.432C49.5221 283.176 49.7408 282.835 49.7408 282.408C49.7408 282.013 49.5648 281.709 49.2128 281.496C48.8714 281.283 48.3861 281.176 47.7568 281.176H46.2048V280.072H47.6448C48.2208 280.072 48.6741 279.971 49.0048 279.768C49.3354 279.565 49.5008 279.288 49.5008 278.936C49.5008 278.552 49.3034 278.253 48.9088 278.04C48.5248 277.827 48.0021 277.72 47.3408 277.72C46.4981 277.72 45.6074 277.939 44.6688 278.376L44.2528 277.192C45.2874 276.669 46.3701 276.408 47.5008 276.408C48.1834 276.408 48.7968 276.504 49.3408 276.696C49.8848 276.888 50.3114 277.16 50.6208 277.512C50.9301 277.864 51.0848 278.264 51.0848 278.712C51.0848 279.128 50.9461 279.501 50.6688 279.832C50.3914 280.163 50.0181 280.413 49.5488 280.584ZM63.4359 276.52V285H62.0439V278.808L58.8759 284.04H58.2039L55.0679 278.792V285H53.6599V276.52H55.2439L58.5719 282.248L61.9959 276.52H63.4359ZM74.0895 280.808C74.0895 280.925 74.0788 281.08 74.0575 281.272H67.1775C67.2735 282.019 67.5988 282.621 68.1535 283.08C68.7188 283.528 69.4175 283.752 70.2495 283.752C71.2628 283.752 72.0788 283.411 72.6975 282.728L73.5455 283.72C73.1615 284.168 72.6815 284.509 72.1055 284.744C71.5402 284.979 70.9055 285.096 70.2015 285.096C69.3055 285.096 68.5108 284.915 67.8175 284.552C67.1242 284.179 66.5855 283.661 66.2015 283C65.8282 282.339 65.6415 281.592 65.6415 280.76C65.6415 279.939 65.8228 279.197 66.1855 278.536C66.5588 277.875 67.0655 277.363 67.7055 277C68.3562 276.627 69.0868 276.44 69.8975 276.44C70.7082 276.44 71.4282 276.627 72.0575 277C72.6975 277.363 73.1935 277.875 73.5455 278.536C73.9082 279.197 74.0895 279.955 74.0895 280.808ZM69.8975 277.736C69.1615 277.736 68.5428 277.96 68.0415 278.408C67.5508 278.856 67.2628 279.443 67.1775 280.168H72.6175C72.5322 279.453 72.2388 278.872 71.7375 278.424C71.2468 277.965 70.6335 277.736 69.8975 277.736ZM80.9684 276.44C81.7897 276.44 82.5257 276.621 83.1764 276.984C83.827 277.347 84.3337 277.853 84.6964 278.504C85.0697 279.155 85.2564 279.907 85.2564 280.76C85.2564 281.613 85.0697 282.371 84.6964 283.032C84.3337 283.683 83.827 284.189 83.1764 284.552C82.5257 284.915 81.7897 285.096 80.9684 285.096C80.3604 285.096 79.8004 284.979 79.2884 284.744C78.787 284.509 78.3604 284.168 78.0084 283.72V288.104H76.4724V276.52H77.9444V277.864C78.2857 277.395 78.7177 277.043 79.2404 276.808C79.763 276.563 80.339 276.44 80.9684 276.44ZM80.8404 283.752C81.3844 283.752 81.8697 283.629 82.2964 283.384C82.7337 283.128 83.075 282.776 83.3204 282.328C83.5764 281.869 83.7044 281.347 83.7044 280.76C83.7044 280.173 83.5764 279.656 83.3204 279.208C83.075 278.749 82.7337 278.397 82.2964 278.152C81.8697 277.907 81.3844 277.784 80.8404 277.784C80.307 277.784 79.8217 277.912 79.3844 278.168C78.9577 278.413 78.6164 278.76 78.3604 279.208C78.115 279.656 77.9924 280.173 77.9924 280.76C77.9924 281.347 78.115 281.869 78.3604 282.328C78.6057 282.776 78.947 283.128 79.3844 283.384C79.8217 283.629 80.307 283.752 80.8404 283.752ZM101.561 276.52V285H100.169V278.808L97.0009 284.04H96.3289L93.1929 278.792V285H91.7849V276.52H93.3689L96.6969 282.248L100.121 276.52H101.561ZM104.551 276.52H106.087V282.696L111.286 276.52H112.679V285H111.142V278.824L105.959 285H104.551V276.52ZM115.66 276.52H117.196V280.12H122.028V276.52H123.564V285H122.028V281.448H117.196V285H115.66V276.52ZM126.551 276.52H128.087V282.696L133.286 276.52H134.679V285H133.142V278.824L127.959 285H126.551V276.52ZM147.436 276.52V285H146.044V278.808L142.876 284.04H142.204L139.068 278.792V285H137.66V276.52H139.244L142.572 282.248L145.996 276.52H147.436ZM153.45 276.44C154.623 276.44 155.519 276.728 156.138 277.304C156.767 277.88 157.082 278.739 157.082 279.88V285H155.626V283.88C155.37 284.275 155.002 284.579 154.522 284.792C154.052 284.995 153.492 285.096 152.842 285.096C151.892 285.096 151.13 284.867 150.554 284.408C149.988 283.949 149.706 283.347 149.706 282.6C149.706 281.853 149.978 281.256 150.522 280.808C151.066 280.349 151.93 280.12 153.114 280.12H155.546V279.816C155.546 279.155 155.354 278.648 154.97 278.296C154.586 277.944 154.02 277.768 153.274 277.768C152.772 277.768 152.282 277.853 151.802 278.024C151.322 278.184 150.916 278.403 150.586 278.68L149.946 277.528C150.383 277.176 150.906 276.909 151.514 276.728C152.122 276.536 152.767 276.44 153.45 276.44ZM153.098 283.912C153.684 283.912 154.191 283.784 154.618 283.528C155.044 283.261 155.354 282.888 155.546 282.408V281.224H153.178C151.876 281.224 151.226 281.661 151.226 282.536C151.226 282.963 151.391 283.299 151.722 283.544C152.052 283.789 152.511 283.912 153.098 283.912ZM167.127 276.52V285H165.591V277.864H161.943L161.847 279.752C161.794 280.893 161.693 281.848 161.543 282.616C161.394 283.373 161.149 283.981 160.807 284.44C160.466 284.899 159.991 285.128 159.383 285.128C159.106 285.128 158.791 285.08 158.439 284.984L158.535 283.688C158.674 283.72 158.802 283.736 158.919 283.736C159.346 283.736 159.666 283.549 159.879 283.176C160.093 282.803 160.231 282.36 160.295 281.848C160.359 281.336 160.418 280.605 160.471 279.656L160.615 276.52H167.127ZM174.017 279.4C175.095 279.411 175.916 279.656 176.481 280.136C177.047 280.616 177.329 281.293 177.329 282.168C177.329 283.085 177.02 283.795 176.401 284.296C175.793 284.787 174.919 285.027 173.777 285.016L170.097 285V276.52H171.633V279.384L174.017 279.4ZM173.649 283.848C174.343 283.859 174.865 283.72 175.217 283.432C175.58 283.144 175.761 282.717 175.761 282.152C175.761 281.597 175.585 281.192 175.233 280.936C174.892 280.68 174.364 280.547 173.649 280.536L171.633 280.504V283.832L173.649 283.848ZM179.301 276.52H180.837V280.12H185.669V276.52H187.205V285H185.669V281.448H180.837V285H179.301V276.52ZM193.823 285.096C192.98 285.096 192.223 284.909 191.551 284.536C190.879 284.163 190.351 283.651 189.967 283C189.594 282.339 189.407 281.592 189.407 280.76C189.407 279.928 189.594 279.187 189.967 278.536C190.351 277.875 190.879 277.363 191.551 277C192.223 276.627 192.98 276.44 193.823 276.44C194.666 276.44 195.418 276.627 196.079 277C196.751 277.363 197.274 277.875 197.647 278.536C198.031 279.187 198.223 279.928 198.223 280.76C198.223 281.592 198.031 282.339 197.647 283C197.274 283.651 196.751 284.163 196.079 284.536C195.418 284.909 194.666 285.096 193.823 285.096ZM193.823 283.752C194.367 283.752 194.852 283.629 195.279 283.384C195.716 283.128 196.058 282.776 196.303 282.328C196.548 281.869 196.671 281.347 196.671 280.76C196.671 280.173 196.548 279.656 196.303 279.208C196.058 278.749 195.716 278.397 195.279 278.152C194.852 277.907 194.367 277.784 193.823 277.784C193.279 277.784 192.788 277.907 192.351 278.152C191.924 278.397 191.583 278.749 191.327 279.208C191.082 279.656 190.959 280.173 190.959 280.76C190.959 281.347 191.082 281.869 191.327 282.328C191.583 282.776 191.924 283.128 192.351 283.384C192.788 283.629 193.279 283.752 193.823 283.752ZM200.441 276.52H201.977V282.696L207.177 276.52H208.569V285H207.033V278.824L201.849 285H200.441V276.52ZM204.409 275.416C203.62 275.416 203.006 275.229 202.569 274.856C202.132 274.472 201.908 273.923 201.897 273.208H202.937C202.948 273.603 203.081 273.923 203.337 274.168C203.604 274.403 203.956 274.52 204.393 274.52C204.83 274.52 205.182 274.403 205.449 274.168C205.716 273.923 205.854 273.603 205.865 273.208H206.937C206.926 273.923 206.697 274.472 206.249 274.856C205.801 275.229 205.188 275.416 204.409 275.416ZM220.439 280.584C221.005 280.733 221.442 280.973 221.751 281.304C222.061 281.635 222.215 282.045 222.215 282.536C222.215 283.037 222.045 283.485 221.703 283.88C221.362 284.264 220.887 284.568 220.279 284.792C219.682 285.005 219.01 285.112 218.263 285.112C217.634 285.112 217.015 285.032 216.407 284.872C215.81 284.701 215.277 284.461 214.807 284.152L215.271 282.984C215.677 283.24 216.141 283.443 216.663 283.592C217.186 283.731 217.714 283.8 218.247 283.8C218.973 283.8 219.549 283.677 219.975 283.432C220.413 283.176 220.631 282.835 220.631 282.408C220.631 282.013 220.455 281.709 220.103 281.496C219.762 281.283 219.277 281.176 218.647 281.176H217.095V280.072H218.535C219.111 280.072 219.565 279.971 219.895 279.768C220.226 279.565 220.391 279.288 220.391 278.936C220.391 278.552 220.194 278.253 219.799 278.04C219.415 277.827 218.893 277.72 218.231 277.72C217.389 277.72 216.498 277.939 215.559 278.376L215.143 277.192C216.178 276.669 217.261 276.408 218.391 276.408C219.074 276.408 219.687 276.504 220.231 276.696C220.775 276.888 221.202 277.16 221.511 277.512C221.821 277.864 221.975 278.264 221.975 278.712C221.975 279.128 221.837 279.501 221.559 279.832C221.282 280.163 220.909 280.413 220.439 280.584ZM227.575 276.44C228.748 276.44 229.644 276.728 230.263 277.304C230.892 277.88 231.207 278.739 231.207 279.88V285H229.751V283.88C229.495 284.275 229.127 284.579 228.647 284.792C228.177 284.995 227.617 285.096 226.967 285.096C226.017 285.096 225.255 284.867 224.679 284.408C224.113 283.949 223.831 283.347 223.831 282.6C223.831 281.853 224.103 281.256 224.647 280.808C225.191 280.349 226.055 280.12 227.239 280.12H229.671V279.816C229.671 279.155 229.479 278.648 229.095 278.296C228.711 277.944 228.145 277.768 227.399 277.768C226.897 277.768 226.407 277.853 225.927 278.024C225.447 278.184 225.041 278.403 224.711 278.68L224.071 277.528C224.508 277.176 225.031 276.909 225.639 276.728C226.247 276.536 226.892 276.44 227.575 276.44ZM227.223 283.912C227.809 283.912 228.316 283.784 228.743 283.528C229.169 283.261 229.479 282.888 229.671 282.408V281.224H227.303C226.001 281.224 225.351 281.661 225.351 282.536C225.351 282.963 225.516 283.299 225.847 283.544C226.177 283.789 226.636 283.912 227.223 283.912ZM240.772 276.52V285H239.396V282.312H236.932H236.756L234.9 285H233.252L235.316 282.104C234.676 281.912 234.186 281.597 233.844 281.16C233.503 280.712 233.332 280.157 233.332 279.496C233.332 278.525 233.663 277.789 234.324 277.288C234.986 276.776 235.898 276.52 237.06 276.52H240.772ZM234.9 279.544C234.9 280.109 235.076 280.531 235.428 280.808C235.791 281.075 236.33 281.208 237.044 281.208H239.396V277.864H237.108C235.636 277.864 234.9 278.424 234.9 279.544ZM249.545 280.6C250.644 280.877 251.193 281.565 251.193 282.664C251.193 283.411 250.911 283.987 250.345 284.392C249.791 284.797 248.959 285 247.849 285H243.769V276.52H247.705C248.708 276.52 249.492 276.712 250.057 277.096C250.623 277.469 250.905 278.003 250.905 278.696C250.905 279.144 250.783 279.533 250.537 279.864C250.303 280.184 249.972 280.429 249.545 280.6ZM245.273 280.168H247.577C248.164 280.168 248.607 280.061 248.905 279.848C249.215 279.635 249.369 279.325 249.369 278.92C249.369 278.109 248.772 277.704 247.577 277.704H245.273V280.168ZM247.737 283.816C248.377 283.816 248.857 283.715 249.177 283.512C249.497 283.309 249.657 282.995 249.657 282.568C249.657 282.131 249.508 281.805 249.209 281.592C248.921 281.379 248.463 281.272 247.833 281.272H245.273V283.816H247.737ZM256.893 281.416H255.133V285H253.597V276.52H255.133V280.104H256.925L259.677 276.52H261.325L258.109 280.6L261.549 285H259.741L256.893 281.416ZM263.16 276.52H264.696V282.696L269.896 276.52H271.288V285H269.752V278.824L264.568 285H263.16V276.52Z" fill="black"/>
<ellipse cx="7" cy="279" rx="6" ry="6" fill="#A142B5"/>
<path d="M644.72 279.192C645.477 279.373 646.048 279.699 646.432 280.168C646.827 280.627 647.024 281.219 647.024 281.944C647.024 282.915 646.667 283.667 645.952 284.2C645.248 284.733 644.219 285 642.864 285H637.744V273.8H642.56C643.787 273.8 644.741 274.051 645.424 274.552C646.117 275.043 646.464 275.752 646.464 276.68C646.464 277.288 646.309 277.805 646 278.232C645.701 278.659 645.275 278.979 644.72 279.192ZM639.328 278.728H642.448C643.227 278.728 643.819 278.573 644.224 278.264C644.64 277.955 644.848 277.501 644.848 276.904C644.848 276.307 644.64 275.853 644.224 275.544C643.808 275.224 643.216 275.064 642.448 275.064H639.328V278.728ZM642.832 283.736C644.549 283.736 645.408 283.096 645.408 281.816C645.408 281.176 645.189 280.707 644.752 280.408C644.325 280.099 643.685 279.944 642.832 279.944H639.328V283.736H642.832ZM653.265 279.4C654.332 279.411 655.148 279.656 655.713 280.136C656.278 280.616 656.561 281.293 656.561 282.168C656.561 283.085 656.252 283.795 655.633 284.296C655.025 284.787 654.15 285.027 653.009 285.016L649.441 285V276.52H650.977V279.384L653.265 279.4ZM657.825 276.52H659.361V285H657.825V276.52ZM652.897 283.848C653.59 283.859 654.113 283.72 654.465 283.432C654.828 283.144 655.009 282.717 655.009 282.152C655.009 281.597 654.833 281.192 654.481 280.936C654.129 280.68 653.601 280.547 652.897 280.536L650.977 280.504V283.832L652.897 283.848ZM666.667 276.808C667.457 276.808 668.161 276.984 668.779 277.336C669.398 277.688 669.878 278.179 670.219 278.808C670.571 279.427 670.747 280.136 670.747 280.936C670.747 281.757 670.561 282.488 670.187 283.128C669.825 283.757 669.307 284.248 668.635 284.6C667.974 284.952 667.217 285.128 666.363 285.128C664.923 285.128 663.809 284.637 663.019 283.656C662.241 282.664 661.851 281.272 661.851 279.48C661.851 277.741 662.209 276.381 662.923 275.4C663.638 274.408 664.731 273.752 666.203 273.432L670.075 272.568L670.299 273.976L666.731 274.744C665.622 274.989 664.795 275.405 664.251 275.992C663.707 276.579 663.398 277.421 663.323 278.52C663.686 277.976 664.155 277.555 664.731 277.256C665.307 276.957 665.953 276.808 666.667 276.808ZM666.395 283.848C666.939 283.848 667.419 283.725 667.835 283.48C668.262 283.235 668.593 282.899 668.827 282.472C669.062 282.035 669.179 281.539 669.179 280.984C669.179 280.141 668.923 279.464 668.411 278.952C667.899 278.44 667.227 278.184 666.395 278.184C665.563 278.184 664.886 278.44 664.363 278.952C663.851 279.464 663.595 280.141 663.595 280.984C663.595 281.539 663.713 282.035 663.947 282.472C664.193 282.899 664.529 283.235 664.955 283.48C665.382 283.725 665.862 283.848 666.395 283.848ZM676.573 285.096C675.73 285.096 674.973 284.909 674.301 284.536C673.629 284.163 673.101 283.651 672.717 283C672.344 282.339 672.157 281.592 672.157 280.76C672.157 279.928 672.344 279.187 672.717 278.536C673.101 277.875 673.629 277.363 674.301 277C674.973 276.627 675.73 276.44 676.573 276.44C677.416 276.44 678.168 276.627 678.829 277C679.501 277.363 680.024 277.875 680.397 278.536C680.781 279.187 680.973 279.928 680.973 280.76C680.973 281.592 680.781 282.339 680.397 283C680.024 283.651 679.501 284.163 678.829 284.536C678.168 284.909 677.416 285.096 676.573 285.096ZM676.573 283.752C677.117 283.752 677.602 283.629 678.029 283.384C678.466 283.128 678.808 282.776 679.053 282.328C679.298 281.869 679.421 281.347 679.421 280.76C679.421 280.173 679.298 279.656 679.053 279.208C678.808 278.749 678.466 278.397 678.029 278.152C677.602 277.907 677.117 277.784 676.573 277.784C676.029 277.784 675.538 277.907 675.101 278.152C674.674 278.397 674.333 278.749 674.077 279.208C673.832 279.656 673.709 280.173 673.709 280.76C673.709 281.347 673.832 281.869 674.077 282.328C674.333 282.776 674.674 283.128 675.101 283.384C675.538 283.629 676.029 283.752 676.573 283.752ZM687.687 276.44C688.508 276.44 689.244 276.621 689.895 276.984C690.546 277.347 691.052 277.853 691.415 278.504C691.788 279.155 691.975 279.907 691.975 280.76C691.975 281.613 691.788 282.371 691.415 283.032C691.052 283.683 690.546 284.189 689.895 284.552C689.244 284.915 688.508 285.096 687.687 285.096C687.079 285.096 686.519 284.979 686.007 284.744C685.506 284.509 685.079 284.168 684.727 283.72V288.104H683.191V276.52H684.663V277.864C685.004 277.395 685.436 277.043 685.959 276.808C686.482 276.563 687.058 276.44 687.687 276.44ZM687.559 283.752C688.103 283.752 688.588 283.629 689.015 283.384C689.452 283.128 689.794 282.776 690.039 282.328C690.295 281.869 690.423 281.347 690.423 280.76C690.423 280.173 690.295 279.656 690.039 279.208C689.794 278.749 689.452 278.397 689.015 278.152C688.588 277.907 688.103 277.784 687.559 277.784C687.026 277.784 686.54 277.912 686.103 278.168C685.676 278.413 685.335 278.76 685.079 279.208C684.834 279.656 684.711 280.173 684.711 280.76C684.711 281.347 684.834 281.869 685.079 282.328C685.324 282.776 685.666 283.128 686.103 283.384C686.54 283.629 687.026 283.752 687.559 283.752ZM698.504 276.52H700.04V282.696L705.24 276.52H706.632V285H705.096V278.824L699.912 285H698.504V276.52ZM709.613 276.52H711.149V280.12H715.981V276.52H717.517V285H715.981V281.448H711.149V285H709.613V276.52ZM724.2 285.096C723.336 285.096 722.562 284.909 721.88 284.536C721.208 284.163 720.68 283.651 720.296 283C719.912 282.339 719.72 281.592 719.72 280.76C719.72 279.928 719.912 279.187 720.296 278.536C720.68 277.875 721.208 277.363 721.88 277C722.562 276.627 723.336 276.44 724.2 276.44C724.968 276.44 725.65 276.595 726.248 276.904C726.856 277.213 727.325 277.661 727.656 278.248L726.488 279C726.221 278.595 725.89 278.291 725.496 278.088C725.101 277.885 724.664 277.784 724.184 277.784C723.629 277.784 723.128 277.907 722.68 278.152C722.242 278.397 721.896 278.749 721.64 279.208C721.394 279.656 721.272 280.173 721.272 280.76C721.272 281.357 721.394 281.885 721.64 282.344C721.896 282.792 722.242 283.139 722.68 283.384C723.128 283.629 723.629 283.752 724.184 283.752C724.664 283.752 725.101 283.651 725.496 283.448C725.89 283.245 726.221 282.941 726.488 282.536L727.656 283.272C727.325 283.859 726.856 284.312 726.248 284.632C725.65 284.941 724.968 285.096 724.2 285.096ZM735.855 277.864H732.751V285H731.215V277.864H728.111V276.52H735.855V277.864ZM741.922 276.44C742.743 276.44 743.479 276.621 744.13 276.984C744.78 277.347 745.287 277.853 745.65 278.504C746.023 279.155 746.21 279.907 746.21 280.76C746.21 281.613 746.023 282.371 745.65 283.032C745.287 283.683 744.78 284.189 744.13 284.552C743.479 284.915 742.743 285.096 741.922 285.096C741.314 285.096 740.754 284.979 740.242 284.744C739.74 284.509 739.314 284.168 738.962 283.72V288.104H737.426V276.52H738.898V277.864C739.239 277.395 739.671 277.043 740.194 276.808C740.716 276.563 741.292 276.44 741.922 276.44ZM741.794 283.752C742.338 283.752 742.823 283.629 743.25 283.384C743.687 283.128 744.028 282.776 744.274 282.328C744.53 281.869 744.658 281.347 744.658 280.76C744.658 280.173 744.53 279.656 744.274 279.208C744.028 278.749 743.687 278.397 743.25 278.152C742.823 277.907 742.338 277.784 741.794 277.784C741.26 277.784 740.775 277.912 740.338 278.168C739.911 278.413 739.57 278.76 739.314 279.208C739.068 279.656 738.946 280.173 738.946 280.76C738.946 281.347 739.068 281.869 739.314 282.328C739.559 282.776 739.9 283.128 740.338 283.384C740.775 283.629 741.26 283.752 741.794 283.752ZM755.775 276.52L751.663 285.848C751.3 286.712 750.873 287.32 750.383 287.672C749.903 288.024 749.321 288.2 748.639 288.2C748.223 288.2 747.817 288.131 747.423 287.992C747.039 287.864 746.719 287.672 746.463 287.416L747.119 286.264C747.556 286.68 748.063 286.888 748.639 286.888C749.012 286.888 749.321 286.787 749.567 286.584C749.823 286.392 750.052 286.056 750.255 285.576L750.527 284.984L746.783 276.52H748.383L751.343 283.304L754.271 276.52H755.775ZM767.123 276.52V285H765.731V278.808L762.563 284.04H761.891L758.755 278.792V285H757.347V276.52H758.931L762.259 282.248L765.683 276.52H767.123ZM777.777 280.808C777.777 280.925 777.766 281.08 777.745 281.272H770.865C770.961 282.019 771.286 282.621 771.841 283.08C772.406 283.528 773.105 283.752 773.937 283.752C774.95 283.752 775.766 283.411 776.385 282.728L777.233 283.72C776.849 284.168 776.369 284.509 775.793 284.744C775.228 284.979 774.593 285.096 773.889 285.096C772.993 285.096 772.198 284.915 771.505 284.552C770.812 284.179 770.273 283.661 769.889 283C769.516 282.339 769.329 281.592 769.329 280.76C769.329 279.939 769.51 279.197 769.873 278.536C770.246 277.875 770.753 277.363 771.393 277C772.044 276.627 772.774 276.44 773.585 276.44C774.396 276.44 775.116 276.627 775.745 277C776.385 277.363 776.881 277.875 777.233 278.536C777.596 279.197 777.777 279.955 777.777 280.808ZM773.585 277.736C772.849 277.736 772.23 277.96 771.729 278.408C771.238 278.856 770.95 279.443 770.865 280.168H776.305C776.22 279.453 775.926 278.872 775.425 278.424C774.934 277.965 774.321 277.736 773.585 277.736ZM780.16 276.52H781.696V280.12H786.528V276.52H788.064V285H786.528V281.448H781.696V285H780.16V276.52ZM797.371 277.864H794.266V285H792.731V277.864H789.627V276.52H797.371V277.864ZM802.198 285.096C801.355 285.096 800.598 284.909 799.926 284.536C799.254 284.163 798.726 283.651 798.342 283C797.969 282.339 797.782 281.592 797.782 280.76C797.782 279.928 797.969 279.187 798.342 278.536C798.726 277.875 799.254 277.363 799.926 277C800.598 276.627 801.355 276.44 802.198 276.44C803.041 276.44 803.793 276.627 804.454 277C805.126 277.363 805.649 277.875 806.022 278.536C806.406 279.187 806.598 279.928 806.598 280.76C806.598 281.592 806.406 282.339 806.022 283C805.649 283.651 805.126 284.163 804.454 284.536C803.793 284.909 803.041 285.096 802.198 285.096ZM802.198 283.752C802.742 283.752 803.227 283.629 803.654 283.384C804.091 283.128 804.433 282.776 804.678 282.328C804.923 281.869 805.046 281.347 805.046 280.76C805.046 280.173 804.923 279.656 804.678 279.208C804.433 278.749 804.091 278.397 803.654 278.152C803.227 277.907 802.742 277.784 802.198 277.784C801.654 277.784 801.163 277.907 800.726 278.152C800.299 278.397 799.958 278.749 799.702 279.208C799.457 279.656 799.334 280.173 799.334 280.76C799.334 281.347 799.457 281.869 799.702 282.328C799.958 282.776 800.299 283.128 800.726 283.384C801.163 283.629 801.654 283.752 802.198 283.752ZM814.592 280.6C815.691 280.877 816.24 281.565 816.24 282.664C816.24 283.411 815.957 283.987 815.392 284.392C814.837 284.797 814.005 285 812.896 285H808.816V276.52H812.752C813.755 276.52 814.539 276.712 815.104 277.096C815.669 277.469 815.952 278.003 815.952 278.696C815.952 279.144 815.829 279.533 815.584 279.864C815.349 280.184 815.019 280.429 814.592 280.6ZM810.32 280.168H812.624C813.211 280.168 813.653 280.061 813.952 279.848C814.261 279.635 814.416 279.325 814.416 278.92C814.416 278.109 813.819 277.704 812.624 277.704H810.32V280.168ZM812.784 283.816C813.424 283.816 813.904 283.715 814.224 283.512C814.544 283.309 814.704 282.995 814.704 282.568C814.704 282.131 814.555 281.805 814.256 281.592C813.968 281.379 813.509 281.272 812.88 281.272H810.32V283.816H812.784Z" fill="black"/>
<ellipse cx="620" cy="279" rx="6" ry="6" fill="#60D9A4"/>
<path d="M894.912 273.8L889.936 283.032C889.541 283.768 889.077 284.317 888.544 284.68C888.011 285.043 887.429 285.224 886.8 285.224C886.309 285.224 885.808 285.112 885.296 284.888L885.712 283.608C886.107 283.747 886.459 283.816 886.768 283.816C887.472 283.816 888.053 283.443 888.512 282.696L888.768 282.296L884.256 273.8H885.968L889.6 280.904L893.328 273.8H894.912ZM900.484 276.44C901.305 276.44 902.041 276.621 902.692 276.984C903.343 277.347 903.849 277.853 904.212 278.504C904.585 279.155 904.772 279.907 904.772 280.76C904.772 281.613 904.585 282.371 904.212 283.032C903.849 283.683 903.343 284.189 902.692 284.552C902.041 284.915 901.305 285.096 900.484 285.096C899.876 285.096 899.316 284.979 898.804 284.744C898.303 284.509 897.876 284.168 897.524 283.72V288.104H895.988V276.52H897.46V277.864C897.801 277.395 898.233 277.043 898.756 276.808C899.279 276.563 899.855 276.44 900.484 276.44ZM900.356 283.752C900.9 283.752 901.385 283.629 901.812 283.384C902.249 283.128 902.591 282.776 902.836 282.328C903.092 281.869 903.22 281.347 903.22 280.76C903.22 280.173 903.092 279.656 902.836 279.208C902.591 278.749 902.249 278.397 901.812 278.152C901.385 277.907 900.9 277.784 900.356 277.784C899.823 277.784 899.337 277.912 898.9 278.168C898.473 278.413 898.132 278.76 897.876 279.208C897.631 279.656 897.508 280.173 897.508 280.76C897.508 281.347 897.631 281.869 897.876 282.328C898.121 282.776 898.463 283.128 898.9 283.384C899.337 283.629 899.823 283.752 900.356 283.752ZM910.636 285.096C909.793 285.096 909.036 284.909 908.364 284.536C907.692 284.163 907.164 283.651 906.78 283C906.406 282.339 906.22 281.592 906.22 280.76C906.22 279.928 906.406 279.187 906.78 278.536C907.164 277.875 907.692 277.363 908.364 277C909.036 276.627 909.793 276.44 910.636 276.44C911.478 276.44 912.23 276.627 912.892 277C913.564 277.363 914.086 277.875 914.46 278.536C914.844 279.187 915.036 279.928 915.036 280.76C915.036 281.592 914.844 282.339 914.46 283C914.086 283.651 913.564 284.163 912.892 284.536C912.23 284.909 911.478 285.096 910.636 285.096ZM910.636 283.752C911.18 283.752 911.665 283.629 912.092 283.384C912.529 283.128 912.87 282.776 913.116 282.328C913.361 281.869 913.484 281.347 913.484 280.76C913.484 280.173 913.361 279.656 913.116 279.208C912.87 278.749 912.529 278.397 912.092 278.152C911.665 277.907 911.18 277.784 910.636 277.784C910.092 277.784 909.601 277.907 909.164 278.152C908.737 278.397 908.396 278.749 908.14 279.208C907.894 279.656 907.772 280.173 907.772 280.76C907.772 281.347 907.894 281.869 908.14 282.328C908.396 282.776 908.737 283.128 909.164 283.384C909.601 283.629 910.092 283.752 910.636 283.752ZM923.03 280.6C924.128 280.877 924.678 281.565 924.678 282.664C924.678 283.411 924.395 283.987 923.83 284.392C923.275 284.797 922.443 285 921.334 285H917.254V276.52H921.19C922.192 276.52 922.976 276.712 923.542 277.096C924.107 277.469 924.39 278.003 924.39 278.696C924.39 279.144 924.267 279.533 924.022 279.864C923.787 280.184 923.456 280.429 923.03 280.6ZM918.758 280.168H921.062C921.648 280.168 922.091 280.061 922.39 279.848C922.699 279.635 922.854 279.325 922.854 278.92C922.854 278.109 922.256 277.704 921.062 277.704H918.758V280.168ZM921.222 283.816C921.862 283.816 922.342 283.715 922.662 283.512C922.982 283.309 923.142 282.995 923.142 282.568C923.142 282.131 922.992 281.805 922.694 281.592C922.406 281.379 921.947 281.272 921.318 281.272H918.758V283.816H921.222ZM934.746 280.808C934.746 280.925 934.735 281.08 934.714 281.272H927.834C927.93 282.019 928.255 282.621 928.81 283.08C929.375 283.528 930.074 283.752 930.906 283.752C931.919 283.752 932.735 283.411 933.354 282.728L934.202 283.72C933.818 284.168 933.338 284.509 932.762 284.744C932.196 284.979 931.562 285.096 930.858 285.096C929.962 285.096 929.167 284.915 928.474 284.552C927.78 284.179 927.242 283.661 926.858 283C926.484 282.339 926.298 281.592 926.298 280.76C926.298 279.939 926.479 279.197 926.842 278.536C927.215 277.875 927.722 277.363 928.362 277C929.012 276.627 929.743 276.44 930.554 276.44C931.364 276.44 932.084 276.627 932.714 277C933.354 277.363 933.85 277.875 934.202 278.536C934.564 279.197 934.746 279.955 934.746 280.808ZM930.554 277.736C929.818 277.736 929.199 277.96 928.698 278.408C928.207 278.856 927.919 279.443 927.834 280.168H933.274C933.188 279.453 932.895 278.872 932.394 278.424C931.903 277.965 931.29 277.736 930.554 277.736ZM937.129 276.52H938.665V280.12H943.497V276.52H945.033V285H943.497V281.448H938.665V285H937.129V276.52ZM951.939 279.4C953.017 279.411 953.838 279.656 954.403 280.136C954.969 280.616 955.251 281.293 955.251 282.168C955.251 283.085 954.942 283.795 954.323 284.296C953.715 284.787 952.841 285.027 951.699 285.016L948.019 285V276.52H949.555V279.384L951.939 279.4ZM951.571 283.848C952.265 283.859 952.787 283.72 953.139 283.432C953.502 283.144 953.683 282.717 953.683 282.152C953.683 281.597 953.507 281.192 953.155 280.936C952.814 280.68 952.286 280.547 951.571 280.536L949.555 280.504V283.832L951.571 283.848ZM964.543 276.44C965.717 276.44 966.613 276.728 967.231 277.304C967.861 277.88 968.175 278.739 968.175 279.88V285H966.719V283.88C966.463 284.275 966.095 284.579 965.615 284.792C965.146 284.995 964.586 285.096 963.935 285.096C962.986 285.096 962.223 284.867 961.647 284.408C961.082 283.949 960.799 283.347 960.799 282.6C960.799 281.853 961.071 281.256 961.615 280.808C962.159 280.349 963.023 280.12 964.207 280.12H966.639V279.816C966.639 279.155 966.447 278.648 966.063 278.296C965.679 277.944 965.114 277.768 964.367 277.768C963.866 277.768 963.375 277.853 962.895 278.024C962.415 278.184 962.01 278.403 961.679 278.68L961.039 277.528C961.477 277.176 961.999 276.909 962.607 276.728C963.215 276.536 963.861 276.44 964.543 276.44ZM964.191 283.912C964.778 283.912 965.285 283.784 965.711 283.528C966.138 283.261 966.447 282.888 966.639 282.408V281.224H964.271C962.97 281.224 962.319 281.661 962.319 282.536C962.319 282.963 962.485 283.299 962.815 283.544C963.146 283.789 963.605 283.912 964.191 283.912ZM978.221 276.52V285H976.685V277.864H973.037L972.941 279.752C972.888 280.893 972.786 281.848 972.637 282.616C972.488 283.373 972.242 283.981 971.901 284.44C971.56 284.899 971.085 285.128 970.477 285.128C970.2 285.128 969.885 285.08 969.533 284.984L969.629 283.688C969.768 283.72 969.896 283.736 970.013 283.736C970.44 283.736 970.76 283.549 970.973 283.176C971.186 282.803 971.325 282.36 971.389 281.848C971.453 281.336 971.512 280.605 971.565 279.656L971.709 276.52H978.221ZM988.471 276.52V285H986.935V277.864H983.287L983.191 279.752C983.138 280.893 983.036 281.848 982.887 282.616C982.738 283.373 982.492 283.981 982.151 284.44C981.81 284.899 981.335 285.128 980.727 285.128C980.45 285.128 980.135 285.08 979.783 284.984L979.879 283.688C980.018 283.72 980.146 283.736 980.263 283.736C980.69 283.736 981.01 283.549 981.223 283.176C981.436 282.803 981.575 282.36 981.639 281.848C981.703 281.336 981.762 280.605 981.815 279.656L981.959 276.52H988.471ZM995.073 285.096C994.23 285.096 993.473 284.909 992.801 284.536C992.129 284.163 991.601 283.651 991.217 283C990.844 282.339 990.657 281.592 990.657 280.76C990.657 279.928 990.844 279.187 991.217 278.536C991.601 277.875 992.129 277.363 992.801 277C993.473 276.627 994.23 276.44 995.073 276.44C995.916 276.44 996.668 276.627 997.329 277C998.001 277.363 998.524 277.875 998.897 278.536C999.281 279.187 999.473 279.928 999.473 280.76C999.473 281.592 999.281 282.339 998.897 283C998.524 283.651 998.001 284.163 997.329 284.536C996.668 284.909 995.916 285.096 995.073 285.096ZM995.073 283.752C995.617 283.752 996.102 283.629 996.529 283.384C996.966 283.128 997.308 282.776 997.553 282.328C997.798 281.869 997.921 281.347 997.921 280.76C997.921 280.173 997.798 279.656 997.553 279.208C997.308 278.749 996.966 278.397 996.529 278.152C996.102 277.907 995.617 277.784 995.073 277.784C994.529 277.784 994.038 277.907 993.601 278.152C993.174 278.397 992.833 278.749 992.577 279.208C992.332 279.656 992.209 280.173 992.209 280.76C992.209 281.347 992.332 281.869 992.577 282.328C992.833 282.776 993.174 283.128 993.601 283.384C994.038 283.629 994.529 283.752 995.073 283.752ZM1004.99 281.416H1003.23V285H1001.69V276.52H1003.23V280.104H1005.02L1007.77 276.52H1009.42L1006.2 280.6L1009.64 285H1007.84L1004.99 281.416ZM1014.12 276.44C1015.29 276.44 1016.19 276.728 1016.81 277.304C1017.44 277.88 1017.75 278.739 1017.75 279.88V285H1016.3V283.88C1016.04 284.275 1015.67 284.579 1015.19 284.792C1014.72 284.995 1014.16 285.096 1013.51 285.096C1012.56 285.096 1011.8 284.867 1011.23 284.408C1010.66 283.949 1010.38 283.347 1010.38 282.6C1010.38 281.853 1010.65 281.256 1011.19 280.808C1011.74 280.349 1012.6 280.12 1013.79 280.12H1016.22V279.816C1016.22 279.155 1016.03 278.648 1015.64 278.296C1015.26 277.944 1014.69 277.768 1013.95 277.768C1013.44 277.768 1012.95 277.853 1012.47 278.024C1011.99 278.184 1011.59 278.403 1011.26 278.68L1010.62 277.528C1011.05 277.176 1011.58 276.909 1012.19 276.728C1012.79 276.536 1013.44 276.44 1014.12 276.44ZM1013.77 283.912C1014.36 283.912 1014.86 283.784 1015.29 283.528C1015.72 283.261 1016.03 282.888 1016.22 282.408V281.224H1013.85C1012.55 281.224 1011.9 281.661 1011.9 282.536C1011.9 282.963 1012.06 283.299 1012.39 283.544C1012.72 283.789 1013.18 283.912 1013.77 283.912ZM1029.58 283.656V287.032H1028.12V285H1020.52V276.52H1022.06V283.656H1026.7V276.52H1028.23V283.656H1029.58ZM1031.57 276.52H1033.1V282.696L1038.3 276.52H1039.69V285H1038.16V278.824L1032.97 285H1031.57V276.52ZM1042.68 276.52H1044.21V282.696L1049.41 276.52H1050.8V285H1049.27V278.824L1044.08 285H1042.68V276.52Z" fill="black"/>
<ellipse cx="868" cy="279" rx="6" ry="6" fill="black"/>
<path opacity="0.1" d="M1.14755 215.502H576.785" stroke="black" stroke-linecap="square"/>
<path opacity="0.1" d="M1.14755 170.892H576.785" stroke="black" stroke-linecap="square"/>
<path opacity="0.1" d="M1.14755 126.282H576.785" stroke="black" stroke-linecap="square"/>
<path opacity="0.1" d="M1.14755 80.7434H576.785" stroke="black" stroke-linecap="square"/>
<path d="M471.226 112.8V124H457.194V112.8H458.778V122.608H463.434V112.8H465.002V122.608H469.658V112.8H471.226ZM474.454 115.52H475.99V121.696L481.19 115.52H482.582V124H481.046V117.824L475.862 124H474.454V115.52ZM490.059 115.44C490.881 115.44 491.617 115.621 492.267 115.984C492.918 116.347 493.425 116.853 493.787 117.504C494.161 118.155 494.347 118.907 494.347 119.76C494.347 120.613 494.161 121.371 493.787 122.032C493.425 122.683 492.918 123.189 492.267 123.552C491.617 123.915 490.881 124.096 490.059 124.096C489.451 124.096 488.891 123.979 488.379 123.744C487.878 123.509 487.451 123.168 487.099 122.72V127.104H485.563V115.52H487.035V116.864C487.377 116.395 487.809 116.043 488.331 115.808C488.854 115.563 489.43 115.44 490.059 115.44ZM489.931 122.752C490.475 122.752 490.961 122.629 491.387 122.384C491.825 122.128 492.166 121.776 492.411 121.328C492.667 120.869 492.795 120.347 492.795 119.76C492.795 119.173 492.667 118.656 492.411 118.208C492.166 117.749 491.825 117.397 491.387 117.152C490.961 116.907 490.475 116.784 489.931 116.784C489.398 116.784 488.913 116.912 488.475 117.168C488.049 117.413 487.707 117.76 487.451 118.208C487.206 118.656 487.083 119.173 487.083 119.76C487.083 120.347 487.206 120.869 487.451 121.328C487.697 121.776 488.038 122.128 488.475 122.384C488.913 122.629 489.398 122.752 489.931 122.752ZM500.211 124.096C499.368 124.096 498.611 123.909 497.939 123.536C497.267 123.163 496.739 122.651 496.355 122C495.982 121.339 495.795 120.592 495.795 119.76C495.795 118.928 495.982 118.187 496.355 117.536C496.739 116.875 497.267 116.363 497.939 116C498.611 115.627 499.368 115.44 500.211 115.44C501.054 115.44 501.806 115.627 502.467 116C503.139 116.363 503.662 116.875 504.035 117.536C504.419 118.187 504.611 118.928 504.611 119.76C504.611 120.592 504.419 121.339 504.035 122C503.662 122.651 503.139 123.163 502.467 123.536C501.806 123.909 501.054 124.096 500.211 124.096ZM500.211 122.752C500.755 122.752 501.24 122.629 501.667 122.384C502.104 122.128 502.446 121.776 502.691 121.328C502.936 120.869 503.059 120.347 503.059 119.76C503.059 119.173 502.936 118.656 502.691 118.208C502.446 117.749 502.104 117.397 501.667 117.152C501.24 116.907 500.755 116.784 500.211 116.784C499.667 116.784 499.176 116.907 498.739 117.152C498.312 117.397 497.971 117.749 497.715 118.208C497.47 118.656 497.347 119.173 497.347 119.76C497.347 120.347 497.47 120.869 497.715 121.328C497.971 121.776 498.312 122.128 498.739 122.384C499.176 122.629 499.667 122.752 500.211 122.752ZM510.125 120.416H508.365V124H506.829V115.52H508.365V119.104H510.157L512.909 115.52H514.557L511.341 119.6L514.781 124H512.973L510.125 120.416ZM516.391 115.52H517.927V121.696L523.127 115.52H524.519V124H522.983V117.824L517.799 124H516.391V115.52ZM527.501 115.52H529.037V121.696L534.237 115.52H535.629V124H534.093V117.824L528.909 124H527.501V115.52ZM531.469 114.416C530.679 114.416 530.066 114.229 529.629 113.856C529.191 113.472 528.967 112.923 528.957 112.208H529.997C530.007 112.603 530.141 112.923 530.397 113.168C530.663 113.403 531.015 113.52 531.453 113.52C531.89 113.52 532.242 113.403 532.509 113.168C532.775 112.923 532.914 112.603 532.925 112.208H533.997C533.986 112.923 533.757 113.472 533.309 113.856C532.861 114.229 532.247 114.416 531.469 114.416Z" fill="black"/>
<path opacity="0.2" d="M219.265 15.0371V292.749" stroke="url(#paint0_linear)" stroke-linecap="square"/>
<path d="M190.632 178.8H199.08V180.16H192.216V183.36H195.704C197.037 183.36 198.05 183.637 198.744 184.192C199.437 184.747 199.784 185.547 199.784 186.592C199.784 187.691 199.405 188.533 198.648 189.12C197.901 189.707 196.829 190 195.432 190H190.632V178.8ZM195.368 188.736C196.285 188.736 196.984 188.56 197.464 188.208C197.944 187.856 198.184 187.339 198.184 186.656C198.184 185.301 197.245 184.624 195.368 184.624H192.216V188.736H195.368ZM205.903 184.4C206.97 184.411 207.786 184.656 208.351 185.136C208.916 185.616 209.199 186.293 209.199 187.168C209.199 188.085 208.89 188.795 208.271 189.296C207.663 189.787 206.788 190.027 205.647 190.016L202.079 190V181.52H203.615V184.384L205.903 184.4ZM210.463 181.52H211.999V190H210.463V181.52ZM205.535 188.848C206.228 188.859 206.751 188.72 207.103 188.432C207.466 188.144 207.647 187.717 207.647 187.152C207.647 186.597 207.471 186.192 207.119 185.936C206.767 185.68 206.239 185.547 205.535 185.536L203.615 185.504V188.832L205.535 188.848ZM218.681 190.096C217.817 190.096 217.044 189.909 216.361 189.536C215.689 189.163 215.161 188.651 214.777 188C214.393 187.339 214.201 186.592 214.201 185.76C214.201 184.928 214.393 184.187 214.777 183.536C215.161 182.875 215.689 182.363 216.361 182C217.044 181.627 217.817 181.44 218.681 181.44C219.449 181.44 220.132 181.595 220.729 181.904C221.337 182.213 221.807 182.661 222.137 183.248L220.969 184C220.703 183.595 220.372 183.291 219.977 183.088C219.583 182.885 219.145 182.784 218.665 182.784C218.111 182.784 217.609 182.907 217.161 183.152C216.724 183.397 216.377 183.749 216.121 184.208C215.876 184.656 215.753 185.173 215.753 185.76C215.753 186.357 215.876 186.885 216.121 187.344C216.377 187.792 216.724 188.139 217.161 188.384C217.609 188.629 218.111 188.752 218.665 188.752C219.145 188.752 219.583 188.651 219.977 188.448C220.372 188.245 220.703 187.941 220.969 187.536L222.137 188.272C221.807 188.859 221.337 189.312 220.729 189.632C220.132 189.941 219.449 190.096 218.681 190.096ZM230.336 182.864H227.232V190H225.696V182.864H222.592V181.52H230.336V182.864ZM236.403 181.44C237.224 181.44 237.96 181.621 238.611 181.984C239.262 182.347 239.768 182.853 240.131 183.504C240.504 184.155 240.691 184.907 240.691 185.76C240.691 186.613 240.504 187.371 240.131 188.032C239.768 188.683 239.262 189.189 238.611 189.552C237.96 189.915 237.224 190.096 236.403 190.096C235.795 190.096 235.235 189.979 234.723 189.744C234.222 189.509 233.795 189.168 233.443 188.72V193.104H231.907V181.52H233.379V182.864C233.72 182.395 234.152 182.043 234.675 181.808C235.198 181.563 235.774 181.44 236.403 181.44ZM236.275 188.752C236.819 188.752 237.304 188.629 237.731 188.384C238.168 188.128 238.51 187.776 238.755 187.328C239.011 186.869 239.139 186.347 239.139 185.76C239.139 185.173 239.011 184.656 238.755 184.208C238.51 183.749 238.168 183.397 237.731 183.152C237.304 182.907 236.819 182.784 236.275 182.784C235.742 182.784 235.256 182.912 234.819 183.168C234.392 183.413 234.051 183.76 233.795 184.208C233.55 184.656 233.427 185.173 233.427 185.76C233.427 186.347 233.55 186.869 233.795 187.328C234.04 187.776 234.382 188.128 234.819 188.384C235.256 188.629 235.742 188.752 236.275 188.752ZM246.555 190.096C245.712 190.096 244.955 189.909 244.283 189.536C243.611 189.163 243.083 188.651 242.699 188C242.325 187.339 242.139 186.592 242.139 185.76C242.139 184.928 242.325 184.187 242.699 183.536C243.083 182.875 243.611 182.363 244.283 182C244.955 181.627 245.712 181.44 246.555 181.44C247.397 181.44 248.149 181.627 248.811 182C249.483 182.363 250.005 182.875 250.379 183.536C250.763 184.187 250.955 184.928 250.955 185.76C250.955 186.592 250.763 187.339 250.379 188C250.005 188.651 249.483 189.163 248.811 189.536C248.149 189.909 247.397 190.096 246.555 190.096ZM246.555 188.752C247.099 188.752 247.584 188.629 248.011 188.384C248.448 188.128 248.789 187.776 249.035 187.328C249.28 186.869 249.403 186.347 249.403 185.76C249.403 185.173 249.28 184.656 249.035 184.208C248.789 183.749 248.448 183.397 248.011 183.152C247.584 182.907 247.099 182.784 246.555 182.784C246.011 182.784 245.52 182.907 245.083 183.152C244.656 183.397 244.315 183.749 244.059 184.208C243.813 184.656 243.691 185.173 243.691 185.76C243.691 186.347 243.813 186.869 244.059 187.328C244.315 187.776 244.656 188.128 245.083 188.384C245.52 188.629 246.011 188.752 246.555 188.752Z" fill="black"/>
<circle cx="220" cy="165" r="6" fill="#1357DD"/>
<path opacity="0.2" d="M81.265 15.0371V292.749" stroke="url(#paint1_linear)" stroke-linecap="square"/>
<path d="M67.9247 200.8V212H66.3407V202.192H63.8127V200.8H67.9247ZM74.9506 212.128C74.0652 212.128 73.2759 211.904 72.5826 211.456C71.8999 210.997 71.3612 210.336 70.9666 209.472C70.5719 208.608 70.3746 207.584 70.3746 206.4C70.3746 205.216 70.5719 204.192 70.9666 203.328C71.3612 202.464 71.8999 201.808 72.5826 201.36C73.2759 200.901 74.0652 200.672 74.9506 200.672C75.8252 200.672 76.6039 200.901 77.2866 201.36C77.9799 201.808 78.5239 202.464 78.9186 203.328C79.3132 204.192 79.5106 205.216 79.5106 206.4C79.5106 207.584 79.3132 208.608 78.9186 209.472C78.5239 210.336 77.9799 210.997 77.2866 211.456C76.6039 211.904 75.8252 212.128 74.9506 212.128ZM74.9506 210.704C75.8466 210.704 76.5612 210.336 77.0946 209.6C77.6386 208.864 77.9106 207.797 77.9106 206.4C77.9106 205.003 77.6386 203.936 77.0946 203.2C76.5612 202.464 75.8466 202.096 74.9506 202.096C74.0439 202.096 73.3186 202.464 72.7746 203.2C72.2412 203.936 71.9746 205.003 71.9746 206.4C71.9746 207.797 72.2412 208.864 72.7746 209.6C73.3186 210.336 74.0439 210.704 74.9506 210.704ZM85.6224 212.128C84.7371 212.128 83.9478 211.904 83.2544 211.456C82.5718 210.997 82.0331 210.336 81.6384 209.472C81.2438 208.608 81.0464 207.584 81.0464 206.4C81.0464 205.216 81.2438 204.192 81.6384 203.328C82.0331 202.464 82.5718 201.808 83.2544 201.36C83.9478 200.901 84.7371 200.672 85.6224 200.672C86.4971 200.672 87.2758 200.901 87.9584 201.36C88.6518 201.808 89.1958 202.464 89.5904 203.328C89.9851 204.192 90.1824 205.216 90.1824 206.4C90.1824 207.584 89.9851 208.608 89.5904 209.472C89.1958 210.336 88.6518 210.997 87.9584 211.456C87.2758 211.904 86.4971 212.128 85.6224 212.128ZM85.6224 210.704C86.5184 210.704 87.2331 210.336 87.7664 209.6C88.3104 208.864 88.5824 207.797 88.5824 206.4C88.5824 205.003 88.3104 203.936 87.7664 203.2C87.2331 202.464 86.5184 202.096 85.6224 202.096C84.7158 202.096 83.9904 202.464 83.4464 203.2C82.9131 203.936 82.6464 205.003 82.6464 206.4C82.6464 207.797 82.9131 208.864 83.4464 209.6C83.9904 210.336 84.7158 210.704 85.6224 210.704ZM100.23 208.944C100.23 209.787 99.9103 210.501 99.2703 211.088C98.641 211.675 97.7236 212.016 96.5183 212.112V213.92H95.4943V212.112C94.7156 212.069 93.9743 211.925 93.2703 211.68C92.577 211.424 92.0223 211.104 91.6063 210.72L92.1983 209.472C92.5823 209.824 93.0676 210.117 93.6543 210.352C94.241 210.576 94.8543 210.709 95.4943 210.752V207.04C94.7476 206.859 94.1236 206.661 93.6223 206.448C93.1316 206.235 92.7156 205.92 92.3743 205.504C92.0436 205.088 91.8783 204.544 91.8783 203.872C91.8783 203.029 92.1823 202.315 92.7903 201.728C93.409 201.141 94.3103 200.8 95.4943 200.704V198.88H96.5183V200.688C97.1263 200.709 97.713 200.805 98.2783 200.976C98.8543 201.147 99.3503 201.376 99.7663 201.664L99.2383 202.944C98.3743 202.4 97.4676 202.101 96.5183 202.048V205.776C97.297 205.968 97.937 206.171 98.4383 206.384C98.9396 206.587 99.361 206.896 99.7023 207.312C100.054 207.717 100.23 208.261 100.23 208.944ZM93.4463 203.808C93.4463 204.267 93.6223 204.624 93.9743 204.88C94.3263 205.136 94.833 205.349 95.4943 205.52V202.064C94.8116 202.149 94.2996 202.352 93.9583 202.672C93.617 202.981 93.4463 203.36 93.4463 203.808ZM96.5183 210.736C97.233 210.672 97.7663 210.491 98.1183 210.192C98.481 209.883 98.6623 209.499 98.6623 209.04C98.6623 208.571 98.4756 208.213 98.1023 207.968C97.7396 207.712 97.2116 207.488 96.5183 207.296V210.736Z" fill="black"/>
<circle cx="82" cy="187" r="6" fill="#A142B5"/>
<path opacity="0.2" d="M358.199 15.0371V292.749" stroke="url(#paint2_linear)" stroke-linecap="square"/>
<path d="M330.053 157.192C330.81 157.373 331.381 157.699 331.765 158.168C332.16 158.627 332.357 159.219 332.357 159.944C332.357 160.915 332 161.667 331.285 162.2C330.581 162.733 329.552 163 328.197 163H323.077V151.8H327.893C329.12 151.8 330.074 152.051 330.757 152.552C331.45 153.043 331.797 153.752 331.797 154.68C331.797 155.288 331.642 155.805 331.333 156.232C331.034 156.659 330.608 156.979 330.053 157.192ZM324.661 156.728H327.781C328.56 156.728 329.152 156.573 329.557 156.264C329.973 155.955 330.181 155.501 330.181 154.904C330.181 154.307 329.973 153.853 329.557 153.544C329.141 153.224 328.549 153.064 327.781 153.064H324.661V156.728ZM328.165 161.736C329.882 161.736 330.741 161.096 330.741 159.816C330.741 159.176 330.522 158.707 330.085 158.408C329.658 158.099 329.018 157.944 328.165 157.944H324.661V161.736H328.165ZM338.598 157.4C339.665 157.411 340.481 157.656 341.046 158.136C341.612 158.616 341.894 159.293 341.894 160.168C341.894 161.085 341.585 161.795 340.966 162.296C340.358 162.787 339.484 163.027 338.342 163.016L334.774 163V154.52H336.31V157.384L338.598 157.4ZM343.158 154.52H344.694V163H343.158V154.52ZM338.23 161.848C338.924 161.859 339.446 161.72 339.798 161.432C340.161 161.144 340.342 160.717 340.342 160.152C340.342 159.597 340.166 159.192 339.814 158.936C339.462 158.68 338.934 158.547 338.23 158.536L336.31 158.504V161.832L338.23 161.848ZM351.376 163.096C350.512 163.096 349.739 162.909 349.056 162.536C348.384 162.163 347.856 161.651 347.472 161C347.088 160.339 346.896 159.592 346.896 158.76C346.896 157.928 347.088 157.187 347.472 156.536C347.856 155.875 348.384 155.363 349.056 155C349.739 154.627 350.512 154.44 351.376 154.44C352.144 154.44 352.827 154.595 353.424 154.904C354.032 155.213 354.502 155.661 354.832 156.248L353.664 157C353.398 156.595 353.067 156.291 352.672 156.088C352.278 155.885 351.84 155.784 351.36 155.784C350.806 155.784 350.304 155.907 349.856 156.152C349.419 156.397 349.072 156.749 348.816 157.208C348.571 157.656 348.448 158.173 348.448 158.76C348.448 159.357 348.571 159.885 348.816 160.344C349.072 160.792 349.419 161.139 349.856 161.384C350.304 161.629 350.806 161.752 351.36 161.752C351.84 161.752 352.278 161.651 352.672 161.448C353.067 161.245 353.398 160.941 353.664 160.536L354.832 161.272C354.502 161.859 354.032 162.312 353.424 162.632C352.827 162.941 352.144 163.096 351.376 163.096ZM360.328 163.096C359.485 163.096 358.728 162.909 358.056 162.536C357.384 162.163 356.856 161.651 356.472 161C356.099 160.339 355.912 159.592 355.912 158.76C355.912 157.928 356.099 157.187 356.472 156.536C356.856 155.875 357.384 155.363 358.056 155C358.728 154.627 359.485 154.44 360.328 154.44C361.171 154.44 361.923 154.627 362.584 155C363.256 155.363 363.779 155.875 364.152 156.536C364.536 157.187 364.728 157.928 364.728 158.76C364.728 159.592 364.536 160.339 364.152 161C363.779 161.651 363.256 162.163 362.584 162.536C361.923 162.909 361.171 163.096 360.328 163.096ZM360.328 161.752C360.872 161.752 361.357 161.629 361.784 161.384C362.221 161.128 362.563 160.776 362.808 160.328C363.053 159.869 363.176 159.347 363.176 158.76C363.176 158.173 363.053 157.656 362.808 157.208C362.563 156.749 362.221 156.397 361.784 156.152C361.357 155.907 360.872 155.784 360.328 155.784C359.784 155.784 359.293 155.907 358.856 156.152C358.429 156.397 358.088 156.749 357.832 157.208C357.587 157.656 357.464 158.173 357.464 158.76C357.464 159.347 357.587 159.869 357.832 160.328C358.088 160.776 358.429 161.128 358.856 161.384C359.293 161.629 359.784 161.752 360.328 161.752ZM370.242 159.416H368.482V163H366.946V154.52H368.482V158.104H370.274L373.026 154.52H374.674L371.458 158.6L374.898 163H373.09L370.242 159.416ZM376.509 154.52H378.045V160.696L383.245 154.52H384.637V163H383.101V156.824L377.917 163H376.509V154.52ZM387.618 154.52H389.154V160.696L394.354 154.52H395.746V163H394.21V156.824L389.026 163H387.618V154.52ZM391.586 153.416C390.797 153.416 390.183 153.229 389.746 152.856C389.309 152.472 389.085 151.923 389.074 151.208H390.114C390.125 151.603 390.258 151.923 390.514 152.168C390.781 152.403 391.133 152.52 391.57 152.52C392.007 152.52 392.359 152.403 392.626 152.168C392.893 151.923 393.031 151.603 393.042 151.208H394.114C394.103 151.923 393.874 152.472 393.426 152.856C392.978 153.229 392.365 153.416 391.586 153.416Z" fill="black"/>
<circle cx="358" cy="138" r="6" fill="black"/>
<path opacity="0.2" d="M496.132 15.0371V292.749" stroke="url(#paint3_linear)" stroke-linecap="square"/>
<circle cx="496" cy="99" r="6" fill="#60D9A4"/>
<path opacity="0.1" d="M665.148 215.502H1240.78" stroke="black" stroke-linecap="square"/>
<path opacity="0.1" d="M665.148 170.892H1240.78" stroke="black" stroke-linecap="square"/>
<path opacity="0.1" d="M665.148 126.282H1240.78" stroke="black" stroke-linecap="square"/>
<path opacity="0.1" d="M665.148 80.7434H1240.78" stroke="black" stroke-linecap="square"/>
<path d="M724.44 96.8V108H722.856V98.192H720.328V96.8H724.44ZM735.763 108.128C734.878 108.128 734.088 107.904 733.395 107.456C732.712 106.997 732.174 106.336 731.779 105.472C731.384 104.608 731.187 103.584 731.187 102.4C731.187 101.216 731.384 100.192 731.779 99.328C732.174 98.464 732.712 97.808 733.395 97.36C734.088 96.9013 734.878 96.672 735.763 96.672C736.638 96.672 737.416 96.9013 738.099 97.36C738.792 97.808 739.336 98.464 739.731 99.328C740.126 100.192 740.323 101.216 740.323 102.4C740.323 103.584 740.126 104.608 739.731 105.472C739.336 106.336 738.792 106.997 738.099 107.456C737.416 107.904 736.638 108.128 735.763 108.128ZM735.763 106.704C736.659 106.704 737.374 106.336 737.907 105.6C738.451 104.864 738.723 103.797 738.723 102.4C738.723 101.003 738.451 99.936 737.907 99.2C737.374 98.464 736.659 98.096 735.763 98.096C734.856 98.096 734.131 98.464 733.587 99.2C733.054 99.936 732.787 101.003 732.787 102.4C732.787 103.797 733.054 104.864 733.587 105.6C734.131 106.336 734.856 106.704 735.763 106.704ZM746.435 108.128C745.55 108.128 744.76 107.904 744.067 107.456C743.384 106.997 742.846 106.336 742.451 105.472C742.056 104.608 741.859 103.584 741.859 102.4C741.859 101.216 742.056 100.192 742.451 99.328C742.846 98.464 743.384 97.808 744.067 97.36C744.76 96.9013 745.55 96.672 746.435 96.672C747.31 96.672 748.088 96.9013 748.771 97.36C749.464 97.808 750.008 98.464 750.403 99.328C750.798 100.192 750.995 101.216 750.995 102.4C750.995 103.584 750.798 104.608 750.403 105.472C750.008 106.336 749.464 106.997 748.771 107.456C748.088 107.904 747.31 108.128 746.435 108.128ZM746.435 106.704C747.331 106.704 748.046 106.336 748.579 105.6C749.123 104.864 749.395 103.797 749.395 102.4C749.395 101.003 749.123 99.936 748.579 99.2C748.046 98.464 747.331 98.096 746.435 98.096C745.528 98.096 744.803 98.464 744.259 99.2C743.726 99.936 743.459 101.003 743.459 102.4C743.459 103.797 743.726 104.864 744.259 105.6C744.803 106.336 745.528 106.704 746.435 106.704ZM757.107 108.128C756.221 108.128 755.432 107.904 754.739 107.456C754.056 106.997 753.517 106.336 753.123 105.472C752.728 104.608 752.531 103.584 752.531 102.4C752.531 101.216 752.728 100.192 753.123 99.328C753.517 98.464 754.056 97.808 754.739 97.36C755.432 96.9013 756.221 96.672 757.107 96.672C757.981 96.672 758.76 96.9013 759.443 97.36C760.136 97.808 760.68 98.464 761.075 99.328C761.469 100.192 761.667 101.216 761.667 102.4C761.667 103.584 761.469 104.608 761.075 105.472C760.68 106.336 760.136 106.997 759.443 107.456C758.76 107.904 757.981 108.128 757.107 108.128ZM757.107 106.704C758.003 106.704 758.717 106.336 759.251 105.6C759.795 104.864 760.067 103.797 760.067 102.4C760.067 101.003 759.795 99.936 759.251 99.2C758.717 98.464 758.003 98.096 757.107 98.096C756.2 98.096 755.475 98.464 754.931 99.2C754.397 99.936 754.131 101.003 754.131 102.4C754.131 103.797 754.397 104.864 754.931 105.6C755.475 106.336 756.2 106.704 757.107 106.704ZM771.715 104.944C771.715 105.787 771.395 106.501 770.755 107.088C770.125 107.675 769.208 108.016 768.003 108.112V109.92H766.979V108.112C766.2 108.069 765.459 107.925 764.755 107.68C764.061 107.424 763.507 107.104 763.091 106.72L763.683 105.472C764.067 105.824 764.552 106.117 765.139 106.352C765.725 106.576 766.339 106.709 766.979 106.752V103.04C766.232 102.859 765.608 102.661 765.107 102.448C764.616 102.235 764.2 101.92 763.859 101.504C763.528 101.088 763.363 100.544 763.363 99.872C763.363 99.0293 763.667 98.3147 764.275 97.728C764.893 97.1413 765.795 96.8 766.979 96.704V94.88H768.003V96.688C768.611 96.7093 769.197 96.8053 769.763 96.976C770.339 97.1467 770.835 97.376 771.251 97.664L770.723 98.944C769.859 98.4 768.952 98.1013 768.003 98.048V101.776C768.781 101.968 769.421 102.171 769.923 102.384C770.424 102.587 770.845 102.896 771.187 103.312C771.539 103.717 771.715 104.261 771.715 104.944ZM764.931 99.808C764.931 100.267 765.107 100.624 765.459 100.88C765.811 101.136 766.317 101.349 766.979 101.52V98.064C766.296 98.1493 765.784 98.352 765.443 98.672C765.101 98.9813 764.931 99.36 764.931 99.808ZM768.003 106.736C768.717 106.672 769.251 106.491 769.603 106.192C769.965 105.883 770.147 105.499 770.147 105.04C770.147 104.571 769.96 104.213 769.587 103.968C769.224 103.712 768.696 103.488 768.003 103.296V106.736Z" fill="black"/>
<path opacity="0.2" d="M883.265 15.0371V292.749" stroke="url(#paint4_linear)" stroke-linecap="square"/>
<path opacity="0.2" d="M745.265 15.0371V292.749" stroke="url(#paint5_linear)" stroke-linecap="square"/>
<circle cx="746" cy="83" r="6" fill="#A142B5"/>
<path opacity="0.2" d="M1022.2 15.0371V292.749" stroke="url(#paint6_linear)" stroke-linecap="square"/>
<path opacity="0.2" d="M1160.13 15.0371V292.749" stroke="url(#paint7_linear)" stroke-linecap="square"/>
<path d="M3.068 8.6H5.928V24H3.068V8.6ZM16.4294 8.6C17.7641 8.6 18.9227 8.82 19.9054 9.26C20.9027 9.7 21.6654 10.3307 22.1934 11.152C22.7214 11.9733 22.9854 12.9487 22.9854 14.078C22.9854 15.1927 22.7214 16.168 22.1934 17.004C21.6654 17.8253 20.9027 18.456 19.9054 18.896C18.9227 19.336 17.7641 19.556 16.4294 19.556H12.9534V24H10.0934V8.6H16.4294ZM16.2974 17.136C17.5441 17.136 18.4901 16.872 19.1354 16.344C19.7807 15.816 20.1034 15.0607 20.1034 14.078C20.1034 13.0953 19.7807 12.34 19.1354 11.812C18.4901 11.284 17.5441 11.02 16.2974 11.02H12.9534V17.136H16.2974ZM33.2503 24.22C31.6809 24.22 30.2656 23.8827 29.0043 23.208C27.7429 22.5187 26.7529 21.5727 26.0343 20.37C25.3156 19.1527 24.9563 17.796 24.9563 16.3C24.9563 14.804 25.3156 13.4547 26.0343 12.252C26.7529 11.0347 27.7429 10.0887 29.0043 9.414C30.2656 8.72467 31.6809 8.38 33.2503 8.38C34.8196 8.38 36.2349 8.72467 37.4963 9.414C38.7576 10.0887 39.7476 11.0273 40.4663 12.23C41.1849 13.4327 41.5443 14.7893 41.5443 16.3C41.5443 17.8107 41.1849 19.1673 40.4663 20.37C39.7476 21.5727 38.7576 22.5187 37.4963 23.208C36.2349 23.8827 34.8196 24.22 33.2503 24.22ZM33.2503 21.712C34.2769 21.712 35.2009 21.4847 36.0223 21.03C36.8436 20.5607 37.4889 19.9153 37.9583 19.094C38.4276 18.258 38.6623 17.3267 38.6623 16.3C38.6623 15.2733 38.4276 14.3493 37.9583 13.528C37.4889 12.692 36.8436 12.0467 36.0223 11.592C35.2009 11.1227 34.2769 10.888 33.2503 10.888C32.2236 10.888 31.2996 11.1227 30.4783 11.592C29.6569 12.0467 29.0116 12.692 28.5423 13.528C28.0729 14.3493 27.8383 15.2733 27.8383 16.3C27.8383 17.3267 28.0729 18.258 28.5423 19.094C29.0116 19.9153 29.6569 20.5607 30.4783 21.03C31.2996 21.4847 32.2236 21.712 33.2503 21.712ZM44.7621 24.154C44.2635 24.154 43.8381 23.9853 43.4861 23.648C43.1341 23.296 42.9581 22.856 42.9581 22.328C42.9581 21.7853 43.1268 21.3453 43.4641 21.008C43.8161 20.6707 44.2488 20.502 44.7621 20.502C45.2755 20.502 45.7008 20.6707 46.0381 21.008C46.3901 21.3453 46.5661 21.7853 46.5661 22.328C46.5661 22.856 46.3901 23.296 46.0381 23.648C45.6861 23.9853 45.2608 24.154 44.7621 24.154ZM54.3184 24.154C53.1304 24.154 52.0597 23.8973 51.1064 23.384C50.153 22.8707 49.405 22.1593 48.8624 21.25C48.3344 20.326 48.0704 19.2847 48.0704 18.126C48.0704 16.9673 48.3344 15.9333 48.8624 15.024C49.405 14.1147 50.153 13.4033 51.1064 12.89C52.0597 12.3767 53.1304 12.12 54.3184 12.12C55.521 12.12 56.599 12.3767 57.5524 12.89C58.5057 13.4033 59.2464 14.1147 59.7744 15.024C60.317 15.9333 60.5884 16.9673 60.5884 18.126C60.5884 19.2847 60.317 20.326 59.7744 21.25C59.2464 22.1593 58.5057 22.8707 57.5524 23.384C56.599 23.8973 55.521 24.154 54.3184 24.154ZM54.3184 21.8C55.3304 21.8 56.1664 21.4627 56.8264 20.788C57.4864 20.1133 57.8164 19.226 57.8164 18.126C57.8164 17.026 57.4864 16.1387 56.8264 15.464C56.1664 14.7893 55.3304 14.452 54.3184 14.452C53.3064 14.452 52.4704 14.7893 51.8104 15.464C51.165 16.1387 50.8424 17.026 50.8424 18.126C50.8424 19.226 51.165 20.1133 51.8104 20.788C52.4704 21.4627 53.3064 21.8 54.3184 21.8ZM69.8841 12.12C71.3654 12.12 72.5534 12.5527 73.4481 13.418C74.3427 14.2833 74.7901 15.5667 74.7901 17.268V24H72.0401V17.62C72.0401 16.5933 71.7981 15.8233 71.3141 15.31C70.8301 14.782 70.1407 14.518 69.2461 14.518C68.2341 14.518 67.4347 14.826 66.8481 15.442C66.2614 16.0433 65.9681 16.916 65.9681 18.06V24H63.2181V12.252H65.8361V13.77C66.2907 13.2273 66.8627 12.8167 67.5521 12.538C68.2414 12.2593 69.0187 12.12 69.8841 12.12ZM89.43 18.192C89.43 18.3827 89.4154 18.654 89.386 19.006H80.168C80.3294 19.8713 80.7474 20.5607 81.422 21.074C82.1114 21.5727 82.962 21.822 83.974 21.822C85.2647 21.822 86.328 21.3967 87.164 20.546L88.638 22.24C88.11 22.8707 87.4427 23.3473 86.636 23.67C85.8294 23.9927 84.92 24.154 83.908 24.154C82.6174 24.154 81.4807 23.8973 80.498 23.384C79.5154 22.8707 78.7527 22.1593 78.21 21.25C77.682 20.326 77.418 19.2847 77.418 18.126C77.418 16.982 77.6747 15.9553 78.188 15.046C78.716 14.122 79.442 13.4033 80.366 12.89C81.29 12.3767 82.3314 12.12 83.49 12.12C84.634 12.12 85.6534 12.3767 86.548 12.89C87.4574 13.3887 88.1614 14.1 88.66 15.024C89.1734 15.9333 89.43 16.9893 89.43 18.192ZM83.49 14.32C82.61 14.32 81.862 14.584 81.246 15.112C80.6447 15.6253 80.278 16.3147 80.146 17.18H86.812C86.6947 16.3293 86.3354 15.64 85.734 15.112C85.1327 14.584 84.3847 14.32 83.49 14.32Z" fill="#1357DD"/>
<path d="M870.304 156.608V160.448H868.816V158H859.6L859.584 160.448H858.096L858.112 156.608H858.656C859.36 156.565 859.856 156.011 860.144 154.944C860.432 153.867 860.608 152.352 860.672 150.4L860.784 146.8H868.656V156.608H870.304ZM862.08 150.544C862.026 152.123 861.898 153.429 861.696 154.464C861.504 155.499 861.189 156.213 860.752 156.608H867.072V148.192H862.16L862.08 150.544ZM875.68 158.096C874.837 158.096 874.08 157.909 873.408 157.536C872.736 157.163 872.208 156.651 871.824 156C871.45 155.339 871.264 154.592 871.264 153.76C871.264 152.928 871.45 152.187 871.824 151.536C872.208 150.875 872.736 150.363 873.408 150C874.08 149.627 874.837 149.44 875.68 149.44C876.522 149.44 877.274 149.627 877.936 150C878.608 150.363 879.13 150.875 879.504 151.536C879.888 152.187 880.08 152.928 880.08 153.76C880.08 154.592 879.888 155.339 879.504 156C879.13 156.651 878.608 157.163 877.936 157.536C877.274 157.909 876.522 158.096 875.68 158.096ZM875.68 156.752C876.224 156.752 876.709 156.629 877.136 156.384C877.573 156.128 877.914 155.776 878.16 155.328C878.405 154.869 878.528 154.347 878.528 153.76C878.528 153.173 878.405 152.656 878.16 152.208C877.914 151.749 877.573 151.397 877.136 151.152C876.709 150.907 876.224 150.784 875.68 150.784C875.136 150.784 874.645 150.907 874.208 151.152C873.781 151.397 873.44 151.749 873.184 152.208C872.938 152.656 872.816 153.173 872.816 153.76C872.816 154.347 872.938 154.869 873.184 155.328C873.44 155.776 873.781 156.128 874.208 156.384C874.645 156.629 875.136 156.752 875.68 156.752ZM889.515 149.52V158H887.979V150.864H884.331L884.235 152.752C884.182 153.893 884.081 154.848 883.931 155.616C883.782 156.373 883.537 156.981 883.195 157.44C882.854 157.899 882.379 158.128 881.771 158.128C881.494 158.128 881.179 158.08 880.827 157.984L880.923 156.688C881.062 156.72 881.19 156.736 881.307 156.736C881.734 156.736 882.054 156.549 882.267 156.176C882.481 155.803 882.619 155.36 882.683 154.848C882.747 154.336 882.806 153.605 882.859 152.656L883.003 149.52H889.515ZM898.725 150.864H894.021V158H892.485V149.52H898.725V150.864ZM903.555 158.096C902.712 158.096 901.955 157.909 901.283 157.536C900.611 157.163 900.083 156.651 899.699 156C899.325 155.339 899.139 154.592 899.139 153.76C899.139 152.928 899.325 152.187 899.699 151.536C900.083 150.875 900.611 150.363 901.283 150C901.955 149.627 902.712 149.44 903.555 149.44C904.397 149.44 905.149 149.627 905.811 150C906.483 150.363 907.005 150.875 907.379 151.536C907.763 152.187 907.955 152.928 907.955 153.76C907.955 154.592 907.763 155.339 907.379 156C907.005 156.651 906.483 157.163 905.811 157.536C905.149 157.909 904.397 158.096 903.555 158.096ZM903.555 156.752C904.099 156.752 904.584 156.629 905.011 156.384C905.448 156.128 905.789 155.776 906.035 155.328C906.28 154.869 906.403 154.347 906.403 153.76C906.403 153.173 906.28 152.656 906.035 152.208C905.789 151.749 905.448 151.397 905.011 151.152C904.584 150.907 904.099 150.784 903.555 150.784C903.011 150.784 902.52 150.907 902.083 151.152C901.656 151.397 901.315 151.749 901.059 152.208C900.813 152.656 900.691 153.173 900.691 153.76C900.691 154.347 900.813 154.869 901.059 155.328C901.315 155.776 901.656 156.128 902.083 156.384C902.52 156.629 903.011 156.752 903.555 156.752Z" fill="black"/>
<circle cx="883" cy="133" r="6" fill="#1357DD"/>
<path d="M991.968 192.128C990.848 192.128 989.835 191.883 988.928 191.392C988.032 190.891 987.328 190.208 986.816 189.344C986.304 188.469 986.048 187.488 986.048 186.4C986.048 185.312 986.304 184.336 986.816 183.472C987.328 182.597 988.037 181.915 988.944 181.424C989.851 180.923 990.864 180.672 991.984 180.672C992.859 180.672 993.659 180.821 994.384 181.12C995.109 181.408 995.728 181.84 996.24 182.416L995.2 183.424C994.357 182.539 993.307 182.096 992.048 182.096C991.216 182.096 990.464 182.283 989.792 182.656C989.12 183.029 988.592 183.547 988.208 184.208C987.835 184.859 987.648 185.589 987.648 186.4C987.648 187.211 987.835 187.947 988.208 188.608C988.592 189.259 989.12 189.771 989.792 190.144C990.464 190.517 991.216 190.704 992.048 190.704C993.296 190.704 994.347 190.256 995.2 189.36L996.24 190.368C995.728 190.944 995.104 191.381 994.368 191.68C993.643 191.979 992.843 192.128 991.968 192.128ZM1002.68 183.44C1003.51 183.44 1004.24 183.621 1004.89 183.984C1005.54 184.347 1006.05 184.853 1006.41 185.504C1006.79 186.155 1006.97 186.907 1006.97 187.76C1006.97 188.613 1006.79 189.371 1006.41 190.032C1006.05 190.683 1005.54 191.189 1004.89 191.552C1004.24 191.915 1003.51 192.096 1002.68 192.096C1002.08 192.096 1001.52 191.979 1001 191.744C1000.5 191.509 1000.08 191.168 999.724 190.72V195.104H998.188V183.52H999.66V184.864C1000 184.395 1000.43 184.043 1000.96 183.808C1001.48 183.563 1002.05 183.44 1002.68 183.44ZM1002.56 190.752C1003.1 190.752 1003.59 190.629 1004.01 190.384C1004.45 190.128 1004.79 189.776 1005.04 189.328C1005.29 188.869 1005.42 188.347 1005.42 187.76C1005.42 187.173 1005.29 186.656 1005.04 186.208C1004.79 185.749 1004.45 185.397 1004.01 185.152C1003.59 184.907 1003.1 184.784 1002.56 184.784C1002.02 184.784 1001.54 184.912 1001.1 185.168C1000.67 185.413 1000.33 185.76 1000.08 186.208C999.831 186.656 999.708 187.173 999.708 187.76C999.708 188.347 999.831 188.869 1000.08 189.328C1000.32 189.776 1000.66 190.128 1001.1 190.384C1001.54 190.629 1002.02 190.752 1002.56 190.752ZM1016.87 187.808C1016.87 187.925 1016.86 188.08 1016.84 188.272H1009.96C1010.05 189.019 1010.38 189.621 1010.93 190.08C1011.5 190.528 1012.2 190.752 1013.03 190.752C1014.04 190.752 1014.86 190.411 1015.48 189.728L1016.32 190.72C1015.94 191.168 1015.46 191.509 1014.88 191.744C1014.32 191.979 1013.68 192.096 1012.98 192.096C1012.08 192.096 1011.29 191.915 1010.6 191.552C1009.9 191.179 1009.36 190.661 1008.98 190C1008.61 189.339 1008.42 188.592 1008.42 187.76C1008.42 186.939 1008.6 186.197 1008.96 185.536C1009.34 184.875 1009.84 184.363 1010.48 184C1011.13 183.627 1011.87 183.44 1012.68 183.44C1013.49 183.44 1014.21 183.627 1014.84 184C1015.48 184.363 1015.97 184.875 1016.32 185.536C1016.69 186.197 1016.87 186.955 1016.87 187.808ZM1012.68 184.736C1011.94 184.736 1011.32 184.96 1010.82 185.408C1010.33 185.856 1010.04 186.443 1009.96 187.168H1015.4C1015.31 186.453 1015.02 185.872 1014.52 185.424C1014.03 184.965 1013.41 184.736 1012.68 184.736ZM1027.73 190.656V193.968H1026.29V192H1019.21V193.968H1017.75V190.656H1018.2C1018.74 190.624 1019.12 190.24 1019.32 189.504C1019.52 188.768 1019.66 187.728 1019.73 186.384L1019.86 183.52H1026.44V190.656H1027.73ZM1021.14 186.496C1021.1 187.563 1021.01 188.448 1020.87 189.152C1020.74 189.845 1020.5 190.347 1020.15 190.656H1024.9V184.864H1021.22L1021.14 186.496ZM1029.74 183.52H1031.27V187.12H1036.1V183.52H1037.64V192H1036.1V188.448H1031.27V192H1029.74V183.52ZM1040.63 183.52H1042.16V189.696L1047.36 183.52H1048.75V192H1047.22V185.824L1042.03 192H1040.63V183.52ZM1051.74 183.52H1053.27V189.696L1058.47 183.52H1059.86V192H1058.33V185.824L1053.14 192H1051.74V183.52ZM1055.7 182.416C1054.91 182.416 1054.3 182.229 1053.86 181.856C1053.43 181.472 1053.2 180.923 1053.19 180.208H1054.23C1054.24 180.603 1054.38 180.923 1054.63 181.168C1054.9 181.403 1055.25 181.52 1055.69 181.52C1056.12 181.52 1056.48 181.403 1056.74 181.168C1057.01 180.923 1057.15 180.603 1057.16 180.208H1058.23C1058.22 180.923 1057.99 181.472 1057.54 181.856C1057.1 182.229 1056.48 182.416 1055.7 182.416Z" fill="black"/>
<circle cx="1023" cy="167" r="6" fill="black"/>
<path d="M1147.01 201.8L1142.04 211.032C1141.64 211.768 1141.18 212.317 1140.65 212.68C1140.11 213.043 1139.53 213.224 1138.9 213.224C1138.41 213.224 1137.91 213.112 1137.4 212.888L1137.81 211.608C1138.21 211.747 1138.56 211.816 1138.87 211.816C1139.57 211.816 1140.15 211.443 1140.61 210.696L1140.87 210.296L1136.36 201.8H1138.07L1141.7 208.904L1145.43 201.8H1147.01ZM1152.49 208.584C1153.06 208.733 1153.5 208.973 1153.81 209.304C1154.12 209.635 1154.27 210.045 1154.27 210.536C1154.27 211.037 1154.1 211.485 1153.76 211.88C1153.42 212.264 1152.94 212.568 1152.33 212.792C1151.74 213.005 1151.06 213.112 1150.32 213.112C1149.69 213.112 1149.07 213.032 1148.46 212.872C1147.86 212.701 1147.33 212.461 1146.86 212.152L1147.33 210.984C1147.73 211.24 1148.2 211.443 1148.72 211.592C1149.24 211.731 1149.77 211.8 1150.3 211.8C1151.03 211.8 1151.6 211.677 1152.03 211.432C1152.47 211.176 1152.69 210.835 1152.69 210.408C1152.69 210.013 1152.51 209.709 1152.16 209.496C1151.82 209.283 1151.33 209.176 1150.7 209.176H1149.15V208.072H1150.59C1151.17 208.072 1151.62 207.971 1151.95 207.768C1152.28 207.565 1152.45 207.288 1152.45 206.936C1152.45 206.552 1152.25 206.253 1151.85 206.04C1151.47 205.827 1150.95 205.72 1150.29 205.72C1149.44 205.72 1148.55 205.939 1147.61 206.376L1147.2 205.192C1148.23 204.669 1149.32 204.408 1150.45 204.408C1151.13 204.408 1151.74 204.504 1152.29 204.696C1152.83 204.888 1153.26 205.16 1153.57 205.512C1153.88 205.864 1154.03 206.264 1154.03 206.712C1154.03 207.128 1153.89 207.501 1153.61 207.832C1153.34 208.163 1152.96 208.413 1152.49 208.584ZM1159.9 209.416H1158.14V213H1156.61V204.52H1158.14V208.104H1159.93L1162.69 204.52H1164.33L1161.12 208.6L1164.56 213H1162.75L1159.9 209.416ZM1166.17 204.52H1167.7V210.696L1172.9 204.52H1174.3V213H1172.76V206.824L1167.58 213H1166.17V204.52ZM1177.28 204.52H1178.81V210.696L1184.01 204.52H1185.41V213H1183.87V206.824L1178.69 213H1177.28V204.52ZM1181.25 203.416C1180.46 203.416 1179.84 203.229 1179.41 202.856C1178.97 202.472 1178.74 201.923 1178.73 201.208H1179.77C1179.78 201.603 1179.92 201.923 1180.17 202.168C1180.44 202.403 1180.79 202.52 1181.23 202.52C1181.67 202.52 1182.02 202.403 1182.29 202.168C1182.55 201.923 1182.69 201.603 1182.7 201.208H1183.77C1183.76 201.923 1183.53 202.472 1183.09 202.856C1182.64 203.229 1182.02 203.416 1181.25 203.416Z" fill="black"/>
<circle cx="1161" cy="188" r="6" fill="#60D9A4"/>
<path d="M672.832 17.51H669.972V24H667.156V8.6H669.972V15.046H672.92L677.342 8.6H680.378L675.12 16.058L680.576 24H677.342L672.832 17.51ZM687.295 24.154C686.107 24.154 685.036 23.8973 684.083 23.384C683.13 22.8707 682.382 22.1593 681.839 21.25C681.311 20.326 681.047 19.2847 681.047 18.126C681.047 16.9673 681.311 15.9333 681.839 15.024C682.382 14.1147 683.13 13.4033 684.083 12.89C685.036 12.3767 686.107 12.12 687.295 12.12C688.498 12.12 689.576 12.3767 690.529 12.89C691.482 13.4033 692.223 14.1147 692.751 15.024C693.294 15.9333 693.565 16.9673 693.565 18.126C693.565 19.2847 693.294 20.326 692.751 21.25C692.223 22.1593 691.482 22.8707 690.529 23.384C689.576 23.8973 688.498 24.154 687.295 24.154ZM687.295 21.8C688.307 21.8 689.143 21.4627 689.803 20.788C690.463 20.1133 690.793 19.226 690.793 18.126C690.793 17.026 690.463 16.1387 689.803 15.464C689.143 14.7893 688.307 14.452 687.295 14.452C686.283 14.452 685.447 14.7893 684.787 15.464C684.142 16.1387 683.819 17.026 683.819 18.126C683.819 19.226 684.142 20.1133 684.787 20.788C685.447 21.4627 686.283 21.8 687.295 21.8ZM696.282 12.252H699.032V17.026H704.95V12.252H707.7V24H704.95V19.358H699.032V24H696.282V12.252ZM716.269 19.292H714.135V24H711.385V12.252H714.135V17.004H716.335L719.811 12.252H722.759L718.491 17.906L723.045 24H719.811L716.269 19.292ZM735.407 12.252L729.907 24.946C729.393 26.222 728.77 27.1167 728.037 27.63C727.303 28.158 726.416 28.422 725.375 28.422C724.788 28.422 724.209 28.3267 723.637 28.136C723.065 27.9453 722.595 27.6813 722.229 27.344L723.329 25.32C723.593 25.5693 723.901 25.7673 724.253 25.914C724.619 26.0607 724.986 26.134 725.353 26.134C725.837 26.134 726.233 26.0093 726.541 25.76C726.863 25.5107 727.157 25.0927 727.421 24.506L727.619 24.044L722.493 12.252H725.353L729.049 20.942L732.767 12.252H735.407ZM743.829 12.12C744.973 12.12 745.992 12.3693 746.887 12.868C747.796 13.3667 748.507 14.0707 749.021 14.98C749.534 15.8893 749.791 16.938 749.791 18.126C749.791 19.314 749.534 20.37 749.021 21.294C748.507 22.2033 747.796 22.9073 746.887 23.406C745.992 23.9047 744.973 24.154 743.829 24.154C742.245 24.154 740.991 23.626 740.067 22.57V28.268H737.317V12.252H739.935V13.792C740.389 13.2347 740.947 12.8167 741.607 12.538C742.281 12.2593 743.022 12.12 743.829 12.12ZM743.521 21.8C744.533 21.8 745.361 21.4627 746.007 20.788C746.667 20.1133 746.997 19.226 746.997 18.126C746.997 17.026 746.667 16.1387 746.007 15.464C745.361 14.7893 744.533 14.452 743.521 14.452C742.861 14.452 742.267 14.606 741.739 14.914C741.211 15.2073 740.793 15.6327 740.485 16.19C740.177 16.7473 740.023 17.3927 740.023 18.126C740.023 18.8593 740.177 19.5047 740.485 20.062C740.793 20.6193 741.211 21.052 741.739 21.36C742.267 21.6533 742.861 21.8 743.521 21.8ZM763.528 18.192C763.528 18.3827 763.513 18.654 763.484 19.006H754.266C754.427 19.8713 754.845 20.5607 755.52 21.074C756.209 21.5727 757.06 21.822 758.072 21.822C759.362 21.822 760.426 21.3967 761.262 20.546L762.736 22.24C762.208 22.8707 761.54 23.3473 760.734 23.67C759.927 23.9927 759.018 24.154 758.006 24.154C756.715 24.154 755.578 23.8973 754.596 23.384C753.613 22.8707 752.85 22.1593 752.308 21.25C751.78 20.326 751.516 19.2847 751.516 18.126C751.516 16.982 751.772 15.9553 752.286 15.046C752.814 14.122 753.54 13.4033 754.464 12.89C755.388 12.3767 756.429 12.12 757.588 12.12C758.732 12.12 759.751 12.3767 760.646 12.89C761.555 13.3887 762.259 14.1 762.758 15.024C763.271 15.9333 763.528 16.9893 763.528 18.192ZM757.588 14.32C756.708 14.32 755.96 14.584 755.344 15.112C754.742 15.6253 754.376 16.3147 754.244 17.18H760.91C760.792 16.3293 760.433 15.64 759.832 15.112C759.23 14.584 758.482 14.32 757.588 14.32ZM766.536 12.252H769.286V17.026H775.204V12.252H777.954V24H775.204V19.358H769.286V24H766.536V12.252ZM790.945 14.584H786.831V24H784.081V14.584H779.945V12.252H790.945V14.584ZM798.66 16.124C800.156 16.124 801.3 16.4613 802.092 17.136C802.884 17.8107 803.28 18.764 803.28 19.996C803.28 21.2867 802.84 22.284 801.96 22.988C801.094 23.692 799.862 24.0367 798.264 24.022L792.94 24V12.252H795.69V16.102L798.66 16.124ZM804.798 12.252H807.548V24H804.798V12.252ZM798.022 21.998C798.828 22.0127 799.444 21.844 799.87 21.492C800.295 21.14 800.508 20.6267 800.508 19.952C800.508 19.292 800.302 18.808 799.892 18.5C799.481 18.192 798.858 18.0307 798.022 18.016L795.69 17.994V21.976L798.022 21.998Z" fill="black"/>
<defs>
<linearGradient id="paint0_linear" x1="218.241" y1="13.9405" x2="218.241" y2="293.94" gradientUnits="userSpaceOnUse">
<stop stop-color="white" stop-opacity="0"/>
<stop offset="0.307292" stop-color="#222656"/>
<stop offset="0.604167" stop-color="#222656"/>
<stop offset="1" stop-color="white" stop-opacity="0"/>
</linearGradient>
<linearGradient id="paint1_linear" x1="80.2412" y1="13.9405" x2="80.2412" y2="293.94" gradientUnits="userSpaceOnUse">
<stop stop-color="white" stop-opacity="0"/>
<stop offset="0.307292" stop-color="#222656"/>
<stop offset="0.604167" stop-color="#222656"/>
<stop offset="1" stop-color="white" stop-opacity="0"/>
</linearGradient>
<linearGradient id="paint2_linear" x1="357.175" y1="13.9405" x2="357.175" y2="293.94" gradientUnits="userSpaceOnUse">
<stop stop-color="white" stop-opacity="0"/>
<stop offset="0.307292" stop-color="#222656"/>
<stop offset="0.604167" stop-color="#222656"/>
<stop offset="1" stop-color="white" stop-opacity="0"/>
</linearGradient>
<linearGradient id="paint3_linear" x1="495.108" y1="13.9405" x2="495.108" y2="293.94" gradientUnits="userSpaceOnUse">
<stop stop-color="white" stop-opacity="0"/>
<stop offset="0.307292" stop-color="#222656"/>
<stop offset="0.604167" stop-color="#222656"/>
<stop offset="1" stop-color="white" stop-opacity="0"/>
</linearGradient>
<linearGradient id="paint4_linear" x1="882.241" y1="13.9405" x2="882.241" y2="293.94" gradientUnits="userSpaceOnUse">
<stop stop-color="white" stop-opacity="0"/>
<stop offset="0.307292" stop-color="#222656"/>
<stop offset="0.604167" stop-color="#222656"/>
<stop offset="1" stop-color="white" stop-opacity="0"/>
</linearGradient>
<linearGradient id="paint5_linear" x1="744.241" y1="13.9405" x2="744.241" y2="293.94" gradientUnits="userSpaceOnUse">
<stop stop-color="white" stop-opacity="0"/>
<stop offset="0.307292" stop-color="#222656"/>
<stop offset="0.604167" stop-color="#222656"/>
<stop offset="1" stop-color="white" stop-opacity="0"/>
</linearGradient>
<linearGradient id="paint6_linear" x1="1021.17" y1="13.9405" x2="1021.17" y2="293.94" gradientUnits="userSpaceOnUse">
<stop stop-color="white" stop-opacity="0"/>
<stop offset="0.307292" stop-color="#222656"/>
<stop offset="0.604167" stop-color="#222656"/>
<stop offset="1" stop-color="white" stop-opacity="0"/>
</linearGradient>
<linearGradient id="paint7_linear" x1="1159.11" y1="13.9405" x2="1159.11" y2="293.94" gradientUnits="userSpaceOnUse">
<stop stop-color="white" stop-opacity="0"/>
<stop offset="0.307292" stop-color="#222656"/>
<stop offset="0.604167" stop-color="#222656"/>
<stop offset="1" stop-color="white" stop-opacity="0"/>
</linearGradient>
</defs>
</svg>
