<svg width="38" height="38" viewBox="0 0 38 38" fill="none" xmlns="http://www.w3.org/2000/svg">
<mask id="path-1-inside-1" fill="white">
<path d="M19.6129 17.7739H18.387V18.9997C17.3733 18.9997 16.5483 19.8247 16.5483 20.8384C16.5483 21.8522 17.3733 22.6772 18.387 22.6772H19.6129C19.9506 22.6772 20.2258 22.9523 20.2258 23.2901C20.2258 23.6278 19.9506 23.903 19.6129 23.903H17.7741V23.2901H16.5483V25.1288H18.387V26.3546H19.6129V25.1288C20.6266 25.1288 21.4516 24.3038 21.4516 23.2901C21.4516 22.2763 20.6266 21.4513 19.6129 21.4513H18.387C18.0493 21.4513 17.7741 21.1762 17.7741 20.8384C17.7741 20.5007 18.0493 20.2255 18.387 20.2255H20.2258V20.8384H21.4516V18.9997H19.6129V17.7739Z"/>
</mask>
<path d="M19.6129 17.7739H18.387V18.9997C17.3733 18.9997 16.5483 19.8247 16.5483 20.8384C16.5483 21.8522 17.3733 22.6772 18.387 22.6772H19.6129C19.9506 22.6772 20.2258 22.9523 20.2258 23.2901C20.2258 23.6278 19.9506 23.903 19.6129 23.903H17.7741V23.2901H16.5483V25.1288H18.387V26.3546H19.6129V25.1288C20.6266 25.1288 21.4516 24.3038 21.4516 23.2901C21.4516 22.2763 20.6266 21.4513 19.6129 21.4513H18.387C18.0493 21.4513 17.7741 21.1762 17.7741 20.8384C17.7741 20.5007 18.0493 20.2255 18.387 20.2255H20.2258V20.8384H21.4516V18.9997H19.6129V17.7739Z" fill="#1357DD"/>
<path d="M19.6129 17.7739H27.6129V9.77393H19.6129V17.7739ZM18.387 17.7739V9.77393H10.387V17.7739H18.387ZM18.387 18.9997V26.9997H26.387V18.9997H18.387ZM17.7741 23.903H9.77415V31.903H17.7741V23.903ZM17.7741 23.2901H25.7741V15.2901H17.7741V23.2901ZM16.5483 23.2901V15.2901H8.54834V23.2901H16.5483ZM16.5483 25.1288H8.54834V33.1288H16.5483V25.1288ZM18.387 25.1288H26.387V17.1288H18.387V25.1288ZM18.387 26.3546H10.387V34.3546H18.387V26.3546ZM19.6129 26.3546V34.3546H27.6129V26.3546H19.6129ZM19.6129 25.1288V17.1288H11.6129V25.1288H19.6129ZM20.2258 20.2255H28.2258V12.2255H20.2258V20.2255ZM20.2258 20.8384H12.2258V28.8384H20.2258V20.8384ZM21.4516 20.8384V28.8384H29.4516V20.8384H21.4516ZM21.4516 18.9997H29.4516V10.9997H21.4516V18.9997ZM19.6129 18.9997H11.6129V26.9997H19.6129V18.9997ZM19.6129 9.77393H18.387V25.7739H19.6129V9.77393ZM10.387 17.7739V18.9997H26.387V17.7739H10.387ZM18.387 10.9997C12.955 10.9997 8.54834 15.4064 8.54834 20.8384H24.5483C24.5483 24.243 21.7916 26.9997 18.387 26.9997V10.9997ZM8.54834 20.8384C8.54834 26.2705 12.955 30.6772 18.387 30.6772V14.6772C21.7916 14.6772 24.5483 17.4339 24.5483 20.8384H8.54834ZM18.387 30.6772H19.6129V14.6772H18.387V30.6772ZM19.6129 30.6772C15.5323 30.6772 12.2258 27.3706 12.2258 23.2901H28.2258C28.2258 18.5341 24.3688 14.6772 19.6129 14.6772V30.6772ZM12.2258 23.2901C12.2258 19.2095 15.5323 15.903 19.6129 15.903V31.903C24.3688 31.903 28.2258 28.046 28.2258 23.2901H12.2258ZM19.6129 15.903H17.7741V31.903H19.6129V15.903ZM25.7741 23.903V23.2901H9.77415V23.903H25.7741ZM17.7741 15.2901H16.5483V31.2901H17.7741V15.2901ZM8.54834 23.2901V25.1288H24.5483V23.2901H8.54834ZM16.5483 33.1288H18.387V17.1288H16.5483V33.1288ZM10.387 25.1288V26.3546H26.387V25.1288H10.387ZM18.387 34.3546H19.6129V18.3546H18.387V34.3546ZM27.6129 26.3546V25.1288H11.6129V26.3546H27.6129ZM19.6129 33.1288C25.0449 33.1288 29.4516 28.7221 29.4516 23.2901H13.4516C13.4516 19.8855 16.2083 17.1288 19.6129 17.1288V33.1288ZM29.4516 23.2901C29.4516 17.858 25.0449 13.4513 19.6129 13.4513V29.4513C16.2083 29.4513 13.4516 26.6946 13.4516 23.2901H29.4516ZM19.6129 13.4513H18.387V29.4513H19.6129V13.4513ZM18.387 13.4513C22.4676 13.4513 25.7741 16.7579 25.7741 20.8384H9.77415C9.77415 25.5944 13.6311 29.4513 18.387 29.4513V13.4513ZM25.7741 20.8384C25.7741 24.919 22.4676 28.2255 18.387 28.2255V12.2255C13.6311 12.2255 9.77415 16.0825 9.77415 20.8384H25.7741ZM18.387 28.2255H20.2258V12.2255H18.387V28.2255ZM12.2258 20.2255V20.8384H28.2258V20.2255H12.2258ZM20.2258 28.8384H21.4516V12.8384H20.2258V28.8384ZM29.4516 20.8384V18.9997H13.4516V20.8384H29.4516ZM21.4516 10.9997H19.6129V26.9997H21.4516V10.9997ZM27.6129 18.9997V17.7739H11.6129V18.9997H27.6129Z" fill="#1357DD" mask="url(#path-1-inside-1)"/>
<mask id="path-3-inside-2" fill="white">
<path d="M26.9682 22.2524C26.9682 20.0086 25.9998 17.8745 24.3119 16.3974L22.1624 14.517L24.0814 8.75937L20.5934 7.88721L18.9343 10.0992L17.3499 8.51482L13.895 9.3784L15.8262 14.528L13.6896 16.3974C12.0011 17.8751 11.0327 20.0092 11.0327 22.2524C11.0327 26.5428 14.5226 30.0326 18.8129 30.0326H19.188C23.4783 30.0326 26.9682 26.5428 26.9682 22.2524ZM16.9736 9.8724L19.0667 11.9655L21.0849 9.27421L22.4995 9.62785L21.0102 14.0971H16.9736L15.5253 10.2346L16.9736 9.8724ZM19.188 28.8068H18.8129C15.1986 28.8068 12.2585 25.8667 12.2585 22.2524C12.2585 20.3622 13.0743 18.5646 14.4968 17.3198L16.7787 15.3229H21.2216L23.5041 17.3198C24.9266 18.5646 25.7424 20.3622 25.7424 22.2524C25.7424 25.8667 22.8023 28.8068 19.188 28.8068Z"/>
</mask>
<path d="M26.9682 22.2524C26.9682 20.0086 25.9998 17.8745 24.3119 16.3974L22.1624 14.517L24.0814 8.75937L20.5934 7.88721L18.9343 10.0992L17.3499 8.51482L13.895 9.3784L15.8262 14.528L13.6896 16.3974C12.0011 17.8751 11.0327 20.0092 11.0327 22.2524C11.0327 26.5428 14.5226 30.0326 18.8129 30.0326H19.188C23.4783 30.0326 26.9682 26.5428 26.9682 22.2524ZM16.9736 9.8724L19.0667 11.9655L21.0849 9.27421L22.4995 9.62785L21.0102 14.0971H16.9736L15.5253 10.2346L16.9736 9.8724ZM19.188 28.8068H18.8129C15.1986 28.8068 12.2585 25.8667 12.2585 22.2524C12.2585 20.3622 13.0743 18.5646 14.4968 17.3198L16.7787 15.3229H21.2216L23.5041 17.3198C24.9266 18.5646 25.7424 20.3622 25.7424 22.2524C25.7424 25.8667 22.8023 28.8068 19.188 28.8068Z" fill="#1357DD"/>
<path d="M24.3119 16.3974L29.5802 10.377L29.5793 10.3762L24.3119 16.3974ZM22.1624 14.517L14.5729 11.9874L12.8905 17.0349L16.895 20.5381L22.1624 14.517ZM24.0814 8.75937L31.671 11.2889L34.4024 3.09377L26.022 0.998309L24.0814 8.75937ZM20.5934 7.88721L22.534 0.126147L17.3809 -1.16236L14.1936 3.08692L20.5934 7.88721ZM18.9343 10.0992L13.2774 15.756L19.7995 22.2781L25.3341 14.8995L18.9343 10.0992ZM17.3499 8.51482L23.0068 2.85796L19.8041 -0.344734L15.4099 0.753599L17.3499 8.51482ZM13.895 9.3784L11.955 1.61718L3.25568 3.79163L6.40441 12.1876L13.895 9.3784ZM15.8262 14.528L21.094 20.5488L25.261 16.903L23.3168 11.7188L15.8262 14.528ZM13.6896 16.3974L8.42186 10.3765L8.42115 10.3772L13.6896 16.3974ZM16.9736 9.8724L22.6304 4.21554L19.4272 1.01232L15.0325 2.11145L16.9736 9.8724ZM19.0667 11.9655L13.4098 17.6223L19.9324 24.145L25.4668 16.7652L19.0667 11.9655ZM21.0849 9.27421L23.0252 1.51307L17.8718 0.224715L14.6848 4.47444L21.0849 9.27421ZM22.4995 9.62785L30.0892 12.1571L32.8202 3.96181L24.4398 1.86671L22.4995 9.62785ZM21.0102 14.0971V22.0971H26.7767L28.5998 16.6263L21.0102 14.0971ZM16.9736 14.0971L9.48286 16.9059L11.4294 22.0971H16.9736V14.0971ZM15.5253 10.2346L13.5842 2.47368L4.88698 4.64891L8.03456 13.0434L15.5253 10.2346ZM14.4968 17.3198L19.7651 23.3402L19.7652 23.3401L14.4968 17.3198ZM16.7787 15.3229V7.32295H13.7725L11.5103 9.30263L16.7787 15.3229ZM21.2216 15.3229L26.4892 9.30193L24.2272 7.32295H21.2216V15.3229ZM23.5041 17.3198L28.7723 11.2993L28.7716 11.2988L23.5041 17.3198ZM34.9682 22.2524C34.9682 17.7022 33.0044 13.3734 29.5802 10.377L19.0435 22.4177C18.9953 22.3755 18.9682 22.315 18.9682 22.2524H34.9682ZM29.5793 10.3762L27.4299 8.49584L16.895 20.5381L19.0444 22.4185L29.5793 10.3762ZM29.752 17.0466L31.671 11.2889L16.4919 6.22979L14.5729 11.9874L29.752 17.0466ZM26.022 0.998309L22.534 0.126147L18.6528 15.6483L22.1408 16.5204L26.022 0.998309ZM14.1936 3.08692L12.5345 5.29889L25.3341 14.8995L26.9932 12.6875L14.1936 3.08692ZM24.5911 4.44232L23.0068 2.85796L11.6931 14.1717L13.2774 15.756L24.5911 4.44232ZM15.4099 0.753599L11.955 1.61718L15.8349 17.1396L19.2899 16.276L15.4099 0.753599ZM6.40441 12.1876L8.33567 17.3372L23.3168 11.7188L21.3855 6.56922L6.40441 12.1876ZM10.5584 8.50719L8.42186 10.3765L18.9574 22.4182L21.094 20.5488L10.5584 8.50719ZM8.42115 10.3772C4.99717 13.3736 3.03271 17.702 3.03271 22.2524H19.0327C19.0327 22.3164 19.005 22.3765 18.9582 22.4176L8.42115 10.3772ZM3.03271 22.2524C3.03271 30.961 10.1043 38.0326 18.8129 38.0326V22.0326C18.8338 22.0326 18.8711 22.0384 18.908 22.0541C18.9395 22.0674 18.9589 22.0826 18.9708 22.0945C18.9827 22.1065 18.9979 22.1258 19.0113 22.1573C19.0269 22.1943 19.0327 22.2315 19.0327 22.2524H3.03271ZM18.8129 38.0326H19.188V22.0326H18.8129V38.0326ZM19.188 38.0326C27.8966 38.0326 34.9682 30.961 34.9682 22.2524H18.9682C18.9682 22.2315 18.974 22.1943 18.9897 22.1573C19.003 22.1258 19.0182 22.1065 19.0301 22.0945C19.042 22.0826 19.0614 22.0674 19.0929 22.0541C19.1299 22.0384 19.1671 22.0326 19.188 22.0326V38.0326ZM11.3167 15.5293L13.4098 17.6223L24.7235 6.30861L22.6304 4.21554L11.3167 15.5293ZM25.4668 16.7652L27.4851 14.074L14.6848 4.47444L12.6665 7.1657L25.4668 16.7652ZM19.1447 17.0353L20.5592 17.389L24.4398 1.86671L23.0252 1.51307L19.1447 17.0353ZM14.9098 7.09865L13.4205 11.5679L28.5998 16.6263L30.0892 12.1571L14.9098 7.09865ZM21.0102 6.09714H16.9736V22.0971H21.0102V6.09714ZM24.4643 11.2884L23.016 7.4259L8.03456 13.0434L9.48286 16.9059L24.4643 11.2884ZM17.4664 17.9956L18.9146 17.6333L15.0325 2.11145L13.5842 2.47368L17.4664 17.9956ZM19.188 20.8068H18.8129V36.8068H19.188V20.8068ZM18.8129 20.8068C19.6169 20.8068 20.2585 21.4484 20.2585 22.2524H4.25852C4.25852 30.285 10.7803 36.8068 18.8129 36.8068V20.8068ZM20.2585 22.2524C20.2585 22.6694 20.0783 23.0662 19.7651 23.3402L9.22862 11.2993C6.07031 14.063 4.25852 18.0551 4.25852 22.2524H20.2585ZM19.7652 23.3401L22.0471 21.3433L11.5103 9.30263L9.22846 11.2995L19.7652 23.3401ZM16.7787 23.3229H21.2216V7.32295H16.7787V23.3229ZM15.954 21.344L18.2365 23.3408L28.7716 11.2988L26.4892 9.30193L15.954 21.344ZM18.2358 23.3402C17.9226 23.0662 17.7424 22.6694 17.7424 22.2524H33.7424C33.7424 18.0551 31.9306 14.063 28.7723 11.2993L18.2358 23.3402ZM17.7424 22.2524C17.7424 21.4484 18.384 20.8068 19.188 20.8068V36.8068C27.2206 36.8068 33.7424 30.285 33.7424 22.2524H17.7424Z" fill="#1357DD" mask="url(#path-3-inside-2)"/>
<mask id="path-5-inside-3" fill="white">
<path d="M6.14702 17.8294C6.70721 11.6207 11.6196 6.7077 17.829 6.14751L18.3867 6.09725V1.18115L17.7309 1.22773C8.94308 1.8486 1.84812 8.94357 1.22663 17.7314L1.18066 18.3872H6.09676L6.14702 17.8294ZM12.436 6.48889C12.0744 6.67828 11.7232 6.88422 11.3812 7.10302L10.0279 5.07738C10.5029 4.7697 10.9914 4.48164 11.4977 4.22299L12.436 6.48889ZM12.6107 3.70815C13.1396 3.48506 13.6784 3.2828 14.2331 3.11486L14.7142 5.53522C14.3164 5.66148 13.9272 5.80612 13.546 5.96548L12.6107 3.70815ZM10.3785 7.80909C10.0586 8.05548 9.75089 8.31473 9.45363 8.58748L7.7326 6.86644C8.14447 6.48338 8.57412 6.12054 9.02276 5.78038L10.3785 7.80909ZM8.58699 9.45412C8.31486 9.75077 8.05499 10.0591 7.8086 10.3784L5.77989 9.02264C6.12005 8.57399 6.48289 8.14435 6.86534 7.73248L8.58699 9.45412ZM7.10254 11.3811C6.88312 11.7231 6.67779 12.0743 6.48841 12.4365L4.2225 11.4975C4.48176 10.9913 4.76921 10.5028 5.0775 10.0278L7.10254 11.3811ZM5.96499 13.5465C5.80563 13.9283 5.66037 14.3169 5.53473 14.7147L3.11437 14.2335C3.2817 13.6789 3.48457 13.1401 3.70766 12.6112L5.96499 13.5465ZM17.1609 4.98789C16.7337 5.04367 16.3145 5.12089 15.9002 5.21344L15.4221 2.80964C15.9927 2.68277 16.5707 2.57551 17.1609 2.50993V4.98789ZM2.50944 17.1614C2.57502 16.5712 2.68228 15.9932 2.80915 15.4226L5.21357 15.9006C5.12041 16.3143 5.04318 16.7342 4.98741 17.1614H2.50944Z"/>
</mask>
<path d="M6.14702 17.8294C6.70721 11.6207 11.6196 6.7077 17.829 6.14751L18.3867 6.09725V1.18115L17.7309 1.22773C8.94308 1.8486 1.84812 8.94357 1.22663 17.7314L1.18066 18.3872H6.09676L6.14702 17.8294ZM12.436 6.48889C12.0744 6.67828 11.7232 6.88422 11.3812 7.10302L10.0279 5.07738C10.5029 4.7697 10.9914 4.48164 11.4977 4.22299L12.436 6.48889ZM12.6107 3.70815C13.1396 3.48506 13.6784 3.2828 14.2331 3.11486L14.7142 5.53522C14.3164 5.66148 13.9272 5.80612 13.546 5.96548L12.6107 3.70815ZM10.3785 7.80909C10.0586 8.05548 9.75089 8.31473 9.45363 8.58748L7.7326 6.86644C8.14447 6.48338 8.57412 6.12054 9.02276 5.78038L10.3785 7.80909ZM8.58699 9.45412C8.31486 9.75077 8.05499 10.0591 7.8086 10.3784L5.77989 9.02264C6.12005 8.57399 6.48289 8.14435 6.86534 7.73248L8.58699 9.45412ZM7.10254 11.3811C6.88312 11.7231 6.67779 12.0743 6.48841 12.4365L4.2225 11.4975C4.48176 10.9913 4.76921 10.5028 5.0775 10.0278L7.10254 11.3811ZM5.96499 13.5465C5.80563 13.9283 5.66037 14.3169 5.53473 14.7147L3.11437 14.2335C3.2817 13.6789 3.48457 13.1401 3.70766 12.6112L5.96499 13.5465ZM17.1609 4.98789C16.7337 5.04367 16.3145 5.12089 15.9002 5.21344L15.4221 2.80964C15.9927 2.68277 16.5707 2.57551 17.1609 2.50993V4.98789ZM2.50944 17.1614C2.57502 16.5712 2.68228 15.9932 2.80915 15.4226L5.21357 15.9006C5.12041 16.3143 5.04318 16.7342 4.98741 17.1614H2.50944Z" fill="#1357DD"/>
<path d="M6.14702 17.8294L-1.82061 17.1105L-1.8207 17.1115L6.14702 17.8294ZM17.829 6.14751L17.111 -1.82021L17.1101 -1.82013L17.829 6.14751ZM18.3867 6.09725L19.1047 14.065L26.3867 13.4088V6.09725H18.3867ZM18.3867 1.18115H26.3867V-7.40723L17.8199 -6.79874L18.3867 1.18115ZM17.7309 1.22773L18.2947 9.20784L18.2977 9.20763L17.7309 1.22773ZM1.22663 17.7314L-6.75344 17.167L-6.75379 17.172L1.22663 17.7314ZM1.18066 18.3872L-6.79976 17.8278L-7.39971 26.3872H1.18066V18.3872ZM6.09676 18.3872V26.3872H13.4083L14.0645 19.1052L6.09676 18.3872ZM12.436 6.48889L16.1476 13.5758L22.6249 10.1835L19.8273 3.42802L12.436 6.48889ZM11.3812 7.10302L4.72915 11.5471L9.08604 18.0686L15.6926 13.8419L11.3812 7.10302ZM10.0279 5.07738L5.67868 -1.63709L-1.13177 2.77433L3.37586 9.52148L10.0279 5.07738ZM11.4977 4.22299L18.8889 1.16212L15.5738 -6.8431L7.85799 -2.90111L11.4977 4.22299ZM12.6107 3.70815L9.50166 -3.663L2.1771 -0.573612L5.21998 6.77039L12.6107 3.70815ZM14.2331 3.11486L22.0795 1.55511L20.3593 -7.09856L11.9149 -4.5419L14.2331 3.11486ZM14.7142 5.53522L17.1345 13.1603L23.956 10.9951L22.5607 3.97546L14.7142 5.53522ZM13.546 5.96548L6.15527 9.02771L9.22711 16.4416L16.6313 13.3466L13.546 5.96548ZM10.3785 7.80909L15.2597 14.1474L21.1861 9.58333L17.03 3.36407L10.3785 7.80909ZM9.45363 8.58748L3.79678 14.2443L9.21556 19.6631L14.8622 14.4822L9.45363 8.58748ZM7.7326 6.86644L2.28431 1.00844L-3.78981 6.65774L2.07575 12.5233L7.7326 6.86644ZM9.02276 5.78038L15.6742 1.33536L10.956 -5.72488L4.18939 -0.594453L9.02276 5.78038ZM8.58699 9.45412L14.4822 14.8621L19.6621 9.21554L14.2438 3.79727L8.58699 9.45412ZM7.8086 10.3784L3.36358 17.0298L9.57707 21.1822L14.1424 15.2655L7.8086 10.3784ZM5.77989 9.02264L-0.594941 4.18926L-5.72537 10.9559L1.33487 15.6741L5.77989 9.02264ZM6.86534 7.73248L12.5222 2.07562L6.65195 -3.79462L1.00299 2.28887L6.86534 7.73248ZM7.10254 11.3811L13.8359 15.701L18.0759 9.09238L11.5476 4.72965L7.10254 11.3811ZM6.48841 12.4365L3.42583 19.8271L10.1869 22.6288L13.5779 16.1432L6.48841 12.4365ZM4.2225 11.4975L-2.8981 7.85103L-6.85038 15.5687L1.15992 18.8881L4.2225 11.4975ZM5.0775 10.0278L9.52254 3.37636L2.78119 -1.12875L-1.63301 5.67246L5.0775 10.0278ZM5.96499 13.5465L13.3478 16.6276L16.4369 9.22584L9.02723 6.15576L5.96499 13.5465ZM5.53473 14.7147L3.97497 22.5611L11.0045 23.9585L13.1632 17.1243L5.53473 14.7147ZM3.11437 14.2335L-4.54473 11.9231L-7.09025 20.3615L1.55462 22.08L3.11437 14.2335ZM3.70766 12.6112L6.7699 5.22047L-0.5741 2.17758L-3.66349 9.50215L3.70766 12.6112ZM17.1609 4.98789L18.1966 12.9206L25.1609 12.0113V4.98789H17.1609ZM15.9002 5.21344L8.05382 6.77391L9.65131 14.8064L17.6442 13.021L15.9002 5.21344ZM15.4221 2.80964L13.6858 -4.99966L6.04996 -3.30191L7.57575 4.3701L15.4221 2.80964ZM17.1609 2.50993H25.1609V-6.42819L16.2774 -5.44114L17.1609 2.50993ZM2.50944 17.1614L-5.44163 16.2779L-6.42868 25.1614H2.50944V17.1614ZM2.80915 15.4226L4.36923 7.57616L-3.30248 6.05082L-5.00015 13.6862L2.80915 15.4226ZM5.21357 15.9006L13.0181 17.6581L14.8205 9.65417L6.77365 8.05423L5.21357 15.9006ZM4.98741 17.1614V25.1614H12.0108L12.9201 18.1971L4.98741 17.1614ZM14.1147 18.5483C14.3275 16.1896 16.1891 14.3279 18.5478 14.1151L17.1101 -1.82013C7.05016 -0.91254 -0.913045 7.05182 -1.82061 17.1105L14.1147 18.5483ZM18.5469 14.1152L19.1047 14.065L17.6687 -1.87047L17.111 -1.82021L18.5469 14.1152ZM26.3867 6.09725V1.18115H10.3867V6.09725H26.3867ZM17.8199 -6.79874L17.1641 -6.75216L18.2977 9.20763L18.9535 9.16105L17.8199 -6.79874ZM17.1671 -6.75238C4.40537 -5.85074 -5.85096 4.40593 -6.75344 17.167L9.2067 18.2957C9.54719 13.4812 13.4808 9.54795 18.2947 9.20784L17.1671 -6.75238ZM-6.75379 17.172L-6.79976 17.8278L9.16108 18.9466L9.20705 18.2908L-6.75379 17.172ZM1.18066 26.3872H6.09676V10.3872H1.18066V26.3872ZM14.0645 19.1052L14.1147 18.5474L-1.8207 17.1115L-1.87096 17.6692L14.0645 19.1052ZM8.72441 -0.597993C8.13752 -0.29062 7.58619 0.0338219 7.06981 0.364195L15.6926 13.8419C15.8602 13.7346 16.0113 13.6472 16.1476 13.5758L8.72441 -0.597993ZM18.0333 2.65892L16.68 0.633276L3.37586 9.52148L4.72915 11.5471L18.0333 2.65892ZM14.3772 11.7918C14.6657 11.605 14.916 11.4602 15.1373 11.3471L7.85799 -2.90111C7.06678 -2.49688 6.34019 -2.06558 5.67868 -1.63709L14.3772 11.7918ZM4.10638 7.28387L5.04474 9.54977L19.8273 3.42802L18.8889 1.16212L4.10638 7.28387ZM15.7197 11.0793C16.0544 10.9381 16.3243 10.8403 16.5512 10.7716L11.9149 -4.5419C11.0325 -4.27474 10.2248 -3.96802 9.50166 -3.663L15.7197 11.0793ZM6.38658 4.67462L6.86771 7.09497L22.5607 3.97546L22.0795 1.55511L6.38658 4.67462ZM12.2939 -2.08988C11.6512 -1.88588 11.0398 -1.65773 10.4606 -1.41562L16.6313 13.3466C16.8146 13.27 16.9816 13.2088 17.1345 13.1603L12.2939 -2.08988ZM20.9367 2.90324L20.0014 0.645913L5.21998 6.77039L6.15527 9.02771L20.9367 2.90324ZM5.4973 1.47081C4.99174 1.86014 4.50833 2.26772 4.04508 2.69277L14.8622 14.4822C14.9934 14.3617 15.1254 14.2508 15.2597 14.1474L5.4973 1.47081ZM15.1105 2.93062L13.3895 1.20959L2.07575 12.5233L3.79678 14.2443L15.1105 2.93062ZM13.1809 12.7244C13.4058 12.5153 13.6308 12.3261 13.8561 12.1552L4.18939 -0.594453C3.51748 -0.085016 2.88319 0.451455 2.28431 1.00844L13.1809 12.7244ZM2.37131 10.2254L3.72705 12.2541L17.03 3.36407L15.6742 1.33536L2.37131 10.2254ZM2.69178 4.04612C2.26828 4.50777 1.86187 4.9897 1.47485 5.4913L14.1424 15.2655C14.2481 15.1284 14.3614 14.9938 14.4822 14.8621L2.69178 4.04612ZM12.2536 3.72693L10.2249 2.37119L1.33487 15.6741L3.36358 17.0298L12.2536 3.72693ZM12.1547 13.856C12.3257 13.6305 12.5161 13.4039 12.7277 13.1761L1.00299 2.28887C0.44964 2.88479 -0.0855914 3.51747 -0.594941 4.18926L12.1547 13.856ZM1.20849 13.3893L2.93013 15.111L14.2438 3.79727L12.5222 2.07562L1.20849 13.3893ZM0.36919 7.06113C0.0303293 7.5893 -0.295214 8.14486 -0.601061 8.72983L13.5779 16.1432C13.6508 16.0037 13.7359 15.8569 13.8359 15.701L0.36919 7.06113ZM9.55099 5.04593L7.28508 4.10697L1.15992 18.8881L3.42583 19.8271L9.55099 5.04593ZM11.3431 15.144C11.4608 14.9143 11.6065 14.6628 11.788 14.3831L-1.63301 5.67246C-2.06808 6.34279 -2.49723 7.06826 -2.8981 7.85103L11.3431 15.144ZM0.632471 16.6792L2.6575 18.0325L11.5476 4.72965L9.52254 3.37636L0.632471 16.6792ZM-1.41787 10.4653C-1.65435 11.032 -1.88563 11.6462 -2.09375 12.3051L13.1632 17.1243C13.2064 16.9876 13.2656 16.8246 13.3478 16.6276L-1.41787 10.4653ZM7.09449 6.8682L4.67413 6.38707L1.55462 22.08L3.97497 22.5611L7.09449 6.8682ZM10.7735 16.544C10.8391 16.3265 10.9352 16.0608 11.0788 15.7202L-3.66349 9.50215C-3.96605 10.2195 -4.27568 11.0312 -4.54473 11.9231L10.7735 16.544ZM0.645425 20.0019L2.90275 20.9372L9.02723 6.15576L6.7699 5.22047L0.645425 20.0019ZM16.1252 -2.94478C15.4244 -2.85328 14.7665 -2.73048 14.1561 -2.59415L17.6442 13.021C17.8624 12.9723 18.043 12.9406 18.1966 12.9206L16.1252 -2.94478ZM23.7465 3.65298L23.2684 1.24917L7.57575 4.3701L8.05382 6.77391L23.7465 3.65298ZM17.1584 10.6189C17.5512 10.5316 17.8298 10.4848 18.0443 10.461L16.2774 -5.44114C15.3115 -5.33382 14.4342 -5.16607 13.6858 -4.99966L17.1584 10.6189ZM9.16089 2.50993V4.98789H25.1609V2.50993H9.16089ZM10.4605 18.0448C10.4843 17.8303 10.5311 17.5517 10.6184 17.1589L-5.00015 13.6862C-5.16656 14.4347 -5.3343 15.312 -5.44163 16.2779L10.4605 18.0448ZM1.24907 23.269L3.65348 23.747L6.77365 8.05423L4.36923 7.57616L1.24907 23.269ZM-2.591 14.1432C-2.73074 14.7637 -2.85391 15.4259 -2.94527 16.1257L12.9201 18.1971C12.9403 18.0425 12.9716 17.865 13.0181 17.6581L-2.591 14.1432ZM4.98741 9.16138H2.50944V25.1614H4.98741V9.16138Z" fill="#1357DD" mask="url(#path-5-inside-3)"/>
<mask id="path-7-inside-4" fill="white">
<path d="M31.8525 20.1705C31.2923 26.3792 26.3799 31.2923 20.1705 31.8525L19.6128 31.9027V36.8188L20.2686 36.7722C29.0564 36.1514 36.1514 29.0564 36.7722 20.2686L36.8188 19.6128H31.9027L31.8525 20.1705ZM35.4901 20.8386C34.64 28.4987 28.4987 34.64 20.8386 35.4901V33.0121C27.1871 32.1871 32.1871 27.1871 33.0121 20.8386H35.4901Z"/>
</mask>
<path d="M31.8525 20.1705C31.2923 26.3792 26.3799 31.2923 20.1705 31.8525L19.6128 31.9027V36.8188L20.2686 36.7722C29.0564 36.1514 36.1514 29.0564 36.7722 20.2686L36.8188 19.6128H31.9027L31.8525 20.1705ZM35.4901 20.8386C34.64 28.4987 28.4987 34.64 20.8386 35.4901V33.0121C27.1871 32.1871 32.1871 27.1871 33.0121 20.8386H35.4901Z" fill="#1357DD"/>
<path d="M31.8525 20.1705L39.8201 20.8894L39.8202 20.8885L31.8525 20.1705ZM20.1705 31.8525L20.8885 39.8202L20.8894 39.8201L20.1705 31.8525ZM19.6128 31.9027L18.8948 23.935L11.6128 24.5912V31.9027H19.6128ZM19.6128 36.8188H11.6128V45.4072L20.1796 44.7987L19.6128 36.8188ZM20.2686 36.7722L19.7048 28.7921L19.7018 28.7924L20.2686 36.7722ZM36.7722 20.2686L28.7924 19.7018L28.7921 19.7048L36.7722 20.2686ZM36.8188 19.6128L44.7987 20.1796L45.4072 11.6128H36.8188V19.6128ZM31.9027 19.6128V11.6128H24.5912L23.935 18.8948L31.9027 19.6128ZM35.4901 20.8386L43.4412 21.721L44.427 12.8386H35.4901V20.8386ZM20.8386 35.4901H12.8386V44.427L21.721 43.4412L20.8386 35.4901ZM20.8386 33.0121L19.8077 25.0788L12.8386 25.9844V33.0121H20.8386ZM33.0121 20.8386V12.8386H25.9844L25.0788 19.8077L33.0121 20.8386ZM23.8848 19.4516C23.672 21.8103 21.8104 23.672 19.4517 23.8848L20.8894 39.8201C30.9493 38.9125 38.9125 30.9482 39.8201 20.8894L23.8848 19.4516ZM19.4526 23.8848L18.8948 23.935L20.3307 39.8704L20.8885 39.8202L19.4526 23.8848ZM11.6128 31.9027V36.8188H27.6128V31.9027H11.6128ZM20.1796 44.7987L20.8354 44.7521L19.7018 28.7924L19.046 28.8389L20.1796 44.7987ZM20.8324 44.7524C33.594 43.8507 43.8507 33.594 44.7524 20.8324L28.7921 19.7048C28.452 24.5188 24.5188 28.452 19.7048 28.7921L20.8324 44.7524ZM44.7521 20.8354L44.7987 20.1796L28.8389 19.046L28.7924 19.7018L44.7521 20.8354ZM36.8188 11.6128H31.9027V27.6128H36.8188V11.6128ZM23.935 18.8948L23.8848 19.4526L39.8202 20.8885L39.8704 20.3307L23.935 18.8948ZM27.5389 19.9562C27.1016 23.8966 23.8966 27.1016 19.9562 27.5389L21.721 43.4412C33.1007 42.1783 42.1783 33.1007 43.4412 21.721L27.5389 19.9562ZM28.8386 35.4901V33.0121H12.8386V35.4901H28.8386ZM21.8695 40.9454C31.8185 39.6525 39.6525 31.8185 40.9454 21.8695L25.0788 19.8077C24.7217 22.5556 22.5556 24.7217 19.8077 25.0788L21.8695 40.9454ZM33.0121 28.8386H35.4901V12.8386H33.0121V28.8386Z" fill="#1357DD" mask="url(#path-7-inside-4)"/>
<mask id="path-9-inside-5" fill="white">
<path d="M6.14742 20.1705L6.09716 19.6128H1.18106L1.22765 20.2686C1.59845 25.5144 4.27745 30.156 8.24539 33.1788L5.87529 35.5483H3.56465C3.3109 34.8367 2.63671 34.3225 1.83871 34.3225C0.824968 34.3225 0 35.1474 0 36.1612C0 37.1749 0.824968 37.9999 1.83871 37.9999C2.63671 37.9999 3.3109 37.4857 3.56465 36.7741H6.38277L9.26097 33.8959C11.7328 35.5219 14.6251 36.5528 17.7313 36.7722L18.3871 36.8188V31.9027L17.8294 31.8525C11.62 31.2923 6.70761 26.3799 6.14742 20.1705ZM1.83871 36.7741C1.501 36.7741 1.22581 36.4989 1.22581 36.1612C1.22581 35.8235 1.501 35.5483 1.83871 35.5483C2.17642 35.5483 2.45161 35.8235 2.45161 36.1612C2.45161 36.4989 2.17642 36.7741 1.83871 36.7741ZM17.1613 35.4901C9.50123 34.64 3.35994 28.4987 2.50984 20.8386H4.98781C5.81277 27.1871 10.8128 32.1871 17.1613 33.0121V35.4901Z"/>
</mask>
<path d="M6.14742 20.1705L6.09716 19.6128H1.18106L1.22765 20.2686C1.59845 25.5144 4.27745 30.156 8.24539 33.1788L5.87529 35.5483H3.56465C3.3109 34.8367 2.63671 34.3225 1.83871 34.3225C0.824968 34.3225 0 35.1474 0 36.1612C0 37.1749 0.824968 37.9999 1.83871 37.9999C2.63671 37.9999 3.3109 37.4857 3.56465 36.7741H6.38277L9.26097 33.8959C11.7328 35.5219 14.6251 36.5528 17.7313 36.7722L18.3871 36.8188V31.9027L17.8294 31.8525C11.62 31.2923 6.70761 26.3799 6.14742 20.1705ZM1.83871 36.7741C1.501 36.7741 1.22581 36.4989 1.22581 36.1612C1.22581 35.8235 1.501 35.5483 1.83871 35.5483C2.17642 35.5483 2.45161 35.8235 2.45161 36.1612C2.45161 36.4989 2.17642 36.7741 1.83871 36.7741ZM17.1613 35.4901C9.50123 34.64 3.35994 28.4987 2.50984 20.8386H4.98781C5.81277 27.1871 10.8128 32.1871 17.1613 33.0121V35.4901Z" fill="#1357DD"/>
<path d="M6.09716 19.6128L14.0649 18.8948L13.4087 11.6128H6.09716V19.6128ZM1.18106 19.6128V11.6128H-7.40731L-6.79883 20.1796L1.18106 19.6128ZM1.22765 20.2686L9.20773 19.7045L9.20754 19.7018L1.22765 20.2686ZM8.24539 33.1788L13.9015 38.8364L20.3763 32.3633L13.0934 26.8151L8.24539 33.1788ZM5.87529 35.5483V43.5483H9.18839L11.5314 41.2059L5.87529 35.5483ZM3.56465 35.5483L-3.97061 38.2353L-2.07605 43.5483H3.56465V35.5483ZM3.56465 36.7741V28.7741H-2.07605L-3.97061 34.0871L3.56465 36.7741ZM6.38277 36.7741V44.7741H9.69648L12.0396 42.4309L6.38277 36.7741ZM9.26097 33.8959L13.6576 27.2123L8.21263 23.6305L3.60412 28.239L9.26097 33.8959ZM17.7313 36.7722L18.2981 28.7923L18.295 28.7921L17.7313 36.7722ZM18.3871 36.8188L17.8203 44.7987L26.3871 45.4072V36.8188H18.3871ZM18.3871 31.9027H26.3871V24.5912L19.105 23.935L18.3871 31.9027ZM17.8294 31.8525L17.1105 39.8201L17.1114 39.8202L17.8294 31.8525ZM17.1613 35.4901L16.2789 43.4412L25.1613 44.427V35.4901H17.1613ZM2.50984 20.8386V12.8386H-6.4271L-5.44135 21.721L2.50984 20.8386ZM4.98781 20.8386L12.9211 19.8077L12.0155 12.8386H4.98781V20.8386ZM17.1613 33.0121H25.1613V25.9844L18.1922 25.0788L17.1613 33.0121ZM14.1151 19.4526L14.0649 18.8948L-1.87056 20.3308L-1.8203 20.8885L14.1151 19.4526ZM6.09716 11.6128H1.18106V27.6128H6.09716V11.6128ZM-6.79883 20.1796L-6.75225 20.8354L9.20754 19.7018L9.16096 19.046L-6.79883 20.1796ZM-6.75244 20.8327C-6.21171 28.4825 -2.30948 35.1949 3.3974 39.5425L13.0934 26.8151C10.8644 25.117 9.40861 22.5464 9.20773 19.7045L-6.75244 20.8327ZM2.58926 27.5212L0.219167 29.8907L11.5314 41.2059L13.9015 38.8364L2.58926 27.5212ZM5.87529 27.5483H3.56465V43.5483H5.87529V27.5483ZM11.0999 32.8613C9.76834 29.1271 6.18921 26.3225 1.83871 26.3225V42.3225C-0.915787 42.3225 -3.14653 40.5463 -3.97061 38.2353L11.0999 32.8613ZM1.83871 26.3225C-3.59331 26.3225 -8 30.7292 -8 36.1612H8C8 39.5657 5.24325 42.3225 1.83871 42.3225V26.3225ZM-8 36.1612C-8 41.5932 -3.59331 45.9999 1.83871 45.9999V29.9999C5.24325 29.9999 8 32.7566 8 36.1612H-8ZM1.83871 45.9999C6.18921 45.9999 9.76834 43.1952 11.0999 39.4611L-3.97061 34.0871C-3.14653 31.7761 -0.915787 29.9999 1.83871 29.9999V45.9999ZM3.56465 44.7741H6.38277V28.7741H3.56465V44.7741ZM12.0396 42.4309L14.9178 39.5527L3.60412 28.239L0.725921 31.1172L12.0396 42.4309ZM4.86437 40.5794C8.435 42.9283 12.6391 44.4325 17.1676 44.7524L18.295 28.7921C16.611 28.6732 15.0306 28.1156 13.6576 27.2123L4.86437 40.5794ZM17.1645 44.7521L17.8203 44.7987L18.9539 28.8389L18.2981 28.7923L17.1645 44.7521ZM26.3871 36.8188V31.9027H10.3871V36.8188H26.3871ZM19.105 23.935L18.5473 23.8848L17.1114 39.8202L17.6692 39.8704L19.105 23.935ZM18.5482 23.8848C16.1892 23.672 14.3279 21.8107 14.1151 19.4517L-1.82022 20.8894C-0.912655 30.949 7.05084 38.9125 17.1105 39.8201L18.5482 23.8848ZM1.83871 28.7741C5.91928 28.7741 9.22581 32.0806 9.22581 36.1612H-6.77419C-6.77419 40.9172 -2.91728 44.7741 1.83871 44.7741V28.7741ZM9.22581 36.1612C9.22581 40.2417 5.91928 43.5483 1.83871 43.5483V27.5483C-2.91728 27.5483 -6.77419 31.4052 -6.77419 36.1612H9.22581ZM1.83871 43.5483C-2.24186 43.5483 -5.54839 40.2417 -5.54839 36.1612H10.4516C10.4516 31.4052 6.5947 27.5483 1.83871 27.5483V43.5483ZM-5.54839 36.1612C-5.54839 32.0806 -2.24186 28.7741 1.83871 28.7741V44.7741C6.5947 44.7741 10.4516 40.9172 10.4516 36.1612H-5.54839ZM18.0437 27.5389C14.1032 27.1016 10.8983 23.8966 10.461 19.9562L-5.44135 21.721C-4.17846 33.1007 4.8992 42.1783 16.2789 43.4412L18.0437 27.5389ZM2.50984 28.8386H4.98781V12.8386H2.50984V28.8386ZM-2.94549 21.8695C-1.65264 31.8185 6.18138 39.6525 16.1304 40.9454L18.1922 25.0788C15.4443 24.7217 13.2782 22.5556 12.9211 19.8077L-2.94549 21.8695ZM9.16129 33.0121V35.4901H25.1613V33.0121H9.16129Z" fill="#1357DD" mask="url(#path-9-inside-5)"/>
<mask id="path-11-inside-6" fill="white">
<path d="M34.4352 2.45161C34.689 3.16319 35.3632 3.67742 36.1612 3.67742C37.1749 3.67742 37.9999 2.85245 37.9999 1.83871C37.9999 0.824968 37.1749 0 36.1612 0C35.3632 0 34.689 0.514226 34.4352 1.22581H31.6171L28.7389 4.104C26.2671 2.47797 23.3748 1.44706 20.2686 1.22765L19.6128 1.18106V6.09716L20.1705 6.14742C26.3792 6.70761 31.2923 11.62 31.8525 17.8294L31.9027 18.3871H36.8188L36.7722 17.7313C36.4014 12.4855 33.7224 7.84394 29.7545 4.8211L32.1246 2.45161H34.4352ZM36.1612 1.22581C36.4989 1.22581 36.7741 1.501 36.7741 1.83871C36.7741 2.17642 36.4989 2.45161 36.1612 2.45161C35.8235 2.45161 35.5483 2.17642 35.5483 1.83871C35.5483 1.501 35.8235 1.22581 36.1612 1.22581ZM35.4901 17.1613H33.0121C32.1871 10.8128 27.1871 5.81277 20.8386 4.98781V2.50984C28.4987 3.35994 34.64 9.50123 35.4901 17.1613Z"/>
</mask>
<path d="M34.4352 2.45161C34.689 3.16319 35.3632 3.67742 36.1612 3.67742C37.1749 3.67742 37.9999 2.85245 37.9999 1.83871C37.9999 0.824968 37.1749 0 36.1612 0C35.3632 0 34.689 0.514226 34.4352 1.22581H31.6171L28.7389 4.104C26.2671 2.47797 23.3748 1.44706 20.2686 1.22765L19.6128 1.18106V6.09716L20.1705 6.14742C26.3792 6.70761 31.2923 11.62 31.8525 17.8294L31.9027 18.3871H36.8188L36.7722 17.7313C36.4014 12.4855 33.7224 7.84394 29.7545 4.8211L32.1246 2.45161H34.4352ZM36.1612 1.22581C36.4989 1.22581 36.7741 1.501 36.7741 1.83871C36.7741 2.17642 36.4989 2.45161 36.1612 2.45161C35.8235 2.45161 35.5483 2.17642 35.5483 1.83871C35.5483 1.501 35.8235 1.22581 36.1612 1.22581ZM35.4901 17.1613H33.0121C32.1871 10.8128 27.1871 5.81277 20.8386 4.98781V2.50984C28.4987 3.35994 34.64 9.50123 35.4901 17.1613Z" fill="#1357DD"/>
<path d="M34.4352 2.45161L41.9705 -0.235378L40.0759 -5.54839H34.4352V2.45161ZM34.4352 1.22581V9.22581H40.0759L41.9705 3.9128L34.4352 1.22581ZM31.6171 1.22581V-6.77419H28.3034L25.9603 -4.43105L31.6171 1.22581ZM28.7389 4.104L24.3423 10.7876L29.7873 14.3694L34.3958 9.76085L28.7389 4.104ZM20.2686 1.22765L19.7018 9.20754L19.7049 9.20776L20.2686 1.22765ZM19.6128 1.18106L20.1796 -6.79883L11.6128 -7.40731V1.18106H19.6128ZM19.6128 6.09716H11.6128V13.4087L18.8948 14.0649L19.6128 6.09716ZM20.1705 6.14742L20.8894 -1.82021L20.8885 -1.8203L20.1705 6.14742ZM31.8525 17.8294L39.8202 17.1114L39.8201 17.1105L31.8525 17.8294ZM31.9027 18.3871L23.935 19.105L24.5912 26.3871H31.9027V18.3871ZM36.8188 18.3871V26.3871H45.4072L44.7987 17.8203L36.8188 18.3871ZM36.7722 17.7313L28.7922 18.2954L28.7923 18.2981L36.7722 17.7313ZM29.7545 4.8211L24.0984 -0.836489L17.6236 5.63659L24.9065 11.1848L29.7545 4.8211ZM32.1246 2.45161V-5.54839H28.8115L26.4685 -3.20597L32.1246 2.45161ZM33.0121 17.1613L25.0788 18.1922L25.9844 25.1613H33.0121V17.1613ZM20.8386 4.98781H12.8386V12.0155L19.8077 12.9211L20.8386 4.98781ZM20.8386 2.50984L21.721 -5.44135L12.8386 -6.4271V2.50984H20.8386ZM26.9 5.1386C28.2316 8.87277 31.8107 11.6774 36.1612 11.6774V-4.32258C38.9157 -4.32258 41.1464 -2.54638 41.9705 -0.235378L26.9 5.1386ZM36.1612 11.6774C41.5932 11.6774 45.9999 7.27073 45.9999 1.83871H29.9999C29.9999 -1.56583 32.7566 -4.32258 36.1612 -4.32258V11.6774ZM45.9999 1.83871C45.9999 -3.59331 41.5932 -8 36.1612 -8V8C32.7566 8 29.9999 5.24325 29.9999 1.83871H45.9999ZM36.1612 -8C31.8107 -8 28.2316 -5.19535 26.9 -1.46118L41.9705 3.9128C41.1464 6.2238 38.9157 8 36.1612 8V-8ZM34.4352 -6.77419H31.6171V9.22581H34.4352V-6.77419ZM25.9603 -4.43105L23.0821 -1.55285L34.3958 9.76085L37.274 6.88266L25.9603 -4.43105ZM33.1355 -2.57956C29.5649 -4.9284 25.3607 -6.43258 20.8323 -6.75247L19.7049 9.20776C21.3888 9.32671 22.9693 9.88433 24.3423 10.7876L33.1355 -2.57956ZM20.8354 -6.75225L20.1796 -6.79883L19.046 9.16096L19.7018 9.20754L20.8354 -6.75225ZM11.6128 1.18106V6.09716H27.6128V1.18106H11.6128ZM18.8948 14.0649L19.4526 14.1151L20.8885 -1.8203L20.3308 -1.87056L18.8948 14.0649ZM19.4516 14.1151C21.8103 14.3279 23.672 16.1895 23.8848 18.5482L39.8201 17.1105C38.9125 7.05055 30.9482 -0.912645 20.8894 -1.82021L19.4516 14.1151ZM23.8848 18.5473L23.935 19.105L39.8704 17.6692L39.8202 17.1114L23.8848 18.5473ZM31.9027 26.3871H36.8188V10.3871H31.9027V26.3871ZM44.7987 17.8203L44.7521 17.1645L28.7923 18.2981L28.8389 18.9539L44.7987 17.8203ZM44.7523 17.1672C44.2116 9.51741 40.3094 2.80496 34.6025 -1.54263L24.9065 11.1848C27.1355 12.8829 28.5913 15.4535 28.7922 18.2954L44.7523 17.1672ZM35.4106 10.4787L37.7807 8.1092L26.4685 -3.20597L24.0984 -0.836489L35.4106 10.4787ZM32.1246 10.4516H34.4352V-5.54839H32.1246V10.4516ZM36.1612 9.22581C32.0806 9.22581 28.7741 5.91928 28.7741 1.83871H44.7741C44.7741 -2.91728 40.9172 -6.77419 36.1612 -6.77419V9.22581ZM28.7741 1.83871C28.7741 -2.24186 32.0806 -5.54839 36.1612 -5.54839V10.4516C40.9172 10.4516 44.7741 6.5947 44.7741 1.83871H28.7741ZM36.1612 -5.54839C40.2417 -5.54839 43.5483 -2.24186 43.5483 1.83871H27.5483C27.5483 6.5947 31.4052 10.4516 36.1612 10.4516V-5.54839ZM43.5483 1.83871C43.5483 5.91928 40.2417 9.22581 36.1612 9.22581V-6.77419C31.4052 -6.77419 27.5483 -2.91728 27.5483 1.83871H43.5483ZM35.4901 9.16129H33.0121V25.1613H35.4901V9.16129ZM40.9454 16.1304C39.6525 6.18138 31.8185 -1.65264 21.8695 -2.94549L19.8077 12.9211C22.5556 13.2782 24.7217 15.4443 25.0788 18.1922L40.9454 16.1304ZM28.8386 4.98781V2.50984H12.8386V4.98781H28.8386ZM19.9562 10.461C23.8966 10.8983 27.1016 14.1032 27.5389 18.0437L43.4412 16.2789C42.1783 4.8992 33.1007 -4.17846 21.721 -5.44135L19.9562 10.461Z" fill="#1357DD" mask="url(#path-11-inside-6)"/>
</svg>
