<svg width="29" height="36" viewBox="0 0 29 36" fill="none" xmlns="http://www.w3.org/2000/svg">
<path d="M14.498 35C14.589 35 14.6782 34.9744 14.7554 34.9262C23.9126 29.2001 27.996 22.9242 27.996 14.5757V6.51776C27.996 6.45095 27.9823 6.38485 27.9556 6.32359C27.929 6.26233 27.8899 6.20723 27.841 6.16173C27.7922 6.11605 27.7345 6.08102 27.6714 6.05886C27.6084 6.0367 27.5414 6.0279 27.4748 6.03302C23.2894 6.3429 17.6216 4.77259 14.8836 1.19094C14.8393 1.13286 14.7824 1.08553 14.7172 1.05248C14.6521 1.01942 14.5803 1.00151 14.5072 1.00006C14.4341 0.998948 14.3618 1.01421 14.2954 1.04472C14.229 1.07523 14.1702 1.12021 14.1235 1.17637C11.0839 4.85128 4.90271 6.09422 1.49494 6.0335C1.36506 6.03352 1.24011 6.08322 1.14572 6.17242C1.09959 6.21763 1.06294 6.27159 1.03792 6.33114C1.0129 6.39069 1.00001 6.45463 1 6.51922V13.342C1 13.4709 1.05117 13.5944 1.14226 13.6855C1.23335 13.7766 1.3569 13.8278 1.48572 13.8278C1.61453 13.8278 1.73808 13.7766 1.82917 13.6855C1.92025 13.5944 1.97143 13.4709 1.97143 13.342V7.00493C6.05822 6.95976 11.4535 5.47979 14.4829 2.23765C17.5298 5.77656 22.9343 7.18805 27.0245 7.03116V14.5757C27.0245 22.5818 23.2743 28.3865 14.498 33.9402C10.5025 31.4116 7.58968 28.8475 5.59922 26.1076C5.56172 26.056 5.51441 26.0122 5.46001 25.9789C5.40562 25.9456 5.34519 25.9233 5.28218 25.9134C5.21918 25.9034 5.15482 25.9059 5.09279 25.9208C5.03077 25.9357 4.97228 25.9627 4.92068 26.0002C4.86908 26.0377 4.82537 26.085 4.79205 26.1394C4.75872 26.1938 4.73645 26.2542 4.72648 26.3173C4.71651 26.3803 4.71905 26.4446 4.73395 26.5066C4.74886 26.5687 4.77583 26.6272 4.81334 26.6788C6.92085 29.5794 10.0046 32.28 14.2406 34.9262C14.3177 34.9744 14.4069 35 14.498 35Z" fill="#1357DD"/>
<path d="M14.498 35C14.4069 35 14.3177 34.9744 14.2406 34.9262C5.08339 29.2001 1 22.9242 1 14.5757V6.51776C0.999952 6.45095 1.01369 6.38485 1.04035 6.32359C1.06701 6.26233 1.10602 6.20723 1.15494 6.16173C1.20372 6.11605 1.26147 6.08102 1.32452 6.05886C1.38757 6.0367 1.45454 6.0279 1.52117 6.03302C5.70656 6.3429 11.3744 4.77259 14.1123 1.19094C14.1567 1.13286 14.2135 1.08553 14.2787 1.05248C14.3439 1.01942 14.4157 1.00151 14.4888 1.00006C14.5618 0.998948 14.6342 1.01421 14.7006 1.04472C14.767 1.07523 14.8257 1.12021 14.8725 1.17637C17.9121 4.85128 24.0933 6.09422 27.501 6.0335C27.6309 6.03352 27.7558 6.08322 27.8502 6.17242C27.8964 6.21763 27.933 6.27159 27.958 6.33114C27.9831 6.39069 27.996 6.45463 27.996 6.51922V13.342C27.996 13.4709 27.9448 13.5944 27.8537 13.6855C27.7626 13.7766 27.6391 13.8278 27.5102 13.8278C27.3814 13.8278 27.2579 13.7766 27.1668 13.6855C27.0757 13.5944 27.0245 13.4709 27.0245 13.342V7.00493C22.9377 6.95976 17.5424 5.47979 14.513 2.23765C11.4662 5.77656 6.06162 7.18805 1.97143 7.03116V14.5757C1.97143 22.5818 5.72162 28.3865 14.498 33.9402C18.4935 31.4116 21.4063 28.8475 23.3967 26.1076C23.4342 26.056 23.4815 26.0122 23.5359 25.9789C23.5903 25.9456 23.6508 25.9233 23.7138 25.9134C23.7768 25.9034 23.8411 25.9059 23.9032 25.9208C23.9652 25.9357 24.0237 25.9627 24.0753 26.0002C24.1269 26.0377 24.1706 26.085 24.2039 26.1394C24.2372 26.1938 24.2595 26.2542 24.2695 26.3173C24.2794 26.3803 24.2769 26.4446 24.262 26.5066C24.2471 26.5687 24.2201 26.6272 24.1826 26.6788C22.0751 29.5794 18.9913 32.28 14.7554 34.9262C14.6782 34.9744 14.589 35 14.498 35Z" fill="#1357DD"/>
<path d="M14.7554 34.9262C14.6782 34.9744 14.589 35 14.498 35C14.4069 35 14.3177 34.9744 14.2406 34.9262M14.7554 34.9262C23.9126 29.2001 27.996 22.9242 27.996 14.5757V6.51776C27.996 6.45095 27.9823 6.38485 27.9556 6.32359C27.929 6.26233 27.8899 6.20723 27.841 6.16173C27.7922 6.11605 27.7345 6.08102 27.6714 6.05886C27.6084 6.0367 27.5414 6.0279 27.4748 6.03302C23.2894 6.3429 17.6216 4.77259 14.8836 1.19094C14.8393 1.13286 14.7824 1.08553 14.7172 1.05248C14.6521 1.01942 14.5803 1.00151 14.5072 1.00006C14.4341 0.998948 14.3618 1.01421 14.2954 1.04472C14.229 1.07523 14.1702 1.12021 14.1235 1.17637C11.0839 4.85128 4.90271 6.09422 1.49494 6.0335C1.36506 6.03352 1.24011 6.08322 1.14572 6.17242C1.09959 6.21763 1.06294 6.27159 1.03792 6.33114C1.0129 6.39069 1.00001 6.45463 1 6.51922V13.342C1 13.4709 1.05117 13.5944 1.14226 13.6855C1.23335 13.7766 1.3569 13.8277 1.48572 13.8277C1.61453 13.8277 1.73808 13.7766 1.82917 13.6855C1.92025 13.5944 1.97143 13.4709 1.97143 13.342V7.00493C6.05822 6.95976 11.4535 5.47979 14.4829 2.23765C17.5298 5.77656 22.9343 7.18805 27.0245 7.03116V14.5757C27.0245 22.5818 23.2743 28.3865 14.498 33.9402M14.7554 34.9262C18.9913 32.28 22.0751 29.5794 24.1826 26.6788C24.2201 26.6272 24.2471 26.5687 24.262 26.5066C24.2769 26.4446 24.2794 26.3803 24.2695 26.3173C24.2595 26.2542 24.2372 26.1938 24.2039 26.1394C24.1706 26.085 24.1269 26.0377 24.0753 26.0002C24.0237 25.9627 23.9652 25.9357 23.9032 25.9208C23.8411 25.9059 23.7768 25.9034 23.7138 25.9134C23.6508 25.9233 23.5903 25.9456 23.5359 25.9789C23.4815 26.0122 23.4342 26.056 23.3967 26.1076C21.4063 28.8475 18.4935 31.4116 14.498 33.9402M14.498 33.9402C10.5025 31.4116 7.58968 28.8475 5.59922 26.1076C5.56172 26.056 5.51441 26.0122 5.46002 25.9789C5.40562 25.9456 5.34519 25.9233 5.28218 25.9134C5.21918 25.9034 5.15482 25.9059 5.09279 25.9208C5.03077 25.9357 4.97228 25.9627 4.92068 26.0002C4.86908 26.0377 4.82537 26.085 4.79205 26.1394C4.75872 26.1938 4.73645 26.2542 4.72648 26.3173C4.71651 26.3803 4.71905 26.4446 4.73395 26.5066C4.74886 26.5687 4.77583 26.6272 4.81334 26.6788C6.92085 29.5794 10.0046 32.28 14.2406 34.9262M14.498 33.9402C5.72162 28.3865 1.97143 22.5818 1.97143 14.5757V7.03116C6.06162 7.18805 11.4662 5.77656 14.513 2.23765C17.5424 5.47979 22.9377 6.95976 27.0245 7.00493V13.342C27.0245 13.4709 27.0757 13.5944 27.1668 13.6855C27.2579 13.7766 27.3814 13.8277 27.5102 13.8277C27.6391 13.8277 27.7626 13.7766 27.8537 13.6855C27.9448 13.5944 27.996 13.4709 27.996 13.342V6.51922C27.996 6.45463 27.9831 6.39069 27.958 6.33114C27.933 6.27159 27.8964 6.21763 27.8502 6.17242C27.7558 6.08322 27.6309 6.03352 27.501 6.0335C24.0933 6.09422 17.9121 4.85128 14.8725 1.17637C14.8257 1.12021 14.767 1.07523 14.7006 1.04472C14.6342 1.01421 14.5618 0.998948 14.4888 1.00006C14.4157 1.00151 14.3439 1.01942 14.2787 1.05248C14.2135 1.08553 14.1567 1.13286 14.1123 1.19094C11.3744 4.77259 5.70656 6.3429 1.52117 6.03302C1.45454 6.0279 1.38757 6.0367 1.32452 6.05886C1.26147 6.08102 1.20372 6.11605 1.15494 6.16173C1.10602 6.20723 1.06701 6.26233 1.04035 6.32359C1.01369 6.38485 0.999952 6.45095 1 6.51776V14.5757C1 22.9242 5.08339 29.2001 14.2406 34.9262" stroke="#1357DD" stroke-width="0.2"/>
<path d="M19.4036 24.1928H9.5922C9.31884 24.1924 9.05678 24.0836 8.86348 23.8903C8.67018 23.697 8.56142 23.435 8.56104 23.1616V16.892C8.56181 16.619 8.67076 16.3573 8.86403 16.1644C9.0573 15.9715 9.31914 15.863 9.5922 15.8628H19.4036C19.6769 15.863 19.939 15.9717 20.1323 16.1649C20.3256 16.3581 20.4344 16.6202 20.4348 16.8935V23.1616C20.4344 23.435 20.3256 23.697 20.1323 23.8903C19.939 24.0836 19.677 24.1924 19.4036 24.1928ZM9.5922 16.8342C9.57644 16.8342 9.56132 16.8404 9.55013 16.8515C9.53894 16.8626 9.53259 16.8777 9.53246 16.8935V23.1616C9.53259 23.1774 9.53892 23.1925 9.5501 23.2037C9.56128 23.2149 9.5764 23.2212 9.5922 23.2213H19.4036C19.4194 23.2212 19.4345 23.2149 19.4457 23.2037C19.4569 23.1925 19.4632 23.1774 19.4634 23.1616V16.892C19.4629 16.8765 19.4563 16.8618 19.4452 16.851C19.434 16.8402 19.4191 16.8342 19.4036 16.8342H9.5922Z" fill="#1357DD" stroke="#1357DD" stroke-width="0.2"/>
<path d="M17.7695 16.8343H11.2269C11.0981 16.8343 10.9746 16.7831 10.8835 16.692C10.7924 16.6009 10.7412 16.4774 10.7412 16.3485V13.6213C10.7412 12.6248 11.137 11.6692 11.8416 10.9647C12.5462 10.2601 13.5018 9.86426 14.4982 9.86426C15.4946 9.86426 16.4502 10.2601 17.1548 10.9647C17.8594 11.6692 18.2552 12.6248 18.2552 13.6213V16.3485C18.2552 16.4774 18.204 16.6009 18.1129 16.692C18.0218 16.7831 17.8983 16.8343 17.7695 16.8343ZM11.7126 15.8628H17.2838V13.6213C17.2838 12.8825 16.9903 12.174 16.4679 11.6516C15.9455 11.1292 15.237 10.8357 14.4982 10.8357C13.7594 10.8357 13.0509 11.1292 12.5285 11.6516C12.0061 12.174 11.7126 12.8825 11.7126 13.6213V15.8628Z" fill="#1357DD" stroke="#1357DD" stroke-width="0.2"/>
</svg>
