<svg width="24" height="34" viewBox="0 0 24 34" fill="none" xmlns="http://www.w3.org/2000/svg">
<mask id="path-1-inside-1" fill="white">
<path d="M11.6752 31.0559C16.4897 31.0559 20.4066 27.1391 20.4066 22.3246C20.4066 17.5101 16.4897 13.5933 11.6752 13.5933C6.86069 13.5933 2.94385 17.5101 2.94385 22.3246C2.94378 27.1391 6.86069 31.0559 11.6752 31.0559ZM11.6752 14.5893C15.9404 14.5893 19.4105 18.0593 19.4105 22.3245C19.4105 26.5898 15.9404 30.0598 11.6752 30.0598C7.41 30.0598 3.93994 26.5898 3.93994 22.3246C3.93994 18.0594 7.40993 14.5893 11.6752 14.5893Z"/>
</mask>
<path d="M11.6752 31.0559C16.4897 31.0559 20.4066 27.1391 20.4066 22.3246C20.4066 17.5101 16.4897 13.5933 11.6752 13.5933C6.86069 13.5933 2.94385 17.5101 2.94385 22.3246C2.94378 27.1391 6.86069 31.0559 11.6752 31.0559ZM11.6752 14.5893C15.9404 14.5893 19.4105 18.0593 19.4105 22.3245C19.4105 26.5898 15.9404 30.0598 11.6752 30.0598C7.41 30.0598 3.93994 26.5898 3.93994 22.3246C3.93994 18.0594 7.40993 14.5893 11.6752 14.5893Z" fill="#1357DD"/>
<path d="M2.94385 22.3246L3.94385 22.3246V22.3246H2.94385ZM11.6752 32.0559C17.042 32.0559 21.4066 27.6914 21.4066 22.3246H19.4066C19.4066 26.5868 15.9374 30.0559 11.6752 30.0559V32.0559ZM21.4066 22.3246C21.4066 16.9578 17.042 12.5933 11.6752 12.5933V14.5933C15.9374 14.5933 19.4066 18.0624 19.4066 22.3246H21.4066ZM11.6752 12.5933C6.3084 12.5933 1.94385 16.9578 1.94385 22.3246H3.94385C3.94385 18.0624 7.41297 14.5933 11.6752 14.5933V12.5933ZM1.94385 22.3246C1.94377 27.6914 6.30842 32.0559 11.6752 32.0559V30.0559C7.41295 30.0559 3.94379 26.5868 3.94385 22.3246L1.94385 22.3246ZM11.6752 15.5893C15.3881 15.5893 18.4105 18.6116 18.4105 22.3245H20.4105C20.4105 17.5071 16.4927 13.5893 11.6752 13.5893V15.5893ZM18.4105 22.3245C18.4105 26.0375 15.3881 29.0598 11.6752 29.0598V31.0598C16.4927 31.0598 20.4105 27.142 20.4105 22.3245H18.4105ZM11.6752 29.0598C7.96227 29.0598 4.93994 26.0375 4.93994 22.3246H2.93994C2.93994 27.1421 6.85772 31.0598 11.6752 31.0598V29.0598ZM4.93994 22.3246C4.93994 18.6117 7.96223 15.5893 11.6752 15.5893V13.5893C6.85763 13.5893 2.93994 17.5071 2.93994 22.3246H4.93994Z" fill="#1357DD" mask="url(#path-1-inside-1)"/>
<path d="M4.37666 7.55767C4.37695 7.55782 4.37718 7.55798 4.37733 7.5581L4.37596 7.5592L4.37492 7.55789C4.37511 7.5578 4.3754 7.55768 4.37576 7.55758C4.37599 7.55752 4.37615 7.55749 4.37625 7.55747C4.37634 7.55751 4.37648 7.55757 4.37666 7.55767ZM4.3749 7.5579L4.37595 7.55921L4.37486 7.55785C4.37483 7.55787 4.3748 7.5579 4.37478 7.55791C4.37477 7.55792 4.37476 7.55793 4.37475 7.55794C4.37467 7.558 4.37464 7.55802 4.37464 7.55803C4.37464 7.55803 4.37469 7.55801 4.37477 7.55796C4.37478 7.55796 4.37479 7.55795 4.37481 7.55795C4.37483 7.55793 4.37487 7.55792 4.3749 7.5579ZM4.37605 7.55934L4.37725 7.56084C4.37722 7.56087 4.3772 7.56089 4.37718 7.56092C4.37717 7.56093 4.37716 7.56094 4.37716 7.56095C4.37707 7.56106 4.37701 7.56113 4.377 7.56115C4.37698 7.56117 4.37704 7.56112 4.37719 7.561L4.37722 7.56097L4.3773 7.56091L4.68695 7.94849L4.37605 7.55934Z" fill="#1357DD" stroke="#1357DD"/>
<mask id="path-4-inside-2" fill="white">
<path d="M15.7164 7.87026C15.8881 8.08508 16.2014 8.12021 16.4164 7.94849L17.0416 7.44898V10.6162C17.0416 10.8913 17.2645 11.1142 17.5397 11.1142C17.8148 11.1142 18.0377 10.8913 18.0377 10.6162V7.44898L18.6629 7.94849C18.7548 8.0218 18.8645 8.05746 18.9735 8.05746C19.1197 8.05746 19.2646 7.99338 19.3629 7.87033C19.5346 7.65544 19.4996 7.342 19.2847 7.17034L17.8505 6.0245C17.6687 5.8792 17.4106 5.8792 17.2288 6.0245L15.7946 7.17034C15.5797 7.34187 15.5447 7.6553 15.7164 7.87026Z"/>
</mask>
<path d="M15.7164 7.87026C15.8881 8.08508 16.2014 8.12021 16.4164 7.94849L17.0416 7.44898V10.6162C17.0416 10.8913 17.2645 11.1142 17.5397 11.1142C17.8148 11.1142 18.0377 10.8913 18.0377 10.6162V7.44898L18.6629 7.94849C18.7548 8.0218 18.8645 8.05746 18.9735 8.05746C19.1197 8.05746 19.2646 7.99338 19.3629 7.87033C19.5346 7.65544 19.4996 7.342 19.2847 7.17034L17.8505 6.0245C17.6687 5.8792 17.4106 5.8792 17.2288 6.0245L15.7946 7.17034C15.5797 7.34187 15.5447 7.6553 15.7164 7.87026Z" fill="#1357DD"/>
<path d="M16.4164 7.94849L17.0405 8.72987L17.0406 8.72976L16.4164 7.94849ZM17.0416 7.44898H18.0416V5.37008L16.4174 6.6677L17.0416 7.44898ZM18.0377 7.44898L18.6619 6.6677L17.0377 5.37008V7.44898H18.0377ZM18.6629 7.94849L18.0387 8.72976L18.0391 8.73002L18.6629 7.94849ZM19.3629 7.87033L18.5817 7.24604L18.5816 7.24625L19.3629 7.87033ZM19.2847 7.17034L18.6605 7.95161L18.6607 7.95175L19.2847 7.17034ZM17.8505 6.0245L17.2262 6.8057L17.2263 6.80577L17.8505 6.0245ZM17.2288 6.0245L17.8529 6.80577L17.853 6.8057L17.2288 6.0245ZM15.7946 7.17034L16.4184 7.95189L16.4188 7.95161L15.7946 7.17034ZM14.9353 8.49466C15.4516 9.14051 16.3938 9.24632 17.0405 8.72987L15.7924 7.1671C16.009 6.99411 16.3247 7.02965 16.4975 7.24586L14.9353 8.49466ZM17.0406 8.72976L17.6658 8.23025L16.4174 6.6677L15.7922 7.16721L17.0406 8.72976ZM16.0416 7.44898V10.6162H18.0416V7.44898H16.0416ZM16.0416 10.6162C16.0416 11.4436 16.7123 12.1142 17.5397 12.1142V10.1142C17.8168 10.1142 18.0416 10.339 18.0416 10.6162H16.0416ZM17.5397 12.1142C18.3671 12.1142 19.0377 11.4436 19.0377 10.6162H17.0377C17.0377 10.339 17.2625 10.1142 17.5397 10.1142V12.1142ZM19.0377 10.6162V7.44898H17.0377V10.6162H19.0377ZM17.4135 8.23025L18.0387 8.72976L19.2871 7.16721L18.6619 6.6677L17.4135 8.23025ZM18.0391 8.73002C18.314 8.94949 18.6455 9.05746 18.9735 9.05746V7.05746C19.0835 7.05746 19.1955 7.0941 19.2868 7.16695L18.0391 8.73002ZM18.9735 9.05746C19.4103 9.05746 19.848 8.86531 20.1443 8.4944L18.5816 7.24625C18.6812 7.12144 18.829 7.05746 18.9735 7.05746V9.05746ZM20.1441 8.49461C20.6606 7.84831 20.5555 6.90542 19.9087 6.38893L18.6607 7.95175C18.4438 7.77858 18.4087 7.46256 18.5817 7.24604L20.1441 8.49461ZM19.9089 6.38907L18.4747 5.24323L17.2263 6.80577L18.6605 7.95161L19.9089 6.38907ZM18.4748 5.2433C17.9279 4.80627 17.1514 4.80627 16.6045 5.2433L17.853 6.8057C17.6698 6.95214 17.4095 6.95214 17.2262 6.8057L18.4748 5.2433ZM16.6046 5.24323L15.1704 6.38907L16.4188 7.95161L17.8529 6.80577L16.6046 5.24323ZM15.1707 6.38879C14.5236 6.90535 14.419 7.84835 14.9351 8.49442L16.4977 7.24609C16.6704 7.46226 16.6358 7.77838 16.4184 7.95189L15.1707 6.38879Z" fill="#1357DD" mask="url(#path-4-inside-2)"/>
<path d="M5.03024 31.3124L5.03026 31.3125L5.03024 31.3124Z" fill="#1357DD" stroke="#1357DD"/>
<mask id="path-7-inside-3" fill="white">
<path d="M12.6158 2.10715L11.6974 1.19865L9.09006 3.77813H9.56135C10.0554 3.77813 10.4574 4.18009 10.4574 4.67415V9.4722C10.4574 9.74732 10.2344 9.97024 9.95932 9.97024C9.6842 9.97024 9.46127 9.74732 9.46127 9.4722V4.77422H7.87848C7.67654 4.77422 7.49465 4.6523 7.41782 4.46557C7.34099 4.27883 7.38462 4.06414 7.52819 3.9221L11.3471 0.143985C11.5412 -0.0479951 11.8536 -0.0479951 12.0477 0.143985L13.3163 1.399C13.5119 1.59244 13.5136 1.9078 13.3201 2.1033C13.1266 2.299 12.8112 2.30066 12.6158 2.10715Z"/>
<path d="M10.7568 2.10715L11.6752 1.19865L14.2825 3.77813H13.8112C13.3172 3.77813 12.9152 4.18009 12.9152 4.67415V9.4722C12.9152 9.74732 13.1381 9.97024 13.4133 9.97024C13.6884 9.97024 13.9113 9.74732 13.9113 9.4722V4.77422H15.4941C15.696 4.77422 15.8779 4.6523 15.9548 4.46557C16.0316 4.27883 15.988 4.06414 15.8444 3.9221L12.0254 0.143985C11.8314 -0.0479951 11.5189 -0.0479951 11.3249 0.143985L10.0563 1.399C9.86071 1.59244 9.85899 1.9078 10.0524 2.1033C10.246 2.299 10.5614 2.30066 10.7568 2.10715Z"/>
</mask>
<path d="M12.6158 2.10715L11.6974 1.19865L9.09006 3.77813H9.56135C10.0554 3.77813 10.4574 4.18009 10.4574 4.67415V9.4722C10.4574 9.74732 10.2344 9.97024 9.95932 9.97024C9.6842 9.97024 9.46127 9.74732 9.46127 9.4722V4.77422H7.87848C7.67654 4.77422 7.49465 4.6523 7.41782 4.46557C7.34099 4.27883 7.38462 4.06414 7.52819 3.9221L11.3471 0.143985C11.5412 -0.0479951 11.8536 -0.0479951 12.0477 0.143985L13.3163 1.399C13.5119 1.59244 13.5136 1.9078 13.3201 2.1033C13.1266 2.299 12.8112 2.30066 12.6158 2.10715Z" fill="#1357DD"/>
<path d="M10.7568 2.10715L11.6752 1.19865L14.2825 3.77813H13.8112C13.3172 3.77813 12.9152 4.18009 12.9152 4.67415V9.4722C12.9152 9.74732 13.1381 9.97024 13.4133 9.97024C13.6884 9.97024 13.9113 9.74732 13.9113 9.4722V4.77422H15.4941C15.696 4.77422 15.8779 4.6523 15.9548 4.46557C16.0316 4.27883 15.988 4.06414 15.8444 3.9221L12.0254 0.143985C11.8314 -0.0479951 11.5189 -0.0479951 11.3249 0.143985L10.0563 1.399C9.86071 1.59244 9.85899 1.9078 10.0524 2.1033C10.246 2.299 10.5614 2.30066 10.7568 2.10715Z" fill="#1357DD"/>
<path d="M12.6158 2.10715L13.3194 1.39655L13.319 1.39623L12.6158 2.10715ZM11.6974 1.19865L12.4006 0.487722L11.6973 -0.208003L10.9941 0.487758L11.6974 1.19865ZM9.09006 3.77813L8.38676 3.06724L6.65741 4.77813H9.09006V3.77813ZM9.46127 4.77422H10.4613V3.77422H9.46127V4.77422ZM7.52819 3.9221L6.82489 3.2112L6.82487 3.21122L7.52819 3.9221ZM11.3471 0.143985L12.0504 0.854883L12.0505 0.854853L11.3471 0.143985ZM12.0477 0.143985L11.3443 0.854853L11.3444 0.854897L12.0477 0.143985ZM13.3163 1.399L12.613 2.10991L12.6131 2.10996L13.3163 1.399ZM13.3201 2.1033L12.6093 1.39995L12.6092 1.40006L13.3201 2.1033ZM10.7568 2.10715L10.0535 1.39623L10.0532 1.39655L10.7568 2.10715ZM11.6752 1.19865L12.3785 0.487758L11.6752 -0.208002L10.9719 0.487722L11.6752 1.19865ZM14.2825 3.77813V4.77813H16.7152L14.9858 3.06724L14.2825 3.77813ZM13.9113 4.77422V3.77422H12.9113V4.77422H13.9113ZM15.8444 3.9221L16.5477 3.21122L16.5477 3.2112L15.8444 3.9221ZM12.0254 0.143985L11.3221 0.854853L11.3221 0.854883L12.0254 0.143985ZM11.3249 0.143985L12.0282 0.854897L12.0282 0.854853L11.3249 0.143985ZM10.0563 1.399L10.7595 2.10996L10.7596 2.10991L10.0563 1.399ZM10.0524 2.1033L10.7634 1.40006L10.7633 1.39995L10.0524 2.1033ZM13.319 1.39623L12.4006 0.487722L10.9941 1.90958L11.9125 2.81808L13.319 1.39623ZM10.9941 0.487758L8.38676 3.06724L9.79337 4.48902L12.4007 1.90954L10.9941 0.487758ZM9.09006 4.77813H9.56135V2.77813H9.09006V4.77813ZM9.56135 4.77813C9.50313 4.77813 9.45737 4.73237 9.45737 4.67415H11.4574C11.4574 3.6278 10.6077 2.77813 9.56135 2.77813V4.77813ZM9.45737 4.67415V9.4722H11.4574V4.67415H9.45737ZM9.45737 9.4722C9.45737 9.19503 9.68216 8.97024 9.95932 8.97024V10.9702C10.7867 10.9702 11.4574 10.2996 11.4574 9.4722H9.45737ZM9.95932 8.97024C10.2365 8.97024 10.4613 9.19503 10.4613 9.4722H8.46127C8.46127 10.2996 9.13192 10.9702 9.95932 10.9702V8.97024ZM10.4613 9.4722V4.77422H8.46127V9.4722H10.4613ZM9.46127 3.77422H7.87848V5.77422H9.46127V3.77422ZM7.87848 3.77422C8.0821 3.77422 8.2653 3.89719 8.3426 4.08507L6.49304 4.84607C6.724 5.40741 7.27097 5.77422 7.87848 5.77422V3.77422ZM8.3426 4.08507C8.4202 4.27366 8.37601 4.49001 8.2315 4.63298L6.82487 3.21122C6.39322 3.63828 6.26178 4.28401 6.49304 4.84607L8.3426 4.08507ZM8.23148 4.633L12.0504 0.854883L10.6439 -0.566913L6.82489 3.2112L8.23148 4.633ZM12.0505 0.854853C11.8549 1.04838 11.5399 1.04838 11.3443 0.854853L12.751 -0.566883C12.1673 -1.14437 11.2275 -1.14437 10.6438 -0.566883L12.0505 0.854853ZM11.3444 0.854897L12.613 2.10991L14.0196 0.688085L12.7509 -0.566926L11.3444 0.854897ZM12.6131 2.10996C12.416 1.91509 12.4141 1.5972 12.6093 1.39995L14.031 2.80666C14.613 2.2184 14.6077 1.26979 14.0195 0.688037L12.6131 2.10996ZM12.6092 1.40006C12.8039 1.20324 13.1219 1.20107 13.3194 1.39655L11.9122 2.81775C12.5005 3.40025 13.4493 3.39476 14.0311 2.80654L12.6092 1.40006ZM11.4601 2.81808L12.3785 1.90958L10.9719 0.487722L10.0535 1.39623L11.4601 2.81808ZM10.9719 1.90954L13.5792 4.48902L14.9858 3.06724L12.3785 0.487758L10.9719 1.90954ZM14.2825 2.77813H13.8112V4.77813H14.2825V2.77813ZM13.8112 2.77813C12.7649 2.77813 11.9152 3.6278 11.9152 4.67415H13.9152C13.9152 4.73237 13.8694 4.77813 13.8112 4.77813V2.77813ZM11.9152 4.67415V9.4722H13.9152V4.67415H11.9152ZM11.9152 9.4722C11.9152 10.2996 12.5858 10.9702 13.4133 10.9702V8.97024C13.6904 8.97024 13.9152 9.19503 13.9152 9.4722H11.9152ZM13.4133 10.9702C14.2407 10.9702 14.9113 10.2996 14.9113 9.4722H12.9113C12.9113 9.19503 13.1361 8.97024 13.4133 8.97024V10.9702ZM14.9113 9.4722V4.77422H12.9113V9.4722H14.9113ZM13.9113 5.77422H15.4941V3.77422H13.9113V5.77422ZM15.4941 5.77422C16.1016 5.77422 16.6486 5.40741 16.8795 4.84607L15.03 4.08507C15.1073 3.89719 15.2905 3.77422 15.4941 3.77422V5.77422ZM16.8795 4.84607C17.1108 4.28401 16.9793 3.63828 16.5477 3.21122L15.1411 4.63298C14.9966 4.49001 14.9524 4.27366 15.03 4.08507L16.8795 4.84607ZM16.5477 3.2112L12.7287 -0.566913L11.3221 0.854883L15.1411 4.633L16.5477 3.2112ZM12.7288 -0.566883C12.1451 -1.14437 11.2053 -1.14437 10.6216 -0.566883L12.0282 0.854853C11.8326 1.04838 11.5177 1.04838 11.3221 0.854853L12.7288 -0.566883ZM10.6216 -0.566926L9.353 0.688085L10.7596 2.10991L12.0282 0.854897L10.6216 -0.566926ZM9.35305 0.688037C8.76491 1.26979 8.75953 2.2184 9.34159 2.80666L10.7633 1.39995C10.9584 1.5972 10.9565 1.91509 10.7595 2.10996L9.35305 0.688037ZM9.34147 2.80654C9.92331 3.39476 10.8721 3.40025 11.4604 2.81775L10.0532 1.39655C10.2506 1.20107 10.5687 1.20324 10.7634 1.40006L9.34147 2.80654Z" fill="#1357DD" mask="url(#path-7-inside-3)"/>
<mask id="path-9-inside-4" fill="white">
<path d="M12.2398 17.6802H10.8798V19.0402C9.75512 19.0402 8.83984 19.9555 8.83984 21.0802C8.83984 22.2049 9.75512 23.1202 10.8798 23.1202H12.2398C12.6145 23.1202 12.9198 23.4255 12.9198 23.8002C12.9198 24.1749 12.6145 24.4802 12.2398 24.4802H10.1998V23.8002H8.83984V25.8402H10.8798V27.2002H12.2398V25.8402C13.3646 25.8402 14.2798 24.9249 14.2798 23.8002C14.2798 22.6755 13.3646 21.7602 12.2398 21.7602H10.8798C10.5052 21.7602 10.1998 21.4549 10.1998 21.0802C10.1998 20.7055 10.5052 20.4002 10.8798 20.4002H12.9198V21.0802H14.2798V19.0402H12.2398V17.6802Z"/>
</mask>
<path d="M12.2398 17.6802H10.8798V19.0402C9.75512 19.0402 8.83984 19.9555 8.83984 21.0802C8.83984 22.2049 9.75512 23.1202 10.8798 23.1202H12.2398C12.6145 23.1202 12.9198 23.4255 12.9198 23.8002C12.9198 24.1749 12.6145 24.4802 12.2398 24.4802H10.1998V23.8002H8.83984V25.8402H10.8798V27.2002H12.2398V25.8402C13.3646 25.8402 14.2798 24.9249 14.2798 23.8002C14.2798 22.6755 13.3646 21.7602 12.2398 21.7602H10.8798C10.5052 21.7602 10.1998 21.4549 10.1998 21.0802C10.1998 20.7055 10.5052 20.4002 10.8798 20.4002H12.9198V21.0802H14.2798V19.0402H12.2398V17.6802Z" fill="#1357DD"/>
<path d="M12.2398 17.6802H20.2398V9.68018H12.2398V17.6802ZM10.8798 17.6802V9.68018H2.87984V17.6802H10.8798ZM10.8798 19.0402V27.0402H18.8798V19.0402H10.8798ZM10.1998 24.4802H2.19984V32.4802H10.1998V24.4802ZM10.1998 23.8002H18.1998V15.8002H10.1998V23.8002ZM8.83984 23.8002V15.8002H0.839844V23.8002H8.83984ZM8.83984 25.8402H0.839844V33.8402H8.83984V25.8402ZM10.8798 25.8402H18.8798V17.8402H10.8798V25.8402ZM10.8798 27.2002H2.87984V35.2002H10.8798V27.2002ZM12.2398 27.2002V35.2002H20.2398V27.2002H12.2398ZM12.2398 25.8402V17.8402H4.23984V25.8402H12.2398ZM12.9198 20.4002H20.9198V12.4002H12.9198V20.4002ZM12.9198 21.0802H4.91984V29.0802H12.9198V21.0802ZM14.2798 21.0802V29.0802H22.2798V21.0802H14.2798ZM14.2798 19.0402H22.2798V11.0402H14.2798V19.0402ZM12.2398 19.0402H4.23984V27.0402H12.2398V19.0402ZM12.2398 9.68018H10.8798V25.6802H12.2398V9.68018ZM2.87984 17.6802V19.0402H18.8798V17.6802H2.87984ZM10.8798 11.0402C5.33685 11.0402 0.839844 15.5372 0.839844 21.0802H16.8398C16.8398 24.3737 14.1734 27.0402 10.8798 27.0402V11.0402ZM0.839844 21.0802C0.839844 26.6232 5.33685 31.1202 10.8798 31.1202V15.1202C14.1734 15.1202 16.8398 17.7866 16.8398 21.0802H0.839844ZM10.8798 31.1202H12.2398V15.1202H10.8798V31.1202ZM12.2398 31.1202C8.19624 31.1202 4.91984 27.8438 4.91984 23.8002H20.9198C20.9198 19.0072 17.0328 15.1202 12.2398 15.1202V31.1202ZM4.91984 23.8002C4.91984 19.7566 8.19624 16.4802 12.2398 16.4802V32.4802C17.0328 32.4802 20.9198 28.5931 20.9198 23.8002H4.91984ZM12.2398 16.4802H10.1998V32.4802H12.2398V16.4802ZM18.1998 24.4802V23.8002H2.19984V24.4802H18.1998ZM10.1998 15.8002H8.83984V31.8002H10.1998V15.8002ZM0.839844 23.8002V25.8402H16.8398V23.8002H0.839844ZM8.83984 33.8402H10.8798V17.8402H8.83984V33.8402ZM2.87984 25.8402V27.2002H18.8798V25.8402H2.87984ZM10.8798 35.2002H12.2398V19.2002H10.8798V35.2002ZM20.2398 27.2002V25.8402H4.23984V27.2002H20.2398ZM12.2398 33.8402C17.7828 33.8402 22.2798 29.3432 22.2798 23.8002H6.27984C6.27984 20.5066 8.94628 17.8402 12.2398 17.8402V33.8402ZM22.2798 23.8002C22.2798 18.2572 17.7828 13.7602 12.2398 13.7602V29.7602C8.94628 29.7602 6.27984 27.0937 6.27984 23.8002H22.2798ZM12.2398 13.7602H10.8798V29.7602H12.2398V13.7602ZM10.8798 13.7602C14.9234 13.7602 18.1998 17.0366 18.1998 21.0802H2.19984C2.19984 25.8731 6.08689 29.7602 10.8798 29.7602V13.7602ZM18.1998 21.0802C18.1998 25.1238 14.9234 28.4002 10.8798 28.4002V12.4002C6.08689 12.4002 2.19984 16.2872 2.19984 21.0802H18.1998ZM10.8798 28.4002H12.9198V12.4002H10.8798V28.4002ZM4.91984 20.4002V21.0802H20.9198V20.4002H4.91984ZM12.9198 29.0802H14.2798V13.0802H12.9198V29.0802ZM22.2798 21.0802V19.0402H6.27984V21.0802H22.2798ZM14.2798 11.0402H12.2398V27.0402H14.2798V11.0402ZM20.2398 19.0402V17.6802H4.23984V19.0402H20.2398Z" fill="#1357DD" mask="url(#path-9-inside-4)"/>
</svg>
