<svg width="272" height="24" viewBox="0 0 272 24" fill="none" xmlns="http://www.w3.org/2000/svg">
<path d="M28.112 6.8C29.5627 6.8 30.704 7.14667 31.536 7.84C32.368 8.53333 32.784 9.488 32.784 10.704C32.784 11.92 32.368 12.8747 31.536 13.568C30.704 14.2613 29.5627 14.608 28.112 14.608H25.344V18H23.744V6.8H28.112ZM28.064 13.216C29.0773 13.216 29.8507 13.0027 30.384 12.576C30.9173 12.1387 31.184 11.5147 31.184 10.704C31.184 9.89333 30.9173 9.27467 30.384 8.848C29.8507 8.41067 29.0773 8.192 28.064 8.192H25.344V13.216H28.064ZM37.6995 9.44C38.8728 9.44 39.7688 9.728 40.3875 10.304C41.0168 10.88 41.3315 11.7387 41.3315 12.88V18H39.8755V16.88C39.6195 17.2747 39.2515 17.5787 38.7715 17.792C38.3022 17.9947 37.7422 18.096 37.0915 18.096C36.1422 18.096 35.3795 17.8667 34.8035 17.408C34.2382 16.9493 33.9555 16.3467 33.9555 15.6C33.9555 14.8533 34.2275 14.256 34.7715 13.808C35.3155 13.3493 36.1795 13.12 37.3635 13.12H39.7955V12.816C39.7955 12.1547 39.6035 11.648 39.2195 11.296C38.8355 10.944 38.2702 10.768 37.5235 10.768C37.0222 10.768 36.5315 10.8533 36.0515 11.024C35.5715 11.184 35.1662 11.4027 34.8355 11.68L34.1955 10.528C34.6328 10.176 35.1555 9.90933 35.7635 9.728C36.3715 9.536 37.0168 9.44 37.6995 9.44ZM37.3475 16.912C37.9342 16.912 38.4408 16.784 38.8675 16.528C39.2942 16.2613 39.6035 15.888 39.7955 15.408V14.224H37.4275C36.1262 14.224 35.4755 14.6613 35.4755 15.536C35.4755 15.9627 35.6408 16.2987 35.9715 16.544C36.3022 16.7893 36.7608 16.912 37.3475 16.912ZM48.5488 13.584C49.1141 13.7333 49.5514 13.9733 49.8608 14.304C50.1701 14.6347 50.3248 15.0453 50.3248 15.536C50.3248 16.0373 50.1541 16.4853 49.8128 16.88C49.4714 17.264 48.9968 17.568 48.3888 17.792C47.7914 18.0053 47.1194 18.112 46.3728 18.112C45.7434 18.112 45.1248 18.032 44.5168 17.872C43.9194 17.7013 43.3861 17.4613 42.9168 17.152L43.3808 15.984C43.7861 16.24 44.2501 16.4427 44.7728 16.592C45.2954 16.7307 45.8234 16.8 46.3568 16.8C47.0821 16.8 47.6581 16.6773 48.0848 16.432C48.5221 16.176 48.7408 15.8347 48.7408 15.408C48.7408 15.0133 48.5648 14.7093 48.2128 14.496C47.8714 14.2827 47.3861 14.176 46.7568 14.176H45.2048V13.072H46.6448C47.2208 13.072 47.6741 12.9707 48.0048 12.768C48.3354 12.5653 48.5008 12.288 48.5008 11.936C48.5008 11.552 48.3034 11.2533 47.9088 11.04C47.5248 10.8267 47.0021 10.72 46.3408 10.72C45.4981 10.72 44.6074 10.9387 43.6688 11.376L43.2528 10.192C44.2874 9.66933 45.3701 9.408 46.5008 9.408C47.1834 9.408 47.7968 9.504 48.3408 9.696C48.8848 9.888 49.3114 10.16 49.6208 10.512C49.9301 10.864 50.0848 11.264 50.0848 11.712C50.0848 12.128 49.9461 12.5013 49.6688 12.832C49.3914 13.1627 49.0181 13.4133 48.5488 13.584ZM62.4359 9.52V18H61.0439V11.808L57.8759 17.04H57.2039L54.0679 11.792V18H52.6599V9.52H54.2439L57.5719 15.248L60.9959 9.52H62.4359ZM73.0895 13.808C73.0895 13.9253 73.0788 14.08 73.0575 14.272H66.1775C66.2735 15.0187 66.5988 15.6213 67.1535 16.08C67.7188 16.528 68.4175 16.752 69.2495 16.752C70.2628 16.752 71.0788 16.4107 71.6975 15.728L72.5455 16.72C72.1615 17.168 71.6815 17.5093 71.1055 17.744C70.5402 17.9787 69.9055 18.096 69.2015 18.096C68.3055 18.096 67.5108 17.9147 66.8175 17.552C66.1242 17.1787 65.5855 16.6613 65.2015 16C64.8282 15.3387 64.6415 14.592 64.6415 13.76C64.6415 12.9387 64.8228 12.1973 65.1855 11.536C65.5588 10.8747 66.0655 10.3627 66.7055 10C67.3562 9.62667 68.0868 9.44 68.8975 9.44C69.7082 9.44 70.4282 9.62667 71.0575 10C71.6975 10.3627 72.1935 10.8747 72.5455 11.536C72.9082 12.1973 73.0895 12.9547 73.0895 13.808ZM68.8975 10.736C68.1615 10.736 67.5428 10.96 67.0415 11.408C66.5508 11.856 66.2628 12.4427 66.1775 13.168H71.6175C71.5322 12.4533 71.2388 11.872 70.7375 11.424C70.2468 10.9653 69.6335 10.736 68.8975 10.736ZM79.9684 9.44C80.7897 9.44 81.5257 9.62133 82.1764 9.984C82.827 10.3467 83.3337 10.8533 83.6964 11.504C84.0697 12.1547 84.2564 12.9067 84.2564 13.76C84.2564 14.6133 84.0697 15.3707 83.6964 16.032C83.3337 16.6827 82.827 17.1893 82.1764 17.552C81.5257 17.9147 80.7897 18.096 79.9684 18.096C79.3604 18.096 78.8004 17.9787 78.2884 17.744C77.787 17.5093 77.3604 17.168 77.0084 16.72V21.104H75.4724V9.52H76.9444V10.864C77.2857 10.3947 77.7177 10.0427 78.2404 9.808C78.763 9.56267 79.339 9.44 79.9684 9.44ZM79.8404 16.752C80.3844 16.752 80.8697 16.6293 81.2964 16.384C81.7337 16.128 82.075 15.776 82.3204 15.328C82.5764 14.8693 82.7044 14.3467 82.7044 13.76C82.7044 13.1733 82.5764 12.656 82.3204 12.208C82.075 11.7493 81.7337 11.3973 81.2964 11.152C80.8697 10.9067 80.3844 10.784 79.8404 10.784C79.307 10.784 78.8217 10.912 78.3844 11.168C77.9577 11.4133 77.6164 11.76 77.3604 12.208C77.115 12.656 76.9924 13.1733 76.9924 13.76C76.9924 14.3467 77.115 14.8693 77.3604 15.328C77.6057 15.776 77.947 16.128 78.3844 16.384C78.8217 16.6293 79.307 16.752 79.8404 16.752ZM100.561 9.52V18H99.1689V11.808L96.0009 17.04H95.3289L92.1929 11.792V18H90.7849V9.52H92.3689L95.6969 15.248L99.1209 9.52H100.561ZM103.551 9.52H105.087V15.696L110.286 9.52H111.679V18H110.142V11.824L104.959 18H103.551V9.52ZM114.66 9.52H116.196V13.12H121.028V9.52H122.564V18H121.028V14.448H116.196V18H114.66V9.52ZM125.551 9.52H127.087V15.696L132.286 9.52H133.679V18H132.142V11.824L126.959 18H125.551V9.52ZM146.436 9.52V18H145.044V11.808L141.876 17.04H141.204L138.068 11.792V18H136.66V9.52H138.244L141.572 15.248L144.996 9.52H146.436ZM152.45 9.44C153.623 9.44 154.519 9.728 155.138 10.304C155.767 10.88 156.082 11.7387 156.082 12.88V18H154.626V16.88C154.37 17.2747 154.002 17.5787 153.522 17.792C153.052 17.9947 152.492 18.096 151.842 18.096C150.892 18.096 150.13 17.8667 149.554 17.408C148.988 16.9493 148.706 16.3467 148.706 15.6C148.706 14.8533 148.978 14.256 149.522 13.808C150.066 13.3493 150.93 13.12 152.114 13.12H154.546V12.816C154.546 12.1547 154.354 11.648 153.97 11.296C153.586 10.944 153.02 10.768 152.274 10.768C151.772 10.768 151.282 10.8533 150.802 11.024C150.322 11.184 149.916 11.4027 149.586 11.68L148.946 10.528C149.383 10.176 149.906 9.90933 150.514 9.728C151.122 9.536 151.767 9.44 152.45 9.44ZM152.098 16.912C152.684 16.912 153.191 16.784 153.618 16.528C154.044 16.2613 154.354 15.888 154.546 15.408V14.224H152.178C150.876 14.224 150.226 14.6613 150.226 15.536C150.226 15.9627 150.391 16.2987 150.722 16.544C151.052 16.7893 151.511 16.912 152.098 16.912ZM166.127 9.52V18H164.591V10.864H160.943L160.847 12.752C160.794 13.8933 160.693 14.848 160.543 15.616C160.394 16.3733 160.149 16.9813 159.807 17.44C159.466 17.8987 158.991 18.128 158.383 18.128C158.106 18.128 157.791 18.08 157.439 17.984L157.535 16.688C157.674 16.72 157.802 16.736 157.919 16.736C158.346 16.736 158.666 16.5493 158.879 16.176C159.093 15.8027 159.231 15.36 159.295 14.848C159.359 14.336 159.418 13.6053 159.471 12.656L159.615 9.52H166.127ZM173.017 12.4C174.095 12.4107 174.916 12.656 175.481 13.136C176.047 13.616 176.329 14.2933 176.329 15.168C176.329 16.0853 176.02 16.7947 175.401 17.296C174.793 17.7867 173.919 18.0267 172.777 18.016L169.097 18V9.52H170.633V12.384L173.017 12.4ZM172.649 16.848C173.343 16.8587 173.865 16.72 174.217 16.432C174.58 16.144 174.761 15.7173 174.761 15.152C174.761 14.5973 174.585 14.192 174.233 13.936C173.892 13.68 173.364 13.5467 172.649 13.536L170.633 13.504V16.832L172.649 16.848ZM178.301 9.52H179.837V13.12H184.669V9.52H186.205V18H184.669V14.448H179.837V18H178.301V9.52ZM192.823 18.096C191.98 18.096 191.223 17.9093 190.551 17.536C189.879 17.1627 189.351 16.6507 188.967 16C188.594 15.3387 188.407 14.592 188.407 13.76C188.407 12.928 188.594 12.1867 188.967 11.536C189.351 10.8747 189.879 10.3627 190.551 10C191.223 9.62667 191.98 9.44 192.823 9.44C193.666 9.44 194.418 9.62667 195.079 10C195.751 10.3627 196.274 10.8747 196.647 11.536C197.031 12.1867 197.223 12.928 197.223 13.76C197.223 14.592 197.031 15.3387 196.647 16C196.274 16.6507 195.751 17.1627 195.079 17.536C194.418 17.9093 193.666 18.096 192.823 18.096ZM192.823 16.752C193.367 16.752 193.852 16.6293 194.279 16.384C194.716 16.128 195.058 15.776 195.303 15.328C195.548 14.8693 195.671 14.3467 195.671 13.76C195.671 13.1733 195.548 12.656 195.303 12.208C195.058 11.7493 194.716 11.3973 194.279 11.152C193.852 10.9067 193.367 10.784 192.823 10.784C192.279 10.784 191.788 10.9067 191.351 11.152C190.924 11.3973 190.583 11.7493 190.327 12.208C190.082 12.656 189.959 13.1733 189.959 13.76C189.959 14.3467 190.082 14.8693 190.327 15.328C190.583 15.776 190.924 16.128 191.351 16.384C191.788 16.6293 192.279 16.752 192.823 16.752ZM199.441 9.52H200.977V15.696L206.177 9.52H207.569V18H206.033V11.824L200.849 18H199.441V9.52ZM203.409 8.416C202.62 8.416 202.006 8.22933 201.569 7.856C201.132 7.472 200.908 6.92267 200.897 6.208H201.937C201.948 6.60267 202.081 6.92267 202.337 7.168C202.604 7.40267 202.956 7.52 203.393 7.52C203.83 7.52 204.182 7.40267 204.449 7.168C204.716 6.92267 204.854 6.60267 204.865 6.208H205.937C205.926 6.92267 205.697 7.472 205.249 7.856C204.801 8.22933 204.188 8.416 203.409 8.416ZM219.439 13.584C220.005 13.7333 220.442 13.9733 220.751 14.304C221.061 14.6347 221.215 15.0453 221.215 15.536C221.215 16.0373 221.045 16.4853 220.703 16.88C220.362 17.264 219.887 17.568 219.279 17.792C218.682 18.0053 218.01 18.112 217.263 18.112C216.634 18.112 216.015 18.032 215.407 17.872C214.81 17.7013 214.277 17.4613 213.807 17.152L214.271 15.984C214.677 16.24 215.141 16.4427 215.663 16.592C216.186 16.7307 216.714 16.8 217.247 16.8C217.973 16.8 218.549 16.6773 218.975 16.432C219.413 16.176 219.631 15.8347 219.631 15.408C219.631 15.0133 219.455 14.7093 219.103 14.496C218.762 14.2827 218.277 14.176 217.647 14.176H216.095V13.072H217.535C218.111 13.072 218.565 12.9707 218.895 12.768C219.226 12.5653 219.391 12.288 219.391 11.936C219.391 11.552 219.194 11.2533 218.799 11.04C218.415 10.8267 217.893 10.72 217.231 10.72C216.389 10.72 215.498 10.9387 214.559 11.376L214.143 10.192C215.178 9.66933 216.261 9.408 217.391 9.408C218.074 9.408 218.687 9.504 219.231 9.696C219.775 9.888 220.202 10.16 220.511 10.512C220.821 10.864 220.975 11.264 220.975 11.712C220.975 12.128 220.837 12.5013 220.559 12.832C220.282 13.1627 219.909 13.4133 219.439 13.584ZM226.575 9.44C227.748 9.44 228.644 9.728 229.263 10.304C229.892 10.88 230.207 11.7387 230.207 12.88V18H228.751V16.88C228.495 17.2747 228.127 17.5787 227.647 17.792C227.177 17.9947 226.617 18.096 225.967 18.096C225.017 18.096 224.255 17.8667 223.679 17.408C223.113 16.9493 222.831 16.3467 222.831 15.6C222.831 14.8533 223.103 14.256 223.647 13.808C224.191 13.3493 225.055 13.12 226.239 13.12H228.671V12.816C228.671 12.1547 228.479 11.648 228.095 11.296C227.711 10.944 227.145 10.768 226.399 10.768C225.897 10.768 225.407 10.8533 224.927 11.024C224.447 11.184 224.041 11.4027 223.711 11.68L223.071 10.528C223.508 10.176 224.031 9.90933 224.639 9.728C225.247 9.536 225.892 9.44 226.575 9.44ZM226.223 16.912C226.809 16.912 227.316 16.784 227.743 16.528C228.169 16.2613 228.479 15.888 228.671 15.408V14.224H226.303C225.001 14.224 224.351 14.6613 224.351 15.536C224.351 15.9627 224.516 16.2987 224.847 16.544C225.177 16.7893 225.636 16.912 226.223 16.912ZM239.772 9.52V18H238.396V15.312H235.932H235.756L233.9 18H232.252L234.316 15.104C233.676 14.912 233.186 14.5973 232.844 14.16C232.503 13.712 232.332 13.1573 232.332 12.496C232.332 11.5253 232.663 10.7893 233.324 10.288C233.986 9.776 234.898 9.52 236.06 9.52H239.772ZM233.9 12.544C233.9 13.1093 234.076 13.5307 234.428 13.808C234.791 14.0747 235.33 14.208 236.044 14.208H238.396V10.864H236.108C234.636 10.864 233.9 11.424 233.9 12.544ZM248.545 13.6C249.644 13.8773 250.193 14.5653 250.193 15.664C250.193 16.4107 249.911 16.9867 249.345 17.392C248.791 17.7973 247.959 18 246.849 18H242.769V9.52H246.705C247.708 9.52 248.492 9.712 249.057 10.096C249.623 10.4693 249.905 11.0027 249.905 11.696C249.905 12.144 249.783 12.5333 249.537 12.864C249.303 13.184 248.972 13.4293 248.545 13.6ZM244.273 13.168H246.577C247.164 13.168 247.607 13.0613 247.905 12.848C248.215 12.6347 248.369 12.3253 248.369 11.92C248.369 11.1093 247.772 10.704 246.577 10.704H244.273V13.168ZM246.737 16.816C247.377 16.816 247.857 16.7147 248.177 16.512C248.497 16.3093 248.657 15.9947 248.657 15.568C248.657 15.1307 248.508 14.8053 248.209 14.592C247.921 14.3787 247.463 14.272 246.833 14.272H244.273V16.816H246.737ZM255.893 14.416H254.133V18H252.597V9.52H254.133V13.104H255.925L258.677 9.52H260.325L257.109 13.6L260.549 18H258.741L255.893 14.416ZM262.16 9.52H263.696V15.696L268.896 9.52H270.288V18H268.752V11.824L263.568 18H262.16V9.52Z" fill="black"/>
<ellipse cx="6" cy="12" rx="6" ry="6" fill="#A142B5"/>
</svg>
