<svg width="253" height="24" viewBox="0 0 253 24" fill="none" xmlns="http://www.w3.org/2000/svg">
<path d="M33.392 6.8V18H31.824V8.192H25.328V18H23.744V6.8H33.392ZM41.1246 9.44C41.946 9.44 42.682 9.62133 43.3326 9.984C43.9833 10.3467 44.49 10.8533 44.8526 11.504C45.226 12.1547 45.4126 12.9067 45.4126 13.76C45.4126 14.6133 45.226 15.3707 44.8526 16.032C44.49 16.6827 43.9833 17.1893 43.3326 17.552C42.682 17.9147 41.946 18.096 41.1246 18.096C40.5166 18.096 39.9566 17.9787 39.4446 17.744C38.9433 17.5093 38.5166 17.168 38.1646 16.72V21.104H36.6286V9.52H38.1006V10.864C38.442 10.3947 38.874 10.0427 39.3966 9.808C39.9193 9.56267 40.4953 9.44 41.1246 9.44ZM40.9966 16.752C41.5406 16.752 42.026 16.6293 42.4526 16.384C42.89 16.128 43.2313 15.776 43.4766 15.328C43.7326 14.8693 43.8606 14.3467 43.8606 13.76C43.8606 13.1733 43.7326 12.656 43.4766 12.208C43.2313 11.7493 42.89 11.3973 42.4526 11.152C42.026 10.9067 41.5406 10.784 40.9966 10.784C40.4633 10.784 39.978 10.912 39.5406 11.168C39.114 11.4133 38.7726 11.76 38.5166 12.208C38.2713 12.656 38.1486 13.1733 38.1486 13.76C38.1486 14.3467 38.2713 14.8693 38.5166 15.328C38.762 15.776 39.1033 16.128 39.5406 16.384C39.978 16.6293 40.4633 16.752 40.9966 16.752ZM51.2763 18.096C50.4336 18.096 49.6763 17.9093 49.0043 17.536C48.3323 17.1627 47.8043 16.6507 47.4203 16C47.0469 15.3387 46.8603 14.592 46.8603 13.76C46.8603 12.928 47.0469 12.1867 47.4203 11.536C47.8043 10.8747 48.3323 10.3627 49.0043 10C49.6763 9.62667 50.4336 9.44 51.2763 9.44C52.1189 9.44 52.8709 9.62667 53.5323 10C54.2043 10.3627 54.7269 10.8747 55.1003 11.536C55.4843 12.1867 55.6763 12.928 55.6763 13.76C55.6763 14.592 55.4843 15.3387 55.1003 16C54.7269 16.6507 54.2043 17.1627 53.5323 17.536C52.8709 17.9093 52.1189 18.096 51.2763 18.096ZM51.2763 16.752C51.8203 16.752 52.3056 16.6293 52.7323 16.384C53.1696 16.128 53.5109 15.776 53.7563 15.328C54.0016 14.8693 54.1243 14.3467 54.1243 13.76C54.1243 13.1733 54.0016 12.656 53.7563 12.208C53.5109 11.7493 53.1696 11.3973 52.7323 11.152C52.3056 10.9067 51.8203 10.784 51.2763 10.784C50.7323 10.784 50.2416 10.9067 49.8043 11.152C49.3776 11.3973 49.0363 11.7493 48.7803 12.208C48.5349 12.656 48.4123 13.1733 48.4123 13.76C48.4123 14.3467 48.5349 14.8693 48.7803 15.328C49.0363 15.776 49.3776 16.128 49.8043 16.384C50.2416 16.6293 50.7323 16.752 51.2763 16.752ZM66.9503 16.656V20.032H65.4943V18H57.8943V9.52H59.4303V16.656H64.0703V9.52H65.6063V16.656H66.9503ZM76.6051 13.808C76.6051 13.9253 76.5945 14.08 76.5731 14.272H69.6931C69.7891 15.0187 70.1145 15.6213 70.6691 16.08C71.2345 16.528 71.9331 16.752 72.7651 16.752C73.7785 16.752 74.5945 16.4107 75.2131 15.728L76.0611 16.72C75.6771 17.168 75.1971 17.5093 74.6211 17.744C74.0558 17.9787 73.4211 18.096 72.7171 18.096C71.8211 18.096 71.0265 17.9147 70.3331 17.552C69.6398 17.1787 69.1011 16.6613 68.7171 16C68.3438 15.3387 68.1571 14.592 68.1571 13.76C68.1571 12.9387 68.3385 12.1973 68.7011 11.536C69.0745 10.8747 69.5811 10.3627 70.2211 10C70.8718 9.62667 71.6025 9.44 72.4131 9.44C73.2238 9.44 73.9438 9.62667 74.5731 10C75.2131 10.3627 75.7091 10.8747 76.0611 11.536C76.4238 12.1973 76.6051 12.9547 76.6051 13.808ZM72.4131 10.736C71.6771 10.736 71.0585 10.96 70.5571 11.408C70.0665 11.856 69.7785 12.4427 69.6931 13.168H75.1331C75.0478 12.4533 74.7545 11.872 74.2531 11.424C73.7625 10.9653 73.1491 10.736 72.4131 10.736ZM87.4714 16.656V19.968H86.0314V18H78.9434V19.968H77.4874V16.656H77.9354C78.4794 16.624 78.8527 16.24 79.0554 15.504C79.258 14.768 79.3967 13.728 79.4714 12.384L79.5994 9.52H86.1754V16.656H87.4714ZM80.8794 12.496C80.8367 13.5627 80.746 14.448 80.6074 15.152C80.4794 15.8453 80.2394 16.3467 79.8874 16.656H84.6394V10.864H80.9594L80.8794 12.496ZM97.0404 9.52L92.9284 18.848C92.5657 19.712 92.139 20.32 91.6484 20.672C91.1684 21.024 90.587 21.2 89.9044 21.2C89.4884 21.2 89.083 21.1307 88.6884 20.992C88.3044 20.864 87.9844 20.672 87.7284 20.416L88.3844 19.264C88.8217 19.68 89.3284 19.888 89.9044 19.888C90.2777 19.888 90.587 19.7867 90.8324 19.584C91.0884 19.392 91.3177 19.056 91.5204 18.576L91.7924 17.984L88.0484 9.52H89.6484L92.6084 16.304L95.5364 9.52H97.0404ZM103.109 9.44C103.93 9.44 104.666 9.62133 105.317 9.984C105.968 10.3467 106.474 10.8533 106.837 11.504C107.21 12.1547 107.397 12.9067 107.397 13.76C107.397 14.6133 107.21 15.3707 106.837 16.032C106.474 16.6827 105.968 17.1893 105.317 17.552C104.666 17.9147 103.93 18.096 103.109 18.096C102.501 18.096 101.941 17.9787 101.429 17.744C100.928 17.5093 100.501 17.168 100.149 16.72V21.104H98.613V9.52H100.085V10.864C100.426 10.3947 100.858 10.0427 101.381 9.808C101.904 9.56267 102.48 9.44 103.109 9.44ZM102.981 16.752C103.525 16.752 104.01 16.6293 104.437 16.384C104.874 16.128 105.216 15.776 105.461 15.328C105.717 14.8693 105.845 14.3467 105.845 13.76C105.845 13.1733 105.717 12.656 105.461 12.208C105.216 11.7493 104.874 11.3973 104.437 11.152C104.01 10.9067 103.525 10.784 102.981 10.784C102.448 10.784 101.962 10.912 101.525 11.168C101.098 11.4133 100.757 11.76 100.501 12.208C100.256 12.656 100.133 13.1733 100.133 13.76C100.133 14.3467 100.256 14.8693 100.501 15.328C100.746 15.776 101.088 16.128 101.525 16.384C101.962 16.6293 102.448 16.752 102.981 16.752ZM112.575 9.44C113.748 9.44 114.644 9.728 115.263 10.304C115.892 10.88 116.207 11.7387 116.207 12.88V18H114.751V16.88C114.495 17.2747 114.127 17.5787 113.647 17.792C113.177 17.9947 112.617 18.096 111.967 18.096C111.017 18.096 110.255 17.8667 109.679 17.408C109.113 16.9493 108.831 16.3467 108.831 15.6C108.831 14.8533 109.103 14.256 109.647 13.808C110.191 13.3493 111.055 13.12 112.239 13.12H114.671V12.816C114.671 12.1547 114.479 11.648 114.095 11.296C113.711 10.944 113.145 10.768 112.399 10.768C111.897 10.768 111.407 10.8533 110.927 11.024C110.447 11.184 110.041 11.4027 109.711 11.68L109.071 10.528C109.508 10.176 110.031 9.90933 110.639 9.728C111.247 9.536 111.892 9.44 112.575 9.44ZM112.223 16.912C112.809 16.912 113.316 16.784 113.743 16.528C114.169 16.2613 114.479 15.888 114.671 15.408V14.224H112.303C111.001 14.224 110.351 14.6613 110.351 15.536C110.351 15.9627 110.516 16.2987 110.847 16.544C111.177 16.7893 111.636 16.912 112.223 16.912ZM126.901 18.096C126.059 18.096 125.301 17.9093 124.629 17.536C123.957 17.1627 123.429 16.6507 123.045 16C122.672 15.3387 122.485 14.592 122.485 13.76C122.485 12.928 122.672 12.1867 123.045 11.536C123.429 10.8747 123.957 10.3627 124.629 10C125.301 9.62667 126.059 9.44 126.901 9.44C127.744 9.44 128.496 9.62667 129.157 10C129.829 10.3627 130.352 10.8747 130.725 11.536C131.109 12.1867 131.301 12.928 131.301 13.76C131.301 14.592 131.109 15.3387 130.725 16C130.352 16.6507 129.829 17.1627 129.157 17.536C128.496 17.9093 127.744 18.096 126.901 18.096ZM126.901 16.752C127.445 16.752 127.931 16.6293 128.357 16.384C128.795 16.128 129.136 15.776 129.381 15.328C129.627 14.8693 129.749 14.3467 129.749 13.76C129.749 13.1733 129.627 12.656 129.381 12.208C129.136 11.7493 128.795 11.3973 128.357 11.152C127.931 10.9067 127.445 10.784 126.901 10.784C126.357 10.784 125.867 10.9067 125.429 11.152C125.003 11.3973 124.661 11.7493 124.405 12.208C124.16 12.656 124.037 13.1733 124.037 13.76C124.037 14.3467 124.16 14.8693 124.405 15.328C124.661 15.776 125.003 16.128 125.429 16.384C125.867 16.6293 126.357 16.752 126.901 16.752ZM139.527 10.864H136.423V18H134.887V10.864H131.783V9.52H139.527V10.864ZM144.393 14.416H142.633V18H141.097V9.52H142.633V13.104H144.425L147.177 9.52H148.825L145.609 13.6L149.049 18H147.241L144.393 14.416ZM155.156 9.44C155.977 9.44 156.713 9.62133 157.364 9.984C158.015 10.3467 158.521 10.8533 158.884 11.504C159.257 12.1547 159.444 12.9067 159.444 13.76C159.444 14.6133 159.257 15.3707 158.884 16.032C158.521 16.6827 158.015 17.1893 157.364 17.552C156.713 17.9147 155.977 18.096 155.156 18.096C154.548 18.096 153.988 17.9787 153.476 17.744C152.975 17.5093 152.548 17.168 152.196 16.72V21.104H150.66V9.52H152.132V10.864C152.473 10.3947 152.905 10.0427 153.428 9.808C153.951 9.56267 154.527 9.44 155.156 9.44ZM155.028 16.752C155.572 16.752 156.057 16.6293 156.484 16.384C156.921 16.128 157.263 15.776 157.508 15.328C157.764 14.8693 157.892 14.3467 157.892 13.76C157.892 13.1733 157.764 12.656 157.508 12.208C157.263 11.7493 156.921 11.3973 156.484 11.152C156.057 10.9067 155.572 10.784 155.028 10.784C154.495 10.784 154.009 10.912 153.572 11.168C153.145 11.4133 152.804 11.76 152.548 12.208C152.303 12.656 152.18 13.1733 152.18 13.76C152.18 14.3467 152.303 14.8693 152.548 15.328C152.793 15.776 153.135 16.128 153.572 16.384C154.009 16.6293 154.495 16.752 155.028 16.752ZM165.5 12.4C166.566 12.4107 167.382 12.656 167.948 13.136C168.513 13.616 168.796 14.2933 168.796 15.168C168.796 16.0853 168.486 16.7947 167.868 17.296C167.26 17.7867 166.385 18.0267 165.244 18.016L161.676 18V9.52H163.212V12.384L165.5 12.4ZM170.06 9.52H171.596V18H170.06V9.52ZM165.132 16.848C165.825 16.8587 166.348 16.72 166.7 16.432C167.062 16.144 167.244 15.7173 167.244 15.152C167.244 14.5973 167.068 14.192 166.716 13.936C166.364 13.68 165.836 13.5467 165.132 13.536L163.212 13.504V16.832L165.132 16.848ZM180.902 10.864H177.798V18H176.262V10.864H173.158V9.52H180.902V10.864ZM182.472 9.52H184.008V15.696L189.208 9.52H190.6V18H189.064V11.824L183.88 18H182.472V9.52ZM200.382 9.52V18H199.006V15.312H196.542H196.366L194.51 18H192.862L194.926 15.104C194.286 14.912 193.795 14.5973 193.454 14.16C193.112 13.712 192.942 13.1573 192.942 12.496C192.942 11.5253 193.272 10.7893 193.934 10.288C194.595 9.776 195.507 9.52 196.67 9.52H200.382ZM194.51 12.544C194.51 13.1093 194.686 13.5307 195.038 13.808C195.4 14.0747 195.939 14.208 196.654 14.208H199.006V10.864H196.718C195.246 10.864 194.51 11.424 194.51 12.544ZM211.372 18.096C210.508 18.096 209.734 17.9093 209.052 17.536C208.38 17.1627 207.852 16.6507 207.468 16C207.084 15.3387 206.892 14.592 206.892 13.76C206.892 12.928 207.084 12.1867 207.468 11.536C207.852 10.8747 208.38 10.3627 209.052 10C209.734 9.62667 210.508 9.44 211.372 9.44C212.14 9.44 212.822 9.59467 213.42 9.904C214.028 10.2133 214.497 10.6613 214.828 11.248L213.66 12C213.393 11.5947 213.062 11.2907 212.668 11.088C212.273 10.8853 211.836 10.784 211.356 10.784C210.801 10.784 210.3 10.9067 209.852 11.152C209.414 11.3973 209.068 11.7493 208.812 12.208C208.566 12.656 208.444 13.1733 208.444 13.76C208.444 14.3573 208.566 14.8853 208.812 15.344C209.068 15.792 209.414 16.1387 209.852 16.384C210.3 16.6293 210.801 16.752 211.356 16.752C211.836 16.752 212.273 16.6507 212.668 16.448C213.062 16.2453 213.393 15.9413 213.66 15.536L214.828 16.272C214.497 16.8587 214.028 17.312 213.42 17.632C212.822 17.9413 212.14 18.096 211.372 18.096ZM223.584 9.52V18H222.048V14.576C221.131 15.0027 220.219 15.216 219.312 15.216C218.256 15.216 217.44 14.9707 216.864 14.48C216.288 13.9893 216 13.2533 216 12.272V9.52H217.536V12.176C217.536 12.7627 217.717 13.2053 218.08 13.504C218.453 13.8027 218.971 13.952 219.632 13.952C220.379 13.952 221.184 13.7653 222.048 13.392V9.52H223.584ZM234.23 13.808C234.23 13.9253 234.219 14.08 234.198 14.272H227.318C227.414 15.0187 227.739 15.6213 228.294 16.08C228.859 16.528 229.558 16.752 230.39 16.752C231.403 16.752 232.219 16.4107 232.838 15.728L233.686 16.72C233.302 17.168 232.822 17.5093 232.246 17.744C231.681 17.9787 231.046 18.096 230.342 18.096C229.446 18.096 228.651 17.9147 227.958 17.552C227.265 17.1787 226.726 16.6613 226.342 16C225.969 15.3387 225.782 14.592 225.782 13.76C225.782 12.9387 225.963 12.1973 226.326 11.536C226.699 10.8747 227.206 10.3627 227.846 10C228.497 9.62667 229.227 9.44 230.038 9.44C230.849 9.44 231.569 9.62667 232.198 10C232.838 10.3627 233.334 10.8747 233.686 11.536C234.049 12.1973 234.23 12.9547 234.23 13.808ZM230.038 10.736C229.302 10.736 228.683 10.96 228.182 11.408C227.691 11.856 227.403 12.4427 227.318 13.168H232.758C232.673 12.4533 232.379 11.872 231.878 11.424C231.387 10.9653 230.774 10.736 230.038 10.736ZM242.574 10.864H239.47V18H237.934V10.864H234.83V9.52H242.574V10.864ZM247.168 9.44C248.342 9.44 249.238 9.728 249.856 10.304C250.486 10.88 250.8 11.7387 250.8 12.88V18H249.344V16.88C249.088 17.2747 248.72 17.5787 248.24 17.792C247.771 17.9947 247.211 18.096 246.56 18.096C245.611 18.096 244.848 17.8667 244.272 17.408C243.707 16.9493 243.424 16.3467 243.424 15.6C243.424 14.8533 243.696 14.256 244.24 13.808C244.784 13.3493 245.648 13.12 246.832 13.12H249.264V12.816C249.264 12.1547 249.072 11.648 248.688 11.296C248.304 10.944 247.739 10.768 246.992 10.768C246.491 10.768 246 10.8533 245.52 11.024C245.04 11.184 244.635 11.4027 244.304 11.68L243.664 10.528C244.102 10.176 244.624 9.90933 245.232 9.728C245.84 9.536 246.486 9.44 247.168 9.44ZM246.816 16.912C247.403 16.912 247.91 16.784 248.336 16.528C248.763 16.2613 249.072 15.888 249.264 15.408V14.224H246.896C245.595 14.224 244.944 14.6613 244.944 15.536C244.944 15.9627 245.11 16.2987 245.44 16.544C245.771 16.7893 246.23 16.912 246.816 16.912Z" fill="black"/>
<ellipse cx="6" cy="12" rx="6" ry="6" fill="#1357DD"/>
</svg>
