<svg width="191" height="24" viewBox="0 0 191 24" fill="none" xmlns="http://www.w3.org/2000/svg">
<path d="M32.912 6.8L27.936 16.032C27.5413 16.768 27.0773 17.3173 26.544 17.68C26.0107 18.0427 25.4293 18.224 24.8 18.224C24.3093 18.224 23.808 18.112 23.296 17.888L23.712 16.608C24.1067 16.7467 24.4587 16.816 24.768 16.816C25.472 16.816 26.0533 16.4427 26.512 15.696L26.768 15.296L22.256 6.8H23.968L27.6 13.904L31.328 6.8H32.912ZM38.484 9.44C39.3053 9.44 40.0413 9.62133 40.692 9.984C41.3427 10.3467 41.8493 10.8533 42.212 11.504C42.5853 12.1547 42.772 12.9067 42.772 13.76C42.772 14.6133 42.5853 15.3707 42.212 16.032C41.8493 16.6827 41.3427 17.1893 40.692 17.552C40.0413 17.9147 39.3053 18.096 38.484 18.096C37.876 18.096 37.316 17.9787 36.804 17.744C36.3027 17.5093 35.876 17.168 35.524 16.72V21.104H33.988V9.52H35.46V10.864C35.8013 10.3947 36.2333 10.0427 36.756 9.808C37.2787 9.56267 37.8547 9.44 38.484 9.44ZM38.356 16.752C38.9 16.752 39.3853 16.6293 39.812 16.384C40.2493 16.128 40.5907 15.776 40.836 15.328C41.092 14.8693 41.22 14.3467 41.22 13.76C41.22 13.1733 41.092 12.656 40.836 12.208C40.5907 11.7493 40.2493 11.3973 39.812 11.152C39.3853 10.9067 38.9 10.784 38.356 10.784C37.8227 10.784 37.3373 10.912 36.9 11.168C36.4733 11.4133 36.132 11.76 35.876 12.208C35.6307 12.656 35.508 13.1733 35.508 13.76C35.508 14.3467 35.6307 14.8693 35.876 15.328C36.1213 15.776 36.4627 16.128 36.9 16.384C37.3373 16.6293 37.8227 16.752 38.356 16.752ZM48.6356 18.096C47.793 18.096 47.0356 17.9093 46.3636 17.536C45.6916 17.1627 45.1636 16.6507 44.7796 16C44.4063 15.3387 44.2196 14.592 44.2196 13.76C44.2196 12.928 44.4063 12.1867 44.7796 11.536C45.1636 10.8747 45.6916 10.3627 46.3636 10C47.0356 9.62667 47.793 9.44 48.6356 9.44C49.4783 9.44 50.2303 9.62667 50.8916 10C51.5636 10.3627 52.0863 10.8747 52.4596 11.536C52.8436 12.1867 53.0356 12.928 53.0356 13.76C53.0356 14.592 52.8436 15.3387 52.4596 16C52.0863 16.6507 51.5636 17.1627 50.8916 17.536C50.2303 17.9093 49.4783 18.096 48.6356 18.096ZM48.6356 16.752C49.1796 16.752 49.665 16.6293 50.0916 16.384C50.529 16.128 50.8703 15.776 51.1156 15.328C51.361 14.8693 51.4836 14.3467 51.4836 13.76C51.4836 13.1733 51.361 12.656 51.1156 12.208C50.8703 11.7493 50.529 11.3973 50.0916 11.152C49.665 10.9067 49.1796 10.784 48.6356 10.784C48.0916 10.784 47.601 10.9067 47.1636 11.152C46.737 11.3973 46.3956 11.7493 46.1396 12.208C45.8943 12.656 45.7716 13.1733 45.7716 13.76C45.7716 14.3467 45.8943 14.8693 46.1396 15.328C46.3956 15.776 46.737 16.128 47.1636 16.384C47.601 16.6293 48.0916 16.752 48.6356 16.752ZM61.0296 13.6C62.1283 13.8773 62.6776 14.5653 62.6776 15.664C62.6776 16.4107 62.395 16.9867 61.8296 17.392C61.275 17.7973 60.443 18 59.3336 18H55.2536V9.52H59.1896C60.1923 9.52 60.9763 9.712 61.5416 10.096C62.107 10.4693 62.3896 11.0027 62.3896 11.696C62.3896 12.144 62.267 12.5333 62.0216 12.864C61.787 13.184 61.4563 13.4293 61.0296 13.6ZM56.7576 13.168H59.0616C59.6483 13.168 60.091 13.0613 60.3896 12.848C60.699 12.6347 60.8536 12.3253 60.8536 11.92C60.8536 11.1093 60.2563 10.704 59.0616 10.704H56.7576V13.168ZM59.2216 16.816C59.8616 16.816 60.3416 16.7147 60.6616 16.512C60.9816 16.3093 61.1416 15.9947 61.1416 15.568C61.1416 15.1307 60.9923 14.8053 60.6936 14.592C60.4056 14.3787 59.947 14.272 59.3176 14.272H56.7576V16.816H59.2216ZM72.7458 13.808C72.7458 13.9253 72.7351 14.08 72.7138 14.272H65.8338C65.9298 15.0187 66.2551 15.6213 66.8098 16.08C67.3751 16.528 68.0738 16.752 68.9058 16.752C69.9191 16.752 70.7351 16.4107 71.3538 15.728L72.2018 16.72C71.8178 17.168 71.3378 17.5093 70.7618 17.744C70.1964 17.9787 69.5618 18.096 68.8578 18.096C67.9618 18.096 67.1671 17.9147 66.4738 17.552C65.7804 17.1787 65.2418 16.6613 64.8578 16C64.4844 15.3387 64.2978 14.592 64.2978 13.76C64.2978 12.9387 64.4791 12.1973 64.8418 11.536C65.2151 10.8747 65.7218 10.3627 66.3618 10C67.0124 9.62667 67.7431 9.44 68.5538 9.44C69.3644 9.44 70.0844 9.62667 70.7138 10C71.3538 10.3627 71.8498 10.8747 72.2018 11.536C72.5644 12.1973 72.7458 12.9547 72.7458 13.808ZM68.5538 10.736C67.8178 10.736 67.1991 10.96 66.6978 11.408C66.2071 11.856 65.9191 12.4427 65.8338 13.168H71.2738C71.1884 12.4533 70.8951 11.872 70.3938 11.424C69.9031 10.9653 69.2898 10.736 68.5538 10.736ZM75.1286 9.52H76.6646V13.12H81.4966V9.52H83.0326V18H81.4966V14.448H76.6646V18H75.1286V9.52ZM89.9393 12.4C91.0166 12.4107 91.8379 12.656 92.4033 13.136C92.9686 13.616 93.2513 14.2933 93.2513 15.168C93.2513 16.0853 92.9419 16.7947 92.3233 17.296C91.7153 17.7867 90.8406 18.0267 89.6993 18.016L86.0193 18V9.52H87.5553V12.384L89.9393 12.4ZM89.5713 16.848C90.2646 16.8587 90.7873 16.72 91.1393 16.432C91.5019 16.144 91.6833 15.7173 91.6833 15.152C91.6833 14.5973 91.5073 14.192 91.1553 13.936C90.8139 13.68 90.2859 13.5467 89.5713 13.536L87.5553 13.504V16.832L89.5713 16.848ZM102.543 9.44C103.717 9.44 104.613 9.728 105.231 10.304C105.861 10.88 106.175 11.7387 106.175 12.88V18H104.719V16.88C104.463 17.2747 104.095 17.5787 103.615 17.792C103.146 17.9947 102.586 18.096 101.935 18.096C100.986 18.096 100.223 17.8667 99.6473 17.408C99.0819 16.9493 98.7993 16.3467 98.7993 15.6C98.7993 14.8533 99.0713 14.256 99.6153 13.808C100.159 13.3493 101.023 13.12 102.207 13.12H104.639V12.816C104.639 12.1547 104.447 11.648 104.063 11.296C103.679 10.944 103.114 10.768 102.367 10.768C101.866 10.768 101.375 10.8533 100.895 11.024C100.415 11.184 100.01 11.4027 99.6793 11.68L99.0393 10.528C99.4766 10.176 99.9993 9.90933 100.607 9.728C101.215 9.536 101.861 9.44 102.543 9.44ZM102.191 16.912C102.778 16.912 103.285 16.784 103.711 16.528C104.138 16.2613 104.447 15.888 104.639 15.408V14.224H102.271C100.97 14.224 100.319 14.6613 100.319 15.536C100.319 15.9627 100.485 16.2987 100.815 16.544C101.146 16.7893 101.605 16.912 102.191 16.912ZM116.221 9.52V18H114.685V10.864H111.037L110.941 12.752C110.888 13.8933 110.786 14.848 110.637 15.616C110.488 16.3733 110.242 16.9813 109.901 17.44C109.56 17.8987 109.085 18.128 108.477 18.128C108.2 18.128 107.885 18.08 107.533 17.984L107.629 16.688C107.768 16.72 107.896 16.736 108.013 16.736C108.44 16.736 108.76 16.5493 108.973 16.176C109.186 15.8027 109.325 15.36 109.389 14.848C109.453 14.336 109.512 13.6053 109.565 12.656L109.709 9.52H116.221ZM126.471 9.52V18H124.935V10.864H121.287L121.191 12.752C121.138 13.8933 121.036 14.848 120.887 15.616C120.738 16.3733 120.492 16.9813 120.151 17.44C119.81 17.8987 119.335 18.128 118.727 18.128C118.45 18.128 118.135 18.08 117.783 17.984L117.879 16.688C118.018 16.72 118.146 16.736 118.263 16.736C118.69 16.736 119.01 16.5493 119.223 16.176C119.436 15.8027 119.575 15.36 119.639 14.848C119.703 14.336 119.762 13.6053 119.815 12.656L119.959 9.52H126.471ZM133.073 18.096C132.23 18.096 131.473 17.9093 130.801 17.536C130.129 17.1627 129.601 16.6507 129.217 16C128.844 15.3387 128.657 14.592 128.657 13.76C128.657 12.928 128.844 12.1867 129.217 11.536C129.601 10.8747 130.129 10.3627 130.801 10C131.473 9.62667 132.23 9.44 133.073 9.44C133.916 9.44 134.668 9.62667 135.329 10C136.001 10.3627 136.524 10.8747 136.897 11.536C137.281 12.1867 137.473 12.928 137.473 13.76C137.473 14.592 137.281 15.3387 136.897 16C136.524 16.6507 136.001 17.1627 135.329 17.536C134.668 17.9093 133.916 18.096 133.073 18.096ZM133.073 16.752C133.617 16.752 134.102 16.6293 134.529 16.384C134.966 16.128 135.308 15.776 135.553 15.328C135.798 14.8693 135.921 14.3467 135.921 13.76C135.921 13.1733 135.798 12.656 135.553 12.208C135.308 11.7493 134.966 11.3973 134.529 11.152C134.102 10.9067 133.617 10.784 133.073 10.784C132.529 10.784 132.038 10.9067 131.601 11.152C131.174 11.3973 130.833 11.7493 130.577 12.208C130.332 12.656 130.209 13.1733 130.209 13.76C130.209 14.3467 130.332 14.8693 130.577 15.328C130.833 15.776 131.174 16.128 131.601 16.384C132.038 16.6293 132.529 16.752 133.073 16.752ZM142.987 14.416H141.227V18H139.691V9.52H141.227V13.104H143.019L145.771 9.52H147.419L144.203 13.6L147.643 18H145.835L142.987 14.416ZM152.121 9.44C153.295 9.44 154.191 9.728 154.809 10.304C155.439 10.88 155.753 11.7387 155.753 12.88V18H154.297V16.88C154.041 17.2747 153.673 17.5787 153.193 17.792C152.724 17.9947 152.164 18.096 151.513 18.096C150.564 18.096 149.801 17.8667 149.225 17.408C148.66 16.9493 148.377 16.3467 148.377 15.6C148.377 14.8533 148.649 14.256 149.193 13.808C149.737 13.3493 150.601 13.12 151.785 13.12H154.217V12.816C154.217 12.1547 154.025 11.648 153.641 11.296C153.257 10.944 152.692 10.768 151.945 10.768C151.444 10.768 150.953 10.8533 150.473 11.024C149.993 11.184 149.588 11.4027 149.257 11.68L148.617 10.528C149.055 10.176 149.577 9.90933 150.185 9.728C150.793 9.536 151.439 9.44 152.121 9.44ZM151.769 16.912C152.356 16.912 152.863 16.784 153.289 16.528C153.716 16.2613 154.025 15.888 154.217 15.408V14.224H151.849C150.548 14.224 149.897 14.6613 149.897 15.536C149.897 15.9627 150.063 16.2987 150.393 16.544C150.724 16.7893 151.183 16.912 151.769 16.912ZM167.575 16.656V20.032H166.119V18H158.519V9.52H160.055V16.656H164.695V9.52H166.231V16.656H167.575ZM169.566 9.52H171.102V15.696L176.302 9.52H177.694V18H176.158V11.824L170.974 18H169.566V9.52ZM180.676 9.52H182.212V15.696L187.411 9.52H188.804V18H187.267V11.824L182.084 18H180.676V9.52Z" fill="black"/>
<ellipse cx="6" cy="12" rx="6" ry="6" fill="black"/>
</svg>
