<svg width="50" height="50" viewBox="0 0 50 50" fill="none" xmlns="http://www.w3.org/2000/svg">
<path d="M41.4062 15.7687V14.0625H39.8438V15.625H38.2812V17.9688C38.2812 19.2609 39.3328 20.3125 40.625 20.3125C41.0563 20.3125 41.4062 20.6633 41.4062 21.0938V21.875H40.625C40.1938 21.875 39.8438 21.5242 39.8438 21.0938V20.3125H38.2812V21.0938C38.2812 22.1109 38.9367 22.9703 39.8438 23.2937V25H41.4062V23.4375H42.9688V21.0938C42.9688 19.8016 41.9172 18.75 40.625 18.75C40.1938 18.75 39.8438 18.3992 39.8438 17.9688V17.1875H40.625C41.0563 17.1875 41.4062 17.5383 41.4062 17.9688V18.75H42.9688V17.9688C42.9688 16.9516 42.3133 16.0922 41.4062 15.7687Z" fill="#1357DD"/>
<path d="M49.2188 19.5312C49.2188 14.793 45.3633 10.9375 40.625 10.9375C35.8867 10.9375 32.0312 14.793 32.0312 19.5312C32.0312 21.2273 32.5227 22.843 33.4305 24.2273C31.3992 24.2539 29.4844 24.7664 27.7953 25.6555C27.1687 24.5711 26.3148 23.6359 25.2664 22.9375C24.2578 22.2648 23.0898 21.8188 21.8883 21.6469L18.6 21.1766L18.1453 19.3602C19.4852 18.5219 20.482 17.1938 20.8883 15.6258H21.0938C22.8172 15.6258 24.2188 14.2242 24.2188 12.5008C24.2188 11.7617 23.95 11.0898 23.5187 10.5547L24.0812 8.45703C24.1727 8.09297 24.2188 7.71953 24.2188 7.34531C24.2188 5.42813 23.0078 3.7 21.207 3.04531L16.068 1.17656C15.3461 0.914063 14.5922 0.78125 13.8258 0.78125C11.7719 0.78125 9.81016 1.76172 8.57891 3.40469L8.18203 3.93281C6.65391 4.13437 5.46875 5.44766 5.46875 7.03125C5.46875 8.28828 5.91016 9.83359 6.14922 10.5766C5.72969 11.1086 5.46875 11.7711 5.46875 12.5C5.46875 14.2234 6.87031 15.625 8.59375 15.625H8.79922C9.20469 17.193 10.2023 18.5211 11.5422 19.3594L11.0875 21.1758L7.79922 21.6461C6.59766 21.818 5.42969 22.2648 4.42109 22.9367C2.14219 24.4555 0.78125 26.9984 0.78125 29.7375V43.75H23.2672C25.5203 47.0484 29.3078 49.2188 33.5938 49.2188C40.4859 49.2188 46.0938 43.6109 46.0938 36.7188C46.0938 33.2906 44.7055 30.1828 42.4633 27.9219C46.3203 27.0773 49.2188 23.6383 49.2188 19.5312ZM30.5797 42.1875C30.1242 40.8586 29.7937 39.2961 29.7164 37.5H37.4719C37.3937 39.293 37.0609 40.857 36.6031 42.1875H30.5797ZM35.9711 43.75C35.1367 45.5242 34.1672 46.7258 33.5922 47.3422C33.0148 46.7266 32.043 45.5281 31.2086 43.75H35.9711ZM31.2164 29.6875C32.0508 27.9141 33.0203 26.7125 33.5953 26.0953C34.1727 26.7102 35.1445 27.9094 35.9789 29.6875H31.2164ZM36.6078 31.25C37.0633 32.5789 37.3937 34.1414 37.4711 35.9375H29.7156C29.7937 34.1445 30.1266 32.5805 30.5852 31.25H36.6078ZM29.4914 29.6875H25.2281C26.8375 27.775 29.0891 26.4273 31.6477 25.9648C30.9648 26.8375 30.1625 28.0766 29.4914 29.6875ZM24.1359 31.25H28.925C28.5094 32.607 28.2227 34.1727 28.1539 35.9375H22.6961C22.8164 34.2383 23.3242 32.6477 24.1359 31.25ZM28.1531 37.5C28.2227 39.2648 28.5086 40.8305 28.9242 42.1875H24.1352C23.3234 40.7898 22.8156 39.1992 22.6945 37.5H28.1531ZM39.0344 37.5H44.4922C44.3711 39.1992 43.8633 40.7898 43.0516 42.1875H38.2625C38.6781 40.8305 38.9648 39.2648 39.0344 37.5ZM39.0344 35.9375C38.9648 34.1727 38.6789 32.607 38.2633 31.25H43.0523C43.8641 32.6477 44.3719 34.2383 44.493 35.9375H39.0344ZM37.6961 29.6875C37.025 28.0766 36.2227 26.8375 35.5398 25.9648C38.0984 26.4273 40.3492 27.775 41.9594 29.6875H37.6961ZM14.8438 25.8734L15.8508 26.3773L15.207 27.3438H14.4812L13.8367 26.3773L14.8438 25.8734ZM12.4281 27.0813L13.2008 28.2406L12.4086 30.618C11.8961 29.6945 11.468 28.7305 11.1281 27.732L12.4281 27.0813ZM14.6258 28.9062H15.0625L16.2023 32.325C15.782 32.9133 15.3383 33.4867 14.8438 34.0266C14.3492 33.4867 13.9055 32.9133 13.4852 32.325L14.6258 28.9062ZM17.2797 30.618L16.4875 28.2406L17.2602 27.0813L18.5609 27.7312C18.2203 28.7305 17.7922 29.6945 17.2797 30.618ZM19.4891 22.8813C19.4305 24.0133 19.268 25.1242 19.0039 26.207L16.1617 24.7859L18.2437 22.7039L19.4891 22.8813ZM21.0938 14.0625V10.9375C21.9555 10.9375 22.6562 11.6383 22.6562 12.5C22.6562 13.3617 21.9555 14.0625 21.0938 14.0625ZM7.03125 12.5C7.03125 11.6383 7.73203 10.9375 8.59375 10.9375H8.62266C8.61094 11.0945 8.59375 11.2508 8.59375 11.4102V14.0625C7.73203 14.0625 7.03125 13.3617 7.03125 12.5ZM8.95312 9.375H8.59375C8.20078 9.375 7.82891 9.45625 7.48203 9.58906C7.27578 8.87031 7.03125 7.85078 7.03125 7.03125C7.03125 6.16953 7.73203 5.46875 8.59375 5.46875H8.98438L9.82891 4.34219C10.7672 3.09063 12.2617 2.34375 13.8258 2.34375C14.4094 2.34375 14.9836 2.44453 15.5336 2.64453L20.6727 4.51328C21.8586 4.94453 22.6562 6.08281 22.6562 7.34531C22.6562 7.59141 22.6258 7.83672 22.5695 8.06328L22.1641 9.57578C21.8289 9.45234 21.4711 9.375 21.0938 9.375H20.3125C16.693 9.375 12.1969 6.41094 12.1523 6.38047L11.718 6.09219L11.2852 6.38125C10.1875 7.11328 9.38437 8.16953 8.95312 9.375ZM10.1562 14.0625V11.4102C10.1562 10.075 10.7461 8.825 11.7555 7.97813C12.9766 8.72422 16.3445 10.6172 19.5312 10.9008V14.0625C19.5312 16.6477 17.4289 18.75 14.8438 18.75C12.2586 18.75 10.1562 16.6477 10.1562 14.0625ZM14.8438 20.3125C15.4906 20.3125 16.1156 20.2133 16.7023 20.0305L17.1031 21.6359L14.8438 23.8953L12.5844 21.6359L12.9852 20.0305C13.5719 20.2133 14.1969 20.3125 14.8438 20.3125ZM11.443 22.7039L13.525 24.7859L10.6828 26.207C10.4195 25.1242 10.2563 24.0133 10.1977 22.8813L11.443 22.7039ZM7.03125 42.1875V30.4688H5.46875V42.1875H2.34375V29.7375C2.34375 27.5219 3.44453 25.4648 5.28828 24.2359C6.10391 23.6922 7.04922 23.3305 8.02109 23.1914L8.62891 23.1047C8.90781 27.8672 10.8984 32.3141 14.2914 35.7078L14.8438 36.2609L15.3961 35.7086C18.7891 32.3148 20.7797 27.868 21.0586 23.1055L21.6664 23.1922C22.6383 23.3313 23.5836 23.693 24.3992 24.2367C25.257 24.8086 25.9531 25.5766 26.4617 26.4672C23.2219 28.7281 21.0938 32.4773 21.0938 36.7188C21.0938 38.6813 21.5609 40.5328 22.3711 42.1875H7.03125ZM25.2281 43.75H29.4914C30.1625 45.3609 30.9648 46.6 31.6477 47.4727C29.0891 47.0102 26.8375 45.6625 25.2281 43.75ZM35.5398 47.4727C36.2227 46.6 37.025 45.3609 37.6961 43.75H41.9594C40.35 45.6625 38.0984 47.0102 35.5398 47.4727ZM40.8383 26.5516C39.2977 25.45 37.4992 24.6961 35.55 24.3875C34.2906 23.0727 33.5938 21.3594 33.5938 19.5312C33.5938 15.6547 36.7477 12.5 40.625 12.5C44.5023 12.5 47.6562 15.6547 47.6562 19.5312C47.6562 23.3359 44.6164 26.4375 40.8383 26.5516Z" fill="white"/>
</svg>
