<svg width="50" height="50" viewBox="0 0 50 50" fill="none" xmlns="http://www.w3.org/2000/svg">
<path d="M3.90625 3.90625H5.46875V5.46875H3.90625V3.90625Z" fill="#1357DD"/>
<path d="M7.03125 3.90625H8.59375V5.46875H7.03125V3.90625Z" fill="#1357DD"/>
<path d="M10.1562 3.90625H11.7188V5.46875H10.1562V3.90625Z" fill="#1357DD"/>
<path d="M49.2188 20.3125C49.2188 14.9398 46.0062 10.3125 41.4062 8.22344V3.125C41.4062 1.83281 40.3547 0.78125 39.0625 0.78125H3.125C1.83281 0.78125 0.78125 1.83281 0.78125 3.125V37.5C0.78125 38.7922 1.83281 39.8438 3.125 39.8438H31.25V44.5312C31.25 47.1164 33.3523 49.2188 35.9375 49.2188C38.5227 49.2188 40.625 47.1164 40.625 44.5312V35.1562H39.0625V33.207C44.8805 31.7961 49.2188 26.5578 49.2188 20.3125ZM47.6562 20.3125C47.6562 26.7742 42.3992 32.0312 35.9375 32.0312C32.8367 32.0312 30.0211 30.8117 27.9227 28.8383L29.0555 27.7594C30.8672 29.4352 33.2812 30.4688 35.9375 30.4688C41.5375 30.4688 46.0938 25.9125 46.0938 20.3125C46.0938 14.7125 41.5375 10.1562 35.9375 10.1562C30.3375 10.1562 25.7812 14.7125 25.7812 20.3125C25.7812 22.6945 26.6109 24.8828 27.9898 26.6172L26.8523 27.7008C25.2078 25.6828 24.2188 23.1117 24.2188 20.3125C24.2188 13.8508 29.4758 8.59375 35.9375 8.59375C42.3992 8.59375 47.6562 13.8508 47.6562 20.3125ZM40.625 24.2188V15.625H32.0312V17.1875H37.8906L29.1273 25.5336C28.0133 24.0844 27.3438 22.2773 27.3438 20.3125C27.3438 15.5742 31.1992 11.7188 35.9375 11.7188C40.6758 11.7188 44.5312 15.5742 44.5312 20.3125C44.5312 25.0508 40.6758 28.9062 35.9375 28.9062C33.7258 28.9062 31.7125 28.0594 30.1883 26.6812L39.0625 18.2289V24.2188H40.625ZM3.125 2.34375H39.0625C39.493 2.34375 39.8438 2.69453 39.8438 3.125V7.61953C38.6078 7.23828 37.2969 7.03125 35.9375 7.03125H2.34375V3.125C2.34375 2.69453 2.69453 2.34375 3.125 2.34375ZM2.34375 37.5V8.59375H29.7008C25.5141 10.8313 22.6562 15.243 22.6562 20.3125C22.6562 23.5289 23.807 26.4812 25.7164 28.782L23.4508 30.9398L16.4062 23.8953L3.90625 36.3953V38.2812H3.125C2.69453 38.2812 2.34375 37.9313 2.34375 37.5ZM10.1562 32.3547L13.2812 29.2297V38.2812H10.1562V32.3547ZM8.59375 38.2812H5.46875V37.0422L8.59375 33.9172V38.2812ZM14.8438 27.6672L16.4062 26.1047L17.9688 27.6672V38.2812H14.8438V27.6672ZM19.5312 29.2297L22.6562 32.3547V38.2812H19.5312V29.2297ZM31.25 35.1562V38.2812H24.2188V32.3664L26.7898 29.9172C28.4492 31.4984 30.5133 32.6492 32.8125 33.207V35.1562H31.25ZM39.0625 44.5312C39.0625 46.2547 37.6609 47.6562 35.9375 47.6562C34.2141 47.6562 32.8125 46.2547 32.8125 44.5312V36.7188H39.0625V44.5312ZM37.5 35.1562H34.375V33.4938C34.8883 33.5539 35.4078 33.5938 35.9375 33.5938C36.4672 33.5938 36.9867 33.5539 37.5 33.4938V35.1562Z" fill="#000D3B"/>
<path d="M6.25 14.8438C7.54219 14.8438 8.59375 13.7922 8.59375 12.5C8.59375 11.2078 7.54219 10.1562 6.25 10.1562C4.95781 10.1562 3.90625 11.2078 3.90625 12.5C3.90625 13.7922 4.95781 14.8438 6.25 14.8438ZM6.25 11.7188C6.68047 11.7188 7.03125 12.0695 7.03125 12.5C7.03125 12.9305 6.68047 13.2812 6.25 13.2812C5.81953 13.2812 5.46875 12.9305 5.46875 12.5C5.46875 12.0695 5.81953 11.7188 6.25 11.7188Z" fill="#1357DD"/>
<path d="M10.1562 10.1562H21.0938V11.7188H10.1562V10.1562Z" fill="#1357DD"/>
<path d="M10.1562 13.2812H21.0938V14.8438H10.1562V13.2812Z" fill="#1357DD"/>
<path d="M6.25 21.0938C7.54219 21.0938 8.59375 20.0422 8.59375 18.75C8.59375 17.4578 7.54219 16.4062 6.25 16.4062C4.95781 16.4062 3.90625 17.4578 3.90625 18.75C3.90625 20.0422 4.95781 21.0938 6.25 21.0938ZM6.25 17.9688C6.68047 17.9688 7.03125 18.3195 7.03125 18.75C7.03125 19.1805 6.68047 19.5312 6.25 19.5312C5.81953 19.5312 5.46875 19.1805 5.46875 18.75C5.46875 18.3195 5.81953 17.9688 6.25 17.9688Z" fill="#1357DD"/>
<path d="M10.1562 16.4062H21.0938V17.9688H10.1562V16.4062Z" fill="#1357DD"/>
<path d="M10.1562 19.5312H21.0938V21.0938H10.1562V19.5312Z" fill="#1357DD"/>
<path d="M35.1562 41.4062H36.7188V42.9688H35.1562V41.4062Z" fill="#1357DD"/>
<path d="M35.1562 38.2812H36.7188V39.8438H35.1562V38.2812Z" fill="#1357DD"/>
<path d="M35.1562 44.5312H36.7188V46.0938H35.1562V44.5312Z" fill="#1357DD"/>
</svg>
