<svg width="50" height="50" viewBox="0 0 50 50" fill="none" xmlns="http://www.w3.org/2000/svg">
<g clip-path="url(#clip0)">
<path d="M42.0961 31.6914V13.7771C42.0961 13.2208 41.6409 12.8364 41.0845 12.8364H37.1699C36.6136 12.8364 36.128 13.2208 36.128 13.7771V29.9414C35.4806 29.9617 34.8333 30.0426 34.2061 30.1943V19.0573C34.2061 18.501 33.7307 18.0964 33.1744 18.0964H29.2597C28.7034 18.0964 28.2381 18.4909 28.2381 19.0573V34.1595C27.0344 35.8488 26.387 37.882 26.3971 39.9657C26.3971 45.5089 30.8883 50.0001 36.4214 50.0001C41.9646 50.0001 46.4558 45.5089 46.4558 39.9758C46.4558 36.658 44.8272 33.5627 42.0961 31.6914ZM38.1511 14.8595H40.073V30.6192C39.456 30.3764 38.8086 30.1943 38.1511 30.0932V14.8595ZM30.2611 20.1195H32.183V30.8923C31.5053 31.2058 30.8579 31.5902 30.2611 32.0454V20.1195ZM43.32 44.0422C41.8735 46.48 39.2537 47.9669 36.4315 47.9669C32.0111 47.9669 28.4303 44.376 28.4303 39.9657C28.4303 36.7288 30.3825 33.8055 33.3767 32.5714C33.498 32.5512 33.6093 32.5006 33.7105 32.4399C34.5804 32.1162 35.511 31.9544 36.4416 31.9544C36.654 31.9544 36.8563 31.9645 37.0687 31.9847H37.0789C38.2927 32.0758 39.4762 32.45 40.5181 33.0772C44.3213 35.3329 45.5757 40.2388 43.32 44.0422Z" fill="#000D3B"/>
<path d="M36.3249 39.3275C35.8242 39.3275 35.4236 38.927 35.4236 38.4262C35.4236 37.9255 35.817 37.525 36.3177 37.5178C36.8184 37.5178 37.219 37.9255 37.219 38.4191C37.219 38.8125 37.5409 39.1344 37.9343 39.1344C38.3349 39.1344 38.6568 38.8197 38.6639 38.4191C38.6639 37.4606 38.0774 36.5951 37.1833 36.2446V35.6509C37.1833 35.2574 36.8614 34.9355 36.4679 34.9355C36.0745 34.9355 35.7526 35.2574 35.7526 35.6509V36.1659C34.508 36.4878 33.7569 37.761 34.0788 39.0056C34.3363 40.0357 35.2591 40.751 36.3177 40.751C36.8113 40.751 37.2119 41.1587 37.2119 41.6523C37.2119 42.1458 36.8041 42.5464 36.3106 42.5464C35.817 42.5464 35.4164 42.1387 35.4164 41.6451C35.4164 41.2517 35.0945 40.9298 34.7011 40.9298C34.3077 40.9298 33.993 41.2446 34.0001 41.638V41.6451C34.0073 42.7038 34.7226 43.6337 35.7455 43.8984V44.2202C35.7455 44.6137 36.0674 44.9355 36.4608 44.9355C36.8542 44.9355 37.1761 44.6137 37.1761 44.2202V43.8268C38.3778 43.3547 38.9644 42.0028 38.4994 40.8082C38.1489 39.9141 37.2834 39.3275 36.3249 39.3275Z" fill="#1357DD"/>
<path d="M17.3134 26.1885H13.3685C12.8121 26.1885 12.3569 26.6437 12.3569 27.2V43.0811C12.3569 43.6374 12.8121 44.0926 13.3685 44.0926H17.3134C17.8698 44.0926 18.325 43.6374 18.325 43.0811V27.2C18.325 26.6437 17.8698 26.1885 17.3134 26.1885ZM16.3019 42.1707H14.38V28.2115H16.3019V42.1707Z" fill="#000D3B"/>
<path d="M25.3046 23.8623H21.3597C20.8033 23.8623 20.3481 24.3175 20.3481 24.8738V43.1826C20.3481 43.7389 20.8033 44.1941 21.3597 44.1941H25.3046C25.861 44.1941 26.3162 43.7389 26.3162 43.1826V24.8738C26.3162 24.3175 25.861 23.8623 25.3046 23.8623ZM24.2931 42.171H22.3712V25.8854H24.2931V42.171Z" fill="#000D3B"/>
<path d="M9.32271 34.8877H5.37774C4.8214 34.8877 4.36621 35.3429 4.36621 35.8992V43.0811C4.36621 43.6374 4.8214 44.0926 5.37774 44.0926H9.32271C9.87905 44.0926 10.3342 43.6374 10.3342 43.0811V35.8992C10.3342 35.3429 9.87905 34.8877 9.32271 34.8877ZM8.31118 42.1707H6.38927V36.9108H8.31118V42.1707Z" fill="#000D3B"/>
<path d="M41.9442 0L35.0253 0.0101153C34.469 0 34.0138 0.455189 34.0037 1.01153C33.9936 1.56787 34.4488 2.02306 35.0051 2.03318C35.0152 2.03318 35.0152 2.03318 35.0253 2.03318L39.5064 2.02306L28.5313 12.9577L24.6976 9.15436C24.5054 8.97228 24.2424 8.88125 23.9794 8.89136C23.7164 8.88125 23.4534 8.97228 23.2612 9.15436L3.83982 28.5758C3.44532 28.9703 3.44532 29.6075 3.83982 29.9919C4.03201 30.1841 4.28489 30.2853 4.55801 30.2853C4.83112 30.2853 5.084 30.1841 5.27619 29.9919L23.9895 11.2786L27.8232 15.1426C28.0053 15.3449 28.2683 15.4562 28.5414 15.4663C28.8145 15.4562 29.0674 15.3348 29.2596 15.1426L40.9327 3.45944L40.9226 7.96075C40.9226 8.52721 41.3676 8.9824 41.9341 9.00263C42.5006 8.99251 42.9456 8.52721 42.9456 7.96075L42.9557 1.02165C42.9557 0.465305 42.5006 0 41.9442 0Z" fill="#1357DD"/>
</g>
<defs>
<clipPath id="clip0">
<rect width="50" height="50" fill="white"/>
</clipPath>
</defs>
</svg>
