<svg width="50" height="50" viewBox="0 0 50 50" fill="none" xmlns="http://www.w3.org/2000/svg">
<g clip-path="url(#clip0)">
<path d="M47.9886 25.5069H40.321V4.09014C40.321 3.68535 39.9929 3.35732 39.5882 3.35732C39.1835 3.35732 38.8554 3.68535 38.8554 4.09014V9.67275H9.39531C8.99062 9.67275 8.6625 10.0008 8.6625 10.4056C8.6625 10.8104 8.99062 11.1384 9.39531 11.1384H38.8555V35.6126C38.8555 35.7474 38.7459 35.8568 38.6112 35.8568H2.18486C2.0502 35.8568 1.94063 35.7473 1.94063 35.6126V11.1383H10.7336C11.1383 11.1383 11.4664 10.8103 11.4664 10.4055C11.4664 10.0007 11.1383 9.67266 10.7336 9.67266H1.94063V1.70977C1.94063 1.575 2.0502 1.46553 2.18486 1.46553H38.6111C38.7458 1.46553 38.8554 1.5751 38.8554 1.70977V5.44394C38.8554 5.84873 39.1835 6.17676 39.5882 6.17676C39.9929 6.17676 40.321 5.84873 40.321 5.44394V1.70986C40.321 0.766992 39.5539 0 38.6111 0H2.18486C1.24209 0 0.475098 0.766992 0.475098 1.70986V35.6125C0.475098 36.5553 1.24209 37.3224 2.18496 37.3224H9.67949V48.2902C9.67949 49.233 10.4465 50.0001 11.3894 50.0001H17.7623C18.167 50.0001 18.4951 49.6721 18.4951 49.2673C18.4951 48.8625 18.167 48.5345 17.7623 48.5345H11.3894C11.2547 48.5345 11.1451 48.4249 11.1451 48.2902V37.3223H38.6113C39.2542 37.3223 39.8148 36.9652 40.1067 36.4395L48.0599 27.2132V48.2901C48.0599 48.4249 47.9503 48.5344 47.8156 48.5344H16.3779C15.9732 48.5344 15.6451 48.8624 15.6451 49.2672C15.6451 49.672 15.9732 50 16.3779 50H47.8155C48.7583 50 49.5254 49.233 49.5254 48.2901V27.0438C49.5253 26.1964 48.8359 25.5069 47.9886 25.5069ZM46.3324 26.9725L40.321 33.9462V26.9725H46.3324Z" fill="#000D3B"/>
<path d="M5.46738 14.5867C5.16123 14.6821 4.95264 14.9656 4.95264 15.2863V22.5329C4.95264 22.9377 5.28076 23.2657 5.68545 23.2657C6.09014 23.2657 6.41826 22.9377 6.41826 22.5329V17.637L9.98232 22.7981C10.2047 23.1192 10.5726 23.2564 10.9198 23.1481C11.2757 23.0369 11.5058 22.6994 11.5057 22.2812L11.4378 15.2657C11.4339 14.8635 11.1066 14.54 10.7052 14.54C10.7028 14.54 10.7004 14.54 10.6979 14.54C10.2933 14.5439 9.96846 14.8752 9.97236 15.2799L10.0207 20.2746L6.28838 14.8699C6.10615 14.6061 5.77344 14.4913 5.46738 14.5867Z" fill="#1357DD"/>
<path d="M17.1039 16.0718C17.5086 16.0718 17.8367 15.7438 17.8367 15.339C17.8367 14.9342 17.5086 14.6062 17.1039 14.6062H14.0727C13.668 14.6062 13.3398 14.9342 13.3398 15.339V22.5329C13.3398 22.9376 13.668 23.2657 14.0727 23.2657H17.1039C17.5086 23.2657 17.8367 22.9376 17.8367 22.5329C17.8367 22.1281 17.5086 21.8 17.1039 21.8H14.8055V19.6688H16.8804C17.2851 19.6688 17.6132 19.3408 17.6132 18.936C17.6132 18.5312 17.2851 18.2032 16.8804 18.2032H14.8055V16.0718H17.1039Z" fill="#1357DD"/>
<path d="M32.1836 21.8334C31.4135 21.8334 30.6707 21.5211 30.1966 20.9979C29.9249 20.698 29.4616 20.6753 29.1616 20.9469C28.8618 21.2188 28.8389 21.6821 29.1107 21.982C29.858 22.8066 31.0068 23.2989 32.1836 23.2989C33.6056 23.2989 34.8451 22.3628 35.0666 21.1215C35.235 20.1788 34.7982 18.9441 33.0676 18.3057C32.1476 17.9664 31.2931 17.5962 31.0617 17.4945C30.8606 17.343 30.7635 17.1042 30.8006 16.8457C30.8489 16.5097 31.1105 16.239 31.5006 16.1216C32.6191 15.7848 33.6373 16.5975 33.6598 16.6156C33.9696 16.8733 34.4296 16.8325 34.6892 16.5237C34.9496 16.2139 34.9095 15.7516 34.5997 15.4912C34.5342 15.4361 32.9722 14.1477 31.0779 14.7181C30.1415 15.0002 29.4793 15.7356 29.3499 16.6374C29.2238 17.5104 29.6301 18.381 30.4034 18.8058C30.4452 18.8245 31.4399 19.2672 32.5604 19.6805C33.3205 19.961 33.7081 20.3922 33.6239 20.8636C33.5388 21.3404 32.9768 21.8334 32.1836 21.8334Z" fill="#1357DD"/>
<path d="M27.7311 14.6006C27.3341 14.5213 26.9484 14.7793 26.8694 15.1762L25.8933 20.0812L24.3557 15.0902C24.3513 15.076 24.3446 15.0632 24.3369 15.0511C24.2582 14.8513 24.0932 14.6877 23.8721 14.6191C23.4854 14.4997 23.075 14.716 22.9554 15.1025L21.4143 20.0815L20.4415 15.1637C20.363 14.7668 19.9774 14.5085 19.5805 14.5871C19.1835 14.6656 18.9253 15.0511 19.0038 15.4481L20.4184 22.5992C20.504 23.0077 20.8821 23.3038 21.2977 23.2989C21.6791 23.2964 22.0178 23.0518 22.1405 22.6907C22.1427 22.6845 22.1447 22.678 22.1468 22.6717L23.6559 17.7962L25.1582 22.6728C25.1612 22.6828 25.1644 22.6926 25.168 22.7023C25.2949 23.0598 25.6339 23.2989 26.0129 23.2989C26.4275 23.301 26.801 23.0048 26.8867 22.598L28.3069 15.4623C28.3857 15.0653 28.128 14.6796 27.7311 14.6006Z" fill="#1357DD"/>
<path d="M4.79443 26.5917C4.79443 26.9965 5.12256 27.3245 5.52725 27.3245H17.4691C17.8738 27.3245 18.202 26.9965 18.202 26.5917C18.202 26.1869 17.8738 25.8589 17.4691 25.8589H5.52725C5.12256 25.8589 4.79443 26.1869 4.79443 26.5917Z" fill="#000D3B"/>
<path d="M17.469 29.2476H5.52725C5.12256 29.2476 4.79443 29.5756 4.79443 29.9804C4.79443 30.3852 5.12256 30.7132 5.52725 30.7132H17.4691C17.8738 30.7132 18.202 30.3852 18.202 29.9804C18.2019 29.5756 17.8738 29.2476 17.469 29.2476Z" fill="#000D3B"/>
<path d="M21.2432 26.5917C21.2432 26.9965 21.5713 27.3245 21.976 27.3245H33.9179C34.3226 27.3245 34.6507 26.9965 34.6507 26.5917C34.6507 26.1869 34.3226 25.8589 33.9179 25.8589H21.976C21.5712 25.8589 21.2432 26.1869 21.2432 26.5917Z" fill="#000D3B"/>
<path d="M33.9178 29.2476H21.976C21.5713 29.2476 21.2432 29.5756 21.2432 29.9804C21.2432 30.3852 21.5713 30.7132 21.976 30.7132H33.9179C34.3226 30.7132 34.6507 30.3852 34.6507 29.9804C34.6506 29.5756 34.3226 29.2476 33.9178 29.2476Z" fill="#000D3B"/>
<path d="M15.4071 40.8899H27.349C27.7537 40.8899 28.0818 40.5619 28.0818 40.1571C28.0818 39.7523 27.7537 39.4243 27.349 39.4243H15.4071C15.0024 39.4243 14.6743 39.7523 14.6743 40.1571C14.6743 40.5619 15.0023 40.8899 15.4071 40.8899Z" fill="#000D3B"/>
<path d="M15.4071 44.2791H27.349C27.7537 44.2791 28.0818 43.9511 28.0818 43.5463C28.0818 43.1415 27.7537 42.8135 27.349 42.8135H15.4071C15.0024 42.8135 14.6743 43.1415 14.6743 43.5463C14.6743 43.9511 15.0023 44.2791 15.4071 44.2791Z" fill="#000D3B"/>
<path d="M31.8559 40.8899H43.7978C44.2024 40.8899 44.5306 40.5619 44.5306 40.1571C44.5306 39.7523 44.2024 39.4243 43.7978 39.4243H31.8559C31.4512 39.4243 31.123 39.7523 31.123 40.1571C31.123 40.5619 31.4511 40.8899 31.8559 40.8899Z" fill="#000D3B"/>
<path d="M31.8559 44.2791H43.7978C44.2024 44.2791 44.5306 43.9511 44.5306 43.5463C44.5306 43.1415 44.2024 42.8135 43.7978 42.8135H31.8559C31.4512 42.8135 31.123 43.1415 31.123 43.5463C31.123 43.9511 31.4511 44.2791 31.8559 44.2791Z" fill="#000D3B"/>
<path d="M4.90625 4.90625H6.46875V6.46875H4.90625V4.90625Z" fill="#1357DD"/>
<path d="M8.03125 4.90625H9.59375V6.46875H8.03125V4.90625Z" fill="#1357DD"/>
<path d="M11.1562 4.90625H12.7188V6.46875H11.1562V4.90625Z" fill="#1357DD"/>
</g>
<defs>
<clipPath id="clip0">
<rect width="50" height="50" fill="white"/>
</clipPath>
</defs>
</svg>
