<svg width="70" height="70" viewBox="0 0 70 70" fill="none" xmlns="http://www.w3.org/2000/svg">
<path d="M57.5659 56.7168C56.9996 56.7168 56.5405 57.1759 56.5405 57.7422V67.3828C56.5405 67.6949 56.2865 67.9489 55.9743 67.9489H50.4623V47.756C50.4623 47.1897 50.0032 46.7306 49.4369 46.7306C48.8706 46.7306 48.4115 47.1897 48.4115 47.756V67.9491H37.312L40.5307 64.4081C40.8824 64.0211 41.0482 63.47 40.9743 62.9333C40.9729 62.9229 40.9712 62.9125 40.9695 62.9021L37.9038 44.7914L38.7297 43.5481C39.1864 43.8724 39.5382 44.1846 40.1978 44.1846C40.8688 44.1846 41.4962 43.8091 41.805 43.1908L45.0384 36.7102L52.4042 39.5629C52.6707 39.6771 56.5402 41.4198 56.5402 46.0212V59.5C56.5401 60.0662 56.9992 60.5254 57.5656 60.5254C58.1319 60.5254 58.591 60.0663 58.591 59.5V46.0212C58.591 39.9585 53.3999 37.7547 53.179 37.6638C53.1726 37.6611 53.166 37.6585 53.1595 37.656L40.9002 32.9083V30.0331C42.8473 28.5188 44.1974 26.2741 44.5363 23.713C45.5072 23.6447 46.408 23.2821 47.1437 22.6495C48.1044 21.8233 48.6557 20.6209 48.6557 19.351C48.6557 18.2972 48.2754 17.291 47.5979 16.5069V12.7084C47.5977 5.70104 41.8968 0 34.8895 0C27.8821 0 22.1812 5.70104 22.1812 12.7084V16.6064C21.4963 17.3826 21.1239 18.3379 21.1239 19.3509C21.1239 20.6212 21.6749 21.8235 22.6359 22.6498C23.371 23.2821 24.2713 23.6443 25.2419 23.7128C25.5836 26.3218 26.973 28.6502 29.086 30.1849V32.9083L16.84 37.6559C16.8336 37.6584 16.8271 37.661 16.8207 37.6636C16.5996 37.7545 11.4087 39.9582 11.4087 46.0209V67.3825C11.4087 68.8256 12.5827 69.9996 14.0258 69.9996H23.7953C24.3616 69.9996 24.8207 69.5405 24.8207 68.9742C24.8207 68.4079 24.3616 67.9488 23.7953 67.9488H21.589V47.756C21.589 47.1897 21.1299 46.7306 20.5637 46.7306C19.9974 46.7306 19.5383 47.1897 19.5383 47.756V67.9491H14.0259C13.7138 67.9491 13.4597 67.6951 13.4597 67.3829V46.021C13.4597 41.4042 17.3553 39.6655 17.5945 39.5633L24.9546 36.7099L28.1883 43.1907C28.4977 43.8104 29.1259 44.1846 29.7956 44.1846C30.452 44.1846 30.8003 43.8772 31.2637 43.5481L32.0896 44.7914L29.0242 62.9022C29.0224 62.9125 29.0209 62.9228 29.0194 62.9331C28.9453 63.4696 29.1112 64.021 29.4629 64.4082L32.6817 67.9492H28.5808C28.0145 67.9492 27.5554 68.4083 27.5554 68.9746C27.5554 69.5409 28.0145 70 28.5808 70H55.9745C57.4176 70 58.5916 68.8259 58.5916 67.3829V57.7423C58.5913 57.1759 58.1322 56.7168 57.5659 56.7168ZM43.1176 35.9665L40.1031 42.0081C40.0282 41.9549 38.4306 40.8198 36.4777 39.4331C37.3251 38.3871 36.3337 39.6107 40.2012 34.837L43.1176 35.9665ZM37.0566 42.36L36.2748 43.5367H33.7178L32.936 42.36L34.9964 40.8967L37.0566 42.36ZM31.1367 33.2392V31.3202C32.3824 31.8224 33.7138 32.0552 35.014 32.0552C36.3584 32.0552 37.6767 31.7687 38.8492 31.256V33.2475L34.9964 38.0033L31.1367 33.2392ZM46.6047 19.351C46.6046 20.0227 46.3137 20.6583 45.8064 21.0946C45.4711 21.3831 45.066 21.5675 44.6223 21.6397V17.0628C45.8008 17.2542 46.6047 18.2317 46.6047 19.351ZM25.1571 21.6397C23.9652 21.4463 23.1747 20.4608 23.1747 19.3509C23.1747 18.2547 24.0835 17.3625 25.1571 17.1143V21.6397ZM25.2122 15.0248C24.8856 15.0623 24.5113 15.1508 24.2322 15.2456V12.7084C24.2322 6.83184 29.013 2.05092 34.8896 2.05092C40.7662 2.05092 45.547 6.83184 45.547 12.7084V15.1752C45.2489 15.0846 44.9398 15.0247 44.6225 14.9965C44.6225 14.0071 44.6311 14.198 41.3943 10.7181C40.799 10.0785 39.8143 9.94451 39.065 10.4341C35.4925 12.7678 31.1346 13.9401 27.1137 13.6514C26.2317 13.5853 25.4284 14.1663 25.2122 15.0248ZM27.208 22.447V16.0497V15.7127C31.6343 15.9719 36.275 14.6569 40.0239 12.256C41.5084 13.8499 42.3123 14.6859 42.5715 15.0039C42.5715 15.8084 42.5715 21.5261 42.5715 22.4469C42.5715 26.6096 39.1774 30.0042 35.0141 30.0042C30.3392 30.0043 27.208 26.3777 27.208 22.447ZM29.8898 42.0081L26.8753 35.9665L29.7864 34.8389L33.5108 39.4361C31.6168 40.781 30.0616 41.886 29.8898 42.0081ZM31.0662 63.1233L34.0343 45.5874H35.958L38.9261 63.1233L34.9962 67.4468L31.0662 63.1233Z" fill="white"/>
</svg>
