<svg width="170" height="20" viewBox="0 0 170 20" fill="none" xmlns="http://www.w3.org/2000/svg">
<path fill-rule="evenodd" clip-rule="evenodd" d="M155.612 19.1784C155.612 18.7353 155.955 18.3699 156.381 18.3699C156.802 18.3699 157.143 18.7353 157.143 19.1784C157.143 19.6364 156.802 20.0001 156.381 20.0001C155.955 20.0001 155.612 19.6364 155.612 19.1784ZM155.757 19.1784C155.757 19.5518 156.035 19.8401 156.381 19.8401C156.722 19.8401 156.994 19.5518 156.994 19.1784C156.994 18.8216 156.722 18.5299 156.381 18.5299C156.035 18.5299 155.757 18.8216 155.757 19.1784Z" fill="black"/>
<path fill-rule="evenodd" clip-rule="evenodd" d="M156.759 19.6417H156.616L156.37 19.2193H156.221V19.6417H156.097V18.7285H156.466C156.541 18.7285 156.609 18.7337 156.675 18.774C156.738 18.8108 156.769 18.8925 156.769 18.9679C156.769 19.148 156.652 19.2136 156.498 19.2193L156.759 19.6417ZM156.36 19.1077C156.482 19.1077 156.647 19.1319 156.647 18.965C156.647 18.8465 156.551 18.8338 156.44 18.8338H156.221V19.1077H156.36Z" fill="black"/>
<path d="M152.754 20.0001C158.085 15.006 165.576 10.139 169.683 8.39779C169.044 7.95172 168.052 7.31177 166.944 6.6167C161.647 8.52855 155.455 12.7897 149.912 17.6024C150.856 18.3516 151.83 19.1753 152.754 20.0001Z" fill="#A6A8AA"/>
<path d="M150.309 6.42151C149.516 6.01858 148.668 5.61605 147.987 5.28442C145.976 6.36802 143.37 8.02055 140.065 10.5912C140.786 11.0059 141.545 11.5022 142.36 12.0048C144.902 9.94423 147.469 7.99159 150.309 6.42151Z" fill="black"/>
<path d="M155.054 4.01503C154.097 3.41802 150.729 2.08406 148.421 1.49658C147.74 1.78344 146.774 2.18789 146.113 2.49216C146.939 2.74766 150.071 3.65258 152.736 5.12892C153.446 4.77737 154.387 4.32615 155.054 4.01503Z" fill="#A6A8AA"/>
<path d="M143.705 3.65527C140.724 5.15568 137.618 7.2201 135.919 8.39759C136.522 8.69372 137.132 8.9523 137.973 9.40453C141.725 6.62393 144.667 4.93932 145.846 4.37453C145.01 4.06804 144.21 3.82137 143.705 3.65527Z" fill="black"/>
<path d="M157.285 3.17613C157.96 2.93706 158.767 2.69705 159.448 2.48798C157.456 1.57085 154.971 0.609139 152.754 0C152.407 0.103698 151.343 0.424505 150.586 0.676173C151.353 0.881027 153.875 1.51805 157.285 3.17613Z" fill="#A6A8AA"/>
<path d="M144.766 13.6031C145.57 14.1381 146.448 14.8644 147.284 15.4665C152.842 10.7532 158.324 7.09777 164.358 5.03651C163.519 4.57383 162.784 4.15848 161.854 3.6604C158.228 4.66829 152.075 7.37022 144.766 13.6031Z" fill="#A6A8AA"/>
<path d="M122.661 15.5709C123.696 16.384 125.01 16.7905 125.939 16.7905C126.815 16.7905 127.226 16.4276 127.226 15.8904C127.226 15.295 126.682 15.0482 125.395 14.54C123.497 13.785 122.687 12.7832 122.687 11.3602C122.687 9.45818 124.147 8.18042 126.178 8.18042C127.173 8.18042 128.274 8.48533 128.898 8.80477V11.0553C127.956 10.46 127.027 10.1551 126.244 10.1551C125.408 10.1551 124.89 10.5036 124.89 11.0844C124.89 11.6651 125.421 11.8829 126.668 12.3621C128.659 13.1316 129.482 14.1335 129.482 15.629C129.482 17.5601 128.075 18.7797 125.925 18.7797C124.665 18.7797 123.351 18.3587 122.661 17.9376V15.5709Z" fill="black"/>
<path d="M113.521 8.39868H119.918L119.52 10.3443H115.777V12.4642H119.002V14.3517H115.777V16.6167H119.865V18.5624H113.521V8.39868Z" fill="black"/>
<path d="M107.7 8.39868H109.956V17.9815V18.5624H107.7V8.39868Z" fill="black"/>
<path d="M101.987 10.4314V18.5624H99.731V10.4314H97.1431V8.39868H104.575V10.4314H101.987Z" fill="black"/>
<path d="M91.6411 8.39868H93.8972V17.8591V18.5624H91.6411V8.39868Z" fill="black"/>
<path d="M83.9396 14.555H83.3691V18.5624H81.1528V8.39868H84.7226C87.0052 8.39868 88.0139 9.6183 88.0139 11.4623C88.0139 12.8997 87.4033 13.8726 86.1426 14.2501L88.4652 18.5624H85.9835L83.9396 14.555ZM83.3691 10.2717V12.8707H84.3245C85.2536 12.8707 85.7445 12.4351 85.7445 11.5639C85.7445 10.7218 85.2536 10.2717 84.3245 10.2717H83.3691Z" fill="black"/>
<path d="M69.6821 14.4824V8.39868H71.9383V14.2355C71.9383 15.8617 72.4956 16.6022 73.677 16.6022C74.8581 16.6022 75.4153 15.8617 75.4153 14.2355V8.39868H77.6716V14.4824C77.6716 17.2265 76.331 18.7801 73.677 18.7801C71.0226 18.7801 69.6821 17.2265 69.6821 14.4824Z" fill="black"/>
<path d="M66.455 18.1264C65.6588 18.591 64.7564 18.7797 63.7212 18.7797C60.6025 18.7797 58.6914 16.4856 58.6914 13.4801C58.6914 10.5036 60.629 8.18042 63.7079 8.18042C64.7033 8.18042 65.5791 8.36921 66.3489 8.83383V11.1279C65.5128 10.4745 64.7696 10.2422 63.9999 10.2422C62.3144 10.2422 61.12 11.5345 61.12 13.4801C61.12 15.4257 62.3144 16.718 64.053 16.718C64.8227 16.718 65.5791 16.4856 66.455 15.8322V18.1264Z" fill="black"/>
<path d="M49.8081 8.39868H56.2048L55.8066 10.3443H52.0642V12.4642H55.2891V14.3517H52.0642V16.6167H56.1517V18.5624H49.8081V8.39868Z" fill="black"/>
<path d="M39.877 15.5709C40.9121 16.384 42.226 16.7905 43.1549 16.7905C44.0309 16.7905 44.4423 16.4276 44.4423 15.8904C44.4423 15.295 43.8982 15.0482 42.6108 14.54C40.7131 13.785 39.9034 12.7832 39.9034 11.3602C39.9034 9.45818 41.3634 8.18042 43.3938 8.18042C44.3891 8.18042 45.4907 8.48533 46.1145 8.80477V11.0553C45.1721 10.46 44.2432 10.1551 43.4602 10.1551C42.6241 10.1551 42.1065 10.5036 42.1065 11.0844C42.1065 11.6651 42.6373 11.8829 43.8847 12.3621C45.8755 13.1316 46.6982 14.1335 46.6982 15.629C46.6982 17.5601 45.2916 18.7797 43.1417 18.7797C41.881 18.7797 40.5672 18.3587 39.877 17.9376V15.5709Z" fill="black"/>
<path d="M30.6197 8.39819H28.3237L24.8467 18.5621H27.1559L27.7795 16.4568H31.1373L31.761 18.5621H34.0968L30.6197 8.39819ZM29.4783 10.8231L30.5798 14.5694H28.3503L29.4783 10.8231Z" fill="black"/>
<path d="M24.0011 7.90967C23.3968 7.60115 23.1264 7.50288 22.6204 7.40803C22.3146 7.35762 22.0479 7.33203 21.8272 7.33203C20.0116 7.33203 18.9278 8.60033 18.9278 10.7247V11.4019H17.9072V13.1033H18.9278V18.562H20.8991V13.1033H22.2152V11.4019H20.8991V11.2094C20.8991 10.181 20.9713 9.8838 21.1729 9.56496C21.3379 9.3124 21.5799 9.19477 21.9347 9.19477C22.3257 9.19477 22.6175 9.29244 23.1354 9.59661L23.2948 9.69018L24.1856 8.00384L24.0011 7.90967Z" fill="black"/>
<path d="M9.62451 14.9415C9.62451 12.7933 11.0228 11.1167 13.197 11.1167C15.3711 11.1167 16.7695 12.7933 16.7695 14.9415C16.7695 17.0896 15.3711 18.7662 13.197 18.7662C11.0228 18.7662 9.62451 17.0896 9.62451 14.9415ZM14.7537 14.9415C14.7537 13.706 14.0761 12.9471 13.197 12.9471C12.3178 12.9471 11.6403 13.706 11.6403 14.9415C11.6403 16.1769 12.3178 16.9358 13.197 16.9358C14.0761 16.9358 14.7537 16.1769 14.7537 14.9415Z" fill="black"/>
<path d="M5.12265 13.2477C6.29064 12.9287 6.8214 12.1586 6.8214 11.0119C6.8214 9.55981 5.85257 8.39819 3.79565 8.39819H0V18.5621H4.06093C6.11805 18.5621 7.08688 17.4007 7.08688 15.76C7.08688 14.4384 6.44986 13.5384 5.12265 13.2477ZM2.21636 10.1843H3.27809C4.04774 10.1843 4.5653 10.547 4.5653 11.3749C4.5653 12.2026 4.04774 12.5656 3.27809 12.5656H2.21636V10.1843ZM3.53017 16.7763H2.21636V14.2498H3.53017C4.29982 14.2498 4.81744 14.6563 4.81744 15.5128C4.81744 16.4133 4.29982 16.7763 3.53017 16.7763Z" fill="black"/>
</svg>
