<svg width="116" height="26" viewBox="0 0 116 26" fill="none" xmlns="http://www.w3.org/2000/svg">
<path d="M11.7323 0.00131325H4.89536V0.614608H7.11191V13.1024C7.11191 16.8899 6.18854 17.9129 4.06446 17.9129C2.77127 17.9129 2.49391 16.7875 2.49391 16.2753C2.49391 14.9449 2.40145 14.0243 1.292 14.0243C0.183724 14.0243 0 15.2522 0 15.662C0 17.4021 0.738453 18.7324 3.78709 18.7324C7.48291 18.7324 9.42209 17.4021 9.42209 12.7964V0.613294H11.6398V0.00131325H11.7323ZM12.6568 15.8655C12.287 15.8655 11.9172 15.9706 11.7323 16.2753C11.4549 16.5826 11.3625 16.8899 11.3625 17.2996C11.3625 17.7067 11.4549 18.0154 11.7323 18.324C12.0096 18.63 12.287 18.7311 12.6568 18.7311C13.0255 18.7311 13.3028 18.6286 13.5802 18.324C13.8576 18.0167 13.95 17.7067 13.95 17.2996C13.95 16.8899 13.8576 16.5826 13.5802 16.2753C13.3028 15.968 13.0255 15.8655 12.6556 15.8655H12.6568ZM27.8076 15.8655C27.4377 15.8655 27.1604 15.9706 26.883 16.2753C26.6068 16.5826 26.5144 16.8899 26.5144 17.2996C26.5144 17.7067 26.6068 18.0154 26.883 18.324C27.1604 18.63 27.4377 18.7311 27.8076 18.7311C28.1774 18.7311 28.546 18.6286 28.7321 18.324C29.0083 18.0154 29.1007 17.7067 29.1007 17.2996C29.1007 16.8899 29.0083 16.5826 28.7309 16.2753C28.4536 15.968 28.1774 15.8655 27.8064 15.8655H27.8076ZM23.0023 0.00131325H16.3503V0.614608H18.2906V14.9463C18.2906 16.0717 18.1982 16.3777 18.1057 16.685C18.0133 17.0961 17.7359 17.3009 17.2736 17.5058C16.9975 17.6082 16.5352 17.7094 15.888 17.7094V18.324H23.0947V17.7094C22.4475 17.7094 21.9865 17.6082 21.7079 17.5058C21.2468 17.3009 20.9695 16.9936 20.8782 16.6863C20.7549 16.3268 20.6918 15.9454 20.6921 15.5609V10.6453H22.4475C27.6215 10.6453 29.0996 8.39438 29.0996 5.32266C29.0996 2.14981 28.2686 0 23.0023 0V0.00131325ZM22.0777 9.92959H20.6921V0.717042H21.894C25.866 0.717042 26.7894 2.55955 26.7894 5.42509C26.7894 8.39307 25.22 9.92959 22.0777 9.92959ZM50.4412 16.5826C50.3193 16.1872 50.2569 15.7724 50.2563 15.3547V0.614608H52.0106V0.00131325H47.7636C47.6711 0.206182 42.6833 13.9219 42.6833 13.9219L42.5908 14.0257C42.4984 14.0257 42.4984 14.0257 42.4984 13.9232C42.4984 13.9232 37.1408 0.103748 37.1408 0.00131325H32.4256V0.615921H34.4584V16.1742C34.4584 16.4828 34.3659 16.7901 34.181 17.0961C33.9961 17.4034 33.7187 17.6082 33.4414 17.7094C33.2565 17.8144 32.8878 17.8144 32.5168 17.8144V18.4264H37.1372V17.8118C36.7674 17.8118 36.5825 17.7094 36.3063 17.7094C35.9365 17.6069 35.7516 17.4021 35.5667 17.0948C35.3817 16.8899 35.2893 16.5826 35.2893 16.1742L35.1968 14.8425V2.55824H35.4742C35.4742 2.55824 41.479 18.1165 41.5715 18.3213H42.0337L47.7612 2.66199H47.9461V15.3547C47.9461 15.8669 47.8537 16.2753 47.7612 16.685C47.6687 17.0948 47.3926 17.2996 47.0227 17.5045C46.6357 17.6467 46.2297 17.7155 45.822 17.708V18.3227H52.2891V17.708C51.881 17.7156 51.4746 17.6468 51.0872 17.5045C50.811 17.2996 50.5337 16.9923 50.4412 16.5826ZM59.2173 4.91423C55.7064 4.91423 53.5823 7.47247 53.5823 11.8745C53.5823 18.4251 58.2015 18.8348 59.1248 18.8348C61.0652 18.8348 64.761 17.5045 64.761 11.7734C64.761 7.26892 62.3584 4.91423 59.2173 4.91423ZM59.1248 18.0154C56.5385 18.0154 56.0762 16.5839 56.0762 11.977C56.0762 8.39438 56.2611 5.7324 59.1248 5.7324C62.1735 5.7324 62.1735 8.4955 62.1735 11.7708C62.1735 16.3777 61.435 18.0154 59.1248 18.0154ZM73.8157 5.1191C71.7817 5.1191 71.0444 6.44944 70.4885 7.88221H70.3036C70.3036 7.88221 70.0274 5.83483 69.9349 5.32266H65.8693V6.0397H68.0858V15.0474C68.0858 15.968 67.9946 16.5839 67.8109 16.991C67.6248 17.4021 67.07 17.708 66.2391 17.708H65.8693V18.5275H72.7062V17.708H72.3364C71.4118 17.708 71.0444 17.5045 70.8571 17.0948C70.6734 16.685 70.5809 16.0704 70.5809 15.1498V10.2369C70.5809 8.70037 71.6892 6.85918 72.9836 6.85918C74.3692 6.85918 74.2756 9.11011 75.8473 8.18951C76.5869 7.67734 76.402 5.1191 73.8157 5.1191ZM100.699 16.991C99.959 16.991 99.7753 16.5839 99.6829 15.7644V8.59925C99.6829 7.37004 99.4968 6.65431 98.852 5.93595C98.2048 5.22022 97.0029 4.91161 95.2486 4.91161C93.5856 4.91161 92.3849 5.22022 91.5528 5.93595C90.8143 6.55187 90.4457 7.16517 90.4457 8.08708C90.4457 8.49419 90.5381 8.80281 90.7219 8.90524C90.9068 9.11011 91.1841 9.21255 91.4603 9.21255C92.1063 9.21255 92.4773 8.80544 92.661 7.88221C92.7559 7.16517 92.9384 6.75674 93.2169 6.34569C93.5844 5.93858 94.1415 5.7324 94.7863 5.7324C95.6184 5.7324 96.2644 5.93595 96.5418 6.44813C96.8191 6.9603 97.004 7.57491 97.004 8.39176V10.5429C94.8776 10.7478 89.7049 11.2586 89.9822 15.5582C90.0747 17.1959 91.369 18.7311 93.1233 18.7311C95.0637 18.7311 96.2632 17.5045 97.0941 16.5813C97.1878 17.5032 98.0187 18.63 99.4055 18.63C100.975 18.63 101.899 17.8105 101.993 15.6607H101.623C101.623 16.4801 101.161 16.9923 100.699 16.9923V16.991ZM97.189 15.5596V15.662L97.0965 15.7644C95.9882 16.8912 95.0649 17.3009 94.4177 17.3009C92.7547 17.3009 92.4773 15.7644 92.4773 15.0487C92.4773 12.5929 95.526 11.3637 97.189 11.3637V15.5596ZM114.557 16.8899C114.373 16.4815 114.095 15.8655 114.095 14.9463V9.00768C114.095 8.18951 114.003 7.37004 113.725 6.85918C113.448 6.24457 112.987 5.83483 112.525 5.52753C111.97 5.22022 111.416 5.1191 110.77 5.1191C108.368 5.1191 107.443 6.75674 106.89 7.67734H106.705L106.242 5.32266H102.547V6.0397H104.396V15.0474C104.396 15.7644 104.302 16.2753 104.21 16.5839C104.116 16.991 103.842 17.2996 103.564 17.4021C103.379 17.5045 103.009 17.6069 102.547 17.6069V18.4251H108.367V17.6069C107.812 17.5045 107.35 17.4021 107.166 17.0948C106.981 16.7875 106.797 16.1728 106.797 15.2522V11.7721C106.797 10.3406 106.797 8.90524 107.259 8.08708C107.72 7.16517 108.644 6.65431 109.568 6.65431C110.493 6.65431 110.954 6.96161 111.233 7.57491C111.509 8.08708 111.6 9.62228 111.6 10.6453V14.9449C111.6 15.6607 111.695 16.1728 111.6 16.4815C111.509 16.8886 111.416 17.1972 111.138 17.4007C110.954 17.6069 110.583 17.6069 110.214 17.708V18.5275H115.852V17.708C115.203 17.4021 114.742 17.1959 114.557 16.8899ZM88.1355 4.29963C87.7657 4.40206 87.5808 4.8118 87.3959 5.32397C87.3034 5.83615 87.1185 6.14214 86.8411 6.24326C86.5638 6.347 86.2876 6.347 86.0102 6.14214C85.3642 5.52753 84.2548 4.8118 82.2219 4.8118C78.8959 4.8118 77.5103 7.37004 77.5103 9.72341C77.5103 12.4878 78.4349 13.8195 80.5578 14.3303C80.6514 14.3303 80.6514 14.5352 80.5578 14.5352C78.8035 14.9449 77.1405 15.5596 77.1405 17.4021C77.1405 18.5288 77.6952 19.1421 78.5273 19.5519C79.357 19.9603 80.5578 20.1665 82.037 20.1665C83.329 20.1665 84.2536 20.2689 84.8083 20.2689C85.3652 20.3485 85.9004 20.5579 86.3789 20.8835C86.7487 21.1908 86.9336 21.703 86.9336 22.315C86.9336 23.2369 86.4713 23.8515 85.6404 24.4661C84.8107 24.9783 83.7913 25.1831 82.4069 25.1831C81.2986 25.1831 80.2828 25.0794 79.4507 24.4661C78.8047 24.0564 78.711 23.2382 78.8047 22.6236C78.8983 22.009 78.711 21.3957 78.065 21.1908C77.8685 21.1428 77.6632 21.1668 77.48 21.2591C77.2968 21.3515 77.1456 21.5073 77.0492 21.703C76.8631 22.0077 76.7707 22.4174 76.7707 22.9296C76.7707 24.4648 77.8801 25.1805 78.711 25.4878C80.0042 25.8963 80.8375 26 81.9446 26C83.5163 26 84.7159 25.6927 85.6404 25.283C86.5649 24.7708 87.1197 24.1575 87.4883 23.4404C87.8569 22.7247 88.043 22.0077 88.043 21.2906C88.043 20.37 87.8569 19.5506 87.4883 19.0397C86.2876 17.2996 84.6234 17.5032 80.9288 17.2996C79.1733 17.2996 78.8035 16.8899 78.8035 16.2753C78.8035 15.3547 79.4507 15.0474 82.037 14.5352C84.6234 14.1255 87.0248 13 87.0248 9.62228C87.0248 8.59794 86.8411 7.77978 86.5626 7.16648C87.1185 7.2676 87.5808 7.2676 88.0419 7.16648C88.5978 6.96161 88.8728 6.65431 89.0589 6.347C89.2438 5.93727 89.335 5.52753 89.1513 5.22022C89.2438 4.40206 88.7815 4.09476 88.1355 4.29963ZM82.3156 13.9219C80.7462 13.9219 79.9129 13.306 79.9129 9.82715C79.9129 7.37135 80.6526 5.52753 82.3156 5.52753C84.256 5.52753 84.8095 7.16517 84.8095 9.72472C84.8095 13.4097 83.7937 13.9219 82.3156 13.9219Z" fill="white"/>
</svg>
