<svg width="155" height="26" viewBox="0 0 155 26" fill="none" xmlns="http://www.w3.org/2000/svg">
<path d="M153.674 7.50149C152.849 6.00624 151.07 4.87216 149.138 4.87216C147.439 4.87216 145.945 5.56801 145.945 7.37226C145.945 8.89153 147.826 9.92205 149.784 11.1854C151.922 12.5249 154.138 14.1725 154.138 17.0338C154.138 20.7699 150.506 23.062 146.306 23.062C144.58 23.062 142.777 22.7274 140.742 21.9545L141.076 16.9816C142.056 18.9665 143.885 20.5371 146.589 20.5371C148.676 20.5371 150.221 19.5331 150.221 17.7802C150.221 16.2858 148.958 15.3588 147.414 14.4318C144.166 12.4743 142.107 10.9012 142.107 8.06811C142.107 3.81596 145.662 2.39941 149.345 2.39941C151.483 2.39941 152.824 2.78626 154.188 2.78626L153.674 7.50149ZM135.666 11.9574C135.201 12.7311 134.611 13.7857 134.248 14.5602C133.94 16.0282 133.785 17.9873 133.785 20.1502C133.785 21.0524 133.94 22.2626 134.351 22.6752H128.968C129.92 21.7739 130.307 16.2361 130.257 14.4832C129.535 11.9847 128.554 9.58822 127.061 6.67641C126.11 4.84814 125.001 3.1201 124.305 2.78626C125.515 2.68437 127.061 2.60651 127.809 2.60651C129.147 2.60651 129.51 2.78627 130.335 4.59051C131.62 7.50231 132.574 9.69011 133.141 11.3146C134.507 9.17567 135.46 7.70776 136.697 5.69808C137.006 5.20849 137.263 4.59051 137.263 3.99737C137.263 3.53265 137.185 3.01821 136.98 2.78626H142.313C141.283 3.01821 136.644 10.3097 135.666 11.9574ZM116.936 7.45096L113.743 14.3796H118.946L116.936 7.45096ZM123.197 22.8549C121.496 22.8549 121.368 22.8044 120.002 18.1157L119.513 16.3893C118.69 16.7754 117.219 16.956 114.876 16.956H112.506L112.093 17.8316C111.501 19.1471 110.702 20.6903 110.702 21.7747C110.702 22.0323 110.728 22.3148 110.832 22.676H96.7647C97.5641 21.7747 97.8218 18.8637 98.2078 13.5811L98.2848 12.3194C98.4911 9.30489 98.6477 6.98622 98.6203 5.36422C98.5947 4.02471 98.4654 3.17396 98.1051 2.78793H103.542C102.768 3.38106 102.484 6.57452 102.124 11.8572L102.021 13.1188C101.892 15.0771 101.635 17.086 101.635 19.0443C101.635 19.9448 101.995 20.1511 102.924 20.1511C106.22 20.1511 107.046 20.074 108.539 19.0692C109.466 17.3685 110.524 15.2296 111.552 13.0145L112.946 10.0521C114.259 7.26952 115.546 4.43477 115.546 3.89466C115.546 3.50697 115.443 3.14744 115.29 2.78626H119.618C119.618 2.78626 121.369 9.27921 121.756 10.6693L122.605 13.813C124.073 19.0949 125.001 21.6703 126.238 22.6752C125.206 22.8044 123.738 22.8549 123.197 22.8549ZM88.1353 23.062C83.0084 23.062 80.0453 18.8372 80.0453 14.0971C80.0453 7.5023 83.6256 2.39941 90.4532 2.39941C92.5913 2.39941 93.5969 2.78626 95.3217 2.78626L94.8072 7.86184C93.8281 6.08411 92.2301 4.87299 90.0928 4.87299C85.8424 4.87299 84.116 9.4598 84.116 13.4013C84.116 17.6775 86.5125 20.021 89.706 20.021C91.4324 20.021 92.9516 19.5571 95.5031 17.7802C94.4726 21.0789 92.076 23.062 88.1353 23.062ZM70.3597 5.20849C69.8701 5.20849 69.2761 5.20848 68.8139 5.25984C68.659 6.10977 68.5297 7.57854 68.3491 9.94774L68.2456 11.3403C68.5049 11.3925 68.8387 11.419 69.1485 11.419C71.6205 11.419 73.322 9.92288 73.322 7.65722C73.322 6.10978 72.2401 5.20849 70.3597 5.20849ZM77.546 23.5259C76.0781 23.5259 75.7169 23.2932 75.2281 22.623L69.663 14.8941C69.2248 14.3018 68.8901 13.8122 68.1951 13.8122H68.0658L67.9639 15.3066C67.8339 17.342 67.7568 18.9665 67.7568 20.1768C67.7825 21.5163 67.9374 22.3397 68.2986 22.6752H62.914C63.6861 21.9793 63.9686 19.6607 64.4076 13.5802L64.4855 12.3186C64.6918 9.33059 64.8467 7.01107 64.8202 5.38907C64.7937 3.97169 64.6404 3.09525 64.2527 2.78626C67.3186 2.78626 71.5948 2.78626 71.5948 2.78626C73.9905 2.78626 77.2884 3.19963 77.2884 7.08894C77.2884 10.2824 75.1494 12.0353 72.4969 12.8587C72.7546 13.0915 73.2176 13.6838 73.5018 14.045L77.546 19.4038C80.0709 22.7274 80.2764 22.8814 81.1793 23.3453C80.0452 23.4737 78.526 23.5259 77.546 23.5259ZM52.4556 7.45096L49.2331 14.3796H54.4628L52.4556 7.45096ZM58.7141 22.8549C57.0151 22.8549 56.8858 22.8044 55.5206 18.1157L55.031 16.3893C54.2051 16.7754 52.7372 16.956 50.3929 16.956H48.0228L47.6111 17.8316C47.1986 18.7602 46.1937 20.6671 46.2194 21.7747C46.2194 22.0323 46.2451 22.29 46.3487 22.676H41.5829C42.9481 21.3108 44.6745 18.1422 47.0702 13.0153L48.4619 10.0529C49.7235 7.37391 51.0639 4.33371 51.0639 3.89549C51.0639 3.50781 50.962 3.14827 50.8062 2.78709H55.1354C55.1354 2.78709 56.267 7.08977 57.2727 10.6701L58.1226 13.8139C59.5914 19.0957 60.5183 21.6712 61.7551 22.676C60.6476 22.8044 59.2559 22.8549 58.7141 22.8549ZM34.1878 5.18281C33.801 5.18281 33.2865 5.1828 32.7969 5.23499C32.5907 6.62586 32.4615 7.96539 32.3596 9.43331C32.3596 9.43331 32.2817 10.695 32.2817 10.6436H32.7969C35.3219 10.6436 37.6414 9.76798 37.6414 7.45096C37.6414 6.10979 36.533 5.18281 34.1878 5.18281ZM33.545 13.0658H32.1284L31.9222 16.0025C31.8194 17.2915 31.7673 18.3725 31.7416 19.6606C31.7416 19.8421 32.3082 20.2281 33.6469 20.2281C36.4295 20.2281 38.2594 18.8372 38.2594 16.5434C38.2594 13.9928 36.1718 13.0658 33.545 13.0658ZM33.854 22.6752H26.8979C27.7744 21.9015 28.0064 18.8878 28.3924 13.5802L28.4694 12.3443C28.6765 9.32974 28.8306 7.01107 28.8049 5.38907C28.7792 3.99737 28.6243 3.09525 28.2375 2.78626H36.0177C37.8725 2.78626 41.5829 2.88981 41.5829 6.75344C41.5829 9.32975 39.1864 10.9269 36.9969 11.4952C40.0885 11.8042 42.4072 13.2978 42.4072 16.4921C42.4063 19.944 39.1607 22.6752 33.854 22.6752Z" fill="white"/>
<path d="M11.2419 0.00166852C10.5526 0.00166852 10.4102 0.121798 10.1865 0.371144C10.0987 0.365346 10.0067 0.363687 9.91064 0.363687C9.38047 0.363687 8.69952 0.441546 8.11882 0.830063C7.558 1.20036 7.29125 1.8556 7.5903 2.33524C7.5903 2.33524 7.79078 2.04118 8.45018 2.04118C8.54296 2.04118 8.64568 2.0511 8.75503 2.06022C9.66626 2.16791 10.3406 2.64755 10.2586 3.91417C10.1857 5.17996 9.71099 6.59155 7.76924 6.60812C7.76924 6.60812 7.51906 6.60812 7.25232 6.58327C6.34854 6.48469 6.0644 5.91723 6.0644 5.91723C6.0644 5.91723 6.84558 5.70515 6.85221 4.71357C6.84558 4.03925 6.25825 3.42211 5.4108 3.17276C5.13329 3.09158 4.82844 3.05182 4.51116 3.05182C3.51212 3.05182 2.39047 3.47015 1.63415 4.4576C-0.080627 6.7216 -0.219797 10.0219 0.198542 13.0911C0.619366 16.167 2.57024 19.0158 2.62739 19.0937C2.66881 19.1484 2.70609 19.1782 2.74834 19.1782C2.76988 19.1782 2.79225 19.1682 2.81544 19.1492C3.65792 18.3315 4.46146 17.2141 4.80524 16.4668C5.17305 16.7601 4.98086 17.3839 4.77873 18.0499C4.58655 18.7308 4.11933 19.6346 3.95034 19.9262C3.78715 20.2112 3.56845 20.5425 3.86253 20.7156C3.89235 20.7339 3.93046 20.7438 3.97602 20.7438C4.35377 20.7438 5.24264 20.0853 6.23422 18.7632C7.34427 17.2754 7.90758 15.9549 7.90758 15.9549C7.98876 15.9731 8.12462 16.1106 8.10225 16.4851C8.08734 16.8653 7.69634 18.2802 6.93504 19.5973C6.16547 20.9137 5.4547 21.7371 5.31139 21.9243C5.22275 22.0328 5.29814 22.1008 5.3553 22.1447C5.41163 22.1828 6.77268 23.4535 8.75006 24.5271C11.0928 25.7755 12.1316 26 12.1316 26C12.1316 26 13.1679 25.7813 15.5106 24.5337C17.4871 23.4585 18.854 22.1819 18.9045 22.1388C18.9617 22.0999 19.0346 22.0386 18.9484 21.9193C18.8134 21.7404 18.1001 20.9128 17.3322 19.5965C16.5734 18.2885 16.1675 16.8645 16.1617 16.4892C16.146 16.1106 16.2735 15.9855 16.3514 15.954C16.3514 15.954 16.9205 17.2828 18.0306 18.7623C19.0271 20.0861 19.9077 20.743 20.2871 20.743C20.3352 20.743 20.3733 20.7331 20.4047 20.7148C20.6897 20.5417 20.4776 20.2054 20.3103 19.9237C20.1546 19.6338 19.6807 18.7358 19.4794 18.0491C19.2864 17.3756 19.0859 16.7526 19.4604 16.466C19.805 17.2132 20.6027 18.3365 21.4477 19.1425C21.4701 19.1657 21.4957 19.1773 21.5206 19.1773C21.5579 19.1773 21.5976 19.1483 21.6324 19.0978C21.6945 19.015 23.6487 16.1711 24.0662 13.0903C24.4854 10.0145 24.3471 6.7216 22.6306 4.45677C21.8793 3.46683 20.7493 3.04601 19.7437 3.04601C19.4297 3.04601 19.1298 3.08661 18.8556 3.16531C18.0016 3.42211 17.4167 4.04507 17.4217 4.71276C17.4217 5.70434 18.207 5.91639 18.207 5.91639C18.207 5.91639 17.9444 6.46977 17.0083 6.58243C16.8335 6.60397 16.6637 6.61391 16.5013 6.61391C15.7972 6.61391 15.2041 6.39024 14.6573 5.61818C14.1272 4.87511 14.1446 3.34508 14.1139 2.83479C14.0899 2.31704 13.9789 1.15563 13.4346 0.681792C12.892 0.195525 12.231 0.0323074 11.4067 0C11.3462 0.00165679 11.2924 0.00166852 11.2419 0.00166852Z" fill="#A6A8AA"/>
</svg>
