<svg width="173" height="26" viewBox="0 0 173 26" fill="none" xmlns="http://www.w3.org/2000/svg">
<path fill-rule="evenodd" clip-rule="evenodd" d="M79.6487 20.7238C79.6487 23.468 76.7897 25.9641 74.2307 25.9641C72.5749 25.9641 71.2202 24.7981 71.2202 24.0923C71.2202 23.6757 71.3343 22.3031 71.8971 22.3031C72.8396 22.3031 73.6945 24.4631 75.5383 24.4631C76.6844 24.4631 77.7548 23.5876 77.7548 22.3107C77.7548 20.4944 74.9066 18.7672 74.9066 15.898C74.9066 12.9026 77.8434 9.24165 80.5135 9.24165C81.8663 9.24165 82.432 10.1161 82.432 10.8633C82.432 11.4865 81.9411 12.237 81.2278 12.237C80.1731 12.237 79.5238 11.3593 78.4701 11.3593C77.317 11.3593 76.6549 12.2174 76.6549 13.6607C76.6559 15.811 79.6487 17.772 79.6487 20.7238ZM25.7669 21.5254C24.2734 23.4886 22.1828 25.9652 20.0951 25.9652C19.2677 25.9652 19.0414 25.5084 19.0414 24.7992C19.0414 22.7621 22.8056 15.8153 22.8056 13.2365C22.8056 12.4067 22.5419 11.9879 21.7519 11.9879C19.4182 11.9879 14.6023 18.728 12.8717 25.0918C12.7596 25.5084 12.4576 25.6334 11.5908 25.6334C10.6896 25.6334 10.5381 25.5084 10.5381 25.132C10.5381 24.4675 13.9638 15.2324 15.5419 10.1999C16.8986 5.91566 18.0231 2.66253 18.0231 1.78807C18.0231 1.33127 17.788 1.05065 17.0767 0.926664C16.7982 0.878808 16.2424 0.865753 16.084 0.826598C16.0486 0.818985 16.0259 0.780924 16.0259 0.739594V0.0913611C16.0259 0.0413298 16.0613 0 16.1066 0H20.5457C20.9225 0 21.0346 0.0826612 21.0346 0.376323C21.0346 0.666722 20.0223 4.08408 17.8765 10.2412C16.3722 14.5678 15.5812 16.1884 15.9197 16.1884C16.2965 16.1884 20.0223 9.24383 23.1833 9.24383C24.4623 9.24383 25.2897 10.1585 25.2897 12.1968C25.2897 15.4814 22.2772 22.0138 22.2772 22.761C22.2772 23.0927 22.4297 23.22 22.8065 23.22C23.3663 23.22 24.6503 21.6842 25.2868 20.9403C25.2949 20.9312 25.3046 20.924 25.3153 20.9192C25.3261 20.9145 25.3376 20.9122 25.3491 20.9126C25.3607 20.913 25.3721 20.9161 25.3825 20.9216C25.3929 20.9271 25.4022 20.935 25.4098 20.9446L25.7649 21.4036C25.7788 21.4201 25.7866 21.4416 25.787 21.4641C25.7873 21.4866 25.7802 21.5084 25.7669 21.5254Z" fill="#A6A8AA"/>
<path fill-rule="evenodd" clip-rule="evenodd" d="M9.96066 22.173C9.59172 22.9822 7.12623 25.9645 4.11863 25.9645C1.11006 25.9645 0.0996572 23.4683 0.00816028 21.3061C-0.270266 14.7759 6.64218 9.24423 10.6326 9.24423C12.6249 9.24423 13.4011 10.6592 13.4464 11.7393C13.4739 12.406 12.9702 12.9041 12.5177 12.9041C11.3134 12.9041 10.9356 10.2416 9.35659 10.2416C7.06129 10.2416 2.47563 17.4374 2.64189 21.3061C2.73241 23.4259 4.04878 24.3015 5.253 24.3015C6.60676 24.3015 7.80409 23.2628 8.53115 22.6385C8.966 22.2817 9.46678 21.7401 9.54352 21.6759C9.57303 21.6509 9.62419 21.6542 9.6537 21.6933L9.94787 22.0718C9.95887 22.0853 9.96597 22.1022 9.96825 22.1202C9.97053 22.1382 9.96789 22.1566 9.96066 22.173ZM42.6988 13.8525L42.9812 14.2158C43.0127 14.2561 43.0707 14.2539 43.1042 14.2115C43.1376 14.1647 43.1937 14.0907 43.2429 14.0266C43.7693 13.3218 44.9745 11.5739 45.614 11.5739C45.9524 11.5739 46.1393 11.947 46.1393 12.5713C46.1393 14.9413 42.6034 24.5092 42.6034 25.1737C42.6034 25.5076 42.7175 25.6327 42.9419 25.6327H44.2592C44.5229 25.6327 44.5977 25.4652 44.7856 25.0084C44.7856 25.0084 45.4319 23.3052 45.8019 22.4699C48.5143 16.341 49.9055 13.4904 50.9729 12.3472C53.2948 9.85765 52.9947 12.257 54.0917 12.332C54.8492 12.3831 55.3057 11.4804 55.3057 10.5178C55.3057 9.4226 54.5974 9.0963 54.0789 9.0963C51.9322 9.0963 50.4603 11.2694 47.7951 16.3998C47.5698 16.8163 47.4577 17.0643 47.3435 17.0643C47.2688 17.0643 47.1566 17.0219 47.1566 16.7707C47.1566 16.3563 48.3972 11.4075 48.3972 10.4493C48.3972 9.57595 48.0224 9.24423 47.3445 9.24423C46.0518 9.24423 43.4879 12.3146 42.6939 13.7481C42.6844 13.7638 42.6797 13.7824 42.6806 13.8012C42.6815 13.8201 42.6879 13.8381 42.6988 13.8525ZM40.8482 9.5977L40.0336 9.03431C39.9392 8.97775 39.8044 8.87986 39.6991 8.91902C39.278 9.07564 39.2151 9.86961 38.7123 9.86961C38.185 9.86961 37.6577 9.57704 36.6423 9.57704C29.9818 9.57704 26.5954 19.4756 26.5954 22.7625C26.5954 24.9247 27.6501 25.9655 28.8543 25.9655C30.3596 25.9655 32.1521 25.1009 34.4838 21.3137C35.0869 20.3599 35.1076 20.1521 35.2591 20.1521C35.3712 20.1521 35.446 20.2772 35.446 20.4436C35.446 20.7753 34.4228 22.8038 34.4228 24.469C34.4228 25.5098 34.7996 25.9666 35.5513 25.9666C37.4402 25.9666 39.6637 22.8734 40.4891 21.516C40.4986 21.4992 40.5032 21.4795 40.5023 21.4597C40.5014 21.4399 40.4951 21.4209 40.4842 21.4051L40.1251 20.9418C40.0868 20.8993 40.0376 20.9015 40.0081 20.9374C39.2702 21.7749 38.0364 23.7207 37.3566 23.7207C37.0565 23.7207 36.906 23.5956 36.906 23.0137C36.906 21.6324 40.9673 10.7865 41.0322 10.0088C41.045 9.86309 41.0007 9.68689 40.8482 9.5977ZM30.1716 23.6347C29.4938 23.6347 29.0806 23.303 29.0806 21.9717C29.0806 17.3961 32.5417 10.4091 36.0019 10.4091C37.2828 10.4091 37.8102 11.4478 37.8102 12.5724C37.8102 14.5682 33.0681 23.6347 30.1716 23.6347ZM70.3034 22.0675L69.9954 21.677C69.9821 21.6604 69.9638 21.6496 69.9439 21.6468C69.924 21.644 69.9038 21.6493 69.8872 21.6618C69.169 22.235 67.3853 23.9686 65.6675 23.9686C64.0855 23.9686 63.1833 22.8027 63.1833 21.1408C63.1833 18.9361 64.1249 17.2296 64.8027 16.0659C65.2907 16.1083 65.6685 16.1485 66.4939 16.1485C68.7892 16.1485 73.494 15.025 73.494 11.8643C73.494 10.532 72.4393 9.24423 70.5592 9.24423C66.4192 9.24423 60.3243 15.5667 60.3243 21.5149C60.3243 24.2188 61.9043 25.9655 64.1996 25.9655C66.8895 25.9655 69.6088 23.1866 70.3093 22.1784C70.3378 22.1392 70.3201 22.0903 70.3034 22.0675ZM65.2887 15.1501C65.7403 14.1941 68.073 10.0752 70.0673 10.0752C70.8592 10.0752 71.3866 10.8224 71.3866 11.6555C71.3866 13.9037 68.7883 15.1077 65.2887 15.1501ZM59.2401 21.5704C58.0172 23.2693 56.08 25.9655 54.3613 25.9655C53.157 25.9655 52.55 25.2172 52.609 23.8033C52.7015 21.7064 56.6261 11.0453 56.9143 10.2492C58.4521 5.965 59.672 2.68904 59.7094 1.81567C59.7301 1.35777 59.5057 1.07716 58.8023 0.953172C58.5003 0.900966 57.97 0.893349 57.8116 0.854194C57.7771 0.84658 57.7535 0.807423 57.7555 0.767181L57.783 0.117862C57.7847 0.0937953 57.7944 0.0712687 57.8102 0.0546062C57.826 0.0379437 57.8468 0.0283203 57.8686 0.0275879H62.3087C62.6835 0.0275879 62.7937 0.111337 62.78 0.402824C62.7682 0.693223 61.5079 4.07251 59.3405 10.3275C57.4426 15.8048 55.4799 21.8401 55.4327 22.9321C55.412 23.3889 55.5556 23.5564 55.9305 23.5564C56.5542 23.5564 57.359 22.645 58.7403 20.9439C58.7757 20.9015 58.8407 20.9059 58.8633 20.9439L59.2381 21.4584C59.2504 21.4738 59.2573 21.4935 59.2576 21.514C59.258 21.5345 59.2518 21.5545 59.2401 21.5704Z" fill="#A6A8AA"/>
<path fill-rule="evenodd" clip-rule="evenodd" d="M93.6448 13.5149C93.2493 12.102 92.5646 10.3945 90.711 10.3945C89.2559 10.3945 88.461 11.5658 88.461 12.9537C88.461 14.3197 89.3445 15.2225 91.0435 16.0741L91.6181 16.3678C93.3359 17.2216 94.9228 18.5115 94.9228 21.05C94.9228 23.9497 92.8745 25.9999 89.8964 25.9999C89.0582 25.9999 88.2632 25.8041 87.6906 25.5855C87.0738 25.3647 86.6753 25.1711 86.4116 25.071C86.2365 24.438 85.9699 22.7794 85.7495 21.2937L86.4116 21.049C86.8534 22.3171 88.0448 25.021 90.3135 25.021C91.749 25.021 92.6305 23.78 92.6305 22.2682C92.6305 20.9021 92.0353 19.9276 90.2919 18.9759L89.5865 18.5876C88.1304 17.7567 86.2778 16.4678 86.2778 14.0761C86.2778 11.5169 88.0202 9.41992 90.9776 9.41992C91.5719 9.41992 92.3648 9.51781 92.9837 9.76144C93.3349 9.90828 93.6448 9.95722 93.9095 10.079C93.998 10.9339 94.1289 12.0052 94.3492 13.3691L93.6448 13.5149ZM108.863 14.0032C108.155 11.2221 106.766 10.3945 104.716 10.3945C101.099 10.3945 99.4681 13.7357 99.4681 17.3445C99.4681 21.8777 101.496 25.0221 104.716 25.0221C107.097 25.0221 108.202 23.656 109.345 21.0729L109.966 21.2197C109.7 22.39 109.214 24.3402 108.863 25.269C108.246 25.4626 106.26 25.9999 104.716 25.9999C98.9379 25.9999 96.5993 21.8321 96.5993 17.9786C96.5993 12.859 100.174 9.41992 105.111 9.41992C107.01 9.41992 108.464 9.90827 109.081 10.054C109.26 11.4212 109.345 12.4925 109.479 13.9053L108.863 14.0032ZM117.199 9.78537V10.4673C115.566 10.6142 115.389 10.8067 115.389 13.442V16.7071H122.092V13.442C122.092 10.8078 121.917 10.6142 120.24 10.4673V9.78537H126.506V10.4673C124.74 10.6142 124.563 10.8067 124.563 13.442V21.9756C124.563 24.6077 124.74 24.8057 126.462 24.9514V25.6334H120.065V24.9514C121.917 24.8046 122.092 24.6077 122.092 21.9756V17.8306H115.389V21.9756C115.389 24.6077 115.566 24.8057 117.287 24.9514V25.6334H110.981V24.9514C112.743 24.8046 112.92 24.6077 112.92 21.9756V13.442C112.92 10.8078 112.743 10.6142 110.892 10.4673V9.78537H117.199ZM138.615 9.97897L142.45 21.5873H142.494C143.311 18.5626 144.368 14.0272 144.724 12.4675C145.075 10.9546 144.903 10.6196 143.965 10.5304L143.203 10.4673V9.78537H148.273V10.4673C146.84 10.6142 146.665 10.761 145.957 12.9537C145.627 13.9771 144.061 19.0499 142.232 25.8291H141.26L137.512 14.4176H137.464L134.024 25.8291H133.056L129.417 12.858C128.823 10.761 128.425 10.6142 127.256 10.4673V9.78537H133.211V10.4673C133.211 10.4673 132.654 10.501 132.533 10.5206C131.737 10.6413 131.468 10.8132 131.801 12.0759L134.361 21.5863H134.403L137.756 9.97788H138.615V9.97897ZM152.555 13.5399H152.618L154.34 18.9041H150.833L152.555 13.5399ZM152.925 9.71359L148.453 22.464C147.681 24.6567 147.437 24.7535 146.073 24.9514V25.6334H150.967V24.9514L150.35 24.8753C149.38 24.7545 149.203 24.438 149.601 23.1459C149.908 22.1225 150.306 20.7564 150.59 20.0255H154.673C155.137 21.2937 155.665 22.8044 155.883 23.5353C156.15 24.4642 156.105 24.7078 155.266 24.8524L154.65 24.9525V25.6345H160.449V24.9525C159.171 24.8057 158.862 24.6338 158.111 22.4651C157.273 20.0266 156.304 17.004 155.311 14.0272L153.831 9.62005L152.925 9.71359ZM165.546 11.9313C165.546 11.345 165.546 10.9317 165.723 10.8328C165.854 10.761 166.163 10.711 166.737 10.711C168.082 10.711 169.515 11.4418 169.515 13.6867C169.515 15.7348 168.324 16.7071 166.427 16.7071H165.546V11.9313ZM161.354 9.78537V10.4673C162.941 10.6142 163.119 10.8067 163.119 13.442V21.9756C163.119 24.6077 162.941 24.8057 161.222 24.9514V25.6334H166.713C168.324 25.6334 169.888 25.3397 170.925 24.6567C172.139 23.854 172.911 22.7065 172.911 20.975C172.911 18.5387 171.193 17.1976 168.941 16.9051V16.8561C170.241 16.5864 172.073 15.465 172.073 13.3681C172.073 12.0759 171.634 11.1765 170.838 10.5891C170.044 10.0279 169.162 9.78537 167.441 9.78537H161.354ZM166.294 17.5848C168.544 17.5848 170.176 18.7573 170.176 21.2447C170.176 23.7561 168.677 24.6567 167.22 24.6567C165.807 24.7078 165.545 24.2194 165.545 21.9267V17.5848H166.294Z" fill="white"/>
</svg>
