<svg width="95" height="40" viewBox="0 0 95 40" fill="none" xmlns="http://www.w3.org/2000/svg">
<path fill-rule="evenodd" clip-rule="evenodd" d="M87.829 18.5915H84.1166V3.49332H87.613V5.18346C88.0484 4.16792 89.1402 3.26906 90.5602 3.1542C92.9647 3.04116 94.6008 4.50704 94.6008 7.66124V18.5915H90.7795V7.2109C90.7795 5.85988 90.7795 4.7313 89.9054 4.50704C89.5772 4.394 89.0313 4.50704 88.5943 4.84434C88.0484 5.40954 87.829 6.08414 87.829 7.2109V18.5915ZM23.2731 11.0415C23.2731 13.8584 23.2731 16.1119 22.8361 17.2405C22.5079 17.8021 22.1797 18.1412 21.4144 18.1412C20.7597 18.1412 20.3226 17.8021 20.1049 17.2387C19.559 16.1119 19.559 13.8584 19.559 11.0415C19.559 8.33766 19.559 5.97292 20.1033 4.84434C20.3226 4.28096 20.7597 3.94366 21.4144 3.94366C22.1797 3.94366 22.5079 4.28096 22.8361 4.84434C23.382 5.9711 23.2731 8.33766 23.2731 11.0433V11.0415ZM24.6914 4.50704C23.8174 3.71758 22.7256 3.1542 21.4144 3.1542C20.1049 3.1542 19.122 3.7194 18.139 4.50704C16.6086 5.85988 15.6256 8.33766 15.6256 11.0415C15.6256 13.8584 16.6086 16.225 18.139 17.5778C19.122 18.3655 20.1049 18.9288 21.4144 18.9288C22.7256 18.9288 23.819 18.3655 24.6931 17.5778C26.3308 16.225 27.2049 13.8584 27.2049 11.0415C27.2049 8.33766 26.3308 5.85988 24.6931 4.50704H24.6914ZM62.8151 24.3384V28.3933H62.0515C61.6145 26.7031 60.9581 25.2391 59.2099 25.126C58.1181 25.0148 57.1352 25.6912 57.0263 26.7031C56.9175 27.7187 57.244 28.6175 59.2099 29.7479C61.7233 31.2102 63.6892 31.8866 63.6892 34.9296C63.6892 38.1968 60.9581 39.7757 58.664 39.7757H54.2935V34.1419H55.0588C55.6063 37.0701 56.4788 38.8732 58.5551 38.9863C59.8663 38.9863 60.8476 38.1968 60.8476 36.7328C60.8476 35.2669 59.9751 34.3662 57.9004 33.1264C55.6063 31.6623 54.1863 30.7598 54.1863 28.7324C54.1863 26.0285 56.0434 24.3384 58.9922 24.3384H62.8151ZM67.621 18.5915V7.66124C67.621 4.50704 65.9833 3.04116 63.5804 3.1542C61.941 3.26724 60.9581 4.394 60.521 5.29468C59.9751 3.71758 58.7728 3.04116 57.0247 3.1542C55.6063 3.26724 54.5129 4.16792 54.0758 5.18346V3.49332H50.6899V18.5897H54.404V7.21273C54.404 6.08597 54.5129 5.40954 55.1693 4.84616C55.6063 4.50887 56.0434 4.39582 56.3699 4.50887C57.244 4.73312 57.244 5.86171 57.244 7.21273V18.5934H60.9581V7.09786C60.9581 6.08232 61.1758 5.4059 61.7233 4.84252C62.1604 4.50522 62.5974 4.39218 62.924 4.50522C63.7981 4.72948 63.9069 5.85806 63.9069 7.20908V18.5897H67.621V18.5915ZM29.7167 18.5915H33.5396V0.337299H29.7167V18.5915ZM42.6054 4.73312C43.3707 5.85988 43.3707 8.56192 43.3707 10.7042C43.3707 12.9577 43.4812 15.8877 42.6071 17.1257C42.2789 17.5778 41.9507 17.8021 41.4048 17.8021C40.6412 17.8021 40.2041 16.9014 39.9864 15.4355C39.8759 14.0845 39.8759 12.3944 39.8759 10.5912C39.8759 7.55002 40.0936 4.16792 41.5153 4.16792C42.0595 4.16792 42.2789 4.394 42.6071 4.73312H42.6054ZM47.0864 18.5915V0.337299H43.2618V4.62008C42.9353 3.83062 42.17 3.26724 41.0782 3.26724C38.3471 3.26724 36.1635 6.19718 36.053 10.7042C35.9442 13.7472 36.9271 18.8176 40.75 18.8176C42.2789 18.8176 43.153 17.9151 43.4812 17.1257V18.5915H47.0864ZM76.7973 9.57746L75.595 10.3651C74.3944 11.1546 74.1767 12.1701 74.0662 13.295C73.9573 14.1975 73.9573 14.9852 74.0662 16.338C74.175 17.5778 74.9403 17.8021 75.595 17.5778C76.3603 17.2387 76.7973 15.7746 76.7973 14.1975V9.57746ZM78.9809 3.94366C79.9655 4.50887 80.6202 5.40772 80.6202 7.43698V18.5915H77.015V16.9014C76.5796 18.1412 75.3773 18.9288 73.738 18.9288C72.4285 18.9288 70.1344 18.2543 70.1344 14.7609C70.1344 11.4919 72.2091 10.8173 74.5049 9.80172C76.5796 8.90104 76.7973 8.788 76.7973 7.88732V5.40772C76.7973 4.394 76.2514 3.94366 75.158 3.94366C74.7226 4.0567 73.9573 4.28096 73.9573 4.84434C73.8468 5.52076 74.6121 5.52076 74.7226 6.53448C74.8314 8.11341 73.6291 8.67496 72.5373 8.56374C71.7721 8.56374 70.898 8.11341 70.7891 6.8736C70.6803 4.84434 72.8639 3.1542 75.9232 3.1542C77.3432 3.1542 78.2173 3.49332 78.9809 3.94366ZM22.7256 30.6468L21.5249 31.4363C20.3226 32.2257 20.1049 33.2394 19.9944 34.3662C19.8872 35.2669 19.8872 36.1694 19.9944 37.4074C19.9944 38.7602 20.7597 38.9863 21.4144 38.6472C22.2885 38.3099 22.7256 36.9588 22.7256 35.2669V30.6468ZM24.9108 25.013C25.8937 25.6894 26.4396 26.4789 26.4396 28.5063V39.7739H22.9466V38.0838C22.5095 39.2105 21.3089 39.9982 19.6695 39.9982C18.2495 39.9982 16.0643 39.4366 16.0643 35.9433C16.0643 32.6761 18.1407 31.9996 20.3243 30.9841C22.5095 29.9722 22.7272 29.8592 22.7272 29.0697V26.5901C22.7272 25.4652 22.1813 25.0148 21.0895 25.126C20.6525 25.126 19.8889 25.3521 19.8889 25.9155C19.7784 26.705 20.5436 26.705 20.6525 27.7187C20.7613 29.1827 19.5607 29.7461 18.4672 29.7461C17.7036 29.6331 16.8296 29.1827 16.7191 27.9429C16.6102 26.0285 18.7954 24.3366 21.8531 24.3366C23.2748 24.3366 24.1472 24.5627 24.9124 25.0148L24.9108 25.013ZM51.3463 28.8454C51.3463 25.6912 49.707 24.1123 47.3041 24.3384C46.1034 24.4496 45.1188 25.013 44.5729 25.8025V21.4085H40.8572V31.7754C40.8572 35.6042 38.2349 39.2105 35.6127 39.0975C33.7573 39.0975 33.3202 37.6334 33.1009 36.0563C32.7743 33.8028 32.7743 31.212 32.992 28.3933C33.2114 26.5919 33.6484 25.126 34.9596 25.126C35.9425 25.126 36.0514 25.8025 35.6143 26.2528C35.1773 26.818 34.5225 27.3796 34.8491 28.6194C35.1773 29.9722 37.252 30.1965 38.2366 29.1846C39.0002 28.2821 38.8913 26.8162 38.3454 25.9155C37.689 24.7887 36.5973 24.3384 34.9596 24.3384C32.8832 24.3384 28.9514 26.2528 28.9514 32.3369C28.9514 38.8732 32.992 40 35.2861 40C37.9084 40 40.2008 37.6334 40.8572 35.7172V39.7739H44.5713V28.3933C44.5713 27.2683 44.789 26.5919 45.3365 26.0267C45.7736 25.6894 46.3195 25.5764 46.6477 25.6894C47.5218 25.9155 47.5218 27.0423 47.5218 28.3933V39.7739H51.3447V28.8454H51.3463ZM13.1138 0V6.42326H12.3486C11.6938 3.26906 10.2739 0.900679 8.30797 0.789462C6.99683 0.676421 6.23158 1.46406 5.57684 2.59082C4.92209 3.94366 4.5939 6.76056 4.5939 10.139C4.5939 13.295 4.70275 15.6616 5.03094 17.3517C5.24864 18.1412 5.79454 19.3792 7.21453 19.3792C7.97977 19.3792 8.52567 19.1549 8.85386 18.7046C9.39811 18.0282 9.50861 16.6753 9.50861 15.7746V12.7317C9.50861 11.6049 9.18206 10.9303 8.63452 10.5912C8.19912 10.3651 7.54272 10.3651 7.21618 10.2521V9.46442H13.3315V25.5782H12.5679C12.2397 24.3384 12.022 23.4359 11.4745 22.4222C10.9302 21.4085 9.94566 20.2817 8.30797 20.2817C6.55978 20.1686 5.24864 21.2954 5.24864 22.9855C5.24864 25.2391 6.55978 25.8025 8.96271 27.1553C11.2568 28.5063 14.2073 29.6349 14.2073 33.5767C14.2073 37.4074 11.0374 39.7757 7.43388 39.7757H1.64507V31.9996H2.40866C3.39161 37.8595 5.79454 38.8732 7.43388 38.8732C9.50861 38.8732 10.4916 37.5204 10.4916 35.606C10.3827 33.1264 8.74337 32.2257 6.45093 30.9859C3.17391 29.0715 1.64507 28.169 1.64507 25.0148C1.75392 22.3091 3.82865 20.6208 6.12274 19.9444C1.31687 19.3792 -0.103118 14.874 0.00573117 10.0278C0.00573117 5.18346 2.73686 0 8.08862 0H13.1138Z" fill="black"/>
</svg>
