<svg width="620" height="524" viewBox="0 0 620 524" fill="none" xmlns="http://www.w3.org/2000/svg">
<rect width="620" height="400" fill="#001458"/>
<g clip-path="url(#clip0)">
<path d="M90.3294 362.408L69.5708 350.336L339.013 196.105L359.772 208.178L90.3294 362.408Z" fill="#000D3B"/>
<path d="M532.698 360.212L411.534 290.256C402.06 284.79 386.734 284.79 377.327 290.256L136.642 430.134C131.947 432.867 129.616 436.438 129.616 440.01C129.616 440.127 129.616 440.245 129.633 440.362C129.633 440.463 129.633 440.58 129.65 440.681C129.667 440.798 129.683 440.915 129.7 441.033C129.717 441.133 129.717 441.251 129.75 441.351C129.767 441.469 129.801 441.586 129.817 441.703C129.834 441.804 129.868 441.921 129.884 442.022C129.918 442.139 129.952 442.257 129.985 442.374C130.019 442.475 130.052 442.592 130.086 442.693C130.119 442.81 130.17 442.928 130.22 443.045C130.253 443.145 130.304 443.263 130.337 443.363C130.388 443.481 130.438 443.598 130.505 443.716C130.555 443.816 130.606 443.917 130.656 444.034C130.723 444.152 130.79 444.269 130.857 444.386C130.907 444.487 130.958 444.588 131.025 444.688C131.092 444.805 131.176 444.923 131.243 445.023C131.31 445.124 131.377 445.225 131.444 445.325C131.528 445.443 131.612 445.56 131.695 445.661C131.762 445.761 131.83 445.845 131.913 445.946C131.997 446.063 132.098 446.164 132.198 446.281C132.282 446.382 132.349 446.465 132.45 446.566C132.551 446.667 132.651 446.784 132.769 446.885C132.852 446.985 132.953 447.069 133.037 447.17C133.154 447.27 133.272 447.388 133.389 447.488C133.49 447.572 133.573 447.673 133.674 447.757C133.791 447.874 133.926 447.975 134.06 448.075C134.16 448.159 134.261 448.243 134.362 448.327C134.496 448.444 134.663 448.545 134.797 448.662C134.898 448.746 134.999 448.813 135.099 448.897C135.267 449.014 135.451 449.132 135.619 449.249C135.72 449.316 135.804 449.383 135.904 449.433C136.189 449.618 136.474 449.786 136.759 449.953L257.924 519.909C258.494 520.244 259.081 520.546 259.701 520.831C259.902 520.931 260.12 521.015 260.321 521.099C260.741 521.284 261.16 521.468 261.613 521.652C261.747 521.703 261.898 521.753 262.032 521.803C262.518 521.988 263.004 522.155 263.507 522.306C263.675 522.357 263.843 522.407 264.027 522.457C264.631 522.642 265.234 522.793 265.855 522.944C265.955 522.96 266.073 522.994 266.173 523.011C266.609 523.111 267.062 523.195 267.498 523.279C267.917 523.363 268.353 523.43 268.772 523.497C269.125 523.547 269.493 523.598 269.846 523.648C270.248 523.698 270.65 523.748 271.053 523.782C271.422 523.816 271.791 523.849 272.176 523.883C272.579 523.916 272.998 523.933 273.4 523.95C273.769 523.966 274.138 523.983 274.507 523.983C274.943 523.983 275.396 523.983 275.832 523.983C276.268 523.983 276.72 523.966 277.156 523.95C277.274 523.95 277.408 523.933 277.525 523.933C278.179 523.899 278.833 523.832 279.487 523.765C279.655 523.748 279.822 523.732 279.973 523.698C280.527 523.631 281.097 523.547 281.65 523.463C281.784 523.447 281.918 523.43 282.053 523.396C282.388 523.346 282.707 523.262 283.025 523.195C283.478 523.111 283.931 523.011 284.367 522.91C284.685 522.826 285.004 522.742 285.322 522.659C285.741 522.541 286.161 522.424 286.563 522.306C287.15 522.122 287.737 521.921 288.307 521.703C288.374 521.669 288.441 521.652 288.508 521.619C289.045 521.418 289.548 521.183 290.051 520.965C290.202 520.898 290.353 520.831 290.487 520.764C291.04 520.495 291.593 520.21 292.113 519.909L532.799 380.031C533.101 379.864 533.369 379.679 533.654 379.512C533.704 379.478 533.754 379.445 533.805 379.411C533.822 379.394 533.838 379.377 533.855 379.377C534.056 379.243 534.258 379.109 534.442 378.975C534.492 378.941 534.543 378.908 534.593 378.874C534.643 378.841 534.677 378.807 534.727 378.774C534.878 378.656 535.046 378.539 535.197 378.422C535.247 378.388 535.297 378.338 535.331 378.304C535.381 378.254 535.431 378.22 535.498 378.17C535.632 378.07 535.767 377.952 535.884 377.852C535.934 377.818 535.968 377.768 536.018 377.717C536.068 377.667 536.119 377.634 536.169 377.583C536.286 377.483 536.404 377.365 536.521 377.265C536.605 377.181 536.689 377.08 536.789 376.996C536.89 376.879 537.007 376.778 537.108 376.661C537.192 376.577 537.259 376.477 537.343 376.393C537.443 376.275 537.544 376.175 537.628 376.057C537.628 376.041 537.645 376.041 537.645 376.024C537.695 375.957 537.745 375.89 537.796 375.823C537.812 375.806 537.829 375.789 537.829 375.772C537.913 375.655 537.997 375.538 538.081 375.437C538.097 375.42 538.114 375.387 538.131 375.353C538.181 375.286 538.231 375.202 538.282 375.135C538.349 375.018 538.433 374.917 538.5 374.8C538.533 374.75 538.55 374.716 538.567 374.666C538.6 374.599 538.634 374.548 538.667 374.481C538.735 374.364 538.802 374.263 538.852 374.146C538.869 374.096 538.902 374.045 538.919 374.012C538.953 373.961 538.969 373.894 539.003 373.844C539.053 373.727 539.12 373.609 539.154 373.509C539.17 373.458 539.187 373.391 539.221 373.341C539.238 373.291 539.254 373.24 539.271 373.19C539.321 373.073 539.355 372.955 539.405 372.838C539.422 372.788 539.439 372.721 539.456 372.67C539.472 372.62 539.489 372.57 539.506 372.519C539.539 372.402 539.573 372.285 539.606 372.167C539.623 372.1 539.623 372.05 539.64 371.983C539.657 371.933 539.657 371.882 539.674 371.849C539.69 371.731 539.724 371.614 539.741 371.497C539.757 371.429 539.757 371.362 539.757 371.295C539.757 371.245 539.774 371.211 539.774 371.161C539.791 371.044 539.808 370.926 539.808 370.809C539.808 370.742 539.808 370.675 539.824 370.591C539.824 370.558 539.824 370.524 539.824 370.474C539.975 366.785 537.611 363.046 532.698 360.212Z" fill="#999999"/>
<path d="M320.535 219.245L305.343 210.408L304.907 57.7537L320.099 66.5735L320.535 219.245Z" fill="#0088D6"/>
<path d="M320.099 66.5735L304.907 57.7536L318.942 49.6548L334.133 58.4747L320.099 66.5735Z" fill="#1357DD"/>
<path d="M334.133 58.4747L334.569 211.146L320.535 219.245L320.099 66.5735L334.133 58.4747Z" fill="#0066A1"/>
<path d="M292.901 235.208L277.71 226.371L277.492 150.044L292.683 158.864L292.901 235.208Z" fill="#C5D1D8"/>
<path d="M292.683 158.864L277.492 150.044L291.51 141.945L306.718 150.765L292.683 158.864Z" fill="white"/>
<path d="M306.718 150.765L306.936 227.109L292.901 235.208L292.683 158.864L306.718 150.765Z" fill="#C5D1D8"/>
<path d="M265.268 251.154L250.076 242.334L249.758 130.375L264.949 139.195L265.268 251.154Z" fill="#0088D6"/>
<path d="M264.949 139.195L249.758 130.375L263.776 122.276L278.984 131.096L264.949 139.195Z" fill="#1357DD"/>
<path d="M278.984 131.096L279.286 243.055L265.268 251.154L264.95 139.195L278.984 131.096Z" fill="#0066A1"/>
<path d="M237.634 267.117L222.426 258.28L222.007 107.185L237.198 116.022L237.634 267.117Z" fill="#C5D1D8"/>
<path d="M237.198 116.022L222.007 107.185L236.025 99.0864L251.233 107.923L237.198 116.022Z" fill="white"/>
<path d="M251.233 107.923L251.652 259.018L237.634 267.117L237.198 116.022L251.233 107.923Z" fill="#C5D1D8"/>
<path d="M210.001 283.063L194.793 274.243L194.474 162.284L209.683 171.121L210.001 283.063Z" fill="#0088D6"/>
<path d="M209.683 171.121L194.474 162.284L208.509 154.185L223.7 163.022L209.683 171.121Z" fill="#1357DD"/>
<path d="M223.701 163.022L224.019 274.964L210.001 283.063L209.683 171.121L223.701 163.022Z" fill="#0066A1"/>
<path d="M182.368 299.026L167.159 290.189L166.941 213.879L182.15 222.716L182.368 299.026Z" fill="#C5D1D8"/>
<path d="M182.15 222.716L166.941 213.879L180.976 205.78L196.168 214.617L182.15 222.716Z" fill="white"/>
<path d="M196.167 214.617L196.385 290.927L182.367 299.026L182.149 222.716L196.167 214.617Z" fill="#C5D1D8"/>
<path d="M154.734 314.972L139.526 306.152L139.409 263.126L154.6 271.963L154.734 314.972Z" fill="#0088D6"/>
<path d="M154.6 271.963L139.409 263.126L153.427 255.027L168.635 263.864L154.6 271.963Z" fill="#1357DD"/>
<path d="M168.635 263.864L168.752 306.873L154.734 314.972L154.6 271.963L168.635 263.864Z" fill="#0066A1"/>
<path d="M127.084 330.935L111.892 322.098L111.725 261.801L126.916 270.638L127.084 330.935Z" fill="#C5D1D8"/>
<path d="M126.916 270.638L111.725 261.801L125.743 253.703L140.951 262.539L126.916 270.638Z" fill="white"/>
<path d="M140.951 262.539L141.119 322.836L127.084 330.935L126.917 270.638L140.951 262.539Z" fill="#C5D1D8"/>
<path d="M99.451 346.898L84.2593 338.062L84.0078 248.84L99.1995 257.677L99.451 346.898Z" fill="#0088D6"/>
<path d="M99.1995 257.677L84.0078 248.84L98.0257 240.741L113.234 249.578L99.1995 257.677Z" fill="#1357DD"/>
<path d="M113.234 249.578L113.485 338.799L99.4507 346.898L99.1992 257.677L113.234 249.578Z" fill="#0066A1"/>
<path d="M71.8173 362.844L56.6257 354.008L56.458 298.456L71.6664 307.292L71.8173 362.844Z" fill="#C5D1D8"/>
<path d="M71.6664 307.293L56.458 298.456L70.4927 290.357L85.6843 299.194L71.6664 307.293Z" fill="white"/>
<path d="M85.6844 299.194L85.8521 354.745L71.8174 362.844L71.6665 307.293L85.6844 299.194Z" fill="#C5D1D8"/>
<path d="M78.7593 333.97L105.789 263.495L161.676 288.68L243.503 122.276L299.81 180.762L327.342 71.7883" stroke="white" stroke-width="1.066" stroke-miterlimit="10" stroke-linecap="round" stroke-linejoin="round"/>
<path d="M327.309 61.124C322.178 64.0919 318.037 71.2685 318.053 77.154C318.07 83.0395 322.245 85.4373 327.376 82.4694C332.507 79.5015 336.649 72.3249 336.632 66.4226C336.615 60.5371 332.44 58.1561 327.309 61.124ZM327.359 77.3385C324.693 78.8811 322.53 77.6403 322.53 74.5885C322.514 71.5368 324.677 67.8143 327.343 66.2717C329.992 64.7291 332.172 65.9699 332.172 69.0216C332.172 72.0734 330.009 75.7958 327.359 77.3385Z" fill="white"/>
<path d="M327.326 66.2549C324.66 67.7976 322.514 71.52 322.514 74.5718C322.53 77.6403 324.677 78.8643 327.343 77.3217C329.992 75.7791 332.155 72.0566 332.155 69.0049C332.155 65.9531 329.975 64.7123 327.326 66.2549Z" fill="#1357DD"/>
<path d="M242.33 111.595C237.199 114.563 233.057 121.74 233.074 127.625C233.091 133.511 237.266 135.909 242.397 132.941C247.528 129.973 251.669 122.796 251.653 116.894C251.619 111.008 247.444 108.627 242.33 111.595ZM242.363 127.81C239.697 129.352 237.534 128.111 237.534 125.06C237.517 122.008 239.68 118.286 242.346 116.743C244.996 115.2 247.176 116.441 247.176 119.493C247.176 122.545 245.029 126.267 242.363 127.81Z" fill="white"/>
<path d="M242.329 116.726C239.663 118.269 237.517 121.991 237.517 125.043C237.534 128.111 239.68 129.336 242.346 127.793C244.996 126.25 247.159 122.528 247.159 119.476C247.159 116.424 244.996 115.2 242.329 116.726Z" fill="white"/>
<path d="M299.776 170.081C294.645 173.049 290.504 180.226 290.521 186.111C290.537 191.997 294.713 194.395 299.843 191.427C304.974 188.459 309.116 181.282 309.099 175.38C309.083 169.495 304.907 167.13 299.776 170.081ZM299.827 186.296C297.161 187.839 294.998 186.598 294.998 183.546C294.981 180.494 297.144 176.772 299.81 175.229C302.459 173.686 304.639 174.927 304.639 177.979C304.639 181.031 302.476 184.753 299.827 186.296Z" fill="white"/>
<path d="M299.793 175.212C297.127 176.755 294.981 180.477 294.981 183.529C294.998 186.598 297.144 187.822 299.81 186.279C302.459 184.736 304.622 181.014 304.622 177.962C304.622 174.927 302.443 173.686 299.793 175.212Z" fill="white"/>
<path d="M105.755 254.256C100.624 257.224 96.4828 264.4 96.4996 270.286C96.5163 276.171 100.692 278.569 105.822 275.601C110.953 272.633 115.095 265.457 115.078 259.554C115.062 253.686 110.886 251.305 105.755 254.256ZM105.806 270.47C103.14 272.013 100.977 270.772 100.977 267.72C100.96 264.669 103.123 260.946 105.789 259.404C108.438 257.878 110.618 259.102 110.618 262.153C110.618 265.222 108.455 268.944 105.806 270.47Z" fill="white"/>
<path d="M105.772 259.404C103.106 260.946 100.96 264.669 100.96 267.72C100.977 270.789 103.123 272.013 105.789 270.47C108.438 268.944 110.601 265.205 110.601 262.153C110.601 259.102 108.422 257.861 105.772 259.404Z" fill="#1357DD"/>
<path d="M161.643 276.524C156.512 279.491 152.37 286.668 152.387 292.554C152.404 298.439 156.579 300.837 161.71 297.869C166.841 294.901 170.982 287.724 170.966 281.822C170.949 275.937 166.774 273.556 161.643 276.524ZM161.693 292.721C159.027 294.264 156.864 293.023 156.864 289.971C156.847 286.92 159.01 283.197 161.676 281.655C164.325 280.112 166.505 281.353 166.505 284.404C166.505 287.473 164.359 291.195 161.693 292.721Z" fill="white"/>
<path d="M161.66 281.654C158.993 283.197 156.847 286.92 156.847 289.971C156.864 293.04 159.01 294.264 161.676 292.721C164.326 291.195 166.489 287.456 166.489 284.404C166.489 281.353 164.326 280.112 161.66 281.654Z" fill="#1357DD"/>
<path d="M78.7261 322.115C73.5952 325.083 69.4535 332.26 69.4703 338.145C69.487 344.031 73.6622 346.429 78.7932 343.461C83.9241 340.493 88.0658 333.316 88.049 327.414C88.0323 321.545 83.8571 319.164 78.7261 322.115ZM78.7764 338.33C76.1103 339.872 73.9473 338.632 73.9473 335.58C73.9305 332.528 76.0936 328.806 78.7596 327.263C81.409 325.737 83.5888 326.961 83.5888 330.013C83.5888 333.081 81.4257 336.804 78.7764 338.33Z" fill="white"/>
<path d="M78.743 327.263C76.0769 328.806 73.9307 332.528 73.9307 335.58C73.9474 338.648 76.0937 339.872 78.7598 338.33C81.4091 336.804 83.5722 333.065 83.5722 330.013C83.5722 326.961 81.3924 325.72 78.743 327.263Z" fill="white"/>
<path d="M92.5426 229.356L94.32 239.634L94.2529 213.879L63.1821 231.821L63.2324 246.291L92.5426 229.356Z" fill="#1357DD"/>
<path d="M313.61 39.4767L315.387 49.7554L315.303 24L284.232 41.9416L284.283 56.4122L313.61 39.4767Z" fill="#1357DD"/>
<path d="M229.62 87.265L231.397 97.5437L231.33 71.7883L200.259 89.7299L200.293 104.201L229.62 87.265Z" fill="white"/>
<path d="M62.3605 276.725L64.1379 287.003L64.0708 261.248L33 279.19L33.0335 293.66L62.3605 276.725Z" fill="white"/>
<path d="M516.752 337.86L395.755 268.005C386.298 262.539 370.989 262.539 361.599 268.005L121.232 407.682C116.554 410.398 114.207 413.969 114.207 417.541C114.207 417.658 114.223 417.776 114.223 417.893C114.223 417.994 114.223 418.111 114.24 418.212C114.257 418.329 114.274 418.446 114.29 418.564C114.307 418.664 114.307 418.782 114.341 418.882C114.357 419 114.391 419.117 114.408 419.235C114.425 419.335 114.458 419.453 114.475 419.553C114.508 419.671 114.542 419.788 114.575 419.905C114.609 420.006 114.643 420.123 114.676 420.224C114.71 420.341 114.76 420.459 114.81 420.576C114.844 420.677 114.894 420.794 114.928 420.895C114.978 421.012 115.028 421.129 115.095 421.247C115.146 421.347 115.196 421.448 115.246 421.565C115.313 421.683 115.38 421.8 115.447 421.917C115.498 422.018 115.548 422.119 115.615 422.219C115.682 422.337 115.766 422.454 115.833 422.555C115.9 422.655 115.95 422.756 116.034 422.856C116.118 422.974 116.202 423.091 116.286 423.192C116.353 423.292 116.42 423.376 116.504 423.477C116.588 423.594 116.688 423.695 116.789 423.812C116.873 423.913 116.94 423.997 117.04 424.097C117.141 424.198 117.242 424.315 117.342 424.416C117.426 424.516 117.527 424.6 117.61 424.701C117.728 424.801 117.845 424.919 117.963 425.019C118.063 425.103 118.147 425.204 118.248 425.288C118.365 425.388 118.499 425.506 118.633 425.606C118.734 425.69 118.834 425.774 118.935 425.858C119.069 425.975 119.237 426.076 119.371 426.193C119.472 426.277 119.572 426.344 119.673 426.428C119.841 426.545 120.025 426.663 120.193 426.78C120.293 426.847 120.377 426.914 120.478 426.965C120.763 427.149 121.048 427.317 121.333 427.484L242.33 497.339C242.9 497.675 243.487 497.976 244.107 498.261C244.308 498.362 244.526 498.446 244.727 498.53C245.147 498.714 245.566 498.899 246.002 499.066C246.136 499.117 246.287 499.167 246.421 499.217C246.907 499.402 247.393 499.569 247.896 499.72C248.064 499.77 248.232 499.821 248.4 499.871C249.003 500.056 249.607 500.206 250.21 500.357C250.311 500.374 250.428 500.408 250.529 500.424C250.965 500.525 251.418 500.609 251.854 500.693C252.273 500.777 252.709 500.844 253.128 500.911C253.48 500.961 253.849 501.011 254.201 501.062C254.604 501.112 255.006 501.162 255.408 501.196C255.777 501.229 256.146 501.263 256.515 501.296C256.918 501.33 257.337 501.347 257.739 501.363C258.108 501.38 258.477 501.397 258.846 501.397C259.282 501.397 259.735 501.397 260.171 501.397C260.606 501.397 261.059 501.38 261.495 501.363C261.613 501.363 261.747 501.347 261.864 501.347C262.518 501.313 263.172 501.246 263.826 501.179C263.994 501.162 264.161 501.145 264.312 501.129C264.865 501.062 265.436 500.978 265.989 500.894C266.123 500.877 266.257 500.86 266.391 500.827C266.727 500.777 267.045 500.693 267.364 500.626C267.817 500.542 268.253 500.441 268.705 500.341C269.024 500.257 269.343 500.173 269.661 500.089C270.08 499.972 270.499 499.854 270.902 499.737C271.489 499.552 272.076 499.351 272.629 499.15C272.696 499.117 272.763 499.1 272.83 499.066C273.35 498.865 273.87 498.647 274.373 498.412C274.524 498.345 274.675 498.278 274.809 498.211C275.362 497.943 275.915 497.658 276.435 497.356L516.802 357.663C517.087 357.495 517.372 357.311 517.657 357.143C517.708 357.11 517.758 357.076 517.808 357.043C517.825 357.026 517.842 357.009 517.859 357.009C518.06 356.875 518.261 356.741 518.445 356.607C518.496 356.573 518.546 356.54 518.596 356.506C518.647 356.473 518.68 356.439 518.73 356.406C518.881 356.288 519.049 356.171 519.2 356.053C519.25 356.02 519.301 355.97 519.334 355.936C519.384 355.886 519.435 355.852 519.502 355.802C519.636 355.701 519.77 355.584 519.887 355.483C519.938 355.45 519.971 355.399 520.022 355.349C520.072 355.299 520.122 355.265 520.173 355.215C520.29 355.114 520.407 354.997 520.525 354.896C520.608 354.813 520.692 354.712 520.776 354.628C520.877 354.511 520.994 354.41 521.095 354.293C521.179 354.209 521.246 354.108 521.329 354.024C521.43 353.907 521.531 353.806 521.615 353.689C521.615 353.672 521.631 353.672 521.631 353.656C521.682 353.589 521.732 353.521 521.782 353.454C521.799 353.438 521.816 353.421 521.816 353.404C521.9 353.287 521.983 353.169 522.067 353.069C522.084 353.052 522.101 353.018 522.118 352.985C522.168 352.918 522.218 352.834 522.268 352.767C522.336 352.65 522.419 352.549 522.486 352.432C522.52 352.381 522.537 352.348 522.554 352.297C522.587 352.247 522.621 352.18 522.654 352.13C522.721 352.012 522.788 351.912 522.839 351.794C522.855 351.744 522.889 351.694 522.906 351.66C522.939 351.61 522.956 351.543 522.99 351.493C523.04 351.375 523.107 351.258 523.14 351.157C523.157 351.107 523.174 351.04 523.207 350.989C523.224 350.939 523.241 350.889 523.258 350.839C523.308 350.721 523.342 350.604 523.392 350.486C523.409 350.436 523.425 350.369 523.442 350.319C523.459 350.268 523.476 350.218 523.493 350.168C523.526 350.05 523.56 349.933 523.593 349.816C523.61 349.749 523.61 349.698 523.627 349.631C523.643 349.581 523.643 349.531 523.66 349.497C523.677 349.38 523.711 349.262 523.727 349.145C523.744 349.078 523.744 349.011 523.744 348.944C523.744 348.894 523.761 348.86 523.761 348.81C523.778 348.692 523.794 348.575 523.794 348.458C523.794 348.39 523.794 348.323 523.811 348.24C523.811 348.206 523.811 348.173 523.811 348.122C524.029 344.417 521.648 340.677 516.752 337.86Z" fill="url(#paint0_linear)"/>
<path d="M258.963 496.367C258.628 496.367 258.309 496.35 257.991 496.333C257.622 496.316 257.27 496.3 256.901 496.283C256.582 496.266 256.264 496.232 255.928 496.199C255.576 496.165 255.224 496.132 254.872 496.082C254.553 496.048 254.252 495.998 253.933 495.947C253.564 495.897 253.195 495.83 252.843 495.763C252.441 495.679 252.055 495.612 251.686 495.528L251.468 495.478C250.898 495.344 250.378 495.21 249.875 495.059L249.523 494.941C249.037 494.79 248.618 494.64 248.215 494.489L247.846 494.355C247.528 494.237 247.209 494.086 246.89 493.952L246.304 493.701C245.817 493.466 245.348 493.214 244.878 492.963L123.882 423.108C123.647 422.974 123.446 422.84 123.228 422.706L122.574 422.27L122.071 421.884L121.551 421.448L121.081 421.012L120.713 420.626L120.176 419.956L119.958 419.62L119.723 419.218L119.556 418.866L119.354 418.262L119.321 418.027L119.287 417.809L119.271 417.474C119.271 415.747 120.914 413.735 123.781 412.075L364.148 272.382C367.887 270.219 373.169 268.961 378.669 268.961C384.169 268.961 389.484 270.202 393.257 272.382L514.237 342.22C517.188 343.93 518.915 346.06 518.831 347.921L518.781 348.357L518.731 348.625L518.546 349.179L518.395 349.514L518.228 349.799L517.976 350.185L517.657 350.604L517.322 350.99L516.92 351.392L516.534 351.744L516.048 352.147L515.528 352.532C515.444 352.599 514.924 352.935 514.924 352.935C514.773 353.035 514.555 353.169 514.337 353.287L273.954 492.98C273.535 493.214 273.099 493.449 272.663 493.65L272.311 493.818C271.891 494.002 271.489 494.187 271.053 494.355L270.835 494.438C270.399 494.606 269.913 494.774 269.41 494.925C269.074 495.025 268.722 495.126 268.37 495.226L267.532 495.461C267.213 495.528 266.878 495.612 266.526 495.679C266.526 495.679 265.738 495.847 265.57 495.88L265.184 495.947C264.731 496.015 264.245 496.098 263.759 496.149L263.373 496.199C262.77 496.266 262.2 496.316 261.629 496.35L261.344 496.367C260.942 496.383 260.59 496.4 260.254 496.4L259.382 496.417L258.963 496.367Z" fill="url(#paint1_linear)"/>
<path d="M523.878 348.122C523.878 348.156 523.878 348.189 523.878 348.24C523.878 348.307 523.878 348.374 523.861 348.458C523.844 348.575 523.828 348.692 523.828 348.81C523.828 348.86 523.811 348.893 523.811 348.944C523.794 349.011 523.794 349.078 523.794 349.145C523.777 349.262 523.744 349.38 523.727 349.497C523.71 349.547 523.71 349.598 523.694 349.631C523.677 349.698 523.677 349.749 523.66 349.816C523.626 349.933 523.593 350.05 523.559 350.168C523.543 350.218 523.526 350.268 523.509 350.319C523.492 350.369 523.476 350.436 523.459 350.486C523.425 350.604 523.375 350.721 523.325 350.839C523.308 350.889 523.291 350.939 523.274 350.989C523.258 351.04 523.241 351.107 523.207 351.157C523.157 351.275 523.107 351.392 523.056 351.493C523.023 351.543 523.006 351.61 522.973 351.66C522.956 351.711 522.922 351.761 522.905 351.794C522.855 351.912 522.788 352.012 522.721 352.13C522.687 352.197 522.654 352.247 522.62 352.297C522.604 352.348 522.57 352.381 522.553 352.432C522.486 352.549 522.402 352.65 522.335 352.767C522.285 352.834 522.235 352.918 522.184 352.985C522.168 353.002 522.151 353.035 522.134 353.069C522.05 353.186 521.966 353.303 521.883 353.404C521.866 353.421 521.866 353.438 521.849 353.454C521.799 353.521 521.749 353.589 521.698 353.656C521.698 353.672 521.681 353.672 521.681 353.689C521.598 353.806 521.497 353.907 521.396 354.024C521.312 354.108 521.245 354.209 521.162 354.293C521.061 354.41 520.944 354.511 520.843 354.628C520.759 354.712 520.675 354.813 520.592 354.896C520.474 355.014 520.357 355.114 520.239 355.215C520.189 355.265 520.139 355.299 520.088 355.349C520.038 355.399 520.005 355.433 519.954 355.483C519.837 355.584 519.703 355.701 519.569 355.802C519.518 355.852 519.468 355.886 519.401 355.936C519.351 355.97 519.3 356.02 519.267 356.053C519.116 356.171 518.965 356.288 518.797 356.406C518.747 356.439 518.714 356.473 518.663 356.506C518.613 356.54 518.563 356.573 518.512 356.607C518.328 356.741 518.127 356.875 517.925 357.009C517.909 357.026 517.892 357.043 517.875 357.043C517.825 357.076 517.774 357.11 517.724 357.143C517.456 357.328 517.171 357.495 516.869 357.663L276.502 497.356C275.982 497.658 275.429 497.943 274.876 498.211C274.725 498.278 274.574 498.345 274.44 498.412C273.937 498.647 273.417 498.865 272.897 499.066C272.83 499.1 272.763 499.117 272.696 499.15C272.126 499.368 271.556 499.553 270.969 499.737C270.566 499.871 270.147 499.972 269.728 500.089C269.409 500.173 269.108 500.274 268.772 500.341C268.336 500.441 267.883 500.542 267.431 500.626C267.112 500.693 266.777 500.76 266.458 500.827C266.324 500.844 266.19 500.877 266.056 500.894C265.502 500.978 264.949 501.062 264.379 501.129C264.211 501.145 264.06 501.162 263.893 501.179C263.239 501.246 262.585 501.296 261.931 501.347C261.814 501.347 261.679 501.363 261.562 501.363C261.126 501.38 260.673 501.397 260.237 501.397C259.801 501.397 259.349 501.414 258.913 501.397C258.544 501.397 258.175 501.38 257.806 501.363C257.404 501.347 256.984 501.33 256.582 501.296C256.213 501.263 255.844 501.246 255.475 501.196C255.073 501.162 254.67 501.112 254.268 501.062C253.899 501.011 253.547 500.961 253.195 500.911C252.759 500.844 252.34 500.777 251.921 500.693C251.468 500.609 251.032 500.525 250.596 500.424C250.495 500.408 250.378 500.374 250.277 500.357C249.657 500.206 249.053 500.039 248.466 499.871C248.299 499.821 248.131 499.77 247.963 499.72C247.46 499.569 246.974 499.402 246.488 499.217C246.354 499.167 246.203 499.117 246.069 499.066C245.633 498.899 245.213 498.714 244.794 498.53C244.593 498.446 244.375 498.362 244.174 498.261C243.57 497.976 242.966 497.658 242.396 497.339L121.4 427.484C121.098 427.317 120.813 427.132 120.545 426.965C120.444 426.897 120.36 426.83 120.259 426.78C120.075 426.663 119.907 426.545 119.74 426.428C119.639 426.361 119.538 426.277 119.438 426.193C119.287 426.076 119.136 425.975 119.002 425.858C118.901 425.774 118.801 425.69 118.7 425.606C118.566 425.506 118.432 425.388 118.314 425.288C118.214 425.204 118.113 425.103 118.029 425.019C117.912 424.919 117.795 424.802 117.677 424.701C117.577 424.6 117.493 424.516 117.409 424.416C117.308 424.315 117.191 424.198 117.107 424.097C117.023 423.997 116.939 423.913 116.856 423.812C116.755 423.695 116.654 423.594 116.571 423.477C116.487 423.376 116.42 423.292 116.353 423.192C116.269 423.074 116.185 422.957 116.101 422.856C116.034 422.756 115.967 422.655 115.9 422.555C115.833 422.437 115.749 422.32 115.682 422.219C115.615 422.119 115.564 422.018 115.514 421.917C115.447 421.8 115.38 421.683 115.313 421.565C115.263 421.465 115.212 421.364 115.162 421.247C115.112 421.129 115.045 421.012 114.994 420.895C114.944 420.794 114.911 420.677 114.877 420.576C114.827 420.459 114.793 420.341 114.743 420.224C114.709 420.123 114.676 420.006 114.642 419.905C114.609 419.788 114.575 419.671 114.542 419.553C114.508 419.453 114.491 419.335 114.475 419.235C114.458 419.117 114.424 419 114.408 418.882C114.391 418.782 114.374 418.664 114.357 418.564C114.34 418.446 114.324 418.329 114.307 418.212C114.29 418.111 114.29 417.994 114.29 417.893C114.29 417.776 114.273 417.658 114.273 417.541C114.273 417.524 114.273 417.524 114.273 417.507L114.24 429.295C114.223 432.9 116.604 436.505 121.366 439.255L242.363 509.11C242.933 509.446 243.52 509.747 244.14 510.032C244.341 510.133 244.559 510.217 244.761 510.301C245.113 510.468 245.482 510.619 245.851 510.77C245.918 510.804 245.985 510.821 246.052 510.854C246.186 510.904 246.337 510.955 246.471 511.005C246.957 511.189 247.443 511.357 247.947 511.508C248.114 511.558 248.282 511.609 248.45 511.659C248.567 511.692 248.684 511.726 248.785 511.743C249.271 511.877 249.757 512.028 250.26 512.145C250.361 512.162 250.462 512.195 250.579 512.212C250.814 512.263 251.065 512.313 251.3 512.363C251.501 512.397 251.703 512.447 251.904 512.481C252.323 512.564 252.759 512.631 253.178 512.699C253.346 512.732 253.513 512.749 253.698 512.766C253.882 512.799 254.067 512.816 254.268 512.849C254.67 512.9 255.073 512.95 255.475 512.984C255.66 513 255.861 513.017 256.045 513.034C256.23 513.051 256.398 513.067 256.582 513.084C256.984 513.118 257.404 513.134 257.806 513.151C258.007 513.151 258.208 513.168 258.426 513.168C258.594 513.168 258.762 513.185 258.913 513.185C259.349 513.185 259.801 513.185 260.237 513.185C260.455 513.185 260.673 513.168 260.891 513.168C261.109 513.168 261.344 513.168 261.562 513.151C261.679 513.151 261.797 513.134 261.931 513.134C262.484 513.101 263.038 513.051 263.574 513C263.675 512.984 263.775 512.984 263.893 512.967C264.06 512.95 264.228 512.933 264.379 512.9C264.932 512.833 265.502 512.749 266.056 512.665C266.19 512.648 266.324 512.631 266.458 512.598C266.525 512.581 266.592 512.564 266.659 512.564C266.928 512.514 267.179 512.464 267.431 512.413C267.883 512.33 268.319 512.229 268.772 512.128C269.091 512.045 269.409 511.961 269.728 511.877C270.147 511.759 270.566 511.659 270.969 511.525C271.053 511.491 271.153 511.458 271.237 511.441C271.723 511.273 272.226 511.122 272.713 510.938C272.78 510.904 272.847 510.888 272.914 510.854C273.434 510.653 273.953 510.418 274.456 510.2C274.607 510.133 274.758 510.066 274.909 509.999C275.463 509.731 276.016 509.446 276.536 509.144L516.835 369.417C516.936 369.35 517.037 369.3 517.137 369.233C517.221 369.183 517.322 369.132 517.406 369.065C517.557 368.965 517.707 368.881 517.842 368.78C517.976 368.696 518.093 368.612 518.227 368.529C518.361 368.428 518.496 368.344 518.63 368.244C518.747 368.16 518.864 368.059 518.982 367.975C519.116 367.875 519.233 367.774 519.367 367.673C519.485 367.59 519.585 367.489 519.703 367.405C519.82 367.305 519.938 367.204 520.055 367.103C520.105 367.053 520.156 367.02 520.189 366.969C520.223 366.936 520.273 366.902 520.306 366.852C520.491 366.667 520.675 366.483 520.86 366.299C520.927 366.231 520.977 366.181 521.044 366.114C521.262 365.879 521.48 365.628 521.665 365.376C521.681 365.36 521.681 365.36 521.698 365.343C521.749 365.292 521.782 365.225 521.816 365.175C521.933 365.024 522.05 364.856 522.151 364.706C522.201 364.622 522.268 364.538 522.319 364.454C522.402 364.32 522.503 364.169 522.587 364.018C522.604 363.968 522.637 363.934 522.654 363.884C522.687 363.834 522.721 363.783 522.738 363.716C522.805 363.599 522.872 363.482 522.922 363.347C522.973 363.247 523.023 363.146 523.073 363.046C523.123 362.928 523.174 362.811 523.224 362.677C523.241 362.61 523.274 362.559 523.291 362.492C523.308 362.442 523.325 362.408 523.341 362.358C523.375 362.241 523.425 362.123 523.459 362.006C523.492 361.905 523.526 361.788 523.559 361.687C523.593 361.57 523.626 361.453 523.643 361.335C523.66 361.268 523.677 361.184 523.694 361.117C523.694 361.084 523.71 361.05 523.71 361.017C523.727 360.899 523.744 360.782 523.761 360.648C523.777 360.547 523.794 360.43 523.794 360.329C523.811 360.212 523.811 360.094 523.828 359.96C523.828 359.843 523.844 359.726 523.844 359.608C523.844 359.591 523.844 359.558 523.844 359.541L523.878 347.753C523.878 347.921 523.878 348.022 523.878 348.122Z" fill="url(#paint2_radial)"/>
<path d="M266.928 480.957L100.541 384.894L100.524 387.594L266.928 483.657L359.587 429.815L359.604 427.099L266.928 480.957Z" fill="url(#paint3_linear)"/>
<path d="M193.2 331.036L100.541 384.894L266.928 480.957L359.604 427.099L193.2 331.036Z" fill="url(#paint4_linear)"/>
<path d="M181.026 353.438L126.447 385.162L134.73 389.958L189.326 358.233L181.026 353.438Z" fill="#1357DD"/>
<path d="M171.854 381.255L145.847 396.363L154.13 401.159L180.137 386.034L171.854 381.255Z" fill="#C5D1D8"/>
<path d="M200.292 387.191L165.248 407.564L166.807 408.47L173.531 412.36L208.592 391.987L200.292 387.191Z" fill="#1357DD"/>
<path d="M205.34 406.726L184.631 418.765L190.802 422.32L192.931 423.544L213.64 411.521L205.34 406.726Z" fill="#C5D1D8"/>
<path d="M245.448 405.904L204.032 429.966L206.161 431.19L212.332 434.745L253.732 410.683L245.448 405.904Z" fill="#1357DD"/>
<path d="M249.439 426.042L223.432 441.167L231.732 445.946L257.739 430.838L249.439 426.042Z" fill="#C5D1D8"/>
<path d="M286.177 436.774L277.877 431.995L242.833 452.368L248.819 455.822L251.133 457.147L286.177 436.774Z" fill="#1357DD"/>
<path d="M316.829 431.844L262.233 463.569L270.533 468.348L325.112 436.623L316.829 431.844Z" fill="#C5D1D8"/>
<path d="M180.138 356.188L172.207 387.191L204.032 389.958L208.593 410.733H248.064L251.686 430.503L280.091 436.002L318.439 434.745" stroke="white" stroke-width="0.5013" stroke-miterlimit="10"/>
<path d="M190.399 348.759L188.572 352.767L195.463 351.694L190.399 348.759Z" fill="#1357DD"/>
<path d="M208.559 382.899L206.731 386.889L213.64 385.816L208.559 382.899Z" fill="#1357DD"/>
<path d="M252.122 401.159L250.294 405.15L257.186 404.076L252.122 401.159Z" fill="#1357DD"/>
<path d="M287.536 427.836L285.708 431.844L292.616 430.771L287.536 427.836Z" fill="#1357DD"/>
<path d="M180.456 376.192L178.628 380.199L185.537 379.126L180.456 376.192Z" fill="#C5D1D8"/>
<path d="M215.467 401.159L213.64 405.15L220.531 404.076L215.467 401.159Z" fill="#C5D1D8"/>
<path d="M259.013 420.324L257.186 424.332L264.077 423.259L259.013 420.324Z" fill="#C5D1D8"/>
<path d="M325.8 426.512L323.972 430.503L330.881 429.429L325.8 426.512Z" fill="#C5D1D8"/>
<path d="M338.61 399.566L172.223 303.503L172.207 306.203L338.61 402.265L431.27 348.424L431.286 345.708L338.61 399.566Z" fill="url(#paint5_linear)"/>
<path d="M264.882 249.645L172.223 303.503L338.61 399.566L431.286 345.708L264.882 249.645Z" fill="url(#paint6_linear)"/>
<path d="M205.792 287.054C205.792 287.054 257.488 287.406 263.34 294.297C269.192 301.189 265.838 321.713 272.109 323.507C278.38 325.301 327.376 321.478 329.288 323.507C331.199 325.536 324.995 349.531 329.288 349.782C333.58 350.034 398.002 352.348 398.002 352.348" stroke="white" stroke-width="0.2507" stroke-miterlimit="10"/>
<path d="M198.565 292.537C198.565 292.537 240.904 295.018 255.962 296.729C271.019 298.439 281.902 302.329 284.551 313.279C287.2 324.228 287.77 335.211 301.889 333.316C316.007 331.421 344.613 332.863 352.293 335.261C359.973 337.659 372.85 373.207 372.85 373.207" stroke="#C5D1D8" stroke-width="0.2507" stroke-miterlimit="10"/>
<path d="M225.595 277.932C225.595 277.932 257.521 281.369 266.777 289.049C276.033 296.729 285.825 326.911 311.011 328.571C336.196 330.231 330.713 337.173 344.999 340.141C359.285 343.109 407.526 343.779 407.526 343.779" stroke="#1357DD" stroke-width="0.2507" stroke-miterlimit="10"/>
<path d="M211.46 291.598L222.728 285.042L221.286 284.22L224.019 282.627L222.527 281.755L219.794 283.348L218.368 282.526L207.1 289.083L208.526 289.904L205.792 291.497L206.715 292.017L207.285 292.352L210.018 290.759L211.46 291.598Z" fill="#C5D1D8"/>
<path d="M235.606 284.522L234.113 283.667L231.38 285.26L229.938 284.421L223.667 288.077L225.109 288.898L222.376 290.491L223.868 291.346L226.601 289.753L228.027 290.592L234.298 286.936L232.873 286.115L235.606 284.522Z" fill="#1357DD"/>
<path d="M245.868 288.848L244.442 288.01L247.176 286.433L245.683 285.561L242.95 287.154L241.525 286.333L236.478 289.25L237.92 290.072L235.187 291.665L236.679 292.537L239.412 290.944L240.837 291.766L245.868 288.848Z" fill="#C5D1D8"/>
<path d="M257.27 287.456L254.536 289.049L253.094 288.228L241.826 294.784L243.268 295.605L240.519 297.198L242.011 298.053L244.761 296.461L246.186 297.282L257.454 290.743L256.029 289.921L258.762 288.328L257.27 287.456Z" fill="#1357DD"/>
<path d="M267.833 319.214L279.101 312.675L277.676 311.853L280.409 310.26L278.917 309.388L276.184 310.981L274.758 310.16L263.474 316.699L264.916 317.538L262.183 319.114L263.675 319.986L266.408 318.393L267.833 319.214Z" fill="#1357DD"/>
<path d="M264.514 312.524L270.802 308.869L269.376 308.047L272.109 306.454L270.617 305.582L267.884 307.175L266.442 306.354L260.154 310.009L261.596 310.831L258.863 312.423L260.355 313.279L263.088 311.702L264.514 312.524Z" fill="#C5D1D8"/>
<path d="M268.118 296.762L261.076 300.854L262.501 301.675L259.768 303.268L261.26 304.123L263.994 302.53L265.436 303.369L272.461 299.277L271.036 298.439L273.769 296.863L272.277 295.991L269.544 297.584L268.118 296.762Z" fill="#1357DD"/>
<path d="M260.724 295.807L263.34 294.297L264.765 295.119L264.883 295.052L269.024 292.637L269.142 292.57L267.716 291.749L270.332 290.223L270.449 290.156L268.957 289.301L268.84 289.368L266.224 290.877L264.799 290.055L264.681 290.122L260.523 292.537L260.406 292.604L261.848 293.426L259.232 294.951L259.098 295.018L260.607 295.89L260.724 295.807Z" fill="#C5D1D8"/>
<path d="M276.05 321.411L278.783 319.818L277.29 318.963L274.557 320.556L273.132 319.734L266.794 323.406L268.236 324.228L265.486 325.821L266.995 326.676L269.728 325.1L271.153 325.922L277.492 322.233L276.05 321.411Z" fill="#C5D1D8"/>
<path d="M293.807 317.99L291.073 319.583L289.648 318.762L278.38 325.301L279.805 326.123L277.072 327.716L278.565 328.588L281.298 326.995L282.723 327.816L293.991 321.277L292.566 320.439L295.299 318.862L293.807 317.99Z" fill="#1357DD"/>
<path d="M309.518 317.487L306.785 319.08L305.36 318.259L299.055 321.914L300.48 322.752L297.747 324.329L299.239 325.201L301.973 323.608L303.398 324.429L309.703 320.774L308.277 319.952L311.01 318.359L309.518 317.487Z" fill="#C5D1D8"/>
<path d="M319.965 321.78L322.698 320.187L321.205 319.332L318.472 320.925L317.047 320.086L313.609 322.082L315.052 322.903L312.318 324.496L313.811 325.368L316.544 323.775L317.969 324.597L321.39 322.602L319.965 321.78Z" fill="#1357DD"/>
<path d="M337.252 346.244L339.985 344.651L338.493 343.796L335.76 345.389L334.335 344.551L323.067 351.107L324.492 351.929L321.759 353.521L323.251 354.377L325.984 352.8L327.41 353.622L338.677 347.066L337.252 346.244Z" fill="#1357DD"/>
<path d="M324.09 346.915L330.109 343.427L328.684 342.606L331.417 341.013L329.925 340.141L327.192 341.734L325.75 340.912L319.747 344.4L321.172 345.238L318.439 346.814L319.931 347.686L322.664 346.093L324.09 346.915Z" fill="#C5D1D8"/>
<path d="M331.853 330.399L329.12 331.975L327.695 331.153L324.542 332.981L325.968 333.819L323.234 335.395L324.727 336.267L327.46 334.674L328.902 335.496L332.054 333.668L330.612 332.847L333.345 331.254L331.853 330.399Z" fill="#1357DD"/>
<path d="M322.899 326.961L320.166 328.554L321.658 329.426L324.408 327.833L325.834 328.655L337.102 322.115L335.676 321.277L338.409 319.684L336.917 318.829L334.184 320.422L332.742 319.6L321.474 326.14L322.899 326.961Z" fill="#1357DD"/>
<path d="M349.56 347.72L352.293 346.127L350.801 345.272L348.068 346.865L346.626 346.026L339.013 350.47L340.438 351.291L337.705 352.884L339.197 353.739L341.947 352.146L343.373 352.985L350.985 348.541L349.56 347.72Z" fill="#C5D1D8"/>
<path d="M361.214 349.581L363.964 347.988L362.454 347.116L359.721 348.709L358.296 347.887L352.209 351.425L353.635 352.247L350.901 353.84L352.394 354.695L355.127 353.119L356.552 353.941L362.656 350.403L361.214 349.581Z" fill="#1357DD"/>
<path d="M376.103 347.82L373.37 349.413L371.928 348.592L360.66 355.131L362.102 355.953L359.352 357.546L360.861 358.418L363.594 356.825L365.02 357.646L376.288 351.107L374.862 350.269L377.595 348.692L376.103 347.82Z" fill="#C5D1D8"/>
<path d="M389.165 348.86L386.415 350.453L384.99 349.631L379.356 352.901L380.782 353.723L378.048 355.316L379.541 356.187L382.274 354.595L383.716 355.416L389.35 352.146L387.908 351.325L390.658 349.732L389.165 348.86Z" fill="#1357DD"/>
<path d="M396.56 351.526L392.301 354.008L393.726 354.829L390.993 356.422L392.485 357.277L395.219 355.701L396.661 356.523L400.92 354.041L399.494 353.22L402.228 351.627L401.507 351.207L400.735 350.772L398.002 352.348L396.56 351.526Z" fill="#C5D1D8"/>
<path d="M274.977 281.168L271.288 283.315L277.911 287.138L281.6 284.991L274.977 281.168Z" fill="#1357DD"/>
<path d="M272.847 284.79L271.724 287.221L275.932 286.567L272.847 284.79Z" fill="#1357DD"/>
<path d="M351.404 323.658L347.715 325.804L354.339 329.627L358.028 327.481L351.404 323.658Z" fill="#1357DD"/>
<path d="M349.275 327.28L348.151 329.711L352.36 329.057L349.275 327.28Z" fill="#1357DD"/>
<path d="M343.54 310.26L339.852 312.407L346.475 316.23L350.164 314.083L343.54 310.26Z" fill="#1357DD"/>
<path d="M341.394 313.882L340.288 316.314L344.48 315.66L341.394 313.882Z" fill="#1357DD"/>
<path d="M243.017 270.202L239.328 272.332L245.951 276.155L249.64 274.025L243.017 270.202Z" fill="#C5D1D8"/>
<path d="M240.871 273.807L239.764 276.255L243.973 275.601L240.871 273.807Z" fill="#C5D1D8"/>
<path d="M292.482 306.37L288.793 308.517L295.417 312.34L299.106 310.193L292.482 306.37Z" fill="#C5D1D8"/>
<path d="M290.336 309.992L289.229 312.423L293.421 311.77L290.336 309.992Z" fill="#C5D1D8"/>
<path d="M403.854 340.761L400.165 342.907L406.788 346.73L410.477 344.584L403.854 340.761Z" fill="#C5D1D8"/>
<path d="M401.708 344.383L400.601 346.814L404.793 346.16L401.708 344.383Z" fill="#C5D1D8"/>
<path d="M297.58 350.772L294.612 352.482L352.276 385.766L355.244 384.056L297.58 350.772Z" fill="#1357DD"/>
<path d="M310.91 369.853L345.402 389.757L348.37 388.03L313.878 368.126L310.91 369.853Z" fill="#C5D1D8"/>
<path d="M463.011 357.277L296.624 261.198V263.914L463.011 359.977L555.67 306.119L555.687 303.419L463.011 357.277Z" fill="url(#paint7_linear)"/>
<path d="M389.283 207.356L296.624 261.198L463.011 357.277L555.687 303.419L389.283 207.356Z" fill="url(#paint8_linear)"/>
<path d="M306.684 261.181L389.299 213.175L545.626 303.436L463.011 351.442L306.684 261.181Z" fill="url(#paint9_linear)"/>
<path d="M528.64 313.295L536.471 308.751L496.027 306.639V293.208L469.097 290.407L456.857 270.839C456.857 270.839 412.523 276.691 412.523 276.306C412.523 275.92 411.416 247.18 411.416 247.18L357.021 253.686L350.197 235.945L306.718 261.215L463.044 351.459L528.64 313.295Z" fill="url(#paint10_linear)"/>
<path d="M528.64 313.295L463.011 351.442L306.701 261.198L336.179 244.044L363.963 245.453L378.048 287.071L478.203 285.561L483.552 313.295H528.64Z" fill="url(#paint11_linear)"/>
<g opacity="0.19">
<path opacity="0.19" d="M386.935 211.817L552.4 307.343" stroke="white" stroke-width="0.5013" stroke-miterlimit="10"/>
<path opacity="0.19" d="M377.746 217.115L543.211 312.658" stroke="white" stroke-width="0.5013" stroke-miterlimit="10"/>
<path opacity="0.19" d="M368.558 222.431L534.023 317.957" stroke="white" stroke-width="0.5013" stroke-miterlimit="10"/>
<path opacity="0.19" d="M359.352 227.729L524.817 323.272" stroke="white" stroke-width="0.5013" stroke-miterlimit="10"/>
<path opacity="0.19" d="M350.163 233.045L515.628 328.571" stroke="white" stroke-width="0.5013" stroke-miterlimit="10"/>
<path opacity="0.19" d="M340.975 238.343L506.44 333.886" stroke="white" stroke-width="0.5013" stroke-miterlimit="10"/>
<path opacity="0.19" d="M331.786 243.659L497.251 339.185" stroke="white" stroke-width="0.5013" stroke-miterlimit="10"/>
<path opacity="0.19" d="M322.597 248.957L488.045 344.5" stroke="white" stroke-width="0.5013" stroke-miterlimit="10"/>
<path opacity="0.19" d="M313.392 254.273L478.857 349.799" stroke="white" stroke-width="0.5013" stroke-miterlimit="10"/>
<path opacity="0.19" d="M304.203 259.588L469.668 355.114" stroke="white" stroke-width="0.5013" stroke-miterlimit="10"/>
</g>
<path d="M306.919 242.567L363.963 245.451L378.048 287.052L478.186 285.56L483.551 313.277H561.555" stroke="white" stroke-width="1.0027" stroke-miterlimit="10"/>
<path d="M366.445 243.407C364.516 242.284 361.397 242.284 359.469 243.407C357.541 244.531 357.558 246.325 359.486 247.448C361.414 248.555 364.55 248.572 366.461 247.448C368.39 246.325 368.373 244.514 366.445 243.407Z" fill="#1357DD"/>
<path d="M364.684 244.43C363.728 243.877 362.186 243.877 361.23 244.43C360.274 244.983 360.291 245.872 361.247 246.425C362.203 246.979 363.745 246.979 364.701 246.425C365.64 245.872 365.64 244.967 364.684 244.43Z" fill="white"/>
<path d="M480.6 283.633C478.672 282.51 475.536 282.51 473.625 283.633C471.697 284.757 471.713 286.551 473.642 287.674C475.57 288.781 478.706 288.798 480.617 287.674C482.545 286.551 482.529 284.74 480.6 283.633Z" fill="#1357DD"/>
<path d="M478.84 284.639C477.884 284.086 476.341 284.086 475.386 284.639C474.43 285.192 474.447 286.081 475.403 286.635C476.358 287.188 477.901 287.188 478.857 286.635C479.812 286.098 479.796 285.192 478.84 284.639Z" fill="white"/>
<path d="M381.066 285.042C379.138 283.918 376.002 283.918 374.091 285.042C372.162 286.165 372.179 287.959 374.107 289.083C376.036 290.189 379.171 290.206 381.083 289.083C383.011 287.959 382.994 286.148 381.066 285.042Z" fill="#C5D1D8"/>
<path d="M379.306 286.064C378.35 285.511 376.807 285.511 375.852 286.064C374.896 286.618 374.913 287.506 375.868 288.06C376.824 288.613 378.367 288.613 379.323 288.06C380.278 287.506 380.262 286.618 379.306 286.064Z" fill="white"/>
<path d="M487.978 311.267C486.049 310.143 482.914 310.143 481.002 311.267C479.074 312.39 479.091 314.184 481.019 315.308C482.947 316.414 486.083 316.431 487.995 315.308C489.923 314.184 489.906 312.373 487.978 311.267Z" fill="#C5D1D8"/>
<path d="M486.217 312.289C485.262 311.736 483.719 311.736 482.763 312.289C481.807 312.843 481.824 313.731 482.78 314.285C483.736 314.838 485.278 314.838 486.234 314.285C487.173 313.731 487.173 312.843 486.217 312.289Z" fill="white"/>
</g>
<defs>
<linearGradient id="paint0_linear" x1="114.209" y1="382.656" x2="523.879" y2="382.656" gradientUnits="userSpaceOnUse">
<stop stop-color="#E3E3E3"/>
<stop offset="1" stop-color="#636787"/>
</linearGradient>
<linearGradient id="paint1_linear" x1="450.058" y1="303.096" x2="177.045" y2="468.905" gradientUnits="userSpaceOnUse">
<stop stop-color="white"/>
<stop offset="1" stop-color="#B7C7FF"/>
</linearGradient>
<radialGradient id="paint2_radial" cx="0" cy="0" r="1" gradientUnits="userSpaceOnUse" gradientTransform="translate(319.03 430.507) scale(156.211)">
<stop stop-color="#5288F4"/>
<stop offset="1" stop-color="#012060"/>
</radialGradient>
<linearGradient id="paint3_linear" x1="100.531" y1="434.278" x2="359.598" y2="434.278" gradientUnits="userSpaceOnUse">
<stop stop-color="#4600EB"/>
<stop offset="1" stop-color="#03008A"/>
</linearGradient>
<linearGradient id="paint4_linear" x1="262.467" y1="374.698" x2="194.367" y2="440.489" gradientUnits="userSpaceOnUse">
<stop stop-color="#4600EB"/>
<stop offset="1" stop-color="#03008A"/>
</linearGradient>
<linearGradient id="paint5_linear" x1="172.214" y1="352.882" x2="431.281" y2="352.882" gradientUnits="userSpaceOnUse">
<stop stop-color="#1900A8"/>
<stop offset="1" stop-color="#13003B"/>
</linearGradient>
<linearGradient id="paint6_linear" x1="334.15" y1="293.303" x2="266.051" y2="359.094" gradientUnits="userSpaceOnUse">
<stop stop-color="#1900A8"/>
<stop offset="1" stop-color="#13003B"/>
</linearGradient>
<linearGradient id="paint7_linear" x1="296.617" y1="310.589" x2="555.684" y2="310.589" gradientUnits="userSpaceOnUse">
<stop stop-color="#330FFF"/>
<stop offset="1" stop-color="#300096"/>
</linearGradient>
<linearGradient id="paint8_linear" x1="458.553" y1="251.009" x2="390.454" y2="316.8" gradientUnits="userSpaceOnUse">
<stop stop-color="#330FFF"/>
<stop offset="1" stop-color="#000F96"/>
</linearGradient>
<linearGradient id="paint9_linear" x1="455.561" y1="253.899" x2="393.749" y2="313.616" gradientUnits="userSpaceOnUse">
<stop stop-color="#300096"/>
<stop offset="1" stop-color="#330FFF"/>
</linearGradient>
<linearGradient id="paint10_linear" x1="418.517" y1="289.751" x2="379.732" y2="350.319" gradientUnits="userSpaceOnUse">
<stop stop-color="#330FFF"/>
<stop offset="1"/>
</linearGradient>
<linearGradient id="paint11_linear" x1="414.898" y1="291.561" x2="379.832" y2="346.321" gradientUnits="userSpaceOnUse">
<stop stop-color="#330FFF"/>
<stop offset="1"/>
</linearGradient>
<clipPath id="clip0">
<rect width="528.556" height="500" fill="white" transform="translate(33 24)"/>
</clipPath>
</defs>
</svg>
